%TF.GenerationSoftware,KiCad,Pcbnew,(6.0.1)*%
%TF.CreationDate,2022-03-12T16:38:44+00:00*%
%TF.ProjectId,Ball_Base_Components,42616c6c-5f42-4617-9365-5f436f6d706f,rev?*%
%TF.SameCoordinates,Original*%
%TF.FileFunction,Copper,L4,Bot*%
%TF.FilePolarity,Positive*%
%FSLAX46Y46*%
G04 Gerber Fmt 4.6, Leading zero omitted, Abs format (unit mm)*
G04 Created by KiCad (PCBNEW (6.0.1)) date 2022-03-12 16:38:44*
%MOMM*%
%LPD*%
G01*
G04 APERTURE LIST*
G04 Aperture macros list*
%AMRoundRect*
0 Rectangle with rounded corners*
0 $1 Rounding radius*
0 $2 $3 $4 $5 $6 $7 $8 $9 X,Y pos of 4 corners*
0 Add a 4 corners polygon primitive as box body*
4,1,4,$2,$3,$4,$5,$6,$7,$8,$9,$2,$3,0*
0 Add four circle primitives for the rounded corners*
1,1,$1+$1,$2,$3*
1,1,$1+$1,$4,$5*
1,1,$1+$1,$6,$7*
1,1,$1+$1,$8,$9*
0 Add four rect primitives between the rounded corners*
20,1,$1+$1,$2,$3,$4,$5,0*
20,1,$1+$1,$4,$5,$6,$7,0*
20,1,$1+$1,$6,$7,$8,$9,0*
20,1,$1+$1,$8,$9,$2,$3,0*%
G04 Aperture macros list end*
%ADD10C,0.300000*%
%TA.AperFunction,NonConductor*%
%ADD11C,0.300000*%
%TD*%
%TA.AperFunction,ComponentPad*%
%ADD12R,1.800000X1.800000*%
%TD*%
%TA.AperFunction,ComponentPad*%
%ADD13C,1.800000*%
%TD*%
%TA.AperFunction,ComponentPad*%
%ADD14C,2.000000*%
%TD*%
%TA.AperFunction,ComponentPad*%
%ADD15R,1.700000X1.700000*%
%TD*%
%TA.AperFunction,ComponentPad*%
%ADD16C,1.700000*%
%TD*%
%TA.AperFunction,ComponentPad*%
%ADD17O,0.950000X1.250000*%
%TD*%
%TA.AperFunction,ComponentPad*%
%ADD18O,1.550000X1.000000*%
%TD*%
%TA.AperFunction,ComponentPad*%
%ADD19RoundRect,0.725000X-0.725000X1.575000X-0.725000X-1.575000X0.725000X-1.575000X0.725000X1.575000X0*%
%TD*%
%TA.AperFunction,ComponentPad*%
%ADD20O,4.600000X2.500000*%
%TD*%
%TA.AperFunction,ComponentPad*%
%ADD21C,0.500000*%
%TD*%
%TA.AperFunction,SMDPad,CuDef*%
%ADD22R,5.150000X5.150000*%
%TD*%
%TA.AperFunction,ComponentPad*%
%ADD23C,2.100000*%
%TD*%
%TA.AperFunction,ComponentPad*%
%ADD24C,1.750000*%
%TD*%
%TA.AperFunction,ViaPad*%
%ADD25C,0.800000*%
%TD*%
%TA.AperFunction,ViaPad*%
%ADD26C,1.000000*%
%TD*%
%TA.AperFunction,ViaPad*%
%ADD27C,0.400000*%
%TD*%
%TA.AperFunction,Conductor*%
%ADD28C,0.250000*%
%TD*%
%TA.AperFunction,Conductor*%
%ADD29C,0.350000*%
%TD*%
G04 APERTURE END LIST*
D10*
%TO.C,FID1*%
D11*
X147685714Y-57978571D02*
X147685714Y-58978571D01*
X147328571Y-57407142D02*
X146971428Y-58478571D01*
X147900000Y-58478571D01*
%TD*%
D12*
%TO.P,D5,1,K*%
%TO.N,Net-(D5-Pad1)*%
X129700000Y-75800000D03*
D13*
%TO.P,D5,2,A*%
%TO.N,Net-(D5-Pad2)*%
X129700000Y-78340000D03*
%TD*%
D12*
%TO.P,D3,1,K*%
%TO.N,Net-(D3-Pad1)*%
X129223750Y-140000000D03*
D13*
%TO.P,D3,2,A*%
%TO.N,/LED_BLUE_OUT*%
X131763750Y-140000000D03*
%TD*%
D14*
%TO.P,TP3,1,1*%
%TO.N,VCC*%
X149300000Y-94000000D03*
%TD*%
D12*
%TO.P,D4,1,K*%
%TO.N,Net-(D4-Pad1)*%
X129700000Y-57725000D03*
D13*
%TO.P,D4,2,A*%
%TO.N,Net-(D4-Pad2)*%
X129700000Y-60265000D03*
%TD*%
D12*
%TO.P,D6,1,K*%
%TO.N,Net-(D6-Pad1)*%
X129700000Y-93800000D03*
D13*
%TO.P,D6,2,A*%
%TO.N,Net-(D6-Pad2)*%
X129700000Y-96340000D03*
%TD*%
D14*
%TO.P,TP2,1,1*%
%TO.N,+3V3*%
X160500000Y-117500000D03*
%TD*%
D15*
%TO.P,J2,1,Pin_1*%
%TO.N,+3V3*%
X160500000Y-142380000D03*
D16*
%TO.P,J2,2,Pin_2*%
%TO.N,GND*%
X160500000Y-139840000D03*
%TO.P,J2,3,Pin_3*%
%TO.N,/SWIO*%
X160500000Y-137300000D03*
%TO.P,J2,4,Pin_4*%
%TO.N,/SWCLK*%
X160500000Y-134760000D03*
%TD*%
D17*
%TO.P,J3,*%
%TO.N,*%
X157215000Y-152700000D03*
X157215000Y-147700000D03*
D18*
X159915000Y-146700000D03*
%TO.P,J3,6,Shield*%
%TO.N,unconnected-(J3-Pad6)*%
X159915000Y-153700000D03*
%TD*%
D19*
%TO.P,J5,1*%
%TO.N,GND*%
X127600000Y-85000000D03*
D20*
%TO.P,J5,2*%
%TO.N,unconnected-(J5-Pad2)*%
X138600000Y-90200000D03*
D19*
%TO.P,J5,3*%
%TO.N,/Y_Filtered*%
X140800000Y-85000000D03*
%TD*%
D14*
%TO.P,TP1,1,1*%
%TO.N,GND*%
X160500000Y-124600000D03*
%TD*%
D19*
%TO.P,J6,1*%
%TO.N,GND*%
X127600000Y-103000000D03*
D20*
%TO.P,J6,2*%
%TO.N,unconnected-(J6-Pad2)*%
X138600000Y-108200000D03*
D19*
%TO.P,J6,3*%
%TO.N,/Z_Filtered*%
X140800000Y-103000000D03*
%TD*%
D21*
%TO.P,U1,49,GND*%
%TO.N,GND*%
X138925000Y-145437500D03*
X134275000Y-145437500D03*
X134275000Y-147762500D03*
X135437500Y-145437500D03*
X138925000Y-144275000D03*
X135437500Y-147762500D03*
X136600000Y-147762500D03*
X135437500Y-146600000D03*
X137762500Y-146600000D03*
D22*
X136600000Y-146600000D03*
D21*
X138925000Y-146600000D03*
X137762500Y-147762500D03*
X136600000Y-145437500D03*
X135437500Y-144275000D03*
X136600000Y-148925000D03*
X134275000Y-148925000D03*
X137762500Y-148925000D03*
X134275000Y-146600000D03*
X136600000Y-146600000D03*
X138925000Y-147762500D03*
X136600000Y-144275000D03*
X135437500Y-148925000D03*
X137762500Y-145437500D03*
X137762500Y-144275000D03*
X138925000Y-148925000D03*
X134275000Y-144275000D03*
%TD*%
D23*
%TO.P,CONNECT1,*%
%TO.N,*%
X130890000Y-125340000D03*
X130890000Y-132350000D03*
D24*
%TO.P,CONNECT1,1,1*%
%TO.N,/CONNECT*%
X128400000Y-131100000D03*
%TO.P,CONNECT1,2,2*%
%TO.N,GND*%
X128400000Y-126600000D03*
%TD*%
D15*
%TO.P,J1,1,Pin_1*%
%TO.N,-12V*%
X155562500Y-70500000D03*
D16*
%TO.P,J1,2,Pin_2*%
X158102500Y-70500000D03*
%TO.P,J1,3,Pin_3*%
%TO.N,GND*%
X155562500Y-73040000D03*
%TO.P,J1,4,Pin_4*%
X158102500Y-73040000D03*
%TO.P,J1,5,Pin_5*%
X155562500Y-75580000D03*
%TO.P,J1,6,Pin_6*%
X158102500Y-75580000D03*
%TO.P,J1,7,Pin_7*%
X155562500Y-78120000D03*
%TO.P,J1,8,Pin_8*%
X158102500Y-78120000D03*
%TO.P,J1,9,Pin_9*%
%TO.N,+12V*%
X155562500Y-80660000D03*
%TO.P,J1,10,Pin_10*%
X158102500Y-80660000D03*
%TD*%
D23*
%TO.P,RESET1,*%
%TO.N,*%
X130890000Y-118350000D03*
X130890000Y-111340000D03*
D24*
%TO.P,RESET1,1,1*%
%TO.N,/RESET*%
X128400000Y-117100000D03*
%TO.P,RESET1,2,2*%
%TO.N,GND*%
X128400000Y-112600000D03*
%TD*%
D14*
%TO.P,TP4,1,1*%
%TO.N,VEE*%
X144000000Y-94000000D03*
%TD*%
D19*
%TO.P,J4,1*%
%TO.N,GND*%
X127600000Y-67000000D03*
D20*
%TO.P,J4,2*%
%TO.N,unconnected-(J4-Pad2)*%
X138600000Y-72200000D03*
D19*
%TO.P,J4,3*%
%TO.N,/X_Filtered*%
X140800000Y-67000000D03*
%TD*%
D25*
%TO.N,GND*%
X149400000Y-146300000D03*
X155100000Y-145600000D03*
X136000000Y-135200000D03*
X153000000Y-88900000D03*
D26*
X143700000Y-142600000D03*
X154700000Y-121200000D03*
D25*
X134700000Y-131100000D03*
D27*
X127200000Y-149100000D03*
D25*
X159600000Y-95000000D03*
D27*
X132319174Y-148410500D03*
X128800000Y-145100000D03*
D25*
X129800000Y-136000000D03*
X139900000Y-153200000D03*
X146200000Y-83600000D03*
D27*
X128800000Y-145900000D03*
D25*
X149400000Y-79200000D03*
X146700000Y-136800000D03*
D26*
X155850000Y-112750000D03*
D25*
X136800000Y-138900000D03*
X156300000Y-136200000D03*
D27*
X128800000Y-138300000D03*
D26*
X158800000Y-112800000D03*
D25*
X136100000Y-153200000D03*
D26*
X154500000Y-131900000D03*
D25*
X136500000Y-98600000D03*
D27*
X130300000Y-147180000D03*
D25*
X161100000Y-110800000D03*
D26*
X132300000Y-138000000D03*
X154500000Y-128000000D03*
D27*
X128800000Y-143500000D03*
D25*
X151000000Y-148900000D03*
X132300000Y-134300000D03*
D27*
X130280000Y-148480000D03*
D25*
X141500000Y-74000000D03*
X149400000Y-91000000D03*
D26*
X142800000Y-139800000D03*
D25*
X138600000Y-117100000D03*
X155100000Y-152200000D03*
X143100000Y-91000000D03*
D26*
X144900000Y-143800000D03*
D25*
X133400000Y-75800000D03*
D27*
X126100000Y-138300000D03*
X131240000Y-147200000D03*
X126200000Y-149100000D03*
D25*
X137700000Y-153200000D03*
D26*
X144700000Y-147800000D03*
D27*
X128800000Y-142700000D03*
X127900000Y-138300000D03*
D25*
X153200000Y-110700000D03*
X157500000Y-88900000D03*
X133300000Y-57600000D03*
X139600000Y-113400000D03*
X161600000Y-97100000D03*
D27*
X127000000Y-138300000D03*
X131270000Y-148460000D03*
D25*
X157300000Y-62300000D03*
X155200000Y-86300000D03*
D27*
X128200000Y-149100000D03*
D26*
X137470517Y-151105441D03*
D25*
X140400000Y-138900000D03*
X135500000Y-120200000D03*
D27*
X129230000Y-148530000D03*
D25*
X155200000Y-64600000D03*
X127000000Y-154600000D03*
X146200000Y-68900000D03*
X139000000Y-81200000D03*
D26*
X138500000Y-124600000D03*
D25*
X128000000Y-107800000D03*
D26*
X155900000Y-148900000D03*
D25*
X126900000Y-132700000D03*
X129900000Y-151700000D03*
X153724500Y-82643152D03*
X150200000Y-57800000D03*
D27*
X129250000Y-147160000D03*
D25*
X153200000Y-62300000D03*
X155100000Y-154600000D03*
X137000000Y-110800000D03*
D27*
X128800000Y-141900000D03*
D25*
X128600000Y-150400000D03*
D27*
X128800000Y-144300000D03*
D26*
%TO.N,+3V3*%
X153800000Y-105400000D03*
X140018750Y-151700000D03*
X142118750Y-142600000D03*
X131760000Y-144840000D03*
X157300000Y-105400000D03*
X160800000Y-103300000D03*
X142318750Y-141400000D03*
X160500000Y-143870000D03*
X153800000Y-107400000D03*
X139000000Y-137600000D03*
X131470000Y-151460000D03*
X160800000Y-107400000D03*
X153800000Y-103300000D03*
X142900000Y-146800000D03*
X160800000Y-105400000D03*
D25*
%TO.N,/RESET*%
X136795663Y-142118089D03*
D26*
%TO.N,VCC*%
X153724500Y-92077373D03*
X149000000Y-114100000D03*
D25*
X150600000Y-128500000D03*
%TO.N,VEE*%
X142400000Y-128500000D03*
D26*
X153400000Y-58700000D03*
X144000000Y-120400000D03*
D25*
%TO.N,Net-(D5-Pad1)*%
X145500000Y-130400000D03*
X138500000Y-126200000D03*
%TD*%
D28*
%TO.N,/RESET*%
X128412500Y-118412500D02*
X128412500Y-117175000D01*
X133400000Y-138981250D02*
X133400000Y-123400000D01*
X133400000Y-123400000D02*
X128412500Y-118412500D01*
X136536839Y-142118089D02*
X133400000Y-138981250D01*
X136795663Y-142118089D02*
X136536839Y-142118089D01*
D29*
%TO.N,VCC*%
X150600000Y-128500000D02*
X150600000Y-115700000D01*
X149300000Y-94000000D02*
X151222627Y-92077373D01*
X150600000Y-115700000D02*
X149000000Y-114100000D01*
X151222627Y-92077373D02*
X153724500Y-92077373D01*
%TO.N,VEE*%
X153400000Y-58700000D02*
X144000000Y-68100000D01*
X144000000Y-126900000D02*
X142400000Y-128500000D01*
X144000000Y-68100000D02*
X144000000Y-126900000D01*
D28*
%TO.N,Net-(D5-Pad1)*%
X129700000Y-75800000D02*
X134400000Y-80500000D01*
X145500000Y-130400000D02*
X142700000Y-130400000D01*
X134400000Y-80500000D02*
X134400000Y-122100000D01*
X134400000Y-122100000D02*
X138500000Y-126200000D01*
X142700000Y-130400000D02*
X138500000Y-126200000D01*
%TD*%
%TA.AperFunction,Conductor*%
%TO.N,+3V3*%
G36*
X162034121Y-101370002D02*
G01*
X162080614Y-101423658D01*
X162092000Y-101476000D01*
X162092000Y-109074000D01*
X162071998Y-109142121D01*
X162018342Y-109188614D01*
X161966000Y-109200000D01*
X152726000Y-109200000D01*
X152657879Y-109179998D01*
X152611386Y-109126342D01*
X152600000Y-109074000D01*
X152600000Y-101476000D01*
X152620002Y-101407879D01*
X152673658Y-101361386D01*
X152726000Y-101350000D01*
X161966000Y-101350000D01*
X162034121Y-101370002D01*
G37*
%TD.AperFunction*%
%TD*%
%TA.AperFunction,Conductor*%
%TO.N,GND*%
G36*
X128262060Y-56528002D02*
G01*
X128308553Y-56581658D01*
X128318657Y-56651932D01*
X128311921Y-56678229D01*
X128301029Y-56707282D01*
X128301027Y-56707288D01*
X128298255Y-56714684D01*
X128291500Y-56776866D01*
X128291500Y-58673134D01*
X128298255Y-58735316D01*
X128349385Y-58871705D01*
X128436739Y-58988261D01*
X128553295Y-59075615D01*
X128561704Y-59078767D01*
X128561705Y-59078768D01*
X128621164Y-59101058D01*
X128677929Y-59143699D01*
X128702629Y-59210261D01*
X128687422Y-59279609D01*
X128668029Y-59306091D01*
X128601639Y-59375564D01*
X128598725Y-59379836D01*
X128598724Y-59379837D01*
X128584970Y-59400000D01*
X128471119Y-59566899D01*
X128373602Y-59776981D01*
X128311707Y-60000169D01*
X128287095Y-60230469D01*
X128287392Y-60235622D01*
X128287392Y-60235625D01*
X128293067Y-60334041D01*
X128300427Y-60461697D01*
X128301564Y-60466743D01*
X128301565Y-60466749D01*
X128331006Y-60597385D01*
X128351346Y-60687642D01*
X128353288Y-60692424D01*
X128353289Y-60692428D01*
X128436540Y-60897450D01*
X128438484Y-60902237D01*
X128559501Y-61099719D01*
X128711147Y-61274784D01*
X128889349Y-61422730D01*
X129089322Y-61539584D01*
X129305694Y-61622209D01*
X129310760Y-61623240D01*
X129310761Y-61623240D01*
X129363846Y-61634040D01*
X129532656Y-61668385D01*
X129663324Y-61673176D01*
X129758949Y-61676683D01*
X129758953Y-61676683D01*
X129764113Y-61676872D01*
X129769233Y-61676216D01*
X129769235Y-61676216D01*
X129842270Y-61666860D01*
X129993847Y-61647442D01*
X129998795Y-61645957D01*
X129998802Y-61645956D01*
X130210747Y-61582369D01*
X130215690Y-61580886D01*
X130296236Y-61541427D01*
X130419049Y-61481262D01*
X130419052Y-61481260D01*
X130423684Y-61478991D01*
X130612243Y-61344494D01*
X130776303Y-61181005D01*
X130911458Y-60992917D01*
X130958641Y-60897450D01*
X131011784Y-60789922D01*
X131011785Y-60789920D01*
X131014078Y-60785280D01*
X131081408Y-60563671D01*
X131111640Y-60334041D01*
X131113327Y-60265000D01*
X131107032Y-60188434D01*
X131094773Y-60039318D01*
X131094772Y-60039312D01*
X131094349Y-60034167D01*
X131037925Y-59809533D01*
X131035866Y-59804797D01*
X130947630Y-59601868D01*
X130947628Y-59601865D01*
X130945570Y-59597131D01*
X130819764Y-59402665D01*
X130729848Y-59303848D01*
X130698796Y-59240002D01*
X130707192Y-59169504D01*
X130752369Y-59114736D01*
X130778812Y-59101067D01*
X130838297Y-59078767D01*
X130846705Y-59075615D01*
X130963261Y-58988261D01*
X131050615Y-58871705D01*
X131101745Y-58735316D01*
X131108500Y-58673134D01*
X131108500Y-56776866D01*
X131101745Y-56714684D01*
X131098973Y-56707288D01*
X131098971Y-56707282D01*
X131088079Y-56678229D01*
X131082896Y-56607422D01*
X131116817Y-56545053D01*
X131179072Y-56510924D01*
X131206061Y-56508000D01*
X145751715Y-56508000D01*
X145819836Y-56528002D01*
X145866329Y-56581658D01*
X145877715Y-56634000D01*
X145877715Y-57074000D01*
X145857713Y-57142121D01*
X145804057Y-57188614D01*
X145751715Y-57200000D01*
X140300000Y-57200000D01*
X140300000Y-59400000D01*
X145751715Y-59400000D01*
X145819836Y-59420002D01*
X145866329Y-59473658D01*
X145877715Y-59526000D01*
X145877715Y-60615500D01*
X148922286Y-60615500D01*
X148922286Y-56634000D01*
X148942288Y-56565879D01*
X148995944Y-56519386D01*
X149048286Y-56508000D01*
X161966000Y-56508000D01*
X162034121Y-56528002D01*
X162080614Y-56581658D01*
X162092000Y-56634000D01*
X162092000Y-100674000D01*
X162071998Y-100742121D01*
X162018342Y-100788614D01*
X161966000Y-100800000D01*
X152000000Y-100800000D01*
X152000000Y-109750000D01*
X161966000Y-109750000D01*
X162034121Y-109770002D01*
X162080614Y-109823658D01*
X162092000Y-109876000D01*
X162092000Y-116768081D01*
X162071998Y-116836202D01*
X162018342Y-116882695D01*
X161948068Y-116892799D01*
X161883488Y-116863305D01*
X161853359Y-116821522D01*
X161852381Y-116822020D01*
X161850135Y-116817611D01*
X161848240Y-116813037D01*
X161820691Y-116768081D01*
X161726759Y-116614798D01*
X161726755Y-116614792D01*
X161724176Y-116610584D01*
X161569969Y-116430031D01*
X161389416Y-116275824D01*
X161385208Y-116273245D01*
X161385202Y-116273241D01*
X161191183Y-116154346D01*
X161186963Y-116151760D01*
X161182393Y-116149867D01*
X161182389Y-116149865D01*
X160972167Y-116062789D01*
X160972165Y-116062788D01*
X160967594Y-116060895D01*
X160861004Y-116035305D01*
X160741524Y-116006620D01*
X160741518Y-116006619D01*
X160736711Y-116005465D01*
X160500000Y-115986835D01*
X160263289Y-116005465D01*
X160258482Y-116006619D01*
X160258476Y-116006620D01*
X160138996Y-116035305D01*
X160032406Y-116060895D01*
X160027835Y-116062788D01*
X160027833Y-116062789D01*
X159817611Y-116149865D01*
X159817607Y-116149867D01*
X159813037Y-116151760D01*
X159808817Y-116154346D01*
X159614798Y-116273241D01*
X159614792Y-116273245D01*
X159610584Y-116275824D01*
X159430031Y-116430031D01*
X159275824Y-116610584D01*
X159273245Y-116614792D01*
X159273241Y-116614798D01*
X159179309Y-116768081D01*
X159151760Y-116813037D01*
X159149867Y-116817607D01*
X159149865Y-116817611D01*
X159062789Y-117027833D01*
X159060895Y-117032406D01*
X159044667Y-117100000D01*
X159009960Y-117244567D01*
X159005465Y-117263289D01*
X158986835Y-117500000D01*
X159005465Y-117736711D01*
X159060895Y-117967594D01*
X159062788Y-117972165D01*
X159062789Y-117972167D01*
X159148312Y-118178638D01*
X159151760Y-118186963D01*
X159154346Y-118191183D01*
X159273241Y-118385202D01*
X159273245Y-118385208D01*
X159275824Y-118389416D01*
X159430031Y-118569969D01*
X159433787Y-118573177D01*
X159453043Y-118589623D01*
X159610584Y-118724176D01*
X159614792Y-118726755D01*
X159614798Y-118726759D01*
X159775434Y-118825197D01*
X159813037Y-118848240D01*
X159817607Y-118850133D01*
X159817611Y-118850135D01*
X160027833Y-118937211D01*
X160032406Y-118939105D01*
X160112609Y-118958360D01*
X160258476Y-118993380D01*
X160258482Y-118993381D01*
X160263289Y-118994535D01*
X160500000Y-119013165D01*
X160736711Y-118994535D01*
X160741518Y-118993381D01*
X160741524Y-118993380D01*
X160887391Y-118958360D01*
X160967594Y-118939105D01*
X160972167Y-118937211D01*
X161182389Y-118850135D01*
X161182393Y-118850133D01*
X161186963Y-118848240D01*
X161224566Y-118825197D01*
X161385202Y-118726759D01*
X161385208Y-118726755D01*
X161389416Y-118724176D01*
X161546957Y-118589623D01*
X161566213Y-118573177D01*
X161569969Y-118569969D01*
X161724176Y-118389416D01*
X161726755Y-118385208D01*
X161726759Y-118385202D01*
X161845654Y-118191183D01*
X161848240Y-118186963D01*
X161850135Y-118182389D01*
X161852381Y-118177980D01*
X161853673Y-118178638D01*
X161894135Y-118128423D01*
X161961497Y-118105999D01*
X162030289Y-118123554D01*
X162078670Y-118175514D01*
X162092000Y-118231919D01*
X162092000Y-123869388D01*
X162071998Y-123937509D01*
X162018342Y-123984002D01*
X161948068Y-123994106D01*
X161883488Y-123964612D01*
X161852672Y-123921878D01*
X161851937Y-123922253D01*
X161845205Y-123909042D01*
X161742568Y-123741555D01*
X161732110Y-123732093D01*
X161723334Y-123735876D01*
X160872022Y-124587188D01*
X160864408Y-124601132D01*
X160864539Y-124602965D01*
X160868790Y-124609580D01*
X161720290Y-125461080D01*
X161732670Y-125467840D01*
X161740320Y-125462113D01*
X161845205Y-125290958D01*
X161851937Y-125277747D01*
X161852929Y-125278252D01*
X161894137Y-125227114D01*
X161961500Y-125204692D01*
X162030292Y-125222249D01*
X162078671Y-125274210D01*
X162092000Y-125330612D01*
X162092000Y-134502461D01*
X162071998Y-134570582D01*
X162018342Y-134617075D01*
X161948068Y-134627179D01*
X161883488Y-134597685D01*
X161843796Y-134533156D01*
X161791692Y-134325723D01*
X161790431Y-134320702D01*
X161701354Y-134115840D01*
X161580014Y-133928277D01*
X161429670Y-133763051D01*
X161425619Y-133759852D01*
X161425615Y-133759848D01*
X161258414Y-133627800D01*
X161258410Y-133627798D01*
X161254359Y-133624598D01*
X161230696Y-133611535D01*
X161202136Y-133595769D01*
X161058789Y-133516638D01*
X161053920Y-133514914D01*
X161053916Y-133514912D01*
X160853087Y-133443795D01*
X160853083Y-133443794D01*
X160848212Y-133442069D01*
X160843119Y-133441162D01*
X160843116Y-133441161D01*
X160633373Y-133403800D01*
X160633367Y-133403799D01*
X160628284Y-133402894D01*
X160554452Y-133401992D01*
X160410081Y-133400228D01*
X160410079Y-133400228D01*
X160404911Y-133400165D01*
X160184091Y-133433955D01*
X159971756Y-133503357D01*
X159773607Y-133606507D01*
X159769474Y-133609610D01*
X159769471Y-133609612D01*
X159745247Y-133627800D01*
X159594965Y-133740635D01*
X159440629Y-133902138D01*
X159437715Y-133906410D01*
X159437714Y-133906411D01*
X159433002Y-133913319D01*
X159314743Y-134086680D01*
X159220688Y-134289305D01*
X159160989Y-134504570D01*
X159137251Y-134726695D01*
X159150110Y-134949715D01*
X159151247Y-134954761D01*
X159151248Y-134954767D01*
X159157369Y-134981927D01*
X159199222Y-135167639D01*
X159283266Y-135374616D01*
X159399987Y-135565088D01*
X159546250Y-135733938D01*
X159718126Y-135876632D01*
X159788595Y-135917811D01*
X159791445Y-135919476D01*
X159840169Y-135971114D01*
X159853240Y-136040897D01*
X159826509Y-136106669D01*
X159786055Y-136140027D01*
X159773607Y-136146507D01*
X159769474Y-136149610D01*
X159769471Y-136149612D01*
X159745247Y-136167800D01*
X159594965Y-136280635D01*
X159440629Y-136442138D01*
X159314743Y-136626680D01*
X159299894Y-136658670D01*
X159252919Y-136759870D01*
X159220688Y-136829305D01*
X159160989Y-137044570D01*
X159137251Y-137266695D01*
X159137548Y-137271848D01*
X159137548Y-137271851D01*
X159144673Y-137395425D01*
X159150110Y-137489715D01*
X159151247Y-137494761D01*
X159151248Y-137494767D01*
X159157369Y-137521927D01*
X159199222Y-137707639D01*
X159283266Y-137914616D01*
X159399987Y-138105088D01*
X159546250Y-138273938D01*
X159718126Y-138416632D01*
X159757392Y-138439577D01*
X159791955Y-138459774D01*
X159840679Y-138511412D01*
X159853750Y-138581195D01*
X159827019Y-138646967D01*
X159786562Y-138680327D01*
X159778460Y-138684544D01*
X159769734Y-138690039D01*
X159749677Y-138705099D01*
X159741223Y-138716427D01*
X159747968Y-138728758D01*
X160487188Y-139467978D01*
X160501132Y-139475592D01*
X160502965Y-139475461D01*
X160509580Y-139471210D01*
X161253389Y-138727401D01*
X161260410Y-138714544D01*
X161253611Y-138705213D01*
X161249559Y-138702521D01*
X161212602Y-138682120D01*
X161162631Y-138631687D01*
X161147859Y-138562245D01*
X161172975Y-138495839D01*
X161200327Y-138469232D01*
X161257932Y-138428143D01*
X161379860Y-138341173D01*
X161393422Y-138327659D01*
X161534435Y-138187137D01*
X161538096Y-138183489D01*
X161566848Y-138143477D01*
X161665435Y-138006277D01*
X161668453Y-138002077D01*
X161685729Y-137967123D01*
X161765136Y-137806453D01*
X161765137Y-137806451D01*
X161767430Y-137801811D01*
X161832370Y-137588069D01*
X161841078Y-137521927D01*
X161869801Y-137457000D01*
X161929066Y-137417909D01*
X162000058Y-137417064D01*
X162060236Y-137454735D01*
X162090495Y-137518960D01*
X162092000Y-137538374D01*
X162092000Y-139584514D01*
X162071998Y-139652635D01*
X162018342Y-139699128D01*
X161948068Y-139709232D01*
X161883488Y-139679738D01*
X161843796Y-139615210D01*
X161791214Y-139405875D01*
X161787894Y-139396124D01*
X161702972Y-139200814D01*
X161698105Y-139191739D01*
X161633063Y-139091197D01*
X161622377Y-139081995D01*
X161612812Y-139086398D01*
X160872022Y-139827188D01*
X160864408Y-139841132D01*
X160864539Y-139842965D01*
X160868790Y-139849580D01*
X161610474Y-140591264D01*
X161622484Y-140597823D01*
X161634223Y-140588855D01*
X161665004Y-140546019D01*
X161670315Y-140537180D01*
X161764670Y-140346267D01*
X161768469Y-140336672D01*
X161830376Y-140132915D01*
X161832555Y-140122834D01*
X161841078Y-140058096D01*
X161869800Y-139993169D01*
X161929065Y-139954077D01*
X162000057Y-139953232D01*
X162060236Y-139990902D01*
X162090495Y-140055127D01*
X162092000Y-140074542D01*
X162092000Y-141365512D01*
X162071998Y-141433633D01*
X162018342Y-141480126D01*
X161948068Y-141490230D01*
X161883488Y-141460736D01*
X161848018Y-141409742D01*
X161803767Y-141291703D01*
X161800615Y-141283295D01*
X161713261Y-141166739D01*
X161596705Y-141079385D01*
X161460316Y-141028255D01*
X161398134Y-141021500D01*
X161364452Y-141021500D01*
X161296331Y-141001498D01*
X161253177Y-140954610D01*
X161250658Y-140949868D01*
X160512812Y-140212022D01*
X160498868Y-140204408D01*
X160497035Y-140204539D01*
X160490420Y-140208790D01*
X159746737Y-140952473D01*
X159744874Y-140955885D01*
X159694672Y-141006087D01*
X159634286Y-141021500D01*
X159601866Y-141021500D01*
X159539684Y-141028255D01*
X159403295Y-141079385D01*
X159286739Y-141166739D01*
X159199385Y-141283295D01*
X159148255Y-141419684D01*
X159141500Y-141481866D01*
X159141500Y-143278134D01*
X159148255Y-143340316D01*
X159199385Y-143476705D01*
X159286739Y-143593261D01*
X159403295Y-143680615D01*
X159411704Y-143683767D01*
X159419575Y-143688077D01*
X159418746Y-143689591D01*
X159467049Y-143725875D01*
X159491751Y-143792436D01*
X159491272Y-143815258D01*
X159486719Y-143855851D01*
X159490461Y-143900410D01*
X159497172Y-143980331D01*
X159503268Y-144052934D01*
X159504967Y-144058858D01*
X159555429Y-144234840D01*
X159557783Y-144243050D01*
X159648187Y-144418956D01*
X159771035Y-144573953D01*
X159775728Y-144577947D01*
X159775729Y-144577948D01*
X159843265Y-144635425D01*
X159921650Y-144702136D01*
X160094294Y-144798624D01*
X160282392Y-144859740D01*
X160478777Y-144883158D01*
X160484912Y-144882686D01*
X160484914Y-144882686D01*
X160669830Y-144868457D01*
X160669834Y-144868456D01*
X160675972Y-144867984D01*
X160866463Y-144814798D01*
X160871967Y-144812018D01*
X160871969Y-144812017D01*
X161037495Y-144728404D01*
X161037497Y-144728403D01*
X161042996Y-144725625D01*
X161198847Y-144603861D01*
X161292489Y-144495376D01*
X161324049Y-144458813D01*
X161324050Y-144458811D01*
X161328078Y-144454145D01*
X161425769Y-144282179D01*
X161488197Y-144094513D01*
X161512985Y-143898295D01*
X161513380Y-143870000D01*
X161507866Y-143813767D01*
X161521125Y-143744021D01*
X161569987Y-143692514D01*
X161587322Y-143684301D01*
X161588299Y-143683766D01*
X161596705Y-143680615D01*
X161603884Y-143675235D01*
X161603887Y-143675233D01*
X161706081Y-143598642D01*
X161713261Y-143593261D01*
X161800615Y-143476705D01*
X161848018Y-143350258D01*
X161890660Y-143293494D01*
X161957221Y-143268794D01*
X162026570Y-143284001D01*
X162076688Y-143334287D01*
X162092000Y-143394488D01*
X162092000Y-155366000D01*
X162071998Y-155434121D01*
X162018342Y-155480614D01*
X161966000Y-155492000D01*
X126234000Y-155492000D01*
X126165879Y-155471998D01*
X126119386Y-155418342D01*
X126108000Y-155366000D01*
X126108000Y-152899934D01*
X156231500Y-152899934D01*
X156231823Y-152903113D01*
X156241236Y-152995781D01*
X156246619Y-153048780D01*
X156306369Y-153239440D01*
X156403235Y-153414191D01*
X156533261Y-153565896D01*
X156538298Y-153569803D01*
X156538300Y-153569805D01*
X156686093Y-153684445D01*
X156686096Y-153684447D01*
X156691137Y-153688357D01*
X156696863Y-153691175D01*
X156696867Y-153691177D01*
X156864682Y-153773752D01*
X156870411Y-153776571D01*
X156959906Y-153799883D01*
X157057580Y-153825325D01*
X157057583Y-153825325D01*
X157063762Y-153826935D01*
X157157256Y-153831835D01*
X157256911Y-153837058D01*
X157256915Y-153837058D01*
X157263292Y-153837392D01*
X157460848Y-153807514D01*
X157648361Y-153738523D01*
X157721903Y-153692925D01*
X158626645Y-153692925D01*
X158644570Y-153889888D01*
X158700410Y-154079619D01*
X158703263Y-154085077D01*
X158703265Y-154085081D01*
X158750720Y-154175853D01*
X158792040Y-154254890D01*
X158915968Y-154409025D01*
X158920692Y-154412989D01*
X158927933Y-154419065D01*
X159067474Y-154536154D01*
X159072872Y-154539121D01*
X159072877Y-154539125D01*
X159216180Y-154617905D01*
X159240787Y-154631433D01*
X159246654Y-154633294D01*
X159246656Y-154633295D01*
X159423436Y-154689373D01*
X159429306Y-154691235D01*
X159583227Y-154708500D01*
X160239769Y-154708500D01*
X160242825Y-154708200D01*
X160242832Y-154708200D01*
X160301340Y-154702463D01*
X160386833Y-154694080D01*
X160392734Y-154692298D01*
X160392736Y-154692298D01*
X160466053Y-154670162D01*
X160576169Y-154636916D01*
X160750796Y-154544066D01*
X160837062Y-154473709D01*
X160899287Y-154422960D01*
X160899290Y-154422957D01*
X160904062Y-154419065D01*
X160916344Y-154404219D01*
X161026201Y-154271425D01*
X161026203Y-154271421D01*
X161030130Y-154266675D01*
X161124198Y-154092701D01*
X161182682Y-153903768D01*
X161189658Y-153837392D01*
X161202711Y-153713204D01*
X161202711Y-153713202D01*
X161203355Y-153707075D01*
X161195847Y-153624576D01*
X161185989Y-153516251D01*
X161185988Y-153516248D01*
X161185430Y-153510112D01*
X161158627Y-153419040D01*
X161131330Y-153326294D01*
X161129590Y-153320381D01*
X161119919Y-153301881D01*
X161040813Y-153150568D01*
X161037960Y-153145110D01*
X160914032Y-152990975D01*
X160907727Y-152985684D01*
X160861352Y-152946771D01*
X160762526Y-152863846D01*
X160757128Y-152860879D01*
X160757123Y-152860875D01*
X160594608Y-152771533D01*
X160594609Y-152771533D01*
X160589213Y-152768567D01*
X160583346Y-152766706D01*
X160583344Y-152766705D01*
X160406564Y-152710627D01*
X160406563Y-152710627D01*
X160400694Y-152708765D01*
X160246773Y-152691500D01*
X159590231Y-152691500D01*
X159587175Y-152691800D01*
X159587168Y-152691800D01*
X159541012Y-152696326D01*
X159443167Y-152705920D01*
X159437266Y-152707702D01*
X159437264Y-152707702D01*
X159363947Y-152729838D01*
X159253831Y-152763084D01*
X159079204Y-152855934D01*
X159025255Y-152899934D01*
X158930713Y-152977040D01*
X158930710Y-152977043D01*
X158925938Y-152980935D01*
X158922011Y-152985682D01*
X158922009Y-152985684D01*
X158803799Y-153128575D01*
X158803797Y-153128579D01*
X158799870Y-153133325D01*
X158705802Y-153307299D01*
X158647318Y-153496232D01*
X158646674Y-153502357D01*
X158646674Y-153502358D01*
X158632919Y-153633235D01*
X158626645Y-153692925D01*
X157721903Y-153692925D01*
X157818172Y-153633235D01*
X157963344Y-153495953D01*
X158077946Y-153332284D01*
X158157298Y-153148914D01*
X158198156Y-152953334D01*
X158198500Y-152946771D01*
X158198500Y-152500066D01*
X158191775Y-152433861D01*
X158184026Y-152357566D01*
X158184025Y-152357562D01*
X158183381Y-152351220D01*
X158134067Y-152193861D01*
X158125540Y-152166651D01*
X158125539Y-152166650D01*
X158123631Y-152160560D01*
X158026765Y-151985809D01*
X157929373Y-151872179D01*
X157900891Y-151838948D01*
X157900890Y-151838947D01*
X157896739Y-151834104D01*
X157891700Y-151830195D01*
X157743907Y-151715555D01*
X157743904Y-151715553D01*
X157738863Y-151711643D01*
X157733137Y-151708825D01*
X157733133Y-151708823D01*
X157565318Y-151626248D01*
X157559589Y-151623429D01*
X157440797Y-151592486D01*
X157372420Y-151574675D01*
X157372417Y-151574675D01*
X157366238Y-151573065D01*
X157272744Y-151568165D01*
X157173089Y-151562942D01*
X157173085Y-151562942D01*
X157166708Y-151562608D01*
X156969152Y-151592486D01*
X156963165Y-151594689D01*
X156963164Y-151594689D01*
X156787629Y-151659273D01*
X156781639Y-151661477D01*
X156611828Y-151766765D01*
X156466656Y-151904047D01*
X156352054Y-152067716D01*
X156272702Y-152251086D01*
X156231844Y-152446666D01*
X156231500Y-152453229D01*
X156231500Y-152899934D01*
X126108000Y-152899934D01*
X126108000Y-151445851D01*
X130456719Y-151445851D01*
X130473268Y-151642934D01*
X130490642Y-151703523D01*
X130510033Y-151771147D01*
X130527783Y-151833050D01*
X130618187Y-152008956D01*
X130741035Y-152163953D01*
X130745728Y-152167947D01*
X130745729Y-152167948D01*
X130882261Y-152284145D01*
X130891650Y-152292136D01*
X131064294Y-152388624D01*
X131252392Y-152449740D01*
X131448777Y-152473158D01*
X131454912Y-152472686D01*
X131454914Y-152472686D01*
X131639830Y-152458457D01*
X131639834Y-152458456D01*
X131645972Y-152457984D01*
X131836463Y-152404798D01*
X131841967Y-152402018D01*
X131841969Y-152402017D01*
X132007495Y-152318404D01*
X132007497Y-152318403D01*
X132012996Y-152315625D01*
X132168847Y-152193861D01*
X132298078Y-152044145D01*
X132395769Y-151872179D01*
X132457752Y-151685851D01*
X139005469Y-151685851D01*
X139005985Y-151691995D01*
X139018325Y-151838948D01*
X139022018Y-151882934D01*
X139023717Y-151888858D01*
X139073504Y-152062486D01*
X139076533Y-152073050D01*
X139079352Y-152078535D01*
X139118638Y-152154976D01*
X139166937Y-152248956D01*
X139289785Y-152403953D01*
X139294478Y-152407947D01*
X139294479Y-152407948D01*
X139341348Y-152447836D01*
X139440400Y-152532136D01*
X139613044Y-152628624D01*
X139801142Y-152689740D01*
X139997527Y-152713158D01*
X140003662Y-152712686D01*
X140003664Y-152712686D01*
X140188580Y-152698457D01*
X140188584Y-152698456D01*
X140194722Y-152697984D01*
X140385213Y-152644798D01*
X140390717Y-152642018D01*
X140390719Y-152642017D01*
X140556245Y-152558404D01*
X140556247Y-152558403D01*
X140561746Y-152555625D01*
X140717597Y-152433861D01*
X140837337Y-152295141D01*
X140842799Y-152288813D01*
X140842800Y-152288811D01*
X140846828Y-152284145D01*
X140944519Y-152112179D01*
X141006947Y-151924513D01*
X141031735Y-151728295D01*
X141031938Y-151713753D01*
X141032081Y-151703523D01*
X141032081Y-151703520D01*
X141032130Y-151700000D01*
X141012830Y-151503167D01*
X140955666Y-151313831D01*
X140862816Y-151139204D01*
X140792459Y-151052938D01*
X140741710Y-150990713D01*
X140741707Y-150990710D01*
X140737815Y-150985938D01*
X140731474Y-150980692D01*
X140590175Y-150863799D01*
X140590171Y-150863797D01*
X140585425Y-150859870D01*
X140411451Y-150765802D01*
X140222518Y-150707318D01*
X140216393Y-150706674D01*
X140216392Y-150706674D01*
X140031954Y-150687289D01*
X140031952Y-150687289D01*
X140025825Y-150686645D01*
X139943326Y-150694153D01*
X139835001Y-150704011D01*
X139834998Y-150704012D01*
X139828862Y-150704570D01*
X139822956Y-150706308D01*
X139822952Y-150706309D01*
X139735308Y-150732104D01*
X139639131Y-150760410D01*
X139633673Y-150763263D01*
X139633669Y-150763265D01*
X139542897Y-150810720D01*
X139463860Y-150852040D01*
X139309725Y-150975968D01*
X139182596Y-151127474D01*
X139179629Y-151132872D01*
X139179625Y-151132877D01*
X139176147Y-151139204D01*
X139087317Y-151300787D01*
X139085456Y-151306654D01*
X139085455Y-151306656D01*
X139043243Y-151439726D01*
X139027515Y-151489306D01*
X139005469Y-151685851D01*
X132457752Y-151685851D01*
X132458197Y-151684513D01*
X132482985Y-151488295D01*
X132483380Y-151460000D01*
X132464080Y-151263167D01*
X132406916Y-151073831D01*
X132314066Y-150899204D01*
X132243709Y-150812938D01*
X132192960Y-150750713D01*
X132192957Y-150750710D01*
X132189065Y-150745938D01*
X132182724Y-150740692D01*
X132041425Y-150623799D01*
X132041421Y-150623797D01*
X132036675Y-150619870D01*
X131862701Y-150525802D01*
X131673768Y-150467318D01*
X131667643Y-150466674D01*
X131667642Y-150466674D01*
X131483204Y-150447289D01*
X131483202Y-150447289D01*
X131477075Y-150446645D01*
X131394576Y-150454153D01*
X131286251Y-150464011D01*
X131286248Y-150464012D01*
X131280112Y-150464570D01*
X131274206Y-150466308D01*
X131274202Y-150466309D01*
X131169076Y-150497249D01*
X131090381Y-150520410D01*
X131084923Y-150523263D01*
X131084919Y-150523265D01*
X130994147Y-150570720D01*
X130915110Y-150612040D01*
X130760975Y-150735968D01*
X130633846Y-150887474D01*
X130630879Y-150892872D01*
X130630875Y-150892877D01*
X130585196Y-150975968D01*
X130538567Y-151060787D01*
X130536706Y-151066654D01*
X130536705Y-151066656D01*
X130480627Y-151243436D01*
X130478765Y-151249306D01*
X130456719Y-151445851D01*
X126108000Y-151445851D01*
X126108000Y-148921362D01*
X133512966Y-148921362D01*
X133516400Y-148956388D01*
X133517001Y-148968684D01*
X133517001Y-149219669D01*
X133517371Y-149226490D01*
X133522895Y-149277352D01*
X133526521Y-149292604D01*
X133571676Y-149413054D01*
X133580214Y-149428649D01*
X133656715Y-149530724D01*
X133669276Y-149543285D01*
X133771351Y-149619786D01*
X133786946Y-149628324D01*
X133907394Y-149673478D01*
X133922649Y-149677105D01*
X133973514Y-149682631D01*
X133980328Y-149683000D01*
X134215965Y-149683000D01*
X134232629Y-149684107D01*
X134252044Y-149686697D01*
X134266040Y-149686991D01*
X134304186Y-149683519D01*
X134315606Y-149683000D01*
X135378464Y-149683000D01*
X135395127Y-149684107D01*
X135414543Y-149686697D01*
X135428541Y-149686991D01*
X135466688Y-149683519D01*
X135478107Y-149683000D01*
X136327885Y-149683000D01*
X136343124Y-149678525D01*
X136344329Y-149677135D01*
X136346000Y-149669452D01*
X136346000Y-149664884D01*
X136854000Y-149664884D01*
X136858475Y-149680123D01*
X136859865Y-149681328D01*
X136867548Y-149682999D01*
X137703458Y-149682999D01*
X137720123Y-149684106D01*
X137739545Y-149686698D01*
X137753540Y-149686991D01*
X137791694Y-149683518D01*
X137803115Y-149682999D01*
X138865958Y-149682999D01*
X138882623Y-149684106D01*
X138902045Y-149686698D01*
X138916040Y-149686991D01*
X138954195Y-149683518D01*
X138965615Y-149682999D01*
X139219669Y-149682999D01*
X139226490Y-149682629D01*
X139277352Y-149677105D01*
X139292604Y-149673479D01*
X139413054Y-149628324D01*
X139428649Y-149619786D01*
X139530724Y-149543285D01*
X139543285Y-149530724D01*
X139619786Y-149428649D01*
X139628324Y-149413054D01*
X139673478Y-149292606D01*
X139677105Y-149277351D01*
X139682631Y-149226486D01*
X139683000Y-149219672D01*
X139683000Y-148987123D01*
X139684226Y-148969587D01*
X139686948Y-148950222D01*
X139687554Y-148942338D01*
X139687741Y-148928962D01*
X139687354Y-148921062D01*
X139683785Y-148889241D01*
X139683000Y-148875196D01*
X139683000Y-147899934D01*
X156231500Y-147899934D01*
X156246619Y-148048780D01*
X156276040Y-148142662D01*
X156301575Y-148224141D01*
X156306369Y-148239440D01*
X156403235Y-148414191D01*
X156533261Y-148565896D01*
X156538298Y-148569803D01*
X156538300Y-148569805D01*
X156686093Y-148684445D01*
X156686096Y-148684447D01*
X156691137Y-148688357D01*
X156696863Y-148691175D01*
X156696867Y-148691177D01*
X156864682Y-148773752D01*
X156870411Y-148776571D01*
X156959906Y-148799883D01*
X157057580Y-148825325D01*
X157057583Y-148825325D01*
X157063762Y-148826935D01*
X157157256Y-148831835D01*
X157256911Y-148837058D01*
X157256915Y-148837058D01*
X157263292Y-148837392D01*
X157460848Y-148807514D01*
X157506279Y-148790799D01*
X157642371Y-148740727D01*
X157642372Y-148740727D01*
X157648361Y-148738523D01*
X157791133Y-148650000D01*
X157812750Y-148636597D01*
X157812751Y-148636596D01*
X157818172Y-148633235D01*
X157963344Y-148495953D01*
X158077946Y-148332284D01*
X158157298Y-148148914D01*
X158198156Y-147953334D01*
X158198500Y-147946771D01*
X158198500Y-147500066D01*
X158190668Y-147422960D01*
X158184026Y-147357566D01*
X158184025Y-147357562D01*
X158183381Y-147351220D01*
X158123631Y-147160560D01*
X158026765Y-146985809D01*
X157918819Y-146859865D01*
X157900891Y-146838948D01*
X157900890Y-146838947D01*
X157896739Y-146834104D01*
X157891700Y-146830195D01*
X157743907Y-146715555D01*
X157743904Y-146715553D01*
X157738863Y-146711643D01*
X157733137Y-146708825D01*
X157733133Y-146708823D01*
X157700824Y-146692925D01*
X158626645Y-146692925D01*
X158633059Y-146763403D01*
X158642953Y-146872115D01*
X158644570Y-146889888D01*
X158646308Y-146895794D01*
X158646309Y-146895798D01*
X158672801Y-146985809D01*
X158700410Y-147079619D01*
X158703263Y-147085077D01*
X158703265Y-147085081D01*
X158739806Y-147154976D01*
X158792040Y-147254890D01*
X158915968Y-147409025D01*
X158920692Y-147412989D01*
X158927933Y-147419065D01*
X159067474Y-147536154D01*
X159072872Y-147539121D01*
X159072877Y-147539125D01*
X159216180Y-147617905D01*
X159240787Y-147631433D01*
X159246654Y-147633294D01*
X159246656Y-147633295D01*
X159423436Y-147689373D01*
X159429306Y-147691235D01*
X159583227Y-147708500D01*
X160239769Y-147708500D01*
X160242825Y-147708200D01*
X160242832Y-147708200D01*
X160301340Y-147702463D01*
X160386833Y-147694080D01*
X160392734Y-147692298D01*
X160392736Y-147692298D01*
X160504997Y-147658404D01*
X160576169Y-147636916D01*
X160750796Y-147544066D01*
X160837062Y-147473709D01*
X160899287Y-147422960D01*
X160899290Y-147422957D01*
X160904062Y-147419065D01*
X160929089Y-147388813D01*
X161026201Y-147271425D01*
X161026203Y-147271421D01*
X161030130Y-147266675D01*
X161124198Y-147092701D01*
X161182682Y-146903768D01*
X161187296Y-146859865D01*
X161202711Y-146713204D01*
X161202711Y-146713202D01*
X161203355Y-146707075D01*
X161193899Y-146603167D01*
X161185989Y-146516251D01*
X161185988Y-146516248D01*
X161185430Y-146510112D01*
X161129590Y-146320381D01*
X161119919Y-146301881D01*
X161040813Y-146150568D01*
X161037960Y-146145110D01*
X160914032Y-145990975D01*
X160907727Y-145985684D01*
X160876963Y-145959870D01*
X160762526Y-145863846D01*
X160757128Y-145860879D01*
X160757123Y-145860875D01*
X160594608Y-145771533D01*
X160594609Y-145771533D01*
X160589213Y-145768567D01*
X160583346Y-145766706D01*
X160583344Y-145766705D01*
X160406564Y-145710627D01*
X160406563Y-145710627D01*
X160400694Y-145708765D01*
X160246773Y-145691500D01*
X159590231Y-145691500D01*
X159587175Y-145691800D01*
X159587168Y-145691800D01*
X159528660Y-145697537D01*
X159443167Y-145705920D01*
X159437266Y-145707702D01*
X159437264Y-145707702D01*
X159363947Y-145729838D01*
X159253831Y-145763084D01*
X159079204Y-145855934D01*
X158992938Y-145926291D01*
X158930713Y-145977040D01*
X158930710Y-145977043D01*
X158925938Y-145980935D01*
X158922011Y-145985682D01*
X158922009Y-145985684D01*
X158803799Y-146128575D01*
X158803797Y-146128579D01*
X158799870Y-146133325D01*
X158705802Y-146307299D01*
X158647318Y-146496232D01*
X158646674Y-146502357D01*
X158646674Y-146502358D01*
X158636893Y-146595425D01*
X158626645Y-146692925D01*
X157700824Y-146692925D01*
X157565318Y-146626248D01*
X157559589Y-146623429D01*
X157440797Y-146592486D01*
X157372420Y-146574675D01*
X157372417Y-146574675D01*
X157366238Y-146573065D01*
X157272744Y-146568165D01*
X157173089Y-146562942D01*
X157173085Y-146562942D01*
X157166708Y-146562608D01*
X156969152Y-146592486D01*
X156963165Y-146594689D01*
X156963164Y-146594689D01*
X156923450Y-146609301D01*
X156781639Y-146661477D01*
X156611828Y-146766765D01*
X156466656Y-146904047D01*
X156352054Y-147067716D01*
X156272702Y-147251086D01*
X156231844Y-147446666D01*
X156231500Y-147453229D01*
X156231500Y-147899934D01*
X139683000Y-147899934D01*
X139683000Y-147824623D01*
X139684226Y-147807087D01*
X139686948Y-147787721D01*
X139687554Y-147779838D01*
X139687741Y-147766447D01*
X139687356Y-147758576D01*
X139683785Y-147726739D01*
X139683000Y-147712695D01*
X139683000Y-146872115D01*
X139678525Y-146856876D01*
X139677135Y-146855671D01*
X139669452Y-146854000D01*
X136872115Y-146854000D01*
X136856876Y-146858475D01*
X136855671Y-146859865D01*
X136854000Y-146867548D01*
X136854000Y-149664884D01*
X136346000Y-149664884D01*
X136346000Y-146872115D01*
X136341525Y-146856876D01*
X136340135Y-146855671D01*
X136332452Y-146854000D01*
X133535116Y-146854000D01*
X133519877Y-146858475D01*
X133518672Y-146859865D01*
X133517001Y-146867548D01*
X133517001Y-147706541D01*
X133516007Y-147722334D01*
X133513162Y-147744856D01*
X133512966Y-147758862D01*
X133516400Y-147793886D01*
X133517001Y-147806182D01*
X133517001Y-148869040D01*
X133516007Y-148884833D01*
X133513162Y-148907356D01*
X133512966Y-148921362D01*
X126108000Y-148921362D01*
X126108000Y-148776000D01*
X126128002Y-148707879D01*
X126181658Y-148661386D01*
X126234000Y-148650000D01*
X128325000Y-148650000D01*
X128325000Y-146785851D01*
X141886719Y-146785851D01*
X141887235Y-146791995D01*
X141897115Y-146909653D01*
X141903268Y-146982934D01*
X141904967Y-146988858D01*
X141954202Y-147160560D01*
X141957783Y-147173050D01*
X142048187Y-147348956D01*
X142171035Y-147503953D01*
X142321650Y-147632136D01*
X142494294Y-147728624D01*
X142682392Y-147789740D01*
X142878777Y-147813158D01*
X142884912Y-147812686D01*
X142884914Y-147812686D01*
X143069830Y-147798457D01*
X143069834Y-147798456D01*
X143075972Y-147797984D01*
X143266463Y-147744798D01*
X143271967Y-147742018D01*
X143271969Y-147742017D01*
X143437495Y-147658404D01*
X143437497Y-147658403D01*
X143442996Y-147655625D01*
X143598847Y-147533861D01*
X143728078Y-147384145D01*
X143825769Y-147212179D01*
X143888197Y-147024513D01*
X143912985Y-146828295D01*
X143913380Y-146800000D01*
X143894080Y-146603167D01*
X143891521Y-146594689D01*
X143861794Y-146496232D01*
X143836916Y-146413831D01*
X143744066Y-146239204D01*
X143653839Y-146128575D01*
X143622960Y-146090713D01*
X143622957Y-146090710D01*
X143619065Y-146085938D01*
X143612724Y-146080692D01*
X143471425Y-145963799D01*
X143471421Y-145963797D01*
X143466675Y-145959870D01*
X143292701Y-145865802D01*
X143103768Y-145807318D01*
X143097643Y-145806674D01*
X143097642Y-145806674D01*
X142913204Y-145787289D01*
X142913202Y-145787289D01*
X142907075Y-145786645D01*
X142824576Y-145794153D01*
X142716251Y-145804011D01*
X142716248Y-145804012D01*
X142710112Y-145804570D01*
X142704206Y-145806308D01*
X142704202Y-145806309D01*
X142624590Y-145829740D01*
X142520381Y-145860410D01*
X142514923Y-145863263D01*
X142514919Y-145863265D01*
X142424147Y-145910720D01*
X142345110Y-145952040D01*
X142190975Y-146075968D01*
X142063846Y-146227474D01*
X142060879Y-146232872D01*
X142060875Y-146232877D01*
X142008645Y-146327885D01*
X141968567Y-146400787D01*
X141966706Y-146406654D01*
X141966705Y-146406656D01*
X141917234Y-146562608D01*
X141908765Y-146589306D01*
X141886719Y-146785851D01*
X128325000Y-146785851D01*
X128325000Y-144825851D01*
X130746719Y-144825851D01*
X130763268Y-145022934D01*
X130817783Y-145213050D01*
X130908187Y-145388956D01*
X131031035Y-145543953D01*
X131181650Y-145672136D01*
X131354294Y-145768624D01*
X131542392Y-145829740D01*
X131738777Y-145853158D01*
X131744912Y-145852686D01*
X131744914Y-145852686D01*
X131929830Y-145838457D01*
X131929834Y-145838456D01*
X131935972Y-145837984D01*
X132126463Y-145784798D01*
X132131967Y-145782018D01*
X132131969Y-145782017D01*
X132297495Y-145698404D01*
X132297497Y-145698403D01*
X132302996Y-145695625D01*
X132458847Y-145573861D01*
X132561582Y-145454841D01*
X132579693Y-145433860D01*
X133512965Y-145433860D01*
X133516399Y-145468880D01*
X133517000Y-145481175D01*
X133517000Y-146327885D01*
X133521475Y-146343124D01*
X133522865Y-146344329D01*
X133530548Y-146346000D01*
X136327885Y-146346000D01*
X136343124Y-146341525D01*
X136344329Y-146340135D01*
X136346000Y-146332452D01*
X136346000Y-146327885D01*
X136854000Y-146327885D01*
X136858475Y-146343124D01*
X136859865Y-146344329D01*
X136867548Y-146346000D01*
X139664884Y-146346000D01*
X139680123Y-146341525D01*
X139681328Y-146340135D01*
X139682999Y-146332452D01*
X139682999Y-145499630D01*
X139684226Y-145482092D01*
X139686947Y-145462732D01*
X139687554Y-145454841D01*
X139687741Y-145441462D01*
X139687354Y-145433563D01*
X139683784Y-145401734D01*
X139682999Y-145387688D01*
X139682999Y-144337130D01*
X139684225Y-144319594D01*
X139686948Y-144300221D01*
X139687554Y-144292338D01*
X139687741Y-144278962D01*
X139687354Y-144271062D01*
X139683784Y-144239232D01*
X139682999Y-144225187D01*
X139682999Y-143980331D01*
X139682629Y-143973510D01*
X139677105Y-143922648D01*
X139673479Y-143907396D01*
X139628324Y-143786946D01*
X139619786Y-143771351D01*
X139543285Y-143669276D01*
X139530724Y-143656715D01*
X139428649Y-143580214D01*
X139413054Y-143571676D01*
X139292606Y-143526522D01*
X139277351Y-143522895D01*
X139226486Y-143517369D01*
X139219672Y-143517000D01*
X138977876Y-143517000D01*
X138962958Y-143516114D01*
X138937319Y-143513057D01*
X138923321Y-143512959D01*
X138891438Y-143516310D01*
X138878268Y-143517000D01*
X137815376Y-143517000D01*
X137800458Y-143516114D01*
X137774818Y-143513057D01*
X137760820Y-143512959D01*
X137728936Y-143516310D01*
X137715767Y-143517000D01*
X136872115Y-143517000D01*
X136856876Y-143521475D01*
X136855671Y-143522865D01*
X136854000Y-143530548D01*
X136854000Y-146327885D01*
X136346000Y-146327885D01*
X136346000Y-143535116D01*
X136341525Y-143519877D01*
X136340135Y-143518672D01*
X136332452Y-143517001D01*
X135490382Y-143517001D01*
X135475463Y-143516115D01*
X135449817Y-143513057D01*
X135435821Y-143512959D01*
X135403931Y-143516311D01*
X135390760Y-143517001D01*
X134327884Y-143517001D01*
X134312965Y-143516115D01*
X134287318Y-143513057D01*
X134273321Y-143512959D01*
X134241429Y-143516311D01*
X134228259Y-143517001D01*
X133980331Y-143517001D01*
X133973510Y-143517371D01*
X133922648Y-143522895D01*
X133907396Y-143526521D01*
X133786946Y-143571676D01*
X133771351Y-143580214D01*
X133669276Y-143656715D01*
X133656715Y-143669276D01*
X133580214Y-143771351D01*
X133571676Y-143786946D01*
X133526522Y-143907394D01*
X133522895Y-143922649D01*
X133517369Y-143973514D01*
X133517000Y-143980328D01*
X133517000Y-144219048D01*
X133516006Y-144234840D01*
X133513162Y-144257356D01*
X133512966Y-144271363D01*
X133516399Y-144306379D01*
X133517000Y-144318675D01*
X133517000Y-145381540D01*
X133516007Y-145397332D01*
X133513161Y-145419864D01*
X133512965Y-145433860D01*
X132579693Y-145433860D01*
X132584049Y-145428813D01*
X132584050Y-145428811D01*
X132588078Y-145424145D01*
X132685769Y-145252179D01*
X132748197Y-145064513D01*
X132772985Y-144868295D01*
X132773380Y-144840000D01*
X132754080Y-144643167D01*
X132696916Y-144453831D01*
X132604066Y-144279204D01*
X132533709Y-144192938D01*
X132482960Y-144130713D01*
X132482957Y-144130710D01*
X132479065Y-144125938D01*
X132472724Y-144120692D01*
X132331425Y-144003799D01*
X132331421Y-144003797D01*
X132326675Y-143999870D01*
X132152701Y-143905802D01*
X131963768Y-143847318D01*
X131957643Y-143846674D01*
X131957642Y-143846674D01*
X131773204Y-143827289D01*
X131773202Y-143827289D01*
X131767075Y-143826645D01*
X131684576Y-143834153D01*
X131576251Y-143844011D01*
X131576248Y-143844012D01*
X131570112Y-143844570D01*
X131564206Y-143846308D01*
X131564202Y-143846309D01*
X131459076Y-143877249D01*
X131380381Y-143900410D01*
X131374923Y-143903263D01*
X131374919Y-143903265D01*
X131284147Y-143950720D01*
X131205110Y-143992040D01*
X131050975Y-144115968D01*
X130923846Y-144267474D01*
X130920879Y-144272872D01*
X130920875Y-144272877D01*
X130843581Y-144413477D01*
X130828567Y-144440787D01*
X130826706Y-144446654D01*
X130826705Y-144446656D01*
X130787856Y-144569123D01*
X130768765Y-144629306D01*
X130746719Y-144825851D01*
X128325000Y-144825851D01*
X128325000Y-141534500D01*
X128345002Y-141466379D01*
X128398658Y-141419886D01*
X128451000Y-141408500D01*
X130171884Y-141408500D01*
X130234066Y-141401745D01*
X130370455Y-141350615D01*
X130487011Y-141263261D01*
X130574365Y-141146705D01*
X130598930Y-141081178D01*
X130641572Y-141024414D01*
X130708133Y-140999714D01*
X130777482Y-141014921D01*
X130797397Y-141028464D01*
X130862474Y-141082492D01*
X130953099Y-141157730D01*
X131153072Y-141274584D01*
X131157897Y-141276426D01*
X131157898Y-141276427D01*
X131197902Y-141291703D01*
X131369444Y-141357209D01*
X131374510Y-141358240D01*
X131374511Y-141358240D01*
X131410254Y-141365512D01*
X131596406Y-141403385D01*
X131725839Y-141408131D01*
X131822699Y-141411683D01*
X131822703Y-141411683D01*
X131827863Y-141411872D01*
X131832983Y-141411216D01*
X131832985Y-141411216D01*
X131920537Y-141400000D01*
X132057597Y-141382442D01*
X132062545Y-141380957D01*
X132062552Y-141380956D01*
X132274497Y-141317369D01*
X132279440Y-141315886D01*
X132359986Y-141276427D01*
X132482799Y-141216262D01*
X132482802Y-141216260D01*
X132487434Y-141213991D01*
X132675993Y-141079494D01*
X132840053Y-140916005D01*
X132975208Y-140727917D01*
X132993596Y-140690713D01*
X133075534Y-140524922D01*
X133075535Y-140524920D01*
X133077828Y-140520280D01*
X133145158Y-140298671D01*
X133175390Y-140069041D01*
X133175472Y-140065691D01*
X133176995Y-140003365D01*
X133176995Y-140003361D01*
X133177077Y-140000000D01*
X133174239Y-139965483D01*
X133188591Y-139895953D01*
X133238257Y-139845220D01*
X133307467Y-139829392D01*
X133374247Y-139853493D01*
X133388910Y-139866064D01*
X135915027Y-142392181D01*
X135945765Y-142442339D01*
X135961136Y-142489645D01*
X136056623Y-142655033D01*
X136184410Y-142796955D01*
X136338911Y-142909207D01*
X136344939Y-142911891D01*
X136344941Y-142911892D01*
X136468993Y-142967123D01*
X136513375Y-142986883D01*
X136604847Y-143006326D01*
X136693719Y-143025217D01*
X136693724Y-143025217D01*
X136700176Y-143026589D01*
X136891150Y-143026589D01*
X136897602Y-143025217D01*
X136897607Y-143025217D01*
X136986479Y-143006326D01*
X137077951Y-142986883D01*
X137122333Y-142967123D01*
X137246385Y-142911892D01*
X137246387Y-142911891D01*
X137252415Y-142909207D01*
X137406916Y-142796955D01*
X137534703Y-142655033D01*
X137574645Y-142585851D01*
X141105469Y-142585851D01*
X141122018Y-142782934D01*
X141176533Y-142973050D01*
X141266937Y-143148956D01*
X141389785Y-143303953D01*
X141394478Y-143307947D01*
X141394479Y-143307948D01*
X141496164Y-143394488D01*
X141540400Y-143432136D01*
X141713044Y-143528624D01*
X141901142Y-143589740D01*
X142097527Y-143613158D01*
X142103662Y-143612686D01*
X142103664Y-143612686D01*
X142288580Y-143598457D01*
X142288584Y-143598456D01*
X142294722Y-143597984D01*
X142485213Y-143544798D01*
X142490717Y-143542018D01*
X142490719Y-143542017D01*
X142656245Y-143458404D01*
X142656247Y-143458403D01*
X142661746Y-143455625D01*
X142817597Y-143333861D01*
X142946828Y-143184145D01*
X143044519Y-143012179D01*
X143106947Y-142824513D01*
X143131735Y-142628295D01*
X143132130Y-142600000D01*
X143112830Y-142403167D01*
X143055666Y-142213831D01*
X143052773Y-142208391D01*
X143050424Y-142202690D01*
X143052956Y-142201646D01*
X143041028Y-142143665D01*
X143066589Y-142077430D01*
X143071204Y-142071756D01*
X143146828Y-141984145D01*
X143244519Y-141812179D01*
X143306947Y-141624513D01*
X143331735Y-141428295D01*
X143332011Y-141408500D01*
X143332081Y-141403523D01*
X143332081Y-141403520D01*
X143332130Y-141400000D01*
X143312830Y-141203167D01*
X143304000Y-141173919D01*
X143257447Y-141019731D01*
X143255666Y-141013831D01*
X143162816Y-140839204D01*
X143075477Y-140732116D01*
X143041710Y-140690713D01*
X143041707Y-140690710D01*
X143037815Y-140685938D01*
X143031474Y-140680692D01*
X142890175Y-140563799D01*
X142890171Y-140563797D01*
X142885425Y-140559870D01*
X142711451Y-140465802D01*
X142522518Y-140407318D01*
X142516393Y-140406674D01*
X142516392Y-140406674D01*
X142331954Y-140387289D01*
X142331952Y-140387289D01*
X142325825Y-140386645D01*
X142243326Y-140394153D01*
X142135001Y-140404011D01*
X142134998Y-140404012D01*
X142128862Y-140404570D01*
X142122956Y-140406308D01*
X142122952Y-140406309D01*
X142017826Y-140437249D01*
X141939131Y-140460410D01*
X141933673Y-140463263D01*
X141933669Y-140463265D01*
X141842897Y-140510720D01*
X141763860Y-140552040D01*
X141609725Y-140675968D01*
X141482596Y-140827474D01*
X141479629Y-140832872D01*
X141479625Y-140832877D01*
X141436233Y-140911808D01*
X141387317Y-141000787D01*
X141385456Y-141006654D01*
X141385455Y-141006656D01*
X141336381Y-141161358D01*
X141327515Y-141189306D01*
X141305469Y-141385851D01*
X141305985Y-141391995D01*
X141321456Y-141576237D01*
X141322018Y-141582934D01*
X141323717Y-141588858D01*
X141370732Y-141752818D01*
X141376533Y-141773050D01*
X141379351Y-141778533D01*
X141383676Y-141786948D01*
X141397025Y-141856679D01*
X141368134Y-141925535D01*
X141282596Y-142027474D01*
X141279629Y-142032872D01*
X141279625Y-142032877D01*
X141222759Y-142136318D01*
X141187317Y-142200787D01*
X141185456Y-142206654D01*
X141185455Y-142206656D01*
X141155383Y-142301454D01*
X141127515Y-142389306D01*
X141105469Y-142585851D01*
X137574645Y-142585851D01*
X137630190Y-142489645D01*
X137689205Y-142308017D01*
X137709167Y-142118089D01*
X137689205Y-141928161D01*
X137630190Y-141746533D01*
X137534703Y-141581145D01*
X137406916Y-141439223D01*
X137294034Y-141357209D01*
X137257757Y-141330852D01*
X137257756Y-141330851D01*
X137252415Y-141326971D01*
X137246387Y-141324287D01*
X137246385Y-141324286D01*
X137083982Y-141251980D01*
X137083981Y-141251980D01*
X137077951Y-141249295D01*
X136969322Y-141226205D01*
X136897607Y-141210961D01*
X136897602Y-141210961D01*
X136891150Y-141209589D01*
X136700176Y-141209589D01*
X136693723Y-141210961D01*
X136693710Y-141210962D01*
X136622001Y-141226205D01*
X136551211Y-141220804D01*
X136506709Y-141192054D01*
X135126518Y-139811863D01*
X159138050Y-139811863D01*
X159150309Y-140024477D01*
X159151745Y-140034697D01*
X159198565Y-140242446D01*
X159201645Y-140252275D01*
X159281770Y-140449603D01*
X159286413Y-140458794D01*
X159366460Y-140589420D01*
X159376916Y-140598880D01*
X159385694Y-140595096D01*
X160127978Y-139852812D01*
X160135592Y-139838868D01*
X160135461Y-139837035D01*
X160131210Y-139830420D01*
X159389849Y-139089059D01*
X159378313Y-139082759D01*
X159366031Y-139092382D01*
X159318089Y-139162662D01*
X159313004Y-139171613D01*
X159223338Y-139364783D01*
X159219775Y-139374470D01*
X159162864Y-139579681D01*
X159160933Y-139589800D01*
X159138302Y-139801574D01*
X159138050Y-139811863D01*
X135126518Y-139811863D01*
X134070405Y-138755750D01*
X134036379Y-138693438D01*
X134033500Y-138666655D01*
X134033500Y-137585851D01*
X137986719Y-137585851D01*
X137987235Y-137591995D01*
X137996946Y-137707639D01*
X138003268Y-137782934D01*
X138008681Y-137801811D01*
X138039655Y-137909829D01*
X138057783Y-137973050D01*
X138074885Y-138006326D01*
X138103816Y-138062619D01*
X138148187Y-138148956D01*
X138271035Y-138303953D01*
X138275728Y-138307947D01*
X138275729Y-138307948D01*
X138406500Y-138419242D01*
X138421650Y-138432136D01*
X138594294Y-138528624D01*
X138782392Y-138589740D01*
X138978777Y-138613158D01*
X138984912Y-138612686D01*
X138984914Y-138612686D01*
X139169830Y-138598457D01*
X139169834Y-138598456D01*
X139175972Y-138597984D01*
X139366463Y-138544798D01*
X139371967Y-138542018D01*
X139371969Y-138542017D01*
X139537495Y-138458404D01*
X139537497Y-138458403D01*
X139542996Y-138455625D01*
X139698847Y-138333861D01*
X139828078Y-138184145D01*
X139925769Y-138012179D01*
X139988197Y-137824513D01*
X140012985Y-137628295D01*
X140013380Y-137600000D01*
X139994080Y-137403167D01*
X139936916Y-137213831D01*
X139844066Y-137039204D01*
X139773709Y-136952938D01*
X139722960Y-136890713D01*
X139722957Y-136890710D01*
X139719065Y-136885938D01*
X139712724Y-136880692D01*
X139571425Y-136763799D01*
X139571421Y-136763797D01*
X139566675Y-136759870D01*
X139392701Y-136665802D01*
X139203768Y-136607318D01*
X139197643Y-136606674D01*
X139197642Y-136606674D01*
X139013204Y-136587289D01*
X139013202Y-136587289D01*
X139007075Y-136586645D01*
X138924576Y-136594153D01*
X138816251Y-136604011D01*
X138816248Y-136604012D01*
X138810112Y-136604570D01*
X138804206Y-136606308D01*
X138804202Y-136606309D01*
X138734987Y-136626680D01*
X138620381Y-136660410D01*
X138614923Y-136663263D01*
X138614919Y-136663265D01*
X138524147Y-136710720D01*
X138445110Y-136752040D01*
X138290975Y-136875968D01*
X138163846Y-137027474D01*
X138160879Y-137032872D01*
X138160875Y-137032877D01*
X138118157Y-137110582D01*
X138068567Y-137200787D01*
X138066706Y-137206654D01*
X138066705Y-137206656D01*
X138015971Y-137366590D01*
X138008765Y-137389306D01*
X137986719Y-137585851D01*
X134033500Y-137585851D01*
X134033500Y-123478767D01*
X134034027Y-123467584D01*
X134035702Y-123460091D01*
X134033562Y-123392014D01*
X134033500Y-123388055D01*
X134033500Y-123360144D01*
X134032995Y-123356144D01*
X134032062Y-123344301D01*
X134030922Y-123308029D01*
X134030673Y-123300110D01*
X134025022Y-123280658D01*
X134021014Y-123261306D01*
X134019467Y-123249063D01*
X134018474Y-123241203D01*
X134015556Y-123233832D01*
X134002200Y-123200097D01*
X133998355Y-123188870D01*
X133990030Y-123160217D01*
X133986018Y-123146407D01*
X133975707Y-123128972D01*
X133967012Y-123111224D01*
X133959552Y-123092383D01*
X133933564Y-123056613D01*
X133927048Y-123046693D01*
X133908580Y-123015465D01*
X133908578Y-123015462D01*
X133904542Y-123008638D01*
X133890221Y-122994317D01*
X133877380Y-122979283D01*
X133870131Y-122969306D01*
X133865472Y-122962893D01*
X133831395Y-122934702D01*
X133822616Y-122926712D01*
X131008379Y-120112475D01*
X130974353Y-120050163D01*
X130979418Y-119979348D01*
X131021965Y-119922512D01*
X131087589Y-119897768D01*
X131103564Y-119896511D01*
X131129622Y-119894461D01*
X131129630Y-119894460D01*
X131134557Y-119894072D01*
X131139364Y-119892918D01*
X131139370Y-119892917D01*
X131290437Y-119856649D01*
X131373092Y-119836805D01*
X131377663Y-119834912D01*
X131377665Y-119834911D01*
X131455033Y-119802864D01*
X131599732Y-119742927D01*
X131791533Y-119625392D01*
X131804670Y-119617342D01*
X131804673Y-119617340D01*
X131808896Y-119614752D01*
X131826533Y-119599689D01*
X131991677Y-119458641D01*
X131995433Y-119455433D01*
X132154752Y-119268896D01*
X132282927Y-119059732D01*
X132342864Y-118915033D01*
X132374911Y-118837665D01*
X132374912Y-118837663D01*
X132376805Y-118833092D01*
X132403928Y-118720117D01*
X132432917Y-118599370D01*
X132432918Y-118599364D01*
X132434072Y-118594557D01*
X132453319Y-118350000D01*
X132434072Y-118105443D01*
X132431605Y-118095164D01*
X132377960Y-117871720D01*
X132376805Y-117866908D01*
X132282927Y-117640268D01*
X132154752Y-117431104D01*
X131995433Y-117244567D01*
X131905569Y-117167815D01*
X131812663Y-117088465D01*
X131812660Y-117088463D01*
X131808896Y-117085248D01*
X131804673Y-117082660D01*
X131804670Y-117082658D01*
X131722665Y-117032406D01*
X131599732Y-116957073D01*
X131420169Y-116882695D01*
X131377665Y-116865089D01*
X131377663Y-116865088D01*
X131373092Y-116863195D01*
X131255172Y-116834885D01*
X131139370Y-116807083D01*
X131139364Y-116807082D01*
X131134557Y-116805928D01*
X130890000Y-116786681D01*
X130645443Y-116805928D01*
X130640636Y-116807082D01*
X130640630Y-116807083D01*
X130524828Y-116834885D01*
X130406908Y-116863195D01*
X130402337Y-116865088D01*
X130402335Y-116865089D01*
X130359831Y-116882695D01*
X130180268Y-116957073D01*
X129971104Y-117085248D01*
X129969925Y-117083324D01*
X129911899Y-117104052D01*
X129842741Y-117087998D01*
X129793242Y-117037102D01*
X129779082Y-116988584D01*
X129770025Y-116878425D01*
X129769601Y-116873264D01*
X129714178Y-116652617D01*
X129623462Y-116443985D01*
X129543859Y-116320936D01*
X129502698Y-116257311D01*
X129502696Y-116257308D01*
X129499890Y-116252971D01*
X129346779Y-116084704D01*
X129168241Y-115943704D01*
X129130537Y-115922890D01*
X129115869Y-115914793D01*
X128969072Y-115833757D01*
X128964203Y-115832033D01*
X128964199Y-115832031D01*
X128759496Y-115759541D01*
X128759492Y-115759540D01*
X128754621Y-115757815D01*
X128749528Y-115756908D01*
X128749525Y-115756907D01*
X128535734Y-115718825D01*
X128535728Y-115718824D01*
X128530645Y-115717919D01*
X128457196Y-115717022D01*
X128308331Y-115715203D01*
X128308329Y-115715203D01*
X128303161Y-115715140D01*
X128078278Y-115749552D01*
X127862035Y-115820231D01*
X127857447Y-115822619D01*
X127857443Y-115822621D01*
X127664828Y-115922890D01*
X127660239Y-115925279D01*
X127656106Y-115928382D01*
X127656103Y-115928384D01*
X127482445Y-116058770D01*
X127478310Y-116061875D01*
X127321133Y-116226351D01*
X127192931Y-116414289D01*
X127190758Y-116418971D01*
X127190756Y-116418974D01*
X127176948Y-116448722D01*
X127097145Y-116620643D01*
X127095761Y-116625635D01*
X127044960Y-116808817D01*
X127036348Y-116839869D01*
X127035799Y-116845006D01*
X127015257Y-117037218D01*
X127012172Y-117066082D01*
X127012469Y-117071234D01*
X127012469Y-117071238D01*
X127014361Y-117104052D01*
X127025268Y-117293206D01*
X127026405Y-117298252D01*
X127026406Y-117298258D01*
X127053645Y-117419127D01*
X127075283Y-117515141D01*
X127160875Y-117725927D01*
X127279744Y-117919904D01*
X127428698Y-118091861D01*
X127603737Y-118237181D01*
X127608192Y-118239784D01*
X127608203Y-118239792D01*
X127716169Y-118302883D01*
X127764892Y-118354521D01*
X127778536Y-118407707D01*
X127778938Y-118420482D01*
X127779000Y-118424445D01*
X127779000Y-118452356D01*
X127779497Y-118456290D01*
X127779497Y-118456291D01*
X127779505Y-118456356D01*
X127780438Y-118468193D01*
X127781827Y-118512389D01*
X127787478Y-118531839D01*
X127791487Y-118551200D01*
X127794026Y-118571297D01*
X127796945Y-118578668D01*
X127796945Y-118578670D01*
X127810304Y-118612412D01*
X127814149Y-118623642D01*
X127826482Y-118666093D01*
X127830515Y-118672912D01*
X127830517Y-118672917D01*
X127836793Y-118683528D01*
X127845488Y-118701276D01*
X127852948Y-118720117D01*
X127857610Y-118726533D01*
X127857610Y-118726534D01*
X127878936Y-118755887D01*
X127885452Y-118765807D01*
X127907958Y-118803862D01*
X127922279Y-118818183D01*
X127935119Y-118833216D01*
X127947028Y-118849607D01*
X127953134Y-118854658D01*
X127981105Y-118877798D01*
X127989884Y-118885788D01*
X132729595Y-123625499D01*
X132763621Y-123687811D01*
X132766500Y-123714594D01*
X132766500Y-138736987D01*
X132746498Y-138805108D01*
X132692842Y-138851601D01*
X132622568Y-138861705D01*
X132562409Y-138835869D01*
X132545873Y-138822810D01*
X132541357Y-138820317D01*
X132541354Y-138820315D01*
X132347629Y-138713373D01*
X132347625Y-138713371D01*
X132343105Y-138710876D01*
X132338236Y-138709152D01*
X132338232Y-138709150D01*
X132129653Y-138635288D01*
X132129649Y-138635287D01*
X132124778Y-138633562D01*
X132119685Y-138632655D01*
X132119682Y-138632654D01*
X131901845Y-138593851D01*
X131901839Y-138593850D01*
X131896756Y-138592945D01*
X131823846Y-138592054D01*
X131670331Y-138590179D01*
X131670329Y-138590179D01*
X131665161Y-138590116D01*
X131436214Y-138625150D01*
X131216064Y-138697106D01*
X131211476Y-138699494D01*
X131211472Y-138699496D01*
X131015211Y-138801663D01*
X131010622Y-138804052D01*
X131006489Y-138807155D01*
X131006486Y-138807157D01*
X130858069Y-138918592D01*
X130825405Y-138943117D01*
X130807920Y-138961414D01*
X130746396Y-138996844D01*
X130675483Y-138993387D01*
X130617697Y-138952141D01*
X130598844Y-138918592D01*
X130577518Y-138861705D01*
X130577517Y-138861704D01*
X130574365Y-138853295D01*
X130487011Y-138736739D01*
X130370455Y-138649385D01*
X130234066Y-138598255D01*
X130171884Y-138591500D01*
X128275616Y-138591500D01*
X128213434Y-138598255D01*
X128077045Y-138649385D01*
X128069860Y-138654770D01*
X128069858Y-138654771D01*
X127976384Y-138724826D01*
X127909877Y-138749674D01*
X127900819Y-138750000D01*
X126195277Y-138750000D01*
X126127156Y-138729998D01*
X126080663Y-138676342D01*
X126070559Y-138606068D01*
X126081221Y-138570453D01*
X126086983Y-138558180D01*
X126086983Y-138558179D01*
X126090799Y-138550052D01*
X126095343Y-138520870D01*
X126099126Y-138504151D01*
X126105014Y-138484464D01*
X126105015Y-138484461D01*
X126107587Y-138475859D01*
X126107797Y-138441444D01*
X126107830Y-138440672D01*
X126108000Y-138439577D01*
X126108000Y-138408702D01*
X126108002Y-138407932D01*
X126108452Y-138334284D01*
X126108452Y-138334283D01*
X126108476Y-138330348D01*
X126108092Y-138329004D01*
X126108000Y-138327659D01*
X126108000Y-131066082D01*
X127012172Y-131066082D01*
X127012469Y-131071234D01*
X127012469Y-131071238D01*
X127019536Y-131193803D01*
X127025268Y-131293206D01*
X127026405Y-131298252D01*
X127026406Y-131298258D01*
X127053645Y-131419127D01*
X127075283Y-131515141D01*
X127160875Y-131725927D01*
X127279744Y-131919904D01*
X127428698Y-132091861D01*
X127603737Y-132237181D01*
X127608189Y-132239783D01*
X127608194Y-132239786D01*
X127702199Y-132294718D01*
X127800160Y-132351962D01*
X128012693Y-132433120D01*
X128017759Y-132434151D01*
X128017760Y-132434151D01*
X128116861Y-132454313D01*
X128235627Y-132478476D01*
X128363437Y-132483163D01*
X128457811Y-132486624D01*
X128457815Y-132486624D01*
X128462975Y-132486813D01*
X128468095Y-132486157D01*
X128468097Y-132486157D01*
X128683504Y-132458563D01*
X128683505Y-132458563D01*
X128688632Y-132457906D01*
X128771248Y-132433120D01*
X128901591Y-132394015D01*
X128901592Y-132394014D01*
X128906537Y-132392531D01*
X129110839Y-132292444D01*
X129129612Y-132279053D01*
X129196683Y-132255780D01*
X129265692Y-132272462D01*
X129314727Y-132323805D01*
X129328392Y-132371746D01*
X129337448Y-132486813D01*
X129345928Y-132594557D01*
X129403195Y-132833092D01*
X129497073Y-133059732D01*
X129625248Y-133268896D01*
X129784567Y-133455433D01*
X129788323Y-133458641D01*
X129965086Y-133609612D01*
X129971104Y-133614752D01*
X129975327Y-133617340D01*
X129975330Y-133617342D01*
X130044515Y-133659738D01*
X130180268Y-133742927D01*
X130324967Y-133802864D01*
X130402335Y-133834911D01*
X130402337Y-133834912D01*
X130406908Y-133836805D01*
X130489563Y-133856649D01*
X130640630Y-133892917D01*
X130640636Y-133892918D01*
X130645443Y-133894072D01*
X130890000Y-133913319D01*
X131134557Y-133894072D01*
X131139364Y-133892918D01*
X131139370Y-133892917D01*
X131290437Y-133856649D01*
X131373092Y-133836805D01*
X131377663Y-133834912D01*
X131377665Y-133834911D01*
X131455033Y-133802864D01*
X131599732Y-133742927D01*
X131735485Y-133659738D01*
X131804670Y-133617342D01*
X131804673Y-133617340D01*
X131808896Y-133614752D01*
X131814915Y-133609612D01*
X131991677Y-133458641D01*
X131995433Y-133455433D01*
X132154752Y-133268896D01*
X132282927Y-133059732D01*
X132376805Y-132833092D01*
X132434072Y-132594557D01*
X132453319Y-132350000D01*
X132434072Y-132105443D01*
X132431605Y-132095164D01*
X132377960Y-131871720D01*
X132376805Y-131866908D01*
X132282927Y-131640268D01*
X132154752Y-131431104D01*
X132050038Y-131308500D01*
X131998641Y-131248323D01*
X131995433Y-131244567D01*
X131991677Y-131241359D01*
X131812663Y-131088465D01*
X131812660Y-131088463D01*
X131808896Y-131085248D01*
X131804673Y-131082660D01*
X131804670Y-131082658D01*
X131693319Y-131014423D01*
X131599732Y-130957073D01*
X131410184Y-130878559D01*
X131377665Y-130865089D01*
X131377663Y-130865088D01*
X131373092Y-130863195D01*
X131255172Y-130834885D01*
X131139370Y-130807083D01*
X131139364Y-130807082D01*
X131134557Y-130805928D01*
X130890000Y-130786681D01*
X130645443Y-130805928D01*
X130640636Y-130807082D01*
X130640630Y-130807083D01*
X130524828Y-130834885D01*
X130406908Y-130863195D01*
X130402337Y-130865088D01*
X130402335Y-130865089D01*
X130369816Y-130878559D01*
X130180268Y-130957073D01*
X129971104Y-131085248D01*
X129969925Y-131083324D01*
X129911899Y-131104052D01*
X129842741Y-131087998D01*
X129793242Y-131037102D01*
X129779082Y-130988584D01*
X129773163Y-130916586D01*
X129769601Y-130873264D01*
X129714178Y-130652617D01*
X129623462Y-130443985D01*
X129499890Y-130252971D01*
X129346779Y-130084704D01*
X129168241Y-129943704D01*
X129130537Y-129922890D01*
X129013256Y-129858148D01*
X128969072Y-129833757D01*
X128964203Y-129832033D01*
X128964199Y-129832031D01*
X128759496Y-129759541D01*
X128759492Y-129759540D01*
X128754621Y-129757815D01*
X128749528Y-129756908D01*
X128749525Y-129756907D01*
X128535734Y-129718825D01*
X128535728Y-129718824D01*
X128530645Y-129717919D01*
X128457196Y-129717022D01*
X128308331Y-129715203D01*
X128308329Y-129715203D01*
X128303161Y-129715140D01*
X128078278Y-129749552D01*
X127862035Y-129820231D01*
X127857447Y-129822619D01*
X127857443Y-129822621D01*
X127768784Y-129868774D01*
X127660239Y-129925279D01*
X127656106Y-129928382D01*
X127656103Y-129928384D01*
X127514465Y-130034729D01*
X127478310Y-130061875D01*
X127474738Y-130065613D01*
X127336690Y-130210072D01*
X127321133Y-130226351D01*
X127192931Y-130414289D01*
X127190758Y-130418971D01*
X127190756Y-130418974D01*
X127114449Y-130583365D01*
X127097145Y-130620643D01*
X127036348Y-130839869D01*
X127035799Y-130845006D01*
X127015150Y-131038220D01*
X127012172Y-131066082D01*
X126108000Y-131066082D01*
X126108000Y-127743130D01*
X127621700Y-127743130D01*
X127626981Y-127750184D01*
X127795919Y-127848904D01*
X127805202Y-127853351D01*
X128008002Y-127930793D01*
X128017900Y-127933669D01*
X128230625Y-127976948D01*
X128240853Y-127978167D01*
X128457788Y-127986122D01*
X128468074Y-127985655D01*
X128683400Y-127958072D01*
X128693477Y-127955930D01*
X128901401Y-127893549D01*
X128910999Y-127889788D01*
X129105947Y-127794284D01*
X129114785Y-127789015D01*
X129167172Y-127751648D01*
X129175572Y-127740948D01*
X129168585Y-127727795D01*
X128412812Y-126972022D01*
X128398868Y-126964408D01*
X128397035Y-126964539D01*
X128390420Y-126968790D01*
X127628460Y-127730750D01*
X127621700Y-127743130D01*
X126108000Y-127743130D01*
X126108000Y-126571250D01*
X127012971Y-126571250D01*
X127025467Y-126787967D01*
X127026903Y-126798188D01*
X127074627Y-127009948D01*
X127077706Y-127019777D01*
X127159379Y-127220914D01*
X127164022Y-127230105D01*
X127248279Y-127367601D01*
X127258735Y-127377061D01*
X127267513Y-127373277D01*
X128027978Y-126612812D01*
X128035592Y-126598868D01*
X128035461Y-126597035D01*
X128031210Y-126590420D01*
X127271858Y-125831068D01*
X127260322Y-125824768D01*
X127248039Y-125834391D01*
X127196279Y-125910268D01*
X127191191Y-125919224D01*
X127099795Y-126116121D01*
X127096232Y-126125808D01*
X127038223Y-126334979D01*
X127036292Y-126345100D01*
X127013222Y-126560962D01*
X127012971Y-126571250D01*
X126108000Y-126571250D01*
X126108000Y-125458569D01*
X127623365Y-125458569D01*
X127630111Y-125470901D01*
X129528388Y-127369178D01*
X129540398Y-127375736D01*
X129552138Y-127366768D01*
X129586507Y-127318940D01*
X129591816Y-127310103D01*
X129687994Y-127115503D01*
X129691792Y-127105910D01*
X129754897Y-126898208D01*
X129757074Y-126888138D01*
X129782250Y-126696905D01*
X129810972Y-126631978D01*
X129870237Y-126592886D01*
X129941229Y-126592041D01*
X129973006Y-126605918D01*
X130051127Y-126653790D01*
X130180268Y-126732927D01*
X130313145Y-126787967D01*
X130402335Y-126824911D01*
X130402337Y-126824912D01*
X130406908Y-126826805D01*
X130489563Y-126846649D01*
X130640630Y-126882917D01*
X130640636Y-126882918D01*
X130645443Y-126884072D01*
X130890000Y-126903319D01*
X131134557Y-126884072D01*
X131139364Y-126882918D01*
X131139370Y-126882917D01*
X131290437Y-126846649D01*
X131373092Y-126826805D01*
X131377663Y-126824912D01*
X131377665Y-126824911D01*
X131466855Y-126787967D01*
X131599732Y-126732927D01*
X131735485Y-126649738D01*
X131804670Y-126607342D01*
X131804673Y-126607340D01*
X131808896Y-126604752D01*
X131815786Y-126598868D01*
X131991677Y-126448641D01*
X131995433Y-126445433D01*
X132081126Y-126345100D01*
X132151535Y-126262663D01*
X132151537Y-126262660D01*
X132154752Y-126258896D01*
X132181085Y-126215925D01*
X132256483Y-126092885D01*
X132282927Y-126049732D01*
X132376805Y-125823092D01*
X132396649Y-125740437D01*
X132432917Y-125589370D01*
X132432918Y-125589364D01*
X132434072Y-125584557D01*
X132453319Y-125340000D01*
X132434072Y-125095443D01*
X132376805Y-124856908D01*
X132370401Y-124841446D01*
X132284820Y-124634839D01*
X132282927Y-124630268D01*
X132154752Y-124421104D01*
X131995433Y-124234567D01*
X131991677Y-124231359D01*
X131812663Y-124078465D01*
X131812660Y-124078463D01*
X131808896Y-124075248D01*
X131804673Y-124072660D01*
X131804670Y-124072658D01*
X131676483Y-123994106D01*
X131599732Y-123947073D01*
X131412185Y-123869388D01*
X131377665Y-123855089D01*
X131377663Y-123855088D01*
X131373092Y-123853195D01*
X131290437Y-123833351D01*
X131139370Y-123797083D01*
X131139364Y-123797082D01*
X131134557Y-123795928D01*
X130890000Y-123776681D01*
X130645443Y-123795928D01*
X130640636Y-123797082D01*
X130640630Y-123797083D01*
X130489563Y-123833351D01*
X130406908Y-123853195D01*
X130402337Y-123855088D01*
X130402335Y-123855089D01*
X130367815Y-123869388D01*
X130180268Y-123947073D01*
X130103517Y-123994106D01*
X129975330Y-124072658D01*
X129975327Y-124072660D01*
X129971104Y-124075248D01*
X129967340Y-124078463D01*
X129967337Y-124078465D01*
X129788323Y-124231359D01*
X129784567Y-124234567D01*
X129625248Y-124421104D01*
X129497073Y-124630268D01*
X129495180Y-124634839D01*
X129409600Y-124841446D01*
X129403195Y-124856908D01*
X129345928Y-125095443D01*
X129336407Y-125216423D01*
X129327559Y-125328844D01*
X129302274Y-125395185D01*
X129245135Y-125437325D01*
X129174285Y-125441884D01*
X129141053Y-125429266D01*
X128973398Y-125336715D01*
X128963989Y-125332487D01*
X128759364Y-125260026D01*
X128749401Y-125257394D01*
X128535687Y-125219326D01*
X128525434Y-125218356D01*
X128308366Y-125215703D01*
X128298082Y-125216423D01*
X128083507Y-125249258D01*
X128073479Y-125251647D01*
X127867147Y-125319087D01*
X127857637Y-125323084D01*
X127665095Y-125423315D01*
X127656370Y-125428809D01*
X127631819Y-125447243D01*
X127623365Y-125458569D01*
X126108000Y-125458569D01*
X126108000Y-113743130D01*
X127621700Y-113743130D01*
X127626981Y-113750184D01*
X127795919Y-113848904D01*
X127805202Y-113853351D01*
X128008002Y-113930793D01*
X128017900Y-113933669D01*
X128230625Y-113976948D01*
X128240853Y-113978167D01*
X128457788Y-113986122D01*
X128468074Y-113985655D01*
X128683400Y-113958072D01*
X128693477Y-113955930D01*
X128901401Y-113893549D01*
X128910999Y-113889788D01*
X129105947Y-113794284D01*
X129114785Y-113789015D01*
X129167172Y-113751648D01*
X129175572Y-113740948D01*
X129168585Y-113727795D01*
X128412812Y-112972022D01*
X128398868Y-112964408D01*
X128397035Y-112964539D01*
X128390420Y-112968790D01*
X127628460Y-113730750D01*
X127621700Y-113743130D01*
X126108000Y-113743130D01*
X126108000Y-112571250D01*
X127012971Y-112571250D01*
X127025467Y-112787967D01*
X127026903Y-112798188D01*
X127074627Y-113009948D01*
X127077706Y-113019777D01*
X127159379Y-113220914D01*
X127164022Y-113230105D01*
X127248279Y-113367601D01*
X127258735Y-113377061D01*
X127267513Y-113373277D01*
X128027978Y-112612812D01*
X128035592Y-112598868D01*
X128035461Y-112597035D01*
X128031210Y-112590420D01*
X127271858Y-111831068D01*
X127260322Y-111824768D01*
X127248039Y-111834391D01*
X127196279Y-111910268D01*
X127191191Y-111919224D01*
X127099795Y-112116121D01*
X127096232Y-112125808D01*
X127038223Y-112334979D01*
X127036292Y-112345100D01*
X127013222Y-112560962D01*
X127012971Y-112571250D01*
X126108000Y-112571250D01*
X126108000Y-111458569D01*
X127623365Y-111458569D01*
X127630111Y-111470901D01*
X129528388Y-113369178D01*
X129540398Y-113375736D01*
X129552138Y-113366768D01*
X129586507Y-113318940D01*
X129591816Y-113310103D01*
X129687994Y-113115503D01*
X129691792Y-113105910D01*
X129754897Y-112898208D01*
X129757074Y-112888138D01*
X129782250Y-112696905D01*
X129810972Y-112631978D01*
X129870237Y-112592886D01*
X129941229Y-112592041D01*
X129973006Y-112605918D01*
X130121485Y-112696905D01*
X130180268Y-112732927D01*
X130313145Y-112787967D01*
X130402335Y-112824911D01*
X130402337Y-112824912D01*
X130406908Y-112826805D01*
X130489563Y-112846649D01*
X130640630Y-112882917D01*
X130640636Y-112882918D01*
X130645443Y-112884072D01*
X130890000Y-112903319D01*
X131134557Y-112884072D01*
X131139364Y-112882918D01*
X131139370Y-112882917D01*
X131290437Y-112846649D01*
X131373092Y-112826805D01*
X131377663Y-112824912D01*
X131377665Y-112824911D01*
X131466855Y-112787967D01*
X131599732Y-112732927D01*
X131764467Y-112631978D01*
X131804670Y-112607342D01*
X131804673Y-112607340D01*
X131808896Y-112604752D01*
X131815786Y-112598868D01*
X131991677Y-112448641D01*
X131995433Y-112445433D01*
X132081126Y-112345100D01*
X132151535Y-112262663D01*
X132151537Y-112262660D01*
X132154752Y-112258896D01*
X132282927Y-112049732D01*
X132376805Y-111823092D01*
X132434072Y-111584557D01*
X132453319Y-111340000D01*
X132434072Y-111095443D01*
X132376805Y-110856908D01*
X132282927Y-110630268D01*
X132154752Y-110421104D01*
X131995433Y-110234567D01*
X131808896Y-110075248D01*
X131804673Y-110072660D01*
X131804670Y-110072658D01*
X131735485Y-110030262D01*
X131599732Y-109947073D01*
X131428148Y-109876000D01*
X131377665Y-109855089D01*
X131377663Y-109855088D01*
X131373092Y-109853195D01*
X131290437Y-109833351D01*
X131139370Y-109797083D01*
X131139364Y-109797082D01*
X131134557Y-109795928D01*
X130890000Y-109776681D01*
X130645443Y-109795928D01*
X130640636Y-109797082D01*
X130640630Y-109797083D01*
X130489563Y-109833351D01*
X130406908Y-109853195D01*
X130402337Y-109855088D01*
X130402335Y-109855089D01*
X130351852Y-109876000D01*
X130180268Y-109947073D01*
X130044515Y-110030262D01*
X129975330Y-110072658D01*
X129975327Y-110072660D01*
X129971104Y-110075248D01*
X129784567Y-110234567D01*
X129625248Y-110421104D01*
X129497073Y-110630268D01*
X129403195Y-110856908D01*
X129345928Y-111095443D01*
X129336407Y-111216423D01*
X129327559Y-111328844D01*
X129302274Y-111395185D01*
X129245135Y-111437325D01*
X129174285Y-111441884D01*
X129141053Y-111429266D01*
X128973398Y-111336715D01*
X128963989Y-111332487D01*
X128759364Y-111260026D01*
X128749401Y-111257394D01*
X128535687Y-111219326D01*
X128525434Y-111218356D01*
X128308366Y-111215703D01*
X128298082Y-111216423D01*
X128083507Y-111249258D01*
X128073479Y-111251647D01*
X127867147Y-111319087D01*
X127857637Y-111323084D01*
X127665095Y-111423315D01*
X127656370Y-111428809D01*
X127631819Y-111447243D01*
X127623365Y-111458569D01*
X126108000Y-111458569D01*
X126108000Y-105776280D01*
X126128002Y-105708159D01*
X126181658Y-105661666D01*
X126251932Y-105651562D01*
X126286451Y-105661716D01*
X126456647Y-105739638D01*
X126467193Y-105743372D01*
X126669734Y-105795376D01*
X126680290Y-105797147D01*
X126811171Y-105807793D01*
X126816277Y-105808000D01*
X127327885Y-105808000D01*
X127343124Y-105803525D01*
X127344329Y-105802135D01*
X127346000Y-105794452D01*
X127346000Y-105789885D01*
X127854000Y-105789885D01*
X127858475Y-105805124D01*
X127859865Y-105806329D01*
X127867548Y-105808000D01*
X128383723Y-105808000D01*
X128388829Y-105807793D01*
X128519710Y-105797147D01*
X128530266Y-105795376D01*
X128732807Y-105743372D01*
X128743353Y-105739638D01*
X128933269Y-105652687D01*
X128942976Y-105647151D01*
X129114496Y-105527941D01*
X129123075Y-105520767D01*
X129270767Y-105373075D01*
X129277941Y-105364496D01*
X129397151Y-105192976D01*
X129402687Y-105183269D01*
X129489638Y-104993353D01*
X129493372Y-104982807D01*
X129545376Y-104780266D01*
X129547147Y-104769710D01*
X129557793Y-104638829D01*
X129558000Y-104633723D01*
X129558000Y-103272115D01*
X129553525Y-103256876D01*
X129552135Y-103255671D01*
X129544452Y-103254000D01*
X127872115Y-103254000D01*
X127856876Y-103258475D01*
X127855671Y-103259865D01*
X127854000Y-103267548D01*
X127854000Y-105789885D01*
X127346000Y-105789885D01*
X127346000Y-102727885D01*
X127854000Y-102727885D01*
X127858475Y-102743124D01*
X127859865Y-102744329D01*
X127867548Y-102746000D01*
X129539885Y-102746000D01*
X129555124Y-102741525D01*
X129556329Y-102740135D01*
X129558000Y-102732452D01*
X129558000Y-101366277D01*
X129557793Y-101361171D01*
X129547147Y-101230290D01*
X129545376Y-101219734D01*
X129493372Y-101017193D01*
X129489638Y-101006647D01*
X129402687Y-100816731D01*
X129397151Y-100807024D01*
X129277941Y-100635504D01*
X129270767Y-100626925D01*
X129123075Y-100479233D01*
X129114496Y-100472059D01*
X128942976Y-100352849D01*
X128933269Y-100347313D01*
X128743353Y-100260362D01*
X128732807Y-100256628D01*
X128530266Y-100204624D01*
X128519710Y-100202853D01*
X128388829Y-100192207D01*
X128383723Y-100192000D01*
X127872115Y-100192000D01*
X127856876Y-100196475D01*
X127855671Y-100197865D01*
X127854000Y-100205548D01*
X127854000Y-102727885D01*
X127346000Y-102727885D01*
X127346000Y-100210115D01*
X127341525Y-100194876D01*
X127340135Y-100193671D01*
X127332452Y-100192000D01*
X126816277Y-100192000D01*
X126811171Y-100192207D01*
X126680290Y-100202853D01*
X126669734Y-100204624D01*
X126467193Y-100256628D01*
X126456647Y-100260362D01*
X126286451Y-100338284D01*
X126216187Y-100348455D01*
X126151578Y-100319023D01*
X126113138Y-100259333D01*
X126108000Y-100223720D01*
X126108000Y-96305469D01*
X128287095Y-96305469D01*
X128287392Y-96310622D01*
X128287392Y-96310625D01*
X128293067Y-96409041D01*
X128300427Y-96536697D01*
X128301564Y-96541743D01*
X128301565Y-96541749D01*
X128333741Y-96684523D01*
X128351346Y-96762642D01*
X128353288Y-96767424D01*
X128353289Y-96767428D01*
X128436540Y-96972450D01*
X128438484Y-96977237D01*
X128559501Y-97174719D01*
X128711147Y-97349784D01*
X128889349Y-97497730D01*
X129089322Y-97614584D01*
X129305694Y-97697209D01*
X129310760Y-97698240D01*
X129310761Y-97698240D01*
X129363846Y-97709040D01*
X129532656Y-97743385D01*
X129663324Y-97748176D01*
X129758949Y-97751683D01*
X129758953Y-97751683D01*
X129764113Y-97751872D01*
X129769233Y-97751216D01*
X129769235Y-97751216D01*
X129842270Y-97741860D01*
X129993847Y-97722442D01*
X129998795Y-97720957D01*
X129998802Y-97720956D01*
X130210747Y-97657369D01*
X130215690Y-97655886D01*
X130296236Y-97616427D01*
X130419049Y-97556262D01*
X130419052Y-97556260D01*
X130423684Y-97553991D01*
X130612243Y-97419494D01*
X130776303Y-97256005D01*
X130911458Y-97067917D01*
X130958641Y-96972450D01*
X131011784Y-96864922D01*
X131011785Y-96864920D01*
X131014078Y-96860280D01*
X131081408Y-96638671D01*
X131111640Y-96409041D01*
X131113327Y-96340000D01*
X131107032Y-96263434D01*
X131094773Y-96114318D01*
X131094772Y-96114312D01*
X131094349Y-96109167D01*
X131037925Y-95884533D01*
X131035866Y-95879797D01*
X130947630Y-95676868D01*
X130947628Y-95676865D01*
X130945570Y-95672131D01*
X130819764Y-95477665D01*
X130729848Y-95378848D01*
X130698796Y-95315002D01*
X130707192Y-95244504D01*
X130752369Y-95189736D01*
X130778812Y-95176067D01*
X130838297Y-95153767D01*
X130846705Y-95150615D01*
X130963261Y-95063261D01*
X131050615Y-94946705D01*
X131101745Y-94810316D01*
X131108500Y-94748134D01*
X131108500Y-92851866D01*
X131101745Y-92789684D01*
X131050615Y-92653295D01*
X130963261Y-92536739D01*
X130846705Y-92449385D01*
X130710316Y-92398255D01*
X130648134Y-92391500D01*
X128751866Y-92391500D01*
X128689684Y-92398255D01*
X128553295Y-92449385D01*
X128436739Y-92536739D01*
X128349385Y-92653295D01*
X128298255Y-92789684D01*
X128291500Y-92851866D01*
X128291500Y-94748134D01*
X128298255Y-94810316D01*
X128349385Y-94946705D01*
X128436739Y-95063261D01*
X128553295Y-95150615D01*
X128561704Y-95153767D01*
X128561705Y-95153768D01*
X128621164Y-95176058D01*
X128677929Y-95218699D01*
X128702629Y-95285261D01*
X128687422Y-95354609D01*
X128668029Y-95381091D01*
X128601639Y-95450564D01*
X128598725Y-95454836D01*
X128598724Y-95454837D01*
X128583152Y-95477665D01*
X128471119Y-95641899D01*
X128373602Y-95851981D01*
X128311707Y-96075169D01*
X128287095Y-96305469D01*
X126108000Y-96305469D01*
X126108000Y-87776280D01*
X126128002Y-87708159D01*
X126181658Y-87661666D01*
X126251932Y-87651562D01*
X126286451Y-87661716D01*
X126456647Y-87739638D01*
X126467193Y-87743372D01*
X126669734Y-87795376D01*
X126680290Y-87797147D01*
X126811171Y-87807793D01*
X126816277Y-87808000D01*
X127327885Y-87808000D01*
X127343124Y-87803525D01*
X127344329Y-87802135D01*
X127346000Y-87794452D01*
X127346000Y-87789885D01*
X127854000Y-87789885D01*
X127858475Y-87805124D01*
X127859865Y-87806329D01*
X127867548Y-87808000D01*
X128383723Y-87808000D01*
X128388829Y-87807793D01*
X128519710Y-87797147D01*
X128530266Y-87795376D01*
X128732807Y-87743372D01*
X128743353Y-87739638D01*
X128933269Y-87652687D01*
X128942976Y-87647151D01*
X129114496Y-87527941D01*
X129123075Y-87520767D01*
X129270767Y-87373075D01*
X129277941Y-87364496D01*
X129397151Y-87192976D01*
X129402687Y-87183269D01*
X129489638Y-86993353D01*
X129493372Y-86982807D01*
X129545376Y-86780266D01*
X129547147Y-86769710D01*
X129557793Y-86638829D01*
X129558000Y-86633723D01*
X129558000Y-85272115D01*
X129553525Y-85256876D01*
X129552135Y-85255671D01*
X129544452Y-85254000D01*
X127872115Y-85254000D01*
X127856876Y-85258475D01*
X127855671Y-85259865D01*
X127854000Y-85267548D01*
X127854000Y-87789885D01*
X127346000Y-87789885D01*
X127346000Y-84727885D01*
X127854000Y-84727885D01*
X127858475Y-84743124D01*
X127859865Y-84744329D01*
X127867548Y-84746000D01*
X129539885Y-84746000D01*
X129555124Y-84741525D01*
X129556329Y-84740135D01*
X129558000Y-84732452D01*
X129558000Y-83366277D01*
X129557793Y-83361171D01*
X129547147Y-83230290D01*
X129545376Y-83219734D01*
X129493372Y-83017193D01*
X129489638Y-83006647D01*
X129402687Y-82816731D01*
X129397151Y-82807024D01*
X129277941Y-82635504D01*
X129270767Y-82626925D01*
X129123075Y-82479233D01*
X129114496Y-82472059D01*
X128942976Y-82352849D01*
X128933269Y-82347313D01*
X128743353Y-82260362D01*
X128732807Y-82256628D01*
X128530266Y-82204624D01*
X128519710Y-82202853D01*
X128388829Y-82192207D01*
X128383723Y-82192000D01*
X127872115Y-82192000D01*
X127856876Y-82196475D01*
X127855671Y-82197865D01*
X127854000Y-82205548D01*
X127854000Y-84727885D01*
X127346000Y-84727885D01*
X127346000Y-82210115D01*
X127341525Y-82194876D01*
X127340135Y-82193671D01*
X127332452Y-82192000D01*
X126816277Y-82192000D01*
X126811171Y-82192207D01*
X126680290Y-82202853D01*
X126669734Y-82204624D01*
X126467193Y-82256628D01*
X126456647Y-82260362D01*
X126286451Y-82338284D01*
X126216187Y-82348455D01*
X126151578Y-82319023D01*
X126113138Y-82259333D01*
X126108000Y-82223720D01*
X126108000Y-78305469D01*
X128287095Y-78305469D01*
X128300427Y-78536697D01*
X128301564Y-78541743D01*
X128301565Y-78541749D01*
X128333741Y-78684523D01*
X128351346Y-78762642D01*
X128353288Y-78767424D01*
X128353289Y-78767428D01*
X128394704Y-78869420D01*
X128438484Y-78977237D01*
X128559501Y-79174719D01*
X128711147Y-79349784D01*
X128889349Y-79497730D01*
X129089322Y-79614584D01*
X129305694Y-79697209D01*
X129310760Y-79698240D01*
X129310761Y-79698240D01*
X129363846Y-79709040D01*
X129532656Y-79743385D01*
X129663324Y-79748176D01*
X129758949Y-79751683D01*
X129758953Y-79751683D01*
X129764113Y-79751872D01*
X129769233Y-79751216D01*
X129769235Y-79751216D01*
X129842270Y-79741860D01*
X129993847Y-79722442D01*
X129998795Y-79720957D01*
X129998802Y-79720956D01*
X130210747Y-79657369D01*
X130215690Y-79655886D01*
X130239191Y-79644373D01*
X130419049Y-79556262D01*
X130419052Y-79556260D01*
X130423684Y-79553991D01*
X130612243Y-79419494D01*
X130776303Y-79256005D01*
X130793213Y-79232473D01*
X130837875Y-79170318D01*
X130911458Y-79067917D01*
X130958641Y-78972450D01*
X131011784Y-78864922D01*
X131011785Y-78864920D01*
X131014078Y-78860280D01*
X131081408Y-78638671D01*
X131111640Y-78409041D01*
X131111722Y-78405690D01*
X131111982Y-78402347D01*
X131113628Y-78402475D01*
X131133294Y-78341039D01*
X131188059Y-78295859D01*
X131258557Y-78287459D01*
X131326707Y-78322611D01*
X132528693Y-79524598D01*
X133729595Y-80725500D01*
X133763621Y-80787812D01*
X133766500Y-80814595D01*
X133766500Y-122021233D01*
X133765973Y-122032416D01*
X133764298Y-122039909D01*
X133764547Y-122047835D01*
X133764547Y-122047836D01*
X133766438Y-122107986D01*
X133766500Y-122111945D01*
X133766500Y-122139856D01*
X133766997Y-122143790D01*
X133766997Y-122143791D01*
X133767005Y-122143856D01*
X133767938Y-122155693D01*
X133769327Y-122199889D01*
X133774978Y-122219339D01*
X133778987Y-122238700D01*
X133781526Y-122258797D01*
X133784445Y-122266168D01*
X133784445Y-122266170D01*
X133797804Y-122299912D01*
X133801649Y-122311142D01*
X133813982Y-122353593D01*
X133818015Y-122360412D01*
X133818017Y-122360417D01*
X133824293Y-122371028D01*
X133832988Y-122388776D01*
X133840448Y-122407617D01*
X133845110Y-122414033D01*
X133845110Y-122414034D01*
X133866436Y-122443387D01*
X133872952Y-122453307D01*
X133895458Y-122491362D01*
X133909779Y-122505683D01*
X133922619Y-122520716D01*
X133934528Y-122537107D01*
X133940634Y-122542158D01*
X133968605Y-122565298D01*
X133977384Y-122573288D01*
X137552878Y-126148782D01*
X137586904Y-126211094D01*
X137589092Y-126224703D01*
X137606458Y-126389928D01*
X137665473Y-126571556D01*
X137760960Y-126736944D01*
X137888747Y-126878866D01*
X138043248Y-126991118D01*
X138049276Y-126993802D01*
X138049278Y-126993803D01*
X138107617Y-127019777D01*
X138217712Y-127068794D01*
X138308511Y-127088094D01*
X138398056Y-127107128D01*
X138398061Y-127107128D01*
X138404513Y-127108500D01*
X138460406Y-127108500D01*
X138528527Y-127128502D01*
X138549501Y-127145405D01*
X142196348Y-130792253D01*
X142203888Y-130800539D01*
X142208000Y-130807018D01*
X142213777Y-130812443D01*
X142257651Y-130853643D01*
X142260493Y-130856398D01*
X142280230Y-130876135D01*
X142283427Y-130878615D01*
X142292447Y-130886318D01*
X142324679Y-130916586D01*
X142331625Y-130920405D01*
X142331628Y-130920407D01*
X142342434Y-130926348D01*
X142358953Y-130937199D01*
X142374959Y-130949614D01*
X142382228Y-130952759D01*
X142382232Y-130952762D01*
X142415537Y-130967174D01*
X142426187Y-130972391D01*
X142464940Y-130993695D01*
X142472615Y-130995666D01*
X142472616Y-130995666D01*
X142484562Y-130998733D01*
X142503267Y-131005137D01*
X142521855Y-131013181D01*
X142529678Y-131014420D01*
X142529688Y-131014423D01*
X142565524Y-131020099D01*
X142577144Y-131022505D01*
X142612289Y-131031528D01*
X142619970Y-131033500D01*
X142640224Y-131033500D01*
X142659934Y-131035051D01*
X142679943Y-131038220D01*
X142687835Y-131037474D01*
X142723961Y-131034059D01*
X142735819Y-131033500D01*
X144791800Y-131033500D01*
X144859921Y-131053502D01*
X144879147Y-131069843D01*
X144879420Y-131069540D01*
X144884332Y-131073963D01*
X144888747Y-131078866D01*
X145043248Y-131191118D01*
X145049276Y-131193802D01*
X145049278Y-131193803D01*
X145163297Y-131244567D01*
X145217712Y-131268794D01*
X145308243Y-131288037D01*
X145398056Y-131307128D01*
X145398061Y-131307128D01*
X145404513Y-131308500D01*
X145595487Y-131308500D01*
X145601939Y-131307128D01*
X145601944Y-131307128D01*
X145691757Y-131288037D01*
X145782288Y-131268794D01*
X145836703Y-131244567D01*
X145950722Y-131193803D01*
X145950724Y-131193802D01*
X145956752Y-131191118D01*
X146111253Y-131078866D01*
X146147851Y-131038220D01*
X146234621Y-130941852D01*
X146234622Y-130941851D01*
X146239040Y-130936944D01*
X146310921Y-130812443D01*
X146331223Y-130777279D01*
X146331224Y-130777278D01*
X146334527Y-130771556D01*
X146393542Y-130589928D01*
X146413504Y-130400000D01*
X146393542Y-130210072D01*
X146334527Y-130028444D01*
X146239040Y-129863056D01*
X146111253Y-129721134D01*
X145956752Y-129608882D01*
X145950724Y-129606198D01*
X145950722Y-129606197D01*
X145788319Y-129533891D01*
X145788318Y-129533891D01*
X145782288Y-129531206D01*
X145688887Y-129511353D01*
X145601944Y-129492872D01*
X145601939Y-129492872D01*
X145595487Y-129491500D01*
X145404513Y-129491500D01*
X145398061Y-129492872D01*
X145398056Y-129492872D01*
X145311113Y-129511353D01*
X145217712Y-129531206D01*
X145211682Y-129533891D01*
X145211681Y-129533891D01*
X145049278Y-129606197D01*
X145049276Y-129606198D01*
X145043248Y-129608882D01*
X144888747Y-129721134D01*
X144884332Y-129726037D01*
X144879420Y-129730460D01*
X144878295Y-129729211D01*
X144824986Y-129762051D01*
X144791800Y-129766500D01*
X143014594Y-129766500D01*
X142946473Y-129746498D01*
X142925499Y-129729595D01*
X142730559Y-129534655D01*
X142696533Y-129472343D01*
X142701598Y-129401528D01*
X142744145Y-129344692D01*
X142768405Y-129330453D01*
X142850722Y-129293803D01*
X142850724Y-129293802D01*
X142856752Y-129291118D01*
X143011253Y-129178866D01*
X143139040Y-129036944D01*
X143234527Y-128871556D01*
X143293542Y-128689928D01*
X143302602Y-128603722D01*
X143329615Y-128538066D01*
X143338817Y-128527798D01*
X144463459Y-127403156D01*
X144469724Y-127397302D01*
X144511670Y-127360710D01*
X144547066Y-127310345D01*
X144550980Y-127305077D01*
X144584248Y-127262649D01*
X144588935Y-127256672D01*
X144592061Y-127249748D01*
X144594671Y-127245439D01*
X144600042Y-127236024D01*
X144602427Y-127231576D01*
X144606795Y-127225361D01*
X144629144Y-127168039D01*
X144631698Y-127161962D01*
X144653887Y-127112820D01*
X144657014Y-127105895D01*
X144658400Y-127098418D01*
X144659910Y-127093598D01*
X144662878Y-127083182D01*
X144664131Y-127078302D01*
X144666889Y-127071228D01*
X144674921Y-127010223D01*
X144675953Y-127003710D01*
X144685777Y-126950701D01*
X144685777Y-126950699D01*
X144687161Y-126943232D01*
X144683709Y-126883357D01*
X144683500Y-126876105D01*
X144683500Y-121198499D01*
X144703502Y-121130378D01*
X144714119Y-121116168D01*
X144824049Y-120988813D01*
X144824050Y-120988811D01*
X144828078Y-120984145D01*
X144925769Y-120812179D01*
X144988197Y-120624513D01*
X145012985Y-120428295D01*
X145013380Y-120400000D01*
X144994080Y-120203167D01*
X144936916Y-120013831D01*
X144844066Y-119839204D01*
X144719065Y-119685938D01*
X144719068Y-119685935D01*
X144686286Y-119625392D01*
X144683500Y-119599043D01*
X144683500Y-114085851D01*
X147986719Y-114085851D01*
X148003268Y-114282934D01*
X148057783Y-114473050D01*
X148148187Y-114648956D01*
X148271035Y-114803953D01*
X148421650Y-114932136D01*
X148594294Y-115028624D01*
X148782392Y-115089740D01*
X148978777Y-115113158D01*
X148984914Y-115112686D01*
X148991083Y-115112815D01*
X148991052Y-115114276D01*
X149053367Y-115127475D01*
X149082681Y-115149296D01*
X149879595Y-115946210D01*
X149913621Y-116008522D01*
X149916500Y-116035305D01*
X149916500Y-127853006D01*
X149896498Y-127921127D01*
X149884135Y-127937317D01*
X149865383Y-127958143D01*
X149865380Y-127958147D01*
X149860960Y-127963056D01*
X149765473Y-128128444D01*
X149706458Y-128310072D01*
X149686496Y-128500000D01*
X149687186Y-128506565D01*
X149697398Y-128603723D01*
X149706458Y-128689928D01*
X149765473Y-128871556D01*
X149860960Y-129036944D01*
X149988747Y-129178866D01*
X150143248Y-129291118D01*
X150149276Y-129293802D01*
X150149278Y-129293803D01*
X150311681Y-129366109D01*
X150317712Y-129368794D01*
X150411113Y-129388647D01*
X150498056Y-129407128D01*
X150498061Y-129407128D01*
X150504513Y-129408500D01*
X150695487Y-129408500D01*
X150701939Y-129407128D01*
X150701944Y-129407128D01*
X150788887Y-129388647D01*
X150882288Y-129368794D01*
X150888319Y-129366109D01*
X151050722Y-129293803D01*
X151050724Y-129293802D01*
X151056752Y-129291118D01*
X151211253Y-129178866D01*
X151339040Y-129036944D01*
X151434527Y-128871556D01*
X151493542Y-128689928D01*
X151502603Y-128603723D01*
X151512814Y-128506565D01*
X151513504Y-128500000D01*
X151493542Y-128310072D01*
X151434527Y-128128444D01*
X151339040Y-127963056D01*
X151334620Y-127958147D01*
X151334617Y-127958143D01*
X151315865Y-127937317D01*
X151285147Y-127873310D01*
X151283500Y-127853006D01*
X151283500Y-125832670D01*
X159632160Y-125832670D01*
X159637887Y-125840320D01*
X159809042Y-125945205D01*
X159817837Y-125949687D01*
X160027988Y-126036734D01*
X160037373Y-126039783D01*
X160258554Y-126092885D01*
X160268301Y-126094428D01*
X160495070Y-126112275D01*
X160504930Y-126112275D01*
X160731699Y-126094428D01*
X160741446Y-126092885D01*
X160962627Y-126039783D01*
X160972012Y-126036734D01*
X161182163Y-125949687D01*
X161190958Y-125945205D01*
X161358445Y-125842568D01*
X161367907Y-125832110D01*
X161364124Y-125823334D01*
X160512812Y-124972022D01*
X160498868Y-124964408D01*
X160497035Y-124964539D01*
X160490420Y-124968790D01*
X159638920Y-125820290D01*
X159632160Y-125832670D01*
X151283500Y-125832670D01*
X151283500Y-124604930D01*
X158987725Y-124604930D01*
X159005572Y-124831699D01*
X159007115Y-124841446D01*
X159060217Y-125062627D01*
X159063266Y-125072012D01*
X159150313Y-125282163D01*
X159154795Y-125290958D01*
X159257432Y-125458445D01*
X159267890Y-125467907D01*
X159276666Y-125464124D01*
X160127978Y-124612812D01*
X160135592Y-124598868D01*
X160135461Y-124597035D01*
X160131210Y-124590420D01*
X159279710Y-123738920D01*
X159267330Y-123732160D01*
X159259680Y-123737887D01*
X159154795Y-123909042D01*
X159150313Y-123917837D01*
X159063266Y-124127988D01*
X159060217Y-124137373D01*
X159007115Y-124358554D01*
X159005572Y-124368301D01*
X158987725Y-124595070D01*
X158987725Y-124604930D01*
X151283500Y-124604930D01*
X151283500Y-123367890D01*
X159632093Y-123367890D01*
X159635876Y-123376666D01*
X160487188Y-124227978D01*
X160501132Y-124235592D01*
X160502965Y-124235461D01*
X160509580Y-124231210D01*
X161361080Y-123379710D01*
X161367840Y-123367330D01*
X161362113Y-123359680D01*
X161190958Y-123254795D01*
X161182163Y-123250313D01*
X160972012Y-123163266D01*
X160962627Y-123160217D01*
X160741446Y-123107115D01*
X160731699Y-123105572D01*
X160504930Y-123087725D01*
X160495070Y-123087725D01*
X160268301Y-123105572D01*
X160258554Y-123107115D01*
X160037373Y-123160217D01*
X160027988Y-123163266D01*
X159817837Y-123250313D01*
X159809042Y-123254795D01*
X159641555Y-123357432D01*
X159632093Y-123367890D01*
X151283500Y-123367890D01*
X151283500Y-115728056D01*
X151283792Y-115719486D01*
X151284088Y-115715140D01*
X151287577Y-115663966D01*
X151276997Y-115603342D01*
X151276034Y-115596819D01*
X151269558Y-115543308D01*
X151269558Y-115543307D01*
X151268645Y-115535765D01*
X151265959Y-115528655D01*
X151264754Y-115523752D01*
X151261886Y-115513266D01*
X151260439Y-115508474D01*
X151259134Y-115500996D01*
X151256082Y-115494043D01*
X151234405Y-115444659D01*
X151231914Y-115438554D01*
X151212855Y-115388118D01*
X151212853Y-115388115D01*
X151210169Y-115381011D01*
X151205869Y-115374754D01*
X151203533Y-115370286D01*
X151198275Y-115360840D01*
X151195693Y-115356474D01*
X151192638Y-115349515D01*
X151155177Y-115300696D01*
X151151314Y-115295377D01*
X151120769Y-115250935D01*
X151116466Y-115244674D01*
X151071676Y-115204767D01*
X151066402Y-115199787D01*
X150049958Y-114183343D01*
X150015932Y-114121031D01*
X150013365Y-114101087D01*
X150013380Y-114100000D01*
X149994080Y-113903167D01*
X149936916Y-113713831D01*
X149844066Y-113539204D01*
X149773709Y-113452938D01*
X149722960Y-113390713D01*
X149722957Y-113390710D01*
X149719065Y-113385938D01*
X149708335Y-113377061D01*
X149571425Y-113263799D01*
X149571421Y-113263797D01*
X149566675Y-113259870D01*
X149392701Y-113165802D01*
X149203768Y-113107318D01*
X149197643Y-113106674D01*
X149197642Y-113106674D01*
X149013204Y-113087289D01*
X149013202Y-113087289D01*
X149007075Y-113086645D01*
X148924576Y-113094153D01*
X148816251Y-113104011D01*
X148816248Y-113104012D01*
X148810112Y-113104570D01*
X148804206Y-113106308D01*
X148804202Y-113106309D01*
X148699076Y-113137249D01*
X148620381Y-113160410D01*
X148614923Y-113163263D01*
X148614919Y-113163265D01*
X148524147Y-113210720D01*
X148445110Y-113252040D01*
X148290975Y-113375968D01*
X148163846Y-113527474D01*
X148160879Y-113532872D01*
X148160875Y-113532877D01*
X148157397Y-113539204D01*
X148068567Y-113700787D01*
X148066706Y-113706654D01*
X148066705Y-113706656D01*
X148059062Y-113730750D01*
X148008765Y-113889306D01*
X147986719Y-114085851D01*
X144683500Y-114085851D01*
X144683500Y-95420926D01*
X144703502Y-95352805D01*
X144743665Y-95313494D01*
X144885193Y-95226765D01*
X144885203Y-95226758D01*
X144889416Y-95224176D01*
X145069969Y-95069969D01*
X145081831Y-95056081D01*
X145169109Y-94953891D01*
X145224176Y-94889416D01*
X145226755Y-94885208D01*
X145226759Y-94885202D01*
X145345654Y-94691183D01*
X145348240Y-94686963D01*
X145439105Y-94467594D01*
X145494535Y-94236711D01*
X145513165Y-94000000D01*
X147786835Y-94000000D01*
X147805465Y-94236711D01*
X147860895Y-94467594D01*
X147951760Y-94686963D01*
X147954346Y-94691183D01*
X148073241Y-94885202D01*
X148073245Y-94885208D01*
X148075824Y-94889416D01*
X148130891Y-94953891D01*
X148218170Y-95056081D01*
X148230031Y-95069969D01*
X148410584Y-95224176D01*
X148414792Y-95226755D01*
X148414798Y-95226759D01*
X148608817Y-95345654D01*
X148613037Y-95348240D01*
X148617607Y-95350133D01*
X148617611Y-95350135D01*
X148827833Y-95437211D01*
X148832406Y-95439105D01*
X148897935Y-95454837D01*
X149058476Y-95493380D01*
X149058482Y-95493381D01*
X149063289Y-95494535D01*
X149300000Y-95513165D01*
X149536711Y-95494535D01*
X149541518Y-95493381D01*
X149541524Y-95493380D01*
X149702065Y-95454837D01*
X149767594Y-95439105D01*
X149772167Y-95437211D01*
X149982389Y-95350135D01*
X149982393Y-95350133D01*
X149986963Y-95348240D01*
X149991183Y-95345654D01*
X150185202Y-95226759D01*
X150185208Y-95226755D01*
X150189416Y-95224176D01*
X150369969Y-95069969D01*
X150381831Y-95056081D01*
X150469109Y-94953891D01*
X150524176Y-94889416D01*
X150526755Y-94885208D01*
X150526759Y-94885202D01*
X150645654Y-94691183D01*
X150648240Y-94686963D01*
X150739105Y-94467594D01*
X150794535Y-94236711D01*
X150813165Y-94000000D01*
X150794535Y-93763289D01*
X150793380Y-93758476D01*
X150754630Y-93597070D01*
X150758177Y-93526162D01*
X150788054Y-93478561D01*
X151468837Y-92797778D01*
X151531149Y-92763752D01*
X151557932Y-92760873D01*
X152925144Y-92760873D01*
X152993265Y-92780875D01*
X153006805Y-92790918D01*
X153146150Y-92909509D01*
X153318794Y-93005997D01*
X153506892Y-93067113D01*
X153703277Y-93090531D01*
X153709412Y-93090059D01*
X153709414Y-93090059D01*
X153894330Y-93075830D01*
X153894334Y-93075829D01*
X153900472Y-93075357D01*
X154090963Y-93022171D01*
X154096467Y-93019391D01*
X154096469Y-93019390D01*
X154261995Y-92935777D01*
X154261997Y-92935776D01*
X154267496Y-92932998D01*
X154423347Y-92811234D01*
X154552578Y-92661518D01*
X154650269Y-92489552D01*
X154712697Y-92301886D01*
X154737485Y-92105668D01*
X154737880Y-92077373D01*
X154718580Y-91880540D01*
X154661416Y-91691204D01*
X154568566Y-91516577D01*
X154498209Y-91430311D01*
X154447460Y-91368086D01*
X154447457Y-91368083D01*
X154443565Y-91363311D01*
X154437023Y-91357899D01*
X154295925Y-91241172D01*
X154295921Y-91241170D01*
X154291175Y-91237243D01*
X154117201Y-91143175D01*
X153928268Y-91084691D01*
X153922143Y-91084047D01*
X153922142Y-91084047D01*
X153737704Y-91064662D01*
X153737702Y-91064662D01*
X153731575Y-91064018D01*
X153649076Y-91071526D01*
X153540751Y-91081384D01*
X153540748Y-91081385D01*
X153534612Y-91081943D01*
X153528706Y-91083681D01*
X153528702Y-91083682D01*
X153423576Y-91114622D01*
X153344881Y-91137783D01*
X153339423Y-91140636D01*
X153339419Y-91140638D01*
X153248647Y-91188093D01*
X153169610Y-91229413D01*
X153154985Y-91241172D01*
X153020285Y-91349473D01*
X153020281Y-91349477D01*
X153015475Y-91353341D01*
X153011626Y-91357928D01*
X152949015Y-91391268D01*
X152923525Y-91393873D01*
X151250672Y-91393873D01*
X151242103Y-91393581D01*
X151194169Y-91390313D01*
X151194165Y-91390313D01*
X151186593Y-91389797D01*
X151179116Y-91391102D01*
X151179113Y-91391102D01*
X151125980Y-91400375D01*
X151119456Y-91401338D01*
X151065936Y-91407815D01*
X151058392Y-91408728D01*
X151051282Y-91411415D01*
X151046379Y-91412619D01*
X151035893Y-91415487D01*
X151031101Y-91416934D01*
X151023623Y-91418239D01*
X151016671Y-91421291D01*
X151016670Y-91421291D01*
X150967286Y-91442968D01*
X150961181Y-91445459D01*
X150910745Y-91464518D01*
X150910742Y-91464520D01*
X150903638Y-91467204D01*
X150897381Y-91471504D01*
X150892913Y-91473840D01*
X150883467Y-91479098D01*
X150879101Y-91481680D01*
X150872142Y-91484735D01*
X150823323Y-91522196D01*
X150818004Y-91526059D01*
X150779306Y-91552656D01*
X150767301Y-91560907D01*
X150762250Y-91566576D01*
X150727395Y-91605696D01*
X150722414Y-91610971D01*
X149821439Y-92511946D01*
X149759127Y-92545972D01*
X149702930Y-92545370D01*
X149541524Y-92506620D01*
X149541518Y-92506619D01*
X149536711Y-92505465D01*
X149300000Y-92486835D01*
X149063289Y-92505465D01*
X149058482Y-92506619D01*
X149058476Y-92506620D01*
X148933023Y-92536739D01*
X148832406Y-92560895D01*
X148827835Y-92562788D01*
X148827833Y-92562789D01*
X148617611Y-92649865D01*
X148617607Y-92649867D01*
X148613037Y-92651760D01*
X148608817Y-92654346D01*
X148414798Y-92773241D01*
X148414792Y-92773245D01*
X148410584Y-92775824D01*
X148230031Y-92930031D01*
X148075824Y-93110584D01*
X148073245Y-93114792D01*
X148073241Y-93114798D01*
X147954346Y-93308817D01*
X147951760Y-93313037D01*
X147860895Y-93532406D01*
X147805465Y-93763289D01*
X147786835Y-94000000D01*
X145513165Y-94000000D01*
X145494535Y-93763289D01*
X145439105Y-93532406D01*
X145348240Y-93313037D01*
X145345654Y-93308817D01*
X145226759Y-93114798D01*
X145226755Y-93114792D01*
X145224176Y-93110584D01*
X145069969Y-92930031D01*
X144889416Y-92775824D01*
X144885201Y-92773241D01*
X144885193Y-92773235D01*
X144743665Y-92686506D01*
X144696034Y-92633859D01*
X144683500Y-92579074D01*
X144683500Y-80626695D01*
X154199751Y-80626695D01*
X154200048Y-80631848D01*
X154200048Y-80631851D01*
X154205448Y-80725500D01*
X154212610Y-80849715D01*
X154213747Y-80854761D01*
X154213748Y-80854767D01*
X154233619Y-80942939D01*
X154261722Y-81067639D01*
X154345766Y-81274616D01*
X154396519Y-81357438D01*
X154459791Y-81460688D01*
X154462487Y-81465088D01*
X154608750Y-81633938D01*
X154780626Y-81776632D01*
X154973500Y-81889338D01*
X155182192Y-81969030D01*
X155187260Y-81970061D01*
X155187263Y-81970062D01*
X155294517Y-81991883D01*
X155401097Y-82013567D01*
X155406272Y-82013757D01*
X155406274Y-82013757D01*
X155619173Y-82021564D01*
X155619177Y-82021564D01*
X155624337Y-82021753D01*
X155629457Y-82021097D01*
X155629459Y-82021097D01*
X155840788Y-81994025D01*
X155840789Y-81994025D01*
X155845916Y-81993368D01*
X155850866Y-81991883D01*
X156054929Y-81930661D01*
X156054934Y-81930659D01*
X156059884Y-81929174D01*
X156260494Y-81830896D01*
X156442360Y-81701173D01*
X156600596Y-81543489D01*
X156660094Y-81460689D01*
X156730953Y-81362077D01*
X156732276Y-81363028D01*
X156779145Y-81319857D01*
X156849080Y-81307625D01*
X156914526Y-81335144D01*
X156942375Y-81366994D01*
X157002487Y-81465088D01*
X157148750Y-81633938D01*
X157320626Y-81776632D01*
X157513500Y-81889338D01*
X157722192Y-81969030D01*
X157727260Y-81970061D01*
X157727263Y-81970062D01*
X157834517Y-81991883D01*
X157941097Y-82013567D01*
X157946272Y-82013757D01*
X157946274Y-82013757D01*
X158159173Y-82021564D01*
X158159177Y-82021564D01*
X158164337Y-82021753D01*
X158169457Y-82021097D01*
X158169459Y-82021097D01*
X158380788Y-81994025D01*
X158380789Y-81994025D01*
X158385916Y-81993368D01*
X158390866Y-81991883D01*
X158594929Y-81930661D01*
X158594934Y-81930659D01*
X158599884Y-81929174D01*
X158800494Y-81830896D01*
X158982360Y-81701173D01*
X159140596Y-81543489D01*
X159200094Y-81460689D01*
X159267935Y-81366277D01*
X159270953Y-81362077D01*
X159291820Y-81319857D01*
X159367636Y-81166453D01*
X159367637Y-81166451D01*
X159369930Y-81161811D01*
X159434870Y-80948069D01*
X159464029Y-80726590D01*
X159465656Y-80660000D01*
X159447352Y-80437361D01*
X159392931Y-80220702D01*
X159303854Y-80015840D01*
X159182514Y-79828277D01*
X159032170Y-79663051D01*
X159028119Y-79659852D01*
X159028115Y-79659848D01*
X158860914Y-79527800D01*
X158860910Y-79527798D01*
X158856859Y-79524598D01*
X158815069Y-79501529D01*
X158765098Y-79451097D01*
X158750326Y-79381654D01*
X158775442Y-79315248D01*
X158802793Y-79288642D01*
X158851747Y-79253723D01*
X158860148Y-79243023D01*
X158853160Y-79229870D01*
X158115312Y-78492022D01*
X158101368Y-78484408D01*
X158099535Y-78484539D01*
X158092920Y-78488790D01*
X157349237Y-79232473D01*
X157342477Y-79244853D01*
X157347758Y-79251907D01*
X157394469Y-79279203D01*
X157443193Y-79330841D01*
X157456264Y-79400624D01*
X157429533Y-79466396D01*
X157389084Y-79499752D01*
X157376107Y-79506507D01*
X157371974Y-79509610D01*
X157371971Y-79509612D01*
X157229707Y-79616427D01*
X157197465Y-79640635D01*
X157043129Y-79802138D01*
X156935701Y-79959621D01*
X156880793Y-80004621D01*
X156810268Y-80012792D01*
X156746521Y-79981538D01*
X156725824Y-79957054D01*
X156645322Y-79832617D01*
X156645320Y-79832614D01*
X156642514Y-79828277D01*
X156492170Y-79663051D01*
X156488119Y-79659852D01*
X156488115Y-79659848D01*
X156320914Y-79527800D01*
X156320910Y-79527798D01*
X156316859Y-79524598D01*
X156275069Y-79501529D01*
X156225098Y-79451097D01*
X156210326Y-79381654D01*
X156235442Y-79315248D01*
X156262793Y-79288642D01*
X156311747Y-79253723D01*
X156320148Y-79243023D01*
X156313160Y-79229870D01*
X155575312Y-78492022D01*
X155561368Y-78484408D01*
X155559535Y-78484539D01*
X155552920Y-78488790D01*
X154809237Y-79232473D01*
X154802477Y-79244853D01*
X154807758Y-79251907D01*
X154854469Y-79279203D01*
X154903193Y-79330841D01*
X154916264Y-79400624D01*
X154889533Y-79466396D01*
X154849084Y-79499752D01*
X154836107Y-79506507D01*
X154831974Y-79509610D01*
X154831971Y-79509612D01*
X154689707Y-79616427D01*
X154657465Y-79640635D01*
X154503129Y-79802138D01*
X154377243Y-79986680D01*
X154283188Y-80189305D01*
X154223489Y-80404570D01*
X154199751Y-80626695D01*
X144683500Y-80626695D01*
X144683500Y-78091863D01*
X154200550Y-78091863D01*
X154212809Y-78304477D01*
X154214245Y-78314697D01*
X154261065Y-78522446D01*
X154264145Y-78532275D01*
X154344270Y-78729603D01*
X154348913Y-78738794D01*
X154428960Y-78869420D01*
X154439416Y-78878880D01*
X154448194Y-78875096D01*
X155190478Y-78132812D01*
X155196856Y-78121132D01*
X155926908Y-78121132D01*
X155927039Y-78122965D01*
X155931290Y-78129580D01*
X156672974Y-78871264D01*
X156684984Y-78877823D01*
X156696723Y-78868855D01*
X156730522Y-78821819D01*
X156731649Y-78822629D01*
X156779159Y-78778881D01*
X156849096Y-78766661D01*
X156914538Y-78794191D01*
X156942370Y-78826029D01*
X156968959Y-78869419D01*
X156979416Y-78878880D01*
X156988194Y-78875096D01*
X157730478Y-78132812D01*
X157736856Y-78121132D01*
X158466908Y-78121132D01*
X158467039Y-78122965D01*
X158471290Y-78129580D01*
X159212974Y-78871264D01*
X159224984Y-78877823D01*
X159236723Y-78868855D01*
X159267504Y-78826019D01*
X159272815Y-78817180D01*
X159367170Y-78626267D01*
X159370969Y-78616672D01*
X159432876Y-78412915D01*
X159435055Y-78402834D01*
X159463090Y-78189887D01*
X159463609Y-78183212D01*
X159465072Y-78123364D01*
X159464878Y-78116646D01*
X159447281Y-77902604D01*
X159445596Y-77892424D01*
X159393714Y-77685875D01*
X159390394Y-77676124D01*
X159305472Y-77480814D01*
X159300605Y-77471739D01*
X159235563Y-77371197D01*
X159224877Y-77361995D01*
X159215312Y-77366398D01*
X158474522Y-78107188D01*
X158466908Y-78121132D01*
X157736856Y-78121132D01*
X157738092Y-78118868D01*
X157737961Y-78117035D01*
X157733710Y-78110420D01*
X156992349Y-77369059D01*
X156980813Y-77362759D01*
X156968528Y-77372384D01*
X156935692Y-77420520D01*
X156880781Y-77465523D01*
X156810256Y-77473694D01*
X156746509Y-77442440D01*
X156725811Y-77417955D01*
X156695562Y-77371197D01*
X156684877Y-77361995D01*
X156675312Y-77366398D01*
X155934522Y-78107188D01*
X155926908Y-78121132D01*
X155196856Y-78121132D01*
X155198092Y-78118868D01*
X155197961Y-78117035D01*
X155193710Y-78110420D01*
X154452349Y-77369059D01*
X154440813Y-77362759D01*
X154428531Y-77372382D01*
X154380589Y-77442662D01*
X154375504Y-77451613D01*
X154285838Y-77644783D01*
X154282275Y-77654470D01*
X154225364Y-77859681D01*
X154223433Y-77869800D01*
X154200802Y-78081574D01*
X154200550Y-78091863D01*
X144683500Y-78091863D01*
X144683500Y-76704853D01*
X154802477Y-76704853D01*
X154807758Y-76711907D01*
X154854979Y-76739501D01*
X154903703Y-76791139D01*
X154916774Y-76860922D01*
X154890043Y-76926694D01*
X154849587Y-76960053D01*
X154840966Y-76964541D01*
X154832234Y-76970039D01*
X154812177Y-76985099D01*
X154803723Y-76996427D01*
X154810468Y-77008758D01*
X155549688Y-77747978D01*
X155563632Y-77755592D01*
X155565465Y-77755461D01*
X155572080Y-77751210D01*
X156315889Y-77007401D01*
X156322910Y-76994544D01*
X156316111Y-76985213D01*
X156312059Y-76982521D01*
X156274616Y-76961852D01*
X156224645Y-76911420D01*
X156209873Y-76841977D01*
X156234989Y-76775572D01*
X156262340Y-76748965D01*
X156311747Y-76713723D01*
X156318711Y-76704853D01*
X157342477Y-76704853D01*
X157347758Y-76711907D01*
X157394979Y-76739501D01*
X157443703Y-76791139D01*
X157456774Y-76860922D01*
X157430043Y-76926694D01*
X157389587Y-76960053D01*
X157380966Y-76964541D01*
X157372234Y-76970039D01*
X157352177Y-76985099D01*
X157343723Y-76996427D01*
X157350468Y-77008758D01*
X158089688Y-77747978D01*
X158103632Y-77755592D01*
X158105465Y-77755461D01*
X158112080Y-77751210D01*
X158855889Y-77007401D01*
X158862910Y-76994544D01*
X158856111Y-76985213D01*
X158852059Y-76982521D01*
X158814616Y-76961852D01*
X158764645Y-76911420D01*
X158749873Y-76841977D01*
X158774989Y-76775572D01*
X158802340Y-76748965D01*
X158851747Y-76713723D01*
X158860148Y-76703023D01*
X158853160Y-76689870D01*
X158115312Y-75952022D01*
X158101368Y-75944408D01*
X158099535Y-75944539D01*
X158092920Y-75948790D01*
X157349237Y-76692473D01*
X157342477Y-76704853D01*
X156318711Y-76704853D01*
X156320148Y-76703023D01*
X156313160Y-76689870D01*
X155575312Y-75952022D01*
X155561368Y-75944408D01*
X155559535Y-75944539D01*
X155552920Y-75948790D01*
X154809237Y-76692473D01*
X154802477Y-76704853D01*
X144683500Y-76704853D01*
X144683500Y-75551863D01*
X154200550Y-75551863D01*
X154212809Y-75764477D01*
X154214245Y-75774697D01*
X154261065Y-75982446D01*
X154264145Y-75992275D01*
X154344270Y-76189603D01*
X154348913Y-76198794D01*
X154428960Y-76329420D01*
X154439416Y-76338880D01*
X154448194Y-76335096D01*
X155190478Y-75592812D01*
X155196856Y-75581132D01*
X155926908Y-75581132D01*
X155927039Y-75582965D01*
X155931290Y-75589580D01*
X156672974Y-76331264D01*
X156684984Y-76337823D01*
X156696723Y-76328855D01*
X156730522Y-76281819D01*
X156731649Y-76282629D01*
X156779159Y-76238881D01*
X156849096Y-76226661D01*
X156914538Y-76254191D01*
X156942370Y-76286029D01*
X156968959Y-76329419D01*
X156979416Y-76338880D01*
X156988194Y-76335096D01*
X157730478Y-75592812D01*
X157736856Y-75581132D01*
X158466908Y-75581132D01*
X158467039Y-75582965D01*
X158471290Y-75589580D01*
X159212974Y-76331264D01*
X159224984Y-76337823D01*
X159236723Y-76328855D01*
X159267504Y-76286019D01*
X159272815Y-76277180D01*
X159367170Y-76086267D01*
X159370969Y-76076672D01*
X159432876Y-75872915D01*
X159435055Y-75862834D01*
X159463090Y-75649887D01*
X159463609Y-75643212D01*
X159465072Y-75583364D01*
X159464878Y-75576646D01*
X159447281Y-75362604D01*
X159445596Y-75352424D01*
X159393714Y-75145875D01*
X159390394Y-75136124D01*
X159305472Y-74940814D01*
X159300605Y-74931739D01*
X159235563Y-74831197D01*
X159224877Y-74821995D01*
X159215312Y-74826398D01*
X158474522Y-75567188D01*
X158466908Y-75581132D01*
X157736856Y-75581132D01*
X157738092Y-75578868D01*
X157737961Y-75577035D01*
X157733710Y-75570420D01*
X156992349Y-74829059D01*
X156980813Y-74822759D01*
X156968528Y-74832384D01*
X156935692Y-74880520D01*
X156880781Y-74925523D01*
X156810256Y-74933694D01*
X156746509Y-74902440D01*
X156725811Y-74877955D01*
X156695562Y-74831197D01*
X156684877Y-74821995D01*
X156675312Y-74826398D01*
X155934522Y-75567188D01*
X155926908Y-75581132D01*
X155196856Y-75581132D01*
X155198092Y-75578868D01*
X155197961Y-75577035D01*
X155193710Y-75570420D01*
X154452349Y-74829059D01*
X154440813Y-74822759D01*
X154428531Y-74832382D01*
X154380589Y-74902662D01*
X154375504Y-74911613D01*
X154285838Y-75104783D01*
X154282275Y-75114470D01*
X154225364Y-75319681D01*
X154223433Y-75329800D01*
X154200802Y-75541574D01*
X154200550Y-75551863D01*
X144683500Y-75551863D01*
X144683500Y-74164853D01*
X154802477Y-74164853D01*
X154807758Y-74171907D01*
X154854979Y-74199501D01*
X154903703Y-74251139D01*
X154916774Y-74320922D01*
X154890043Y-74386694D01*
X154849587Y-74420053D01*
X154840966Y-74424541D01*
X154832234Y-74430039D01*
X154812177Y-74445099D01*
X154803723Y-74456427D01*
X154810468Y-74468758D01*
X155549688Y-75207978D01*
X155563632Y-75215592D01*
X155565465Y-75215461D01*
X155572080Y-75211210D01*
X156315889Y-74467401D01*
X156322910Y-74454544D01*
X156316111Y-74445213D01*
X156312059Y-74442521D01*
X156274616Y-74421852D01*
X156224645Y-74371420D01*
X156209873Y-74301977D01*
X156234989Y-74235572D01*
X156262340Y-74208965D01*
X156311747Y-74173723D01*
X156318711Y-74164853D01*
X157342477Y-74164853D01*
X157347758Y-74171907D01*
X157394979Y-74199501D01*
X157443703Y-74251139D01*
X157456774Y-74320922D01*
X157430043Y-74386694D01*
X157389587Y-74420053D01*
X157380966Y-74424541D01*
X157372234Y-74430039D01*
X157352177Y-74445099D01*
X157343723Y-74456427D01*
X157350468Y-74468758D01*
X158089688Y-75207978D01*
X158103632Y-75215592D01*
X158105465Y-75215461D01*
X158112080Y-75211210D01*
X158855889Y-74467401D01*
X158862910Y-74454544D01*
X158856111Y-74445213D01*
X158852059Y-74442521D01*
X158814616Y-74421852D01*
X158764645Y-74371420D01*
X158749873Y-74301977D01*
X158774989Y-74235572D01*
X158802340Y-74208965D01*
X158851747Y-74173723D01*
X158860148Y-74163023D01*
X158853160Y-74149870D01*
X158115312Y-73412022D01*
X158101368Y-73404408D01*
X158099535Y-73404539D01*
X158092920Y-73408790D01*
X157349237Y-74152473D01*
X157342477Y-74164853D01*
X156318711Y-74164853D01*
X156320148Y-74163023D01*
X156313160Y-74149870D01*
X155575312Y-73412022D01*
X155561368Y-73404408D01*
X155559535Y-73404539D01*
X155552920Y-73408790D01*
X154809237Y-74152473D01*
X154802477Y-74164853D01*
X144683500Y-74164853D01*
X144683500Y-73011863D01*
X154200550Y-73011863D01*
X154212809Y-73224477D01*
X154214245Y-73234697D01*
X154261065Y-73442446D01*
X154264145Y-73452275D01*
X154344270Y-73649603D01*
X154348913Y-73658794D01*
X154428960Y-73789420D01*
X154439416Y-73798880D01*
X154448194Y-73795096D01*
X155190478Y-73052812D01*
X155196856Y-73041132D01*
X155926908Y-73041132D01*
X155927039Y-73042965D01*
X155931290Y-73049580D01*
X156672974Y-73791264D01*
X156684984Y-73797823D01*
X156696723Y-73788855D01*
X156730522Y-73741819D01*
X156731649Y-73742629D01*
X156779159Y-73698881D01*
X156849096Y-73686661D01*
X156914538Y-73714191D01*
X156942370Y-73746029D01*
X156968959Y-73789419D01*
X156979416Y-73798880D01*
X156988194Y-73795096D01*
X157730478Y-73052812D01*
X157736856Y-73041132D01*
X158466908Y-73041132D01*
X158467039Y-73042965D01*
X158471290Y-73049580D01*
X159212974Y-73791264D01*
X159224984Y-73797823D01*
X159236723Y-73788855D01*
X159267504Y-73746019D01*
X159272815Y-73737180D01*
X159367170Y-73546267D01*
X159370969Y-73536672D01*
X159432876Y-73332915D01*
X159435055Y-73322834D01*
X159463090Y-73109887D01*
X159463609Y-73103212D01*
X159465072Y-73043364D01*
X159464878Y-73036646D01*
X159447281Y-72822604D01*
X159445596Y-72812424D01*
X159393714Y-72605875D01*
X159390394Y-72596124D01*
X159305472Y-72400814D01*
X159300605Y-72391739D01*
X159235563Y-72291197D01*
X159224877Y-72281995D01*
X159215312Y-72286398D01*
X158474522Y-73027188D01*
X158466908Y-73041132D01*
X157736856Y-73041132D01*
X157738092Y-73038868D01*
X157737961Y-73037035D01*
X157733710Y-73030420D01*
X156992349Y-72289059D01*
X156980813Y-72282759D01*
X156968528Y-72292384D01*
X156935692Y-72340520D01*
X156880781Y-72385523D01*
X156810256Y-72393694D01*
X156746509Y-72362440D01*
X156725811Y-72337955D01*
X156695562Y-72291197D01*
X156684877Y-72281995D01*
X156675312Y-72286398D01*
X155934522Y-73027188D01*
X155926908Y-73041132D01*
X155196856Y-73041132D01*
X155198092Y-73038868D01*
X155197961Y-73037035D01*
X155193710Y-73030420D01*
X154452349Y-72289059D01*
X154440813Y-72282759D01*
X154428531Y-72292382D01*
X154380589Y-72362662D01*
X154375504Y-72371613D01*
X154285838Y-72564783D01*
X154282275Y-72574470D01*
X154225364Y-72779681D01*
X154223433Y-72789800D01*
X154200802Y-73001574D01*
X154200550Y-73011863D01*
X144683500Y-73011863D01*
X144683500Y-71398134D01*
X154204000Y-71398134D01*
X154210755Y-71460316D01*
X154261885Y-71596705D01*
X154349239Y-71713261D01*
X154465795Y-71800615D01*
X154602184Y-71851745D01*
X154664366Y-71858500D01*
X154697340Y-71858500D01*
X154765461Y-71878502D01*
X154807884Y-71924035D01*
X154810467Y-71928757D01*
X155549688Y-72667978D01*
X155563632Y-72675592D01*
X155565465Y-72675461D01*
X155572080Y-72671210D01*
X156315890Y-71927400D01*
X156317686Y-71924111D01*
X156367890Y-71873911D01*
X156428272Y-71858500D01*
X156460634Y-71858500D01*
X156522816Y-71851745D01*
X156659205Y-71800615D01*
X156775761Y-71713261D01*
X156863115Y-71596705D01*
X156886165Y-71535219D01*
X156907098Y-71479382D01*
X156949740Y-71422618D01*
X157016302Y-71397918D01*
X157085650Y-71413126D01*
X157120317Y-71441114D01*
X157148750Y-71473938D01*
X157320626Y-71616632D01*
X157394455Y-71659774D01*
X157443179Y-71711412D01*
X157456250Y-71781195D01*
X157429519Y-71846967D01*
X157389062Y-71880327D01*
X157380960Y-71884544D01*
X157372234Y-71890039D01*
X157352177Y-71905099D01*
X157343723Y-71916427D01*
X157350468Y-71928758D01*
X158089688Y-72667978D01*
X158103632Y-72675592D01*
X158105465Y-72675461D01*
X158112080Y-72671210D01*
X158855889Y-71927401D01*
X158862910Y-71914544D01*
X158856111Y-71905213D01*
X158852059Y-71902521D01*
X158815102Y-71882120D01*
X158765131Y-71831687D01*
X158750359Y-71762245D01*
X158775475Y-71695839D01*
X158802827Y-71669232D01*
X158826297Y-71652491D01*
X158982360Y-71541173D01*
X159140596Y-71383489D01*
X159270953Y-71202077D01*
X159326228Y-71090237D01*
X159367636Y-71006453D01*
X159367637Y-71006451D01*
X159369930Y-71001811D01*
X159434870Y-70788069D01*
X159464029Y-70566590D01*
X159464979Y-70527697D01*
X159465574Y-70503365D01*
X159465574Y-70503361D01*
X159465656Y-70500000D01*
X159447352Y-70277361D01*
X159392931Y-70060702D01*
X159303854Y-69855840D01*
X159231095Y-69743372D01*
X159185322Y-69672617D01*
X159185320Y-69672614D01*
X159182514Y-69668277D01*
X159032170Y-69503051D01*
X159028119Y-69499852D01*
X159028115Y-69499848D01*
X158860914Y-69367800D01*
X158860910Y-69367798D01*
X158856859Y-69364598D01*
X158661289Y-69256638D01*
X158656420Y-69254914D01*
X158656416Y-69254912D01*
X158455587Y-69183795D01*
X158455583Y-69183794D01*
X158450712Y-69182069D01*
X158445619Y-69181162D01*
X158445616Y-69181161D01*
X158235873Y-69143800D01*
X158235867Y-69143799D01*
X158230784Y-69142894D01*
X158156952Y-69141992D01*
X158012581Y-69140228D01*
X158012579Y-69140228D01*
X158007411Y-69140165D01*
X157786591Y-69173955D01*
X157574256Y-69243357D01*
X157376107Y-69346507D01*
X157371974Y-69349610D01*
X157371971Y-69349612D01*
X157201600Y-69477530D01*
X157197465Y-69480635D01*
X157141037Y-69539684D01*
X157116783Y-69565064D01*
X157055259Y-69600494D01*
X156984346Y-69597037D01*
X156926560Y-69555791D01*
X156907707Y-69522243D01*
X156866267Y-69411703D01*
X156863115Y-69403295D01*
X156775761Y-69286739D01*
X156659205Y-69199385D01*
X156522816Y-69148255D01*
X156460634Y-69141500D01*
X154664366Y-69141500D01*
X154602184Y-69148255D01*
X154465795Y-69199385D01*
X154349239Y-69286739D01*
X154261885Y-69403295D01*
X154210755Y-69539684D01*
X154204000Y-69601866D01*
X154204000Y-71398134D01*
X144683500Y-71398134D01*
X144683500Y-68435305D01*
X144703502Y-68367184D01*
X144720405Y-68346210D01*
X153318388Y-59748227D01*
X153380700Y-59714201D01*
X153397816Y-59711693D01*
X153569830Y-59698457D01*
X153569834Y-59698456D01*
X153575972Y-59697984D01*
X153766463Y-59644798D01*
X153771967Y-59642018D01*
X153771969Y-59642017D01*
X153937495Y-59558404D01*
X153937497Y-59558403D01*
X153942996Y-59555625D01*
X154098847Y-59433861D01*
X154228078Y-59284145D01*
X154325769Y-59112179D01*
X154388197Y-58924513D01*
X154412985Y-58728295D01*
X154413380Y-58700000D01*
X154394080Y-58503167D01*
X154336916Y-58313831D01*
X154244066Y-58139204D01*
X154173709Y-58052938D01*
X154122960Y-57990713D01*
X154122957Y-57990710D01*
X154119065Y-57985938D01*
X154112724Y-57980692D01*
X153971425Y-57863799D01*
X153971421Y-57863797D01*
X153966675Y-57859870D01*
X153792701Y-57765802D01*
X153603768Y-57707318D01*
X153597643Y-57706674D01*
X153597642Y-57706674D01*
X153413204Y-57687289D01*
X153413202Y-57687289D01*
X153407075Y-57686645D01*
X153324576Y-57694153D01*
X153216251Y-57704011D01*
X153216248Y-57704012D01*
X153210112Y-57704570D01*
X153204206Y-57706308D01*
X153204202Y-57706309D01*
X153099076Y-57737249D01*
X153020381Y-57760410D01*
X153014923Y-57763263D01*
X153014919Y-57763265D01*
X152924147Y-57810720D01*
X152845110Y-57852040D01*
X152690975Y-57975968D01*
X152563846Y-58127474D01*
X152560879Y-58132872D01*
X152560875Y-58132877D01*
X152557397Y-58139204D01*
X152468567Y-58300787D01*
X152466706Y-58306654D01*
X152466705Y-58306656D01*
X152410627Y-58483436D01*
X152408765Y-58489306D01*
X152386719Y-58685851D01*
X152387235Y-58691992D01*
X152387182Y-58695761D01*
X152366230Y-58763595D01*
X152350289Y-58783096D01*
X143536541Y-67596844D01*
X143530276Y-67602698D01*
X143488330Y-67639290D01*
X143452934Y-67689655D01*
X143449022Y-67694920D01*
X143411065Y-67743328D01*
X143407939Y-67750252D01*
X143405329Y-67754561D01*
X143399958Y-67763976D01*
X143397573Y-67768424D01*
X143393205Y-67774639D01*
X143390446Y-67781716D01*
X143370858Y-67831957D01*
X143368306Y-67838029D01*
X143342986Y-67894105D01*
X143341600Y-67901582D01*
X143340090Y-67906402D01*
X143337118Y-67916835D01*
X143335870Y-67921696D01*
X143333111Y-67928772D01*
X143332120Y-67936302D01*
X143325082Y-67989762D01*
X143324050Y-67996278D01*
X143312839Y-68056767D01*
X143313276Y-68064347D01*
X143313276Y-68064348D01*
X143316291Y-68116642D01*
X143316500Y-68123894D01*
X143316500Y-92579074D01*
X143296498Y-92647195D01*
X143256335Y-92686506D01*
X143114807Y-92773235D01*
X143114799Y-92773241D01*
X143110584Y-92775824D01*
X142930031Y-92930031D01*
X142775824Y-93110584D01*
X142773245Y-93114792D01*
X142773241Y-93114798D01*
X142654346Y-93308817D01*
X142651760Y-93313037D01*
X142560895Y-93532406D01*
X142505465Y-93763289D01*
X142486835Y-94000000D01*
X142505465Y-94236711D01*
X142560895Y-94467594D01*
X142651760Y-94686963D01*
X142654346Y-94691183D01*
X142773241Y-94885202D01*
X142773245Y-94885208D01*
X142775824Y-94889416D01*
X142830891Y-94953891D01*
X142918170Y-95056081D01*
X142930031Y-95069969D01*
X143110584Y-95224176D01*
X143114797Y-95226758D01*
X143114807Y-95226765D01*
X143256335Y-95313494D01*
X143303966Y-95366141D01*
X143316500Y-95420926D01*
X143316500Y-119599689D01*
X143296498Y-119667810D01*
X143287028Y-119680672D01*
X143163846Y-119827474D01*
X143160879Y-119832872D01*
X143160875Y-119832877D01*
X143111599Y-119922512D01*
X143068567Y-120000787D01*
X143066706Y-120006654D01*
X143066705Y-120006656D01*
X143052904Y-120050163D01*
X143008765Y-120189306D01*
X142986719Y-120385851D01*
X143003268Y-120582934D01*
X143057783Y-120773050D01*
X143148187Y-120948956D01*
X143271035Y-121103953D01*
X143275729Y-121107948D01*
X143280009Y-121112380D01*
X143278200Y-121114126D01*
X143311076Y-121164296D01*
X143316500Y-121200867D01*
X143316500Y-126564695D01*
X143296498Y-126632816D01*
X143279595Y-126653790D01*
X142377050Y-127556335D01*
X142314738Y-127590361D01*
X142307654Y-127591500D01*
X142304513Y-127591500D01*
X142298060Y-127592872D01*
X142298057Y-127592872D01*
X142235487Y-127606172D01*
X142117712Y-127631206D01*
X142111682Y-127633891D01*
X142111681Y-127633891D01*
X141949278Y-127706197D01*
X141949276Y-127706198D01*
X141943248Y-127708882D01*
X141937907Y-127712762D01*
X141937906Y-127712763D01*
X141913149Y-127730750D01*
X141788747Y-127821134D01*
X141784326Y-127826044D01*
X141784325Y-127826045D01*
X141665448Y-127958072D01*
X141660960Y-127963056D01*
X141565473Y-128128444D01*
X141565034Y-128129794D01*
X141520303Y-128182422D01*
X141452376Y-128203073D01*
X141384067Y-128183722D01*
X141362079Y-128166174D01*
X139447122Y-126251217D01*
X139413096Y-126188905D01*
X139410907Y-126175292D01*
X139394232Y-126016635D01*
X139394232Y-126016633D01*
X139393542Y-126010072D01*
X139334527Y-125828444D01*
X139239040Y-125663056D01*
X139111253Y-125521134D01*
X138956752Y-125408882D01*
X138950724Y-125406198D01*
X138950722Y-125406197D01*
X138788319Y-125333891D01*
X138788318Y-125333891D01*
X138782288Y-125331206D01*
X138688888Y-125311353D01*
X138601944Y-125292872D01*
X138601939Y-125292872D01*
X138595487Y-125291500D01*
X138539594Y-125291500D01*
X138471473Y-125271498D01*
X138450499Y-125254595D01*
X135070405Y-121874500D01*
X135036379Y-121812188D01*
X135033500Y-121785405D01*
X135033500Y-108307655D01*
X135789858Y-108307655D01*
X135825104Y-108566638D01*
X135826412Y-108571124D01*
X135826412Y-108571126D01*
X135846098Y-108638664D01*
X135898243Y-108817567D01*
X136007668Y-109054928D01*
X136010231Y-109058837D01*
X136148410Y-109269596D01*
X136148414Y-109269601D01*
X136150976Y-109273509D01*
X136325018Y-109468506D01*
X136525970Y-109635637D01*
X136529973Y-109638066D01*
X136745422Y-109768804D01*
X136745426Y-109768806D01*
X136749419Y-109771229D01*
X136990455Y-109872303D01*
X137243783Y-109936641D01*
X137248434Y-109937109D01*
X137248438Y-109937110D01*
X137441308Y-109956531D01*
X137460867Y-109958500D01*
X139716354Y-109958500D01*
X139718679Y-109958327D01*
X139718685Y-109958327D01*
X139906000Y-109944407D01*
X139906004Y-109944406D01*
X139910652Y-109944061D01*
X139915200Y-109943032D01*
X139915206Y-109943031D01*
X140101601Y-109900853D01*
X140165577Y-109886377D01*
X140201769Y-109872303D01*
X140404824Y-109793340D01*
X140404827Y-109793339D01*
X140409177Y-109791647D01*
X140636098Y-109661951D01*
X140841357Y-109500138D01*
X141020443Y-109309763D01*
X141169424Y-109095009D01*
X141285025Y-108860593D01*
X141364707Y-108611665D01*
X141406721Y-108353693D01*
X141410142Y-108092345D01*
X141374896Y-107833362D01*
X141360473Y-107783877D01*
X141303068Y-107586932D01*
X141301757Y-107582433D01*
X141192332Y-107345072D01*
X141099295Y-107203167D01*
X141051590Y-107130404D01*
X141051586Y-107130399D01*
X141049024Y-107126491D01*
X140874982Y-106931494D01*
X140674030Y-106764363D01*
X140626844Y-106735730D01*
X140454578Y-106631196D01*
X140454574Y-106631194D01*
X140450581Y-106628771D01*
X140209545Y-106527697D01*
X139956217Y-106463359D01*
X139951566Y-106462891D01*
X139951562Y-106462890D01*
X139742271Y-106441816D01*
X139739133Y-106441500D01*
X137483646Y-106441500D01*
X137481321Y-106441673D01*
X137481315Y-106441673D01*
X137294000Y-106455593D01*
X137293996Y-106455594D01*
X137289348Y-106455939D01*
X137284800Y-106456968D01*
X137284794Y-106456969D01*
X137098399Y-106499147D01*
X137034423Y-106513623D01*
X137030071Y-106515315D01*
X137030069Y-106515316D01*
X136795176Y-106606660D01*
X136795173Y-106606661D01*
X136790823Y-106608353D01*
X136563902Y-106738049D01*
X136358643Y-106899862D01*
X136179557Y-107090237D01*
X136030576Y-107304991D01*
X135914975Y-107539407D01*
X135913553Y-107543850D01*
X135913552Y-107543852D01*
X135840186Y-107773050D01*
X135835293Y-107788335D01*
X135793279Y-108046307D01*
X135792133Y-108133861D01*
X135790847Y-108232136D01*
X135789858Y-108307655D01*
X135033500Y-108307655D01*
X135033500Y-101363699D01*
X138841500Y-101363699D01*
X138841501Y-104636300D01*
X138852793Y-104775144D01*
X138907552Y-104988415D01*
X138999212Y-105188619D01*
X139002412Y-105193223D01*
X139002413Y-105193225D01*
X139121451Y-105364496D01*
X139124877Y-105369426D01*
X139280574Y-105525123D01*
X139285180Y-105528324D01*
X139285182Y-105528326D01*
X139423576Y-105624513D01*
X139461381Y-105650788D01*
X139586373Y-105708014D01*
X139656480Y-105740111D01*
X139656482Y-105740112D01*
X139661585Y-105742448D01*
X139667026Y-105743845D01*
X139869652Y-105795871D01*
X139869654Y-105795871D01*
X139874856Y-105797207D01*
X139950679Y-105803374D01*
X140011149Y-105808293D01*
X140011159Y-105808293D01*
X140013699Y-105808500D01*
X140800000Y-105808500D01*
X141586300Y-105808499D01*
X141588839Y-105808292D01*
X141588851Y-105808292D01*
X141664550Y-105802135D01*
X141725144Y-105797207D01*
X141938415Y-105742448D01*
X141943518Y-105740112D01*
X141943520Y-105740111D01*
X142013627Y-105708014D01*
X142138619Y-105650788D01*
X142176424Y-105624513D01*
X142314818Y-105528326D01*
X142314820Y-105528324D01*
X142319426Y-105525123D01*
X142475123Y-105369426D01*
X142478550Y-105364496D01*
X142597587Y-105193225D01*
X142597588Y-105193223D01*
X142600788Y-105188619D01*
X142692448Y-104988415D01*
X142747207Y-104775144D01*
X142758500Y-104636301D01*
X142758499Y-101363700D01*
X142747207Y-101224856D01*
X142692448Y-101011585D01*
X142600788Y-100811381D01*
X142592878Y-100800000D01*
X142478326Y-100635182D01*
X142478324Y-100635180D01*
X142475123Y-100630574D01*
X142319426Y-100474877D01*
X142138619Y-100349212D01*
X141944553Y-100260362D01*
X141943520Y-100259889D01*
X141943518Y-100259888D01*
X141938415Y-100257552D01*
X141806649Y-100223720D01*
X141730348Y-100204129D01*
X141730346Y-100204129D01*
X141725144Y-100202793D01*
X141647467Y-100196475D01*
X141588851Y-100191707D01*
X141588841Y-100191707D01*
X141586301Y-100191500D01*
X141583746Y-100191500D01*
X140800001Y-100191501D01*
X140013700Y-100191501D01*
X140011161Y-100191708D01*
X140011149Y-100191708D01*
X139936358Y-100197791D01*
X139874856Y-100202793D01*
X139661585Y-100257552D01*
X139656482Y-100259888D01*
X139656480Y-100259889D01*
X139655447Y-100260362D01*
X139461381Y-100349212D01*
X139280574Y-100474877D01*
X139124877Y-100630574D01*
X139121676Y-100635180D01*
X139121674Y-100635182D01*
X139007122Y-100800000D01*
X138999212Y-100811381D01*
X138907552Y-101011585D01*
X138852793Y-101224856D01*
X138841500Y-101363699D01*
X135033500Y-101363699D01*
X135033500Y-90307655D01*
X135789858Y-90307655D01*
X135825104Y-90566638D01*
X135826412Y-90571124D01*
X135826412Y-90571126D01*
X135846098Y-90638664D01*
X135898243Y-90817567D01*
X136007668Y-91054928D01*
X136028376Y-91086513D01*
X136148410Y-91269596D01*
X136148414Y-91269601D01*
X136150976Y-91273509D01*
X136325018Y-91468506D01*
X136525970Y-91635637D01*
X136529973Y-91638066D01*
X136745422Y-91768804D01*
X136745426Y-91768806D01*
X136749419Y-91771229D01*
X136990455Y-91872303D01*
X137243783Y-91936641D01*
X137248434Y-91937109D01*
X137248438Y-91937110D01*
X137441308Y-91956531D01*
X137460867Y-91958500D01*
X139716354Y-91958500D01*
X139718679Y-91958327D01*
X139718685Y-91958327D01*
X139906000Y-91944407D01*
X139906004Y-91944406D01*
X139910652Y-91944061D01*
X139915200Y-91943032D01*
X139915206Y-91943031D01*
X140101601Y-91900853D01*
X140165577Y-91886377D01*
X140201769Y-91872303D01*
X140404824Y-91793340D01*
X140404827Y-91793339D01*
X140409177Y-91791647D01*
X140636098Y-91661951D01*
X140841357Y-91500138D01*
X141020443Y-91309763D01*
X141137770Y-91140638D01*
X141166759Y-91098851D01*
X141166761Y-91098848D01*
X141169424Y-91095009D01*
X141173614Y-91086513D01*
X141282960Y-90864781D01*
X141282961Y-90864778D01*
X141285025Y-90860593D01*
X141364707Y-90611665D01*
X141406721Y-90353693D01*
X141410142Y-90092345D01*
X141374896Y-89833362D01*
X141360473Y-89783877D01*
X141303068Y-89586932D01*
X141301757Y-89582433D01*
X141192332Y-89345072D01*
X141159519Y-89295024D01*
X141051590Y-89130404D01*
X141051586Y-89130399D01*
X141049024Y-89126491D01*
X140874982Y-88931494D01*
X140674030Y-88764363D01*
X140626844Y-88735730D01*
X140454578Y-88631196D01*
X140454574Y-88631194D01*
X140450581Y-88628771D01*
X140209545Y-88527697D01*
X139956217Y-88463359D01*
X139951566Y-88462891D01*
X139951562Y-88462890D01*
X139742271Y-88441816D01*
X139739133Y-88441500D01*
X137483646Y-88441500D01*
X137481321Y-88441673D01*
X137481315Y-88441673D01*
X137294000Y-88455593D01*
X137293996Y-88455594D01*
X137289348Y-88455939D01*
X137284800Y-88456968D01*
X137284794Y-88456969D01*
X137098399Y-88499147D01*
X137034423Y-88513623D01*
X137030071Y-88515315D01*
X137030069Y-88515316D01*
X136795176Y-88606660D01*
X136795173Y-88606661D01*
X136790823Y-88608353D01*
X136563902Y-88738049D01*
X136358643Y-88899862D01*
X136179557Y-89090237D01*
X136030576Y-89304991D01*
X135914975Y-89539407D01*
X135835293Y-89788335D01*
X135793279Y-90046307D01*
X135789858Y-90307655D01*
X135033500Y-90307655D01*
X135033500Y-83363699D01*
X138841500Y-83363699D01*
X138841501Y-86636300D01*
X138852793Y-86775144D01*
X138907552Y-86988415D01*
X138999212Y-87188619D01*
X139002412Y-87193223D01*
X139002413Y-87193225D01*
X139121451Y-87364496D01*
X139124877Y-87369426D01*
X139280574Y-87525123D01*
X139461381Y-87650788D01*
X139586373Y-87708014D01*
X139656480Y-87740111D01*
X139656482Y-87740112D01*
X139661585Y-87742448D01*
X139667026Y-87743845D01*
X139869652Y-87795871D01*
X139869654Y-87795871D01*
X139874856Y-87797207D01*
X139950679Y-87803374D01*
X140011149Y-87808293D01*
X140011159Y-87808293D01*
X140013699Y-87808500D01*
X140800000Y-87808500D01*
X141586300Y-87808499D01*
X141588839Y-87808292D01*
X141588851Y-87808292D01*
X141664550Y-87802135D01*
X141725144Y-87797207D01*
X141938415Y-87742448D01*
X141943518Y-87740112D01*
X141943520Y-87740111D01*
X142013627Y-87708014D01*
X142138619Y-87650788D01*
X142319426Y-87525123D01*
X142475123Y-87369426D01*
X142478550Y-87364496D01*
X142597587Y-87193225D01*
X142597588Y-87193223D01*
X142600788Y-87188619D01*
X142692448Y-86988415D01*
X142747207Y-86775144D01*
X142758500Y-86636301D01*
X142758499Y-83363700D01*
X142747207Y-83224856D01*
X142692448Y-83011585D01*
X142600788Y-82811381D01*
X142597587Y-82806775D01*
X142478326Y-82635182D01*
X142478324Y-82635180D01*
X142475123Y-82630574D01*
X142319426Y-82474877D01*
X142138619Y-82349212D01*
X141944553Y-82260362D01*
X141943520Y-82259889D01*
X141943518Y-82259888D01*
X141938415Y-82257552D01*
X141806649Y-82223720D01*
X141730348Y-82204129D01*
X141730346Y-82204129D01*
X141725144Y-82202793D01*
X141647467Y-82196475D01*
X141588851Y-82191707D01*
X141588841Y-82191707D01*
X141586301Y-82191500D01*
X141583746Y-82191500D01*
X140800001Y-82191501D01*
X140013700Y-82191501D01*
X140011161Y-82191708D01*
X140011149Y-82191708D01*
X139936358Y-82197791D01*
X139874856Y-82202793D01*
X139661585Y-82257552D01*
X139656482Y-82259888D01*
X139656480Y-82259889D01*
X139655447Y-82260362D01*
X139461381Y-82349212D01*
X139280574Y-82474877D01*
X139124877Y-82630574D01*
X139121676Y-82635180D01*
X139121674Y-82635182D01*
X139002413Y-82806775D01*
X138999212Y-82811381D01*
X138907552Y-83011585D01*
X138852793Y-83224856D01*
X138841500Y-83363699D01*
X135033500Y-83363699D01*
X135033500Y-80578768D01*
X135034027Y-80567585D01*
X135035702Y-80560092D01*
X135033562Y-80492001D01*
X135033500Y-80488044D01*
X135033500Y-80460144D01*
X135032996Y-80456153D01*
X135032063Y-80444311D01*
X135030923Y-80408036D01*
X135030674Y-80400111D01*
X135028462Y-80392497D01*
X135028461Y-80392492D01*
X135025023Y-80380659D01*
X135021012Y-80361295D01*
X135019467Y-80349064D01*
X135018474Y-80341203D01*
X135015557Y-80333836D01*
X135015556Y-80333831D01*
X135002198Y-80300092D01*
X134998354Y-80288865D01*
X134988230Y-80254022D01*
X134986018Y-80246407D01*
X134975707Y-80228972D01*
X134967012Y-80211224D01*
X134959552Y-80192383D01*
X134933564Y-80156613D01*
X134927048Y-80146693D01*
X134908580Y-80115465D01*
X134908578Y-80115462D01*
X134904542Y-80108638D01*
X134890221Y-80094317D01*
X134877380Y-80079283D01*
X134870131Y-80069306D01*
X134865472Y-80062893D01*
X134831395Y-80034702D01*
X134822616Y-80026712D01*
X131145405Y-76349500D01*
X131111379Y-76287188D01*
X131108500Y-76260405D01*
X131108500Y-74851866D01*
X131101745Y-74789684D01*
X131050615Y-74653295D01*
X130963261Y-74536739D01*
X130846705Y-74449385D01*
X130710316Y-74398255D01*
X130648134Y-74391500D01*
X128751866Y-74391500D01*
X128689684Y-74398255D01*
X128553295Y-74449385D01*
X128436739Y-74536739D01*
X128349385Y-74653295D01*
X128298255Y-74789684D01*
X128291500Y-74851866D01*
X128291500Y-76748134D01*
X128298255Y-76810316D01*
X128349385Y-76946705D01*
X128436739Y-77063261D01*
X128553295Y-77150615D01*
X128561704Y-77153767D01*
X128561705Y-77153768D01*
X128621164Y-77176058D01*
X128677929Y-77218699D01*
X128702629Y-77285261D01*
X128687422Y-77354609D01*
X128668029Y-77381091D01*
X128601639Y-77450564D01*
X128471119Y-77641899D01*
X128373602Y-77851981D01*
X128311707Y-78075169D01*
X128287095Y-78305469D01*
X126108000Y-78305469D01*
X126108000Y-72307655D01*
X135789858Y-72307655D01*
X135825104Y-72566638D01*
X135826412Y-72571124D01*
X135826412Y-72571126D01*
X135846098Y-72638664D01*
X135898243Y-72817567D01*
X136007668Y-73054928D01*
X136010231Y-73058837D01*
X136148410Y-73269596D01*
X136148414Y-73269601D01*
X136150976Y-73273509D01*
X136325018Y-73468506D01*
X136525970Y-73635637D01*
X136529973Y-73638066D01*
X136745422Y-73768804D01*
X136745426Y-73768806D01*
X136749419Y-73771229D01*
X136990455Y-73872303D01*
X137243783Y-73936641D01*
X137248434Y-73937109D01*
X137248438Y-73937110D01*
X137441308Y-73956531D01*
X137460867Y-73958500D01*
X139716354Y-73958500D01*
X139718679Y-73958327D01*
X139718685Y-73958327D01*
X139906000Y-73944407D01*
X139906004Y-73944406D01*
X139910652Y-73944061D01*
X139915200Y-73943032D01*
X139915206Y-73943031D01*
X140101601Y-73900853D01*
X140165577Y-73886377D01*
X140201769Y-73872303D01*
X140404824Y-73793340D01*
X140404827Y-73793339D01*
X140409177Y-73791647D01*
X140636098Y-73661951D01*
X140841357Y-73500138D01*
X141020443Y-73309763D01*
X141159103Y-73109887D01*
X141166759Y-73098851D01*
X141166761Y-73098848D01*
X141169424Y-73095009D01*
X141191827Y-73049580D01*
X141282960Y-72864781D01*
X141282961Y-72864778D01*
X141285025Y-72860593D01*
X141364707Y-72611665D01*
X141406721Y-72353693D01*
X141410142Y-72092345D01*
X141374896Y-71833362D01*
X141360473Y-71783877D01*
X141334812Y-71695839D01*
X141301757Y-71582433D01*
X141192332Y-71345072D01*
X141101334Y-71206277D01*
X141051590Y-71130404D01*
X141051586Y-71130399D01*
X141049024Y-71126491D01*
X140874982Y-70931494D01*
X140674030Y-70764363D01*
X140626844Y-70735730D01*
X140454578Y-70631196D01*
X140454574Y-70631194D01*
X140450581Y-70628771D01*
X140209545Y-70527697D01*
X139956217Y-70463359D01*
X139951566Y-70462891D01*
X139951562Y-70462890D01*
X139742271Y-70441816D01*
X139739133Y-70441500D01*
X137483646Y-70441500D01*
X137481321Y-70441673D01*
X137481315Y-70441673D01*
X137294000Y-70455593D01*
X137293996Y-70455594D01*
X137289348Y-70455939D01*
X137284800Y-70456968D01*
X137284794Y-70456969D01*
X137109450Y-70496646D01*
X137034423Y-70513623D01*
X137030071Y-70515315D01*
X137030069Y-70515316D01*
X136795176Y-70606660D01*
X136795173Y-70606661D01*
X136790823Y-70608353D01*
X136563902Y-70738049D01*
X136358643Y-70899862D01*
X136179557Y-71090237D01*
X136030576Y-71304991D01*
X136028510Y-71309181D01*
X136028508Y-71309184D01*
X135947261Y-71473938D01*
X135914975Y-71539407D01*
X135913553Y-71543850D01*
X135913552Y-71543852D01*
X135859916Y-71711412D01*
X135835293Y-71788335D01*
X135793279Y-72046307D01*
X135789858Y-72307655D01*
X126108000Y-72307655D01*
X126108000Y-69776280D01*
X126128002Y-69708159D01*
X126181658Y-69661666D01*
X126251932Y-69651562D01*
X126286451Y-69661716D01*
X126456647Y-69739638D01*
X126467193Y-69743372D01*
X126669734Y-69795376D01*
X126680290Y-69797147D01*
X126811171Y-69807793D01*
X126816277Y-69808000D01*
X127327885Y-69808000D01*
X127343124Y-69803525D01*
X127344329Y-69802135D01*
X127346000Y-69794452D01*
X127346000Y-69789885D01*
X127854000Y-69789885D01*
X127858475Y-69805124D01*
X127859865Y-69806329D01*
X127867548Y-69808000D01*
X128383723Y-69808000D01*
X128388829Y-69807793D01*
X128519710Y-69797147D01*
X128530266Y-69795376D01*
X128732807Y-69743372D01*
X128743353Y-69739638D01*
X128933269Y-69652687D01*
X128942976Y-69647151D01*
X129114496Y-69527941D01*
X129123075Y-69520767D01*
X129270767Y-69373075D01*
X129277941Y-69364496D01*
X129397151Y-69192976D01*
X129402687Y-69183269D01*
X129489638Y-68993353D01*
X129493372Y-68982807D01*
X129545376Y-68780266D01*
X129547147Y-68769710D01*
X129557793Y-68638829D01*
X129558000Y-68633723D01*
X129558000Y-67272115D01*
X129553525Y-67256876D01*
X129552135Y-67255671D01*
X129544452Y-67254000D01*
X127872115Y-67254000D01*
X127856876Y-67258475D01*
X127855671Y-67259865D01*
X127854000Y-67267548D01*
X127854000Y-69789885D01*
X127346000Y-69789885D01*
X127346000Y-66727885D01*
X127854000Y-66727885D01*
X127858475Y-66743124D01*
X127859865Y-66744329D01*
X127867548Y-66746000D01*
X129539885Y-66746000D01*
X129555124Y-66741525D01*
X129556329Y-66740135D01*
X129558000Y-66732452D01*
X129558000Y-65366277D01*
X129557895Y-65363699D01*
X138841500Y-65363699D01*
X138841501Y-68636300D01*
X138852793Y-68775144D01*
X138907552Y-68988415D01*
X138999212Y-69188619D01*
X139002412Y-69193223D01*
X139002413Y-69193225D01*
X139121451Y-69364496D01*
X139124877Y-69369426D01*
X139280574Y-69525123D01*
X139285180Y-69528324D01*
X139285182Y-69528326D01*
X139390992Y-69601866D01*
X139461381Y-69650788D01*
X139586373Y-69708014D01*
X139656480Y-69740111D01*
X139656482Y-69740112D01*
X139661585Y-69742448D01*
X139667026Y-69743845D01*
X139869652Y-69795871D01*
X139869654Y-69795871D01*
X139874856Y-69797207D01*
X139950679Y-69803374D01*
X140011149Y-69808293D01*
X140011159Y-69808293D01*
X140013699Y-69808500D01*
X140800000Y-69808500D01*
X141586300Y-69808499D01*
X141588839Y-69808292D01*
X141588851Y-69808292D01*
X141664550Y-69802135D01*
X141725144Y-69797207D01*
X141938415Y-69742448D01*
X141943518Y-69740112D01*
X141943520Y-69740111D01*
X142013627Y-69708014D01*
X142138619Y-69650788D01*
X142209008Y-69601866D01*
X142314818Y-69528326D01*
X142314820Y-69528324D01*
X142319426Y-69525123D01*
X142475123Y-69369426D01*
X142478550Y-69364496D01*
X142597587Y-69193225D01*
X142597588Y-69193223D01*
X142600788Y-69188619D01*
X142692448Y-68988415D01*
X142747207Y-68775144D01*
X142758500Y-68636301D01*
X142758499Y-65363700D01*
X142747207Y-65224856D01*
X142692448Y-65011585D01*
X142600788Y-64811381D01*
X142597587Y-64806775D01*
X142478326Y-64635182D01*
X142478324Y-64635180D01*
X142475123Y-64630574D01*
X142319426Y-64474877D01*
X142138619Y-64349212D01*
X141944553Y-64260362D01*
X141943520Y-64259889D01*
X141943518Y-64259888D01*
X141938415Y-64257552D01*
X141806649Y-64223720D01*
X141730348Y-64204129D01*
X141730346Y-64204129D01*
X141725144Y-64202793D01*
X141647467Y-64196475D01*
X141588851Y-64191707D01*
X141588841Y-64191707D01*
X141586301Y-64191500D01*
X141583746Y-64191500D01*
X140800001Y-64191501D01*
X140013700Y-64191501D01*
X140011161Y-64191708D01*
X140011149Y-64191708D01*
X139936358Y-64197791D01*
X139874856Y-64202793D01*
X139661585Y-64257552D01*
X139656482Y-64259888D01*
X139656480Y-64259889D01*
X139655447Y-64260362D01*
X139461381Y-64349212D01*
X139280574Y-64474877D01*
X139124877Y-64630574D01*
X139121676Y-64635180D01*
X139121674Y-64635182D01*
X139002413Y-64806775D01*
X138999212Y-64811381D01*
X138907552Y-65011585D01*
X138852793Y-65224856D01*
X138841500Y-65363699D01*
X129557895Y-65363699D01*
X129557793Y-65361171D01*
X129547147Y-65230290D01*
X129545376Y-65219734D01*
X129493372Y-65017193D01*
X129489638Y-65006647D01*
X129402687Y-64816731D01*
X129397151Y-64807024D01*
X129277941Y-64635504D01*
X129270767Y-64626925D01*
X129123075Y-64479233D01*
X129114496Y-64472059D01*
X128942976Y-64352849D01*
X128933269Y-64347313D01*
X128743353Y-64260362D01*
X128732807Y-64256628D01*
X128530266Y-64204624D01*
X128519710Y-64202853D01*
X128388829Y-64192207D01*
X128383723Y-64192000D01*
X127872115Y-64192000D01*
X127856876Y-64196475D01*
X127855671Y-64197865D01*
X127854000Y-64205548D01*
X127854000Y-66727885D01*
X127346000Y-66727885D01*
X127346000Y-64210115D01*
X127341525Y-64194876D01*
X127340135Y-64193671D01*
X127332452Y-64192000D01*
X126816277Y-64192000D01*
X126811171Y-64192207D01*
X126680290Y-64202853D01*
X126669734Y-64204624D01*
X126467193Y-64256628D01*
X126456647Y-64260362D01*
X126286451Y-64338284D01*
X126216187Y-64348455D01*
X126151578Y-64319023D01*
X126113138Y-64259333D01*
X126108000Y-64223720D01*
X126108000Y-56634000D01*
X126128002Y-56565879D01*
X126181658Y-56519386D01*
X126234000Y-56508000D01*
X128193939Y-56508000D01*
X128262060Y-56528002D01*
G37*
%TD.AperFunction*%
%TD*%
M02*
