%TF.GenerationSoftware,KiCad,Pcbnew,(6.0.1)*%
%TF.CreationDate,2022-03-12T16:38:44+00:00*%
%TF.ProjectId,Ball_Base_Components,42616c6c-5f42-4617-9365-5f436f6d706f,rev?*%
%TF.SameCoordinates,Original*%
%TF.FileFunction,Legend,Top*%
%TF.FilePolarity,Positive*%
%FSLAX46Y46*%
G04 Gerber Fmt 4.6, Leading zero omitted, Abs format (unit mm)*
G04 Created by KiCad (PCBNEW (6.0.1)) date 2022-03-12 16:38:44*
%MOMM*%
%LPD*%
G01*
G04 APERTURE LIST*
%ADD10C,0.357843*%
%ADD11C,0.150000*%
%ADD12C,0.120000*%
%ADD13C,0.200000*%
%ADD14C,0.100000*%
%ADD15C,0.342843*%
G04 APERTURE END LIST*
D10*
X139578921Y-142300000D02*
G75*
G03*
X139578921Y-142300000I-178921J0D01*
G01*
X143178921Y-113800000D02*
G75*
G03*
X143178921Y-113800000I-178921J0D01*
G01*
X150778921Y-133200000D02*
G75*
G03*
X150778921Y-133200000I-178921J0D01*
G01*
D11*
X159023809Y-119252380D02*
X159642857Y-119252380D01*
X159309523Y-119633333D01*
X159452380Y-119633333D01*
X159547619Y-119680952D01*
X159595238Y-119728571D01*
X159642857Y-119823809D01*
X159642857Y-120061904D01*
X159595238Y-120157142D01*
X159547619Y-120204761D01*
X159452380Y-120252380D01*
X159166666Y-120252380D01*
X159071428Y-120204761D01*
X159023809Y-120157142D01*
X160071428Y-120157142D02*
X160119047Y-120204761D01*
X160071428Y-120252380D01*
X160023809Y-120204761D01*
X160071428Y-120157142D01*
X160071428Y-120252380D01*
X160452380Y-119252380D02*
X161071428Y-119252380D01*
X160738095Y-119633333D01*
X160880952Y-119633333D01*
X160976190Y-119680952D01*
X161023809Y-119728571D01*
X161071428Y-119823809D01*
X161071428Y-120061904D01*
X161023809Y-120157142D01*
X160976190Y-120204761D01*
X160880952Y-120252380D01*
X160595238Y-120252380D01*
X160500000Y-120204761D01*
X160452380Y-120157142D01*
X161357142Y-119252380D02*
X161690476Y-120252380D01*
X162023809Y-119252380D01*
X146423571Y-82623809D02*
X146471190Y-82480952D01*
X146518809Y-82433333D01*
X146614047Y-82385714D01*
X146756904Y-82385714D01*
X146852142Y-82433333D01*
X146899761Y-82480952D01*
X146947380Y-82576190D01*
X146947380Y-82957142D01*
X145947380Y-82957142D01*
X145947380Y-82623809D01*
X145995000Y-82528571D01*
X146042619Y-82480952D01*
X146137857Y-82433333D01*
X146233095Y-82433333D01*
X146328333Y-82480952D01*
X146375952Y-82528571D01*
X146423571Y-82623809D01*
X146423571Y-82957142D01*
X146947380Y-81528571D02*
X146423571Y-81528571D01*
X146328333Y-81576190D01*
X146280714Y-81671428D01*
X146280714Y-81861904D01*
X146328333Y-81957142D01*
X146899761Y-81528571D02*
X146947380Y-81623809D01*
X146947380Y-81861904D01*
X146899761Y-81957142D01*
X146804523Y-82004761D01*
X146709285Y-82004761D01*
X146614047Y-81957142D01*
X146566428Y-81861904D01*
X146566428Y-81623809D01*
X146518809Y-81528571D01*
X146947380Y-80909523D02*
X146899761Y-81004761D01*
X146804523Y-81052380D01*
X145947380Y-81052380D01*
X146947380Y-80385714D02*
X146899761Y-80480952D01*
X146804523Y-80528571D01*
X145947380Y-80528571D01*
X146423571Y-78909523D02*
X146471190Y-78766666D01*
X146518809Y-78719047D01*
X146614047Y-78671428D01*
X146756904Y-78671428D01*
X146852142Y-78719047D01*
X146899761Y-78766666D01*
X146947380Y-78861904D01*
X146947380Y-79242857D01*
X145947380Y-79242857D01*
X145947380Y-78909523D01*
X145995000Y-78814285D01*
X146042619Y-78766666D01*
X146137857Y-78719047D01*
X146233095Y-78719047D01*
X146328333Y-78766666D01*
X146375952Y-78814285D01*
X146423571Y-78909523D01*
X146423571Y-79242857D01*
X146947380Y-77814285D02*
X146423571Y-77814285D01*
X146328333Y-77861904D01*
X146280714Y-77957142D01*
X146280714Y-78147619D01*
X146328333Y-78242857D01*
X146899761Y-77814285D02*
X146947380Y-77909523D01*
X146947380Y-78147619D01*
X146899761Y-78242857D01*
X146804523Y-78290476D01*
X146709285Y-78290476D01*
X146614047Y-78242857D01*
X146566428Y-78147619D01*
X146566428Y-77909523D01*
X146518809Y-77814285D01*
X146899761Y-77385714D02*
X146947380Y-77290476D01*
X146947380Y-77100000D01*
X146899761Y-77004761D01*
X146804523Y-76957142D01*
X146756904Y-76957142D01*
X146661666Y-77004761D01*
X146614047Y-77100000D01*
X146614047Y-77242857D01*
X146566428Y-77338095D01*
X146471190Y-77385714D01*
X146423571Y-77385714D01*
X146328333Y-77338095D01*
X146280714Y-77242857D01*
X146280714Y-77100000D01*
X146328333Y-77004761D01*
X146899761Y-76147619D02*
X146947380Y-76242857D01*
X146947380Y-76433333D01*
X146899761Y-76528571D01*
X146804523Y-76576190D01*
X146423571Y-76576190D01*
X146328333Y-76528571D01*
X146280714Y-76433333D01*
X146280714Y-76242857D01*
X146328333Y-76147619D01*
X146423571Y-76100000D01*
X146518809Y-76100000D01*
X146614047Y-76576190D01*
X146280714Y-75004761D02*
X146947380Y-74766666D01*
X146280714Y-74528571D01*
X146947380Y-73623809D02*
X146947380Y-74195238D01*
X146947380Y-73909523D02*
X145947380Y-73909523D01*
X146090238Y-74004761D01*
X146185476Y-74100000D01*
X146233095Y-74195238D01*
X146852142Y-73195238D02*
X146899761Y-73147619D01*
X146947380Y-73195238D01*
X146899761Y-73242857D01*
X146852142Y-73195238D01*
X146947380Y-73195238D01*
X145947380Y-72528571D02*
X145947380Y-72433333D01*
X145995000Y-72338095D01*
X146042619Y-72290476D01*
X146137857Y-72242857D01*
X146328333Y-72195238D01*
X146566428Y-72195238D01*
X146756904Y-72242857D01*
X146852142Y-72290476D01*
X146899761Y-72338095D01*
X146947380Y-72433333D01*
X146947380Y-72528571D01*
X146899761Y-72623809D01*
X146852142Y-72671428D01*
X146756904Y-72719047D01*
X146566428Y-72766666D01*
X146328333Y-72766666D01*
X146137857Y-72719047D01*
X146042619Y-72671428D01*
X145995000Y-72623809D01*
X145947380Y-72528571D01*
X148557380Y-86266666D02*
X147557380Y-86266666D01*
X148271666Y-85933333D01*
X147557380Y-85600000D01*
X148557380Y-85600000D01*
X148557380Y-84980952D02*
X148509761Y-85076190D01*
X148462142Y-85123809D01*
X148366904Y-85171428D01*
X148081190Y-85171428D01*
X147985952Y-85123809D01*
X147938333Y-85076190D01*
X147890714Y-84980952D01*
X147890714Y-84838095D01*
X147938333Y-84742857D01*
X147985952Y-84695238D01*
X148081190Y-84647619D01*
X148366904Y-84647619D01*
X148462142Y-84695238D01*
X148509761Y-84742857D01*
X148557380Y-84838095D01*
X148557380Y-84980952D01*
X147890714Y-83790476D02*
X148557380Y-83790476D01*
X147890714Y-84219047D02*
X148414523Y-84219047D01*
X148509761Y-84171428D01*
X148557380Y-84076190D01*
X148557380Y-83933333D01*
X148509761Y-83838095D01*
X148462142Y-83790476D01*
X147890714Y-83314285D02*
X148557380Y-83314285D01*
X147985952Y-83314285D02*
X147938333Y-83266666D01*
X147890714Y-83171428D01*
X147890714Y-83028571D01*
X147938333Y-82933333D01*
X148033571Y-82885714D01*
X148557380Y-82885714D01*
X147890714Y-82552380D02*
X147890714Y-82171428D01*
X147557380Y-82409523D02*
X148414523Y-82409523D01*
X148509761Y-82361904D01*
X148557380Y-82266666D01*
X148557380Y-82171428D01*
X147890714Y-81838095D02*
X148747857Y-81838095D01*
X148843095Y-81885714D01*
X148890714Y-81980952D01*
X148890714Y-82028571D01*
X147557380Y-81838095D02*
X147605000Y-81885714D01*
X147652619Y-81838095D01*
X147605000Y-81790476D01*
X147557380Y-81838095D01*
X147652619Y-81838095D01*
X148557380Y-81219047D02*
X148509761Y-81314285D01*
X148462142Y-81361904D01*
X148366904Y-81409523D01*
X148081190Y-81409523D01*
X147985952Y-81361904D01*
X147938333Y-81314285D01*
X147890714Y-81219047D01*
X147890714Y-81076190D01*
X147938333Y-80980952D01*
X147985952Y-80933333D01*
X148081190Y-80885714D01*
X148366904Y-80885714D01*
X148462142Y-80933333D01*
X148509761Y-80980952D01*
X148557380Y-81076190D01*
X148557380Y-81219047D01*
X147890714Y-80552380D02*
X148557380Y-80314285D01*
X147890714Y-80076190D02*
X148557380Y-80314285D01*
X148795476Y-80409523D01*
X148843095Y-80457142D01*
X148890714Y-80552380D01*
X148557380Y-78933333D02*
X147557380Y-78933333D01*
X148271666Y-78600000D01*
X147557380Y-78266666D01*
X148557380Y-78266666D01*
X148557380Y-77647619D02*
X148509761Y-77742857D01*
X148462142Y-77790476D01*
X148366904Y-77838095D01*
X148081190Y-77838095D01*
X147985952Y-77790476D01*
X147938333Y-77742857D01*
X147890714Y-77647619D01*
X147890714Y-77504761D01*
X147938333Y-77409523D01*
X147985952Y-77361904D01*
X148081190Y-77314285D01*
X148366904Y-77314285D01*
X148462142Y-77361904D01*
X148509761Y-77409523D01*
X148557380Y-77504761D01*
X148557380Y-77647619D01*
X148557380Y-76457142D02*
X147557380Y-76457142D01*
X148509761Y-76457142D02*
X148557380Y-76552380D01*
X148557380Y-76742857D01*
X148509761Y-76838095D01*
X148462142Y-76885714D01*
X148366904Y-76933333D01*
X148081190Y-76933333D01*
X147985952Y-76885714D01*
X147938333Y-76838095D01*
X147890714Y-76742857D01*
X147890714Y-76552380D01*
X147938333Y-76457142D01*
X147890714Y-75552380D02*
X148557380Y-75552380D01*
X147890714Y-75980952D02*
X148414523Y-75980952D01*
X148509761Y-75933333D01*
X148557380Y-75838095D01*
X148557380Y-75695238D01*
X148509761Y-75600000D01*
X148462142Y-75552380D01*
X148557380Y-74933333D02*
X148509761Y-75028571D01*
X148414523Y-75076190D01*
X147557380Y-75076190D01*
X148557380Y-74123809D02*
X148033571Y-74123809D01*
X147938333Y-74171428D01*
X147890714Y-74266666D01*
X147890714Y-74457142D01*
X147938333Y-74552380D01*
X148509761Y-74123809D02*
X148557380Y-74219047D01*
X148557380Y-74457142D01*
X148509761Y-74552380D01*
X148414523Y-74600000D01*
X148319285Y-74600000D01*
X148224047Y-74552380D01*
X148176428Y-74457142D01*
X148176428Y-74219047D01*
X148128809Y-74123809D01*
X148557380Y-73647619D02*
X147890714Y-73647619D01*
X148081190Y-73647619D02*
X147985952Y-73600000D01*
X147938333Y-73552380D01*
X147890714Y-73457142D01*
X147890714Y-73361904D01*
X147652619Y-72314285D02*
X147605000Y-72266666D01*
X147557380Y-72171428D01*
X147557380Y-71933333D01*
X147605000Y-71838095D01*
X147652619Y-71790476D01*
X147747857Y-71742857D01*
X147843095Y-71742857D01*
X147985952Y-71790476D01*
X148557380Y-72361904D01*
X148557380Y-71742857D01*
X147557380Y-71123809D02*
X147557380Y-71028571D01*
X147605000Y-70933333D01*
X147652619Y-70885714D01*
X147747857Y-70838095D01*
X147938333Y-70790476D01*
X148176428Y-70790476D01*
X148366904Y-70838095D01*
X148462142Y-70885714D01*
X148509761Y-70933333D01*
X148557380Y-71028571D01*
X148557380Y-71123809D01*
X148509761Y-71219047D01*
X148462142Y-71266666D01*
X148366904Y-71314285D01*
X148176428Y-71361904D01*
X147938333Y-71361904D01*
X147747857Y-71314285D01*
X147652619Y-71266666D01*
X147605000Y-71219047D01*
X147557380Y-71123809D01*
X147652619Y-70409523D02*
X147605000Y-70361904D01*
X147557380Y-70266666D01*
X147557380Y-70028571D01*
X147605000Y-69933333D01*
X147652619Y-69885714D01*
X147747857Y-69838095D01*
X147843095Y-69838095D01*
X147985952Y-69885714D01*
X148557380Y-70457142D01*
X148557380Y-69838095D01*
X147652619Y-69457142D02*
X147605000Y-69409523D01*
X147557380Y-69314285D01*
X147557380Y-69076190D01*
X147605000Y-68980952D01*
X147652619Y-68933333D01*
X147747857Y-68885714D01*
X147843095Y-68885714D01*
X147985952Y-68933333D01*
X148557380Y-69504761D01*
X148557380Y-68885714D01*
X159738095Y-126400000D02*
X159642857Y-126352380D01*
X159500000Y-126352380D01*
X159357142Y-126400000D01*
X159261904Y-126495238D01*
X159214285Y-126590476D01*
X159166666Y-126780952D01*
X159166666Y-126923809D01*
X159214285Y-127114285D01*
X159261904Y-127209523D01*
X159357142Y-127304761D01*
X159500000Y-127352380D01*
X159595238Y-127352380D01*
X159738095Y-127304761D01*
X159785714Y-127257142D01*
X159785714Y-126923809D01*
X159595238Y-126923809D01*
X160214285Y-127352380D02*
X160214285Y-126352380D01*
X160785714Y-127352380D01*
X160785714Y-126352380D01*
X161261904Y-127352380D02*
X161261904Y-126352380D01*
X161500000Y-126352380D01*
X161642857Y-126400000D01*
X161738095Y-126495238D01*
X161785714Y-126590476D01*
X161833333Y-126780952D01*
X161833333Y-126923809D01*
X161785714Y-127114285D01*
X161738095Y-127209523D01*
X161642857Y-127304761D01*
X161500000Y-127352380D01*
X161261904Y-127352380D01*
X147638095Y-96271428D02*
X148400000Y-96271428D01*
X148019047Y-96652380D02*
X148019047Y-95890476D01*
X149400000Y-96652380D02*
X148828571Y-96652380D01*
X149114285Y-96652380D02*
X149114285Y-95652380D01*
X149019047Y-95795238D01*
X148923809Y-95890476D01*
X148828571Y-95938095D01*
X149780952Y-95747619D02*
X149828571Y-95700000D01*
X149923809Y-95652380D01*
X150161904Y-95652380D01*
X150257142Y-95700000D01*
X150304761Y-95747619D01*
X150352380Y-95842857D01*
X150352380Y-95938095D01*
X150304761Y-96080952D01*
X149733333Y-96652380D01*
X150352380Y-96652380D01*
X150638095Y-95652380D02*
X150971428Y-96652380D01*
X151304761Y-95652380D01*
X141838095Y-96271428D02*
X142600000Y-96271428D01*
X143600000Y-96652380D02*
X143028571Y-96652380D01*
X143314285Y-96652380D02*
X143314285Y-95652380D01*
X143219047Y-95795238D01*
X143123809Y-95890476D01*
X143028571Y-95938095D01*
X143980952Y-95747619D02*
X144028571Y-95700000D01*
X144123809Y-95652380D01*
X144361904Y-95652380D01*
X144457142Y-95700000D01*
X144504761Y-95747619D01*
X144552380Y-95842857D01*
X144552380Y-95938095D01*
X144504761Y-96080952D01*
X143933333Y-96652380D01*
X144552380Y-96652380D01*
X144838095Y-95652380D02*
X145171428Y-96652380D01*
X145504761Y-95652380D01*
X127847619Y-120852380D02*
X127514285Y-120376190D01*
X127276190Y-120852380D02*
X127276190Y-119852380D01*
X127657142Y-119852380D01*
X127752380Y-119900000D01*
X127800000Y-119947619D01*
X127847619Y-120042857D01*
X127847619Y-120185714D01*
X127800000Y-120280952D01*
X127752380Y-120328571D01*
X127657142Y-120376190D01*
X127276190Y-120376190D01*
X128276190Y-120328571D02*
X128609523Y-120328571D01*
X128752380Y-120852380D02*
X128276190Y-120852380D01*
X128276190Y-119852380D01*
X128752380Y-119852380D01*
X129133333Y-120804761D02*
X129276190Y-120852380D01*
X129514285Y-120852380D01*
X129609523Y-120804761D01*
X129657142Y-120757142D01*
X129704761Y-120661904D01*
X129704761Y-120566666D01*
X129657142Y-120471428D01*
X129609523Y-120423809D01*
X129514285Y-120376190D01*
X129323809Y-120328571D01*
X129228571Y-120280952D01*
X129180952Y-120233333D01*
X129133333Y-120138095D01*
X129133333Y-120042857D01*
X129180952Y-119947619D01*
X129228571Y-119900000D01*
X129323809Y-119852380D01*
X129561904Y-119852380D01*
X129704761Y-119900000D01*
X130133333Y-120328571D02*
X130466666Y-120328571D01*
X130609523Y-120852380D02*
X130133333Y-120852380D01*
X130133333Y-119852380D01*
X130609523Y-119852380D01*
X130895238Y-119852380D02*
X131466666Y-119852380D01*
X131180952Y-120852380D02*
X131180952Y-119852380D01*
X126704761Y-134757142D02*
X126657142Y-134804761D01*
X126514285Y-134852380D01*
X126419047Y-134852380D01*
X126276190Y-134804761D01*
X126180952Y-134709523D01*
X126133333Y-134614285D01*
X126085714Y-134423809D01*
X126085714Y-134280952D01*
X126133333Y-134090476D01*
X126180952Y-133995238D01*
X126276190Y-133900000D01*
X126419047Y-133852380D01*
X126514285Y-133852380D01*
X126657142Y-133900000D01*
X126704761Y-133947619D01*
X127323809Y-133852380D02*
X127514285Y-133852380D01*
X127609523Y-133900000D01*
X127704761Y-133995238D01*
X127752380Y-134185714D01*
X127752380Y-134519047D01*
X127704761Y-134709523D01*
X127609523Y-134804761D01*
X127514285Y-134852380D01*
X127323809Y-134852380D01*
X127228571Y-134804761D01*
X127133333Y-134709523D01*
X127085714Y-134519047D01*
X127085714Y-134185714D01*
X127133333Y-133995238D01*
X127228571Y-133900000D01*
X127323809Y-133852380D01*
X128180952Y-134852380D02*
X128180952Y-133852380D01*
X128752380Y-134852380D01*
X128752380Y-133852380D01*
X129228571Y-134852380D02*
X129228571Y-133852380D01*
X129800000Y-134852380D01*
X129800000Y-133852380D01*
X130276190Y-134328571D02*
X130609523Y-134328571D01*
X130752380Y-134852380D02*
X130276190Y-134852380D01*
X130276190Y-133852380D01*
X130752380Y-133852380D01*
X131752380Y-134757142D02*
X131704761Y-134804761D01*
X131561904Y-134852380D01*
X131466666Y-134852380D01*
X131323809Y-134804761D01*
X131228571Y-134709523D01*
X131180952Y-134614285D01*
X131133333Y-134423809D01*
X131133333Y-134280952D01*
X131180952Y-134090476D01*
X131228571Y-133995238D01*
X131323809Y-133900000D01*
X131466666Y-133852380D01*
X131561904Y-133852380D01*
X131704761Y-133900000D01*
X131752380Y-133947619D01*
X132038095Y-133852380D02*
X132609523Y-133852380D01*
X132323809Y-134852380D02*
X132323809Y-133852380D01*
%TO.C,R5*%
X154933333Y-131852380D02*
X154600000Y-131376190D01*
X154361904Y-131852380D02*
X154361904Y-130852380D01*
X154742857Y-130852380D01*
X154838095Y-130900000D01*
X154885714Y-130947619D01*
X154933333Y-131042857D01*
X154933333Y-131185714D01*
X154885714Y-131280952D01*
X154838095Y-131328571D01*
X154742857Y-131376190D01*
X154361904Y-131376190D01*
X155838095Y-130852380D02*
X155361904Y-130852380D01*
X155314285Y-131328571D01*
X155361904Y-131280952D01*
X155457142Y-131233333D01*
X155695238Y-131233333D01*
X155790476Y-131280952D01*
X155838095Y-131328571D01*
X155885714Y-131423809D01*
X155885714Y-131661904D01*
X155838095Y-131757142D01*
X155790476Y-131804761D01*
X155695238Y-131852380D01*
X155457142Y-131852380D01*
X155361904Y-131804761D01*
X155314285Y-131757142D01*
%TO.C,C8*%
X128033333Y-150857142D02*
X127985714Y-150904761D01*
X127842857Y-150952380D01*
X127747619Y-150952380D01*
X127604761Y-150904761D01*
X127509523Y-150809523D01*
X127461904Y-150714285D01*
X127414285Y-150523809D01*
X127414285Y-150380952D01*
X127461904Y-150190476D01*
X127509523Y-150095238D01*
X127604761Y-150000000D01*
X127747619Y-149952380D01*
X127842857Y-149952380D01*
X127985714Y-150000000D01*
X128033333Y-150047619D01*
X128604761Y-150380952D02*
X128509523Y-150333333D01*
X128461904Y-150285714D01*
X128414285Y-150190476D01*
X128414285Y-150142857D01*
X128461904Y-150047619D01*
X128509523Y-150000000D01*
X128604761Y-149952380D01*
X128795238Y-149952380D01*
X128890476Y-150000000D01*
X128938095Y-150047619D01*
X128985714Y-150142857D01*
X128985714Y-150190476D01*
X128938095Y-150285714D01*
X128890476Y-150333333D01*
X128795238Y-150380952D01*
X128604761Y-150380952D01*
X128509523Y-150428571D01*
X128461904Y-150476190D01*
X128414285Y-150571428D01*
X128414285Y-150761904D01*
X128461904Y-150857142D01*
X128509523Y-150904761D01*
X128604761Y-150952380D01*
X128795238Y-150952380D01*
X128890476Y-150904761D01*
X128938095Y-150857142D01*
X128985714Y-150761904D01*
X128985714Y-150571428D01*
X128938095Y-150476190D01*
X128890476Y-150428571D01*
X128795238Y-150380952D01*
%TO.C,R2*%
X137733333Y-131852380D02*
X137400000Y-131376190D01*
X137161904Y-131852380D02*
X137161904Y-130852380D01*
X137542857Y-130852380D01*
X137638095Y-130900000D01*
X137685714Y-130947619D01*
X137733333Y-131042857D01*
X137733333Y-131185714D01*
X137685714Y-131280952D01*
X137638095Y-131328571D01*
X137542857Y-131376190D01*
X137161904Y-131376190D01*
X138114285Y-130947619D02*
X138161904Y-130900000D01*
X138257142Y-130852380D01*
X138495238Y-130852380D01*
X138590476Y-130900000D01*
X138638095Y-130947619D01*
X138685714Y-131042857D01*
X138685714Y-131138095D01*
X138638095Y-131280952D01*
X138066666Y-131852380D01*
X138685714Y-131852380D01*
%TO.C,Y1*%
X133723809Y-154676190D02*
X133723809Y-155152380D01*
X133390476Y-154152380D02*
X133723809Y-154676190D01*
X134057142Y-154152380D01*
X134914285Y-155152380D02*
X134342857Y-155152380D01*
X134628571Y-155152380D02*
X134628571Y-154152380D01*
X134533333Y-154295238D01*
X134438095Y-154390476D01*
X134342857Y-154438095D01*
%TO.C,C2*%
X139857142Y-138066666D02*
X139904761Y-138114285D01*
X139952380Y-138257142D01*
X139952380Y-138352380D01*
X139904761Y-138495238D01*
X139809523Y-138590476D01*
X139714285Y-138638095D01*
X139523809Y-138685714D01*
X139380952Y-138685714D01*
X139190476Y-138638095D01*
X139095238Y-138590476D01*
X139000000Y-138495238D01*
X138952380Y-138352380D01*
X138952380Y-138257142D01*
X139000000Y-138114285D01*
X139047619Y-138066666D01*
X139047619Y-137685714D02*
X139000000Y-137638095D01*
X138952380Y-137542857D01*
X138952380Y-137304761D01*
X139000000Y-137209523D01*
X139047619Y-137161904D01*
X139142857Y-137114285D01*
X139238095Y-137114285D01*
X139380952Y-137161904D01*
X139952380Y-137733333D01*
X139952380Y-137114285D01*
%TO.C,C4*%
X138633333Y-155157142D02*
X138585714Y-155204761D01*
X138442857Y-155252380D01*
X138347619Y-155252380D01*
X138204761Y-155204761D01*
X138109523Y-155109523D01*
X138061904Y-155014285D01*
X138014285Y-154823809D01*
X138014285Y-154680952D01*
X138061904Y-154490476D01*
X138109523Y-154395238D01*
X138204761Y-154300000D01*
X138347619Y-154252380D01*
X138442857Y-154252380D01*
X138585714Y-154300000D01*
X138633333Y-154347619D01*
X139490476Y-154585714D02*
X139490476Y-155252380D01*
X139252380Y-154204761D02*
X139014285Y-154919047D01*
X139633333Y-154919047D01*
%TO.C,R4*%
X154933333Y-133552380D02*
X154600000Y-133076190D01*
X154361904Y-133552380D02*
X154361904Y-132552380D01*
X154742857Y-132552380D01*
X154838095Y-132600000D01*
X154885714Y-132647619D01*
X154933333Y-132742857D01*
X154933333Y-132885714D01*
X154885714Y-132980952D01*
X154838095Y-133028571D01*
X154742857Y-133076190D01*
X154361904Y-133076190D01*
X155790476Y-132885714D02*
X155790476Y-133552380D01*
X155552380Y-132504761D02*
X155314285Y-133219047D01*
X155933333Y-133219047D01*
%TO.C,R12*%
X136757142Y-116552380D02*
X136423809Y-116076190D01*
X136185714Y-116552380D02*
X136185714Y-115552380D01*
X136566666Y-115552380D01*
X136661904Y-115600000D01*
X136709523Y-115647619D01*
X136757142Y-115742857D01*
X136757142Y-115885714D01*
X136709523Y-115980952D01*
X136661904Y-116028571D01*
X136566666Y-116076190D01*
X136185714Y-116076190D01*
X137709523Y-116552380D02*
X137138095Y-116552380D01*
X137423809Y-116552380D02*
X137423809Y-115552380D01*
X137328571Y-115695238D01*
X137233333Y-115790476D01*
X137138095Y-115838095D01*
X138090476Y-115647619D02*
X138138095Y-115600000D01*
X138233333Y-115552380D01*
X138471428Y-115552380D01*
X138566666Y-115600000D01*
X138614285Y-115647619D01*
X138661904Y-115742857D01*
X138661904Y-115838095D01*
X138614285Y-115980952D01*
X138042857Y-116552380D01*
X138661904Y-116552380D01*
%TO.C,J2*%
X157676190Y-137722380D02*
X157676190Y-136722380D01*
X158342857Y-136722380D02*
X158533333Y-136722380D01*
X158628571Y-136770000D01*
X158723809Y-136865238D01*
X158771428Y-137055714D01*
X158771428Y-137389047D01*
X158723809Y-137579523D01*
X158628571Y-137674761D01*
X158533333Y-137722380D01*
X158342857Y-137722380D01*
X158247619Y-137674761D01*
X158152380Y-137579523D01*
X158104761Y-137389047D01*
X158104761Y-137055714D01*
X158152380Y-136865238D01*
X158247619Y-136770000D01*
X158342857Y-136722380D01*
X156023809Y-141822380D02*
X156642857Y-141822380D01*
X156309523Y-142203333D01*
X156452380Y-142203333D01*
X156547619Y-142250952D01*
X156595238Y-142298571D01*
X156642857Y-142393809D01*
X156642857Y-142631904D01*
X156595238Y-142727142D01*
X156547619Y-142774761D01*
X156452380Y-142822380D01*
X156166666Y-142822380D01*
X156071428Y-142774761D01*
X156023809Y-142727142D01*
X157071428Y-142727142D02*
X157119047Y-142774761D01*
X157071428Y-142822380D01*
X157023809Y-142774761D01*
X157071428Y-142727142D01*
X157071428Y-142822380D01*
X157452380Y-141822380D02*
X158071428Y-141822380D01*
X157738095Y-142203333D01*
X157880952Y-142203333D01*
X157976190Y-142250952D01*
X158023809Y-142298571D01*
X158071428Y-142393809D01*
X158071428Y-142631904D01*
X158023809Y-142727142D01*
X157976190Y-142774761D01*
X157880952Y-142822380D01*
X157595238Y-142822380D01*
X157500000Y-142774761D01*
X157452380Y-142727142D01*
X158357142Y-141822380D02*
X158690476Y-142822380D01*
X159023809Y-141822380D01*
X156838095Y-139270000D02*
X156742857Y-139222380D01*
X156600000Y-139222380D01*
X156457142Y-139270000D01*
X156361904Y-139365238D01*
X156314285Y-139460476D01*
X156266666Y-139650952D01*
X156266666Y-139793809D01*
X156314285Y-139984285D01*
X156361904Y-140079523D01*
X156457142Y-140174761D01*
X156600000Y-140222380D01*
X156695238Y-140222380D01*
X156838095Y-140174761D01*
X156885714Y-140127142D01*
X156885714Y-139793809D01*
X156695238Y-139793809D01*
X157314285Y-140222380D02*
X157314285Y-139222380D01*
X157885714Y-140222380D01*
X157885714Y-139222380D01*
X158361904Y-140222380D02*
X158361904Y-139222380D01*
X158600000Y-139222380D01*
X158742857Y-139270000D01*
X158838095Y-139365238D01*
X158885714Y-139460476D01*
X158933333Y-139650952D01*
X158933333Y-139793809D01*
X158885714Y-139984285D01*
X158838095Y-140079523D01*
X158742857Y-140174761D01*
X158600000Y-140222380D01*
X158361904Y-140222380D01*
X157104761Y-135157142D02*
X157057142Y-135204761D01*
X156914285Y-135252380D01*
X156819047Y-135252380D01*
X156676190Y-135204761D01*
X156580952Y-135109523D01*
X156533333Y-135014285D01*
X156485714Y-134823809D01*
X156485714Y-134680952D01*
X156533333Y-134490476D01*
X156580952Y-134395238D01*
X156676190Y-134300000D01*
X156819047Y-134252380D01*
X156914285Y-134252380D01*
X157057142Y-134300000D01*
X157104761Y-134347619D01*
X158009523Y-135252380D02*
X157533333Y-135252380D01*
X157533333Y-134252380D01*
X158342857Y-135252380D02*
X158342857Y-134252380D01*
X158914285Y-135252380D02*
X158485714Y-134680952D01*
X158914285Y-134252380D02*
X158342857Y-134823809D01*
%TO.C,C6*%
X145233333Y-148157142D02*
X145185714Y-148204761D01*
X145042857Y-148252380D01*
X144947619Y-148252380D01*
X144804761Y-148204761D01*
X144709523Y-148109523D01*
X144661904Y-148014285D01*
X144614285Y-147823809D01*
X144614285Y-147680952D01*
X144661904Y-147490476D01*
X144709523Y-147395238D01*
X144804761Y-147300000D01*
X144947619Y-147252380D01*
X145042857Y-147252380D01*
X145185714Y-147300000D01*
X145233333Y-147347619D01*
X146090476Y-147252380D02*
X145900000Y-147252380D01*
X145804761Y-147300000D01*
X145757142Y-147347619D01*
X145661904Y-147490476D01*
X145614285Y-147680952D01*
X145614285Y-148061904D01*
X145661904Y-148157142D01*
X145709523Y-148204761D01*
X145804761Y-148252380D01*
X145995238Y-148252380D01*
X146090476Y-148204761D01*
X146138095Y-148157142D01*
X146185714Y-148061904D01*
X146185714Y-147823809D01*
X146138095Y-147728571D01*
X146090476Y-147680952D01*
X145995238Y-147633333D01*
X145804761Y-147633333D01*
X145709523Y-147680952D01*
X145661904Y-147728571D01*
X145614285Y-147823809D01*
%TO.C,R16*%
X136757142Y-114852380D02*
X136423809Y-114376190D01*
X136185714Y-114852380D02*
X136185714Y-113852380D01*
X136566666Y-113852380D01*
X136661904Y-113900000D01*
X136709523Y-113947619D01*
X136757142Y-114042857D01*
X136757142Y-114185714D01*
X136709523Y-114280952D01*
X136661904Y-114328571D01*
X136566666Y-114376190D01*
X136185714Y-114376190D01*
X137709523Y-114852380D02*
X137138095Y-114852380D01*
X137423809Y-114852380D02*
X137423809Y-113852380D01*
X137328571Y-113995238D01*
X137233333Y-114090476D01*
X137138095Y-114138095D01*
X138566666Y-113852380D02*
X138376190Y-113852380D01*
X138280952Y-113900000D01*
X138233333Y-113947619D01*
X138138095Y-114090476D01*
X138090476Y-114280952D01*
X138090476Y-114661904D01*
X138138095Y-114757142D01*
X138185714Y-114804761D01*
X138280952Y-114852380D01*
X138471428Y-114852380D01*
X138566666Y-114804761D01*
X138614285Y-114757142D01*
X138661904Y-114661904D01*
X138661904Y-114423809D01*
X138614285Y-114328571D01*
X138566666Y-114280952D01*
X138471428Y-114233333D01*
X138280952Y-114233333D01*
X138185714Y-114280952D01*
X138138095Y-114328571D01*
X138090476Y-114423809D01*
%TO.C,C1*%
X141657142Y-138066666D02*
X141704761Y-138114285D01*
X141752380Y-138257142D01*
X141752380Y-138352380D01*
X141704761Y-138495238D01*
X141609523Y-138590476D01*
X141514285Y-138638095D01*
X141323809Y-138685714D01*
X141180952Y-138685714D01*
X140990476Y-138638095D01*
X140895238Y-138590476D01*
X140800000Y-138495238D01*
X140752380Y-138352380D01*
X140752380Y-138257142D01*
X140800000Y-138114285D01*
X140847619Y-138066666D01*
X141752380Y-137114285D02*
X141752380Y-137685714D01*
X141752380Y-137400000D02*
X140752380Y-137400000D01*
X140895238Y-137495238D01*
X140990476Y-137590476D01*
X141038095Y-137685714D01*
%TO.C,C21*%
X136757142Y-119857142D02*
X136709523Y-119904761D01*
X136566666Y-119952380D01*
X136471428Y-119952380D01*
X136328571Y-119904761D01*
X136233333Y-119809523D01*
X136185714Y-119714285D01*
X136138095Y-119523809D01*
X136138095Y-119380952D01*
X136185714Y-119190476D01*
X136233333Y-119095238D01*
X136328571Y-119000000D01*
X136471428Y-118952380D01*
X136566666Y-118952380D01*
X136709523Y-119000000D01*
X136757142Y-119047619D01*
X137138095Y-119047619D02*
X137185714Y-119000000D01*
X137280952Y-118952380D01*
X137519047Y-118952380D01*
X137614285Y-119000000D01*
X137661904Y-119047619D01*
X137709523Y-119142857D01*
X137709523Y-119238095D01*
X137661904Y-119380952D01*
X137090476Y-119952380D01*
X137709523Y-119952380D01*
X138661904Y-119952380D02*
X138090476Y-119952380D01*
X138376190Y-119952380D02*
X138376190Y-118952380D01*
X138280952Y-119095238D01*
X138185714Y-119190476D01*
X138090476Y-119238095D01*
%TO.C,C5*%
X145233333Y-144157142D02*
X145185714Y-144204761D01*
X145042857Y-144252380D01*
X144947619Y-144252380D01*
X144804761Y-144204761D01*
X144709523Y-144109523D01*
X144661904Y-144014285D01*
X144614285Y-143823809D01*
X144614285Y-143680952D01*
X144661904Y-143490476D01*
X144709523Y-143395238D01*
X144804761Y-143300000D01*
X144947619Y-143252380D01*
X145042857Y-143252380D01*
X145185714Y-143300000D01*
X145233333Y-143347619D01*
X146138095Y-143252380D02*
X145661904Y-143252380D01*
X145614285Y-143728571D01*
X145661904Y-143680952D01*
X145757142Y-143633333D01*
X145995238Y-143633333D01*
X146090476Y-143680952D01*
X146138095Y-143728571D01*
X146185714Y-143823809D01*
X146185714Y-144061904D01*
X146138095Y-144157142D01*
X146090476Y-144204761D01*
X145995238Y-144252380D01*
X145757142Y-144252380D01*
X145661904Y-144204761D01*
X145614285Y-144157142D01*
%TO.C,R6*%
X137733333Y-133552380D02*
X137400000Y-133076190D01*
X137161904Y-133552380D02*
X137161904Y-132552380D01*
X137542857Y-132552380D01*
X137638095Y-132600000D01*
X137685714Y-132647619D01*
X137733333Y-132742857D01*
X137733333Y-132885714D01*
X137685714Y-132980952D01*
X137638095Y-133028571D01*
X137542857Y-133076190D01*
X137161904Y-133076190D01*
X138590476Y-132552380D02*
X138400000Y-132552380D01*
X138304761Y-132600000D01*
X138257142Y-132647619D01*
X138161904Y-132790476D01*
X138114285Y-132980952D01*
X138114285Y-133361904D01*
X138161904Y-133457142D01*
X138209523Y-133504761D01*
X138304761Y-133552380D01*
X138495238Y-133552380D01*
X138590476Y-133504761D01*
X138638095Y-133457142D01*
X138685714Y-133361904D01*
X138685714Y-133123809D01*
X138638095Y-133028571D01*
X138590476Y-132980952D01*
X138495238Y-132933333D01*
X138304761Y-132933333D01*
X138209523Y-132980952D01*
X138161904Y-133028571D01*
X138114285Y-133123809D01*
%TO.C,R3*%
X154933333Y-130152380D02*
X154600000Y-129676190D01*
X154361904Y-130152380D02*
X154361904Y-129152380D01*
X154742857Y-129152380D01*
X154838095Y-129200000D01*
X154885714Y-129247619D01*
X154933333Y-129342857D01*
X154933333Y-129485714D01*
X154885714Y-129580952D01*
X154838095Y-129628571D01*
X154742857Y-129676190D01*
X154361904Y-129676190D01*
X155266666Y-129152380D02*
X155885714Y-129152380D01*
X155552380Y-129533333D01*
X155695238Y-129533333D01*
X155790476Y-129580952D01*
X155838095Y-129628571D01*
X155885714Y-129723809D01*
X155885714Y-129961904D01*
X155838095Y-130057142D01*
X155790476Y-130104761D01*
X155695238Y-130152380D01*
X155409523Y-130152380D01*
X155314285Y-130104761D01*
X155266666Y-130057142D01*
%TO.C,R15*%
X136757142Y-126652380D02*
X136423809Y-126176190D01*
X136185714Y-126652380D02*
X136185714Y-125652380D01*
X136566666Y-125652380D01*
X136661904Y-125700000D01*
X136709523Y-125747619D01*
X136757142Y-125842857D01*
X136757142Y-125985714D01*
X136709523Y-126080952D01*
X136661904Y-126128571D01*
X136566666Y-126176190D01*
X136185714Y-126176190D01*
X137709523Y-126652380D02*
X137138095Y-126652380D01*
X137423809Y-126652380D02*
X137423809Y-125652380D01*
X137328571Y-125795238D01*
X137233333Y-125890476D01*
X137138095Y-125938095D01*
X138614285Y-125652380D02*
X138138095Y-125652380D01*
X138090476Y-126128571D01*
X138138095Y-126080952D01*
X138233333Y-126033333D01*
X138471428Y-126033333D01*
X138566666Y-126080952D01*
X138614285Y-126128571D01*
X138661904Y-126223809D01*
X138661904Y-126461904D01*
X138614285Y-126557142D01*
X138566666Y-126604761D01*
X138471428Y-126652380D01*
X138233333Y-126652380D01*
X138138095Y-126604761D01*
X138090476Y-126557142D01*
%TO.C,U1*%
X140872380Y-147361904D02*
X141681904Y-147361904D01*
X141777142Y-147314285D01*
X141824761Y-147266666D01*
X141872380Y-147171428D01*
X141872380Y-146980952D01*
X141824761Y-146885714D01*
X141777142Y-146838095D01*
X141681904Y-146790476D01*
X140872380Y-146790476D01*
X141872380Y-145790476D02*
X141872380Y-146361904D01*
X141872380Y-146076190D02*
X140872380Y-146076190D01*
X141015238Y-146171428D01*
X141110476Y-146266666D01*
X141158095Y-146361904D01*
%TO.C,R14*%
X154957142Y-116552380D02*
X154623809Y-116076190D01*
X154385714Y-116552380D02*
X154385714Y-115552380D01*
X154766666Y-115552380D01*
X154861904Y-115600000D01*
X154909523Y-115647619D01*
X154957142Y-115742857D01*
X154957142Y-115885714D01*
X154909523Y-115980952D01*
X154861904Y-116028571D01*
X154766666Y-116076190D01*
X154385714Y-116076190D01*
X155909523Y-116552380D02*
X155338095Y-116552380D01*
X155623809Y-116552380D02*
X155623809Y-115552380D01*
X155528571Y-115695238D01*
X155433333Y-115790476D01*
X155338095Y-115838095D01*
X156766666Y-115885714D02*
X156766666Y-116552380D01*
X156528571Y-115504761D02*
X156290476Y-116219047D01*
X156909523Y-116219047D01*
%TO.C,C19*%
X154957142Y-118157142D02*
X154909523Y-118204761D01*
X154766666Y-118252380D01*
X154671428Y-118252380D01*
X154528571Y-118204761D01*
X154433333Y-118109523D01*
X154385714Y-118014285D01*
X154338095Y-117823809D01*
X154338095Y-117680952D01*
X154385714Y-117490476D01*
X154433333Y-117395238D01*
X154528571Y-117300000D01*
X154671428Y-117252380D01*
X154766666Y-117252380D01*
X154909523Y-117300000D01*
X154957142Y-117347619D01*
X155909523Y-118252380D02*
X155338095Y-118252380D01*
X155623809Y-118252380D02*
X155623809Y-117252380D01*
X155528571Y-117395238D01*
X155433333Y-117490476D01*
X155338095Y-117538095D01*
X156385714Y-118252380D02*
X156576190Y-118252380D01*
X156671428Y-118204761D01*
X156719047Y-118157142D01*
X156814285Y-118014285D01*
X156861904Y-117823809D01*
X156861904Y-117442857D01*
X156814285Y-117347619D01*
X156766666Y-117300000D01*
X156671428Y-117252380D01*
X156480952Y-117252380D01*
X156385714Y-117300000D01*
X156338095Y-117347619D01*
X156290476Y-117442857D01*
X156290476Y-117680952D01*
X156338095Y-117776190D01*
X156385714Y-117823809D01*
X156480952Y-117871428D01*
X156671428Y-117871428D01*
X156766666Y-117823809D01*
X156814285Y-117776190D01*
X156861904Y-117680952D01*
%TO.C,R10*%
X136757142Y-121652380D02*
X136423809Y-121176190D01*
X136185714Y-121652380D02*
X136185714Y-120652380D01*
X136566666Y-120652380D01*
X136661904Y-120700000D01*
X136709523Y-120747619D01*
X136757142Y-120842857D01*
X136757142Y-120985714D01*
X136709523Y-121080952D01*
X136661904Y-121128571D01*
X136566666Y-121176190D01*
X136185714Y-121176190D01*
X137709523Y-121652380D02*
X137138095Y-121652380D01*
X137423809Y-121652380D02*
X137423809Y-120652380D01*
X137328571Y-120795238D01*
X137233333Y-120890476D01*
X137138095Y-120938095D01*
X138328571Y-120652380D02*
X138423809Y-120652380D01*
X138519047Y-120700000D01*
X138566666Y-120747619D01*
X138614285Y-120842857D01*
X138661904Y-121033333D01*
X138661904Y-121271428D01*
X138614285Y-121461904D01*
X138566666Y-121557142D01*
X138519047Y-121604761D01*
X138423809Y-121652380D01*
X138328571Y-121652380D01*
X138233333Y-121604761D01*
X138185714Y-121557142D01*
X138138095Y-121461904D01*
X138090476Y-121271428D01*
X138090476Y-121033333D01*
X138138095Y-120842857D01*
X138185714Y-120747619D01*
X138233333Y-120700000D01*
X138328571Y-120652380D01*
%TO.C,C22*%
X136757142Y-124957142D02*
X136709523Y-125004761D01*
X136566666Y-125052380D01*
X136471428Y-125052380D01*
X136328571Y-125004761D01*
X136233333Y-124909523D01*
X136185714Y-124814285D01*
X136138095Y-124623809D01*
X136138095Y-124480952D01*
X136185714Y-124290476D01*
X136233333Y-124195238D01*
X136328571Y-124100000D01*
X136471428Y-124052380D01*
X136566666Y-124052380D01*
X136709523Y-124100000D01*
X136757142Y-124147619D01*
X137138095Y-124147619D02*
X137185714Y-124100000D01*
X137280952Y-124052380D01*
X137519047Y-124052380D01*
X137614285Y-124100000D01*
X137661904Y-124147619D01*
X137709523Y-124242857D01*
X137709523Y-124338095D01*
X137661904Y-124480952D01*
X137090476Y-125052380D01*
X137709523Y-125052380D01*
X138090476Y-124147619D02*
X138138095Y-124100000D01*
X138233333Y-124052380D01*
X138471428Y-124052380D01*
X138566666Y-124100000D01*
X138614285Y-124147619D01*
X138661904Y-124242857D01*
X138661904Y-124338095D01*
X138614285Y-124480952D01*
X138042857Y-125052380D01*
X138661904Y-125052380D01*
%TO.C,C20*%
X154957142Y-124957142D02*
X154909523Y-125004761D01*
X154766666Y-125052380D01*
X154671428Y-125052380D01*
X154528571Y-125004761D01*
X154433333Y-124909523D01*
X154385714Y-124814285D01*
X154338095Y-124623809D01*
X154338095Y-124480952D01*
X154385714Y-124290476D01*
X154433333Y-124195238D01*
X154528571Y-124100000D01*
X154671428Y-124052380D01*
X154766666Y-124052380D01*
X154909523Y-124100000D01*
X154957142Y-124147619D01*
X155338095Y-124147619D02*
X155385714Y-124100000D01*
X155480952Y-124052380D01*
X155719047Y-124052380D01*
X155814285Y-124100000D01*
X155861904Y-124147619D01*
X155909523Y-124242857D01*
X155909523Y-124338095D01*
X155861904Y-124480952D01*
X155290476Y-125052380D01*
X155909523Y-125052380D01*
X156528571Y-124052380D02*
X156623809Y-124052380D01*
X156719047Y-124100000D01*
X156766666Y-124147619D01*
X156814285Y-124242857D01*
X156861904Y-124433333D01*
X156861904Y-124671428D01*
X156814285Y-124861904D01*
X156766666Y-124957142D01*
X156719047Y-125004761D01*
X156623809Y-125052380D01*
X156528571Y-125052380D01*
X156433333Y-125004761D01*
X156385714Y-124957142D01*
X156338095Y-124861904D01*
X156290476Y-124671428D01*
X156290476Y-124433333D01*
X156338095Y-124242857D01*
X156385714Y-124147619D01*
X156433333Y-124100000D01*
X156528571Y-124052380D01*
%TO.C,R9*%
X154933333Y-121652380D02*
X154600000Y-121176190D01*
X154361904Y-121652380D02*
X154361904Y-120652380D01*
X154742857Y-120652380D01*
X154838095Y-120700000D01*
X154885714Y-120747619D01*
X154933333Y-120842857D01*
X154933333Y-120985714D01*
X154885714Y-121080952D01*
X154838095Y-121128571D01*
X154742857Y-121176190D01*
X154361904Y-121176190D01*
X155409523Y-121652380D02*
X155600000Y-121652380D01*
X155695238Y-121604761D01*
X155742857Y-121557142D01*
X155838095Y-121414285D01*
X155885714Y-121223809D01*
X155885714Y-120842857D01*
X155838095Y-120747619D01*
X155790476Y-120700000D01*
X155695238Y-120652380D01*
X155504761Y-120652380D01*
X155409523Y-120700000D01*
X155361904Y-120747619D01*
X155314285Y-120842857D01*
X155314285Y-121080952D01*
X155361904Y-121176190D01*
X155409523Y-121223809D01*
X155504761Y-121271428D01*
X155695238Y-121271428D01*
X155790476Y-121223809D01*
X155838095Y-121176190D01*
X155885714Y-121080952D01*
%TO.C,J1*%
X150733928Y-69361904D02*
X150733928Y-68600000D01*
X151114880Y-67600000D02*
X151114880Y-68171428D01*
X151114880Y-67885714D02*
X150114880Y-67885714D01*
X150257738Y-67980952D01*
X150352976Y-68076190D01*
X150400595Y-68171428D01*
X150210119Y-67219047D02*
X150162500Y-67171428D01*
X150114880Y-67076190D01*
X150114880Y-66838095D01*
X150162500Y-66742857D01*
X150210119Y-66695238D01*
X150305357Y-66647619D01*
X150400595Y-66647619D01*
X150543452Y-66695238D01*
X151114880Y-67266666D01*
X151114880Y-66647619D01*
X150114880Y-66361904D02*
X151114880Y-66028571D01*
X150114880Y-65695238D01*
%TO.C,R11*%
X136757142Y-123352380D02*
X136423809Y-122876190D01*
X136185714Y-123352380D02*
X136185714Y-122352380D01*
X136566666Y-122352380D01*
X136661904Y-122400000D01*
X136709523Y-122447619D01*
X136757142Y-122542857D01*
X136757142Y-122685714D01*
X136709523Y-122780952D01*
X136661904Y-122828571D01*
X136566666Y-122876190D01*
X136185714Y-122876190D01*
X137709523Y-123352380D02*
X137138095Y-123352380D01*
X137423809Y-123352380D02*
X137423809Y-122352380D01*
X137328571Y-122495238D01*
X137233333Y-122590476D01*
X137138095Y-122638095D01*
X138661904Y-123352380D02*
X138090476Y-123352380D01*
X138376190Y-123352380D02*
X138376190Y-122352380D01*
X138280952Y-122495238D01*
X138185714Y-122590476D01*
X138090476Y-122638095D01*
%TO.C,C17*%
X136757142Y-130057142D02*
X136709523Y-130104761D01*
X136566666Y-130152380D01*
X136471428Y-130152380D01*
X136328571Y-130104761D01*
X136233333Y-130009523D01*
X136185714Y-129914285D01*
X136138095Y-129723809D01*
X136138095Y-129580952D01*
X136185714Y-129390476D01*
X136233333Y-129295238D01*
X136328571Y-129200000D01*
X136471428Y-129152380D01*
X136566666Y-129152380D01*
X136709523Y-129200000D01*
X136757142Y-129247619D01*
X137709523Y-130152380D02*
X137138095Y-130152380D01*
X137423809Y-130152380D02*
X137423809Y-129152380D01*
X137328571Y-129295238D01*
X137233333Y-129390476D01*
X137138095Y-129438095D01*
X138042857Y-129152380D02*
X138709523Y-129152380D01*
X138280952Y-130152380D01*
%TO.C,C15*%
X136757142Y-128357142D02*
X136709523Y-128404761D01*
X136566666Y-128452380D01*
X136471428Y-128452380D01*
X136328571Y-128404761D01*
X136233333Y-128309523D01*
X136185714Y-128214285D01*
X136138095Y-128023809D01*
X136138095Y-127880952D01*
X136185714Y-127690476D01*
X136233333Y-127595238D01*
X136328571Y-127500000D01*
X136471428Y-127452380D01*
X136566666Y-127452380D01*
X136709523Y-127500000D01*
X136757142Y-127547619D01*
X137709523Y-128452380D02*
X137138095Y-128452380D01*
X137423809Y-128452380D02*
X137423809Y-127452380D01*
X137328571Y-127595238D01*
X137233333Y-127690476D01*
X137138095Y-127738095D01*
X138614285Y-127452380D02*
X138138095Y-127452380D01*
X138090476Y-127928571D01*
X138138095Y-127880952D01*
X138233333Y-127833333D01*
X138471428Y-127833333D01*
X138566666Y-127880952D01*
X138614285Y-127928571D01*
X138661904Y-128023809D01*
X138661904Y-128261904D01*
X138614285Y-128357142D01*
X138566666Y-128404761D01*
X138471428Y-128452380D01*
X138233333Y-128452380D01*
X138138095Y-128404761D01*
X138090476Y-128357142D01*
%TO.C,L2*%
X133833333Y-138152380D02*
X133357142Y-138152380D01*
X133357142Y-137152380D01*
X134119047Y-137247619D02*
X134166666Y-137200000D01*
X134261904Y-137152380D01*
X134500000Y-137152380D01*
X134595238Y-137200000D01*
X134642857Y-137247619D01*
X134690476Y-137342857D01*
X134690476Y-137438095D01*
X134642857Y-137580952D01*
X134071428Y-138152380D01*
X134690476Y-138152380D01*
%TO.C,R8*%
X154933333Y-119952380D02*
X154600000Y-119476190D01*
X154361904Y-119952380D02*
X154361904Y-118952380D01*
X154742857Y-118952380D01*
X154838095Y-119000000D01*
X154885714Y-119047619D01*
X154933333Y-119142857D01*
X154933333Y-119285714D01*
X154885714Y-119380952D01*
X154838095Y-119428571D01*
X154742857Y-119476190D01*
X154361904Y-119476190D01*
X155504761Y-119380952D02*
X155409523Y-119333333D01*
X155361904Y-119285714D01*
X155314285Y-119190476D01*
X155314285Y-119142857D01*
X155361904Y-119047619D01*
X155409523Y-119000000D01*
X155504761Y-118952380D01*
X155695238Y-118952380D01*
X155790476Y-119000000D01*
X155838095Y-119047619D01*
X155885714Y-119142857D01*
X155885714Y-119190476D01*
X155838095Y-119285714D01*
X155790476Y-119333333D01*
X155695238Y-119380952D01*
X155504761Y-119380952D01*
X155409523Y-119428571D01*
X155361904Y-119476190D01*
X155314285Y-119571428D01*
X155314285Y-119761904D01*
X155361904Y-119857142D01*
X155409523Y-119904761D01*
X155504761Y-119952380D01*
X155695238Y-119952380D01*
X155790476Y-119904761D01*
X155838095Y-119857142D01*
X155885714Y-119761904D01*
X155885714Y-119571428D01*
X155838095Y-119476190D01*
X155790476Y-119428571D01*
X155695238Y-119380952D01*
%TO.C,C3*%
X129133333Y-145957142D02*
X129085714Y-146004761D01*
X128942857Y-146052380D01*
X128847619Y-146052380D01*
X128704761Y-146004761D01*
X128609523Y-145909523D01*
X128561904Y-145814285D01*
X128514285Y-145623809D01*
X128514285Y-145480952D01*
X128561904Y-145290476D01*
X128609523Y-145195238D01*
X128704761Y-145100000D01*
X128847619Y-145052380D01*
X128942857Y-145052380D01*
X129085714Y-145100000D01*
X129133333Y-145147619D01*
X129466666Y-145052380D02*
X130085714Y-145052380D01*
X129752380Y-145433333D01*
X129895238Y-145433333D01*
X129990476Y-145480952D01*
X130038095Y-145528571D01*
X130085714Y-145623809D01*
X130085714Y-145861904D01*
X130038095Y-145957142D01*
X129990476Y-146004761D01*
X129895238Y-146052380D01*
X129609523Y-146052380D01*
X129514285Y-146004761D01*
X129466666Y-145957142D01*
%TO.C,C16*%
X154957142Y-128357142D02*
X154909523Y-128404761D01*
X154766666Y-128452380D01*
X154671428Y-128452380D01*
X154528571Y-128404761D01*
X154433333Y-128309523D01*
X154385714Y-128214285D01*
X154338095Y-128023809D01*
X154338095Y-127880952D01*
X154385714Y-127690476D01*
X154433333Y-127595238D01*
X154528571Y-127500000D01*
X154671428Y-127452380D01*
X154766666Y-127452380D01*
X154909523Y-127500000D01*
X154957142Y-127547619D01*
X155909523Y-128452380D02*
X155338095Y-128452380D01*
X155623809Y-128452380D02*
X155623809Y-127452380D01*
X155528571Y-127595238D01*
X155433333Y-127690476D01*
X155338095Y-127738095D01*
X156766666Y-127452380D02*
X156576190Y-127452380D01*
X156480952Y-127500000D01*
X156433333Y-127547619D01*
X156338095Y-127690476D01*
X156290476Y-127880952D01*
X156290476Y-128261904D01*
X156338095Y-128357142D01*
X156385714Y-128404761D01*
X156480952Y-128452380D01*
X156671428Y-128452380D01*
X156766666Y-128404761D01*
X156814285Y-128357142D01*
X156861904Y-128261904D01*
X156861904Y-128023809D01*
X156814285Y-127928571D01*
X156766666Y-127880952D01*
X156671428Y-127833333D01*
X156480952Y-127833333D01*
X156385714Y-127880952D01*
X156338095Y-127928571D01*
X156290476Y-128023809D01*
%TO.C,R13*%
X136757142Y-118252380D02*
X136423809Y-117776190D01*
X136185714Y-118252380D02*
X136185714Y-117252380D01*
X136566666Y-117252380D01*
X136661904Y-117300000D01*
X136709523Y-117347619D01*
X136757142Y-117442857D01*
X136757142Y-117585714D01*
X136709523Y-117680952D01*
X136661904Y-117728571D01*
X136566666Y-117776190D01*
X136185714Y-117776190D01*
X137709523Y-118252380D02*
X137138095Y-118252380D01*
X137423809Y-118252380D02*
X137423809Y-117252380D01*
X137328571Y-117395238D01*
X137233333Y-117490476D01*
X137138095Y-117538095D01*
X138042857Y-117252380D02*
X138661904Y-117252380D01*
X138328571Y-117633333D01*
X138471428Y-117633333D01*
X138566666Y-117680952D01*
X138614285Y-117728571D01*
X138661904Y-117823809D01*
X138661904Y-118061904D01*
X138614285Y-118157142D01*
X138566666Y-118204761D01*
X138471428Y-118252380D01*
X138185714Y-118252380D01*
X138090476Y-118204761D01*
X138042857Y-118157142D01*
%TO.C,R7*%
X154933333Y-123352380D02*
X154600000Y-122876190D01*
X154361904Y-123352380D02*
X154361904Y-122352380D01*
X154742857Y-122352380D01*
X154838095Y-122400000D01*
X154885714Y-122447619D01*
X154933333Y-122542857D01*
X154933333Y-122685714D01*
X154885714Y-122780952D01*
X154838095Y-122828571D01*
X154742857Y-122876190D01*
X154361904Y-122876190D01*
X155266666Y-122352380D02*
X155933333Y-122352380D01*
X155504761Y-123352380D01*
%TO.C,C18*%
X154957142Y-126657142D02*
X154909523Y-126704761D01*
X154766666Y-126752380D01*
X154671428Y-126752380D01*
X154528571Y-126704761D01*
X154433333Y-126609523D01*
X154385714Y-126514285D01*
X154338095Y-126323809D01*
X154338095Y-126180952D01*
X154385714Y-125990476D01*
X154433333Y-125895238D01*
X154528571Y-125800000D01*
X154671428Y-125752380D01*
X154766666Y-125752380D01*
X154909523Y-125800000D01*
X154957142Y-125847619D01*
X155909523Y-126752380D02*
X155338095Y-126752380D01*
X155623809Y-126752380D02*
X155623809Y-125752380D01*
X155528571Y-125895238D01*
X155433333Y-125990476D01*
X155338095Y-126038095D01*
X156480952Y-126180952D02*
X156385714Y-126133333D01*
X156338095Y-126085714D01*
X156290476Y-125990476D01*
X156290476Y-125942857D01*
X156338095Y-125847619D01*
X156385714Y-125800000D01*
X156480952Y-125752380D01*
X156671428Y-125752380D01*
X156766666Y-125800000D01*
X156814285Y-125847619D01*
X156861904Y-125942857D01*
X156861904Y-125990476D01*
X156814285Y-126085714D01*
X156766666Y-126133333D01*
X156671428Y-126180952D01*
X156480952Y-126180952D01*
X156385714Y-126228571D01*
X156338095Y-126276190D01*
X156290476Y-126371428D01*
X156290476Y-126561904D01*
X156338095Y-126657142D01*
X156385714Y-126704761D01*
X156480952Y-126752380D01*
X156671428Y-126752380D01*
X156766666Y-126704761D01*
X156814285Y-126657142D01*
X156861904Y-126561904D01*
X156861904Y-126371428D01*
X156814285Y-126276190D01*
X156766666Y-126228571D01*
X156671428Y-126180952D01*
D12*
%TO.C,R5*%
X152837258Y-131922500D02*
X152362742Y-131922500D01*
X152837258Y-130877500D02*
X152362742Y-130877500D01*
%TO.C,D5*%
X128620000Y-75510000D02*
X128464000Y-75510000D01*
X130936000Y-75510000D02*
X130780000Y-75510000D01*
X130778608Y-78742335D02*
G75*
G03*
X130935516Y-75510000I-1078609J1672335D01*
G01*
X128620000Y-76029039D02*
G75*
G03*
X128620163Y-78111130I1080000J-1040961D01*
G01*
X128464484Y-75510000D02*
G75*
G03*
X128621392Y-78742335I1235517J-1560000D01*
G01*
X130779837Y-78111130D02*
G75*
G03*
X130780000Y-76029039I-1079837J1041130D01*
G01*
%TO.C,C8*%
X130840580Y-151010000D02*
X130559420Y-151010000D01*
X130840580Y-149990000D02*
X130559420Y-149990000D01*
%TO.C,R2*%
X140162742Y-130877500D02*
X140637258Y-130877500D01*
X140162742Y-131922500D02*
X140637258Y-131922500D01*
%TO.C,D3*%
X128933750Y-141080000D02*
X128933750Y-141236000D01*
X128933750Y-138764000D02*
X128933750Y-138920000D01*
X129452789Y-141080000D02*
G75*
G03*
X131534880Y-141079837I1040961J1080000D01*
G01*
X131534880Y-138920163D02*
G75*
G03*
X129452789Y-138920000I-1041130J-1079837D01*
G01*
X128933750Y-141235516D02*
G75*
G03*
X132166085Y-141078608I1560000J1235517D01*
G01*
X132166085Y-138921392D02*
G75*
G03*
X128933750Y-138764484I-1672335J-1078609D01*
G01*
%TO.C,Y1*%
X134090000Y-153710000D02*
X134310000Y-153710000D01*
X132660000Y-153100000D02*
X132660000Y-153890000D01*
X134090000Y-151490000D02*
X134310000Y-151490000D01*
X133450000Y-153890000D02*
X132660000Y-153890000D01*
%TO.C,C2*%
X138990000Y-140740580D02*
X138990000Y-140459420D01*
X140010000Y-140740580D02*
X140010000Y-140459420D01*
%TO.C,C7*%
X136410000Y-140459420D02*
X136410000Y-140740580D01*
X135390000Y-140459420D02*
X135390000Y-140740580D01*
%TO.C,C4*%
X139310000Y-152359420D02*
X139310000Y-152640580D01*
X138290000Y-152359420D02*
X138290000Y-152640580D01*
%TO.C,D4*%
X130936000Y-57435000D02*
X130780000Y-57435000D01*
X128620000Y-57435000D02*
X128464000Y-57435000D01*
X130778608Y-60667335D02*
G75*
G03*
X130935516Y-57435000I-1078609J1672335D01*
G01*
X128464484Y-57435000D02*
G75*
G03*
X128621392Y-60667335I1235517J-1560000D01*
G01*
X128620000Y-57954039D02*
G75*
G03*
X128620163Y-60036130I1080000J-1040961D01*
G01*
X130779837Y-60036130D02*
G75*
G03*
X130780000Y-57954039I-1079837J1041130D01*
G01*
%TO.C,R4*%
X152837258Y-133622500D02*
X152362742Y-133622500D01*
X152837258Y-132577500D02*
X152362742Y-132577500D01*
%TO.C,D6*%
X130936000Y-93510000D02*
X130780000Y-93510000D01*
X128620000Y-93510000D02*
X128464000Y-93510000D01*
X128620000Y-94029039D02*
G75*
G03*
X128620163Y-96111130I1080000J-1040961D01*
G01*
X130779837Y-96111130D02*
G75*
G03*
X130780000Y-94029039I-1079837J1041130D01*
G01*
X128464484Y-93510000D02*
G75*
G03*
X128621392Y-96742335I1235517J-1560000D01*
G01*
X130778608Y-96742335D02*
G75*
G03*
X130935516Y-93510000I-1078609J1672335D01*
G01*
%TO.C,R12*%
X140162742Y-116622500D02*
X140637258Y-116622500D01*
X140162742Y-115577500D02*
X140637258Y-115577500D01*
D11*
%TO.C,J2*%
X159230000Y-143650000D02*
X161770000Y-143650000D01*
X159230000Y-133490000D02*
X159230000Y-143650000D01*
X161770000Y-143650000D02*
X161770000Y-133490000D01*
X161770000Y-133490000D02*
X159230000Y-133490000D01*
D12*
%TO.C,D1*%
X158700000Y-92937500D02*
X160700000Y-92937500D01*
X160700000Y-92937500D02*
X160700000Y-89037500D01*
X158700000Y-92937500D02*
X158700000Y-89037500D01*
%TO.C,J3*%
X161365000Y-145850000D02*
X161365000Y-154550000D01*
X156185000Y-154550000D02*
X156185000Y-145850000D01*
X156185000Y-145850000D02*
X162595000Y-145850000D01*
X162595000Y-154550000D02*
X162595000Y-145850000D01*
X162595000Y-154550000D02*
X156185000Y-154550000D01*
%TO.C,C11*%
X152940000Y-61695563D02*
X152940000Y-58240000D01*
X157460000Y-61695563D02*
X157460000Y-58240000D01*
X156395563Y-62760000D02*
X156260000Y-62760000D01*
X152940000Y-58240000D02*
X154140000Y-58240000D01*
X156395563Y-62760000D02*
X157460000Y-61695563D01*
X154004437Y-62760000D02*
X152940000Y-61695563D01*
X154004437Y-62760000D02*
X154140000Y-62760000D01*
X153390000Y-63250000D02*
X153890000Y-63250000D01*
X153640000Y-63500000D02*
X153640000Y-63000000D01*
X157460000Y-58240000D02*
X156260000Y-58240000D01*
%TO.C,C6*%
X142759420Y-147290000D02*
X143040580Y-147290000D01*
X142759420Y-148310000D02*
X143040580Y-148310000D01*
%TO.C,R16*%
X140162742Y-113877500D02*
X140637258Y-113877500D01*
X140162742Y-114922500D02*
X140637258Y-114922500D01*
%TO.C,C1*%
X140790000Y-140740580D02*
X140790000Y-140459420D01*
X141810000Y-140740580D02*
X141810000Y-140459420D01*
%TO.C,C14*%
X154540000Y-108154437D02*
X154540000Y-112610000D01*
X155604437Y-107090000D02*
X154540000Y-108154437D01*
X155604437Y-107090000D02*
X156240000Y-107090000D01*
X160060000Y-112610000D02*
X158360000Y-112610000D01*
X158995563Y-107090000D02*
X160060000Y-108154437D01*
X154540000Y-112610000D02*
X156240000Y-112610000D01*
X159297500Y-106537500D02*
X158672500Y-106537500D01*
X158985000Y-106225000D02*
X158985000Y-106850000D01*
X160060000Y-108154437D02*
X160060000Y-112610000D01*
X158995563Y-107090000D02*
X158360000Y-107090000D01*
%TO.C,C12*%
X132160000Y-147477836D02*
X132160000Y-147262164D01*
X131440000Y-147477836D02*
X131440000Y-147262164D01*
D13*
%TO.C,J5*%
X126100000Y-90500000D02*
X136100000Y-90500000D01*
X143600000Y-79500000D02*
X126100000Y-79500000D01*
X143600000Y-90500000D02*
X143600000Y-79500000D01*
X141100000Y-90500000D02*
X143600000Y-90500000D01*
D12*
%TO.C,C21*%
X140234420Y-118990000D02*
X140515580Y-118990000D01*
X140234420Y-120010000D02*
X140515580Y-120010000D01*
%TO.C,C5*%
X142778170Y-143290000D02*
X143059330Y-143290000D01*
X142778170Y-144310000D02*
X143059330Y-144310000D01*
%TO.C,R17*%
X130601492Y-143732500D02*
X131076008Y-143732500D01*
X130601492Y-142687500D02*
X131076008Y-142687500D01*
%TO.C,R6*%
X140162742Y-132577500D02*
X140637258Y-132577500D01*
X140162742Y-133622500D02*
X140637258Y-133622500D01*
D13*
%TO.C,J6*%
X143600000Y-108500000D02*
X143600000Y-97500000D01*
X143600000Y-97500000D02*
X126100000Y-97500000D01*
X141100000Y-108500000D02*
X143600000Y-108500000D01*
X126100000Y-108500000D02*
X136100000Y-108500000D01*
D12*
%TO.C,R3*%
X152837258Y-129177500D02*
X152362742Y-129177500D01*
X152837258Y-130222500D02*
X152362742Y-130222500D01*
%TO.C,R15*%
X140637258Y-126822500D02*
X140162742Y-126822500D01*
X140637258Y-125777500D02*
X140162742Y-125777500D01*
%TO.C,U1*%
X132990000Y-142990000D02*
X133465000Y-142990000D01*
X140210000Y-149735000D02*
X140210000Y-150210000D01*
X132990000Y-143465000D02*
X132990000Y-142990000D01*
X132990000Y-150210000D02*
X133465000Y-150210000D01*
X140210000Y-150210000D02*
X139735000Y-150210000D01*
X140210000Y-143465000D02*
X140210000Y-142990000D01*
X132990000Y-149735000D02*
X132990000Y-150210000D01*
%TO.C,CONNECT1*%
X132200000Y-125510000D02*
X132710000Y-125510000D01*
X129370000Y-125510000D02*
X129600000Y-125510000D01*
X129370000Y-130550000D02*
X129370000Y-127150000D01*
X125700000Y-132710000D02*
X125700000Y-124990000D01*
X129370000Y-132190000D02*
X129370000Y-131650000D01*
X129370000Y-132190000D02*
X129600000Y-132190000D01*
X132710000Y-132710000D02*
X132710000Y-132190000D01*
X132710000Y-125510000D02*
X132710000Y-124990000D01*
X125700000Y-132710000D02*
X129600000Y-132710000D01*
X132200000Y-132710000D02*
X132710000Y-132710000D01*
X132200000Y-124990000D02*
X132710000Y-124990000D01*
X132200000Y-132190000D02*
X132710000Y-132190000D01*
X125700000Y-124990000D02*
X129600000Y-124990000D01*
X129370000Y-126050000D02*
X129370000Y-125510000D01*
%TO.C,D2*%
X160700000Y-62750000D02*
X160700000Y-58850000D01*
X158700000Y-62750000D02*
X158700000Y-58850000D01*
X158700000Y-62750000D02*
X160700000Y-62750000D01*
%TO.C,R14*%
X152837258Y-116622500D02*
X152362742Y-116622500D01*
X152837258Y-115577500D02*
X152362742Y-115577500D01*
%TO.C,C19*%
X152459420Y-117290000D02*
X152740580Y-117290000D01*
X152459420Y-118310000D02*
X152740580Y-118310000D01*
%TO.C,U2*%
X153890000Y-98400000D02*
X153890000Y-102160000D01*
X153890000Y-102160000D02*
X155150000Y-102160000D01*
X160710000Y-96150000D02*
X160710000Y-102160000D01*
X160710000Y-102160000D02*
X159450000Y-102160000D01*
%TO.C,R10*%
X140137742Y-120677500D02*
X140612258Y-120677500D01*
X140137742Y-121722500D02*
X140612258Y-121722500D01*
%TO.C,C22*%
X140259420Y-124090000D02*
X140540580Y-124090000D01*
X140259420Y-125110000D02*
X140540580Y-125110000D01*
%TO.C,R1*%
X137177500Y-140362742D02*
X137177500Y-140837258D01*
X138222500Y-140362742D02*
X138222500Y-140837258D01*
%TO.C,C20*%
X152740580Y-124090000D02*
X152459420Y-124090000D01*
X152740580Y-125110000D02*
X152459420Y-125110000D01*
%TO.C,R9*%
X152837258Y-121722500D02*
X152362742Y-121722500D01*
X152837258Y-120677500D02*
X152362742Y-120677500D01*
D11*
%TO.C,J1*%
X161502500Y-83310000D02*
X161302500Y-83310000D01*
X152362500Y-73355000D02*
X153662500Y-73355000D01*
X161502500Y-67850000D02*
X161502500Y-68350000D01*
X161302500Y-85730000D02*
X152362500Y-85730000D01*
X160002500Y-66630000D02*
X160002500Y-84530000D01*
X161402500Y-67850000D02*
X161402500Y-68350000D01*
X160002500Y-84530000D02*
X153662500Y-84530000D01*
X161302500Y-75330000D02*
X161502500Y-75330000D01*
X152362500Y-85730000D02*
X152362500Y-65430000D01*
X153662500Y-84530000D02*
X153662500Y-77805000D01*
X161302500Y-82810000D02*
X161502500Y-82810000D01*
X161502500Y-82810000D02*
X161502500Y-83310000D01*
X161302500Y-65430000D02*
X161302500Y-85730000D01*
X152362500Y-65430000D02*
X161302500Y-65430000D01*
X161502500Y-68350000D02*
X161302500Y-68350000D01*
X161502500Y-75830000D02*
X161302500Y-75830000D01*
X161502500Y-75330000D02*
X161502500Y-75830000D01*
X153662500Y-66630000D02*
X160002500Y-66630000D01*
X153662500Y-77805000D02*
X152362500Y-77805000D01*
X161402500Y-75330000D02*
X161402500Y-75830000D01*
X161402500Y-82810000D02*
X161402500Y-83310000D01*
X161302500Y-67850000D02*
X161502500Y-67850000D01*
X153662500Y-73355000D02*
X153662500Y-66630000D01*
D14*
X161762500Y-69500000D02*
X161762500Y-71500000D01*
X161762500Y-71500000D02*
X151862500Y-71500000D01*
X151862500Y-71500000D02*
X151862500Y-69500000D01*
X151862500Y-69500000D02*
X161762500Y-69500000D01*
G36*
X161762500Y-71500000D02*
G01*
X151862500Y-71500000D01*
X151862500Y-69500000D01*
X161762500Y-69500000D01*
X161762500Y-71500000D01*
G37*
X161762500Y-71500000D02*
X151862500Y-71500000D01*
X151862500Y-69500000D01*
X161762500Y-69500000D01*
X161762500Y-71500000D01*
D12*
%TO.C,C9*%
X131407836Y-148840000D02*
X131192164Y-148840000D01*
X131407836Y-149560000D02*
X131192164Y-149560000D01*
%TO.C,U4*%
X146500000Y-114440000D02*
X148450000Y-114440000D01*
X146500000Y-119560000D02*
X144550000Y-119560000D01*
X146500000Y-114440000D02*
X143050000Y-114440000D01*
X146500000Y-119560000D02*
X148450000Y-119560000D01*
%TO.C,R11*%
X140162742Y-123422500D02*
X140637258Y-123422500D01*
X140162742Y-122377500D02*
X140637258Y-122377500D01*
%TO.C,C10*%
X157460000Y-91883063D02*
X157460000Y-88427500D01*
X154004437Y-92947500D02*
X152940000Y-91883063D01*
X153390000Y-93437500D02*
X153890000Y-93437500D01*
X157460000Y-88427500D02*
X156260000Y-88427500D01*
X156395563Y-92947500D02*
X156260000Y-92947500D01*
X156395563Y-92947500D02*
X157460000Y-91883063D01*
X154004437Y-92947500D02*
X154140000Y-92947500D01*
X153640000Y-93687500D02*
X153640000Y-93187500D01*
X152940000Y-88427500D02*
X154140000Y-88427500D01*
X152940000Y-91883063D02*
X152940000Y-88427500D01*
%TO.C,RESET1*%
X132710000Y-118710000D02*
X132710000Y-118190000D01*
X129370000Y-112050000D02*
X129370000Y-111510000D01*
X125700000Y-118710000D02*
X129600000Y-118710000D01*
X129370000Y-118190000D02*
X129370000Y-117650000D01*
X132200000Y-110990000D02*
X132710000Y-110990000D01*
X132200000Y-118710000D02*
X132710000Y-118710000D01*
X129370000Y-118190000D02*
X129600000Y-118190000D01*
X125700000Y-118710000D02*
X125700000Y-110990000D01*
X129370000Y-116550000D02*
X129370000Y-113150000D01*
X132710000Y-111510000D02*
X132710000Y-110990000D01*
X132200000Y-111510000D02*
X132710000Y-111510000D01*
X125700000Y-110990000D02*
X129600000Y-110990000D01*
X132200000Y-118190000D02*
X132710000Y-118190000D01*
X129370000Y-111510000D02*
X129600000Y-111510000D01*
%TO.C,C17*%
X140540580Y-129190000D02*
X140259420Y-129190000D01*
X140540580Y-130210000D02*
X140259420Y-130210000D01*
%TO.C,C15*%
X140259420Y-128510000D02*
X140540580Y-128510000D01*
X140259420Y-127490000D02*
X140540580Y-127490000D01*
%TO.C,L2*%
X136319128Y-138160000D02*
X137118372Y-138160000D01*
X136319128Y-137040000D02*
X137118372Y-137040000D01*
%TO.C,R8*%
X152837258Y-120022500D02*
X152362742Y-120022500D01*
X152837258Y-118977500D02*
X152362742Y-118977500D01*
%TO.C,C3*%
X131407836Y-145960000D02*
X131192164Y-145960000D01*
X131407836Y-145240000D02*
X131192164Y-145240000D01*
%TO.C,C13*%
X129160000Y-147447836D02*
X129160000Y-147232164D01*
X128440000Y-147447836D02*
X128440000Y-147232164D01*
%TO.C,C16*%
X152740580Y-127490000D02*
X152459420Y-127490000D01*
X152740580Y-128510000D02*
X152459420Y-128510000D01*
%TO.C,R13*%
X140162742Y-117277500D02*
X140637258Y-117277500D01*
X140162742Y-118322500D02*
X140637258Y-118322500D01*
%TO.C,U3*%
X146500000Y-124065000D02*
X144550000Y-124065000D01*
X146500000Y-132935000D02*
X149950000Y-132935000D01*
X146500000Y-124065000D02*
X148450000Y-124065000D01*
X146500000Y-132935000D02*
X144550000Y-132935000D01*
D13*
%TO.C,J4*%
X143600000Y-61500000D02*
X126100000Y-61500000D01*
X126100000Y-72500000D02*
X136100000Y-72500000D01*
X141100000Y-72500000D02*
X143600000Y-72500000D01*
X143600000Y-72500000D02*
X143600000Y-61500000D01*
D12*
%TO.C,AE1*%
X122325000Y-139600000D02*
X125525000Y-139600000D01*
X125525000Y-146800000D02*
X124225000Y-146800000D01*
X123525000Y-146800000D02*
X122325000Y-146800000D01*
X122325000Y-146800000D02*
X122325000Y-139600000D01*
X125525000Y-139600000D02*
X125525000Y-146800000D01*
D15*
X124096421Y-144450000D02*
G75*
G03*
X124096421Y-144450000I-171421J0D01*
G01*
D12*
%TO.C,R7*%
X152837258Y-122377500D02*
X152362742Y-122377500D01*
X152837258Y-123422500D02*
X152362742Y-123422500D01*
%TO.C,C18*%
X152740580Y-126810000D02*
X152459420Y-126810000D01*
X152740580Y-125790000D02*
X152459420Y-125790000D01*
%TD*%
M02*
