%TF.GenerationSoftware,KiCad,Pcbnew,(6.0.1)*%
%TF.CreationDate,2022-03-12T16:38:44+00:00*%
%TF.ProjectId,Ball_Base_Components,42616c6c-5f42-4617-9365-5f436f6d706f,rev?*%
%TF.SameCoordinates,Original*%
%TF.FileFunction,Soldermask,Top*%
%TF.FilePolarity,Negative*%
%FSLAX46Y46*%
G04 Gerber Fmt 4.6, Leading zero omitted, Abs format (unit mm)*
G04 Created by KiCad (PCBNEW (6.0.1)) date 2022-03-12 16:38:44*
%MOMM*%
%LPD*%
G01*
G04 APERTURE LIST*
G04 Aperture macros list*
%AMRoundRect*
0 Rectangle with rounded corners*
0 $1 Rounding radius*
0 $2 $3 $4 $5 $6 $7 $8 $9 X,Y pos of 4 corners*
0 Add a 4 corners polygon primitive as box body*
4,1,4,$2,$3,$4,$5,$6,$7,$8,$9,$2,$3,0*
0 Add four circle primitives for the rounded corners*
1,1,$1+$1,$2,$3*
1,1,$1+$1,$4,$5*
1,1,$1+$1,$6,$7*
1,1,$1+$1,$8,$9*
0 Add four rect primitives between the rounded corners*
20,1,$1+$1,$2,$3,$4,$5,0*
20,1,$1+$1,$4,$5,$6,$7,0*
20,1,$1+$1,$6,$7,$8,$9,0*
20,1,$1+$1,$8,$9,$2,$3,0*%
%AMFreePoly0*
4,1,21,4.785355,0.185355,4.800000,0.150000,4.800000,-1.300000,5.800000,-1.300000,5.835355,-1.314645,5.850000,-1.350000,5.850000,-2.750000,5.835355,-2.785355,5.800000,-2.800000,3.300000,-2.800000,3.264645,-2.785355,3.250000,-2.750000,3.250000,-1.350000,3.264645,-1.314645,3.300000,-1.300000,4.300000,-1.300000,4.300000,-0.200000,-0.100000,-0.200000,-0.100000,0.200000,4.750000,0.200000,
4.785355,0.185355,4.785355,0.185355,$1*%
G04 Aperture macros list end*
%ADD10C,0.150000*%
%ADD11C,0.100000*%
%ADD12RoundRect,0.200000X0.200000X0.275000X-0.200000X0.275000X-0.200000X-0.275000X0.200000X-0.275000X0*%
%ADD13R,1.800000X1.800000*%
%ADD14C,1.800000*%
%ADD15RoundRect,0.225000X0.225000X0.250000X-0.225000X0.250000X-0.225000X-0.250000X0.225000X-0.250000X0*%
%ADD16RoundRect,0.200000X-0.200000X-0.275000X0.200000X-0.275000X0.200000X0.275000X-0.200000X0.275000X0*%
%ADD17R,0.900000X0.800000*%
%ADD18RoundRect,0.225000X0.250000X-0.225000X0.250000X0.225000X-0.250000X0.225000X-0.250000X-0.225000X0*%
%ADD19RoundRect,0.225000X-0.250000X0.225000X-0.250000X-0.225000X0.250000X-0.225000X0.250000X0.225000X0*%
%ADD20C,2.000000*%
%ADD21R,1.700000X1.700000*%
%ADD22C,1.700000*%
%ADD23R,1.200000X0.900000*%
%ADD24O,0.950000X1.250000*%
%ADD25O,1.550000X1.000000*%
%ADD26R,1.350000X0.400000*%
%ADD27RoundRect,0.250000X0.550000X-1.050000X0.550000X1.050000X-0.550000X1.050000X-0.550000X-1.050000X0*%
%ADD28RoundRect,0.225000X-0.225000X-0.250000X0.225000X-0.250000X0.225000X0.250000X-0.225000X0.250000X0*%
%ADD29RoundRect,0.250000X-0.550000X1.250000X-0.550000X-1.250000X0.550000X-1.250000X0.550000X1.250000X0*%
%ADD30RoundRect,0.140000X0.170000X-0.140000X0.170000X0.140000X-0.170000X0.140000X-0.170000X-0.140000X0*%
%ADD31RoundRect,0.725000X-0.725000X1.575000X-0.725000X-1.575000X0.725000X-1.575000X0.725000X1.575000X0*%
%ADD32O,4.600000X2.500000*%
%ADD33RoundRect,0.062500X-0.062500X0.375000X-0.062500X-0.375000X0.062500X-0.375000X0.062500X0.375000X0*%
%ADD34RoundRect,0.062500X-0.375000X0.062500X-0.375000X-0.062500X0.375000X-0.062500X0.375000X0.062500X0*%
%ADD35R,5.150000X5.150000*%
%ADD36C,2.100000*%
%ADD37C,1.750000*%
%ADD38R,1.500000X2.000000*%
%ADD39R,3.800000X2.000000*%
%ADD40RoundRect,0.200000X-0.275000X0.200000X-0.275000X-0.200000X0.275000X-0.200000X0.275000X0.200000X0*%
%ADD41RoundRect,0.147500X0.147500X0.172500X-0.147500X0.172500X-0.147500X-0.172500X0.147500X-0.172500X0*%
%ADD42RoundRect,0.140000X0.140000X0.170000X-0.140000X0.170000X-0.140000X-0.170000X0.140000X-0.170000X0*%
%ADD43RoundRect,0.150000X-0.825000X-0.150000X0.825000X-0.150000X0.825000X0.150000X-0.825000X0.150000X0*%
%ADD44RoundRect,0.218750X-0.218750X-0.381250X0.218750X-0.381250X0.218750X0.381250X-0.218750X0.381250X0*%
%ADD45RoundRect,0.150000X0.825000X0.150000X-0.825000X0.150000X-0.825000X-0.150000X0.825000X-0.150000X0*%
%ADD46FreePoly0,180.000000*%
%ADD47R,2.600000X1.500000*%
G04 APERTURE END LIST*
D10*
X152700000Y-101450000D02*
X162100000Y-101450000D01*
X162100000Y-101450000D02*
X162100000Y-109100000D01*
X162100000Y-109100000D02*
X152700000Y-109100000D01*
X152700000Y-109100000D02*
X152700000Y-101450000D01*
G36*
X152700000Y-101450000D02*
G01*
X162100000Y-101450000D01*
X162100000Y-109100000D01*
X152700000Y-109100000D01*
X152700000Y-101450000D01*
G37*
D11*
%TO.C,FID1*%
X148400000Y-59300000D02*
X140400000Y-59300000D01*
X140400000Y-59300000D02*
X140400000Y-57300000D01*
X140400000Y-57300000D02*
X148400000Y-57300000D01*
X148400000Y-57300000D02*
X148400000Y-59300000D01*
G36*
X148400000Y-59300000D02*
G01*
X140400000Y-59300000D01*
X140400000Y-57300000D01*
X148400000Y-57300000D01*
X148400000Y-59300000D01*
G37*
X148400000Y-59300000D02*
X140400000Y-59300000D01*
X140400000Y-57300000D01*
X148400000Y-57300000D01*
X148400000Y-59300000D01*
%TD*%
D12*
%TO.C,R5*%
X153425000Y-131400000D03*
X151775000Y-131400000D03*
%TD*%
D13*
%TO.C,D5*%
X129700000Y-75800000D03*
D14*
X129700000Y-78340000D03*
%TD*%
D15*
%TO.C,C8*%
X131475000Y-150500000D03*
X129925000Y-150500000D03*
%TD*%
D16*
%TO.C,R2*%
X139575000Y-131400000D03*
X141225000Y-131400000D03*
%TD*%
D13*
%TO.C,D3*%
X129223750Y-140000000D03*
D14*
X131763750Y-140000000D03*
%TD*%
D17*
%TO.C,Y1*%
X133375000Y-153225000D03*
X135025000Y-153225000D03*
X135025000Y-151975000D03*
X133375000Y-151975000D03*
%TD*%
D18*
%TO.C,C2*%
X139500000Y-141375000D03*
X139500000Y-139825000D03*
%TD*%
D19*
%TO.C,C7*%
X135900000Y-139825000D03*
X135900000Y-141375000D03*
%TD*%
D20*
%TO.C,TP3*%
X149300000Y-94000000D03*
%TD*%
D19*
%TO.C,C4*%
X138800000Y-151725000D03*
X138800000Y-153275000D03*
%TD*%
D13*
%TO.C,D4*%
X129700000Y-57725000D03*
D14*
X129700000Y-60265000D03*
%TD*%
D12*
%TO.C,R4*%
X153425000Y-133100000D03*
X151775000Y-133100000D03*
%TD*%
D13*
%TO.C,D6*%
X129700000Y-93800000D03*
D14*
X129700000Y-96340000D03*
%TD*%
D16*
%TO.C,R12*%
X139575000Y-116100000D03*
X141225000Y-116100000D03*
%TD*%
D20*
%TO.C,TP2*%
X160500000Y-117500000D03*
%TD*%
D21*
%TO.C,J2*%
X160500000Y-142380000D03*
D22*
X160500000Y-139840000D03*
X160500000Y-137300000D03*
X160500000Y-134760000D03*
%TD*%
D23*
%TO.C,D1*%
X159700000Y-92337500D03*
X159700000Y-89037500D03*
%TD*%
D24*
%TO.C,J3*%
X157215000Y-152700000D03*
X157215000Y-147700000D03*
D25*
X159915000Y-146700000D03*
D26*
X157215000Y-151500000D03*
X157215000Y-150850000D03*
X157215000Y-150200000D03*
X157215000Y-149550000D03*
X157215000Y-148900000D03*
D25*
X159915000Y-153700000D03*
%TD*%
D27*
%TO.C,C11*%
X155200000Y-62300000D03*
X155200000Y-58700000D03*
%TD*%
D28*
%TO.C,C6*%
X142125000Y-147800000D03*
X143675000Y-147800000D03*
%TD*%
D16*
%TO.C,R16*%
X139575000Y-114400000D03*
X141225000Y-114400000D03*
%TD*%
D18*
%TO.C,C1*%
X141300000Y-141375000D03*
X141300000Y-139825000D03*
%TD*%
D29*
%TO.C,C14*%
X157300000Y-107650000D03*
X157300000Y-112050000D03*
%TD*%
D30*
%TO.C,C12*%
X131800000Y-147850000D03*
X131800000Y-146890000D03*
%TD*%
D31*
%TO.C,J5*%
X127600000Y-85000000D03*
D32*
X138600000Y-90200000D03*
D31*
X140800000Y-85000000D03*
%TD*%
D20*
%TO.C,TP1*%
X160500000Y-124600000D03*
%TD*%
D28*
%TO.C,C21*%
X139600000Y-119500000D03*
X141150000Y-119500000D03*
%TD*%
%TO.C,C5*%
X142143750Y-143800000D03*
X143693750Y-143800000D03*
%TD*%
D16*
%TO.C,R17*%
X130013750Y-143210000D03*
X131663750Y-143210000D03*
%TD*%
%TO.C,R6*%
X139575000Y-133100000D03*
X141225000Y-133100000D03*
%TD*%
D31*
%TO.C,J6*%
X127600000Y-103000000D03*
D32*
X138600000Y-108200000D03*
D31*
X140800000Y-103000000D03*
%TD*%
D12*
%TO.C,R3*%
X153425000Y-129700000D03*
X151775000Y-129700000D03*
%TD*%
%TO.C,R15*%
X141225000Y-126300000D03*
X139575000Y-126300000D03*
%TD*%
D33*
%TO.C,U1*%
X139350000Y-143162500D03*
X138850000Y-143162500D03*
X138350000Y-143162500D03*
X137850000Y-143162500D03*
X137350000Y-143162500D03*
X136850000Y-143162500D03*
X136350000Y-143162500D03*
X135850000Y-143162500D03*
X135350000Y-143162500D03*
X134850000Y-143162500D03*
X134350000Y-143162500D03*
X133850000Y-143162500D03*
D34*
X133162500Y-143850000D03*
X133162500Y-144350000D03*
X133162500Y-144850000D03*
X133162500Y-145350000D03*
X133162500Y-145850000D03*
X133162500Y-146350000D03*
X133162500Y-146850000D03*
X133162500Y-147350000D03*
X133162500Y-147850000D03*
X133162500Y-148350000D03*
X133162500Y-148850000D03*
X133162500Y-149350000D03*
D33*
X133850000Y-150037500D03*
X134350000Y-150037500D03*
X134850000Y-150037500D03*
X135350000Y-150037500D03*
X135850000Y-150037500D03*
X136350000Y-150037500D03*
X136850000Y-150037500D03*
X137350000Y-150037500D03*
X137850000Y-150037500D03*
X138350000Y-150037500D03*
X138850000Y-150037500D03*
X139350000Y-150037500D03*
D34*
X140037500Y-149350000D03*
X140037500Y-148850000D03*
X140037500Y-148350000D03*
X140037500Y-147850000D03*
X140037500Y-147350000D03*
X140037500Y-146850000D03*
X140037500Y-146350000D03*
X140037500Y-145850000D03*
X140037500Y-145350000D03*
X140037500Y-144850000D03*
X140037500Y-144350000D03*
X140037500Y-143850000D03*
D35*
X136600000Y-146600000D03*
%TD*%
D36*
%TO.C,CONNECT1*%
X130890000Y-125340000D03*
X130890000Y-132350000D03*
D37*
X128400000Y-131100000D03*
X128400000Y-126600000D03*
%TD*%
D23*
%TO.C,D2*%
X159700000Y-62150000D03*
X159700000Y-58850000D03*
%TD*%
D12*
%TO.C,R14*%
X153425000Y-116100000D03*
X151775000Y-116100000D03*
%TD*%
D28*
%TO.C,C19*%
X151825000Y-117800000D03*
X153375000Y-117800000D03*
%TD*%
D38*
%TO.C,U2*%
X159600000Y-97100000D03*
D39*
X157300000Y-103400000D03*
D38*
X157300000Y-97100000D03*
X155000000Y-97100000D03*
%TD*%
D16*
%TO.C,R10*%
X139550000Y-121200000D03*
X141200000Y-121200000D03*
%TD*%
D28*
%TO.C,C22*%
X139625000Y-124600000D03*
X141175000Y-124600000D03*
%TD*%
D40*
%TO.C,R1*%
X137700000Y-139775000D03*
X137700000Y-141425000D03*
%TD*%
D15*
%TO.C,C20*%
X153375000Y-124600000D03*
X151825000Y-124600000D03*
%TD*%
D12*
%TO.C,R9*%
X153425000Y-121200000D03*
X151775000Y-121200000D03*
%TD*%
D21*
%TO.C,J1*%
X155562500Y-70500000D03*
D22*
X158102500Y-70500000D03*
X155562500Y-73040000D03*
X158102500Y-73040000D03*
X155562500Y-75580000D03*
X158102500Y-75580000D03*
X155562500Y-78120000D03*
X158102500Y-78120000D03*
X155562500Y-80660000D03*
X158102500Y-80660000D03*
%TD*%
D41*
%TO.C,L1*%
X130785000Y-147850000D03*
X129815000Y-147850000D03*
%TD*%
D42*
%TO.C,C9*%
X131780000Y-149200000D03*
X130820000Y-149200000D03*
%TD*%
D43*
%TO.C,U4*%
X144025000Y-115095000D03*
X144025000Y-116365000D03*
X144025000Y-117635000D03*
X144025000Y-118905000D03*
X148975000Y-118905000D03*
X148975000Y-117635000D03*
X148975000Y-116365000D03*
X148975000Y-115095000D03*
%TD*%
D16*
%TO.C,R11*%
X139575000Y-122900000D03*
X141225000Y-122900000D03*
%TD*%
D27*
%TO.C,C10*%
X155200000Y-92487500D03*
X155200000Y-88887500D03*
%TD*%
D36*
%TO.C,RESET1*%
X130890000Y-118350000D03*
X130890000Y-111340000D03*
D37*
X128400000Y-117100000D03*
X128400000Y-112600000D03*
%TD*%
D20*
%TO.C,TP4*%
X144000000Y-94000000D03*
%TD*%
D15*
%TO.C,C17*%
X141175000Y-129700000D03*
X139625000Y-129700000D03*
%TD*%
D28*
%TO.C,C15*%
X139625000Y-128000000D03*
X141175000Y-128000000D03*
%TD*%
D44*
%TO.C,L2*%
X135656250Y-137600000D03*
X137781250Y-137600000D03*
%TD*%
D12*
%TO.C,R8*%
X153425000Y-119500000D03*
X151775000Y-119500000D03*
%TD*%
D42*
%TO.C,C3*%
X131780000Y-145600000D03*
X130820000Y-145600000D03*
%TD*%
D30*
%TO.C,C13*%
X128800000Y-147820000D03*
X128800000Y-146860000D03*
%TD*%
D15*
%TO.C,C16*%
X153375000Y-128000000D03*
X151825000Y-128000000D03*
%TD*%
D16*
%TO.C,R13*%
X139575000Y-117800000D03*
X141225000Y-117800000D03*
%TD*%
D45*
%TO.C,U3*%
X148975000Y-132310000D03*
X148975000Y-131040000D03*
X148975000Y-129770000D03*
X148975000Y-128500000D03*
X148975000Y-127230000D03*
X148975000Y-125960000D03*
X148975000Y-124690000D03*
X144025000Y-124690000D03*
X144025000Y-125960000D03*
X144025000Y-127230000D03*
X144025000Y-128500000D03*
X144025000Y-129770000D03*
X144025000Y-131040000D03*
X144025000Y-132310000D03*
%TD*%
D31*
%TO.C,J4*%
X127600000Y-67000000D03*
D32*
X138600000Y-72200000D03*
D31*
X140800000Y-67000000D03*
%TD*%
D46*
%TO.C,AE1*%
X128425000Y-147800000D03*
D47*
X123875000Y-140650000D03*
%TD*%
D12*
%TO.C,R7*%
X153425000Y-122900000D03*
X151775000Y-122900000D03*
%TD*%
D15*
%TO.C,C18*%
X153375000Y-126300000D03*
X151825000Y-126300000D03*
%TD*%
M02*
