M48
; DRILL file {KiCad (6.0.4)} date Mon Mar 21 16:24:51 2022
; FORMAT={-:-/ absolute / inch / decimal}
; #@! TF.CreationDate,2022-03-21T16:24:51+00:00
; #@! TF.GenerationSoftware,Kicad,Pcbnew,(6.0.4)
; #@! TF.FileFunction,Plated,1,4,PTH
FMAT,2
INCH
; #@! TA.AperFunction,Plated,PTH,ViaDrill
T1C0.0079
; #@! TA.AperFunction,Plated,PTH,ComponentDrill
T2C0.0079
; #@! TA.AperFunction,Plated,PTH,ViaDrill
T3C0.0157
; #@! TA.AperFunction,Plated,PTH,ComponentDrill
T4C0.0197
; #@! TA.AperFunction,Plated,PTH,ComponentDrill
T5C0.0217
; #@! TA.AperFunction,Plated,PTH,ViaDrill
T6C0.0236
; #@! TA.AperFunction,Plated,PTH,ComponentDrill
T7C0.0390
; #@! TA.AperFunction,Plated,PTH,ComponentDrill
T8C0.0394
; #@! TA.AperFunction,Plated,PTH,ComponentDrill
T9C0.0512
; #@! TA.AperFunction,Plated,PTH,ComponentDrill
T10C0.0591
%
G90
G05
T1
X4.6654Y-3.878
X4.6654Y-3.9173
X4.6654Y-3.9567
X4.6654Y-3.9961
X4.6654Y-4.0354
X4.6654Y-4.0748
X4.6654Y-4.1142
X4.6654Y-4.1535
X4.6654Y-4.1929
X4.6654Y-4.2323
X4.6654Y-4.3701
X4.6654Y-4.4685
X4.6654Y-4.5079
X4.6654Y-4.5472
X4.6654Y-4.5866
X4.6654Y-4.626
X4.6823Y-4.3476
X4.6831Y-4.2937
X4.7236Y-4.3457
X4.7244Y-4.2945
X4.7614Y-4.2953
X4.7626Y-4.3449
X4.8039Y-4.3429
T2
X4.8809Y-4.1801
X4.8809Y-4.2259
X4.8809Y-4.2717
X4.8809Y-4.3174
X4.8809Y-4.3632
X4.9267Y-4.1801
X4.9267Y-4.2259
X4.9267Y-4.2717
X4.9267Y-4.3174
X4.9267Y-4.3632
X4.9724Y-4.1801
X4.9724Y-4.2259
X4.9724Y-4.2717
X4.9724Y-4.3174
X4.9724Y-4.3632
X5.0182Y-4.1801
X5.0182Y-4.2259
X5.0182Y-4.2717
X5.0182Y-4.3174
X5.0182Y-4.3632
X5.064Y-4.1801
X5.064Y-4.2259
X5.064Y-4.2717
X5.064Y-4.3174
X5.064Y-4.3632
T3
X4.6575Y-4.4213
X4.685Y-3.5433
X4.7087Y-4.4724
X4.7244Y-4.685
X4.7244Y-5.1181
X4.8297Y-4.8735
X4.9528Y-4.5315
X5.0Y-3.4252
X5.0086Y-3.9638
X5.0157Y-4.5315
X5.0394Y-3.7795
X5.1024Y-4.5315
X5.1969Y-3.1496
X5.2283Y-4.6457
X5.2842Y-4.0032
X5.4724Y-3.937
X5.4764Y-5.0748
X5.5551Y-4.0866
X5.5551Y-4.2441
X5.5906Y-3.7008
X5.5906Y-4.3307
X5.6024Y-4.1339
X5.6024Y-4.2146
X5.6299Y-4.5669
X5.7874Y-3.1496
X5.8661Y-3.7008
X5.9055Y-4.6457
X5.9449Y-5.0
X5.9843Y-4.0157
X6.063Y-4.252
X6.1024Y-2.8346
X6.2205Y-4.4488
X6.378Y-3.189
X6.378Y-3.5827
X6.378Y-3.9764
X6.4173Y-4.9606
X6.4173Y-5.1969
X6.4567Y-4.6457
X6.8898Y-4.8819
X6.9685Y-3.7795
X6.9685Y-4.5276
T6
X4.7705Y-4.463
X4.7819Y-4.2024
X4.796Y-3.9993
X4.8905Y-3.9599
X4.8905Y-4.0583
X4.9975Y-4.8066
X5.0067Y-4.449
X5.0605Y-5.0428
X5.0827Y-4.7712
X5.107Y-4.4724
X5.1132Y-5.0428
X5.1826Y-4.7318
X5.1897Y-4.1142
X5.2234Y-5.0468
X5.233Y-4.3812
X5.3118Y-4.3457
X5.4779Y-4.8932
X5.6329Y-4.7987
X5.6708Y-4.7406
X5.7165Y-4.0866
X5.7264Y-4.7869
X6.6665Y-4.936
T7
X4.721Y-3.253
X4.8463Y-3.1277
T8
X5.2457Y-3.4129
X5.3457Y-3.4129
X5.4457Y-3.4129
X5.5457Y-3.4129
X5.6457Y-3.4129
X5.7457Y-3.4129
X5.8457Y-3.4129
X5.9457Y-3.4129
X6.0457Y-3.4129
X6.1457Y-3.4129
X6.622Y-4.5349
X6.722Y-4.5349
X6.9518Y-3.9952
X6.9518Y-4.0952
X6.9518Y-4.1952
X6.9518Y-4.2952
T9
X4.7555Y-3.3571
X4.9507Y-3.1619
X5.1432Y-5.3184
X6.0148Y-5.3184
X6.3061Y-5.3184
T10
X6.6722Y-3.9562
X6.6722Y-4.1412
X6.6722Y-4.3263
T4
G00X6.6218Y-5.2266
M15
G01X6.6037Y-5.2085
M16
G05
G00X6.8167Y-5.0318
M15
G01X6.7986Y-5.0137
M16
G05
T5
G00X6.5613Y-5.1188
M15
G01X6.5696Y-5.1104
M16
G05
G00X6.7005Y-4.9796
M15
G01X6.7088Y-4.9712
M16
G05
T0
M30
