%TF.GenerationSoftware,KiCad,Pcbnew,(6.0.4)*%
%TF.CreationDate,2022-03-21T16:24:48+00:00*%
%TF.ProjectId,Ball_Remote_Components,42616c6c-5f52-4656-9d6f-74655f436f6d,rev?*%
%TF.SameCoordinates,Original*%
%TF.FileFunction,Soldermask,Bot*%
%TF.FilePolarity,Negative*%
%FSLAX46Y46*%
G04 Gerber Fmt 4.6, Leading zero omitted, Abs format (unit mm)*
G04 Created by KiCad (PCBNEW (6.0.4)) date 2022-03-21 16:24:48*
%MOMM*%
%LPD*%
G01*
G04 APERTURE LIST*
G04 Aperture macros list*
%AMHorizOval*
0 Thick line with rounded ends*
0 $1 width*
0 $2 $3 position (X,Y) of the first rounded end (center of the circle)*
0 $4 $5 position (X,Y) of the second rounded end (center of the circle)*
0 Add line between two ends*
20,1,$1,$2,$3,$4,$5,0*
0 Add two circle primitives to create the rounded ends*
1,1,$1,$2,$3*
1,1,$1,$4,$5*%
G04 Aperture macros list end*
%ADD10C,0.100000*%
%ADD11C,3.200000*%
%ADD12C,2.000000*%
%ADD13R,1.700000X1.700000*%
%ADD14C,1.700000*%
%ADD15R,2.500000X2.000000*%
%ADD16O,2.500000X2.000000*%
%ADD17HorizOval,0.950000X0.106066X0.106066X-0.106066X-0.106066X0*%
%ADD18HorizOval,1.000000X-0.194454X0.194454X0.194454X-0.194454X0*%
%ADD19O,1.700000X1.700000*%
%ADD20C,2.100000*%
%ADD21C,1.750000*%
G04 APERTURE END LIST*
%TO.C,FID1*%
G36*
X139475000Y-74187500D02*
G01*
X131475000Y-74187500D01*
X131475000Y-72187500D01*
X139475000Y-72187500D01*
X139475000Y-74187500D01*
G37*
D10*
X139475000Y-74187500D02*
X131475000Y-74187500D01*
X131475000Y-72187500D01*
X139475000Y-72187500D01*
X139475000Y-74187500D01*
%TD*%
D11*
%TO.C,H1*%
X145875000Y-72187500D03*
%TD*%
D12*
%TO.C,TP2*%
X160175000Y-135087500D03*
%TD*%
D13*
%TO.C,J3*%
X176575000Y-109097500D03*
D14*
X176575000Y-106557500D03*
X176575000Y-104017500D03*
X176575000Y-101477500D03*
%TD*%
D15*
%TO.C,SW1*%
X169475000Y-109887500D03*
D16*
X169475000Y-105187500D03*
X169475000Y-100487500D03*
%TD*%
D17*
%TO.C,J2*%
X166762205Y-129910239D03*
X170297739Y-126374705D03*
D18*
X172914034Y-127576786D03*
X167964286Y-132526534D03*
%TD*%
D12*
%TO.C,TP1*%
X130637500Y-135087500D03*
%TD*%
D13*
%TO.C,J1*%
X156100000Y-86687500D03*
D19*
X153560000Y-86687500D03*
X151020000Y-86687500D03*
X148480000Y-86687500D03*
X145940000Y-86687500D03*
X143400000Y-86687500D03*
X140860000Y-86687500D03*
X138320000Y-86687500D03*
X135780000Y-86687500D03*
X133240000Y-86687500D03*
%TD*%
D11*
%TO.C,H2*%
X145875000Y-138387500D03*
%TD*%
D20*
%TO.C,RESET1*%
X120789959Y-85269884D03*
X125746778Y-80313066D03*
D21*
X119913147Y-82625305D03*
X123095128Y-79443324D03*
%TD*%
D12*
%TO.C,TP3*%
X152775000Y-135087500D03*
%TD*%
D13*
%TO.C,BT1*%
X168200000Y-115187500D03*
D19*
X170740000Y-115187500D03*
%TD*%
M02*
