%TF.GenerationSoftware,KiCad,Pcbnew,(6.0.4)*%
%TF.CreationDate,2022-03-21T16:38:47+00:00*%
%TF.ProjectId,Ball_Base_Panel,42616c6c-5f42-4617-9365-5f50616e656c,rev?*%
%TF.SameCoordinates,Original*%
%TF.FileFunction,Soldermask,Top*%
%TF.FilePolarity,Negative*%
%FSLAX46Y46*%
G04 Gerber Fmt 4.6, Leading zero omitted, Abs format (unit mm)*
G04 Created by KiCad (PCBNEW (6.0.4)) date 2022-03-21 16:38:47*
%MOMM*%
%LPD*%
G01*
G04 APERTURE LIST*
%ADD10C,0.400000*%
%ADD11C,2.675259*%
%ADD12C,0.250000*%
%ADD13C,0.200000*%
%ADD14C,3.000000*%
%ADD15C,6.100000*%
%ADD16O,5.000000X3.200000*%
%ADD17C,3.000000*%
%ADD18C,3.500000*%
G04 APERTURE END LIST*
D10*
X87419691Y-66980309D02*
G75*
G03*
X87419691Y-66980309I-7119691J0D01*
G01*
X87419691Y-85000000D02*
G75*
G03*
X87419691Y-85000000I-7119691J0D01*
G01*
D11*
X81637629Y-128863330D02*
G75*
G03*
X81637629Y-128863330I-1337629J0D01*
G01*
D10*
X87419691Y-103000000D02*
G75*
G03*
X87419691Y-103000000I-7119691J0D01*
G01*
D12*
X76576190Y-134107142D02*
X76495238Y-134188095D01*
X76252380Y-134269047D01*
X76090476Y-134269047D01*
X75847619Y-134188095D01*
X75685714Y-134026190D01*
X75604761Y-133864285D01*
X75523809Y-133540476D01*
X75523809Y-133297619D01*
X75604761Y-132973809D01*
X75685714Y-132811904D01*
X75847619Y-132650000D01*
X76090476Y-132569047D01*
X76252380Y-132569047D01*
X76495238Y-132650000D01*
X76576190Y-132730952D01*
X77547619Y-134269047D02*
X77385714Y-134188095D01*
X77304761Y-134107142D01*
X77223809Y-133945238D01*
X77223809Y-133459523D01*
X77304761Y-133297619D01*
X77385714Y-133216666D01*
X77547619Y-133135714D01*
X77790476Y-133135714D01*
X77952380Y-133216666D01*
X78033333Y-133297619D01*
X78114285Y-133459523D01*
X78114285Y-133945238D01*
X78033333Y-134107142D01*
X77952380Y-134188095D01*
X77790476Y-134269047D01*
X77547619Y-134269047D01*
X78842857Y-133135714D02*
X78842857Y-134269047D01*
X78842857Y-133297619D02*
X78923809Y-133216666D01*
X79085714Y-133135714D01*
X79328571Y-133135714D01*
X79490476Y-133216666D01*
X79571428Y-133378571D01*
X79571428Y-134269047D01*
X80380952Y-133135714D02*
X80380952Y-134269047D01*
X80380952Y-133297619D02*
X80461904Y-133216666D01*
X80623809Y-133135714D01*
X80866666Y-133135714D01*
X81028571Y-133216666D01*
X81109523Y-133378571D01*
X81109523Y-134269047D01*
X82566666Y-134188095D02*
X82404761Y-134269047D01*
X82080952Y-134269047D01*
X81919047Y-134188095D01*
X81838095Y-134026190D01*
X81838095Y-133378571D01*
X81919047Y-133216666D01*
X82080952Y-133135714D01*
X82404761Y-133135714D01*
X82566666Y-133216666D01*
X82647619Y-133378571D01*
X82647619Y-133540476D01*
X81838095Y-133702380D01*
X84104761Y-134188095D02*
X83942857Y-134269047D01*
X83619047Y-134269047D01*
X83457142Y-134188095D01*
X83376190Y-134107142D01*
X83295238Y-133945238D01*
X83295238Y-133459523D01*
X83376190Y-133297619D01*
X83457142Y-133216666D01*
X83619047Y-133135714D01*
X83942857Y-133135714D01*
X84104761Y-133216666D01*
X84590476Y-133135714D02*
X85238095Y-133135714D01*
X84833333Y-132569047D02*
X84833333Y-134026190D01*
X84914285Y-134188095D01*
X85076190Y-134269047D01*
X85238095Y-134269047D01*
X78195238Y-119869047D02*
X77628571Y-119059523D01*
X77223809Y-119869047D02*
X77223809Y-118169047D01*
X77871428Y-118169047D01*
X78033333Y-118250000D01*
X78114285Y-118330952D01*
X78195238Y-118492857D01*
X78195238Y-118735714D01*
X78114285Y-118897619D01*
X78033333Y-118978571D01*
X77871428Y-119059523D01*
X77223809Y-119059523D01*
X79571428Y-119788095D02*
X79409523Y-119869047D01*
X79085714Y-119869047D01*
X78923809Y-119788095D01*
X78842857Y-119626190D01*
X78842857Y-118978571D01*
X78923809Y-118816666D01*
X79085714Y-118735714D01*
X79409523Y-118735714D01*
X79571428Y-118816666D01*
X79652380Y-118978571D01*
X79652380Y-119140476D01*
X78842857Y-119302380D01*
X80300000Y-119788095D02*
X80461904Y-119869047D01*
X80785714Y-119869047D01*
X80947619Y-119788095D01*
X81028571Y-119626190D01*
X81028571Y-119545238D01*
X80947619Y-119383333D01*
X80785714Y-119302380D01*
X80542857Y-119302380D01*
X80380952Y-119221428D01*
X80300000Y-119059523D01*
X80300000Y-118978571D01*
X80380952Y-118816666D01*
X80542857Y-118735714D01*
X80785714Y-118735714D01*
X80947619Y-118816666D01*
X82404761Y-119788095D02*
X82242857Y-119869047D01*
X81919047Y-119869047D01*
X81757142Y-119788095D01*
X81676190Y-119626190D01*
X81676190Y-118978571D01*
X81757142Y-118816666D01*
X81919047Y-118735714D01*
X82242857Y-118735714D01*
X82404761Y-118816666D01*
X82485714Y-118978571D01*
X82485714Y-119140476D01*
X81676190Y-119302380D01*
X82971428Y-118735714D02*
X83619047Y-118735714D01*
X83214285Y-118169047D02*
X83214285Y-119626190D01*
X83295238Y-119788095D01*
X83457142Y-119869047D01*
X83619047Y-119869047D01*
D13*
X72642857Y-153392857D02*
X72642857Y-152192857D01*
X73042857Y-153050000D01*
X73442857Y-152192857D01*
X73442857Y-153392857D01*
X74185714Y-153392857D02*
X74071428Y-153335714D01*
X74014285Y-153278571D01*
X73957142Y-153164285D01*
X73957142Y-152821428D01*
X74014285Y-152707142D01*
X74071428Y-152650000D01*
X74185714Y-152592857D01*
X74357142Y-152592857D01*
X74471428Y-152650000D01*
X74528571Y-152707142D01*
X74585714Y-152821428D01*
X74585714Y-153164285D01*
X74528571Y-153278571D01*
X74471428Y-153335714D01*
X74357142Y-153392857D01*
X74185714Y-153392857D01*
X75614285Y-152592857D02*
X75614285Y-153392857D01*
X75100000Y-152592857D02*
X75100000Y-153221428D01*
X75157142Y-153335714D01*
X75271428Y-153392857D01*
X75442857Y-153392857D01*
X75557142Y-153335714D01*
X75614285Y-153278571D01*
X76185714Y-152592857D02*
X76185714Y-153392857D01*
X76185714Y-152707142D02*
X76242857Y-152650000D01*
X76357142Y-152592857D01*
X76528571Y-152592857D01*
X76642857Y-152650000D01*
X76700000Y-152764285D01*
X76700000Y-153392857D01*
X77100000Y-152592857D02*
X77557142Y-152592857D01*
X77271428Y-152192857D02*
X77271428Y-153221428D01*
X77328571Y-153335714D01*
X77442857Y-153392857D01*
X77557142Y-153392857D01*
X77957142Y-152592857D02*
X77957142Y-153621428D01*
X77900000Y-153735714D01*
X77785714Y-153792857D01*
X77728571Y-153792857D01*
X77957142Y-152192857D02*
X77900000Y-152250000D01*
X77957142Y-152307142D01*
X78014285Y-152250000D01*
X77957142Y-152192857D01*
X77957142Y-152307142D01*
X78700000Y-153392857D02*
X78585714Y-153335714D01*
X78528571Y-153278571D01*
X78471428Y-153164285D01*
X78471428Y-152821428D01*
X78528571Y-152707142D01*
X78585714Y-152650000D01*
X78700000Y-152592857D01*
X78871428Y-152592857D01*
X78985714Y-152650000D01*
X79042857Y-152707142D01*
X79100000Y-152821428D01*
X79100000Y-153164285D01*
X79042857Y-153278571D01*
X78985714Y-153335714D01*
X78871428Y-153392857D01*
X78700000Y-153392857D01*
X79500000Y-152592857D02*
X79785714Y-153392857D01*
X80071428Y-152592857D02*
X79785714Y-153392857D01*
X79671428Y-153678571D01*
X79614285Y-153735714D01*
X79500000Y-153792857D01*
X81442857Y-153392857D02*
X81442857Y-152192857D01*
X81842857Y-153050000D01*
X82242857Y-152192857D01*
X82242857Y-153392857D01*
X82985714Y-153392857D02*
X82871428Y-153335714D01*
X82814285Y-153278571D01*
X82757142Y-153164285D01*
X82757142Y-152821428D01*
X82814285Y-152707142D01*
X82871428Y-152650000D01*
X82985714Y-152592857D01*
X83157142Y-152592857D01*
X83271428Y-152650000D01*
X83328571Y-152707142D01*
X83385714Y-152821428D01*
X83385714Y-153164285D01*
X83328571Y-153278571D01*
X83271428Y-153335714D01*
X83157142Y-153392857D01*
X82985714Y-153392857D01*
X84414285Y-153392857D02*
X84414285Y-152192857D01*
X84414285Y-153335714D02*
X84300000Y-153392857D01*
X84071428Y-153392857D01*
X83957142Y-153335714D01*
X83900000Y-153278571D01*
X83842857Y-153164285D01*
X83842857Y-152821428D01*
X83900000Y-152707142D01*
X83957142Y-152650000D01*
X84071428Y-152592857D01*
X84300000Y-152592857D01*
X84414285Y-152650000D01*
X85500000Y-152592857D02*
X85500000Y-153392857D01*
X84985714Y-152592857D02*
X84985714Y-153221428D01*
X85042857Y-153335714D01*
X85157142Y-153392857D01*
X85328571Y-153392857D01*
X85442857Y-153335714D01*
X85500000Y-153278571D01*
X86242857Y-153392857D02*
X86128571Y-153335714D01*
X86071428Y-153221428D01*
X86071428Y-152192857D01*
X87214285Y-153392857D02*
X87214285Y-152764285D01*
X87157142Y-152650000D01*
X87042857Y-152592857D01*
X86814285Y-152592857D01*
X86700000Y-152650000D01*
X87214285Y-153335714D02*
X87100000Y-153392857D01*
X86814285Y-153392857D01*
X86700000Y-153335714D01*
X86642857Y-153221428D01*
X86642857Y-153107142D01*
X86700000Y-152992857D01*
X86814285Y-152935714D01*
X87100000Y-152935714D01*
X87214285Y-152878571D01*
X87785714Y-153392857D02*
X87785714Y-152592857D01*
X87785714Y-152821428D02*
X87842857Y-152707142D01*
X87900000Y-152650000D01*
X88014285Y-152592857D01*
X88128571Y-152592857D01*
%TO.C,G\u002A\u002A\u002A*%
G36*
X74135328Y-51496921D02*
G01*
X75690970Y-51496921D01*
X75698536Y-51676361D01*
X75716220Y-51722457D01*
X75834709Y-51773231D01*
X76015723Y-51742389D01*
X76179105Y-51648900D01*
X76218079Y-51603699D01*
X76275254Y-51386170D01*
X76194148Y-51184764D01*
X76007286Y-51051660D01*
X75858147Y-51026289D01*
X75785041Y-51101907D01*
X75724560Y-51282110D01*
X75690970Y-51496921D01*
X74135328Y-51496921D01*
X74132227Y-51423580D01*
X74107378Y-50921473D01*
X74082472Y-50490829D01*
X74059585Y-50168064D01*
X74043632Y-50008351D01*
X73993650Y-49643693D01*
X74411189Y-49581079D01*
X74705172Y-49557142D01*
X75094656Y-49551901D01*
X75501491Y-49566152D01*
X75551173Y-49569449D01*
X76180416Y-49654880D01*
X76660289Y-49816325D01*
X77002003Y-50061329D01*
X77216773Y-50397439D01*
X77306647Y-50750931D01*
X77294700Y-51204034D01*
X77150036Y-51620338D01*
X76937116Y-51901398D01*
X76799120Y-52049495D01*
X76782912Y-52151910D01*
X76851327Y-52247280D01*
X77016886Y-52538215D01*
X77028109Y-52843571D01*
X76899284Y-53132598D01*
X76644701Y-53374546D01*
X76278648Y-53538665D01*
X76247446Y-53546891D01*
X75887636Y-53603251D01*
X75422473Y-53627927D01*
X74918519Y-53619567D01*
X74486829Y-53582682D01*
X74216270Y-53548456D01*
X74181455Y-52647136D01*
X75673883Y-52647136D01*
X75688406Y-52853817D01*
X75751687Y-52931728D01*
X75861360Y-52930813D01*
X76054489Y-52846350D01*
X76137107Y-52762036D01*
X76188482Y-52555219D01*
X76094449Y-52396017D01*
X75894835Y-52335567D01*
X75746563Y-52357325D01*
X75685062Y-52456733D01*
X75673883Y-52647136D01*
X74181455Y-52647136D01*
X74154942Y-51960733D01*
X74135328Y-51496921D01*
G37*
G36*
X77670205Y-52349063D02*
G01*
X77717489Y-52149087D01*
X77835571Y-51639657D01*
X77948706Y-51129356D01*
X78045451Y-50671255D01*
X78114364Y-50318428D01*
X78124252Y-50262543D01*
X78233112Y-49629725D01*
X79763912Y-49629725D01*
X79865908Y-50131615D01*
X79924757Y-50410352D01*
X80008249Y-50791544D01*
X80108451Y-51240477D01*
X80217432Y-51722437D01*
X80327259Y-52202710D01*
X80430001Y-52646582D01*
X80517724Y-53019339D01*
X80582497Y-53286266D01*
X80613829Y-53404811D01*
X80620055Y-53480300D01*
X80560369Y-53525977D01*
X80403043Y-53549126D01*
X80116351Y-53557033D01*
X79948569Y-53557560D01*
X79593462Y-53553427D01*
X79375645Y-53535248D01*
X79257920Y-53494351D01*
X79203090Y-53422064D01*
X79189990Y-53380724D01*
X79153645Y-53273422D01*
X79090522Y-53252076D01*
X78951883Y-53317811D01*
X78829966Y-53389023D01*
X78631924Y-53484869D01*
X78506376Y-53506166D01*
X78488450Y-53490952D01*
X78417956Y-53357794D01*
X78345854Y-53250665D01*
X78259562Y-53153788D01*
X78209356Y-53197678D01*
X78172769Y-53325572D01*
X78111111Y-53477394D01*
X77990403Y-53543551D01*
X77767065Y-53557560D01*
X77549018Y-53540317D01*
X77428178Y-53497268D01*
X77419587Y-53480186D01*
X77438836Y-53371884D01*
X77491802Y-53125905D01*
X77566860Y-52793987D01*
X78381202Y-52793987D01*
X78434139Y-52848256D01*
X78606351Y-52824598D01*
X78650539Y-52815200D01*
X78859101Y-52763870D01*
X78977860Y-52722254D01*
X78983014Y-52718588D01*
X78982448Y-52620791D01*
X78932488Y-52428444D01*
X78855340Y-52206210D01*
X78773209Y-52018752D01*
X78713287Y-51933156D01*
X78636760Y-51973439D01*
X78544994Y-52146679D01*
X78455130Y-52414292D01*
X78404154Y-52629004D01*
X78381202Y-52793987D01*
X77566860Y-52793987D01*
X77571315Y-52774285D01*
X77670205Y-52349063D01*
G37*
G36*
X85145034Y-51256133D02*
G01*
X85080842Y-52882541D01*
X85578951Y-52841234D01*
X86077059Y-52799927D01*
X86025299Y-53058726D01*
X85987559Y-53285521D01*
X85973539Y-53437543D01*
X85940164Y-53487750D01*
X85824282Y-53522416D01*
X85602256Y-53543977D01*
X85250450Y-53554868D01*
X84808713Y-53557560D01*
X83643886Y-53557560D01*
X83583391Y-51723034D01*
X83563018Y-51168473D01*
X83540713Y-50668730D01*
X83518040Y-50251732D01*
X83496568Y-49945406D01*
X83477861Y-49777677D01*
X83473243Y-49759117D01*
X83475012Y-49700060D01*
X83552816Y-49661801D01*
X83733839Y-49640168D01*
X84045264Y-49630990D01*
X84316408Y-49629725D01*
X85209225Y-49629725D01*
X85145034Y-51256133D01*
G37*
G36*
X82439192Y-51256133D02*
G01*
X82375000Y-52882541D01*
X82873109Y-52841234D01*
X83371217Y-52799927D01*
X83319457Y-53058726D01*
X83281717Y-53285521D01*
X83267697Y-53437543D01*
X83234322Y-53487750D01*
X83118440Y-53522416D01*
X82896414Y-53543977D01*
X82544608Y-53554868D01*
X82102871Y-53557560D01*
X80938045Y-53557560D01*
X80877549Y-51723034D01*
X80857176Y-51168473D01*
X80834871Y-50668730D01*
X80812198Y-50251732D01*
X80790726Y-49945406D01*
X80772020Y-49777677D01*
X80767401Y-49759117D01*
X80769170Y-49700060D01*
X80846974Y-49661801D01*
X81027997Y-49640168D01*
X81339422Y-49630990D01*
X81610566Y-49629725D01*
X82503383Y-49629725D01*
X82439192Y-51256133D01*
G37*
D14*
X81500000Y-140800000D02*
X79100000Y-140800000D01*
X79100000Y-140800000D02*
X79100000Y-145800000D01*
X79100000Y-145800000D02*
X81500000Y-145800000D01*
X81500000Y-145800000D02*
X81500000Y-140800000D01*
G36*
X80342135Y-139896756D02*
G01*
X80370543Y-139899738D01*
X80395457Y-139906157D01*
X80423112Y-139917186D01*
X80428000Y-139919363D01*
X80435638Y-139923048D01*
X80443869Y-139927702D01*
X80453271Y-139933884D01*
X80464423Y-139942153D01*
X80477904Y-139953069D01*
X80494294Y-139967190D01*
X80514172Y-139985074D01*
X80538117Y-140007281D01*
X80566708Y-140034370D01*
X80600524Y-140066900D01*
X80640145Y-140105429D01*
X80686149Y-140150516D01*
X80739117Y-140202720D01*
X80799626Y-140262601D01*
X80868257Y-140330716D01*
X80945588Y-140407625D01*
X81032198Y-140493887D01*
X81128667Y-140590061D01*
X81235574Y-140696705D01*
X81294361Y-140755363D01*
X81410085Y-140870800D01*
X81515058Y-140975479D01*
X81609803Y-141069998D01*
X81694841Y-141154955D01*
X81770694Y-141230948D01*
X81837883Y-141298575D01*
X81896929Y-141358435D01*
X81948356Y-141411124D01*
X81992683Y-141457242D01*
X82030432Y-141497386D01*
X82062126Y-141532155D01*
X82088284Y-141562145D01*
X82109430Y-141587956D01*
X82126085Y-141610185D01*
X82138769Y-141629430D01*
X82148005Y-141646289D01*
X82154314Y-141661361D01*
X82158218Y-141675243D01*
X82160238Y-141688533D01*
X82160895Y-141701829D01*
X82160712Y-141715730D01*
X82160210Y-141730833D01*
X82159910Y-141747736D01*
X82159910Y-141747831D01*
X82160162Y-141765745D01*
X82160587Y-141781654D01*
X82160621Y-141796221D01*
X82159698Y-141810109D01*
X82157255Y-141823980D01*
X82152727Y-141838495D01*
X82145550Y-141854319D01*
X82135158Y-141872112D01*
X82120988Y-141892538D01*
X82102475Y-141916258D01*
X82079054Y-141943936D01*
X82050162Y-141976233D01*
X82015233Y-142013813D01*
X81973702Y-142057336D01*
X81925007Y-142107467D01*
X81868581Y-142164866D01*
X81803861Y-142230197D01*
X81730281Y-142304122D01*
X81647279Y-142387304D01*
X81554288Y-142480404D01*
X81450744Y-142584085D01*
X81426812Y-142608061D01*
X80732088Y-143304123D01*
X81420348Y-143992061D01*
X81526793Y-144098416D01*
X81622543Y-144194064D01*
X81708161Y-144279669D01*
X81784212Y-144355893D01*
X81851261Y-144423396D01*
X81909871Y-144482842D01*
X81960606Y-144534892D01*
X82004031Y-144580208D01*
X82040710Y-144619453D01*
X82071207Y-144653288D01*
X82096086Y-144682375D01*
X82115911Y-144707376D01*
X82131246Y-144728954D01*
X82142656Y-144747770D01*
X82150705Y-144764487D01*
X82155957Y-144779765D01*
X82158976Y-144794268D01*
X82160326Y-144808657D01*
X82160571Y-144823595D01*
X82160275Y-144839743D01*
X82160004Y-144857763D01*
X82160000Y-144860000D01*
X82160277Y-144876945D01*
X82160763Y-144892083D01*
X82160934Y-144906012D01*
X82160270Y-144919330D01*
X82158249Y-144932635D01*
X82154349Y-144946526D01*
X82148049Y-144961600D01*
X82138827Y-144978456D01*
X82126161Y-144997692D01*
X82109530Y-145019906D01*
X82088413Y-145045696D01*
X82062286Y-145075661D01*
X82030630Y-145110398D01*
X81992922Y-145150505D01*
X81948641Y-145196581D01*
X81897264Y-145249224D01*
X81838272Y-145309032D01*
X81771141Y-145376604D01*
X81695350Y-145452536D01*
X81610378Y-145537428D01*
X81515703Y-145631878D01*
X81410803Y-145736483D01*
X81295157Y-145851842D01*
X81294361Y-145852636D01*
X81181994Y-145964751D01*
X81080362Y-146066112D01*
X80988884Y-146157278D01*
X80906982Y-146238809D01*
X80834075Y-146311263D01*
X80769585Y-146375199D01*
X80712930Y-146431177D01*
X80663531Y-146479755D01*
X80620809Y-146521493D01*
X80584184Y-146556950D01*
X80553076Y-146586683D01*
X80526904Y-146611254D01*
X80505091Y-146631220D01*
X80487055Y-146647141D01*
X80472217Y-146659576D01*
X80459997Y-146669084D01*
X80449815Y-146676223D01*
X80441092Y-146681553D01*
X80433248Y-146685634D01*
X80428000Y-146688032D01*
X80364394Y-146708176D01*
X80298940Y-146714720D01*
X80235479Y-146707465D01*
X80208441Y-146699589D01*
X80144530Y-146669030D01*
X80090945Y-146626692D01*
X80048723Y-146573604D01*
X80019464Y-146512398D01*
X80017391Y-146506135D01*
X80015512Y-146499192D01*
X80013818Y-146490795D01*
X80012298Y-146480166D01*
X80010944Y-146466531D01*
X80009745Y-146449112D01*
X80008693Y-146427135D01*
X80007777Y-146399823D01*
X80006989Y-146366400D01*
X80006319Y-146326091D01*
X80005757Y-146278120D01*
X80005294Y-146221710D01*
X80004919Y-146156086D01*
X80004625Y-146080473D01*
X80004401Y-145994093D01*
X80004238Y-145896171D01*
X80004126Y-145785932D01*
X80004074Y-145695980D01*
X80604000Y-145695980D01*
X81439980Y-144860000D01*
X81021990Y-144442009D01*
X80604000Y-144024019D01*
X80604000Y-145695980D01*
X80004074Y-145695980D01*
X80004055Y-145662600D01*
X80004017Y-145525398D01*
X80004002Y-145373550D01*
X80004000Y-145250279D01*
X80004000Y-144032159D01*
X79462000Y-144572987D01*
X79365447Y-144669233D01*
X79279565Y-144754625D01*
X79203792Y-144829703D01*
X79137566Y-144895009D01*
X79080327Y-144951084D01*
X79031512Y-144998468D01*
X78990561Y-145037703D01*
X78956912Y-145069330D01*
X78930005Y-145093891D01*
X78909277Y-145111925D01*
X78894167Y-145123974D01*
X78884115Y-145130579D01*
X78882915Y-145131177D01*
X78819092Y-145152758D01*
X78754104Y-145159470D01*
X78690073Y-145152107D01*
X78629124Y-145131458D01*
X78573381Y-145098315D01*
X78524967Y-145053468D01*
X78486006Y-144997708D01*
X78476963Y-144980000D01*
X78466694Y-144955914D01*
X78460420Y-144933295D01*
X78457208Y-144906784D01*
X78456128Y-144871022D01*
X78456082Y-144859831D01*
X78455830Y-144841584D01*
X78455492Y-144825282D01*
X78455632Y-144810262D01*
X78456814Y-144795864D01*
X78459602Y-144781424D01*
X78464560Y-144766282D01*
X78472253Y-144749776D01*
X78483244Y-144731243D01*
X78498097Y-144710022D01*
X78517377Y-144685451D01*
X78541647Y-144656868D01*
X78571472Y-144623612D01*
X78607415Y-144585020D01*
X78650041Y-144540431D01*
X78699913Y-144489183D01*
X78757597Y-144430613D01*
X78823655Y-144364062D01*
X78898652Y-144288865D01*
X78983151Y-144204362D01*
X79077718Y-144109891D01*
X79163668Y-144024019D01*
X79182916Y-144004789D01*
X79195651Y-143992061D01*
X79883911Y-143304123D01*
X79189187Y-142608061D01*
X79165142Y-142583980D01*
X80604000Y-142583980D01*
X81439980Y-141748000D01*
X81021990Y-141330009D01*
X80604000Y-140912019D01*
X80604000Y-142583980D01*
X79165142Y-142583980D01*
X79083312Y-142502029D01*
X78988111Y-142406722D01*
X78903019Y-142321477D01*
X78827473Y-142245631D01*
X78760906Y-142178522D01*
X78702756Y-142119488D01*
X78652456Y-142067864D01*
X78609442Y-142022989D01*
X78573150Y-141984199D01*
X78543014Y-141950832D01*
X78518471Y-141922225D01*
X78498954Y-141897716D01*
X78483901Y-141876641D01*
X78472744Y-141858338D01*
X78464922Y-141842144D01*
X78459867Y-141827397D01*
X78457016Y-141813432D01*
X78455804Y-141799589D01*
X78455666Y-141785203D01*
X78456038Y-141769613D01*
X78456354Y-141752155D01*
X78456360Y-141748000D01*
X78456889Y-141709245D01*
X78459325Y-141681109D01*
X78464586Y-141658239D01*
X78473592Y-141635284D01*
X78476963Y-141628000D01*
X78512798Y-141569299D01*
X78558565Y-141521353D01*
X78612155Y-141484923D01*
X78671464Y-141460772D01*
X78734384Y-141449662D01*
X78798810Y-141452355D01*
X78862635Y-141469612D01*
X78886004Y-141480004D01*
X78895386Y-141485686D01*
X78908387Y-141495414D01*
X78925646Y-141509803D01*
X78947803Y-141529469D01*
X78975496Y-141555027D01*
X79009364Y-141587092D01*
X79050046Y-141626279D01*
X79098181Y-141673203D01*
X79154409Y-141728480D01*
X79219367Y-141792724D01*
X79293695Y-141866550D01*
X79378032Y-141950575D01*
X79466000Y-142038400D01*
X80004000Y-142575955D01*
X80004000Y-141359230D01*
X80004003Y-141196102D01*
X80004022Y-141048196D01*
X80004064Y-140914735D01*
X80004066Y-140912019D01*
X80004141Y-140794941D01*
X80004261Y-140688036D01*
X80004434Y-140593242D01*
X80004670Y-140509782D01*
X80004979Y-140436879D01*
X80005371Y-140373753D01*
X80005855Y-140319628D01*
X80006440Y-140273727D01*
X80007138Y-140235270D01*
X80007956Y-140203481D01*
X80008906Y-140177581D01*
X80009997Y-140156794D01*
X80011238Y-140140341D01*
X80012640Y-140127445D01*
X80014211Y-140117328D01*
X80015963Y-140109212D01*
X80017904Y-140102320D01*
X80019790Y-140096610D01*
X80047446Y-140036302D01*
X80086022Y-139986100D01*
X80136891Y-139944552D01*
X80192000Y-139914414D01*
X80216775Y-139904734D01*
X80242496Y-139899062D01*
X80274715Y-139896487D01*
X80304000Y-139896040D01*
X80342135Y-139896756D01*
G37*
%TD*%
D15*
%TO.C,Ref\u002A\u002A*%
X80300000Y-85000000D03*
%TD*%
D16*
%TO.C,Ref\u002A\u002A*%
X77800000Y-165000000D03*
%TD*%
D17*
%TO.C,Ref\u002A\u002A*%
X80300000Y-95300000D03*
%TD*%
D15*
%TO.C,Ref\u002A\u002A*%
X80300000Y-103000000D03*
%TD*%
D17*
%TO.C,Ref\u002A\u002A*%
X80300000Y-59200000D03*
%TD*%
D18*
%TO.C,Ref\u002A\u002A*%
X80300000Y-128850000D03*
%TD*%
%TO.C,Ref\u002A\u002A*%
X80300000Y-114850000D03*
%TD*%
D16*
%TO.C,Ref\u002A\u002A*%
X82800000Y-42500000D03*
%TD*%
D15*
%TO.C,Ref\u002A\u002A*%
X80300000Y-67000000D03*
%TD*%
D17*
%TO.C,Ref\u002A\u002A*%
X80300000Y-77300000D03*
%TD*%
M02*
