%TF.GenerationSoftware,KiCad,Pcbnew,(6.0.4)*%
%TF.CreationDate,2022-03-21T16:38:47+00:00*%
%TF.ProjectId,Ball_Base_Panel,42616c6c-5f42-4617-9365-5f50616e656c,rev?*%
%TF.SameCoordinates,Original*%
%TF.FileFunction,Copper,L1,Top*%
%TF.FilePolarity,Positive*%
%FSLAX46Y46*%
G04 Gerber Fmt 4.6, Leading zero omitted, Abs format (unit mm)*
G04 Created by KiCad (PCBNEW (6.0.4)) date 2022-03-21 16:38:47*
%MOMM*%
%LPD*%
G01*
G04 APERTURE LIST*
G04 APERTURE END LIST*
%TO.C,G\u002A\u002A\u002A*%
G36*
X80342135Y-139896756D02*
G01*
X80370543Y-139899738D01*
X80395457Y-139906157D01*
X80423112Y-139917186D01*
X80428000Y-139919363D01*
X80435638Y-139923048D01*
X80443869Y-139927702D01*
X80453271Y-139933884D01*
X80464423Y-139942153D01*
X80477904Y-139953069D01*
X80494294Y-139967190D01*
X80514172Y-139985074D01*
X80538117Y-140007281D01*
X80566708Y-140034370D01*
X80600524Y-140066900D01*
X80640145Y-140105429D01*
X80686149Y-140150516D01*
X80739117Y-140202720D01*
X80799626Y-140262601D01*
X80868257Y-140330716D01*
X80945588Y-140407625D01*
X81032198Y-140493887D01*
X81128667Y-140590061D01*
X81235574Y-140696705D01*
X81294361Y-140755363D01*
X81410085Y-140870800D01*
X81515058Y-140975479D01*
X81609803Y-141069998D01*
X81694841Y-141154955D01*
X81770694Y-141230948D01*
X81837883Y-141298575D01*
X81896929Y-141358435D01*
X81948356Y-141411124D01*
X81992683Y-141457242D01*
X82030432Y-141497386D01*
X82062126Y-141532155D01*
X82088284Y-141562145D01*
X82109430Y-141587956D01*
X82126085Y-141610185D01*
X82138769Y-141629430D01*
X82148005Y-141646289D01*
X82154314Y-141661361D01*
X82158218Y-141675243D01*
X82160238Y-141688533D01*
X82160895Y-141701829D01*
X82160712Y-141715730D01*
X82160210Y-141730833D01*
X82159910Y-141747736D01*
X82159910Y-141747831D01*
X82160162Y-141765745D01*
X82160587Y-141781654D01*
X82160621Y-141796221D01*
X82159698Y-141810109D01*
X82157255Y-141823980D01*
X82152727Y-141838495D01*
X82145550Y-141854319D01*
X82135158Y-141872112D01*
X82120988Y-141892538D01*
X82102475Y-141916258D01*
X82079054Y-141943936D01*
X82050162Y-141976233D01*
X82015233Y-142013813D01*
X81973702Y-142057336D01*
X81925007Y-142107467D01*
X81868581Y-142164866D01*
X81803861Y-142230197D01*
X81730281Y-142304122D01*
X81647279Y-142387304D01*
X81554288Y-142480404D01*
X81450744Y-142584085D01*
X81426812Y-142608061D01*
X80732088Y-143304123D01*
X81420348Y-143992061D01*
X81526793Y-144098416D01*
X81622543Y-144194064D01*
X81708161Y-144279669D01*
X81784212Y-144355893D01*
X81851261Y-144423396D01*
X81909871Y-144482842D01*
X81960606Y-144534892D01*
X82004031Y-144580208D01*
X82040710Y-144619453D01*
X82071207Y-144653288D01*
X82096086Y-144682375D01*
X82115911Y-144707376D01*
X82131246Y-144728954D01*
X82142656Y-144747770D01*
X82150705Y-144764487D01*
X82155957Y-144779765D01*
X82158976Y-144794268D01*
X82160326Y-144808657D01*
X82160571Y-144823595D01*
X82160275Y-144839743D01*
X82160004Y-144857763D01*
X82160000Y-144860000D01*
X82160277Y-144876945D01*
X82160763Y-144892083D01*
X82160934Y-144906012D01*
X82160270Y-144919330D01*
X82158249Y-144932635D01*
X82154349Y-144946526D01*
X82148049Y-144961600D01*
X82138827Y-144978456D01*
X82126161Y-144997692D01*
X82109530Y-145019906D01*
X82088413Y-145045696D01*
X82062286Y-145075661D01*
X82030630Y-145110398D01*
X81992922Y-145150505D01*
X81948641Y-145196581D01*
X81897264Y-145249224D01*
X81838272Y-145309032D01*
X81771141Y-145376604D01*
X81695350Y-145452536D01*
X81610378Y-145537428D01*
X81515703Y-145631878D01*
X81410803Y-145736483D01*
X81295157Y-145851842D01*
X81294361Y-145852636D01*
X81181994Y-145964751D01*
X81080362Y-146066112D01*
X80988884Y-146157278D01*
X80906982Y-146238809D01*
X80834075Y-146311263D01*
X80769585Y-146375199D01*
X80712930Y-146431177D01*
X80663531Y-146479755D01*
X80620809Y-146521493D01*
X80584184Y-146556950D01*
X80553076Y-146586683D01*
X80526904Y-146611254D01*
X80505091Y-146631220D01*
X80487055Y-146647141D01*
X80472217Y-146659576D01*
X80459997Y-146669084D01*
X80449815Y-146676223D01*
X80441092Y-146681553D01*
X80433248Y-146685634D01*
X80428000Y-146688032D01*
X80364394Y-146708176D01*
X80298940Y-146714720D01*
X80235479Y-146707465D01*
X80208441Y-146699589D01*
X80144530Y-146669030D01*
X80090945Y-146626692D01*
X80048723Y-146573604D01*
X80019464Y-146512398D01*
X80017391Y-146506135D01*
X80015512Y-146499192D01*
X80013818Y-146490795D01*
X80012298Y-146480166D01*
X80010944Y-146466531D01*
X80009745Y-146449112D01*
X80008693Y-146427135D01*
X80007777Y-146399823D01*
X80006989Y-146366400D01*
X80006319Y-146326091D01*
X80005757Y-146278120D01*
X80005294Y-146221710D01*
X80004919Y-146156086D01*
X80004625Y-146080473D01*
X80004401Y-145994093D01*
X80004238Y-145896171D01*
X80004126Y-145785932D01*
X80004074Y-145695980D01*
X80604000Y-145695980D01*
X81439980Y-144860000D01*
X81021990Y-144442009D01*
X80604000Y-144024019D01*
X80604000Y-145695980D01*
X80004074Y-145695980D01*
X80004055Y-145662600D01*
X80004017Y-145525398D01*
X80004002Y-145373550D01*
X80004000Y-145250279D01*
X80004000Y-144032159D01*
X79462000Y-144572987D01*
X79365447Y-144669233D01*
X79279565Y-144754625D01*
X79203792Y-144829703D01*
X79137566Y-144895009D01*
X79080327Y-144951084D01*
X79031512Y-144998468D01*
X78990561Y-145037703D01*
X78956912Y-145069330D01*
X78930005Y-145093891D01*
X78909277Y-145111925D01*
X78894167Y-145123974D01*
X78884115Y-145130579D01*
X78882915Y-145131177D01*
X78819092Y-145152758D01*
X78754104Y-145159470D01*
X78690073Y-145152107D01*
X78629124Y-145131458D01*
X78573381Y-145098315D01*
X78524967Y-145053468D01*
X78486006Y-144997708D01*
X78476963Y-144980000D01*
X78466694Y-144955914D01*
X78460420Y-144933295D01*
X78457208Y-144906784D01*
X78456128Y-144871022D01*
X78456082Y-144859831D01*
X78455830Y-144841584D01*
X78455492Y-144825282D01*
X78455632Y-144810262D01*
X78456814Y-144795864D01*
X78459602Y-144781424D01*
X78464560Y-144766282D01*
X78472253Y-144749776D01*
X78483244Y-144731243D01*
X78498097Y-144710022D01*
X78517377Y-144685451D01*
X78541647Y-144656868D01*
X78571472Y-144623612D01*
X78607415Y-144585020D01*
X78650041Y-144540431D01*
X78699913Y-144489183D01*
X78757597Y-144430613D01*
X78823655Y-144364062D01*
X78898652Y-144288865D01*
X78983151Y-144204362D01*
X79077718Y-144109891D01*
X79163668Y-144024019D01*
X79182916Y-144004789D01*
X79195651Y-143992061D01*
X79883911Y-143304123D01*
X79189187Y-142608061D01*
X79165142Y-142583980D01*
X80604000Y-142583980D01*
X81439980Y-141748000D01*
X81021990Y-141330009D01*
X80604000Y-140912019D01*
X80604000Y-142583980D01*
X79165142Y-142583980D01*
X79083312Y-142502029D01*
X78988111Y-142406722D01*
X78903019Y-142321477D01*
X78827473Y-142245631D01*
X78760906Y-142178522D01*
X78702756Y-142119488D01*
X78652456Y-142067864D01*
X78609442Y-142022989D01*
X78573150Y-141984199D01*
X78543014Y-141950832D01*
X78518471Y-141922225D01*
X78498954Y-141897716D01*
X78483901Y-141876641D01*
X78472744Y-141858338D01*
X78464922Y-141842144D01*
X78459867Y-141827397D01*
X78457016Y-141813432D01*
X78455804Y-141799589D01*
X78455666Y-141785203D01*
X78456038Y-141769613D01*
X78456354Y-141752155D01*
X78456360Y-141748000D01*
X78456889Y-141709245D01*
X78459325Y-141681109D01*
X78464586Y-141658239D01*
X78473592Y-141635284D01*
X78476963Y-141628000D01*
X78512798Y-141569299D01*
X78558565Y-141521353D01*
X78612155Y-141484923D01*
X78671464Y-141460772D01*
X78734384Y-141449662D01*
X78798810Y-141452355D01*
X78862635Y-141469612D01*
X78886004Y-141480004D01*
X78895386Y-141485686D01*
X78908387Y-141495414D01*
X78925646Y-141509803D01*
X78947803Y-141529469D01*
X78975496Y-141555027D01*
X79009364Y-141587092D01*
X79050046Y-141626279D01*
X79098181Y-141673203D01*
X79154409Y-141728480D01*
X79219367Y-141792724D01*
X79293695Y-141866550D01*
X79378032Y-141950575D01*
X79466000Y-142038400D01*
X80004000Y-142575955D01*
X80004000Y-141359230D01*
X80004003Y-141196102D01*
X80004022Y-141048196D01*
X80004064Y-140914735D01*
X80004066Y-140912019D01*
X80004141Y-140794941D01*
X80004261Y-140688036D01*
X80004434Y-140593242D01*
X80004670Y-140509782D01*
X80004979Y-140436879D01*
X80005371Y-140373753D01*
X80005855Y-140319628D01*
X80006440Y-140273727D01*
X80007138Y-140235270D01*
X80007956Y-140203481D01*
X80008906Y-140177581D01*
X80009997Y-140156794D01*
X80011238Y-140140341D01*
X80012640Y-140127445D01*
X80014211Y-140117328D01*
X80015963Y-140109212D01*
X80017904Y-140102320D01*
X80019790Y-140096610D01*
X80047446Y-140036302D01*
X80086022Y-139986100D01*
X80136891Y-139944552D01*
X80192000Y-139914414D01*
X80216775Y-139904734D01*
X80242496Y-139899062D01*
X80274715Y-139896487D01*
X80304000Y-139896040D01*
X80342135Y-139896756D01*
G37*
%TD*%
%TA.AperFunction,NonConductor*%
G36*
X89733621Y-40028502D02*
G01*
X89780114Y-40082158D01*
X89791500Y-40134500D01*
X89791500Y-137087310D01*
X89771498Y-137155431D01*
X89717842Y-137201924D01*
X89647568Y-137212028D01*
X89582988Y-137182534D01*
X89576405Y-137176405D01*
X88900000Y-136500000D01*
X71700000Y-136500000D01*
X71023595Y-137176405D01*
X70961283Y-137210431D01*
X70890468Y-137205366D01*
X70833632Y-137162819D01*
X70808821Y-137096299D01*
X70808500Y-137087310D01*
X70808500Y-128897404D01*
X78036941Y-128897404D01*
X78063091Y-129196292D01*
X78064001Y-129200364D01*
X78064002Y-129200369D01*
X78127628Y-129485016D01*
X78128540Y-129489095D01*
X78232140Y-129770671D01*
X78234084Y-129774359D01*
X78234088Y-129774367D01*
X78330805Y-129957807D01*
X78372069Y-130036071D01*
X78545871Y-130280633D01*
X78750490Y-130500061D01*
X78982333Y-130690498D01*
X79237325Y-130848600D01*
X79510988Y-130971589D01*
X79685368Y-131023574D01*
X79794514Y-131056112D01*
X79794516Y-131056112D01*
X79798513Y-131057304D01*
X79802633Y-131057957D01*
X79802635Y-131057957D01*
X79921509Y-131076785D01*
X80094848Y-131104239D01*
X80137577Y-131106179D01*
X80187262Y-131108436D01*
X80187281Y-131108436D01*
X80188681Y-131108500D01*
X80376107Y-131108500D01*
X80599370Y-131093671D01*
X80603464Y-131092846D01*
X80603468Y-131092845D01*
X80744513Y-131064405D01*
X80893480Y-131034368D01*
X81177163Y-130936688D01*
X81180896Y-130934819D01*
X81180900Y-130934817D01*
X81441691Y-130804222D01*
X81441693Y-130804221D01*
X81445435Y-130802347D01*
X81693584Y-130633706D01*
X81917248Y-130433726D01*
X81919966Y-130430555D01*
X82109779Y-130209097D01*
X82109782Y-130209093D01*
X82112499Y-130205923D01*
X82114773Y-130202421D01*
X82114777Y-130202416D01*
X82273628Y-129957807D01*
X82273631Y-129957802D01*
X82275907Y-129954297D01*
X82404600Y-129683270D01*
X82496318Y-129397604D01*
X82549448Y-129102316D01*
X82563059Y-128802596D01*
X82536909Y-128503708D01*
X82492832Y-128306515D01*
X82472372Y-128214984D01*
X82472371Y-128214981D01*
X82471460Y-128210905D01*
X82367860Y-127929329D01*
X82365916Y-127925641D01*
X82365912Y-127925633D01*
X82229884Y-127667633D01*
X82229883Y-127667632D01*
X82227931Y-127663929D01*
X82054129Y-127419367D01*
X81849510Y-127199939D01*
X81617667Y-127009502D01*
X81362675Y-126851400D01*
X81089012Y-126728411D01*
X80875650Y-126664805D01*
X80805486Y-126643888D01*
X80805484Y-126643888D01*
X80801487Y-126642696D01*
X80797367Y-126642043D01*
X80797365Y-126642043D01*
X80678491Y-126623215D01*
X80505152Y-126595761D01*
X80462423Y-126593821D01*
X80412738Y-126591564D01*
X80412719Y-126591564D01*
X80411319Y-126591500D01*
X80223893Y-126591500D01*
X80000630Y-126606329D01*
X79996536Y-126607154D01*
X79996532Y-126607155D01*
X79855487Y-126635595D01*
X79706520Y-126665632D01*
X79422837Y-126763312D01*
X79419104Y-126765181D01*
X79419100Y-126765183D01*
X79158309Y-126895778D01*
X79154565Y-126897653D01*
X78906416Y-127066294D01*
X78682752Y-127266274D01*
X78680035Y-127269444D01*
X78680034Y-127269445D01*
X78554155Y-127416311D01*
X78487501Y-127494077D01*
X78485227Y-127497579D01*
X78485223Y-127497584D01*
X78374792Y-127667633D01*
X78324093Y-127745703D01*
X78195400Y-128016730D01*
X78103682Y-128302396D01*
X78050552Y-128597684D01*
X78036941Y-128897404D01*
X70808500Y-128897404D01*
X70808500Y-114897404D01*
X78036941Y-114897404D01*
X78063091Y-115196292D01*
X78064001Y-115200364D01*
X78064002Y-115200369D01*
X78127628Y-115485016D01*
X78128540Y-115489095D01*
X78232140Y-115770671D01*
X78234084Y-115774359D01*
X78234088Y-115774367D01*
X78330805Y-115957807D01*
X78372069Y-116036071D01*
X78545871Y-116280633D01*
X78750490Y-116500061D01*
X78982333Y-116690498D01*
X79237325Y-116848600D01*
X79510988Y-116971589D01*
X79685368Y-117023574D01*
X79794514Y-117056112D01*
X79794516Y-117056112D01*
X79798513Y-117057304D01*
X79802633Y-117057957D01*
X79802635Y-117057957D01*
X79921509Y-117076785D01*
X80094848Y-117104239D01*
X80137577Y-117106179D01*
X80187262Y-117108436D01*
X80187281Y-117108436D01*
X80188681Y-117108500D01*
X80376107Y-117108500D01*
X80599370Y-117093671D01*
X80603464Y-117092846D01*
X80603468Y-117092845D01*
X80744513Y-117064405D01*
X80893480Y-117034368D01*
X81177163Y-116936688D01*
X81180896Y-116934819D01*
X81180900Y-116934817D01*
X81441691Y-116804222D01*
X81441693Y-116804221D01*
X81445435Y-116802347D01*
X81693584Y-116633706D01*
X81917248Y-116433726D01*
X81919966Y-116430555D01*
X82109779Y-116209097D01*
X82109782Y-116209093D01*
X82112499Y-116205923D01*
X82114773Y-116202421D01*
X82114777Y-116202416D01*
X82273628Y-115957807D01*
X82273631Y-115957802D01*
X82275907Y-115954297D01*
X82404600Y-115683270D01*
X82496318Y-115397604D01*
X82549448Y-115102316D01*
X82563059Y-114802596D01*
X82536909Y-114503708D01*
X82492832Y-114306515D01*
X82472372Y-114214984D01*
X82472371Y-114214981D01*
X82471460Y-114210905D01*
X82367860Y-113929329D01*
X82365916Y-113925641D01*
X82365912Y-113925633D01*
X82229884Y-113667633D01*
X82229883Y-113667632D01*
X82227931Y-113663929D01*
X82054129Y-113419367D01*
X81849510Y-113199939D01*
X81617667Y-113009502D01*
X81362675Y-112851400D01*
X81089012Y-112728411D01*
X80875650Y-112664805D01*
X80805486Y-112643888D01*
X80805484Y-112643888D01*
X80801487Y-112642696D01*
X80797367Y-112642043D01*
X80797365Y-112642043D01*
X80678491Y-112623215D01*
X80505152Y-112595761D01*
X80462423Y-112593821D01*
X80412738Y-112591564D01*
X80412719Y-112591564D01*
X80411319Y-112591500D01*
X80223893Y-112591500D01*
X80000630Y-112606329D01*
X79996536Y-112607154D01*
X79996532Y-112607155D01*
X79855487Y-112635595D01*
X79706520Y-112665632D01*
X79422837Y-112763312D01*
X79419104Y-112765181D01*
X79419100Y-112765183D01*
X79158309Y-112895778D01*
X79154565Y-112897653D01*
X78906416Y-113066294D01*
X78682752Y-113266274D01*
X78680035Y-113269444D01*
X78680034Y-113269445D01*
X78554155Y-113416311D01*
X78487501Y-113494077D01*
X78485227Y-113497579D01*
X78485223Y-113497584D01*
X78374792Y-113667633D01*
X78324093Y-113745703D01*
X78195400Y-114016730D01*
X78103682Y-114302396D01*
X78050552Y-114597684D01*
X78036941Y-114897404D01*
X70808500Y-114897404D01*
X70808500Y-103093283D01*
X76737670Y-103093283D01*
X76767753Y-103471302D01*
X76768370Y-103474581D01*
X76768370Y-103474584D01*
X76802921Y-103658317D01*
X76837835Y-103843985D01*
X76947123Y-104207110D01*
X77094380Y-104556565D01*
X77095999Y-104559492D01*
X77096003Y-104559500D01*
X77187344Y-104724623D01*
X77277937Y-104888394D01*
X77279858Y-104891132D01*
X77279864Y-104891142D01*
X77390646Y-105049061D01*
X77495717Y-105198839D01*
X77745252Y-105484383D01*
X78023718Y-105741795D01*
X78327961Y-105968157D01*
X78330855Y-105969865D01*
X78651644Y-106159202D01*
X78651649Y-106159204D01*
X78654535Y-106160908D01*
X78657588Y-106162296D01*
X78996696Y-106316480D01*
X78996702Y-106316482D01*
X78999743Y-106317865D01*
X79002916Y-106318918D01*
X79002920Y-106318919D01*
X79104059Y-106352465D01*
X79359675Y-106437250D01*
X79730255Y-106517710D01*
X79808223Y-106526111D01*
X80104768Y-106558065D01*
X80104779Y-106558066D01*
X80107287Y-106558336D01*
X80109809Y-106558404D01*
X80109820Y-106558405D01*
X80111697Y-106558455D01*
X80113347Y-106558500D01*
X80394796Y-106558500D01*
X80396462Y-106558411D01*
X80396471Y-106558411D01*
X80675345Y-106543552D01*
X80675354Y-106543551D01*
X80678677Y-106543374D01*
X80921536Y-106504257D01*
X81049765Y-106483603D01*
X81049768Y-106483602D01*
X81053067Y-106483071D01*
X81056296Y-106482191D01*
X81056299Y-106482190D01*
X81415682Y-106384211D01*
X81415683Y-106384211D01*
X81418928Y-106383326D01*
X81772119Y-106245268D01*
X81934518Y-106160908D01*
X82105669Y-106072002D01*
X82105672Y-106072000D01*
X82108639Y-106070459D01*
X82424678Y-105860881D01*
X82494398Y-105803101D01*
X82714073Y-105621048D01*
X82714079Y-105621043D01*
X82716657Y-105618906D01*
X82981269Y-105347273D01*
X83215518Y-105049061D01*
X83416752Y-104727644D01*
X83582691Y-104386663D01*
X83711457Y-104029980D01*
X83801591Y-103661632D01*
X83852072Y-103285793D01*
X83862330Y-102906717D01*
X83832247Y-102528698D01*
X83831630Y-102525416D01*
X83762783Y-102159299D01*
X83762781Y-102159291D01*
X83762165Y-102156015D01*
X83652877Y-101792890D01*
X83505620Y-101443435D01*
X83504001Y-101440508D01*
X83503997Y-101440500D01*
X83323689Y-101114546D01*
X83322063Y-101111606D01*
X83320142Y-101108868D01*
X83320136Y-101108858D01*
X83106206Y-100803902D01*
X83106204Y-100803900D01*
X83104283Y-100801161D01*
X82854748Y-100515617D01*
X82576282Y-100258205D01*
X82272039Y-100031843D01*
X82096097Y-99927998D01*
X81948356Y-99840798D01*
X81948351Y-99840796D01*
X81945465Y-99839092D01*
X81863345Y-99801754D01*
X81603304Y-99683520D01*
X81603298Y-99683518D01*
X81600257Y-99682135D01*
X81597084Y-99681082D01*
X81597080Y-99681081D01*
X81495941Y-99647535D01*
X81240325Y-99562750D01*
X80869745Y-99482290D01*
X80791777Y-99473889D01*
X80495232Y-99441935D01*
X80495221Y-99441934D01*
X80492713Y-99441664D01*
X80490191Y-99441596D01*
X80490180Y-99441595D01*
X80488303Y-99441545D01*
X80486653Y-99441500D01*
X80205204Y-99441500D01*
X80203538Y-99441589D01*
X80203529Y-99441589D01*
X79924655Y-99456448D01*
X79924646Y-99456449D01*
X79921323Y-99456626D01*
X79764224Y-99481930D01*
X79550235Y-99516397D01*
X79550232Y-99516398D01*
X79546933Y-99516929D01*
X79543704Y-99517809D01*
X79543701Y-99517810D01*
X79378863Y-99562750D01*
X79181072Y-99616674D01*
X78827881Y-99754732D01*
X78824899Y-99756281D01*
X78662198Y-99840798D01*
X78491361Y-99929541D01*
X78175322Y-100139119D01*
X78172746Y-100141254D01*
X77885927Y-100378952D01*
X77885921Y-100378957D01*
X77883343Y-100381094D01*
X77618731Y-100652727D01*
X77384482Y-100950939D01*
X77183248Y-101272356D01*
X77017309Y-101613337D01*
X76888543Y-101970020D01*
X76798409Y-102338368D01*
X76747928Y-102714207D01*
X76737670Y-103093283D01*
X70808500Y-103093283D01*
X70808500Y-95229733D01*
X78287822Y-95229733D01*
X78297625Y-95510458D01*
X78298387Y-95514781D01*
X78298388Y-95514788D01*
X78322164Y-95649624D01*
X78346402Y-95787087D01*
X78433203Y-96054235D01*
X78556340Y-96306702D01*
X78558795Y-96310341D01*
X78558798Y-96310347D01*
X78631890Y-96418710D01*
X78713415Y-96539576D01*
X78901371Y-96748322D01*
X79116550Y-96928879D01*
X79354764Y-97077731D01*
X79611375Y-97191982D01*
X79881390Y-97269407D01*
X79885740Y-97270018D01*
X79885743Y-97270019D01*
X79988690Y-97284487D01*
X80159552Y-97308500D01*
X80370146Y-97308500D01*
X80372332Y-97308347D01*
X80372336Y-97308347D01*
X80575827Y-97294118D01*
X80575832Y-97294117D01*
X80580212Y-97293811D01*
X80854970Y-97235409D01*
X80859099Y-97233906D01*
X80859103Y-97233905D01*
X81114781Y-97140846D01*
X81114785Y-97140844D01*
X81118926Y-97139337D01*
X81366942Y-97007464D01*
X81471896Y-96931211D01*
X81590629Y-96844947D01*
X81590632Y-96844944D01*
X81594192Y-96842358D01*
X81796252Y-96647231D01*
X81969188Y-96425882D01*
X81971384Y-96422078D01*
X81971389Y-96422071D01*
X82107435Y-96186431D01*
X82109636Y-96182619D01*
X82214862Y-95922176D01*
X82248544Y-95787087D01*
X82281753Y-95653893D01*
X82281754Y-95653888D01*
X82282817Y-95649624D01*
X82312178Y-95370267D01*
X82302375Y-95089542D01*
X82278608Y-94954749D01*
X82254360Y-94817236D01*
X82253598Y-94812913D01*
X82166797Y-94545765D01*
X82043660Y-94293298D01*
X82041205Y-94289659D01*
X82041202Y-94289653D01*
X81960935Y-94170653D01*
X81886585Y-94060424D01*
X81698629Y-93851678D01*
X81483450Y-93671121D01*
X81245236Y-93522269D01*
X80988625Y-93408018D01*
X80718610Y-93330593D01*
X80714260Y-93329982D01*
X80714257Y-93329981D01*
X80611310Y-93315513D01*
X80440448Y-93291500D01*
X80229854Y-93291500D01*
X80227668Y-93291653D01*
X80227664Y-93291653D01*
X80024173Y-93305882D01*
X80024168Y-93305883D01*
X80019788Y-93306189D01*
X79745030Y-93364591D01*
X79740901Y-93366094D01*
X79740897Y-93366095D01*
X79485219Y-93459154D01*
X79485215Y-93459156D01*
X79481074Y-93460663D01*
X79233058Y-93592536D01*
X79229499Y-93595122D01*
X79229497Y-93595123D01*
X79124895Y-93671121D01*
X79005808Y-93757642D01*
X78803748Y-93952769D01*
X78630812Y-94174118D01*
X78628616Y-94177922D01*
X78628611Y-94177929D01*
X78514794Y-94375067D01*
X78490364Y-94417381D01*
X78385138Y-94677824D01*
X78384073Y-94682097D01*
X78384072Y-94682099D01*
X78350379Y-94817236D01*
X78317183Y-94950376D01*
X78287822Y-95229733D01*
X70808500Y-95229733D01*
X70808500Y-85093283D01*
X76737670Y-85093283D01*
X76767753Y-85471302D01*
X76768370Y-85474581D01*
X76768370Y-85474584D01*
X76802921Y-85658317D01*
X76837835Y-85843985D01*
X76947123Y-86207110D01*
X77094380Y-86556565D01*
X77095999Y-86559492D01*
X77096003Y-86559500D01*
X77187344Y-86724623D01*
X77277937Y-86888394D01*
X77279858Y-86891132D01*
X77279864Y-86891142D01*
X77390646Y-87049061D01*
X77495717Y-87198839D01*
X77745252Y-87484383D01*
X78023718Y-87741795D01*
X78327961Y-87968157D01*
X78330855Y-87969865D01*
X78651644Y-88159202D01*
X78651649Y-88159204D01*
X78654535Y-88160908D01*
X78657588Y-88162296D01*
X78996696Y-88316480D01*
X78996702Y-88316482D01*
X78999743Y-88317865D01*
X79002916Y-88318918D01*
X79002920Y-88318919D01*
X79104059Y-88352465D01*
X79359675Y-88437250D01*
X79730255Y-88517710D01*
X79808223Y-88526111D01*
X80104768Y-88558065D01*
X80104779Y-88558066D01*
X80107287Y-88558336D01*
X80109809Y-88558404D01*
X80109820Y-88558405D01*
X80111697Y-88558455D01*
X80113347Y-88558500D01*
X80394796Y-88558500D01*
X80396462Y-88558411D01*
X80396471Y-88558411D01*
X80675345Y-88543552D01*
X80675354Y-88543551D01*
X80678677Y-88543374D01*
X80921536Y-88504257D01*
X81049765Y-88483603D01*
X81049768Y-88483602D01*
X81053067Y-88483071D01*
X81056296Y-88482191D01*
X81056299Y-88482190D01*
X81415682Y-88384211D01*
X81415683Y-88384211D01*
X81418928Y-88383326D01*
X81772119Y-88245268D01*
X81934518Y-88160908D01*
X82105669Y-88072002D01*
X82105672Y-88072000D01*
X82108639Y-88070459D01*
X82424678Y-87860881D01*
X82494398Y-87803101D01*
X82714073Y-87621048D01*
X82714079Y-87621043D01*
X82716657Y-87618906D01*
X82981269Y-87347273D01*
X83215518Y-87049061D01*
X83416752Y-86727644D01*
X83582691Y-86386663D01*
X83711457Y-86029980D01*
X83801591Y-85661632D01*
X83852072Y-85285793D01*
X83862330Y-84906717D01*
X83832247Y-84528698D01*
X83831630Y-84525416D01*
X83762783Y-84159299D01*
X83762781Y-84159291D01*
X83762165Y-84156015D01*
X83652877Y-83792890D01*
X83505620Y-83443435D01*
X83504001Y-83440508D01*
X83503997Y-83440500D01*
X83323689Y-83114546D01*
X83322063Y-83111606D01*
X83320142Y-83108868D01*
X83320136Y-83108858D01*
X83106206Y-82803902D01*
X83106204Y-82803900D01*
X83104283Y-82801161D01*
X82854748Y-82515617D01*
X82576282Y-82258205D01*
X82272039Y-82031843D01*
X82096097Y-81927998D01*
X81948356Y-81840798D01*
X81948351Y-81840796D01*
X81945465Y-81839092D01*
X81863345Y-81801754D01*
X81603304Y-81683520D01*
X81603298Y-81683518D01*
X81600257Y-81682135D01*
X81597084Y-81681082D01*
X81597080Y-81681081D01*
X81495941Y-81647535D01*
X81240325Y-81562750D01*
X80869745Y-81482290D01*
X80791777Y-81473889D01*
X80495232Y-81441935D01*
X80495221Y-81441934D01*
X80492713Y-81441664D01*
X80490191Y-81441596D01*
X80490180Y-81441595D01*
X80488303Y-81441545D01*
X80486653Y-81441500D01*
X80205204Y-81441500D01*
X80203538Y-81441589D01*
X80203529Y-81441589D01*
X79924655Y-81456448D01*
X79924646Y-81456449D01*
X79921323Y-81456626D01*
X79764224Y-81481930D01*
X79550235Y-81516397D01*
X79550232Y-81516398D01*
X79546933Y-81516929D01*
X79543704Y-81517809D01*
X79543701Y-81517810D01*
X79378863Y-81562750D01*
X79181072Y-81616674D01*
X78827881Y-81754732D01*
X78824899Y-81756281D01*
X78662198Y-81840798D01*
X78491361Y-81929541D01*
X78175322Y-82139119D01*
X78172746Y-82141254D01*
X77885927Y-82378952D01*
X77885921Y-82378957D01*
X77883343Y-82381094D01*
X77618731Y-82652727D01*
X77384482Y-82950939D01*
X77183248Y-83272356D01*
X77017309Y-83613337D01*
X76888543Y-83970020D01*
X76798409Y-84338368D01*
X76747928Y-84714207D01*
X76737670Y-85093283D01*
X70808500Y-85093283D01*
X70808500Y-77229733D01*
X78287822Y-77229733D01*
X78297625Y-77510458D01*
X78298387Y-77514781D01*
X78298388Y-77514788D01*
X78322164Y-77649624D01*
X78346402Y-77787087D01*
X78433203Y-78054235D01*
X78556340Y-78306702D01*
X78558795Y-78310341D01*
X78558798Y-78310347D01*
X78631890Y-78418710D01*
X78713415Y-78539576D01*
X78901371Y-78748322D01*
X79116550Y-78928879D01*
X79354764Y-79077731D01*
X79611375Y-79191982D01*
X79881390Y-79269407D01*
X79885740Y-79270018D01*
X79885743Y-79270019D01*
X79988690Y-79284487D01*
X80159552Y-79308500D01*
X80370146Y-79308500D01*
X80372332Y-79308347D01*
X80372336Y-79308347D01*
X80575827Y-79294118D01*
X80575832Y-79294117D01*
X80580212Y-79293811D01*
X80854970Y-79235409D01*
X80859099Y-79233906D01*
X80859103Y-79233905D01*
X81114781Y-79140846D01*
X81114785Y-79140844D01*
X81118926Y-79139337D01*
X81366942Y-79007464D01*
X81471896Y-78931211D01*
X81590629Y-78844947D01*
X81590632Y-78844944D01*
X81594192Y-78842358D01*
X81796252Y-78647231D01*
X81969188Y-78425882D01*
X81971384Y-78422078D01*
X81971389Y-78422071D01*
X82107435Y-78186431D01*
X82109636Y-78182619D01*
X82214862Y-77922176D01*
X82248544Y-77787087D01*
X82281753Y-77653893D01*
X82281754Y-77653888D01*
X82282817Y-77649624D01*
X82312178Y-77370267D01*
X82302375Y-77089542D01*
X82278608Y-76954749D01*
X82254360Y-76817236D01*
X82253598Y-76812913D01*
X82166797Y-76545765D01*
X82043660Y-76293298D01*
X82041205Y-76289659D01*
X82041202Y-76289653D01*
X81960935Y-76170653D01*
X81886585Y-76060424D01*
X81698629Y-75851678D01*
X81483450Y-75671121D01*
X81245236Y-75522269D01*
X80988625Y-75408018D01*
X80718610Y-75330593D01*
X80714260Y-75329982D01*
X80714257Y-75329981D01*
X80611310Y-75315513D01*
X80440448Y-75291500D01*
X80229854Y-75291500D01*
X80227668Y-75291653D01*
X80227664Y-75291653D01*
X80024173Y-75305882D01*
X80024168Y-75305883D01*
X80019788Y-75306189D01*
X79745030Y-75364591D01*
X79740901Y-75366094D01*
X79740897Y-75366095D01*
X79485219Y-75459154D01*
X79485215Y-75459156D01*
X79481074Y-75460663D01*
X79233058Y-75592536D01*
X79229499Y-75595122D01*
X79229497Y-75595123D01*
X79124895Y-75671121D01*
X79005808Y-75757642D01*
X78803748Y-75952769D01*
X78630812Y-76174118D01*
X78628616Y-76177922D01*
X78628611Y-76177929D01*
X78514794Y-76375067D01*
X78490364Y-76417381D01*
X78385138Y-76677824D01*
X78384073Y-76682097D01*
X78384072Y-76682099D01*
X78350379Y-76817236D01*
X78317183Y-76950376D01*
X78287822Y-77229733D01*
X70808500Y-77229733D01*
X70808500Y-67093283D01*
X76737670Y-67093283D01*
X76767753Y-67471302D01*
X76768370Y-67474581D01*
X76768370Y-67474584D01*
X76802921Y-67658317D01*
X76837835Y-67843985D01*
X76947123Y-68207110D01*
X77094380Y-68556565D01*
X77095999Y-68559492D01*
X77096003Y-68559500D01*
X77187344Y-68724623D01*
X77277937Y-68888394D01*
X77279858Y-68891132D01*
X77279864Y-68891142D01*
X77390646Y-69049061D01*
X77495717Y-69198839D01*
X77745252Y-69484383D01*
X78023718Y-69741795D01*
X78327961Y-69968157D01*
X78330855Y-69969865D01*
X78651644Y-70159202D01*
X78651649Y-70159204D01*
X78654535Y-70160908D01*
X78657588Y-70162296D01*
X78996696Y-70316480D01*
X78996702Y-70316482D01*
X78999743Y-70317865D01*
X79002916Y-70318918D01*
X79002920Y-70318919D01*
X79104059Y-70352465D01*
X79359675Y-70437250D01*
X79730255Y-70517710D01*
X79808223Y-70526111D01*
X80104768Y-70558065D01*
X80104779Y-70558066D01*
X80107287Y-70558336D01*
X80109809Y-70558404D01*
X80109820Y-70558405D01*
X80111697Y-70558455D01*
X80113347Y-70558500D01*
X80394796Y-70558500D01*
X80396462Y-70558411D01*
X80396471Y-70558411D01*
X80675345Y-70543552D01*
X80675354Y-70543551D01*
X80678677Y-70543374D01*
X80921536Y-70504257D01*
X81049765Y-70483603D01*
X81049768Y-70483602D01*
X81053067Y-70483071D01*
X81056296Y-70482191D01*
X81056299Y-70482190D01*
X81415682Y-70384211D01*
X81415683Y-70384211D01*
X81418928Y-70383326D01*
X81772119Y-70245268D01*
X81934518Y-70160908D01*
X82105669Y-70072002D01*
X82105672Y-70072000D01*
X82108639Y-70070459D01*
X82424678Y-69860881D01*
X82494398Y-69803101D01*
X82714073Y-69621048D01*
X82714079Y-69621043D01*
X82716657Y-69618906D01*
X82981269Y-69347273D01*
X83215518Y-69049061D01*
X83416752Y-68727644D01*
X83582691Y-68386663D01*
X83711457Y-68029980D01*
X83801591Y-67661632D01*
X83852072Y-67285793D01*
X83862330Y-66906717D01*
X83832247Y-66528698D01*
X83831630Y-66525416D01*
X83762783Y-66159299D01*
X83762781Y-66159291D01*
X83762165Y-66156015D01*
X83652877Y-65792890D01*
X83505620Y-65443435D01*
X83504001Y-65440508D01*
X83503997Y-65440500D01*
X83323689Y-65114546D01*
X83322063Y-65111606D01*
X83320142Y-65108868D01*
X83320136Y-65108858D01*
X83106206Y-64803902D01*
X83106204Y-64803900D01*
X83104283Y-64801161D01*
X82854748Y-64515617D01*
X82576282Y-64258205D01*
X82272039Y-64031843D01*
X82096097Y-63927998D01*
X81948356Y-63840798D01*
X81948351Y-63840796D01*
X81945465Y-63839092D01*
X81863345Y-63801754D01*
X81603304Y-63683520D01*
X81603298Y-63683518D01*
X81600257Y-63682135D01*
X81597084Y-63681082D01*
X81597080Y-63681081D01*
X81495941Y-63647535D01*
X81240325Y-63562750D01*
X80869745Y-63482290D01*
X80791777Y-63473889D01*
X80495232Y-63441935D01*
X80495221Y-63441934D01*
X80492713Y-63441664D01*
X80490191Y-63441596D01*
X80490180Y-63441595D01*
X80488303Y-63441545D01*
X80486653Y-63441500D01*
X80205204Y-63441500D01*
X80203538Y-63441589D01*
X80203529Y-63441589D01*
X79924655Y-63456448D01*
X79924646Y-63456449D01*
X79921323Y-63456626D01*
X79764224Y-63481930D01*
X79550235Y-63516397D01*
X79550232Y-63516398D01*
X79546933Y-63516929D01*
X79543704Y-63517809D01*
X79543701Y-63517810D01*
X79378863Y-63562750D01*
X79181072Y-63616674D01*
X78827881Y-63754732D01*
X78824899Y-63756281D01*
X78662198Y-63840798D01*
X78491361Y-63929541D01*
X78175322Y-64139119D01*
X78172746Y-64141254D01*
X77885927Y-64378952D01*
X77885921Y-64378957D01*
X77883343Y-64381094D01*
X77618731Y-64652727D01*
X77384482Y-64950939D01*
X77183248Y-65272356D01*
X77017309Y-65613337D01*
X76888543Y-65970020D01*
X76798409Y-66338368D01*
X76747928Y-66714207D01*
X76737670Y-67093283D01*
X70808500Y-67093283D01*
X70808500Y-59129733D01*
X78287822Y-59129733D01*
X78297625Y-59410458D01*
X78298387Y-59414781D01*
X78298388Y-59414788D01*
X78322164Y-59549624D01*
X78346402Y-59687087D01*
X78433203Y-59954235D01*
X78556340Y-60206702D01*
X78558795Y-60210341D01*
X78558798Y-60210347D01*
X78631890Y-60318710D01*
X78713415Y-60439576D01*
X78901371Y-60648322D01*
X79116550Y-60828879D01*
X79354764Y-60977731D01*
X79611375Y-61091982D01*
X79881390Y-61169407D01*
X79885740Y-61170018D01*
X79885743Y-61170019D01*
X79988690Y-61184487D01*
X80159552Y-61208500D01*
X80370146Y-61208500D01*
X80372332Y-61208347D01*
X80372336Y-61208347D01*
X80575827Y-61194118D01*
X80575832Y-61194117D01*
X80580212Y-61193811D01*
X80854970Y-61135409D01*
X80859099Y-61133906D01*
X80859103Y-61133905D01*
X81114781Y-61040846D01*
X81114785Y-61040844D01*
X81118926Y-61039337D01*
X81366942Y-60907464D01*
X81471896Y-60831211D01*
X81590629Y-60744947D01*
X81590632Y-60744944D01*
X81594192Y-60742358D01*
X81796252Y-60547231D01*
X81969188Y-60325882D01*
X81971384Y-60322078D01*
X81971389Y-60322071D01*
X82107435Y-60086431D01*
X82109636Y-60082619D01*
X82214862Y-59822176D01*
X82248544Y-59687087D01*
X82281753Y-59553893D01*
X82281754Y-59553888D01*
X82282817Y-59549624D01*
X82312178Y-59270267D01*
X82302375Y-58989542D01*
X82278608Y-58854749D01*
X82254360Y-58717236D01*
X82253598Y-58712913D01*
X82166797Y-58445765D01*
X82043660Y-58193298D01*
X82041205Y-58189659D01*
X82041202Y-58189653D01*
X81960935Y-58070653D01*
X81886585Y-57960424D01*
X81698629Y-57751678D01*
X81483450Y-57571121D01*
X81245236Y-57422269D01*
X80988625Y-57308018D01*
X80718610Y-57230593D01*
X80714260Y-57229982D01*
X80714257Y-57229981D01*
X80611310Y-57215513D01*
X80440448Y-57191500D01*
X80229854Y-57191500D01*
X80227668Y-57191653D01*
X80227664Y-57191653D01*
X80024173Y-57205882D01*
X80024168Y-57205883D01*
X80019788Y-57206189D01*
X79745030Y-57264591D01*
X79740901Y-57266094D01*
X79740897Y-57266095D01*
X79485219Y-57359154D01*
X79485215Y-57359156D01*
X79481074Y-57360663D01*
X79233058Y-57492536D01*
X79229499Y-57495122D01*
X79229497Y-57495123D01*
X79124895Y-57571121D01*
X79005808Y-57657642D01*
X78803748Y-57852769D01*
X78630812Y-58074118D01*
X78628616Y-58077922D01*
X78628611Y-58077929D01*
X78514794Y-58275067D01*
X78490364Y-58317381D01*
X78385138Y-58577824D01*
X78384073Y-58582097D01*
X78384072Y-58582099D01*
X78350379Y-58717236D01*
X78317183Y-58850376D01*
X78287822Y-59129733D01*
X70808500Y-59129733D01*
X70808500Y-42632703D01*
X79790743Y-42632703D01*
X79828268Y-42917734D01*
X79904129Y-43195036D01*
X80016923Y-43459476D01*
X80164561Y-43706161D01*
X80344313Y-43930528D01*
X80552851Y-44128423D01*
X80786317Y-44296186D01*
X80790112Y-44298195D01*
X80790113Y-44298196D01*
X80811869Y-44309715D01*
X81040392Y-44430712D01*
X81310373Y-44529511D01*
X81591264Y-44590755D01*
X81619841Y-44593004D01*
X81814282Y-44608307D01*
X81814291Y-44608307D01*
X81816739Y-44608500D01*
X83772271Y-44608500D01*
X83774407Y-44608354D01*
X83774418Y-44608354D01*
X83982548Y-44594165D01*
X83982554Y-44594164D01*
X83986825Y-44593873D01*
X83991020Y-44593004D01*
X83991022Y-44593004D01*
X84127583Y-44564724D01*
X84268342Y-44535574D01*
X84539343Y-44439607D01*
X84794812Y-44307750D01*
X84798313Y-44305289D01*
X84798317Y-44305287D01*
X84912417Y-44225096D01*
X85030023Y-44142441D01*
X85240622Y-43946740D01*
X85422713Y-43724268D01*
X85572927Y-43479142D01*
X85688483Y-43215898D01*
X85767244Y-42939406D01*
X85807751Y-42654784D01*
X85807845Y-42636951D01*
X85809235Y-42371583D01*
X85809235Y-42371576D01*
X85809257Y-42367297D01*
X85771732Y-42082266D01*
X85695871Y-41804964D01*
X85583077Y-41540524D01*
X85435439Y-41293839D01*
X85255687Y-41069472D01*
X85047149Y-40871577D01*
X84813683Y-40703814D01*
X84791843Y-40692250D01*
X84768654Y-40679972D01*
X84559608Y-40569288D01*
X84289627Y-40470489D01*
X84008736Y-40409245D01*
X83977685Y-40406801D01*
X83785718Y-40391693D01*
X83785709Y-40391693D01*
X83783261Y-40391500D01*
X81827729Y-40391500D01*
X81825593Y-40391646D01*
X81825582Y-40391646D01*
X81617452Y-40405835D01*
X81617446Y-40405836D01*
X81613175Y-40406127D01*
X81608980Y-40406996D01*
X81608978Y-40406996D01*
X81472417Y-40435276D01*
X81331658Y-40464426D01*
X81060657Y-40560393D01*
X80805188Y-40692250D01*
X80801687Y-40694711D01*
X80801683Y-40694713D01*
X80791594Y-40701804D01*
X80569977Y-40857559D01*
X80359378Y-41053260D01*
X80177287Y-41275732D01*
X80027073Y-41520858D01*
X79911517Y-41784102D01*
X79832756Y-42060594D01*
X79792249Y-42345216D01*
X79792227Y-42349505D01*
X79792226Y-42349512D01*
X79790765Y-42628417D01*
X79790743Y-42632703D01*
X70808500Y-42632703D01*
X70808500Y-40134500D01*
X70828502Y-40066379D01*
X70882158Y-40019886D01*
X70934500Y-40008500D01*
X89665500Y-40008500D01*
X89733621Y-40028502D01*
G37*
%TD.AperFunction*%
%TA.AperFunction,NonConductor*%
G36*
X71017012Y-149517466D02*
G01*
X71023595Y-149523595D01*
X71700000Y-150200000D01*
X88900000Y-150200000D01*
X89576405Y-149523595D01*
X89638717Y-149489569D01*
X89709532Y-149494634D01*
X89766368Y-149537181D01*
X89791179Y-149603701D01*
X89791500Y-149612690D01*
X89791500Y-167365500D01*
X89771498Y-167433621D01*
X89717842Y-167480114D01*
X89665500Y-167491500D01*
X70934500Y-167491500D01*
X70866379Y-167471498D01*
X70819886Y-167417842D01*
X70808500Y-167365500D01*
X70808500Y-165132703D01*
X74790743Y-165132703D01*
X74828268Y-165417734D01*
X74904129Y-165695036D01*
X75016923Y-165959476D01*
X75164561Y-166206161D01*
X75344313Y-166430528D01*
X75552851Y-166628423D01*
X75786317Y-166796186D01*
X75790112Y-166798195D01*
X75790113Y-166798196D01*
X75811869Y-166809715D01*
X76040392Y-166930712D01*
X76310373Y-167029511D01*
X76591264Y-167090755D01*
X76619841Y-167093004D01*
X76814282Y-167108307D01*
X76814291Y-167108307D01*
X76816739Y-167108500D01*
X78772271Y-167108500D01*
X78774407Y-167108354D01*
X78774418Y-167108354D01*
X78982548Y-167094165D01*
X78982554Y-167094164D01*
X78986825Y-167093873D01*
X78991020Y-167093004D01*
X78991022Y-167093004D01*
X79127584Y-167064723D01*
X79268342Y-167035574D01*
X79539343Y-166939607D01*
X79794812Y-166807750D01*
X79798313Y-166805289D01*
X79798317Y-166805287D01*
X79912418Y-166725095D01*
X80030023Y-166642441D01*
X80240622Y-166446740D01*
X80422713Y-166224268D01*
X80572927Y-165979142D01*
X80688483Y-165715898D01*
X80767244Y-165439406D01*
X80807751Y-165154784D01*
X80807845Y-165136951D01*
X80809235Y-164871583D01*
X80809235Y-164871576D01*
X80809257Y-164867297D01*
X80771732Y-164582266D01*
X80695871Y-164304964D01*
X80583077Y-164040524D01*
X80435439Y-163793839D01*
X80255687Y-163569472D01*
X80047149Y-163371577D01*
X79813683Y-163203814D01*
X79791843Y-163192250D01*
X79768654Y-163179972D01*
X79559608Y-163069288D01*
X79289627Y-162970489D01*
X79008736Y-162909245D01*
X78977685Y-162906801D01*
X78785718Y-162891693D01*
X78785709Y-162891693D01*
X78783261Y-162891500D01*
X76827729Y-162891500D01*
X76825593Y-162891646D01*
X76825582Y-162891646D01*
X76617452Y-162905835D01*
X76617446Y-162905836D01*
X76613175Y-162906127D01*
X76608980Y-162906996D01*
X76608978Y-162906996D01*
X76472416Y-162935277D01*
X76331658Y-162964426D01*
X76060657Y-163060393D01*
X75805188Y-163192250D01*
X75801687Y-163194711D01*
X75801683Y-163194713D01*
X75791594Y-163201804D01*
X75569977Y-163357559D01*
X75359378Y-163553260D01*
X75177287Y-163775732D01*
X75027073Y-164020858D01*
X74911517Y-164284102D01*
X74832756Y-164560594D01*
X74792249Y-164845216D01*
X74792227Y-164849505D01*
X74792226Y-164849512D01*
X74790765Y-165128417D01*
X74790743Y-165132703D01*
X70808500Y-165132703D01*
X70808500Y-149612690D01*
X70828502Y-149544569D01*
X70882158Y-149498076D01*
X70952432Y-149487972D01*
X71017012Y-149517466D01*
G37*
%TD.AperFunction*%
M02*
