%TF.GenerationSoftware,KiCad,Pcbnew,(6.0.4)*%
%TF.CreationDate,2022-03-21T16:38:47+00:00*%
%TF.ProjectId,Ball_Base_Panel,42616c6c-5f42-4617-9365-5f50616e656c,rev?*%
%TF.SameCoordinates,Original*%
%TF.FileFunction,Legend,Bot*%
%TF.FilePolarity,Positive*%
%FSLAX46Y46*%
G04 Gerber Fmt 4.6, Leading zero omitted, Abs format (unit mm)*
G04 Created by KiCad (PCBNEW (6.0.4)) date 2022-03-21 16:38:47*
%MOMM*%
%LPD*%
G01*
G04 APERTURE LIST*
%ADD10C,0.150000*%
G04 APERTURE END LIST*
D10*
X85019047Y-156352380D02*
X85019047Y-157066666D01*
X85066666Y-157209523D01*
X85161904Y-157304761D01*
X85304761Y-157352380D01*
X85400000Y-157352380D01*
X84066666Y-157352380D02*
X84542857Y-157352380D01*
X84542857Y-156352380D01*
X83161904Y-157257142D02*
X83209523Y-157304761D01*
X83352380Y-157352380D01*
X83447619Y-157352380D01*
X83590476Y-157304761D01*
X83685714Y-157209523D01*
X83733333Y-157114285D01*
X83780952Y-156923809D01*
X83780952Y-156780952D01*
X83733333Y-156590476D01*
X83685714Y-156495238D01*
X83590476Y-156400000D01*
X83447619Y-156352380D01*
X83352380Y-156352380D01*
X83209523Y-156400000D01*
X83161904Y-156447619D01*
X82447619Y-156352380D02*
X82447619Y-157066666D01*
X82495238Y-157209523D01*
X82590476Y-157304761D01*
X82733333Y-157352380D01*
X82828571Y-157352380D01*
X81495238Y-157352380D02*
X81971428Y-157352380D01*
X81971428Y-156352380D01*
X80590476Y-157257142D02*
X80638095Y-157304761D01*
X80780952Y-157352380D01*
X80876190Y-157352380D01*
X81019047Y-157304761D01*
X81114285Y-157209523D01*
X81161904Y-157114285D01*
X81209523Y-156923809D01*
X81209523Y-156780952D01*
X81161904Y-156590476D01*
X81114285Y-156495238D01*
X81019047Y-156400000D01*
X80876190Y-156352380D01*
X80780952Y-156352380D01*
X80638095Y-156400000D01*
X80590476Y-156447619D01*
X79876190Y-156352380D02*
X79876190Y-157066666D01*
X79923809Y-157209523D01*
X80019047Y-157304761D01*
X80161904Y-157352380D01*
X80257142Y-157352380D01*
X78923809Y-157352380D02*
X79400000Y-157352380D01*
X79400000Y-156352380D01*
X78019047Y-157257142D02*
X78066666Y-157304761D01*
X78209523Y-157352380D01*
X78304761Y-157352380D01*
X78447619Y-157304761D01*
X78542857Y-157209523D01*
X78590476Y-157114285D01*
X78638095Y-156923809D01*
X78638095Y-156780952D01*
X78590476Y-156590476D01*
X78542857Y-156495238D01*
X78447619Y-156400000D01*
X78304761Y-156352380D01*
X78209523Y-156352380D01*
X78066666Y-156400000D01*
X78019047Y-156447619D01*
X77304761Y-156352380D02*
X77304761Y-157066666D01*
X77352380Y-157209523D01*
X77447619Y-157304761D01*
X77590476Y-157352380D01*
X77685714Y-157352380D01*
X76352380Y-157352380D02*
X76828571Y-157352380D01*
X76828571Y-156352380D01*
X75447619Y-157257142D02*
X75495238Y-157304761D01*
X75638095Y-157352380D01*
X75733333Y-157352380D01*
X75876190Y-157304761D01*
X75971428Y-157209523D01*
X76019047Y-157114285D01*
X76066666Y-156923809D01*
X76066666Y-156780952D01*
X76019047Y-156590476D01*
X75971428Y-156495238D01*
X75876190Y-156400000D01*
X75733333Y-156352380D01*
X75638095Y-156352380D01*
X75495238Y-156400000D01*
X75447619Y-156447619D01*
X85633333Y-47328571D02*
X85490476Y-47376190D01*
X85442857Y-47423809D01*
X85395238Y-47519047D01*
X85395238Y-47661904D01*
X85442857Y-47757142D01*
X85490476Y-47804761D01*
X85585714Y-47852380D01*
X85966666Y-47852380D01*
X85966666Y-46852380D01*
X85633333Y-46852380D01*
X85538095Y-46900000D01*
X85490476Y-46947619D01*
X85442857Y-47042857D01*
X85442857Y-47138095D01*
X85490476Y-47233333D01*
X85538095Y-47280952D01*
X85633333Y-47328571D01*
X85966666Y-47328571D01*
X84538095Y-47852380D02*
X84538095Y-47328571D01*
X84585714Y-47233333D01*
X84680952Y-47185714D01*
X84871428Y-47185714D01*
X84966666Y-47233333D01*
X84538095Y-47804761D02*
X84633333Y-47852380D01*
X84871428Y-47852380D01*
X84966666Y-47804761D01*
X85014285Y-47709523D01*
X85014285Y-47614285D01*
X84966666Y-47519047D01*
X84871428Y-47471428D01*
X84633333Y-47471428D01*
X84538095Y-47423809D01*
X83919047Y-47852380D02*
X84014285Y-47804761D01*
X84061904Y-47709523D01*
X84061904Y-46852380D01*
X83395238Y-47852380D02*
X83490476Y-47804761D01*
X83538095Y-47709523D01*
X83538095Y-46852380D01*
X82252380Y-47852380D02*
X82252380Y-46852380D01*
X81871428Y-46852380D01*
X81776190Y-46900000D01*
X81728571Y-46947619D01*
X81680952Y-47042857D01*
X81680952Y-47185714D01*
X81728571Y-47280952D01*
X81776190Y-47328571D01*
X81871428Y-47376190D01*
X82252380Y-47376190D01*
X80823809Y-47852380D02*
X80823809Y-47328571D01*
X80871428Y-47233333D01*
X80966666Y-47185714D01*
X81157142Y-47185714D01*
X81252380Y-47233333D01*
X80823809Y-47804761D02*
X80919047Y-47852380D01*
X81157142Y-47852380D01*
X81252380Y-47804761D01*
X81299999Y-47709523D01*
X81299999Y-47614285D01*
X81252380Y-47519047D01*
X81157142Y-47471428D01*
X80919047Y-47471428D01*
X80823809Y-47423809D01*
X80347619Y-47185714D02*
X80347619Y-47852380D01*
X80347619Y-47280952D02*
X80299999Y-47233333D01*
X80204761Y-47185714D01*
X80061904Y-47185714D01*
X79966666Y-47233333D01*
X79919047Y-47328571D01*
X79919047Y-47852380D01*
X79061904Y-47804761D02*
X79157142Y-47852380D01*
X79347619Y-47852380D01*
X79442857Y-47804761D01*
X79490476Y-47709523D01*
X79490476Y-47328571D01*
X79442857Y-47233333D01*
X79347619Y-47185714D01*
X79157142Y-47185714D01*
X79061904Y-47233333D01*
X79014285Y-47328571D01*
X79014285Y-47423809D01*
X79490476Y-47519047D01*
X78442857Y-47852380D02*
X78538095Y-47804761D01*
X78585714Y-47709523D01*
X78585714Y-46852380D01*
X77395238Y-47185714D02*
X77157142Y-47852380D01*
X76919047Y-47185714D01*
X76014285Y-47852380D02*
X76585714Y-47852380D01*
X76299999Y-47852380D02*
X76299999Y-46852380D01*
X76395238Y-46995238D01*
X76490476Y-47090476D01*
X76585714Y-47138095D01*
X75585714Y-47757142D02*
X75538095Y-47804761D01*
X75585714Y-47852380D01*
X75633333Y-47804761D01*
X75585714Y-47757142D01*
X75585714Y-47852380D01*
X74919047Y-46852380D02*
X74823809Y-46852380D01*
X74728571Y-46900000D01*
X74680952Y-46947619D01*
X74633333Y-47042857D01*
X74585714Y-47233333D01*
X74585714Y-47471428D01*
X74633333Y-47661904D01*
X74680952Y-47757142D01*
X74728571Y-47804761D01*
X74823809Y-47852380D01*
X74919047Y-47852380D01*
X75014285Y-47804761D01*
X75061904Y-47757142D01*
X75109523Y-47661904D01*
X75157142Y-47471428D01*
X75157142Y-47233333D01*
X75109523Y-47042857D01*
X75061904Y-46947619D01*
X75014285Y-46900000D01*
X74919047Y-46852380D01*
M02*
