%TF.GenerationSoftware,KiCad,Pcbnew,(6.0.4)*%
%TF.CreationDate,2022-03-21T16:46:14+00:00*%
%TF.ProjectId,Ball_Base_Components,42616c6c-5f42-4617-9365-5f436f6d706f,rev?*%
%TF.SameCoordinates,Original*%
%TF.FileFunction,Soldermask,Top*%
%TF.FilePolarity,Negative*%
%FSLAX46Y46*%
G04 Gerber Fmt 4.6, Leading zero omitted, Abs format (unit mm)*
G04 Created by KiCad (PCBNEW (6.0.4)) date 2022-03-21 16:46:14*
%MOMM*%
%LPD*%
G01*
G04 APERTURE LIST*
G04 Aperture macros list*
%AMRoundRect*
0 Rectangle with rounded corners*
0 $1 Rounding radius*
0 $2 $3 $4 $5 $6 $7 $8 $9 X,Y pos of 4 corners*
0 Add a 4 corners polygon primitive as box body*
4,1,4,$2,$3,$4,$5,$6,$7,$8,$9,$2,$3,0*
0 Add four circle primitives for the rounded corners*
1,1,$1+$1,$2,$3*
1,1,$1+$1,$4,$5*
1,1,$1+$1,$6,$7*
1,1,$1+$1,$8,$9*
0 Add four rect primitives between the rounded corners*
20,1,$1+$1,$2,$3,$4,$5,0*
20,1,$1+$1,$4,$5,$6,$7,0*
20,1,$1+$1,$6,$7,$8,$9,0*
20,1,$1+$1,$8,$9,$2,$3,0*%
G04 Aperture macros list end*
%ADD10C,0.150000*%
%ADD11C,0.100000*%
%ADD12C,0.010000*%
%ADD13RoundRect,0.200000X0.200000X0.275000X-0.200000X0.275000X-0.200000X-0.275000X0.200000X-0.275000X0*%
%ADD14R,1.800000X1.800000*%
%ADD15C,1.800000*%
%ADD16RoundRect,0.225000X0.225000X0.250000X-0.225000X0.250000X-0.225000X-0.250000X0.225000X-0.250000X0*%
%ADD17RoundRect,0.200000X-0.200000X-0.275000X0.200000X-0.275000X0.200000X0.275000X-0.200000X0.275000X0*%
%ADD18R,0.900000X0.800000*%
%ADD19RoundRect,0.225000X0.250000X-0.225000X0.250000X0.225000X-0.250000X0.225000X-0.250000X-0.225000X0*%
%ADD20RoundRect,0.225000X-0.250000X0.225000X-0.250000X-0.225000X0.250000X-0.225000X0.250000X0.225000X0*%
%ADD21C,2.000000*%
%ADD22R,1.700000X1.700000*%
%ADD23C,1.700000*%
%ADD24R,1.200000X0.900000*%
%ADD25O,0.950000X1.250000*%
%ADD26O,1.550000X1.000000*%
%ADD27R,1.350000X0.400000*%
%ADD28RoundRect,0.250000X0.550000X-1.050000X0.550000X1.050000X-0.550000X1.050000X-0.550000X-1.050000X0*%
%ADD29RoundRect,0.225000X-0.225000X-0.250000X0.225000X-0.250000X0.225000X0.250000X-0.225000X0.250000X0*%
%ADD30RoundRect,0.250000X-0.550000X1.250000X-0.550000X-1.250000X0.550000X-1.250000X0.550000X1.250000X0*%
%ADD31RoundRect,0.140000X0.170000X-0.140000X0.170000X0.140000X-0.170000X0.140000X-0.170000X-0.140000X0*%
%ADD32RoundRect,0.725000X-0.725000X1.575000X-0.725000X-1.575000X0.725000X-1.575000X0.725000X1.575000X0*%
%ADD33O,4.600000X2.500000*%
%ADD34RoundRect,0.062500X-0.062500X0.375000X-0.062500X-0.375000X0.062500X-0.375000X0.062500X0.375000X0*%
%ADD35RoundRect,0.062500X-0.375000X0.062500X-0.375000X-0.062500X0.375000X-0.062500X0.375000X0.062500X0*%
%ADD36R,5.150000X5.150000*%
%ADD37C,2.100000*%
%ADD38C,1.750000*%
%ADD39R,1.500000X2.000000*%
%ADD40R,3.800000X2.000000*%
%ADD41RoundRect,0.200000X-0.275000X0.200000X-0.275000X-0.200000X0.275000X-0.200000X0.275000X0.200000X0*%
%ADD42RoundRect,0.147500X0.147500X0.172500X-0.147500X0.172500X-0.147500X-0.172500X0.147500X-0.172500X0*%
%ADD43RoundRect,0.140000X0.140000X0.170000X-0.140000X0.170000X-0.140000X-0.170000X0.140000X-0.170000X0*%
%ADD44RoundRect,0.150000X-0.825000X-0.150000X0.825000X-0.150000X0.825000X0.150000X-0.825000X0.150000X0*%
%ADD45RoundRect,0.218750X-0.218750X-0.381250X0.218750X-0.381250X0.218750X0.381250X-0.218750X0.381250X0*%
%ADD46RoundRect,0.150000X0.825000X0.150000X-0.825000X0.150000X-0.825000X-0.150000X0.825000X-0.150000X0*%
%ADD47R,2.600000X1.500000*%
G04 APERTURE END LIST*
D10*
X152700000Y-101450000D02*
X162100000Y-101450000D01*
X162100000Y-101450000D02*
X162100000Y-109100000D01*
X162100000Y-109100000D02*
X152700000Y-109100000D01*
X152700000Y-109100000D02*
X152700000Y-101450000D01*
G36*
X152700000Y-101450000D02*
G01*
X162100000Y-101450000D01*
X162100000Y-109100000D01*
X152700000Y-109100000D01*
X152700000Y-101450000D01*
G37*
%TO.C,FID1*%
G36*
X148400000Y-59300000D02*
G01*
X140400000Y-59300000D01*
X140400000Y-57300000D01*
X148400000Y-57300000D01*
X148400000Y-59300000D01*
G37*
D11*
X148400000Y-59300000D02*
X140400000Y-59300000D01*
X140400000Y-57300000D01*
X148400000Y-57300000D01*
X148400000Y-59300000D01*
D12*
%TO.C,AE1*%
X126311250Y-146500000D02*
X128911250Y-146500000D01*
X128911250Y-146500000D02*
X128911250Y-145000000D01*
X128911250Y-145000000D02*
X126311250Y-145000000D01*
X126311250Y-145000000D02*
X126311250Y-146500000D01*
G36*
X126311250Y-146500000D02*
G01*
X128911250Y-146500000D01*
X128911250Y-145000000D01*
X126311250Y-145000000D01*
X126311250Y-146500000D01*
G37*
%TD*%
D13*
%TO.C,R5*%
X153425000Y-131400000D03*
X151775000Y-131400000D03*
%TD*%
D14*
%TO.C,D5*%
X129700000Y-75800000D03*
D15*
X129700000Y-78340000D03*
%TD*%
D16*
%TO.C,C8*%
X135211250Y-150500000D03*
X133661250Y-150500000D03*
%TD*%
D17*
%TO.C,R2*%
X139575000Y-131400000D03*
X141225000Y-131400000D03*
%TD*%
D14*
%TO.C,D3*%
X132960000Y-140000000D03*
D15*
X135500000Y-140000000D03*
%TD*%
D18*
%TO.C,Y1*%
X137111250Y-153225000D03*
X138761250Y-153225000D03*
X138761250Y-151975000D03*
X137111250Y-151975000D03*
%TD*%
D19*
%TO.C,C2*%
X143236250Y-141375000D03*
X143236250Y-139825000D03*
%TD*%
D20*
%TO.C,C7*%
X139636250Y-139825000D03*
X139636250Y-141375000D03*
%TD*%
D21*
%TO.C,TP3*%
X149300000Y-94000000D03*
%TD*%
D20*
%TO.C,C4*%
X142536250Y-151725000D03*
X142536250Y-153275000D03*
%TD*%
D14*
%TO.C,D4*%
X129700000Y-57725000D03*
D15*
X129700000Y-60265000D03*
%TD*%
D13*
%TO.C,R4*%
X153425000Y-133100000D03*
X151775000Y-133100000D03*
%TD*%
D14*
%TO.C,D6*%
X129700000Y-93800000D03*
D15*
X129700000Y-96340000D03*
%TD*%
D17*
%TO.C,R12*%
X139575000Y-116100000D03*
X141225000Y-116100000D03*
%TD*%
D21*
%TO.C,TP2*%
X160500000Y-117500000D03*
%TD*%
D22*
%TO.C,J2*%
X160500000Y-142380000D03*
D23*
X160500000Y-139840000D03*
X160500000Y-137300000D03*
X160500000Y-134760000D03*
%TD*%
D24*
%TO.C,D1*%
X159700000Y-92337500D03*
X159700000Y-89037500D03*
%TD*%
D25*
%TO.C,J3*%
X157215000Y-152700000D03*
X157215000Y-147700000D03*
D26*
X159915000Y-146700000D03*
D27*
X157215000Y-151500000D03*
X157215000Y-150850000D03*
X157215000Y-150200000D03*
X157215000Y-149550000D03*
X157215000Y-148900000D03*
D26*
X159915000Y-153700000D03*
%TD*%
D28*
%TO.C,C11*%
X155200000Y-62300000D03*
X155200000Y-58700000D03*
%TD*%
D29*
%TO.C,C6*%
X145861250Y-147800000D03*
X147411250Y-147800000D03*
%TD*%
D17*
%TO.C,R16*%
X139575000Y-114400000D03*
X141225000Y-114400000D03*
%TD*%
D19*
%TO.C,C1*%
X145036250Y-141375000D03*
X145036250Y-139825000D03*
%TD*%
D30*
%TO.C,C14*%
X157300000Y-107650000D03*
X157300000Y-112050000D03*
%TD*%
D31*
%TO.C,C12*%
X135536250Y-147850000D03*
X135536250Y-146890000D03*
%TD*%
D32*
%TO.C,J5*%
X127600000Y-85000000D03*
D33*
X138600000Y-90200000D03*
D32*
X140800000Y-85000000D03*
%TD*%
D21*
%TO.C,TP1*%
X160500000Y-124600000D03*
%TD*%
D29*
%TO.C,C21*%
X139600000Y-119500000D03*
X141150000Y-119500000D03*
%TD*%
%TO.C,C5*%
X145880000Y-143800000D03*
X147430000Y-143800000D03*
%TD*%
D17*
%TO.C,R17*%
X133750000Y-143210000D03*
X135400000Y-143210000D03*
%TD*%
%TO.C,R6*%
X139575000Y-133100000D03*
X141225000Y-133100000D03*
%TD*%
D32*
%TO.C,J6*%
X127600000Y-103000000D03*
D33*
X138600000Y-108200000D03*
D32*
X140800000Y-103000000D03*
%TD*%
D13*
%TO.C,R3*%
X153425000Y-129700000D03*
X151775000Y-129700000D03*
%TD*%
%TO.C,R15*%
X141225000Y-126300000D03*
X139575000Y-126300000D03*
%TD*%
D34*
%TO.C,U1*%
X143086250Y-143162500D03*
X142586250Y-143162500D03*
X142086250Y-143162500D03*
X141586250Y-143162500D03*
X141086250Y-143162500D03*
X140586250Y-143162500D03*
X140086250Y-143162500D03*
X139586250Y-143162500D03*
X139086250Y-143162500D03*
X138586250Y-143162500D03*
X138086250Y-143162500D03*
X137586250Y-143162500D03*
D35*
X136898750Y-143850000D03*
X136898750Y-144350000D03*
X136898750Y-144850000D03*
X136898750Y-145350000D03*
X136898750Y-145850000D03*
X136898750Y-146350000D03*
X136898750Y-146850000D03*
X136898750Y-147350000D03*
X136898750Y-147850000D03*
X136898750Y-148350000D03*
X136898750Y-148850000D03*
X136898750Y-149350000D03*
D34*
X137586250Y-150037500D03*
X138086250Y-150037500D03*
X138586250Y-150037500D03*
X139086250Y-150037500D03*
X139586250Y-150037500D03*
X140086250Y-150037500D03*
X140586250Y-150037500D03*
X141086250Y-150037500D03*
X141586250Y-150037500D03*
X142086250Y-150037500D03*
X142586250Y-150037500D03*
X143086250Y-150037500D03*
D35*
X143773750Y-149350000D03*
X143773750Y-148850000D03*
X143773750Y-148350000D03*
X143773750Y-147850000D03*
X143773750Y-147350000D03*
X143773750Y-146850000D03*
X143773750Y-146350000D03*
X143773750Y-145850000D03*
X143773750Y-145350000D03*
X143773750Y-144850000D03*
X143773750Y-144350000D03*
X143773750Y-143850000D03*
D36*
X140336250Y-146600000D03*
%TD*%
D37*
%TO.C,CONNECT1*%
X130890000Y-125340000D03*
X130890000Y-132350000D03*
D38*
X128400000Y-131100000D03*
X128400000Y-126600000D03*
%TD*%
D24*
%TO.C,D2*%
X159700000Y-62150000D03*
X159700000Y-58850000D03*
%TD*%
D13*
%TO.C,R14*%
X153425000Y-116100000D03*
X151775000Y-116100000D03*
%TD*%
D29*
%TO.C,C19*%
X151825000Y-117800000D03*
X153375000Y-117800000D03*
%TD*%
D39*
%TO.C,U2*%
X159600000Y-97100000D03*
D40*
X157300000Y-103400000D03*
D39*
X157300000Y-97100000D03*
X155000000Y-97100000D03*
%TD*%
D17*
%TO.C,R10*%
X139550000Y-121200000D03*
X141200000Y-121200000D03*
%TD*%
D29*
%TO.C,C22*%
X139625000Y-124600000D03*
X141175000Y-124600000D03*
%TD*%
D41*
%TO.C,R1*%
X141436250Y-139775000D03*
X141436250Y-141425000D03*
%TD*%
D16*
%TO.C,C20*%
X153375000Y-124600000D03*
X151825000Y-124600000D03*
%TD*%
D13*
%TO.C,R9*%
X153425000Y-121200000D03*
X151775000Y-121200000D03*
%TD*%
D22*
%TO.C,J1*%
X155562500Y-70500000D03*
D23*
X158102500Y-70500000D03*
X155562500Y-73040000D03*
X158102500Y-73040000D03*
X155562500Y-75580000D03*
X158102500Y-75580000D03*
X155562500Y-78120000D03*
X158102500Y-78120000D03*
X155562500Y-80660000D03*
X158102500Y-80660000D03*
%TD*%
D42*
%TO.C,L1*%
X134521250Y-147850000D03*
X133551250Y-147850000D03*
%TD*%
D43*
%TO.C,C9*%
X135516250Y-149200000D03*
X134556250Y-149200000D03*
%TD*%
D44*
%TO.C,U4*%
X144025000Y-115095000D03*
X144025000Y-116365000D03*
X144025000Y-117635000D03*
X144025000Y-118905000D03*
X148975000Y-118905000D03*
X148975000Y-117635000D03*
X148975000Y-116365000D03*
X148975000Y-115095000D03*
%TD*%
D17*
%TO.C,R11*%
X139575000Y-122900000D03*
X141225000Y-122900000D03*
%TD*%
D28*
%TO.C,C10*%
X155200000Y-92487500D03*
X155200000Y-88887500D03*
%TD*%
D37*
%TO.C,RESET1*%
X130890000Y-118350000D03*
X130890000Y-111340000D03*
D38*
X128400000Y-117100000D03*
X128400000Y-112600000D03*
%TD*%
D21*
%TO.C,TP4*%
X144000000Y-94000000D03*
%TD*%
D16*
%TO.C,C17*%
X141175000Y-129700000D03*
X139625000Y-129700000D03*
%TD*%
D29*
%TO.C,C15*%
X139625000Y-128000000D03*
X141175000Y-128000000D03*
%TD*%
D45*
%TO.C,L2*%
X139392500Y-137600000D03*
X141517500Y-137600000D03*
%TD*%
D13*
%TO.C,R8*%
X153425000Y-119500000D03*
X151775000Y-119500000D03*
%TD*%
D43*
%TO.C,C3*%
X135516250Y-145600000D03*
X134556250Y-145600000D03*
%TD*%
D31*
%TO.C,C13*%
X132536250Y-147820000D03*
X132536250Y-146860000D03*
%TD*%
D16*
%TO.C,C16*%
X153375000Y-128000000D03*
X151825000Y-128000000D03*
%TD*%
D17*
%TO.C,R13*%
X139575000Y-117800000D03*
X141225000Y-117800000D03*
%TD*%
D46*
%TO.C,U3*%
X148975000Y-132310000D03*
X148975000Y-131040000D03*
X148975000Y-129770000D03*
X148975000Y-128500000D03*
X148975000Y-127230000D03*
X148975000Y-125960000D03*
X148975000Y-124690000D03*
X144025000Y-124690000D03*
X144025000Y-125960000D03*
X144025000Y-127230000D03*
X144025000Y-128500000D03*
X144025000Y-129770000D03*
X144025000Y-131040000D03*
X144025000Y-132310000D03*
%TD*%
D32*
%TO.C,J4*%
X127600000Y-67000000D03*
D33*
X138600000Y-72200000D03*
D32*
X140800000Y-67000000D03*
%TD*%
D47*
%TO.C,AE1*%
X127611250Y-140650000D03*
%TD*%
D13*
%TO.C,R7*%
X153425000Y-122900000D03*
X151775000Y-122900000D03*
%TD*%
D16*
%TO.C,C18*%
X153375000Y-126300000D03*
X151825000Y-126300000D03*
%TD*%
M02*
