M48
; DRILL file {KiCad (6.0.4)} date Mon Mar 21 16:46:16 2022
; FORMAT={-:-/ absolute / inch / decimal}
; #@! TF.CreationDate,2022-03-21T16:46:16+00:00
; #@! TF.GenerationSoftware,Kicad,Pcbnew,(6.0.4)
; #@! TF.FileFunction,Plated,1,4,PTH
FMAT,2
INCH
; #@! TA.AperFunction,Plated,PTH,ViaDrill
T1C0.0079
; #@! TA.AperFunction,Plated,PTH,ComponentDrill
T2C0.0079
; #@! TA.AperFunction,Plated,PTH,ViaDrill
T3C0.0157
; #@! TA.AperFunction,Plated,PTH,ComponentDrill
T4C0.0197
; #@! TA.AperFunction,Plated,PTH,ComponentDrill
T5C0.0217
; #@! TA.AperFunction,Plated,PTH,ViaDrill
T6C0.0236
; #@! TA.AperFunction,Plated,PTH,ComponentDrill
T7C0.0354
; #@! TA.AperFunction,Plated,PTH,ComponentDrill
T8C0.0390
; #@! TA.AperFunction,Plated,PTH,ComponentDrill
T9C0.0394
; #@! TA.AperFunction,Plated,PTH,ComponentDrill
T10C0.0512
%
G90
G05
T1
X4.9961Y-5.4449
X4.9961Y-5.8701
X5.0354Y-5.4449
X5.0354Y-5.8701
X5.0748Y-5.4449
X5.0748Y-5.8701
X5.1117Y-5.4449
X5.1156Y-5.8701
X5.1471Y-5.4449
X5.155Y-5.8701
X5.1825Y-5.4449
X5.1943Y-5.8701
X5.218Y-5.4449
X5.218Y-5.5866
X5.218Y-5.6181
X5.218Y-5.6496
X5.218Y-5.6811
X5.218Y-5.7126
X5.218Y-5.7441
X5.2349Y-5.8476
X5.2357Y-5.7937
X5.2762Y-5.8457
X5.277Y-5.7945
X5.314Y-5.7953
X5.3152Y-5.8449
X5.3565Y-5.8429
T2
X5.4335Y-5.6801
X5.4335Y-5.7259
X5.4335Y-5.7717
X5.4335Y-5.8174
X5.4335Y-5.8632
X5.4793Y-5.6801
X5.4793Y-5.7259
X5.4793Y-5.7717
X5.4793Y-5.8174
X5.4793Y-5.8632
X5.525Y-5.6801
X5.525Y-5.7259
X5.525Y-5.7717
X5.525Y-5.8174
X5.525Y-5.8632
X5.5708Y-5.6801
X5.5708Y-5.7259
X5.5708Y-5.7717
X5.5708Y-5.8174
X5.5708Y-5.8632
X5.6166Y-5.6801
X5.6166Y-5.7259
X5.6166Y-5.7717
X5.6166Y-5.8174
X5.6166Y-5.8632
T3
X4.9961Y-5.2244
X5.0394Y-4.2441
X5.1102Y-5.3543
X5.1471Y-6.0866
X5.2101Y-5.9213
X5.2323Y-5.2874
X5.248Y-2.2677
X5.252Y-2.9843
X5.2613Y-5.9724
X5.3346Y-4.7323
X5.374Y-3.8819
X5.3937Y-4.3622
X5.4528Y-4.9685
X5.4567Y-4.6102
X5.4724Y-3.1969
X5.4961Y-4.4646
X5.5054Y-6.0315
X5.5328Y-5.5952
X5.5329Y-5.4685
X5.5684Y-6.0315
X5.5709Y-2.9134
X5.6063Y-5.0591
X5.6339Y-3.5827
X5.655Y-6.0315
X5.6747Y-5.4685
X5.7283Y-5.1339
X5.7559Y-2.7126
X5.7559Y-3.2913
X5.7756Y-5.3858
X5.8819Y-3.1181
X5.8819Y-3.5827
X5.8819Y-5.7598
X5.9134Y-2.2756
X5.9291Y-5.0591
X5.9449Y-5.8622
X6.0236Y-3.5
X6.0315Y-2.4528
X6.0315Y-4.3583
X6.0521Y-3.2537
X6.1063Y-5.7323
X6.1063Y-5.9921
X6.1063Y-6.0866
X6.1102Y-2.5433
X6.1102Y-3.3976
X6.1535Y-5.3622
X6.1929Y-2.4528
X6.2008Y-3.5
X6.2835Y-3.7402
X6.3425Y-4.3622
X6.3622Y-3.8228
T6
X5.3231Y-5.963
X5.3345Y-5.7024
X5.3622Y-5.3425
X5.4528Y-4.9055
X5.5593Y-5.949
X5.6195Y-5.4173
X5.6596Y-5.9724
X5.6693Y-4.7402
X5.7423Y-5.6142
X5.7502Y-5.5669
X5.7691Y-5.5039
X5.7731Y-5.7795
X5.8046Y-5.6142
X5.8439Y-5.8189
X5.8518Y-5.6614
X5.8661Y-4.4921
X6.0394Y-2.311
X6.0521Y-3.6251
X6.0551Y-4.0669
X6.0551Y-4.1496
X6.0551Y-4.2283
X6.0827Y-5.0394
X6.0827Y-5.1929
X6.0906Y-4.7717
X6.1358Y-4.439
X6.1378Y-5.8622
X6.1929Y-4.1496
X6.252Y-4.4409
X6.3189Y-5.6642
X6.3307Y-4.0669
X6.3307Y-4.1496
X6.3307Y-4.2283
T7
X5.1063Y-2.2726
X5.1063Y-2.3726
X5.1063Y-2.9843
X5.1063Y-3.0843
X5.1063Y-3.6929
X5.1063Y-3.7929
X5.2346Y-5.5118
X5.3346Y-5.5118
T8
X5.0551Y-4.4331
X5.0551Y-4.6102
X5.0551Y-4.9843
X5.0551Y-5.1614
T9
X6.1245Y-2.7756
X6.1245Y-2.8756
X6.1245Y-2.9756
X6.1245Y-3.0756
X6.1245Y-3.1756
X6.2245Y-2.7756
X6.2245Y-2.8756
X6.2245Y-2.9756
X6.2245Y-3.0756
X6.2245Y-3.1756
X6.3189Y-5.3055
X6.3189Y-5.4055
X6.3189Y-5.5055
X6.3189Y-5.6055
T10
X5.1531Y-4.3835
X5.1531Y-4.6594
X5.1531Y-4.9346
X5.1531Y-5.2106
X5.6693Y-3.7008
X5.878Y-3.7008
X6.3189Y-4.626
X6.3189Y-4.9055
T4
G00X6.3087Y-5.7756
M15
G01X6.2831Y-5.7756
M16
G05
G00X6.3087Y-6.0512
M15
G01X6.2831Y-6.0512
M16
G05
T5
G00X6.1896Y-5.8209
M15
G01X6.1896Y-5.8091
M16
G05
G00X6.1896Y-6.0177
M15
G01X6.1896Y-6.0059
M16
G05
T7
G00X5.0236Y-2.6043
M15
G01X5.0236Y-2.6713
M16
G05
G00X5.0236Y-3.313
M15
G01X5.0236Y-3.3799
M16
G05
G00X5.0236Y-4.0217
M15
G01X5.0236Y-4.0886
M16
G05
G00X5.4232Y-2.8425
M15
G01X5.4902Y-2.8425
M16
G05
G00X5.4232Y-3.5512
M15
G01X5.4902Y-3.5512
M16
G05
G00X5.4232Y-4.2598
M15
G01X5.4902Y-4.2598
M16
G05
G00X5.5433Y-2.6043
M15
G01X5.5433Y-2.6713
M16
G05
G00X5.5433Y-3.313
M15
G01X5.5433Y-3.3799
M16
G05
G00X5.5433Y-4.0217
M15
G01X5.5433Y-4.0886
M16
G05
T0
M30
