%TF.GenerationSoftware,KiCad,Pcbnew,(6.0.4)*%
%TF.CreationDate,2022-03-21T16:46:14+00:00*%
%TF.ProjectId,Ball_Base_Components,42616c6c-5f42-4617-9365-5f436f6d706f,rev?*%
%TF.SameCoordinates,Original*%
%TF.FileFunction,Copper,L2,Inr*%
%TF.FilePolarity,Positive*%
%FSLAX46Y46*%
G04 Gerber Fmt 4.6, Leading zero omitted, Abs format (unit mm)*
G04 Created by KiCad (PCBNEW (6.0.4)) date 2022-03-21 16:46:14*
%MOMM*%
%LPD*%
G01*
G04 APERTURE LIST*
G04 Aperture macros list*
%AMRoundRect*
0 Rectangle with rounded corners*
0 $1 Rounding radius*
0 $2 $3 $4 $5 $6 $7 $8 $9 X,Y pos of 4 corners*
0 Add a 4 corners polygon primitive as box body*
4,1,4,$2,$3,$4,$5,$6,$7,$8,$9,$2,$3,0*
0 Add four circle primitives for the rounded corners*
1,1,$1+$1,$2,$3*
1,1,$1+$1,$4,$5*
1,1,$1+$1,$6,$7*
1,1,$1+$1,$8,$9*
0 Add four rect primitives between the rounded corners*
20,1,$1+$1,$2,$3,$4,$5,0*
20,1,$1+$1,$4,$5,$6,$7,0*
20,1,$1+$1,$6,$7,$8,$9,0*
20,1,$1+$1,$8,$9,$2,$3,0*%
G04 Aperture macros list end*
%TA.AperFunction,ComponentPad*%
%ADD10R,1.800000X1.800000*%
%TD*%
%TA.AperFunction,ComponentPad*%
%ADD11C,1.800000*%
%TD*%
%TA.AperFunction,ComponentPad*%
%ADD12C,2.000000*%
%TD*%
%TA.AperFunction,ComponentPad*%
%ADD13R,1.700000X1.700000*%
%TD*%
%TA.AperFunction,ComponentPad*%
%ADD14C,1.700000*%
%TD*%
%TA.AperFunction,ComponentPad*%
%ADD15O,0.950000X1.250000*%
%TD*%
%TA.AperFunction,ComponentPad*%
%ADD16O,1.550000X1.000000*%
%TD*%
%TA.AperFunction,ComponentPad*%
%ADD17RoundRect,0.725000X-0.725000X1.575000X-0.725000X-1.575000X0.725000X-1.575000X0.725000X1.575000X0*%
%TD*%
%TA.AperFunction,ComponentPad*%
%ADD18O,4.600000X2.500000*%
%TD*%
%TA.AperFunction,ComponentPad*%
%ADD19C,0.500000*%
%TD*%
%TA.AperFunction,ComponentPad*%
%ADD20C,2.100000*%
%TD*%
%TA.AperFunction,ComponentPad*%
%ADD21C,1.750000*%
%TD*%
%TA.AperFunction,ViaPad*%
%ADD22C,0.800000*%
%TD*%
%TA.AperFunction,ViaPad*%
%ADD23C,0.400000*%
%TD*%
%TA.AperFunction,ViaPad*%
%ADD24C,1.000000*%
%TD*%
G04 APERTURE END LIST*
D10*
%TO.N,Net-(D5-Pad1)*%
%TO.C,D5*%
X129700000Y-75800000D03*
D11*
%TO.N,Net-(D5-Pad2)*%
X129700000Y-78340000D03*
%TD*%
D10*
%TO.N,Net-(D3-Pad1)*%
%TO.C,D3*%
X132960000Y-140000000D03*
D11*
%TO.N,/LED_BLUE_OUT*%
X135500000Y-140000000D03*
%TD*%
D12*
%TO.N,VCC*%
%TO.C,TP3*%
X149300000Y-94000000D03*
%TD*%
D10*
%TO.N,Net-(D4-Pad1)*%
%TO.C,D4*%
X129700000Y-57725000D03*
D11*
%TO.N,Net-(D4-Pad2)*%
X129700000Y-60265000D03*
%TD*%
D10*
%TO.N,Net-(D6-Pad1)*%
%TO.C,D6*%
X129700000Y-93800000D03*
D11*
%TO.N,Net-(D6-Pad2)*%
X129700000Y-96340000D03*
%TD*%
D12*
%TO.N,+3V3*%
%TO.C,TP2*%
X160500000Y-117500000D03*
%TD*%
D13*
%TO.N,+3V3*%
%TO.C,J2*%
X160500000Y-142380000D03*
D14*
%TO.N,GND*%
X160500000Y-139840000D03*
%TO.N,/SWIO*%
X160500000Y-137300000D03*
%TO.N,/SWCLK*%
X160500000Y-134760000D03*
%TD*%
D15*
%TO.N,*%
%TO.C,J3*%
X157215000Y-152700000D03*
X157215000Y-147700000D03*
D16*
X159915000Y-146700000D03*
%TO.N,unconnected-(J3-Pad6)*%
X159915000Y-153700000D03*
%TD*%
D17*
%TO.N,GND*%
%TO.C,J5*%
X127600000Y-85000000D03*
D18*
%TO.N,unconnected-(J5-Pad2)*%
X138600000Y-90200000D03*
D17*
%TO.N,/Y_Filtered*%
X140800000Y-85000000D03*
%TD*%
D12*
%TO.N,GND*%
%TO.C,TP1*%
X160500000Y-124600000D03*
%TD*%
D17*
%TO.N,GND*%
%TO.C,J6*%
X127600000Y-103000000D03*
D18*
%TO.N,unconnected-(J6-Pad2)*%
X138600000Y-108200000D03*
D17*
%TO.N,/Z_Filtered*%
X140800000Y-103000000D03*
%TD*%
D19*
%TO.N,GND*%
%TO.C,U1*%
X142661250Y-145437500D03*
X138011250Y-145437500D03*
X138011250Y-147762500D03*
X139173750Y-145437500D03*
X142661250Y-144275000D03*
X139173750Y-147762500D03*
X140336250Y-147762500D03*
X139173750Y-146600000D03*
X141498750Y-146600000D03*
X142661250Y-146600000D03*
X141498750Y-147762500D03*
X140336250Y-145437500D03*
X139173750Y-144275000D03*
X140336250Y-148925000D03*
X138011250Y-148925000D03*
X141498750Y-148925000D03*
X138011250Y-146600000D03*
X140336250Y-146600000D03*
X142661250Y-147762500D03*
X140336250Y-144275000D03*
X139173750Y-148925000D03*
X141498750Y-145437500D03*
X141498750Y-144275000D03*
X142661250Y-148925000D03*
X138011250Y-144275000D03*
%TD*%
D20*
%TO.N,*%
%TO.C,CONNECT1*%
X130890000Y-125340000D03*
X130890000Y-132350000D03*
D21*
%TO.N,/CONNECT*%
X128400000Y-131100000D03*
%TO.N,GND*%
X128400000Y-126600000D03*
%TD*%
D13*
%TO.N,-12V*%
%TO.C,J1*%
X155562500Y-70500000D03*
D14*
X158102500Y-70500000D03*
%TO.N,GND*%
X155562500Y-73040000D03*
X158102500Y-73040000D03*
X155562500Y-75580000D03*
X158102500Y-75580000D03*
X155562500Y-78120000D03*
X158102500Y-78120000D03*
%TO.N,+12V*%
X155562500Y-80660000D03*
X158102500Y-80660000D03*
%TD*%
D20*
%TO.N,*%
%TO.C,RESET1*%
X130890000Y-118350000D03*
X130890000Y-111340000D03*
D21*
%TO.N,/RESET*%
X128400000Y-117100000D03*
%TO.N,GND*%
X128400000Y-112600000D03*
%TD*%
D12*
%TO.N,VEE*%
%TO.C,TP4*%
X144000000Y-94000000D03*
%TD*%
D17*
%TO.N,GND*%
%TO.C,J4*%
X127600000Y-67000000D03*
D18*
%TO.N,unconnected-(J4-Pad2)*%
X138600000Y-72200000D03*
D17*
%TO.N,/X_Filtered*%
X140800000Y-67000000D03*
%TD*%
D22*
%TO.N,GND*%
X149400000Y-146300000D03*
X155100000Y-145600000D03*
X153000000Y-88900000D03*
D23*
X126900000Y-138300000D03*
D24*
X147436250Y-142600000D03*
X154700000Y-121200000D03*
D23*
X128900000Y-138300000D03*
X130936250Y-149100000D03*
D22*
X159600000Y-95000000D03*
D23*
X136055424Y-148410500D03*
X132536250Y-145100000D03*
D22*
X129800000Y-136000000D03*
X143636250Y-153200000D03*
X146200000Y-83600000D03*
D23*
X132536250Y-145900000D03*
D22*
X149400000Y-79200000D03*
X146700000Y-136800000D03*
D24*
X155850000Y-112750000D03*
D22*
X140536250Y-138900000D03*
X156300000Y-136200000D03*
D23*
X132536250Y-138300000D03*
D24*
X158800000Y-112800000D03*
D22*
X139836250Y-153200000D03*
D24*
X154500000Y-131900000D03*
D22*
X136500000Y-98600000D03*
D23*
X134036250Y-147180000D03*
D22*
X161100000Y-110800000D03*
D24*
X154500000Y-128000000D03*
D23*
X132536250Y-143500000D03*
D22*
X151000000Y-148900000D03*
X132900000Y-134300000D03*
D23*
X134016250Y-148480000D03*
D22*
X141500000Y-74000000D03*
X149400000Y-91000000D03*
D24*
X146536250Y-139800000D03*
D22*
X138600000Y-117100000D03*
D23*
X127900000Y-138300000D03*
D22*
X155100000Y-152200000D03*
X143100000Y-91000000D03*
D24*
X148636250Y-143800000D03*
D22*
X133400000Y-75800000D03*
D23*
X129836250Y-138300000D03*
X134976250Y-147200000D03*
X129936250Y-149100000D03*
D22*
X141436250Y-153200000D03*
D24*
X148436250Y-147800000D03*
D23*
X132536250Y-142700000D03*
X131636250Y-138300000D03*
D22*
X153200000Y-110700000D03*
D24*
X136200000Y-135700000D03*
D22*
X157500000Y-88900000D03*
X133300000Y-57600000D03*
X139600000Y-113400000D03*
X161600000Y-97100000D03*
D23*
X130736250Y-138300000D03*
X135006250Y-148460000D03*
D22*
X157300000Y-62300000D03*
X155200000Y-86300000D03*
D23*
X128900000Y-149100000D03*
X131936250Y-149100000D03*
D24*
X141206767Y-151105441D03*
D22*
X144136250Y-138900000D03*
X135500000Y-120200000D03*
D23*
X132966250Y-148530000D03*
D22*
X155200000Y-64600000D03*
X130736250Y-154600000D03*
X146200000Y-68900000D03*
X139000000Y-81200000D03*
D24*
X138500000Y-124600000D03*
D22*
X128000000Y-107800000D03*
D24*
X155900000Y-148900000D03*
D22*
X126900000Y-132700000D03*
X133636250Y-151700000D03*
X153724500Y-82643152D03*
D23*
X126900000Y-149100000D03*
D22*
X150200000Y-57800000D03*
D23*
X132986250Y-147160000D03*
D22*
X153200000Y-62300000D03*
X155100000Y-154600000D03*
X137000000Y-110800000D03*
D23*
X127900000Y-149100000D03*
X132536250Y-141900000D03*
D22*
X132336250Y-150400000D03*
D23*
X132536250Y-144300000D03*
D24*
%TO.N,+3V3*%
X153800000Y-105400000D03*
X143755000Y-151700000D03*
X145855000Y-142600000D03*
X135496250Y-144840000D03*
X157300000Y-105400000D03*
X160800000Y-103300000D03*
X146055000Y-141400000D03*
X160500000Y-143870000D03*
X153800000Y-107400000D03*
X142736250Y-137600000D03*
X135206250Y-151460000D03*
X160800000Y-107400000D03*
X153800000Y-103300000D03*
X146636250Y-146800000D03*
X160800000Y-105400000D03*
D22*
%TO.N,/RESET*%
X140531913Y-142118089D03*
D24*
%TO.N,VCC*%
X153724500Y-92077373D03*
X149000000Y-114100000D03*
D22*
X150600000Y-128500000D03*
%TO.N,VEE*%
X142400000Y-128500000D03*
D24*
X153400000Y-58700000D03*
X144000000Y-120400000D03*
D22*
%TO.N,Net-(D5-Pad1)*%
X145500000Y-130400000D03*
X138500000Y-126200000D03*
%TD*%
%TA.AperFunction,Conductor*%
%TO.N,+3V3*%
G36*
X162033621Y-101370002D02*
G01*
X162080114Y-101423658D01*
X162091500Y-101476000D01*
X162091500Y-109074000D01*
X162071498Y-109142121D01*
X162017842Y-109188614D01*
X161965500Y-109200000D01*
X152726000Y-109200000D01*
X152657879Y-109179998D01*
X152611386Y-109126342D01*
X152600000Y-109074000D01*
X152600000Y-101476000D01*
X152620002Y-101407879D01*
X152673658Y-101361386D01*
X152726000Y-101350000D01*
X161965500Y-101350000D01*
X162033621Y-101370002D01*
G37*
%TD.AperFunction*%
%TD*%
%TA.AperFunction,Conductor*%
%TO.N,GND*%
G36*
X128261873Y-56528502D02*
G01*
X128308366Y-56582158D01*
X128318470Y-56652432D01*
X128311736Y-56678724D01*
X128298255Y-56714684D01*
X128291500Y-56776866D01*
X128291500Y-58673134D01*
X128298255Y-58735316D01*
X128349385Y-58871705D01*
X128436739Y-58988261D01*
X128553295Y-59075615D01*
X128561704Y-59078767D01*
X128561705Y-59078768D01*
X128621164Y-59101058D01*
X128677929Y-59143699D01*
X128702629Y-59210261D01*
X128687422Y-59279609D01*
X128668029Y-59306091D01*
X128601639Y-59375564D01*
X128598725Y-59379836D01*
X128598724Y-59379837D01*
X128585568Y-59399123D01*
X128471119Y-59566899D01*
X128373602Y-59776981D01*
X128311707Y-60000169D01*
X128287095Y-60230469D01*
X128287392Y-60235622D01*
X128287392Y-60235625D01*
X128293067Y-60334041D01*
X128300427Y-60461697D01*
X128301564Y-60466743D01*
X128301565Y-60466749D01*
X128333741Y-60609523D01*
X128351346Y-60687642D01*
X128353288Y-60692424D01*
X128353289Y-60692428D01*
X128436540Y-60897450D01*
X128438484Y-60902237D01*
X128559501Y-61099719D01*
X128711147Y-61274784D01*
X128889349Y-61422730D01*
X129089322Y-61539584D01*
X129305694Y-61622209D01*
X129310760Y-61623240D01*
X129310761Y-61623240D01*
X129363846Y-61634040D01*
X129532656Y-61668385D01*
X129663324Y-61673176D01*
X129758949Y-61676683D01*
X129758953Y-61676683D01*
X129764113Y-61676872D01*
X129769233Y-61676216D01*
X129769235Y-61676216D01*
X129842270Y-61666860D01*
X129993847Y-61647442D01*
X129998795Y-61645957D01*
X129998802Y-61645956D01*
X130210747Y-61582369D01*
X130215690Y-61580886D01*
X130296236Y-61541427D01*
X130419049Y-61481262D01*
X130419052Y-61481260D01*
X130423684Y-61478991D01*
X130612243Y-61344494D01*
X130776303Y-61181005D01*
X130911458Y-60992917D01*
X130958641Y-60897450D01*
X131011784Y-60789922D01*
X131011785Y-60789920D01*
X131014078Y-60785280D01*
X131081408Y-60563671D01*
X131111640Y-60334041D01*
X131113327Y-60265000D01*
X131107032Y-60188434D01*
X131094773Y-60039318D01*
X131094772Y-60039312D01*
X131094349Y-60034167D01*
X131037925Y-59809533D01*
X131035866Y-59804797D01*
X130947630Y-59601868D01*
X130947628Y-59601865D01*
X130945570Y-59597131D01*
X130819764Y-59402665D01*
X130817339Y-59400000D01*
X140300000Y-59400000D01*
X148500000Y-59400000D01*
X148500000Y-58685851D01*
X152386719Y-58685851D01*
X152403268Y-58882934D01*
X152457783Y-59073050D01*
X152548187Y-59248956D01*
X152671035Y-59403953D01*
X152821650Y-59532136D01*
X152994294Y-59628624D01*
X153182392Y-59689740D01*
X153378777Y-59713158D01*
X153384912Y-59712686D01*
X153384914Y-59712686D01*
X153569830Y-59698457D01*
X153569834Y-59698456D01*
X153575972Y-59697984D01*
X153766463Y-59644798D01*
X153771967Y-59642018D01*
X153771969Y-59642017D01*
X153937495Y-59558404D01*
X153937497Y-59558403D01*
X153942996Y-59555625D01*
X154098847Y-59433861D01*
X154228078Y-59284145D01*
X154325769Y-59112179D01*
X154388197Y-58924513D01*
X154412985Y-58728295D01*
X154413380Y-58700000D01*
X154394080Y-58503167D01*
X154336916Y-58313831D01*
X154244066Y-58139204D01*
X154173709Y-58052938D01*
X154122960Y-57990713D01*
X154122957Y-57990710D01*
X154119065Y-57985938D01*
X154112724Y-57980692D01*
X153971425Y-57863799D01*
X153971421Y-57863797D01*
X153966675Y-57859870D01*
X153792701Y-57765802D01*
X153603768Y-57707318D01*
X153597643Y-57706674D01*
X153597642Y-57706674D01*
X153413204Y-57687289D01*
X153413202Y-57687289D01*
X153407075Y-57686645D01*
X153324576Y-57694153D01*
X153216251Y-57704011D01*
X153216248Y-57704012D01*
X153210112Y-57704570D01*
X153204206Y-57706308D01*
X153204202Y-57706309D01*
X153099076Y-57737249D01*
X153020381Y-57760410D01*
X153014923Y-57763263D01*
X153014919Y-57763265D01*
X152924147Y-57810720D01*
X152845110Y-57852040D01*
X152690975Y-57975968D01*
X152563846Y-58127474D01*
X152560879Y-58132872D01*
X152560875Y-58132877D01*
X152557397Y-58139204D01*
X152468567Y-58300787D01*
X152466706Y-58306654D01*
X152466705Y-58306656D01*
X152410627Y-58483436D01*
X152408765Y-58489306D01*
X152386719Y-58685851D01*
X148500000Y-58685851D01*
X148500000Y-57200000D01*
X140300000Y-57200000D01*
X140300000Y-59400000D01*
X130817339Y-59400000D01*
X130813267Y-59395525D01*
X130729848Y-59303848D01*
X130698796Y-59240002D01*
X130707192Y-59169504D01*
X130752369Y-59114736D01*
X130778812Y-59101067D01*
X130838297Y-59078767D01*
X130846705Y-59075615D01*
X130963261Y-58988261D01*
X131050615Y-58871705D01*
X131101745Y-58735316D01*
X131108500Y-58673134D01*
X131108500Y-56776866D01*
X131101745Y-56714684D01*
X131088266Y-56678728D01*
X131083083Y-56607924D01*
X131117003Y-56545554D01*
X131179258Y-56511425D01*
X131206248Y-56508500D01*
X161965500Y-56508500D01*
X162033621Y-56528502D01*
X162080114Y-56582158D01*
X162091500Y-56634500D01*
X162091500Y-100674000D01*
X162071498Y-100742121D01*
X162017842Y-100788614D01*
X161965500Y-100800000D01*
X152000000Y-100800000D01*
X152000000Y-109750000D01*
X161965500Y-109750000D01*
X162033621Y-109770002D01*
X162080114Y-109823658D01*
X162091500Y-109876000D01*
X162091500Y-116766874D01*
X162071498Y-116834995D01*
X162017842Y-116881488D01*
X161947568Y-116891592D01*
X161882988Y-116862098D01*
X161853631Y-116821383D01*
X161852381Y-116822020D01*
X161850135Y-116817611D01*
X161848240Y-116813037D01*
X161819951Y-116766874D01*
X161726759Y-116614798D01*
X161726755Y-116614792D01*
X161724176Y-116610584D01*
X161569969Y-116430031D01*
X161389416Y-116275824D01*
X161385208Y-116273245D01*
X161385202Y-116273241D01*
X161191183Y-116154346D01*
X161186963Y-116151760D01*
X161182393Y-116149867D01*
X161182389Y-116149865D01*
X160972167Y-116062789D01*
X160972165Y-116062788D01*
X160967594Y-116060895D01*
X160887391Y-116041640D01*
X160741524Y-116006620D01*
X160741518Y-116006619D01*
X160736711Y-116005465D01*
X160500000Y-115986835D01*
X160263289Y-116005465D01*
X160258482Y-116006619D01*
X160258476Y-116006620D01*
X160112609Y-116041640D01*
X160032406Y-116060895D01*
X160027835Y-116062788D01*
X160027833Y-116062789D01*
X159817611Y-116149865D01*
X159817607Y-116149867D01*
X159813037Y-116151760D01*
X159808817Y-116154346D01*
X159614798Y-116273241D01*
X159614792Y-116273245D01*
X159610584Y-116275824D01*
X159430031Y-116430031D01*
X159275824Y-116610584D01*
X159273245Y-116614792D01*
X159273241Y-116614798D01*
X159180049Y-116766874D01*
X159151760Y-116813037D01*
X159149867Y-116817607D01*
X159149865Y-116817611D01*
X159062789Y-117027833D01*
X159060895Y-117032406D01*
X159044667Y-117100000D01*
X159009960Y-117244567D01*
X159005465Y-117263289D01*
X158986835Y-117500000D01*
X159005465Y-117736711D01*
X159060895Y-117967594D01*
X159062788Y-117972165D01*
X159062789Y-117972167D01*
X159148383Y-118178809D01*
X159151760Y-118186963D01*
X159154346Y-118191183D01*
X159273241Y-118385202D01*
X159273245Y-118385208D01*
X159275824Y-118389416D01*
X159430031Y-118569969D01*
X159610584Y-118724176D01*
X159614792Y-118726755D01*
X159614798Y-118726759D01*
X159780465Y-118828280D01*
X159813037Y-118848240D01*
X159817607Y-118850133D01*
X159817611Y-118850135D01*
X160027833Y-118937211D01*
X160032406Y-118939105D01*
X160112609Y-118958360D01*
X160258476Y-118993380D01*
X160258482Y-118993381D01*
X160263289Y-118994535D01*
X160500000Y-119013165D01*
X160736711Y-118994535D01*
X160741518Y-118993381D01*
X160741524Y-118993380D01*
X160887391Y-118958360D01*
X160967594Y-118939105D01*
X160972167Y-118937211D01*
X161182389Y-118850135D01*
X161182393Y-118850133D01*
X161186963Y-118848240D01*
X161219535Y-118828280D01*
X161385202Y-118726759D01*
X161385208Y-118726755D01*
X161389416Y-118724176D01*
X161569969Y-118569969D01*
X161724176Y-118389416D01*
X161726755Y-118385208D01*
X161726759Y-118385202D01*
X161845654Y-118191183D01*
X161848240Y-118186963D01*
X161850135Y-118182389D01*
X161852381Y-118177980D01*
X161854009Y-118178809D01*
X161893630Y-118129633D01*
X161960992Y-118107207D01*
X162029785Y-118124759D01*
X162078167Y-118176716D01*
X162091500Y-118233126D01*
X162091500Y-123868181D01*
X162071498Y-123936302D01*
X162017842Y-123982795D01*
X161947568Y-123992899D01*
X161882988Y-123963405D01*
X161852943Y-123921740D01*
X161851937Y-123922253D01*
X161845205Y-123909042D01*
X161742568Y-123741555D01*
X161732110Y-123732093D01*
X161723334Y-123735876D01*
X160872022Y-124587188D01*
X160864408Y-124601132D01*
X160864539Y-124602965D01*
X160868790Y-124609580D01*
X161720290Y-125461080D01*
X161732670Y-125467840D01*
X161740320Y-125462113D01*
X161845205Y-125290958D01*
X161851937Y-125277747D01*
X161853264Y-125278423D01*
X161893635Y-125228323D01*
X161960998Y-125205899D01*
X162029790Y-125223455D01*
X162078170Y-125275415D01*
X162091500Y-125331819D01*
X162091500Y-134500470D01*
X162071498Y-134568591D01*
X162017842Y-134615084D01*
X161947568Y-134625188D01*
X161882988Y-134595694D01*
X161843296Y-134531166D01*
X161791691Y-134325720D01*
X161790431Y-134320702D01*
X161701354Y-134115840D01*
X161580014Y-133928277D01*
X161429670Y-133763051D01*
X161425619Y-133759852D01*
X161425615Y-133759848D01*
X161258414Y-133627800D01*
X161258410Y-133627798D01*
X161254359Y-133624598D01*
X161230696Y-133611535D01*
X161202136Y-133595769D01*
X161058789Y-133516638D01*
X161053920Y-133514914D01*
X161053916Y-133514912D01*
X160853087Y-133443795D01*
X160853083Y-133443794D01*
X160848212Y-133442069D01*
X160843119Y-133441162D01*
X160843116Y-133441161D01*
X160633373Y-133403800D01*
X160633367Y-133403799D01*
X160628284Y-133402894D01*
X160554452Y-133401992D01*
X160410081Y-133400228D01*
X160410079Y-133400228D01*
X160404911Y-133400165D01*
X160184091Y-133433955D01*
X159971756Y-133503357D01*
X159773607Y-133606507D01*
X159769474Y-133609610D01*
X159769471Y-133609612D01*
X159745247Y-133627800D01*
X159594965Y-133740635D01*
X159440629Y-133902138D01*
X159437715Y-133906410D01*
X159437714Y-133906411D01*
X159433002Y-133913319D01*
X159314743Y-134086680D01*
X159220688Y-134289305D01*
X159160989Y-134504570D01*
X159137251Y-134726695D01*
X159150110Y-134949715D01*
X159151247Y-134954761D01*
X159151248Y-134954767D01*
X159158225Y-134985725D01*
X159199222Y-135167639D01*
X159283266Y-135374616D01*
X159399987Y-135565088D01*
X159546250Y-135733938D01*
X159718126Y-135876632D01*
X159788595Y-135917811D01*
X159791445Y-135919476D01*
X159840169Y-135971114D01*
X159853240Y-136040897D01*
X159826509Y-136106669D01*
X159786055Y-136140027D01*
X159773607Y-136146507D01*
X159769474Y-136149610D01*
X159769471Y-136149612D01*
X159745247Y-136167800D01*
X159594965Y-136280635D01*
X159440629Y-136442138D01*
X159314743Y-136626680D01*
X159299894Y-136658670D01*
X159252919Y-136759870D01*
X159220688Y-136829305D01*
X159160989Y-137044570D01*
X159137251Y-137266695D01*
X159137548Y-137271848D01*
X159137548Y-137271851D01*
X159144673Y-137395425D01*
X159150110Y-137489715D01*
X159151247Y-137494761D01*
X159151248Y-137494767D01*
X159158225Y-137525725D01*
X159199222Y-137707639D01*
X159283266Y-137914616D01*
X159399987Y-138105088D01*
X159546250Y-138273938D01*
X159718126Y-138416632D01*
X159778359Y-138451829D01*
X159791955Y-138459774D01*
X159840679Y-138511412D01*
X159853750Y-138581195D01*
X159827019Y-138646967D01*
X159786562Y-138680327D01*
X159778460Y-138684544D01*
X159769734Y-138690039D01*
X159749677Y-138705099D01*
X159741223Y-138716427D01*
X159747968Y-138728758D01*
X160487188Y-139467978D01*
X160501132Y-139475592D01*
X160502965Y-139475461D01*
X160509580Y-139471210D01*
X161253389Y-138727401D01*
X161260410Y-138714544D01*
X161253611Y-138705213D01*
X161249559Y-138702521D01*
X161212602Y-138682120D01*
X161162631Y-138631687D01*
X161147859Y-138562245D01*
X161172975Y-138495839D01*
X161200327Y-138469232D01*
X161257932Y-138428143D01*
X161379860Y-138341173D01*
X161538096Y-138183489D01*
X161566848Y-138143477D01*
X161665435Y-138006277D01*
X161668453Y-138002077D01*
X161685729Y-137967123D01*
X161765136Y-137806453D01*
X161765137Y-137806451D01*
X161767430Y-137801811D01*
X161832370Y-137588069D01*
X161840578Y-137525725D01*
X161869301Y-137460798D01*
X161928566Y-137421707D01*
X161999558Y-137420862D01*
X162059736Y-137458533D01*
X162089995Y-137522758D01*
X162091500Y-137542172D01*
X162091500Y-139582523D01*
X162071498Y-139650644D01*
X162017842Y-139697137D01*
X161947568Y-139707241D01*
X161882988Y-139677747D01*
X161843296Y-139613219D01*
X161791214Y-139405875D01*
X161787894Y-139396124D01*
X161702972Y-139200814D01*
X161698105Y-139191739D01*
X161633063Y-139091197D01*
X161622377Y-139081995D01*
X161612812Y-139086398D01*
X160872022Y-139827188D01*
X160864408Y-139841132D01*
X160864539Y-139842965D01*
X160868790Y-139849580D01*
X161610474Y-140591264D01*
X161622484Y-140597823D01*
X161634223Y-140588855D01*
X161665004Y-140546019D01*
X161670315Y-140537180D01*
X161764670Y-140346267D01*
X161768469Y-140336672D01*
X161830376Y-140132915D01*
X161832555Y-140122834D01*
X161840578Y-140061894D01*
X161869300Y-139996967D01*
X161928565Y-139957875D01*
X161999557Y-139957030D01*
X162059736Y-139994700D01*
X162089995Y-140058925D01*
X162091500Y-140078340D01*
X162091500Y-141364179D01*
X162071498Y-141432300D01*
X162017842Y-141478793D01*
X161947568Y-141488897D01*
X161882988Y-141459403D01*
X161847518Y-141408408D01*
X161803768Y-141291705D01*
X161803767Y-141291703D01*
X161800615Y-141283295D01*
X161713261Y-141166739D01*
X161596705Y-141079385D01*
X161460316Y-141028255D01*
X161398134Y-141021500D01*
X161364452Y-141021500D01*
X161296331Y-141001498D01*
X161253177Y-140954610D01*
X161250658Y-140949868D01*
X160512812Y-140212022D01*
X160498868Y-140204408D01*
X160497035Y-140204539D01*
X160490420Y-140208790D01*
X159746737Y-140952473D01*
X159744874Y-140955885D01*
X159694672Y-141006087D01*
X159634286Y-141021500D01*
X159601866Y-141021500D01*
X159539684Y-141028255D01*
X159403295Y-141079385D01*
X159286739Y-141166739D01*
X159199385Y-141283295D01*
X159148255Y-141419684D01*
X159141500Y-141481866D01*
X159141500Y-143278134D01*
X159148255Y-143340316D01*
X159199385Y-143476705D01*
X159286739Y-143593261D01*
X159403295Y-143680615D01*
X159411704Y-143683767D01*
X159419575Y-143688077D01*
X159418746Y-143689591D01*
X159467049Y-143725875D01*
X159491751Y-143792436D01*
X159491272Y-143815258D01*
X159486719Y-143855851D01*
X159490461Y-143900410D01*
X159494527Y-143948832D01*
X159503268Y-144052934D01*
X159557783Y-144243050D01*
X159648187Y-144418956D01*
X159771035Y-144573953D01*
X159775728Y-144577947D01*
X159775729Y-144577948D01*
X159843265Y-144635425D01*
X159921650Y-144702136D01*
X160094294Y-144798624D01*
X160282392Y-144859740D01*
X160478777Y-144883158D01*
X160484912Y-144882686D01*
X160484914Y-144882686D01*
X160669830Y-144868457D01*
X160669834Y-144868456D01*
X160675972Y-144867984D01*
X160866463Y-144814798D01*
X160871967Y-144812018D01*
X160871969Y-144812017D01*
X161037495Y-144728404D01*
X161037497Y-144728403D01*
X161042996Y-144725625D01*
X161198847Y-144603861D01*
X161313285Y-144471283D01*
X161324049Y-144458813D01*
X161324050Y-144458811D01*
X161328078Y-144454145D01*
X161425769Y-144282179D01*
X161488197Y-144094513D01*
X161512985Y-143898295D01*
X161513380Y-143870000D01*
X161507866Y-143813767D01*
X161521125Y-143744021D01*
X161569987Y-143692514D01*
X161587322Y-143684301D01*
X161588299Y-143683766D01*
X161596705Y-143680615D01*
X161603884Y-143675235D01*
X161603887Y-143675233D01*
X161706081Y-143598642D01*
X161713261Y-143593261D01*
X161800615Y-143476705D01*
X161847518Y-143351592D01*
X161890159Y-143294827D01*
X161956721Y-143270127D01*
X162026070Y-143285334D01*
X162076188Y-143335620D01*
X162091500Y-143395821D01*
X162091500Y-155365500D01*
X162071498Y-155433621D01*
X162017842Y-155480114D01*
X161965500Y-155491500D01*
X126234500Y-155491500D01*
X126166379Y-155471498D01*
X126119886Y-155417842D01*
X126108500Y-155365500D01*
X126108500Y-152899934D01*
X156231500Y-152899934D01*
X156231823Y-152903113D01*
X156241236Y-152995781D01*
X156246619Y-153048780D01*
X156306369Y-153239440D01*
X156403235Y-153414191D01*
X156533261Y-153565896D01*
X156538298Y-153569803D01*
X156538300Y-153569805D01*
X156686093Y-153684445D01*
X156686096Y-153684447D01*
X156691137Y-153688357D01*
X156696863Y-153691175D01*
X156696867Y-153691177D01*
X156864682Y-153773752D01*
X156870411Y-153776571D01*
X156959906Y-153799883D01*
X157057580Y-153825325D01*
X157057583Y-153825325D01*
X157063762Y-153826935D01*
X157157256Y-153831835D01*
X157256911Y-153837058D01*
X157256915Y-153837058D01*
X157263292Y-153837392D01*
X157460848Y-153807514D01*
X157648361Y-153738523D01*
X157721903Y-153692925D01*
X158626645Y-153692925D01*
X158644570Y-153889888D01*
X158700410Y-154079619D01*
X158703263Y-154085077D01*
X158703265Y-154085081D01*
X158750720Y-154175853D01*
X158792040Y-154254890D01*
X158915968Y-154409025D01*
X158920692Y-154412989D01*
X158927933Y-154419065D01*
X159067474Y-154536154D01*
X159072872Y-154539121D01*
X159072877Y-154539125D01*
X159216180Y-154617905D01*
X159240787Y-154631433D01*
X159246654Y-154633294D01*
X159246656Y-154633295D01*
X159423436Y-154689373D01*
X159429306Y-154691235D01*
X159583227Y-154708500D01*
X160239769Y-154708500D01*
X160242825Y-154708200D01*
X160242832Y-154708200D01*
X160301340Y-154702463D01*
X160386833Y-154694080D01*
X160392734Y-154692298D01*
X160392736Y-154692298D01*
X160466053Y-154670162D01*
X160576169Y-154636916D01*
X160750796Y-154544066D01*
X160837062Y-154473709D01*
X160899287Y-154422960D01*
X160899290Y-154422957D01*
X160904062Y-154419065D01*
X160916344Y-154404219D01*
X161026201Y-154271425D01*
X161026203Y-154271421D01*
X161030130Y-154266675D01*
X161124198Y-154092701D01*
X161182682Y-153903768D01*
X161189658Y-153837392D01*
X161202711Y-153713204D01*
X161202711Y-153713202D01*
X161203355Y-153707075D01*
X161195847Y-153624576D01*
X161185989Y-153516251D01*
X161185988Y-153516248D01*
X161185430Y-153510112D01*
X161158627Y-153419040D01*
X161131330Y-153326294D01*
X161129590Y-153320381D01*
X161119919Y-153301881D01*
X161040813Y-153150568D01*
X161037960Y-153145110D01*
X160914032Y-152990975D01*
X160907727Y-152985684D01*
X160861352Y-152946771D01*
X160762526Y-152863846D01*
X160757128Y-152860879D01*
X160757123Y-152860875D01*
X160594608Y-152771533D01*
X160594609Y-152771533D01*
X160589213Y-152768567D01*
X160583346Y-152766706D01*
X160583344Y-152766705D01*
X160406564Y-152710627D01*
X160406563Y-152710627D01*
X160400694Y-152708765D01*
X160246773Y-152691500D01*
X159590231Y-152691500D01*
X159587175Y-152691800D01*
X159587168Y-152691800D01*
X159541012Y-152696326D01*
X159443167Y-152705920D01*
X159437266Y-152707702D01*
X159437264Y-152707702D01*
X159363947Y-152729838D01*
X159253831Y-152763084D01*
X159079204Y-152855934D01*
X159025255Y-152899934D01*
X158930713Y-152977040D01*
X158930710Y-152977043D01*
X158925938Y-152980935D01*
X158922011Y-152985682D01*
X158922009Y-152985684D01*
X158803799Y-153128575D01*
X158803797Y-153128579D01*
X158799870Y-153133325D01*
X158705802Y-153307299D01*
X158647318Y-153496232D01*
X158646674Y-153502357D01*
X158646674Y-153502358D01*
X158632919Y-153633235D01*
X158626645Y-153692925D01*
X157721903Y-153692925D01*
X157818172Y-153633235D01*
X157963344Y-153495953D01*
X158077946Y-153332284D01*
X158157298Y-153148914D01*
X158198156Y-152953334D01*
X158198500Y-152946771D01*
X158198500Y-152500066D01*
X158191775Y-152433861D01*
X158184026Y-152357566D01*
X158184025Y-152357562D01*
X158183381Y-152351220D01*
X158134067Y-152193861D01*
X158125540Y-152166651D01*
X158125539Y-152166650D01*
X158123631Y-152160560D01*
X158026765Y-151985809D01*
X157929373Y-151872179D01*
X157900891Y-151838948D01*
X157900890Y-151838947D01*
X157896739Y-151834104D01*
X157891700Y-151830195D01*
X157743907Y-151715555D01*
X157743904Y-151715553D01*
X157738863Y-151711643D01*
X157733137Y-151708825D01*
X157733133Y-151708823D01*
X157565318Y-151626248D01*
X157559589Y-151623429D01*
X157440797Y-151592486D01*
X157372420Y-151574675D01*
X157372417Y-151574675D01*
X157366238Y-151573065D01*
X157272744Y-151568165D01*
X157173089Y-151562942D01*
X157173085Y-151562942D01*
X157166708Y-151562608D01*
X156969152Y-151592486D01*
X156963165Y-151594689D01*
X156963164Y-151594689D01*
X156787629Y-151659273D01*
X156781639Y-151661477D01*
X156611828Y-151766765D01*
X156466656Y-151904047D01*
X156352054Y-152067716D01*
X156272702Y-152251086D01*
X156231844Y-152446666D01*
X156231500Y-152453229D01*
X156231500Y-152899934D01*
X126108500Y-152899934D01*
X126108500Y-151445851D01*
X134192969Y-151445851D01*
X134209518Y-151642934D01*
X134226892Y-151703523D01*
X134246283Y-151771147D01*
X134264033Y-151833050D01*
X134354437Y-152008956D01*
X134477285Y-152163953D01*
X134481978Y-152167947D01*
X134481979Y-152167948D01*
X134618511Y-152284145D01*
X134627900Y-152292136D01*
X134800544Y-152388624D01*
X134988642Y-152449740D01*
X135185027Y-152473158D01*
X135191162Y-152472686D01*
X135191164Y-152472686D01*
X135376080Y-152458457D01*
X135376084Y-152458456D01*
X135382222Y-152457984D01*
X135572713Y-152404798D01*
X135578217Y-152402018D01*
X135578219Y-152402017D01*
X135743745Y-152318404D01*
X135743747Y-152318403D01*
X135749246Y-152315625D01*
X135905097Y-152193861D01*
X136034328Y-152044145D01*
X136132019Y-151872179D01*
X136194002Y-151685851D01*
X142741719Y-151685851D01*
X142742235Y-151691995D01*
X142754575Y-151838948D01*
X142758268Y-151882934D01*
X142759967Y-151888858D01*
X142809754Y-152062486D01*
X142812783Y-152073050D01*
X142815602Y-152078535D01*
X142854888Y-152154976D01*
X142903187Y-152248956D01*
X143026035Y-152403953D01*
X143030728Y-152407947D01*
X143030729Y-152407948D01*
X143077598Y-152447836D01*
X143176650Y-152532136D01*
X143349294Y-152628624D01*
X143537392Y-152689740D01*
X143733777Y-152713158D01*
X143739912Y-152712686D01*
X143739914Y-152712686D01*
X143924830Y-152698457D01*
X143924834Y-152698456D01*
X143930972Y-152697984D01*
X144121463Y-152644798D01*
X144126967Y-152642018D01*
X144126969Y-152642017D01*
X144292495Y-152558404D01*
X144292497Y-152558403D01*
X144297996Y-152555625D01*
X144453847Y-152433861D01*
X144573587Y-152295141D01*
X144579049Y-152288813D01*
X144579050Y-152288811D01*
X144583078Y-152284145D01*
X144680769Y-152112179D01*
X144743197Y-151924513D01*
X144767985Y-151728295D01*
X144768188Y-151713753D01*
X144768331Y-151703523D01*
X144768331Y-151703520D01*
X144768380Y-151700000D01*
X144749080Y-151503167D01*
X144691916Y-151313831D01*
X144599066Y-151139204D01*
X144528709Y-151052938D01*
X144477960Y-150990713D01*
X144477957Y-150990710D01*
X144474065Y-150985938D01*
X144467724Y-150980692D01*
X144326425Y-150863799D01*
X144326421Y-150863797D01*
X144321675Y-150859870D01*
X144147701Y-150765802D01*
X143958768Y-150707318D01*
X143952643Y-150706674D01*
X143952642Y-150706674D01*
X143768204Y-150687289D01*
X143768202Y-150687289D01*
X143762075Y-150686645D01*
X143679576Y-150694153D01*
X143571251Y-150704011D01*
X143571248Y-150704012D01*
X143565112Y-150704570D01*
X143559206Y-150706308D01*
X143559202Y-150706309D01*
X143471558Y-150732104D01*
X143375381Y-150760410D01*
X143369923Y-150763263D01*
X143369919Y-150763265D01*
X143279147Y-150810720D01*
X143200110Y-150852040D01*
X143045975Y-150975968D01*
X142918846Y-151127474D01*
X142915879Y-151132872D01*
X142915875Y-151132877D01*
X142912397Y-151139204D01*
X142823567Y-151300787D01*
X142821706Y-151306654D01*
X142821705Y-151306656D01*
X142779493Y-151439726D01*
X142763765Y-151489306D01*
X142741719Y-151685851D01*
X136194002Y-151685851D01*
X136194447Y-151684513D01*
X136219235Y-151488295D01*
X136219630Y-151460000D01*
X136200330Y-151263167D01*
X136143166Y-151073831D01*
X136050316Y-150899204D01*
X135979959Y-150812938D01*
X135929210Y-150750713D01*
X135929207Y-150750710D01*
X135925315Y-150745938D01*
X135918974Y-150740692D01*
X135777675Y-150623799D01*
X135777671Y-150623797D01*
X135772925Y-150619870D01*
X135598951Y-150525802D01*
X135410018Y-150467318D01*
X135403893Y-150466674D01*
X135403892Y-150466674D01*
X135219454Y-150447289D01*
X135219452Y-150447289D01*
X135213325Y-150446645D01*
X135130826Y-150454153D01*
X135022501Y-150464011D01*
X135022498Y-150464012D01*
X135016362Y-150464570D01*
X135010456Y-150466308D01*
X135010452Y-150466309D01*
X134905326Y-150497249D01*
X134826631Y-150520410D01*
X134821173Y-150523263D01*
X134821169Y-150523265D01*
X134730397Y-150570720D01*
X134651360Y-150612040D01*
X134497225Y-150735968D01*
X134370096Y-150887474D01*
X134367129Y-150892872D01*
X134367125Y-150892877D01*
X134321446Y-150975968D01*
X134274817Y-151060787D01*
X134272956Y-151066654D01*
X134272955Y-151066656D01*
X134216877Y-151243436D01*
X134215015Y-151249306D01*
X134192969Y-151445851D01*
X126108500Y-151445851D01*
X126108500Y-149609934D01*
X137685489Y-149609934D01*
X137688272Y-149613652D01*
X137820107Y-149662681D01*
X137833698Y-149666070D01*
X137988294Y-149686697D01*
X138002290Y-149686991D01*
X138157610Y-149672855D01*
X138171335Y-149670038D01*
X138319665Y-149621843D01*
X138328305Y-149617924D01*
X138335713Y-149609934D01*
X138847989Y-149609934D01*
X138850772Y-149613652D01*
X138982607Y-149662681D01*
X138996198Y-149666070D01*
X139150794Y-149686697D01*
X139164790Y-149686991D01*
X139320110Y-149672855D01*
X139333835Y-149670038D01*
X139482165Y-149621843D01*
X139490805Y-149617924D01*
X139498213Y-149609934D01*
X140010489Y-149609934D01*
X140013272Y-149613652D01*
X140145107Y-149662681D01*
X140158698Y-149666070D01*
X140313294Y-149686697D01*
X140327290Y-149686991D01*
X140482610Y-149672855D01*
X140496335Y-149670038D01*
X140644665Y-149621843D01*
X140653305Y-149617924D01*
X140660713Y-149609934D01*
X141172989Y-149609934D01*
X141175772Y-149613652D01*
X141307607Y-149662681D01*
X141321198Y-149666070D01*
X141475794Y-149686697D01*
X141489790Y-149686991D01*
X141645110Y-149672855D01*
X141658835Y-149670038D01*
X141807165Y-149621843D01*
X141815805Y-149617924D01*
X141823213Y-149609934D01*
X142335489Y-149609934D01*
X142338272Y-149613652D01*
X142470107Y-149662681D01*
X142483698Y-149666070D01*
X142638294Y-149686697D01*
X142652290Y-149686991D01*
X142807610Y-149672855D01*
X142821335Y-149670038D01*
X142969665Y-149621843D01*
X142978305Y-149617924D01*
X142986680Y-149608891D01*
X142983175Y-149600478D01*
X142674062Y-149291365D01*
X142660118Y-149283751D01*
X142658285Y-149283882D01*
X142651670Y-149288133D01*
X142342249Y-149597554D01*
X142335489Y-149609934D01*
X141823213Y-149609934D01*
X141824180Y-149608891D01*
X141820675Y-149600478D01*
X141511562Y-149291365D01*
X141497618Y-149283751D01*
X141495785Y-149283882D01*
X141489170Y-149288133D01*
X141179749Y-149597554D01*
X141172989Y-149609934D01*
X140660713Y-149609934D01*
X140661680Y-149608891D01*
X140658175Y-149600478D01*
X140349062Y-149291365D01*
X140335118Y-149283751D01*
X140333285Y-149283882D01*
X140326670Y-149288133D01*
X140017249Y-149597554D01*
X140010489Y-149609934D01*
X139498213Y-149609934D01*
X139499180Y-149608891D01*
X139495675Y-149600478D01*
X139186562Y-149291365D01*
X139172618Y-149283751D01*
X139170785Y-149283882D01*
X139164170Y-149288133D01*
X138854749Y-149597554D01*
X138847989Y-149609934D01*
X138335713Y-149609934D01*
X138336680Y-149608891D01*
X138333175Y-149600478D01*
X138024062Y-149291365D01*
X138010118Y-149283751D01*
X138008285Y-149283882D01*
X138001670Y-149288133D01*
X137692249Y-149597554D01*
X137685489Y-149609934D01*
X126108500Y-149609934D01*
X126108500Y-148921362D01*
X137249216Y-148921362D01*
X137264436Y-149076585D01*
X137267347Y-149090280D01*
X137316577Y-149238270D01*
X137318979Y-149243468D01*
X137326967Y-149250772D01*
X137335588Y-149247109D01*
X137644885Y-148937812D01*
X137652499Y-148923868D01*
X137652368Y-148922035D01*
X137648117Y-148915420D01*
X137338289Y-148605592D01*
X137325909Y-148598832D01*
X137322287Y-148601543D01*
X137272251Y-148739016D01*
X137268959Y-148752625D01*
X137249412Y-148907356D01*
X137249216Y-148921362D01*
X126108500Y-148921362D01*
X126108500Y-148776000D01*
X126128502Y-148707879D01*
X126182158Y-148661386D01*
X126234500Y-148650000D01*
X132061250Y-148650000D01*
X132061250Y-148344882D01*
X137788751Y-148344882D01*
X137788882Y-148346715D01*
X137793133Y-148353330D01*
X138579688Y-149139885D01*
X138593632Y-149147499D01*
X138595465Y-149147368D01*
X138602080Y-149143117D01*
X139084655Y-148660542D01*
X139146967Y-148626516D01*
X139217782Y-148631581D01*
X139262845Y-148660542D01*
X139742188Y-149139885D01*
X139756132Y-149147499D01*
X139757965Y-149147368D01*
X139764580Y-149143117D01*
X140247155Y-148660542D01*
X140309467Y-148626516D01*
X140380282Y-148631581D01*
X140425345Y-148660542D01*
X140904688Y-149139885D01*
X140918632Y-149147499D01*
X140920465Y-149147368D01*
X140927080Y-149143117D01*
X141409655Y-148660542D01*
X141471967Y-148626516D01*
X141542782Y-148631581D01*
X141587845Y-148660542D01*
X142067188Y-149139885D01*
X142081132Y-149147499D01*
X142082965Y-149147368D01*
X142089580Y-149143117D01*
X142306565Y-148926132D01*
X143020001Y-148926132D01*
X143020132Y-148927965D01*
X143024383Y-148934580D01*
X143333428Y-149243625D01*
X143345808Y-149250385D01*
X143349624Y-149247528D01*
X143397581Y-149121283D01*
X143401061Y-149107727D01*
X143423198Y-148950221D01*
X143423804Y-148942338D01*
X143423991Y-148928962D01*
X143423604Y-148921062D01*
X143405875Y-148763003D01*
X143402773Y-148749350D01*
X143351950Y-148603407D01*
X143346391Y-148598467D01*
X143337338Y-148602465D01*
X143027615Y-148912188D01*
X143020001Y-148926132D01*
X142306565Y-148926132D01*
X142876135Y-148356562D01*
X142883749Y-148342618D01*
X142883618Y-148340785D01*
X142879367Y-148334170D01*
X142396792Y-147851595D01*
X142362766Y-147789283D01*
X142364601Y-147763632D01*
X143020001Y-147763632D01*
X143020132Y-147765465D01*
X143024383Y-147772080D01*
X143333428Y-148081125D01*
X143345808Y-148087885D01*
X143349624Y-148085028D01*
X143397581Y-147958783D01*
X143401061Y-147945227D01*
X143407427Y-147899934D01*
X156231500Y-147899934D01*
X156231823Y-147903113D01*
X156237478Y-147958783D01*
X156246619Y-148048780D01*
X156306369Y-148239440D01*
X156403235Y-148414191D01*
X156533261Y-148565896D01*
X156538298Y-148569803D01*
X156538300Y-148569805D01*
X156686093Y-148684445D01*
X156686096Y-148684447D01*
X156691137Y-148688357D01*
X156696863Y-148691175D01*
X156696867Y-148691177D01*
X156821746Y-148752625D01*
X156870411Y-148776571D01*
X156959906Y-148799883D01*
X157057580Y-148825325D01*
X157057583Y-148825325D01*
X157063762Y-148826935D01*
X157157256Y-148831835D01*
X157256911Y-148837058D01*
X157256915Y-148837058D01*
X157263292Y-148837392D01*
X157460848Y-148807514D01*
X157648361Y-148738523D01*
X157791133Y-148650000D01*
X157812750Y-148636597D01*
X157812751Y-148636596D01*
X157818172Y-148633235D01*
X157850711Y-148602465D01*
X157958710Y-148500335D01*
X157963344Y-148495953D01*
X158060946Y-148356562D01*
X158074284Y-148337514D01*
X158074284Y-148337513D01*
X158077946Y-148332284D01*
X158157298Y-148148914D01*
X158198156Y-147953334D01*
X158198500Y-147946771D01*
X158198500Y-147500066D01*
X158190668Y-147422960D01*
X158184026Y-147357566D01*
X158184025Y-147357562D01*
X158183381Y-147351220D01*
X158123631Y-147160560D01*
X158026765Y-146985809D01*
X158019037Y-146976793D01*
X157900891Y-146838948D01*
X157900890Y-146838947D01*
X157896739Y-146834104D01*
X157891700Y-146830195D01*
X157743907Y-146715555D01*
X157743904Y-146715553D01*
X157738863Y-146711643D01*
X157733137Y-146708825D01*
X157733133Y-146708823D01*
X157700824Y-146692925D01*
X158626645Y-146692925D01*
X158633059Y-146763403D01*
X158639138Y-146830195D01*
X158644570Y-146889888D01*
X158646308Y-146895794D01*
X158646309Y-146895798D01*
X158672801Y-146985809D01*
X158700410Y-147079619D01*
X158703263Y-147085077D01*
X158703265Y-147085081D01*
X158739806Y-147154976D01*
X158792040Y-147254890D01*
X158915968Y-147409025D01*
X158920692Y-147412989D01*
X158927933Y-147419065D01*
X159067474Y-147536154D01*
X159072872Y-147539121D01*
X159072877Y-147539125D01*
X159184525Y-147600503D01*
X159240787Y-147631433D01*
X159246654Y-147633294D01*
X159246656Y-147633295D01*
X159373099Y-147673405D01*
X159429306Y-147691235D01*
X159583227Y-147708500D01*
X160239769Y-147708500D01*
X160242825Y-147708200D01*
X160242832Y-147708200D01*
X160301340Y-147702463D01*
X160386833Y-147694080D01*
X160392734Y-147692298D01*
X160392736Y-147692298D01*
X160504997Y-147658404D01*
X160576169Y-147636916D01*
X160750796Y-147544066D01*
X160837062Y-147473709D01*
X160899287Y-147422960D01*
X160899290Y-147422957D01*
X160904062Y-147419065D01*
X160929089Y-147388813D01*
X161026201Y-147271425D01*
X161026203Y-147271421D01*
X161030130Y-147266675D01*
X161124198Y-147092701D01*
X161182682Y-146903768D01*
X161190415Y-146830195D01*
X161202711Y-146713204D01*
X161202711Y-146713202D01*
X161203355Y-146707075D01*
X161193880Y-146602965D01*
X161185989Y-146516251D01*
X161185988Y-146516248D01*
X161185430Y-146510112D01*
X161164208Y-146438003D01*
X161131330Y-146326294D01*
X161129590Y-146320381D01*
X161119919Y-146301881D01*
X161040813Y-146150568D01*
X161037960Y-146145110D01*
X160914032Y-145990975D01*
X160907727Y-145985684D01*
X160876963Y-145959870D01*
X160762526Y-145863846D01*
X160757128Y-145860879D01*
X160757123Y-145860875D01*
X160594608Y-145771533D01*
X160594609Y-145771533D01*
X160589213Y-145768567D01*
X160583346Y-145766706D01*
X160583344Y-145766705D01*
X160406564Y-145710627D01*
X160406563Y-145710627D01*
X160400694Y-145708765D01*
X160246773Y-145691500D01*
X159590231Y-145691500D01*
X159587175Y-145691800D01*
X159587168Y-145691800D01*
X159528660Y-145697537D01*
X159443167Y-145705920D01*
X159437266Y-145707702D01*
X159437264Y-145707702D01*
X159363947Y-145729838D01*
X159253831Y-145763084D01*
X159079204Y-145855934D01*
X158992938Y-145926291D01*
X158930713Y-145977040D01*
X158930710Y-145977043D01*
X158925938Y-145980935D01*
X158922011Y-145985682D01*
X158922009Y-145985684D01*
X158803799Y-146128575D01*
X158803797Y-146128579D01*
X158799870Y-146133325D01*
X158705802Y-146307299D01*
X158647318Y-146496232D01*
X158646674Y-146502357D01*
X158646674Y-146502358D01*
X158636826Y-146596062D01*
X158626645Y-146692925D01*
X157700824Y-146692925D01*
X157565318Y-146626248D01*
X157559589Y-146623429D01*
X157440797Y-146592486D01*
X157372420Y-146574675D01*
X157372417Y-146574675D01*
X157366238Y-146573065D01*
X157272744Y-146568165D01*
X157173089Y-146562942D01*
X157173085Y-146562942D01*
X157166708Y-146562608D01*
X156969152Y-146592486D01*
X156963165Y-146594689D01*
X156963164Y-146594689D01*
X156913907Y-146612812D01*
X156781639Y-146661477D01*
X156611828Y-146766765D01*
X156607195Y-146771146D01*
X156607194Y-146771147D01*
X156580389Y-146796495D01*
X156466656Y-146904047D01*
X156352054Y-147067716D01*
X156272702Y-147251086D01*
X156231844Y-147446666D01*
X156231500Y-147453229D01*
X156231500Y-147899934D01*
X143407427Y-147899934D01*
X143423198Y-147787721D01*
X143423804Y-147779838D01*
X143423991Y-147766462D01*
X143423604Y-147758562D01*
X143405875Y-147600503D01*
X143402773Y-147586850D01*
X143351950Y-147440907D01*
X143346391Y-147435967D01*
X143337338Y-147439965D01*
X143027615Y-147749688D01*
X143020001Y-147763632D01*
X142364601Y-147763632D01*
X142367831Y-147718468D01*
X142396792Y-147673405D01*
X142876135Y-147194062D01*
X142883749Y-147180118D01*
X142883618Y-147178285D01*
X142879367Y-147171670D01*
X142396792Y-146689095D01*
X142362766Y-146626783D01*
X142364601Y-146601132D01*
X143020001Y-146601132D01*
X143020132Y-146602965D01*
X143024383Y-146609580D01*
X143333428Y-146918625D01*
X143345808Y-146925385D01*
X143349624Y-146922528D01*
X143397581Y-146796283D01*
X143400259Y-146785851D01*
X145622969Y-146785851D01*
X145623485Y-146791995D01*
X145634686Y-146925385D01*
X145639518Y-146982934D01*
X145641217Y-146988858D01*
X145690452Y-147160560D01*
X145694033Y-147173050D01*
X145784437Y-147348956D01*
X145907285Y-147503953D01*
X145911978Y-147507947D01*
X145911979Y-147507948D01*
X145992547Y-147576516D01*
X146057900Y-147632136D01*
X146230544Y-147728624D01*
X146418642Y-147789740D01*
X146615027Y-147813158D01*
X146621162Y-147812686D01*
X146621164Y-147812686D01*
X146806080Y-147798457D01*
X146806084Y-147798456D01*
X146812222Y-147797984D01*
X147002713Y-147744798D01*
X147008217Y-147742018D01*
X147008219Y-147742017D01*
X147173745Y-147658404D01*
X147173747Y-147658403D01*
X147179246Y-147655625D01*
X147335097Y-147533861D01*
X147464328Y-147384145D01*
X147562019Y-147212179D01*
X147624447Y-147024513D01*
X147649235Y-146828295D01*
X147649630Y-146800000D01*
X147630330Y-146603167D01*
X147628276Y-146596362D01*
X147598044Y-146496232D01*
X147573166Y-146413831D01*
X147480316Y-146239204D01*
X147390089Y-146128575D01*
X147359210Y-146090713D01*
X147359207Y-146090710D01*
X147355315Y-146085938D01*
X147348974Y-146080692D01*
X147207675Y-145963799D01*
X147207671Y-145963797D01*
X147202925Y-145959870D01*
X147028951Y-145865802D01*
X146840018Y-145807318D01*
X146833893Y-145806674D01*
X146833892Y-145806674D01*
X146649454Y-145787289D01*
X146649452Y-145787289D01*
X146643325Y-145786645D01*
X146560826Y-145794153D01*
X146452501Y-145804011D01*
X146452498Y-145804012D01*
X146446362Y-145804570D01*
X146440456Y-145806308D01*
X146440452Y-145806309D01*
X146360840Y-145829740D01*
X146256631Y-145860410D01*
X146251173Y-145863263D01*
X146251169Y-145863265D01*
X146160397Y-145910720D01*
X146081360Y-145952040D01*
X145927225Y-146075968D01*
X145800096Y-146227474D01*
X145797129Y-146232872D01*
X145797125Y-146232877D01*
X145718345Y-146376180D01*
X145704817Y-146400787D01*
X145702956Y-146406654D01*
X145702955Y-146406656D01*
X145655590Y-146555968D01*
X145645015Y-146589306D01*
X145622969Y-146785851D01*
X143400259Y-146785851D01*
X143401061Y-146782727D01*
X143423198Y-146625221D01*
X143423804Y-146617338D01*
X143423991Y-146603962D01*
X143423604Y-146596062D01*
X143405875Y-146438003D01*
X143402773Y-146424350D01*
X143351950Y-146278407D01*
X143346391Y-146273467D01*
X143337338Y-146277465D01*
X143027615Y-146587188D01*
X143020001Y-146601132D01*
X142364601Y-146601132D01*
X142367831Y-146555968D01*
X142396792Y-146510905D01*
X142876135Y-146031562D01*
X142883749Y-146017618D01*
X142883618Y-146015785D01*
X142879367Y-146009170D01*
X142396792Y-145526595D01*
X142362766Y-145464283D01*
X142364601Y-145438632D01*
X143020001Y-145438632D01*
X143020132Y-145440465D01*
X143024383Y-145447080D01*
X143333428Y-145756125D01*
X143345808Y-145762885D01*
X143349624Y-145760028D01*
X143397581Y-145633783D01*
X143401061Y-145620227D01*
X143423198Y-145462721D01*
X143423804Y-145454838D01*
X143423991Y-145441462D01*
X143423604Y-145433562D01*
X143405875Y-145275503D01*
X143402773Y-145261850D01*
X143351950Y-145115907D01*
X143346391Y-145110967D01*
X143337338Y-145114965D01*
X143027615Y-145424688D01*
X143020001Y-145438632D01*
X142364601Y-145438632D01*
X142367831Y-145393468D01*
X142396792Y-145348405D01*
X142876135Y-144869062D01*
X142883749Y-144855118D01*
X142883618Y-144853285D01*
X142879367Y-144846670D01*
X142308829Y-144276132D01*
X143020001Y-144276132D01*
X143020132Y-144277965D01*
X143024383Y-144284580D01*
X143333428Y-144593625D01*
X143345808Y-144600385D01*
X143349624Y-144597528D01*
X143397581Y-144471283D01*
X143401061Y-144457727D01*
X143423198Y-144300221D01*
X143423804Y-144292338D01*
X143423991Y-144278962D01*
X143423604Y-144271062D01*
X143405875Y-144113003D01*
X143402773Y-144099350D01*
X143351950Y-143953407D01*
X143346391Y-143948467D01*
X143337338Y-143952465D01*
X143027615Y-144262188D01*
X143020001Y-144276132D01*
X142308829Y-144276132D01*
X142092812Y-144060115D01*
X142078868Y-144052501D01*
X142077035Y-144052632D01*
X142070420Y-144056883D01*
X141587845Y-144539458D01*
X141525533Y-144573484D01*
X141454718Y-144568419D01*
X141409655Y-144539458D01*
X140930312Y-144060115D01*
X140916368Y-144052501D01*
X140914535Y-144052632D01*
X140907920Y-144056883D01*
X140425345Y-144539458D01*
X140363033Y-144573484D01*
X140292218Y-144568419D01*
X140247155Y-144539458D01*
X139767812Y-144060115D01*
X139753868Y-144052501D01*
X139752035Y-144052632D01*
X139745420Y-144056883D01*
X139262845Y-144539458D01*
X139200533Y-144573484D01*
X139129718Y-144568419D01*
X139084655Y-144539458D01*
X138605312Y-144060115D01*
X138591368Y-144052501D01*
X138589535Y-144052632D01*
X138582920Y-144056883D01*
X137796365Y-144843438D01*
X137788751Y-144857382D01*
X137788882Y-144859215D01*
X137793133Y-144865830D01*
X138275708Y-145348405D01*
X138309734Y-145410717D01*
X138304669Y-145481532D01*
X138275708Y-145526595D01*
X137796365Y-146005938D01*
X137788751Y-146019882D01*
X137788882Y-146021715D01*
X137793133Y-146028330D01*
X138275708Y-146510905D01*
X138309734Y-146573217D01*
X138304669Y-146644032D01*
X138275708Y-146689095D01*
X137796365Y-147168438D01*
X137788751Y-147182382D01*
X137788882Y-147184215D01*
X137793133Y-147190830D01*
X138275708Y-147673405D01*
X138309734Y-147735717D01*
X138304669Y-147806532D01*
X138275708Y-147851595D01*
X137796365Y-148330938D01*
X137788751Y-148344882D01*
X132061250Y-148344882D01*
X132061250Y-147758862D01*
X137249216Y-147758862D01*
X137264436Y-147914085D01*
X137267347Y-147927780D01*
X137316577Y-148075770D01*
X137318979Y-148080968D01*
X137326967Y-148088272D01*
X137335588Y-148084609D01*
X137644885Y-147775312D01*
X137652499Y-147761368D01*
X137652368Y-147759535D01*
X137648117Y-147752920D01*
X137338289Y-147443092D01*
X137325909Y-147436332D01*
X137322287Y-147439043D01*
X137272251Y-147576516D01*
X137268959Y-147590125D01*
X137249412Y-147744856D01*
X137249216Y-147758862D01*
X132061250Y-147758862D01*
X132061250Y-146596362D01*
X137249216Y-146596362D01*
X137264436Y-146751585D01*
X137267347Y-146765280D01*
X137316577Y-146913270D01*
X137318979Y-146918468D01*
X137326967Y-146925772D01*
X137335588Y-146922109D01*
X137644885Y-146612812D01*
X137652499Y-146598868D01*
X137652368Y-146597035D01*
X137648117Y-146590420D01*
X137338289Y-146280592D01*
X137325909Y-146273832D01*
X137322287Y-146276543D01*
X137272251Y-146414016D01*
X137268959Y-146427625D01*
X137249412Y-146582356D01*
X137249216Y-146596362D01*
X132061250Y-146596362D01*
X132061250Y-144825851D01*
X134482969Y-144825851D01*
X134499518Y-145022934D01*
X134501217Y-145028858D01*
X134525908Y-145114965D01*
X134554033Y-145213050D01*
X134644437Y-145388956D01*
X134767285Y-145543953D01*
X134917900Y-145672136D01*
X135090544Y-145768624D01*
X135278642Y-145829740D01*
X135475027Y-145853158D01*
X135481162Y-145852686D01*
X135481164Y-145852686D01*
X135666080Y-145838457D01*
X135666084Y-145838456D01*
X135672222Y-145837984D01*
X135862713Y-145784798D01*
X135868217Y-145782018D01*
X135868219Y-145782017D01*
X136033745Y-145698404D01*
X136033747Y-145698403D01*
X136039246Y-145695625D01*
X136195097Y-145573861D01*
X136304531Y-145447080D01*
X136315941Y-145433862D01*
X137249216Y-145433862D01*
X137264436Y-145589085D01*
X137267347Y-145602780D01*
X137316577Y-145750770D01*
X137318979Y-145755968D01*
X137326967Y-145763272D01*
X137335588Y-145759609D01*
X137644885Y-145450312D01*
X137652499Y-145436368D01*
X137652368Y-145434535D01*
X137648117Y-145427920D01*
X137338289Y-145118092D01*
X137325909Y-145111332D01*
X137322287Y-145114043D01*
X137272251Y-145251516D01*
X137268959Y-145265125D01*
X137249412Y-145419856D01*
X137249216Y-145433862D01*
X136315941Y-145433862D01*
X136320299Y-145428813D01*
X136320300Y-145428811D01*
X136324328Y-145424145D01*
X136422019Y-145252179D01*
X136484447Y-145064513D01*
X136509235Y-144868295D01*
X136509630Y-144840000D01*
X136490330Y-144643167D01*
X136433166Y-144453831D01*
X136340316Y-144279204D01*
X136333920Y-144271362D01*
X137249216Y-144271362D01*
X137264436Y-144426585D01*
X137267347Y-144440280D01*
X137316577Y-144588270D01*
X137318979Y-144593468D01*
X137326967Y-144600772D01*
X137335588Y-144597109D01*
X137644885Y-144287812D01*
X137652499Y-144273868D01*
X137652368Y-144272035D01*
X137648117Y-144265420D01*
X137338289Y-143955592D01*
X137325909Y-143948832D01*
X137322287Y-143951543D01*
X137272251Y-144089016D01*
X137268959Y-144102625D01*
X137249412Y-144257356D01*
X137249216Y-144271362D01*
X136333920Y-144271362D01*
X136269959Y-144192938D01*
X136219210Y-144130713D01*
X136219207Y-144130710D01*
X136215315Y-144125938D01*
X136208974Y-144120692D01*
X136067675Y-144003799D01*
X136067671Y-144003797D01*
X136062925Y-143999870D01*
X135888951Y-143905802D01*
X135700018Y-143847318D01*
X135693893Y-143846674D01*
X135693892Y-143846674D01*
X135509454Y-143827289D01*
X135509452Y-143827289D01*
X135503325Y-143826645D01*
X135420826Y-143834153D01*
X135312501Y-143844011D01*
X135312498Y-143844012D01*
X135306362Y-143844570D01*
X135300456Y-143846308D01*
X135300452Y-143846309D01*
X135195326Y-143877249D01*
X135116631Y-143900410D01*
X135111173Y-143903263D01*
X135111169Y-143903265D01*
X135024707Y-143948467D01*
X134941360Y-143992040D01*
X134787225Y-144115968D01*
X134660096Y-144267474D01*
X134657129Y-144272872D01*
X134657125Y-144272877D01*
X134642093Y-144300221D01*
X134564817Y-144440787D01*
X134562956Y-144446654D01*
X134562955Y-144446656D01*
X134513087Y-144603861D01*
X134505015Y-144629306D01*
X134482969Y-144825851D01*
X132061250Y-144825851D01*
X132061250Y-143590302D01*
X137685110Y-143590302D01*
X137688934Y-143599131D01*
X137998438Y-143908635D01*
X138012382Y-143916249D01*
X138014215Y-143916118D01*
X138020830Y-143911867D01*
X138331097Y-143601600D01*
X138337266Y-143590302D01*
X138847610Y-143590302D01*
X138851434Y-143599131D01*
X139160938Y-143908635D01*
X139174882Y-143916249D01*
X139176715Y-143916118D01*
X139183330Y-143911867D01*
X139493597Y-143601600D01*
X139499766Y-143590302D01*
X140010110Y-143590302D01*
X140013934Y-143599131D01*
X140323438Y-143908635D01*
X140337382Y-143916249D01*
X140339215Y-143916118D01*
X140345830Y-143911867D01*
X140656097Y-143601600D01*
X140662266Y-143590302D01*
X141172610Y-143590302D01*
X141176434Y-143599131D01*
X141485938Y-143908635D01*
X141499882Y-143916249D01*
X141501715Y-143916118D01*
X141508330Y-143911867D01*
X141818597Y-143601600D01*
X141824766Y-143590302D01*
X142335110Y-143590302D01*
X142338934Y-143599131D01*
X142648438Y-143908635D01*
X142662382Y-143916249D01*
X142664215Y-143916118D01*
X142670830Y-143911867D01*
X142981097Y-143601600D01*
X142987857Y-143589220D01*
X142985272Y-143585766D01*
X142984972Y-143585606D01*
X142842070Y-143534720D01*
X142828445Y-143531524D01*
X142673568Y-143513057D01*
X142659571Y-143512959D01*
X142504457Y-143529262D01*
X142490783Y-143532268D01*
X142343134Y-143582532D01*
X142341363Y-143583366D01*
X142335110Y-143590302D01*
X141824766Y-143590302D01*
X141825357Y-143589220D01*
X141822772Y-143585766D01*
X141822472Y-143585606D01*
X141679570Y-143534720D01*
X141665945Y-143531524D01*
X141511068Y-143513057D01*
X141497071Y-143512959D01*
X141341957Y-143529262D01*
X141328283Y-143532268D01*
X141180634Y-143582532D01*
X141178863Y-143583366D01*
X141172610Y-143590302D01*
X140662266Y-143590302D01*
X140662857Y-143589220D01*
X140660272Y-143585766D01*
X140659972Y-143585606D01*
X140517070Y-143534720D01*
X140503445Y-143531524D01*
X140348568Y-143513057D01*
X140334571Y-143512959D01*
X140179457Y-143529262D01*
X140165783Y-143532268D01*
X140018134Y-143582532D01*
X140016363Y-143583366D01*
X140010110Y-143590302D01*
X139499766Y-143590302D01*
X139500357Y-143589220D01*
X139497772Y-143585766D01*
X139497472Y-143585606D01*
X139354570Y-143534720D01*
X139340945Y-143531524D01*
X139186068Y-143513057D01*
X139172071Y-143512959D01*
X139016957Y-143529262D01*
X139003283Y-143532268D01*
X138855634Y-143582532D01*
X138853863Y-143583366D01*
X138847610Y-143590302D01*
X138337266Y-143590302D01*
X138337857Y-143589220D01*
X138335272Y-143585766D01*
X138334972Y-143585606D01*
X138192070Y-143534720D01*
X138178445Y-143531524D01*
X138023568Y-143513057D01*
X138009571Y-143512959D01*
X137854457Y-143529262D01*
X137840783Y-143532268D01*
X137693134Y-143582532D01*
X137691363Y-143583366D01*
X137685110Y-143590302D01*
X132061250Y-143590302D01*
X132061250Y-142118089D01*
X139618409Y-142118089D01*
X139638371Y-142308017D01*
X139697386Y-142489645D01*
X139792873Y-142655033D01*
X139920660Y-142796955D01*
X140075161Y-142909207D01*
X140081189Y-142911891D01*
X140081191Y-142911892D01*
X140205243Y-142967123D01*
X140249625Y-142986883D01*
X140341097Y-143006326D01*
X140429969Y-143025217D01*
X140429974Y-143025217D01*
X140436426Y-143026589D01*
X140627400Y-143026589D01*
X140633852Y-143025217D01*
X140633857Y-143025217D01*
X140722729Y-143006326D01*
X140814201Y-142986883D01*
X140858583Y-142967123D01*
X140982635Y-142911892D01*
X140982637Y-142911891D01*
X140988665Y-142909207D01*
X141143166Y-142796955D01*
X141270953Y-142655033D01*
X141310895Y-142585851D01*
X144841719Y-142585851D01*
X144858268Y-142782934D01*
X144912783Y-142973050D01*
X145003187Y-143148956D01*
X145126035Y-143303953D01*
X145130728Y-143307947D01*
X145130729Y-143307948D01*
X145168762Y-143340316D01*
X145276650Y-143432136D01*
X145449294Y-143528624D01*
X145637392Y-143589740D01*
X145833777Y-143613158D01*
X145839912Y-143612686D01*
X145839914Y-143612686D01*
X146024830Y-143598457D01*
X146024834Y-143598456D01*
X146030972Y-143597984D01*
X146221463Y-143544798D01*
X146226967Y-143542018D01*
X146226969Y-143542017D01*
X146392495Y-143458404D01*
X146392497Y-143458403D01*
X146397996Y-143455625D01*
X146553847Y-143333861D01*
X146683078Y-143184145D01*
X146780769Y-143012179D01*
X146843197Y-142824513D01*
X146867985Y-142628295D01*
X146868380Y-142600000D01*
X146849080Y-142403167D01*
X146791916Y-142213831D01*
X146789023Y-142208391D01*
X146786674Y-142202690D01*
X146789206Y-142201646D01*
X146777278Y-142143665D01*
X146802839Y-142077430D01*
X146807454Y-142071756D01*
X146883078Y-141984145D01*
X146980769Y-141812179D01*
X147043197Y-141624513D01*
X147067985Y-141428295D01*
X147068263Y-141408408D01*
X147068331Y-141403523D01*
X147068331Y-141403520D01*
X147068380Y-141400000D01*
X147049080Y-141203167D01*
X147040250Y-141173919D01*
X146993697Y-141019731D01*
X146991916Y-141013831D01*
X146899066Y-140839204D01*
X146811727Y-140732116D01*
X146777960Y-140690713D01*
X146777957Y-140690710D01*
X146774065Y-140685938D01*
X146767724Y-140680692D01*
X146626425Y-140563799D01*
X146626421Y-140563797D01*
X146621675Y-140559870D01*
X146447701Y-140465802D01*
X146258768Y-140407318D01*
X146252643Y-140406674D01*
X146252642Y-140406674D01*
X146068204Y-140387289D01*
X146068202Y-140387289D01*
X146062075Y-140386645D01*
X145979576Y-140394153D01*
X145871251Y-140404011D01*
X145871248Y-140404012D01*
X145865112Y-140404570D01*
X145859206Y-140406308D01*
X145859202Y-140406309D01*
X145754076Y-140437249D01*
X145675381Y-140460410D01*
X145669923Y-140463263D01*
X145669919Y-140463265D01*
X145579147Y-140510720D01*
X145500110Y-140552040D01*
X145345975Y-140675968D01*
X145218846Y-140827474D01*
X145215879Y-140832872D01*
X145215875Y-140832877D01*
X145172483Y-140911808D01*
X145123567Y-141000787D01*
X145121706Y-141006654D01*
X145121705Y-141006656D01*
X145072631Y-141161358D01*
X145063765Y-141189306D01*
X145041719Y-141385851D01*
X145042235Y-141391995D01*
X145057706Y-141576237D01*
X145058268Y-141582934D01*
X145059967Y-141588858D01*
X145106982Y-141752818D01*
X145112783Y-141773050D01*
X145115601Y-141778533D01*
X145119926Y-141786948D01*
X145133275Y-141856679D01*
X145104384Y-141925535D01*
X145018846Y-142027474D01*
X145015879Y-142032872D01*
X145015875Y-142032877D01*
X144959009Y-142136318D01*
X144923567Y-142200787D01*
X144921706Y-142206654D01*
X144921705Y-142206656D01*
X144891633Y-142301454D01*
X144863765Y-142389306D01*
X144841719Y-142585851D01*
X141310895Y-142585851D01*
X141366440Y-142489645D01*
X141425455Y-142308017D01*
X141445417Y-142118089D01*
X141425455Y-141928161D01*
X141366440Y-141746533D01*
X141270953Y-141581145D01*
X141143166Y-141439223D01*
X141030284Y-141357209D01*
X140994007Y-141330852D01*
X140994006Y-141330851D01*
X140988665Y-141326971D01*
X140982637Y-141324287D01*
X140982635Y-141324286D01*
X140820232Y-141251980D01*
X140820231Y-141251980D01*
X140814201Y-141249295D01*
X140720801Y-141229442D01*
X140633857Y-141210961D01*
X140633852Y-141210961D01*
X140627400Y-141209589D01*
X140436426Y-141209589D01*
X140429974Y-141210961D01*
X140429969Y-141210961D01*
X140343025Y-141229442D01*
X140249625Y-141249295D01*
X140243595Y-141251980D01*
X140243594Y-141251980D01*
X140081191Y-141324286D01*
X140081189Y-141324287D01*
X140075161Y-141326971D01*
X140069820Y-141330851D01*
X140069819Y-141330852D01*
X140033542Y-141357209D01*
X139920660Y-141439223D01*
X139792873Y-141581145D01*
X139697386Y-141746533D01*
X139638371Y-141928161D01*
X139618409Y-142118089D01*
X132061250Y-142118089D01*
X132061250Y-141534500D01*
X132081252Y-141466379D01*
X132134908Y-141419886D01*
X132187250Y-141408500D01*
X133908134Y-141408500D01*
X133970316Y-141401745D01*
X134106705Y-141350615D01*
X134223261Y-141263261D01*
X134310615Y-141146705D01*
X134335180Y-141081178D01*
X134377822Y-141024414D01*
X134444383Y-140999714D01*
X134513732Y-141014921D01*
X134533647Y-141028464D01*
X134598724Y-141082492D01*
X134689349Y-141157730D01*
X134889322Y-141274584D01*
X134894147Y-141276426D01*
X134894148Y-141276427D01*
X134934152Y-141291703D01*
X135105694Y-141357209D01*
X135110760Y-141358240D01*
X135110761Y-141358240D01*
X135163846Y-141369040D01*
X135332656Y-141403385D01*
X135462089Y-141408131D01*
X135558949Y-141411683D01*
X135558953Y-141411683D01*
X135564113Y-141411872D01*
X135569233Y-141411216D01*
X135569235Y-141411216D01*
X135656787Y-141400000D01*
X135793847Y-141382442D01*
X135798795Y-141380957D01*
X135798802Y-141380956D01*
X136010747Y-141317369D01*
X136015690Y-141315886D01*
X136096236Y-141276427D01*
X136219049Y-141216262D01*
X136219052Y-141216260D01*
X136223684Y-141213991D01*
X136412243Y-141079494D01*
X136576303Y-140916005D01*
X136711458Y-140727917D01*
X136729846Y-140690713D01*
X136811784Y-140524922D01*
X136811785Y-140524920D01*
X136814078Y-140520280D01*
X136881408Y-140298671D01*
X136911640Y-140069041D01*
X136913327Y-140000000D01*
X136900960Y-139849580D01*
X136897859Y-139811863D01*
X159138050Y-139811863D01*
X159150309Y-140024477D01*
X159151745Y-140034697D01*
X159198565Y-140242446D01*
X159201645Y-140252275D01*
X159281770Y-140449603D01*
X159286413Y-140458794D01*
X159366460Y-140589420D01*
X159376916Y-140598880D01*
X159385694Y-140595096D01*
X160127978Y-139852812D01*
X160135592Y-139838868D01*
X160135461Y-139837035D01*
X160131210Y-139830420D01*
X159389849Y-139089059D01*
X159378313Y-139082759D01*
X159366031Y-139092382D01*
X159318089Y-139162662D01*
X159313004Y-139171613D01*
X159223338Y-139364783D01*
X159219775Y-139374470D01*
X159162864Y-139579681D01*
X159160933Y-139589800D01*
X159138302Y-139801574D01*
X159138050Y-139811863D01*
X136897859Y-139811863D01*
X136894773Y-139774318D01*
X136894772Y-139774312D01*
X136894349Y-139769167D01*
X136849295Y-139589800D01*
X136839184Y-139549544D01*
X136839183Y-139549540D01*
X136837925Y-139544533D01*
X136807892Y-139475461D01*
X136747630Y-139336868D01*
X136747628Y-139336865D01*
X136745570Y-139332131D01*
X136619764Y-139137665D01*
X136577482Y-139091197D01*
X136488481Y-138993387D01*
X136463887Y-138966358D01*
X136459836Y-138963159D01*
X136459832Y-138963155D01*
X136286177Y-138826011D01*
X136286172Y-138826008D01*
X136282123Y-138822810D01*
X136277607Y-138820317D01*
X136277604Y-138820315D01*
X136083879Y-138713373D01*
X136083875Y-138713371D01*
X136079355Y-138710876D01*
X136074486Y-138709152D01*
X136074482Y-138709150D01*
X135865903Y-138635288D01*
X135865899Y-138635287D01*
X135861028Y-138633562D01*
X135855935Y-138632655D01*
X135855932Y-138632654D01*
X135638095Y-138593851D01*
X135638089Y-138593850D01*
X135633006Y-138592945D01*
X135560096Y-138592054D01*
X135406581Y-138590179D01*
X135406579Y-138590179D01*
X135401411Y-138590116D01*
X135172464Y-138625150D01*
X134952314Y-138697106D01*
X134947726Y-138699494D01*
X134947722Y-138699496D01*
X134851331Y-138749674D01*
X134746872Y-138804052D01*
X134742739Y-138807155D01*
X134742736Y-138807157D01*
X134670085Y-138861705D01*
X134561655Y-138943117D01*
X134544170Y-138961414D01*
X134482646Y-138996844D01*
X134411733Y-138993387D01*
X134353947Y-138952141D01*
X134335094Y-138918592D01*
X134313768Y-138861705D01*
X134313767Y-138861704D01*
X134310615Y-138853295D01*
X134223261Y-138736739D01*
X134106705Y-138649385D01*
X133970316Y-138598255D01*
X133908134Y-138591500D01*
X132011866Y-138591500D01*
X131949684Y-138598255D01*
X131813295Y-138649385D01*
X131806110Y-138654770D01*
X131806108Y-138654771D01*
X131712634Y-138724826D01*
X131646127Y-138749674D01*
X131637069Y-138750000D01*
X126234500Y-138750000D01*
X126166379Y-138729998D01*
X126119886Y-138676342D01*
X126108500Y-138624000D01*
X126108500Y-137585851D01*
X141722969Y-137585851D01*
X141723485Y-137591995D01*
X141733196Y-137707639D01*
X141739518Y-137782934D01*
X141744931Y-137801811D01*
X141775905Y-137909829D01*
X141794033Y-137973050D01*
X141884437Y-138148956D01*
X142007285Y-138303953D01*
X142011978Y-138307947D01*
X142011979Y-138307948D01*
X142142750Y-138419242D01*
X142157900Y-138432136D01*
X142330544Y-138528624D01*
X142518642Y-138589740D01*
X142715027Y-138613158D01*
X142721162Y-138612686D01*
X142721164Y-138612686D01*
X142906080Y-138598457D01*
X142906084Y-138598456D01*
X142912222Y-138597984D01*
X143102713Y-138544798D01*
X143108217Y-138542018D01*
X143108219Y-138542017D01*
X143273745Y-138458404D01*
X143273747Y-138458403D01*
X143279246Y-138455625D01*
X143435097Y-138333861D01*
X143564328Y-138184145D01*
X143662019Y-138012179D01*
X143724447Y-137824513D01*
X143749235Y-137628295D01*
X143749630Y-137600000D01*
X143730330Y-137403167D01*
X143673166Y-137213831D01*
X143580316Y-137039204D01*
X143509959Y-136952938D01*
X143459210Y-136890713D01*
X143459207Y-136890710D01*
X143455315Y-136885938D01*
X143448974Y-136880692D01*
X143307675Y-136763799D01*
X143307671Y-136763797D01*
X143302925Y-136759870D01*
X143128951Y-136665802D01*
X142940018Y-136607318D01*
X142933893Y-136606674D01*
X142933892Y-136606674D01*
X142749454Y-136587289D01*
X142749452Y-136587289D01*
X142743325Y-136586645D01*
X142660826Y-136594153D01*
X142552501Y-136604011D01*
X142552498Y-136604012D01*
X142546362Y-136604570D01*
X142540456Y-136606308D01*
X142540452Y-136606309D01*
X142471237Y-136626680D01*
X142356631Y-136660410D01*
X142351173Y-136663263D01*
X142351169Y-136663265D01*
X142260397Y-136710720D01*
X142181360Y-136752040D01*
X142027225Y-136875968D01*
X141900096Y-137027474D01*
X141897129Y-137032872D01*
X141897125Y-137032877D01*
X141855502Y-137108591D01*
X141804817Y-137200787D01*
X141802956Y-137206654D01*
X141802955Y-137206656D01*
X141752221Y-137366590D01*
X141745015Y-137389306D01*
X141722969Y-137585851D01*
X126108500Y-137585851D01*
X126108500Y-131066082D01*
X127012172Y-131066082D01*
X127012469Y-131071234D01*
X127012469Y-131071238D01*
X127019536Y-131193803D01*
X127025268Y-131293206D01*
X127026405Y-131298252D01*
X127026406Y-131298258D01*
X127053645Y-131419127D01*
X127075283Y-131515141D01*
X127160875Y-131725927D01*
X127279744Y-131919904D01*
X127428698Y-132091861D01*
X127603737Y-132237181D01*
X127608189Y-132239783D01*
X127608194Y-132239786D01*
X127702199Y-132294718D01*
X127800160Y-132351962D01*
X128012693Y-132433120D01*
X128017759Y-132434151D01*
X128017760Y-132434151D01*
X128116861Y-132454313D01*
X128235627Y-132478476D01*
X128363437Y-132483163D01*
X128457811Y-132486624D01*
X128457815Y-132486624D01*
X128462975Y-132486813D01*
X128468095Y-132486157D01*
X128468097Y-132486157D01*
X128683504Y-132458563D01*
X128683505Y-132458563D01*
X128688632Y-132457906D01*
X128771248Y-132433120D01*
X128901591Y-132394015D01*
X128901592Y-132394014D01*
X128906537Y-132392531D01*
X129110839Y-132292444D01*
X129129612Y-132279053D01*
X129196683Y-132255780D01*
X129265692Y-132272462D01*
X129314727Y-132323805D01*
X129328392Y-132371746D01*
X129337448Y-132486813D01*
X129345928Y-132594557D01*
X129403195Y-132833092D01*
X129497073Y-133059732D01*
X129625248Y-133268896D01*
X129784567Y-133455433D01*
X129788323Y-133458641D01*
X129965086Y-133609612D01*
X129971104Y-133614752D01*
X129975327Y-133617340D01*
X129975330Y-133617342D01*
X130044515Y-133659738D01*
X130180268Y-133742927D01*
X130324967Y-133802864D01*
X130402335Y-133834911D01*
X130402337Y-133834912D01*
X130406908Y-133836805D01*
X130489563Y-133856649D01*
X130640630Y-133892917D01*
X130640636Y-133892918D01*
X130645443Y-133894072D01*
X130890000Y-133913319D01*
X131134557Y-133894072D01*
X131139364Y-133892918D01*
X131139370Y-133892917D01*
X131290437Y-133856649D01*
X131373092Y-133836805D01*
X131377663Y-133834912D01*
X131377665Y-133834911D01*
X131455033Y-133802864D01*
X131599732Y-133742927D01*
X131735485Y-133659738D01*
X131804670Y-133617342D01*
X131804673Y-133617340D01*
X131808896Y-133614752D01*
X131814915Y-133609612D01*
X131991677Y-133458641D01*
X131995433Y-133455433D01*
X132154752Y-133268896D01*
X132282927Y-133059732D01*
X132376805Y-132833092D01*
X132434072Y-132594557D01*
X132453319Y-132350000D01*
X132434072Y-132105443D01*
X132431605Y-132095164D01*
X132377960Y-131871720D01*
X132376805Y-131866908D01*
X132282927Y-131640268D01*
X132154752Y-131431104D01*
X132050038Y-131308500D01*
X131998641Y-131248323D01*
X131995433Y-131244567D01*
X131991677Y-131241359D01*
X131812663Y-131088465D01*
X131812660Y-131088463D01*
X131808896Y-131085248D01*
X131804673Y-131082660D01*
X131804670Y-131082658D01*
X131730328Y-131037102D01*
X131599732Y-130957073D01*
X131455033Y-130897136D01*
X131377665Y-130865089D01*
X131377663Y-130865088D01*
X131373092Y-130863195D01*
X131255172Y-130834885D01*
X131139370Y-130807083D01*
X131139364Y-130807082D01*
X131134557Y-130805928D01*
X130890000Y-130786681D01*
X130645443Y-130805928D01*
X130640636Y-130807082D01*
X130640630Y-130807083D01*
X130524828Y-130834885D01*
X130406908Y-130863195D01*
X130402337Y-130865088D01*
X130402335Y-130865089D01*
X130324967Y-130897136D01*
X130180268Y-130957073D01*
X129971104Y-131085248D01*
X129969925Y-131083324D01*
X129911899Y-131104052D01*
X129842741Y-131087998D01*
X129793242Y-131037102D01*
X129779082Y-130988584D01*
X129770025Y-130878425D01*
X129769601Y-130873264D01*
X129714178Y-130652617D01*
X129623462Y-130443985D01*
X129595007Y-130400000D01*
X144586496Y-130400000D01*
X144606458Y-130589928D01*
X144665473Y-130771556D01*
X144668776Y-130777278D01*
X144668777Y-130777279D01*
X144702036Y-130834885D01*
X144760960Y-130936944D01*
X144765378Y-130941851D01*
X144765379Y-130941852D01*
X144872615Y-131060950D01*
X144888747Y-131078866D01*
X145043248Y-131191118D01*
X145049276Y-131193802D01*
X145049278Y-131193803D01*
X145163297Y-131244567D01*
X145217712Y-131268794D01*
X145308243Y-131288037D01*
X145398056Y-131307128D01*
X145398061Y-131307128D01*
X145404513Y-131308500D01*
X145595487Y-131308500D01*
X145601939Y-131307128D01*
X145601944Y-131307128D01*
X145691757Y-131288037D01*
X145782288Y-131268794D01*
X145836703Y-131244567D01*
X145950722Y-131193803D01*
X145950724Y-131193802D01*
X145956752Y-131191118D01*
X146111253Y-131078866D01*
X146127385Y-131060950D01*
X146234621Y-130941852D01*
X146234622Y-130941851D01*
X146239040Y-130936944D01*
X146297964Y-130834885D01*
X146331223Y-130777279D01*
X146331224Y-130777278D01*
X146334527Y-130771556D01*
X146393542Y-130589928D01*
X146413504Y-130400000D01*
X146393542Y-130210072D01*
X146334527Y-130028444D01*
X146239040Y-129863056D01*
X146111253Y-129721134D01*
X145956752Y-129608882D01*
X145950724Y-129606198D01*
X145950722Y-129606197D01*
X145788319Y-129533891D01*
X145788318Y-129533891D01*
X145782288Y-129531206D01*
X145688887Y-129511353D01*
X145601944Y-129492872D01*
X145601939Y-129492872D01*
X145595487Y-129491500D01*
X145404513Y-129491500D01*
X145398061Y-129492872D01*
X145398056Y-129492872D01*
X145311113Y-129511353D01*
X145217712Y-129531206D01*
X145211682Y-129533891D01*
X145211681Y-129533891D01*
X145049278Y-129606197D01*
X145049276Y-129606198D01*
X145043248Y-129608882D01*
X144888747Y-129721134D01*
X144760960Y-129863056D01*
X144665473Y-130028444D01*
X144606458Y-130210072D01*
X144586496Y-130400000D01*
X129595007Y-130400000D01*
X129499890Y-130252971D01*
X129346779Y-130084704D01*
X129168241Y-129943704D01*
X129130537Y-129922890D01*
X129013256Y-129858148D01*
X128969072Y-129833757D01*
X128964203Y-129832033D01*
X128964199Y-129832031D01*
X128759496Y-129759541D01*
X128759492Y-129759540D01*
X128754621Y-129757815D01*
X128749528Y-129756908D01*
X128749525Y-129756907D01*
X128535734Y-129718825D01*
X128535728Y-129718824D01*
X128530645Y-129717919D01*
X128457196Y-129717022D01*
X128308331Y-129715203D01*
X128308329Y-129715203D01*
X128303161Y-129715140D01*
X128078278Y-129749552D01*
X127862035Y-129820231D01*
X127857447Y-129822619D01*
X127857443Y-129822621D01*
X127768784Y-129868774D01*
X127660239Y-129925279D01*
X127656106Y-129928382D01*
X127656103Y-129928384D01*
X127514465Y-130034729D01*
X127478310Y-130061875D01*
X127474738Y-130065613D01*
X127336690Y-130210072D01*
X127321133Y-130226351D01*
X127192931Y-130414289D01*
X127190758Y-130418971D01*
X127190756Y-130418974D01*
X127114449Y-130583365D01*
X127097145Y-130620643D01*
X127036348Y-130839869D01*
X127035799Y-130845006D01*
X127023546Y-130959659D01*
X127012172Y-131066082D01*
X126108500Y-131066082D01*
X126108500Y-128500000D01*
X141486496Y-128500000D01*
X141506458Y-128689928D01*
X141565473Y-128871556D01*
X141660960Y-129036944D01*
X141788747Y-129178866D01*
X141943248Y-129291118D01*
X141949276Y-129293802D01*
X141949278Y-129293803D01*
X142111681Y-129366109D01*
X142117712Y-129368794D01*
X142211113Y-129388647D01*
X142298056Y-129407128D01*
X142298061Y-129407128D01*
X142304513Y-129408500D01*
X142495487Y-129408500D01*
X142501939Y-129407128D01*
X142501944Y-129407128D01*
X142588887Y-129388647D01*
X142682288Y-129368794D01*
X142688319Y-129366109D01*
X142850722Y-129293803D01*
X142850724Y-129293802D01*
X142856752Y-129291118D01*
X143011253Y-129178866D01*
X143139040Y-129036944D01*
X143234527Y-128871556D01*
X143293542Y-128689928D01*
X143313504Y-128500000D01*
X149686496Y-128500000D01*
X149706458Y-128689928D01*
X149765473Y-128871556D01*
X149860960Y-129036944D01*
X149988747Y-129178866D01*
X150143248Y-129291118D01*
X150149276Y-129293802D01*
X150149278Y-129293803D01*
X150311681Y-129366109D01*
X150317712Y-129368794D01*
X150411113Y-129388647D01*
X150498056Y-129407128D01*
X150498061Y-129407128D01*
X150504513Y-129408500D01*
X150695487Y-129408500D01*
X150701939Y-129407128D01*
X150701944Y-129407128D01*
X150788887Y-129388647D01*
X150882288Y-129368794D01*
X150888319Y-129366109D01*
X151050722Y-129293803D01*
X151050724Y-129293802D01*
X151056752Y-129291118D01*
X151211253Y-129178866D01*
X151339040Y-129036944D01*
X151434527Y-128871556D01*
X151493542Y-128689928D01*
X151513504Y-128500000D01*
X151493542Y-128310072D01*
X151434527Y-128128444D01*
X151339040Y-127963056D01*
X151334553Y-127958072D01*
X151215675Y-127826045D01*
X151215674Y-127826044D01*
X151211253Y-127821134D01*
X151086851Y-127730750D01*
X151062094Y-127712763D01*
X151062093Y-127712762D01*
X151056752Y-127708882D01*
X151050724Y-127706198D01*
X151050722Y-127706197D01*
X150888319Y-127633891D01*
X150888318Y-127633891D01*
X150882288Y-127631206D01*
X150788888Y-127611353D01*
X150701944Y-127592872D01*
X150701939Y-127592872D01*
X150695487Y-127591500D01*
X150504513Y-127591500D01*
X150498061Y-127592872D01*
X150498056Y-127592872D01*
X150411112Y-127611353D01*
X150317712Y-127631206D01*
X150311682Y-127633891D01*
X150311681Y-127633891D01*
X150149278Y-127706197D01*
X150149276Y-127706198D01*
X150143248Y-127708882D01*
X150137907Y-127712762D01*
X150137906Y-127712763D01*
X150113149Y-127730750D01*
X149988747Y-127821134D01*
X149984326Y-127826044D01*
X149984325Y-127826045D01*
X149865448Y-127958072D01*
X149860960Y-127963056D01*
X149765473Y-128128444D01*
X149706458Y-128310072D01*
X149686496Y-128500000D01*
X143313504Y-128500000D01*
X143293542Y-128310072D01*
X143234527Y-128128444D01*
X143139040Y-127963056D01*
X143134553Y-127958072D01*
X143015675Y-127826045D01*
X143015674Y-127826044D01*
X143011253Y-127821134D01*
X142886851Y-127730750D01*
X142862094Y-127712763D01*
X142862093Y-127712762D01*
X142856752Y-127708882D01*
X142850724Y-127706198D01*
X142850722Y-127706197D01*
X142688319Y-127633891D01*
X142688318Y-127633891D01*
X142682288Y-127631206D01*
X142588888Y-127611353D01*
X142501944Y-127592872D01*
X142501939Y-127592872D01*
X142495487Y-127591500D01*
X142304513Y-127591500D01*
X142298061Y-127592872D01*
X142298056Y-127592872D01*
X142211112Y-127611353D01*
X142117712Y-127631206D01*
X142111682Y-127633891D01*
X142111681Y-127633891D01*
X141949278Y-127706197D01*
X141949276Y-127706198D01*
X141943248Y-127708882D01*
X141937907Y-127712762D01*
X141937906Y-127712763D01*
X141913149Y-127730750D01*
X141788747Y-127821134D01*
X141784326Y-127826044D01*
X141784325Y-127826045D01*
X141665448Y-127958072D01*
X141660960Y-127963056D01*
X141565473Y-128128444D01*
X141506458Y-128310072D01*
X141486496Y-128500000D01*
X126108500Y-128500000D01*
X126108500Y-127743130D01*
X127621700Y-127743130D01*
X127626981Y-127750184D01*
X127795919Y-127848904D01*
X127805202Y-127853351D01*
X128008002Y-127930793D01*
X128017900Y-127933669D01*
X128230625Y-127976948D01*
X128240853Y-127978167D01*
X128457788Y-127986122D01*
X128468074Y-127985655D01*
X128683400Y-127958072D01*
X128693477Y-127955930D01*
X128901401Y-127893549D01*
X128910999Y-127889788D01*
X129105947Y-127794284D01*
X129114785Y-127789015D01*
X129167172Y-127751648D01*
X129175572Y-127740948D01*
X129168585Y-127727795D01*
X128412812Y-126972022D01*
X128398868Y-126964408D01*
X128397035Y-126964539D01*
X128390420Y-126968790D01*
X127628460Y-127730750D01*
X127621700Y-127743130D01*
X126108500Y-127743130D01*
X126108500Y-126571250D01*
X127012971Y-126571250D01*
X127025467Y-126787967D01*
X127026903Y-126798188D01*
X127074627Y-127009948D01*
X127077706Y-127019777D01*
X127159379Y-127220914D01*
X127164022Y-127230105D01*
X127248279Y-127367601D01*
X127258735Y-127377061D01*
X127267513Y-127373277D01*
X128027978Y-126612812D01*
X128035592Y-126598868D01*
X128035461Y-126597035D01*
X128031210Y-126590420D01*
X127271858Y-125831068D01*
X127260322Y-125824768D01*
X127248039Y-125834391D01*
X127196279Y-125910268D01*
X127191191Y-125919224D01*
X127099795Y-126116121D01*
X127096232Y-126125808D01*
X127038223Y-126334979D01*
X127036292Y-126345100D01*
X127013222Y-126560962D01*
X127012971Y-126571250D01*
X126108500Y-126571250D01*
X126108500Y-125458569D01*
X127623365Y-125458569D01*
X127630111Y-125470901D01*
X129528388Y-127369178D01*
X129540398Y-127375736D01*
X129552138Y-127366768D01*
X129586507Y-127318940D01*
X129591816Y-127310103D01*
X129687994Y-127115503D01*
X129691792Y-127105910D01*
X129754897Y-126898208D01*
X129757074Y-126888138D01*
X129782250Y-126696905D01*
X129810972Y-126631978D01*
X129870237Y-126592886D01*
X129941229Y-126592041D01*
X129973006Y-126605918D01*
X130121485Y-126696905D01*
X130180268Y-126732927D01*
X130313145Y-126787967D01*
X130402335Y-126824911D01*
X130402337Y-126824912D01*
X130406908Y-126826805D01*
X130489563Y-126846649D01*
X130640630Y-126882917D01*
X130640636Y-126882918D01*
X130645443Y-126884072D01*
X130890000Y-126903319D01*
X131134557Y-126884072D01*
X131139364Y-126882918D01*
X131139370Y-126882917D01*
X131290437Y-126846649D01*
X131373092Y-126826805D01*
X131377663Y-126824912D01*
X131377665Y-126824911D01*
X131466855Y-126787967D01*
X131599732Y-126732927D01*
X131764467Y-126631978D01*
X131804670Y-126607342D01*
X131804673Y-126607340D01*
X131808896Y-126604752D01*
X131815786Y-126598868D01*
X131991677Y-126448641D01*
X131995433Y-126445433D01*
X132081126Y-126345100D01*
X132151535Y-126262663D01*
X132151537Y-126262660D01*
X132154752Y-126258896D01*
X132190843Y-126200000D01*
X137586496Y-126200000D01*
X137606458Y-126389928D01*
X137665473Y-126571556D01*
X137760960Y-126736944D01*
X137888747Y-126878866D01*
X138043248Y-126991118D01*
X138049276Y-126993802D01*
X138049278Y-126993803D01*
X138085541Y-127009948D01*
X138217712Y-127068794D01*
X138311112Y-127088647D01*
X138398056Y-127107128D01*
X138398061Y-127107128D01*
X138404513Y-127108500D01*
X138595487Y-127108500D01*
X138601939Y-127107128D01*
X138601944Y-127107128D01*
X138688888Y-127088647D01*
X138782288Y-127068794D01*
X138914459Y-127009948D01*
X138950722Y-126993803D01*
X138950724Y-126993802D01*
X138956752Y-126991118D01*
X139111253Y-126878866D01*
X139239040Y-126736944D01*
X139334527Y-126571556D01*
X139393542Y-126389928D01*
X139413504Y-126200000D01*
X139398154Y-126053951D01*
X139394232Y-126016635D01*
X139394232Y-126016633D01*
X139393542Y-126010072D01*
X139335900Y-125832670D01*
X159632160Y-125832670D01*
X159637887Y-125840320D01*
X159809042Y-125945205D01*
X159817837Y-125949687D01*
X160027988Y-126036734D01*
X160037373Y-126039783D01*
X160258554Y-126092885D01*
X160268301Y-126094428D01*
X160495070Y-126112275D01*
X160504930Y-126112275D01*
X160731699Y-126094428D01*
X160741446Y-126092885D01*
X160962627Y-126039783D01*
X160972012Y-126036734D01*
X161182163Y-125949687D01*
X161190958Y-125945205D01*
X161358445Y-125842568D01*
X161367907Y-125832110D01*
X161364124Y-125823334D01*
X160512812Y-124972022D01*
X160498868Y-124964408D01*
X160497035Y-124964539D01*
X160490420Y-124968790D01*
X159638920Y-125820290D01*
X159632160Y-125832670D01*
X139335900Y-125832670D01*
X139334527Y-125828444D01*
X139239040Y-125663056D01*
X139111253Y-125521134D01*
X138956752Y-125408882D01*
X138950724Y-125406198D01*
X138950722Y-125406197D01*
X138788319Y-125333891D01*
X138788318Y-125333891D01*
X138782288Y-125331206D01*
X138688888Y-125311353D01*
X138601944Y-125292872D01*
X138601939Y-125292872D01*
X138595487Y-125291500D01*
X138404513Y-125291500D01*
X138398061Y-125292872D01*
X138398056Y-125292872D01*
X138311112Y-125311353D01*
X138217712Y-125331206D01*
X138211682Y-125333891D01*
X138211681Y-125333891D01*
X138049278Y-125406197D01*
X138049276Y-125406198D01*
X138043248Y-125408882D01*
X137888747Y-125521134D01*
X137760960Y-125663056D01*
X137665473Y-125828444D01*
X137606458Y-126010072D01*
X137605768Y-126016633D01*
X137605768Y-126016635D01*
X137601846Y-126053951D01*
X137586496Y-126200000D01*
X132190843Y-126200000D01*
X132282927Y-126049732D01*
X132376805Y-125823092D01*
X132396649Y-125740437D01*
X132432917Y-125589370D01*
X132432918Y-125589364D01*
X132434072Y-125584557D01*
X132453319Y-125340000D01*
X132434072Y-125095443D01*
X132376805Y-124856908D01*
X132370401Y-124841446D01*
X132284820Y-124634839D01*
X132282927Y-124630268D01*
X132267400Y-124604930D01*
X158987725Y-124604930D01*
X159005572Y-124831699D01*
X159007115Y-124841446D01*
X159060217Y-125062627D01*
X159063266Y-125072012D01*
X159150313Y-125282163D01*
X159154795Y-125290958D01*
X159257432Y-125458445D01*
X159267890Y-125467907D01*
X159276666Y-125464124D01*
X160127978Y-124612812D01*
X160135592Y-124598868D01*
X160135461Y-124597035D01*
X160131210Y-124590420D01*
X159279710Y-123738920D01*
X159267330Y-123732160D01*
X159259680Y-123737887D01*
X159154795Y-123909042D01*
X159150313Y-123917837D01*
X159063266Y-124127988D01*
X159060217Y-124137373D01*
X159007115Y-124358554D01*
X159005572Y-124368301D01*
X158987725Y-124595070D01*
X158987725Y-124604930D01*
X132267400Y-124604930D01*
X132154752Y-124421104D01*
X131995433Y-124234567D01*
X131991677Y-124231359D01*
X131812663Y-124078465D01*
X131812660Y-124078463D01*
X131808896Y-124075248D01*
X131804673Y-124072660D01*
X131804670Y-124072658D01*
X131735485Y-124030262D01*
X131599732Y-123947073D01*
X131409271Y-123868181D01*
X131377665Y-123855089D01*
X131377663Y-123855088D01*
X131373092Y-123853195D01*
X131290437Y-123833351D01*
X131139370Y-123797083D01*
X131139364Y-123797082D01*
X131134557Y-123795928D01*
X130890000Y-123776681D01*
X130645443Y-123795928D01*
X130640636Y-123797082D01*
X130640630Y-123797083D01*
X130489563Y-123833351D01*
X130406908Y-123853195D01*
X130402337Y-123855088D01*
X130402335Y-123855089D01*
X130370729Y-123868181D01*
X130180268Y-123947073D01*
X130044515Y-124030262D01*
X129975330Y-124072658D01*
X129975327Y-124072660D01*
X129971104Y-124075248D01*
X129967340Y-124078463D01*
X129967337Y-124078465D01*
X129788323Y-124231359D01*
X129784567Y-124234567D01*
X129625248Y-124421104D01*
X129497073Y-124630268D01*
X129495180Y-124634839D01*
X129409600Y-124841446D01*
X129403195Y-124856908D01*
X129345928Y-125095443D01*
X129336407Y-125216423D01*
X129327559Y-125328844D01*
X129302274Y-125395185D01*
X129245135Y-125437325D01*
X129174285Y-125441884D01*
X129141053Y-125429266D01*
X128973398Y-125336715D01*
X128963989Y-125332487D01*
X128759364Y-125260026D01*
X128749401Y-125257394D01*
X128535687Y-125219326D01*
X128525434Y-125218356D01*
X128308366Y-125215703D01*
X128298082Y-125216423D01*
X128083507Y-125249258D01*
X128073479Y-125251647D01*
X127867147Y-125319087D01*
X127857637Y-125323084D01*
X127665095Y-125423315D01*
X127656370Y-125428809D01*
X127631819Y-125447243D01*
X127623365Y-125458569D01*
X126108500Y-125458569D01*
X126108500Y-123367890D01*
X159632093Y-123367890D01*
X159635876Y-123376666D01*
X160487188Y-124227978D01*
X160501132Y-124235592D01*
X160502965Y-124235461D01*
X160509580Y-124231210D01*
X161361080Y-123379710D01*
X161367840Y-123367330D01*
X161362113Y-123359680D01*
X161190958Y-123254795D01*
X161182163Y-123250313D01*
X160972012Y-123163266D01*
X160962627Y-123160217D01*
X160741446Y-123107115D01*
X160731699Y-123105572D01*
X160504930Y-123087725D01*
X160495070Y-123087725D01*
X160268301Y-123105572D01*
X160258554Y-123107115D01*
X160037373Y-123160217D01*
X160027988Y-123163266D01*
X159817837Y-123250313D01*
X159809042Y-123254795D01*
X159641555Y-123357432D01*
X159632093Y-123367890D01*
X126108500Y-123367890D01*
X126108500Y-120385851D01*
X142986719Y-120385851D01*
X143003268Y-120582934D01*
X143057783Y-120773050D01*
X143148187Y-120948956D01*
X143271035Y-121103953D01*
X143421650Y-121232136D01*
X143594294Y-121328624D01*
X143782392Y-121389740D01*
X143978777Y-121413158D01*
X143984912Y-121412686D01*
X143984914Y-121412686D01*
X144169830Y-121398457D01*
X144169834Y-121398456D01*
X144175972Y-121397984D01*
X144366463Y-121344798D01*
X144371967Y-121342018D01*
X144371969Y-121342017D01*
X144537495Y-121258404D01*
X144537497Y-121258403D01*
X144542996Y-121255625D01*
X144698847Y-121133861D01*
X144828078Y-120984145D01*
X144925769Y-120812179D01*
X144988197Y-120624513D01*
X145012985Y-120428295D01*
X145013380Y-120400000D01*
X144994080Y-120203167D01*
X144936916Y-120013831D01*
X144844066Y-119839204D01*
X144763435Y-119740341D01*
X144722960Y-119690713D01*
X144722957Y-119690710D01*
X144719065Y-119685938D01*
X144712724Y-119680692D01*
X144571425Y-119563799D01*
X144571421Y-119563797D01*
X144566675Y-119559870D01*
X144392701Y-119465802D01*
X144203768Y-119407318D01*
X144197643Y-119406674D01*
X144197642Y-119406674D01*
X144013204Y-119387289D01*
X144013202Y-119387289D01*
X144007075Y-119386645D01*
X143924576Y-119394153D01*
X143816251Y-119404011D01*
X143816248Y-119404012D01*
X143810112Y-119404570D01*
X143804206Y-119406308D01*
X143804202Y-119406309D01*
X143699076Y-119437249D01*
X143620381Y-119460410D01*
X143614923Y-119463263D01*
X143614919Y-119463265D01*
X143524147Y-119510720D01*
X143445110Y-119552040D01*
X143290975Y-119675968D01*
X143163846Y-119827474D01*
X143160879Y-119832872D01*
X143160875Y-119832877D01*
X143082095Y-119976180D01*
X143068567Y-120000787D01*
X143066706Y-120006654D01*
X143066705Y-120006656D01*
X143010627Y-120183436D01*
X143008765Y-120189306D01*
X142986719Y-120385851D01*
X126108500Y-120385851D01*
X126108500Y-117066082D01*
X127012172Y-117066082D01*
X127012469Y-117071234D01*
X127012469Y-117071238D01*
X127014361Y-117104052D01*
X127025268Y-117293206D01*
X127026405Y-117298252D01*
X127026406Y-117298258D01*
X127053645Y-117419127D01*
X127075283Y-117515141D01*
X127160875Y-117725927D01*
X127279744Y-117919904D01*
X127428698Y-118091861D01*
X127603737Y-118237181D01*
X127608189Y-118239783D01*
X127608194Y-118239786D01*
X127702199Y-118294718D01*
X127800160Y-118351962D01*
X128012693Y-118433120D01*
X128017759Y-118434151D01*
X128017760Y-118434151D01*
X128116861Y-118454313D01*
X128235627Y-118478476D01*
X128363437Y-118483163D01*
X128457811Y-118486624D01*
X128457815Y-118486624D01*
X128462975Y-118486813D01*
X128468095Y-118486157D01*
X128468097Y-118486157D01*
X128683504Y-118458563D01*
X128683505Y-118458563D01*
X128688632Y-118457906D01*
X128771248Y-118433120D01*
X128901591Y-118394015D01*
X128901592Y-118394014D01*
X128906537Y-118392531D01*
X129110839Y-118292444D01*
X129129612Y-118279053D01*
X129196683Y-118255780D01*
X129265692Y-118272462D01*
X129314727Y-118323805D01*
X129328392Y-118371746D01*
X129337448Y-118486813D01*
X129345928Y-118594557D01*
X129403195Y-118833092D01*
X129405088Y-118837663D01*
X129405089Y-118837665D01*
X129410254Y-118850135D01*
X129497073Y-119059732D01*
X129625248Y-119268896D01*
X129628463Y-119272660D01*
X129628465Y-119272663D01*
X129745029Y-119409140D01*
X129784567Y-119455433D01*
X129971104Y-119614752D01*
X129975327Y-119617340D01*
X129975330Y-119617342D01*
X130044515Y-119659738D01*
X130180268Y-119742927D01*
X130324967Y-119802864D01*
X130402335Y-119834911D01*
X130402337Y-119834912D01*
X130406908Y-119836805D01*
X130489563Y-119856649D01*
X130640630Y-119892917D01*
X130640636Y-119892918D01*
X130645443Y-119894072D01*
X130890000Y-119913319D01*
X131134557Y-119894072D01*
X131139364Y-119892918D01*
X131139370Y-119892917D01*
X131290437Y-119856649D01*
X131373092Y-119836805D01*
X131377663Y-119834912D01*
X131377665Y-119834911D01*
X131455033Y-119802864D01*
X131599732Y-119742927D01*
X131735485Y-119659738D01*
X131804670Y-119617342D01*
X131804673Y-119617340D01*
X131808896Y-119614752D01*
X131995433Y-119455433D01*
X132034971Y-119409140D01*
X132151535Y-119272663D01*
X132151537Y-119272660D01*
X132154752Y-119268896D01*
X132282927Y-119059732D01*
X132369746Y-118850135D01*
X132374911Y-118837665D01*
X132374912Y-118837663D01*
X132376805Y-118833092D01*
X132434072Y-118594557D01*
X132453319Y-118350000D01*
X132434072Y-118105443D01*
X132431605Y-118095164D01*
X132377960Y-117871720D01*
X132376805Y-117866908D01*
X132282927Y-117640268D01*
X132154752Y-117431104D01*
X131995433Y-117244567D01*
X131905569Y-117167815D01*
X131812663Y-117088465D01*
X131812660Y-117088463D01*
X131808896Y-117085248D01*
X131804673Y-117082660D01*
X131804670Y-117082658D01*
X131722665Y-117032406D01*
X131599732Y-116957073D01*
X131417255Y-116881488D01*
X131377665Y-116865089D01*
X131377663Y-116865088D01*
X131373092Y-116863195D01*
X131275932Y-116839869D01*
X131139370Y-116807083D01*
X131139364Y-116807082D01*
X131134557Y-116805928D01*
X130890000Y-116786681D01*
X130645443Y-116805928D01*
X130640636Y-116807082D01*
X130640630Y-116807083D01*
X130504068Y-116839869D01*
X130406908Y-116863195D01*
X130402337Y-116865088D01*
X130402335Y-116865089D01*
X130362745Y-116881488D01*
X130180268Y-116957073D01*
X129971104Y-117085248D01*
X129969925Y-117083324D01*
X129911899Y-117104052D01*
X129842741Y-117087998D01*
X129793242Y-117037102D01*
X129779082Y-116988584D01*
X129770025Y-116878425D01*
X129769601Y-116873264D01*
X129714178Y-116652617D01*
X129623462Y-116443985D01*
X129543859Y-116320936D01*
X129502698Y-116257311D01*
X129502696Y-116257308D01*
X129499890Y-116252971D01*
X129346779Y-116084704D01*
X129168241Y-115943704D01*
X129130537Y-115922890D01*
X129115869Y-115914793D01*
X128969072Y-115833757D01*
X128964203Y-115832033D01*
X128964199Y-115832031D01*
X128759496Y-115759541D01*
X128759492Y-115759540D01*
X128754621Y-115757815D01*
X128749528Y-115756908D01*
X128749525Y-115756907D01*
X128535734Y-115718825D01*
X128535728Y-115718824D01*
X128530645Y-115717919D01*
X128457196Y-115717022D01*
X128308331Y-115715203D01*
X128308329Y-115715203D01*
X128303161Y-115715140D01*
X128078278Y-115749552D01*
X127862035Y-115820231D01*
X127857447Y-115822619D01*
X127857443Y-115822621D01*
X127664828Y-115922890D01*
X127660239Y-115925279D01*
X127656106Y-115928382D01*
X127656103Y-115928384D01*
X127482445Y-116058770D01*
X127478310Y-116061875D01*
X127321133Y-116226351D01*
X127192931Y-116414289D01*
X127190758Y-116418971D01*
X127190756Y-116418974D01*
X127176948Y-116448722D01*
X127097145Y-116620643D01*
X127095761Y-116625635D01*
X127041475Y-116821383D01*
X127036348Y-116839869D01*
X127035799Y-116845006D01*
X127015257Y-117037218D01*
X127012172Y-117066082D01*
X126108500Y-117066082D01*
X126108500Y-114085851D01*
X147986719Y-114085851D01*
X148003268Y-114282934D01*
X148057783Y-114473050D01*
X148148187Y-114648956D01*
X148271035Y-114803953D01*
X148421650Y-114932136D01*
X148594294Y-115028624D01*
X148782392Y-115089740D01*
X148978777Y-115113158D01*
X148984912Y-115112686D01*
X148984914Y-115112686D01*
X149169830Y-115098457D01*
X149169834Y-115098456D01*
X149175972Y-115097984D01*
X149366463Y-115044798D01*
X149371967Y-115042018D01*
X149371969Y-115042017D01*
X149537495Y-114958404D01*
X149537497Y-114958403D01*
X149542996Y-114955625D01*
X149698847Y-114833861D01*
X149828078Y-114684145D01*
X149925769Y-114512179D01*
X149988197Y-114324513D01*
X150012985Y-114128295D01*
X150013380Y-114100000D01*
X149994080Y-113903167D01*
X149936916Y-113713831D01*
X149844066Y-113539204D01*
X149773709Y-113452938D01*
X149722960Y-113390713D01*
X149722957Y-113390710D01*
X149719065Y-113385938D01*
X149708335Y-113377061D01*
X149571425Y-113263799D01*
X149571421Y-113263797D01*
X149566675Y-113259870D01*
X149392701Y-113165802D01*
X149203768Y-113107318D01*
X149197643Y-113106674D01*
X149197642Y-113106674D01*
X149013204Y-113087289D01*
X149013202Y-113087289D01*
X149007075Y-113086645D01*
X148924576Y-113094153D01*
X148816251Y-113104011D01*
X148816248Y-113104012D01*
X148810112Y-113104570D01*
X148804206Y-113106308D01*
X148804202Y-113106309D01*
X148699076Y-113137249D01*
X148620381Y-113160410D01*
X148614923Y-113163263D01*
X148614919Y-113163265D01*
X148524147Y-113210720D01*
X148445110Y-113252040D01*
X148290975Y-113375968D01*
X148163846Y-113527474D01*
X148160879Y-113532872D01*
X148160875Y-113532877D01*
X148157397Y-113539204D01*
X148068567Y-113700787D01*
X148066706Y-113706654D01*
X148066705Y-113706656D01*
X148059062Y-113730750D01*
X148008765Y-113889306D01*
X147986719Y-114085851D01*
X126108500Y-114085851D01*
X126108500Y-113743130D01*
X127621700Y-113743130D01*
X127626981Y-113750184D01*
X127795919Y-113848904D01*
X127805202Y-113853351D01*
X128008002Y-113930793D01*
X128017900Y-113933669D01*
X128230625Y-113976948D01*
X128240853Y-113978167D01*
X128457788Y-113986122D01*
X128468074Y-113985655D01*
X128683400Y-113958072D01*
X128693477Y-113955930D01*
X128901401Y-113893549D01*
X128910999Y-113889788D01*
X129105947Y-113794284D01*
X129114785Y-113789015D01*
X129167172Y-113751648D01*
X129175572Y-113740948D01*
X129168585Y-113727795D01*
X128412812Y-112972022D01*
X128398868Y-112964408D01*
X128397035Y-112964539D01*
X128390420Y-112968790D01*
X127628460Y-113730750D01*
X127621700Y-113743130D01*
X126108500Y-113743130D01*
X126108500Y-112571250D01*
X127012971Y-112571250D01*
X127025467Y-112787967D01*
X127026903Y-112798188D01*
X127074627Y-113009948D01*
X127077706Y-113019777D01*
X127159379Y-113220914D01*
X127164022Y-113230105D01*
X127248279Y-113367601D01*
X127258735Y-113377061D01*
X127267513Y-113373277D01*
X128027978Y-112612812D01*
X128035592Y-112598868D01*
X128035461Y-112597035D01*
X128031210Y-112590420D01*
X127271858Y-111831068D01*
X127260322Y-111824768D01*
X127248039Y-111834391D01*
X127196279Y-111910268D01*
X127191191Y-111919224D01*
X127099795Y-112116121D01*
X127096232Y-112125808D01*
X127038223Y-112334979D01*
X127036292Y-112345100D01*
X127013222Y-112560962D01*
X127012971Y-112571250D01*
X126108500Y-112571250D01*
X126108500Y-111458569D01*
X127623365Y-111458569D01*
X127630111Y-111470901D01*
X129528388Y-113369178D01*
X129540398Y-113375736D01*
X129552138Y-113366768D01*
X129586507Y-113318940D01*
X129591816Y-113310103D01*
X129687994Y-113115503D01*
X129691792Y-113105910D01*
X129754897Y-112898208D01*
X129757074Y-112888138D01*
X129782250Y-112696905D01*
X129810972Y-112631978D01*
X129870237Y-112592886D01*
X129941229Y-112592041D01*
X129973006Y-112605918D01*
X130121485Y-112696905D01*
X130180268Y-112732927D01*
X130313145Y-112787967D01*
X130402335Y-112824911D01*
X130402337Y-112824912D01*
X130406908Y-112826805D01*
X130489563Y-112846649D01*
X130640630Y-112882917D01*
X130640636Y-112882918D01*
X130645443Y-112884072D01*
X130890000Y-112903319D01*
X131134557Y-112884072D01*
X131139364Y-112882918D01*
X131139370Y-112882917D01*
X131290437Y-112846649D01*
X131373092Y-112826805D01*
X131377663Y-112824912D01*
X131377665Y-112824911D01*
X131466855Y-112787967D01*
X131599732Y-112732927D01*
X131764467Y-112631978D01*
X131804670Y-112607342D01*
X131804673Y-112607340D01*
X131808896Y-112604752D01*
X131815786Y-112598868D01*
X131991677Y-112448641D01*
X131995433Y-112445433D01*
X132081126Y-112345100D01*
X132151535Y-112262663D01*
X132151537Y-112262660D01*
X132154752Y-112258896D01*
X132282927Y-112049732D01*
X132376805Y-111823092D01*
X132434072Y-111584557D01*
X132453319Y-111340000D01*
X132434072Y-111095443D01*
X132376805Y-110856908D01*
X132282927Y-110630268D01*
X132154752Y-110421104D01*
X131995433Y-110234567D01*
X131808896Y-110075248D01*
X131804673Y-110072660D01*
X131804670Y-110072658D01*
X131735485Y-110030262D01*
X131599732Y-109947073D01*
X131428148Y-109876000D01*
X131377665Y-109855089D01*
X131377663Y-109855088D01*
X131373092Y-109853195D01*
X131290437Y-109833351D01*
X131139370Y-109797083D01*
X131139364Y-109797082D01*
X131134557Y-109795928D01*
X130890000Y-109776681D01*
X130645443Y-109795928D01*
X130640636Y-109797082D01*
X130640630Y-109797083D01*
X130489563Y-109833351D01*
X130406908Y-109853195D01*
X130402337Y-109855088D01*
X130402335Y-109855089D01*
X130351852Y-109876000D01*
X130180268Y-109947073D01*
X130044515Y-110030262D01*
X129975330Y-110072658D01*
X129975327Y-110072660D01*
X129971104Y-110075248D01*
X129784567Y-110234567D01*
X129625248Y-110421104D01*
X129497073Y-110630268D01*
X129403195Y-110856908D01*
X129345928Y-111095443D01*
X129336407Y-111216423D01*
X129327559Y-111328844D01*
X129302274Y-111395185D01*
X129245135Y-111437325D01*
X129174285Y-111441884D01*
X129141053Y-111429266D01*
X128973398Y-111336715D01*
X128963989Y-111332487D01*
X128759364Y-111260026D01*
X128749401Y-111257394D01*
X128535687Y-111219326D01*
X128525434Y-111218356D01*
X128308366Y-111215703D01*
X128298082Y-111216423D01*
X128083507Y-111249258D01*
X128073479Y-111251647D01*
X127867147Y-111319087D01*
X127857637Y-111323084D01*
X127665095Y-111423315D01*
X127656370Y-111428809D01*
X127631819Y-111447243D01*
X127623365Y-111458569D01*
X126108500Y-111458569D01*
X126108500Y-108307655D01*
X135789858Y-108307655D01*
X135825104Y-108566638D01*
X135826412Y-108571124D01*
X135826412Y-108571126D01*
X135846098Y-108638664D01*
X135898243Y-108817567D01*
X136007668Y-109054928D01*
X136010231Y-109058837D01*
X136148410Y-109269596D01*
X136148414Y-109269601D01*
X136150976Y-109273509D01*
X136325018Y-109468506D01*
X136525970Y-109635637D01*
X136529973Y-109638066D01*
X136745422Y-109768804D01*
X136745426Y-109768806D01*
X136749419Y-109771229D01*
X136990455Y-109872303D01*
X137243783Y-109936641D01*
X137248434Y-109937109D01*
X137248438Y-109937110D01*
X137441308Y-109956531D01*
X137460867Y-109958500D01*
X139716354Y-109958500D01*
X139718679Y-109958327D01*
X139718685Y-109958327D01*
X139906000Y-109944407D01*
X139906004Y-109944406D01*
X139910652Y-109944061D01*
X139915200Y-109943032D01*
X139915206Y-109943031D01*
X140101601Y-109900853D01*
X140165577Y-109886377D01*
X140201769Y-109872303D01*
X140404824Y-109793340D01*
X140404827Y-109793339D01*
X140409177Y-109791647D01*
X140636098Y-109661951D01*
X140841357Y-109500138D01*
X141020443Y-109309763D01*
X141169424Y-109095009D01*
X141285025Y-108860593D01*
X141364707Y-108611665D01*
X141406721Y-108353693D01*
X141410142Y-108092345D01*
X141374896Y-107833362D01*
X141360473Y-107783877D01*
X141303068Y-107586932D01*
X141301757Y-107582433D01*
X141192332Y-107345072D01*
X141099295Y-107203167D01*
X141051590Y-107130404D01*
X141051586Y-107130399D01*
X141049024Y-107126491D01*
X140874982Y-106931494D01*
X140674030Y-106764363D01*
X140626844Y-106735730D01*
X140454578Y-106631196D01*
X140454574Y-106631194D01*
X140450581Y-106628771D01*
X140209545Y-106527697D01*
X139956217Y-106463359D01*
X139951566Y-106462891D01*
X139951562Y-106462890D01*
X139742271Y-106441816D01*
X139739133Y-106441500D01*
X137483646Y-106441500D01*
X137481321Y-106441673D01*
X137481315Y-106441673D01*
X137294000Y-106455593D01*
X137293996Y-106455594D01*
X137289348Y-106455939D01*
X137284800Y-106456968D01*
X137284794Y-106456969D01*
X137098399Y-106499147D01*
X137034423Y-106513623D01*
X137030071Y-106515315D01*
X137030069Y-106515316D01*
X136795176Y-106606660D01*
X136795173Y-106606661D01*
X136790823Y-106608353D01*
X136563902Y-106738049D01*
X136358643Y-106899862D01*
X136179557Y-107090237D01*
X136030576Y-107304991D01*
X135914975Y-107539407D01*
X135913553Y-107543850D01*
X135913552Y-107543852D01*
X135840186Y-107773050D01*
X135835293Y-107788335D01*
X135793279Y-108046307D01*
X135792133Y-108133861D01*
X135790847Y-108232136D01*
X135789858Y-108307655D01*
X126108500Y-108307655D01*
X126108500Y-105776509D01*
X126128502Y-105708388D01*
X126182158Y-105661895D01*
X126252432Y-105651791D01*
X126286951Y-105661945D01*
X126456647Y-105739638D01*
X126467193Y-105743372D01*
X126669734Y-105795376D01*
X126680290Y-105797147D01*
X126811171Y-105807793D01*
X126816277Y-105808000D01*
X127327885Y-105808000D01*
X127343124Y-105803525D01*
X127344329Y-105802135D01*
X127346000Y-105794452D01*
X127346000Y-105789885D01*
X127854000Y-105789885D01*
X127858475Y-105805124D01*
X127859865Y-105806329D01*
X127867548Y-105808000D01*
X128383723Y-105808000D01*
X128388829Y-105807793D01*
X128519710Y-105797147D01*
X128530266Y-105795376D01*
X128732807Y-105743372D01*
X128743353Y-105739638D01*
X128933269Y-105652687D01*
X128942976Y-105647151D01*
X129114496Y-105527941D01*
X129123075Y-105520767D01*
X129270767Y-105373075D01*
X129277941Y-105364496D01*
X129397151Y-105192976D01*
X129402687Y-105183269D01*
X129489638Y-104993353D01*
X129493372Y-104982807D01*
X129545376Y-104780266D01*
X129547147Y-104769710D01*
X129557793Y-104638829D01*
X129558000Y-104633723D01*
X129558000Y-103272115D01*
X129553525Y-103256876D01*
X129552135Y-103255671D01*
X129544452Y-103254000D01*
X127872115Y-103254000D01*
X127856876Y-103258475D01*
X127855671Y-103259865D01*
X127854000Y-103267548D01*
X127854000Y-105789885D01*
X127346000Y-105789885D01*
X127346000Y-102727885D01*
X127854000Y-102727885D01*
X127858475Y-102743124D01*
X127859865Y-102744329D01*
X127867548Y-102746000D01*
X129539885Y-102746000D01*
X129555124Y-102741525D01*
X129556329Y-102740135D01*
X129558000Y-102732452D01*
X129558000Y-101366277D01*
X129557895Y-101363699D01*
X138841500Y-101363699D01*
X138841501Y-104636300D01*
X138852793Y-104775144D01*
X138907552Y-104988415D01*
X138999212Y-105188619D01*
X139002412Y-105193223D01*
X139002413Y-105193225D01*
X139121451Y-105364496D01*
X139124877Y-105369426D01*
X139280574Y-105525123D01*
X139285180Y-105528324D01*
X139285182Y-105528326D01*
X139423576Y-105624513D01*
X139461381Y-105650788D01*
X139586373Y-105708014D01*
X139656480Y-105740111D01*
X139656482Y-105740112D01*
X139661585Y-105742448D01*
X139667026Y-105743845D01*
X139869652Y-105795871D01*
X139869654Y-105795871D01*
X139874856Y-105797207D01*
X139950679Y-105803374D01*
X140011149Y-105808293D01*
X140011159Y-105808293D01*
X140013699Y-105808500D01*
X140800000Y-105808500D01*
X141586300Y-105808499D01*
X141588839Y-105808292D01*
X141588851Y-105808292D01*
X141664550Y-105802135D01*
X141725144Y-105797207D01*
X141938415Y-105742448D01*
X141943518Y-105740112D01*
X141943520Y-105740111D01*
X142013627Y-105708014D01*
X142138619Y-105650788D01*
X142176424Y-105624513D01*
X142314818Y-105528326D01*
X142314820Y-105528324D01*
X142319426Y-105525123D01*
X142475123Y-105369426D01*
X142478550Y-105364496D01*
X142597587Y-105193225D01*
X142597588Y-105193223D01*
X142600788Y-105188619D01*
X142692448Y-104988415D01*
X142747207Y-104775144D01*
X142758500Y-104636301D01*
X142758499Y-101363700D01*
X142747207Y-101224856D01*
X142692448Y-101011585D01*
X142600788Y-100811381D01*
X142592878Y-100800000D01*
X142478326Y-100635182D01*
X142478324Y-100635180D01*
X142475123Y-100630574D01*
X142319426Y-100474877D01*
X142138619Y-100349212D01*
X141944553Y-100260362D01*
X141943520Y-100259889D01*
X141943518Y-100259888D01*
X141938415Y-100257552D01*
X141805757Y-100223491D01*
X141730348Y-100204129D01*
X141730346Y-100204129D01*
X141725144Y-100202793D01*
X141647467Y-100196475D01*
X141588851Y-100191707D01*
X141588841Y-100191707D01*
X141586301Y-100191500D01*
X141583746Y-100191500D01*
X140800001Y-100191501D01*
X140013700Y-100191501D01*
X140011161Y-100191708D01*
X140011149Y-100191708D01*
X139936358Y-100197791D01*
X139874856Y-100202793D01*
X139661585Y-100257552D01*
X139656482Y-100259888D01*
X139656480Y-100259889D01*
X139655447Y-100260362D01*
X139461381Y-100349212D01*
X139280574Y-100474877D01*
X139124877Y-100630574D01*
X139121676Y-100635180D01*
X139121674Y-100635182D01*
X139007122Y-100800000D01*
X138999212Y-100811381D01*
X138907552Y-101011585D01*
X138852793Y-101224856D01*
X138841500Y-101363699D01*
X129557895Y-101363699D01*
X129557793Y-101361171D01*
X129547147Y-101230290D01*
X129545376Y-101219734D01*
X129493372Y-101017193D01*
X129489638Y-101006647D01*
X129402687Y-100816731D01*
X129397151Y-100807024D01*
X129277941Y-100635504D01*
X129270767Y-100626925D01*
X129123075Y-100479233D01*
X129114496Y-100472059D01*
X128942976Y-100352849D01*
X128933269Y-100347313D01*
X128743353Y-100260362D01*
X128732807Y-100256628D01*
X128530266Y-100204624D01*
X128519710Y-100202853D01*
X128388829Y-100192207D01*
X128383723Y-100192000D01*
X127872115Y-100192000D01*
X127856876Y-100196475D01*
X127855671Y-100197865D01*
X127854000Y-100205548D01*
X127854000Y-102727885D01*
X127346000Y-102727885D01*
X127346000Y-100210115D01*
X127341525Y-100194876D01*
X127340135Y-100193671D01*
X127332452Y-100192000D01*
X126816277Y-100192000D01*
X126811171Y-100192207D01*
X126680290Y-100202853D01*
X126669734Y-100204624D01*
X126467193Y-100256628D01*
X126456647Y-100260362D01*
X126286951Y-100338055D01*
X126216687Y-100348226D01*
X126152078Y-100318794D01*
X126113638Y-100259104D01*
X126108500Y-100223491D01*
X126108500Y-96305469D01*
X128287095Y-96305469D01*
X128287392Y-96310622D01*
X128287392Y-96310625D01*
X128293067Y-96409041D01*
X128300427Y-96536697D01*
X128301564Y-96541743D01*
X128301565Y-96541749D01*
X128333741Y-96684523D01*
X128351346Y-96762642D01*
X128353288Y-96767424D01*
X128353289Y-96767428D01*
X128436540Y-96972450D01*
X128438484Y-96977237D01*
X128559501Y-97174719D01*
X128711147Y-97349784D01*
X128889349Y-97497730D01*
X129089322Y-97614584D01*
X129305694Y-97697209D01*
X129310760Y-97698240D01*
X129310761Y-97698240D01*
X129363846Y-97709040D01*
X129532656Y-97743385D01*
X129663324Y-97748176D01*
X129758949Y-97751683D01*
X129758953Y-97751683D01*
X129764113Y-97751872D01*
X129769233Y-97751216D01*
X129769235Y-97751216D01*
X129842270Y-97741860D01*
X129993847Y-97722442D01*
X129998795Y-97720957D01*
X129998802Y-97720956D01*
X130210747Y-97657369D01*
X130215690Y-97655886D01*
X130296236Y-97616427D01*
X130419049Y-97556262D01*
X130419052Y-97556260D01*
X130423684Y-97553991D01*
X130612243Y-97419494D01*
X130776303Y-97256005D01*
X130911458Y-97067917D01*
X130958641Y-96972450D01*
X131011784Y-96864922D01*
X131011785Y-96864920D01*
X131014078Y-96860280D01*
X131081408Y-96638671D01*
X131111640Y-96409041D01*
X131113327Y-96340000D01*
X131107032Y-96263434D01*
X131094773Y-96114318D01*
X131094772Y-96114312D01*
X131094349Y-96109167D01*
X131037925Y-95884533D01*
X131035866Y-95879797D01*
X130947630Y-95676868D01*
X130947628Y-95676865D01*
X130945570Y-95672131D01*
X130819764Y-95477665D01*
X130729848Y-95378848D01*
X130698796Y-95315002D01*
X130707192Y-95244504D01*
X130752369Y-95189736D01*
X130778812Y-95176067D01*
X130838297Y-95153767D01*
X130846705Y-95150615D01*
X130963261Y-95063261D01*
X131050615Y-94946705D01*
X131101745Y-94810316D01*
X131108500Y-94748134D01*
X131108500Y-94000000D01*
X142486835Y-94000000D01*
X142505465Y-94236711D01*
X142560895Y-94467594D01*
X142651760Y-94686963D01*
X142654346Y-94691183D01*
X142773241Y-94885202D01*
X142773245Y-94885208D01*
X142775824Y-94889416D01*
X142830891Y-94953891D01*
X142918170Y-95056081D01*
X142930031Y-95069969D01*
X143110584Y-95224176D01*
X143114792Y-95226755D01*
X143114798Y-95226759D01*
X143308817Y-95345654D01*
X143313037Y-95348240D01*
X143317607Y-95350133D01*
X143317611Y-95350135D01*
X143527833Y-95437211D01*
X143532406Y-95439105D01*
X143597935Y-95454837D01*
X143758476Y-95493380D01*
X143758482Y-95493381D01*
X143763289Y-95494535D01*
X144000000Y-95513165D01*
X144236711Y-95494535D01*
X144241518Y-95493381D01*
X144241524Y-95493380D01*
X144402065Y-95454837D01*
X144467594Y-95439105D01*
X144472167Y-95437211D01*
X144682389Y-95350135D01*
X144682393Y-95350133D01*
X144686963Y-95348240D01*
X144691183Y-95345654D01*
X144885202Y-95226759D01*
X144885208Y-95226755D01*
X144889416Y-95224176D01*
X145069969Y-95069969D01*
X145081831Y-95056081D01*
X145169109Y-94953891D01*
X145224176Y-94889416D01*
X145226755Y-94885208D01*
X145226759Y-94885202D01*
X145345654Y-94691183D01*
X145348240Y-94686963D01*
X145439105Y-94467594D01*
X145494535Y-94236711D01*
X145513165Y-94000000D01*
X147786835Y-94000000D01*
X147805465Y-94236711D01*
X147860895Y-94467594D01*
X147951760Y-94686963D01*
X147954346Y-94691183D01*
X148073241Y-94885202D01*
X148073245Y-94885208D01*
X148075824Y-94889416D01*
X148130891Y-94953891D01*
X148218170Y-95056081D01*
X148230031Y-95069969D01*
X148410584Y-95224176D01*
X148414792Y-95226755D01*
X148414798Y-95226759D01*
X148608817Y-95345654D01*
X148613037Y-95348240D01*
X148617607Y-95350133D01*
X148617611Y-95350135D01*
X148827833Y-95437211D01*
X148832406Y-95439105D01*
X148897935Y-95454837D01*
X149058476Y-95493380D01*
X149058482Y-95493381D01*
X149063289Y-95494535D01*
X149300000Y-95513165D01*
X149536711Y-95494535D01*
X149541518Y-95493381D01*
X149541524Y-95493380D01*
X149702065Y-95454837D01*
X149767594Y-95439105D01*
X149772167Y-95437211D01*
X149982389Y-95350135D01*
X149982393Y-95350133D01*
X149986963Y-95348240D01*
X149991183Y-95345654D01*
X150185202Y-95226759D01*
X150185208Y-95226755D01*
X150189416Y-95224176D01*
X150369969Y-95069969D01*
X150381831Y-95056081D01*
X150469109Y-94953891D01*
X150524176Y-94889416D01*
X150526755Y-94885208D01*
X150526759Y-94885202D01*
X150645654Y-94691183D01*
X150648240Y-94686963D01*
X150739105Y-94467594D01*
X150794535Y-94236711D01*
X150813165Y-94000000D01*
X150794535Y-93763289D01*
X150739105Y-93532406D01*
X150648240Y-93313037D01*
X150645654Y-93308817D01*
X150526759Y-93114798D01*
X150526755Y-93114792D01*
X150524176Y-93110584D01*
X150369969Y-92930031D01*
X150189416Y-92775824D01*
X150185208Y-92773245D01*
X150185202Y-92773241D01*
X149991183Y-92654346D01*
X149986963Y-92651760D01*
X149982393Y-92649867D01*
X149982389Y-92649865D01*
X149772167Y-92562789D01*
X149772165Y-92562788D01*
X149767594Y-92560895D01*
X149666977Y-92536739D01*
X149541524Y-92506620D01*
X149541518Y-92506619D01*
X149536711Y-92505465D01*
X149300000Y-92486835D01*
X149063289Y-92505465D01*
X149058482Y-92506619D01*
X149058476Y-92506620D01*
X148933023Y-92536739D01*
X148832406Y-92560895D01*
X148827835Y-92562788D01*
X148827833Y-92562789D01*
X148617611Y-92649865D01*
X148617607Y-92649867D01*
X148613037Y-92651760D01*
X148608817Y-92654346D01*
X148414798Y-92773241D01*
X148414792Y-92773245D01*
X148410584Y-92775824D01*
X148230031Y-92930031D01*
X148075824Y-93110584D01*
X148073245Y-93114792D01*
X148073241Y-93114798D01*
X147954346Y-93308817D01*
X147951760Y-93313037D01*
X147860895Y-93532406D01*
X147805465Y-93763289D01*
X147786835Y-94000000D01*
X145513165Y-94000000D01*
X145494535Y-93763289D01*
X145439105Y-93532406D01*
X145348240Y-93313037D01*
X145345654Y-93308817D01*
X145226759Y-93114798D01*
X145226755Y-93114792D01*
X145224176Y-93110584D01*
X145069969Y-92930031D01*
X144889416Y-92775824D01*
X144885208Y-92773245D01*
X144885202Y-92773241D01*
X144691183Y-92654346D01*
X144686963Y-92651760D01*
X144682393Y-92649867D01*
X144682389Y-92649865D01*
X144472167Y-92562789D01*
X144472165Y-92562788D01*
X144467594Y-92560895D01*
X144366977Y-92536739D01*
X144241524Y-92506620D01*
X144241518Y-92506619D01*
X144236711Y-92505465D01*
X144000000Y-92486835D01*
X143763289Y-92505465D01*
X143758482Y-92506619D01*
X143758476Y-92506620D01*
X143633023Y-92536739D01*
X143532406Y-92560895D01*
X143527835Y-92562788D01*
X143527833Y-92562789D01*
X143317611Y-92649865D01*
X143317607Y-92649867D01*
X143313037Y-92651760D01*
X143308817Y-92654346D01*
X143114798Y-92773241D01*
X143114792Y-92773245D01*
X143110584Y-92775824D01*
X142930031Y-92930031D01*
X142775824Y-93110584D01*
X142773245Y-93114792D01*
X142773241Y-93114798D01*
X142654346Y-93308817D01*
X142651760Y-93313037D01*
X142560895Y-93532406D01*
X142505465Y-93763289D01*
X142486835Y-94000000D01*
X131108500Y-94000000D01*
X131108500Y-92851866D01*
X131101745Y-92789684D01*
X131050615Y-92653295D01*
X130963261Y-92536739D01*
X130846705Y-92449385D01*
X130710316Y-92398255D01*
X130648134Y-92391500D01*
X128751866Y-92391500D01*
X128689684Y-92398255D01*
X128553295Y-92449385D01*
X128436739Y-92536739D01*
X128349385Y-92653295D01*
X128298255Y-92789684D01*
X128291500Y-92851866D01*
X128291500Y-94748134D01*
X128298255Y-94810316D01*
X128349385Y-94946705D01*
X128436739Y-95063261D01*
X128553295Y-95150615D01*
X128561704Y-95153767D01*
X128561705Y-95153768D01*
X128621164Y-95176058D01*
X128677929Y-95218699D01*
X128702629Y-95285261D01*
X128687422Y-95354609D01*
X128668029Y-95381091D01*
X128601639Y-95450564D01*
X128598725Y-95454836D01*
X128598724Y-95454837D01*
X128583152Y-95477665D01*
X128471119Y-95641899D01*
X128373602Y-95851981D01*
X128311707Y-96075169D01*
X128287095Y-96305469D01*
X126108500Y-96305469D01*
X126108500Y-92063224D01*
X152711219Y-92063224D01*
X152727768Y-92260307D01*
X152782283Y-92450423D01*
X152872687Y-92626329D01*
X152995535Y-92781326D01*
X153146150Y-92909509D01*
X153318794Y-93005997D01*
X153506892Y-93067113D01*
X153703277Y-93090531D01*
X153709412Y-93090059D01*
X153709414Y-93090059D01*
X153894330Y-93075830D01*
X153894334Y-93075829D01*
X153900472Y-93075357D01*
X154090963Y-93022171D01*
X154096467Y-93019391D01*
X154096469Y-93019390D01*
X154261995Y-92935777D01*
X154261997Y-92935776D01*
X154267496Y-92932998D01*
X154423347Y-92811234D01*
X154552578Y-92661518D01*
X154650269Y-92489552D01*
X154712697Y-92301886D01*
X154737485Y-92105668D01*
X154737880Y-92077373D01*
X154718580Y-91880540D01*
X154661416Y-91691204D01*
X154568566Y-91516577D01*
X154498209Y-91430311D01*
X154447460Y-91368086D01*
X154447457Y-91368083D01*
X154443565Y-91363311D01*
X154437224Y-91358065D01*
X154295925Y-91241172D01*
X154295921Y-91241170D01*
X154291175Y-91237243D01*
X154117201Y-91143175D01*
X153928268Y-91084691D01*
X153922143Y-91084047D01*
X153922142Y-91084047D01*
X153737704Y-91064662D01*
X153737702Y-91064662D01*
X153731575Y-91064018D01*
X153649076Y-91071526D01*
X153540751Y-91081384D01*
X153540748Y-91081385D01*
X153534612Y-91081943D01*
X153528706Y-91083681D01*
X153528702Y-91083682D01*
X153423576Y-91114622D01*
X153344881Y-91137783D01*
X153339423Y-91140636D01*
X153339419Y-91140638D01*
X153248647Y-91188093D01*
X153169610Y-91229413D01*
X153015475Y-91353341D01*
X152888346Y-91504847D01*
X152885379Y-91510245D01*
X152885375Y-91510250D01*
X152881897Y-91516577D01*
X152793067Y-91678160D01*
X152791206Y-91684027D01*
X152791205Y-91684029D01*
X152735127Y-91860809D01*
X152733265Y-91866679D01*
X152711219Y-92063224D01*
X126108500Y-92063224D01*
X126108500Y-90307655D01*
X135789858Y-90307655D01*
X135825104Y-90566638D01*
X135826412Y-90571124D01*
X135826412Y-90571126D01*
X135846098Y-90638664D01*
X135898243Y-90817567D01*
X136007668Y-91054928D01*
X136028376Y-91086513D01*
X136148410Y-91269596D01*
X136148414Y-91269601D01*
X136150976Y-91273509D01*
X136325018Y-91468506D01*
X136525970Y-91635637D01*
X136529973Y-91638066D01*
X136745422Y-91768804D01*
X136745426Y-91768806D01*
X136749419Y-91771229D01*
X136990455Y-91872303D01*
X137243783Y-91936641D01*
X137248434Y-91937109D01*
X137248438Y-91937110D01*
X137441308Y-91956531D01*
X137460867Y-91958500D01*
X139716354Y-91958500D01*
X139718679Y-91958327D01*
X139718685Y-91958327D01*
X139906000Y-91944407D01*
X139906004Y-91944406D01*
X139910652Y-91944061D01*
X139915200Y-91943032D01*
X139915206Y-91943031D01*
X140101601Y-91900853D01*
X140165577Y-91886377D01*
X140201769Y-91872303D01*
X140404824Y-91793340D01*
X140404827Y-91793339D01*
X140409177Y-91791647D01*
X140636098Y-91661951D01*
X140841357Y-91500138D01*
X141020443Y-91309763D01*
X141137770Y-91140638D01*
X141166759Y-91098851D01*
X141166761Y-91098848D01*
X141169424Y-91095009D01*
X141173614Y-91086513D01*
X141282960Y-90864781D01*
X141282961Y-90864778D01*
X141285025Y-90860593D01*
X141364707Y-90611665D01*
X141406721Y-90353693D01*
X141410142Y-90092345D01*
X141374896Y-89833362D01*
X141360473Y-89783877D01*
X141303068Y-89586932D01*
X141301757Y-89582433D01*
X141192332Y-89345072D01*
X141159519Y-89295024D01*
X141051590Y-89130404D01*
X141051586Y-89130399D01*
X141049024Y-89126491D01*
X140874982Y-88931494D01*
X140674030Y-88764363D01*
X140626844Y-88735730D01*
X140454578Y-88631196D01*
X140454574Y-88631194D01*
X140450581Y-88628771D01*
X140209545Y-88527697D01*
X139956217Y-88463359D01*
X139951566Y-88462891D01*
X139951562Y-88462890D01*
X139742271Y-88441816D01*
X139739133Y-88441500D01*
X137483646Y-88441500D01*
X137481321Y-88441673D01*
X137481315Y-88441673D01*
X137294000Y-88455593D01*
X137293996Y-88455594D01*
X137289348Y-88455939D01*
X137284800Y-88456968D01*
X137284794Y-88456969D01*
X137098399Y-88499147D01*
X137034423Y-88513623D01*
X137030071Y-88515315D01*
X137030069Y-88515316D01*
X136795176Y-88606660D01*
X136795173Y-88606661D01*
X136790823Y-88608353D01*
X136563902Y-88738049D01*
X136358643Y-88899862D01*
X136179557Y-89090237D01*
X136030576Y-89304991D01*
X135914975Y-89539407D01*
X135835293Y-89788335D01*
X135793279Y-90046307D01*
X135789858Y-90307655D01*
X126108500Y-90307655D01*
X126108500Y-87776509D01*
X126128502Y-87708388D01*
X126182158Y-87661895D01*
X126252432Y-87651791D01*
X126286951Y-87661945D01*
X126456647Y-87739638D01*
X126467193Y-87743372D01*
X126669734Y-87795376D01*
X126680290Y-87797147D01*
X126811171Y-87807793D01*
X126816277Y-87808000D01*
X127327885Y-87808000D01*
X127343124Y-87803525D01*
X127344329Y-87802135D01*
X127346000Y-87794452D01*
X127346000Y-87789885D01*
X127854000Y-87789885D01*
X127858475Y-87805124D01*
X127859865Y-87806329D01*
X127867548Y-87808000D01*
X128383723Y-87808000D01*
X128388829Y-87807793D01*
X128519710Y-87797147D01*
X128530266Y-87795376D01*
X128732807Y-87743372D01*
X128743353Y-87739638D01*
X128933269Y-87652687D01*
X128942976Y-87647151D01*
X129114496Y-87527941D01*
X129123075Y-87520767D01*
X129270767Y-87373075D01*
X129277941Y-87364496D01*
X129397151Y-87192976D01*
X129402687Y-87183269D01*
X129489638Y-86993353D01*
X129493372Y-86982807D01*
X129545376Y-86780266D01*
X129547147Y-86769710D01*
X129557793Y-86638829D01*
X129558000Y-86633723D01*
X129558000Y-85272115D01*
X129553525Y-85256876D01*
X129552135Y-85255671D01*
X129544452Y-85254000D01*
X127872115Y-85254000D01*
X127856876Y-85258475D01*
X127855671Y-85259865D01*
X127854000Y-85267548D01*
X127854000Y-87789885D01*
X127346000Y-87789885D01*
X127346000Y-84727885D01*
X127854000Y-84727885D01*
X127858475Y-84743124D01*
X127859865Y-84744329D01*
X127867548Y-84746000D01*
X129539885Y-84746000D01*
X129555124Y-84741525D01*
X129556329Y-84740135D01*
X129558000Y-84732452D01*
X129558000Y-83366277D01*
X129557895Y-83363699D01*
X138841500Y-83363699D01*
X138841501Y-86636300D01*
X138852793Y-86775144D01*
X138907552Y-86988415D01*
X138999212Y-87188619D01*
X139002412Y-87193223D01*
X139002413Y-87193225D01*
X139121451Y-87364496D01*
X139124877Y-87369426D01*
X139280574Y-87525123D01*
X139461381Y-87650788D01*
X139586373Y-87708014D01*
X139656480Y-87740111D01*
X139656482Y-87740112D01*
X139661585Y-87742448D01*
X139667026Y-87743845D01*
X139869652Y-87795871D01*
X139869654Y-87795871D01*
X139874856Y-87797207D01*
X139950679Y-87803374D01*
X140011149Y-87808293D01*
X140011159Y-87808293D01*
X140013699Y-87808500D01*
X140800000Y-87808500D01*
X141586300Y-87808499D01*
X141588839Y-87808292D01*
X141588851Y-87808292D01*
X141664550Y-87802135D01*
X141725144Y-87797207D01*
X141938415Y-87742448D01*
X141943518Y-87740112D01*
X141943520Y-87740111D01*
X142013627Y-87708014D01*
X142138619Y-87650788D01*
X142319426Y-87525123D01*
X142475123Y-87369426D01*
X142478550Y-87364496D01*
X142597587Y-87193225D01*
X142597588Y-87193223D01*
X142600788Y-87188619D01*
X142692448Y-86988415D01*
X142747207Y-86775144D01*
X142758500Y-86636301D01*
X142758499Y-83363700D01*
X142747207Y-83224856D01*
X142692448Y-83011585D01*
X142600788Y-82811381D01*
X142597587Y-82806775D01*
X142478326Y-82635182D01*
X142478324Y-82635180D01*
X142475123Y-82630574D01*
X142319426Y-82474877D01*
X142138619Y-82349212D01*
X141944553Y-82260362D01*
X141943520Y-82259889D01*
X141943518Y-82259888D01*
X141938415Y-82257552D01*
X141805757Y-82223491D01*
X141730348Y-82204129D01*
X141730346Y-82204129D01*
X141725144Y-82202793D01*
X141647467Y-82196475D01*
X141588851Y-82191707D01*
X141588841Y-82191707D01*
X141586301Y-82191500D01*
X141583746Y-82191500D01*
X140800001Y-82191501D01*
X140013700Y-82191501D01*
X140011161Y-82191708D01*
X140011149Y-82191708D01*
X139936358Y-82197791D01*
X139874856Y-82202793D01*
X139661585Y-82257552D01*
X139656482Y-82259888D01*
X139656480Y-82259889D01*
X139655447Y-82260362D01*
X139461381Y-82349212D01*
X139280574Y-82474877D01*
X139124877Y-82630574D01*
X139121676Y-82635180D01*
X139121674Y-82635182D01*
X139002413Y-82806775D01*
X138999212Y-82811381D01*
X138907552Y-83011585D01*
X138852793Y-83224856D01*
X138841500Y-83363699D01*
X129557895Y-83363699D01*
X129557793Y-83361171D01*
X129547147Y-83230290D01*
X129545376Y-83219734D01*
X129493372Y-83017193D01*
X129489638Y-83006647D01*
X129402687Y-82816731D01*
X129397151Y-82807024D01*
X129277941Y-82635504D01*
X129270767Y-82626925D01*
X129123075Y-82479233D01*
X129114496Y-82472059D01*
X128942976Y-82352849D01*
X128933269Y-82347313D01*
X128743353Y-82260362D01*
X128732807Y-82256628D01*
X128530266Y-82204624D01*
X128519710Y-82202853D01*
X128388829Y-82192207D01*
X128383723Y-82192000D01*
X127872115Y-82192000D01*
X127856876Y-82196475D01*
X127855671Y-82197865D01*
X127854000Y-82205548D01*
X127854000Y-84727885D01*
X127346000Y-84727885D01*
X127346000Y-82210115D01*
X127341525Y-82194876D01*
X127340135Y-82193671D01*
X127332452Y-82192000D01*
X126816277Y-82192000D01*
X126811171Y-82192207D01*
X126680290Y-82202853D01*
X126669734Y-82204624D01*
X126467193Y-82256628D01*
X126456647Y-82260362D01*
X126286951Y-82338055D01*
X126216687Y-82348226D01*
X126152078Y-82318794D01*
X126113638Y-82259104D01*
X126108500Y-82223491D01*
X126108500Y-80626695D01*
X154199751Y-80626695D01*
X154200048Y-80631848D01*
X154200048Y-80631851D01*
X154205511Y-80726590D01*
X154212610Y-80849715D01*
X154213747Y-80854761D01*
X154213748Y-80854767D01*
X154233619Y-80942939D01*
X154261722Y-81067639D01*
X154345766Y-81274616D01*
X154396519Y-81357438D01*
X154459791Y-81460688D01*
X154462487Y-81465088D01*
X154608750Y-81633938D01*
X154780626Y-81776632D01*
X154973500Y-81889338D01*
X155182192Y-81969030D01*
X155187260Y-81970061D01*
X155187263Y-81970062D01*
X155294517Y-81991883D01*
X155401097Y-82013567D01*
X155406272Y-82013757D01*
X155406274Y-82013757D01*
X155619173Y-82021564D01*
X155619177Y-82021564D01*
X155624337Y-82021753D01*
X155629457Y-82021097D01*
X155629459Y-82021097D01*
X155840788Y-81994025D01*
X155840789Y-81994025D01*
X155845916Y-81993368D01*
X155850866Y-81991883D01*
X156054929Y-81930661D01*
X156054934Y-81930659D01*
X156059884Y-81929174D01*
X156260494Y-81830896D01*
X156442360Y-81701173D01*
X156600596Y-81543489D01*
X156660094Y-81460689D01*
X156730953Y-81362077D01*
X156732276Y-81363028D01*
X156779145Y-81319857D01*
X156849080Y-81307625D01*
X156914526Y-81335144D01*
X156942375Y-81366994D01*
X157002487Y-81465088D01*
X157148750Y-81633938D01*
X157320626Y-81776632D01*
X157513500Y-81889338D01*
X157722192Y-81969030D01*
X157727260Y-81970061D01*
X157727263Y-81970062D01*
X157834517Y-81991883D01*
X157941097Y-82013567D01*
X157946272Y-82013757D01*
X157946274Y-82013757D01*
X158159173Y-82021564D01*
X158159177Y-82021564D01*
X158164337Y-82021753D01*
X158169457Y-82021097D01*
X158169459Y-82021097D01*
X158380788Y-81994025D01*
X158380789Y-81994025D01*
X158385916Y-81993368D01*
X158390866Y-81991883D01*
X158594929Y-81930661D01*
X158594934Y-81930659D01*
X158599884Y-81929174D01*
X158800494Y-81830896D01*
X158982360Y-81701173D01*
X159140596Y-81543489D01*
X159200094Y-81460689D01*
X159267935Y-81366277D01*
X159270953Y-81362077D01*
X159291820Y-81319857D01*
X159367636Y-81166453D01*
X159367637Y-81166451D01*
X159369930Y-81161811D01*
X159434870Y-80948069D01*
X159464029Y-80726590D01*
X159465656Y-80660000D01*
X159447352Y-80437361D01*
X159392931Y-80220702D01*
X159303854Y-80015840D01*
X159182514Y-79828277D01*
X159032170Y-79663051D01*
X159028119Y-79659852D01*
X159028115Y-79659848D01*
X158860914Y-79527800D01*
X158860910Y-79527798D01*
X158856859Y-79524598D01*
X158815069Y-79501529D01*
X158765098Y-79451097D01*
X158750326Y-79381654D01*
X158775442Y-79315248D01*
X158802793Y-79288642D01*
X158851747Y-79253723D01*
X158860148Y-79243023D01*
X158853160Y-79229870D01*
X158115312Y-78492022D01*
X158101368Y-78484408D01*
X158099535Y-78484539D01*
X158092920Y-78488790D01*
X157349237Y-79232473D01*
X157342477Y-79244853D01*
X157347758Y-79251907D01*
X157394469Y-79279203D01*
X157443193Y-79330841D01*
X157456264Y-79400624D01*
X157429533Y-79466396D01*
X157389084Y-79499752D01*
X157376107Y-79506507D01*
X157371974Y-79509610D01*
X157371971Y-79509612D01*
X157229707Y-79616427D01*
X157197465Y-79640635D01*
X157043129Y-79802138D01*
X156935701Y-79959621D01*
X156880793Y-80004621D01*
X156810268Y-80012792D01*
X156746521Y-79981538D01*
X156725824Y-79957054D01*
X156645322Y-79832617D01*
X156645320Y-79832614D01*
X156642514Y-79828277D01*
X156492170Y-79663051D01*
X156488119Y-79659852D01*
X156488115Y-79659848D01*
X156320914Y-79527800D01*
X156320910Y-79527798D01*
X156316859Y-79524598D01*
X156275069Y-79501529D01*
X156225098Y-79451097D01*
X156210326Y-79381654D01*
X156235442Y-79315248D01*
X156262793Y-79288642D01*
X156311747Y-79253723D01*
X156320148Y-79243023D01*
X156313160Y-79229870D01*
X155575312Y-78492022D01*
X155561368Y-78484408D01*
X155559535Y-78484539D01*
X155552920Y-78488790D01*
X154809237Y-79232473D01*
X154802477Y-79244853D01*
X154807758Y-79251907D01*
X154854469Y-79279203D01*
X154903193Y-79330841D01*
X154916264Y-79400624D01*
X154889533Y-79466396D01*
X154849084Y-79499752D01*
X154836107Y-79506507D01*
X154831974Y-79509610D01*
X154831971Y-79509612D01*
X154689707Y-79616427D01*
X154657465Y-79640635D01*
X154503129Y-79802138D01*
X154377243Y-79986680D01*
X154283188Y-80189305D01*
X154223489Y-80404570D01*
X154199751Y-80626695D01*
X126108500Y-80626695D01*
X126108500Y-78305469D01*
X128287095Y-78305469D01*
X128287392Y-78310622D01*
X128287392Y-78310625D01*
X128293067Y-78409041D01*
X128300427Y-78536697D01*
X128301564Y-78541743D01*
X128301565Y-78541749D01*
X128333741Y-78684523D01*
X128351346Y-78762642D01*
X128353288Y-78767424D01*
X128353289Y-78767428D01*
X128394704Y-78869420D01*
X128438484Y-78977237D01*
X128559501Y-79174719D01*
X128711147Y-79349784D01*
X128889349Y-79497730D01*
X129089322Y-79614584D01*
X129305694Y-79697209D01*
X129310760Y-79698240D01*
X129310761Y-79698240D01*
X129363846Y-79709040D01*
X129532656Y-79743385D01*
X129663324Y-79748176D01*
X129758949Y-79751683D01*
X129758953Y-79751683D01*
X129764113Y-79751872D01*
X129769233Y-79751216D01*
X129769235Y-79751216D01*
X129842270Y-79741860D01*
X129993847Y-79722442D01*
X129998795Y-79720957D01*
X129998802Y-79720956D01*
X130210747Y-79657369D01*
X130215690Y-79655886D01*
X130239191Y-79644373D01*
X130419049Y-79556262D01*
X130419052Y-79556260D01*
X130423684Y-79553991D01*
X130612243Y-79419494D01*
X130776303Y-79256005D01*
X130793213Y-79232473D01*
X130837875Y-79170318D01*
X130911458Y-79067917D01*
X130958641Y-78972450D01*
X131011784Y-78864922D01*
X131011785Y-78864920D01*
X131014078Y-78860280D01*
X131081408Y-78638671D01*
X131111640Y-78409041D01*
X131113327Y-78340000D01*
X131107032Y-78263434D01*
X131094773Y-78114318D01*
X131094772Y-78114312D01*
X131094349Y-78109167D01*
X131090003Y-78091863D01*
X154200550Y-78091863D01*
X154212809Y-78304477D01*
X154214245Y-78314697D01*
X154261065Y-78522446D01*
X154264145Y-78532275D01*
X154344270Y-78729603D01*
X154348913Y-78738794D01*
X154428960Y-78869420D01*
X154439416Y-78878880D01*
X154448194Y-78875096D01*
X155190478Y-78132812D01*
X155196856Y-78121132D01*
X155926908Y-78121132D01*
X155927039Y-78122965D01*
X155931290Y-78129580D01*
X156672974Y-78871264D01*
X156684984Y-78877823D01*
X156696723Y-78868855D01*
X156730522Y-78821819D01*
X156731649Y-78822629D01*
X156779159Y-78778881D01*
X156849096Y-78766661D01*
X156914538Y-78794191D01*
X156942370Y-78826029D01*
X156968959Y-78869419D01*
X156979416Y-78878880D01*
X156988194Y-78875096D01*
X157730478Y-78132812D01*
X157736856Y-78121132D01*
X158466908Y-78121132D01*
X158467039Y-78122965D01*
X158471290Y-78129580D01*
X159212974Y-78871264D01*
X159224984Y-78877823D01*
X159236723Y-78868855D01*
X159267504Y-78826019D01*
X159272815Y-78817180D01*
X159367170Y-78626267D01*
X159370969Y-78616672D01*
X159432876Y-78412915D01*
X159435055Y-78402834D01*
X159463090Y-78189887D01*
X159463609Y-78183212D01*
X159465072Y-78123364D01*
X159464878Y-78116646D01*
X159447281Y-77902604D01*
X159445596Y-77892424D01*
X159393714Y-77685875D01*
X159390394Y-77676124D01*
X159305472Y-77480814D01*
X159300605Y-77471739D01*
X159235563Y-77371197D01*
X159224877Y-77361995D01*
X159215312Y-77366398D01*
X158474522Y-78107188D01*
X158466908Y-78121132D01*
X157736856Y-78121132D01*
X157738092Y-78118868D01*
X157737961Y-78117035D01*
X157733710Y-78110420D01*
X156992349Y-77369059D01*
X156980813Y-77362759D01*
X156968528Y-77372384D01*
X156935692Y-77420520D01*
X156880781Y-77465523D01*
X156810256Y-77473694D01*
X156746509Y-77442440D01*
X156725811Y-77417955D01*
X156695562Y-77371197D01*
X156684877Y-77361995D01*
X156675312Y-77366398D01*
X155934522Y-78107188D01*
X155926908Y-78121132D01*
X155196856Y-78121132D01*
X155198092Y-78118868D01*
X155197961Y-78117035D01*
X155193710Y-78110420D01*
X154452349Y-77369059D01*
X154440813Y-77362759D01*
X154428531Y-77372382D01*
X154380589Y-77442662D01*
X154375504Y-77451613D01*
X154285838Y-77644783D01*
X154282275Y-77654470D01*
X154225364Y-77859681D01*
X154223433Y-77869800D01*
X154200802Y-78081574D01*
X154200550Y-78091863D01*
X131090003Y-78091863D01*
X131037925Y-77884533D01*
X131027119Y-77859681D01*
X130947630Y-77676868D01*
X130947628Y-77676865D01*
X130945570Y-77672131D01*
X130819764Y-77477665D01*
X130767766Y-77420520D01*
X130729848Y-77378848D01*
X130698796Y-77315002D01*
X130707192Y-77244504D01*
X130752369Y-77189736D01*
X130778812Y-77176067D01*
X130838297Y-77153767D01*
X130846705Y-77150615D01*
X130963261Y-77063261D01*
X131050615Y-76946705D01*
X131101745Y-76810316D01*
X131108500Y-76748134D01*
X131108500Y-76704853D01*
X154802477Y-76704853D01*
X154807758Y-76711907D01*
X154854979Y-76739501D01*
X154903703Y-76791139D01*
X154916774Y-76860922D01*
X154890043Y-76926694D01*
X154849587Y-76960053D01*
X154840966Y-76964541D01*
X154832234Y-76970039D01*
X154812177Y-76985099D01*
X154803723Y-76996427D01*
X154810468Y-77008758D01*
X155549688Y-77747978D01*
X155563632Y-77755592D01*
X155565465Y-77755461D01*
X155572080Y-77751210D01*
X156315889Y-77007401D01*
X156322910Y-76994544D01*
X156316111Y-76985213D01*
X156312059Y-76982521D01*
X156274616Y-76961852D01*
X156224645Y-76911420D01*
X156209873Y-76841977D01*
X156234989Y-76775572D01*
X156262340Y-76748965D01*
X156311747Y-76713723D01*
X156318711Y-76704853D01*
X157342477Y-76704853D01*
X157347758Y-76711907D01*
X157394979Y-76739501D01*
X157443703Y-76791139D01*
X157456774Y-76860922D01*
X157430043Y-76926694D01*
X157389587Y-76960053D01*
X157380966Y-76964541D01*
X157372234Y-76970039D01*
X157352177Y-76985099D01*
X157343723Y-76996427D01*
X157350468Y-77008758D01*
X158089688Y-77747978D01*
X158103632Y-77755592D01*
X158105465Y-77755461D01*
X158112080Y-77751210D01*
X158855889Y-77007401D01*
X158862910Y-76994544D01*
X158856111Y-76985213D01*
X158852059Y-76982521D01*
X158814616Y-76961852D01*
X158764645Y-76911420D01*
X158749873Y-76841977D01*
X158774989Y-76775572D01*
X158802340Y-76748965D01*
X158851747Y-76713723D01*
X158860148Y-76703023D01*
X158853160Y-76689870D01*
X158115312Y-75952022D01*
X158101368Y-75944408D01*
X158099535Y-75944539D01*
X158092920Y-75948790D01*
X157349237Y-76692473D01*
X157342477Y-76704853D01*
X156318711Y-76704853D01*
X156320148Y-76703023D01*
X156313160Y-76689870D01*
X155575312Y-75952022D01*
X155561368Y-75944408D01*
X155559535Y-75944539D01*
X155552920Y-75948790D01*
X154809237Y-76692473D01*
X154802477Y-76704853D01*
X131108500Y-76704853D01*
X131108500Y-75551863D01*
X154200550Y-75551863D01*
X154212809Y-75764477D01*
X154214245Y-75774697D01*
X154261065Y-75982446D01*
X154264145Y-75992275D01*
X154344270Y-76189603D01*
X154348913Y-76198794D01*
X154428960Y-76329420D01*
X154439416Y-76338880D01*
X154448194Y-76335096D01*
X155190478Y-75592812D01*
X155196856Y-75581132D01*
X155926908Y-75581132D01*
X155927039Y-75582965D01*
X155931290Y-75589580D01*
X156672974Y-76331264D01*
X156684984Y-76337823D01*
X156696723Y-76328855D01*
X156730522Y-76281819D01*
X156731649Y-76282629D01*
X156779159Y-76238881D01*
X156849096Y-76226661D01*
X156914538Y-76254191D01*
X156942370Y-76286029D01*
X156968959Y-76329419D01*
X156979416Y-76338880D01*
X156988194Y-76335096D01*
X157730478Y-75592812D01*
X157736856Y-75581132D01*
X158466908Y-75581132D01*
X158467039Y-75582965D01*
X158471290Y-75589580D01*
X159212974Y-76331264D01*
X159224984Y-76337823D01*
X159236723Y-76328855D01*
X159267504Y-76286019D01*
X159272815Y-76277180D01*
X159367170Y-76086267D01*
X159370969Y-76076672D01*
X159432876Y-75872915D01*
X159435055Y-75862834D01*
X159463090Y-75649887D01*
X159463609Y-75643212D01*
X159465072Y-75583364D01*
X159464878Y-75576646D01*
X159447281Y-75362604D01*
X159445596Y-75352424D01*
X159393714Y-75145875D01*
X159390394Y-75136124D01*
X159305472Y-74940814D01*
X159300605Y-74931739D01*
X159235563Y-74831197D01*
X159224877Y-74821995D01*
X159215312Y-74826398D01*
X158474522Y-75567188D01*
X158466908Y-75581132D01*
X157736856Y-75581132D01*
X157738092Y-75578868D01*
X157737961Y-75577035D01*
X157733710Y-75570420D01*
X156992349Y-74829059D01*
X156980813Y-74822759D01*
X156968528Y-74832384D01*
X156935692Y-74880520D01*
X156880781Y-74925523D01*
X156810256Y-74933694D01*
X156746509Y-74902440D01*
X156725811Y-74877955D01*
X156695562Y-74831197D01*
X156684877Y-74821995D01*
X156675312Y-74826398D01*
X155934522Y-75567188D01*
X155926908Y-75581132D01*
X155196856Y-75581132D01*
X155198092Y-75578868D01*
X155197961Y-75577035D01*
X155193710Y-75570420D01*
X154452349Y-74829059D01*
X154440813Y-74822759D01*
X154428531Y-74832382D01*
X154380589Y-74902662D01*
X154375504Y-74911613D01*
X154285838Y-75104783D01*
X154282275Y-75114470D01*
X154225364Y-75319681D01*
X154223433Y-75329800D01*
X154200802Y-75541574D01*
X154200550Y-75551863D01*
X131108500Y-75551863D01*
X131108500Y-74851866D01*
X131101745Y-74789684D01*
X131050615Y-74653295D01*
X130963261Y-74536739D01*
X130846705Y-74449385D01*
X130710316Y-74398255D01*
X130648134Y-74391500D01*
X128751866Y-74391500D01*
X128689684Y-74398255D01*
X128553295Y-74449385D01*
X128436739Y-74536739D01*
X128349385Y-74653295D01*
X128298255Y-74789684D01*
X128291500Y-74851866D01*
X128291500Y-76748134D01*
X128298255Y-76810316D01*
X128349385Y-76946705D01*
X128436739Y-77063261D01*
X128553295Y-77150615D01*
X128561704Y-77153767D01*
X128561705Y-77153768D01*
X128621164Y-77176058D01*
X128677929Y-77218699D01*
X128702629Y-77285261D01*
X128687422Y-77354609D01*
X128668029Y-77381091D01*
X128601639Y-77450564D01*
X128598725Y-77454836D01*
X128598724Y-77454837D01*
X128583152Y-77477665D01*
X128471119Y-77641899D01*
X128373602Y-77851981D01*
X128311707Y-78075169D01*
X128287095Y-78305469D01*
X126108500Y-78305469D01*
X126108500Y-74164853D01*
X154802477Y-74164853D01*
X154807758Y-74171907D01*
X154854979Y-74199501D01*
X154903703Y-74251139D01*
X154916774Y-74320922D01*
X154890043Y-74386694D01*
X154849587Y-74420053D01*
X154840966Y-74424541D01*
X154832234Y-74430039D01*
X154812177Y-74445099D01*
X154803723Y-74456427D01*
X154810468Y-74468758D01*
X155549688Y-75207978D01*
X155563632Y-75215592D01*
X155565465Y-75215461D01*
X155572080Y-75211210D01*
X156315889Y-74467401D01*
X156322910Y-74454544D01*
X156316111Y-74445213D01*
X156312059Y-74442521D01*
X156274616Y-74421852D01*
X156224645Y-74371420D01*
X156209873Y-74301977D01*
X156234989Y-74235572D01*
X156262340Y-74208965D01*
X156311747Y-74173723D01*
X156318711Y-74164853D01*
X157342477Y-74164853D01*
X157347758Y-74171907D01*
X157394979Y-74199501D01*
X157443703Y-74251139D01*
X157456774Y-74320922D01*
X157430043Y-74386694D01*
X157389587Y-74420053D01*
X157380966Y-74424541D01*
X157372234Y-74430039D01*
X157352177Y-74445099D01*
X157343723Y-74456427D01*
X157350468Y-74468758D01*
X158089688Y-75207978D01*
X158103632Y-75215592D01*
X158105465Y-75215461D01*
X158112080Y-75211210D01*
X158855889Y-74467401D01*
X158862910Y-74454544D01*
X158856111Y-74445213D01*
X158852059Y-74442521D01*
X158814616Y-74421852D01*
X158764645Y-74371420D01*
X158749873Y-74301977D01*
X158774989Y-74235572D01*
X158802340Y-74208965D01*
X158851747Y-74173723D01*
X158860148Y-74163023D01*
X158853160Y-74149870D01*
X158115312Y-73412022D01*
X158101368Y-73404408D01*
X158099535Y-73404539D01*
X158092920Y-73408790D01*
X157349237Y-74152473D01*
X157342477Y-74164853D01*
X156318711Y-74164853D01*
X156320148Y-74163023D01*
X156313160Y-74149870D01*
X155575312Y-73412022D01*
X155561368Y-73404408D01*
X155559535Y-73404539D01*
X155552920Y-73408790D01*
X154809237Y-74152473D01*
X154802477Y-74164853D01*
X126108500Y-74164853D01*
X126108500Y-72307655D01*
X135789858Y-72307655D01*
X135825104Y-72566638D01*
X135826412Y-72571124D01*
X135826412Y-72571126D01*
X135846098Y-72638664D01*
X135898243Y-72817567D01*
X136007668Y-73054928D01*
X136010231Y-73058837D01*
X136148410Y-73269596D01*
X136148414Y-73269601D01*
X136150976Y-73273509D01*
X136325018Y-73468506D01*
X136525970Y-73635637D01*
X136529973Y-73638066D01*
X136745422Y-73768804D01*
X136745426Y-73768806D01*
X136749419Y-73771229D01*
X136990455Y-73872303D01*
X137243783Y-73936641D01*
X137248434Y-73937109D01*
X137248438Y-73937110D01*
X137441308Y-73956531D01*
X137460867Y-73958500D01*
X139716354Y-73958500D01*
X139718679Y-73958327D01*
X139718685Y-73958327D01*
X139906000Y-73944407D01*
X139906004Y-73944406D01*
X139910652Y-73944061D01*
X139915200Y-73943032D01*
X139915206Y-73943031D01*
X140101601Y-73900853D01*
X140165577Y-73886377D01*
X140201769Y-73872303D01*
X140404824Y-73793340D01*
X140404827Y-73793339D01*
X140409177Y-73791647D01*
X140636098Y-73661951D01*
X140841357Y-73500138D01*
X141020443Y-73309763D01*
X141159103Y-73109887D01*
X141166759Y-73098851D01*
X141166761Y-73098848D01*
X141169424Y-73095009D01*
X141191827Y-73049580D01*
X141210427Y-73011863D01*
X154200550Y-73011863D01*
X154212809Y-73224477D01*
X154214245Y-73234697D01*
X154261065Y-73442446D01*
X154264145Y-73452275D01*
X154344270Y-73649603D01*
X154348913Y-73658794D01*
X154428960Y-73789420D01*
X154439416Y-73798880D01*
X154448194Y-73795096D01*
X155190478Y-73052812D01*
X155196856Y-73041132D01*
X155926908Y-73041132D01*
X155927039Y-73042965D01*
X155931290Y-73049580D01*
X156672974Y-73791264D01*
X156684984Y-73797823D01*
X156696723Y-73788855D01*
X156730522Y-73741819D01*
X156731649Y-73742629D01*
X156779159Y-73698881D01*
X156849096Y-73686661D01*
X156914538Y-73714191D01*
X156942370Y-73746029D01*
X156968959Y-73789419D01*
X156979416Y-73798880D01*
X156988194Y-73795096D01*
X157730478Y-73052812D01*
X157736856Y-73041132D01*
X158466908Y-73041132D01*
X158467039Y-73042965D01*
X158471290Y-73049580D01*
X159212974Y-73791264D01*
X159224984Y-73797823D01*
X159236723Y-73788855D01*
X159267504Y-73746019D01*
X159272815Y-73737180D01*
X159367170Y-73546267D01*
X159370969Y-73536672D01*
X159432876Y-73332915D01*
X159435055Y-73322834D01*
X159463090Y-73109887D01*
X159463609Y-73103212D01*
X159465072Y-73043364D01*
X159464878Y-73036646D01*
X159447281Y-72822604D01*
X159445596Y-72812424D01*
X159393714Y-72605875D01*
X159390394Y-72596124D01*
X159305472Y-72400814D01*
X159300605Y-72391739D01*
X159235563Y-72291197D01*
X159224877Y-72281995D01*
X159215312Y-72286398D01*
X158474522Y-73027188D01*
X158466908Y-73041132D01*
X157736856Y-73041132D01*
X157738092Y-73038868D01*
X157737961Y-73037035D01*
X157733710Y-73030420D01*
X156992349Y-72289059D01*
X156980813Y-72282759D01*
X156968528Y-72292384D01*
X156935692Y-72340520D01*
X156880781Y-72385523D01*
X156810256Y-72393694D01*
X156746509Y-72362440D01*
X156725811Y-72337955D01*
X156695562Y-72291197D01*
X156684877Y-72281995D01*
X156675312Y-72286398D01*
X155934522Y-73027188D01*
X155926908Y-73041132D01*
X155196856Y-73041132D01*
X155198092Y-73038868D01*
X155197961Y-73037035D01*
X155193710Y-73030420D01*
X154452349Y-72289059D01*
X154440813Y-72282759D01*
X154428531Y-72292382D01*
X154380589Y-72362662D01*
X154375504Y-72371613D01*
X154285838Y-72564783D01*
X154282275Y-72574470D01*
X154225364Y-72779681D01*
X154223433Y-72789800D01*
X154200802Y-73001574D01*
X154200550Y-73011863D01*
X141210427Y-73011863D01*
X141282960Y-72864781D01*
X141282961Y-72864778D01*
X141285025Y-72860593D01*
X141364707Y-72611665D01*
X141406721Y-72353693D01*
X141410142Y-72092345D01*
X141374896Y-71833362D01*
X141360473Y-71783877D01*
X141334812Y-71695839D01*
X141301757Y-71582433D01*
X141216794Y-71398134D01*
X154204000Y-71398134D01*
X154210755Y-71460316D01*
X154261885Y-71596705D01*
X154349239Y-71713261D01*
X154465795Y-71800615D01*
X154602184Y-71851745D01*
X154664366Y-71858500D01*
X154697340Y-71858500D01*
X154765461Y-71878502D01*
X154807884Y-71924035D01*
X154810467Y-71928757D01*
X155549688Y-72667978D01*
X155563632Y-72675592D01*
X155565465Y-72675461D01*
X155572080Y-72671210D01*
X156315890Y-71927400D01*
X156317686Y-71924111D01*
X156367890Y-71873911D01*
X156428272Y-71858500D01*
X156460634Y-71858500D01*
X156522816Y-71851745D01*
X156659205Y-71800615D01*
X156775761Y-71713261D01*
X156863115Y-71596705D01*
X156886165Y-71535219D01*
X156907098Y-71479382D01*
X156949740Y-71422618D01*
X157016302Y-71397918D01*
X157085650Y-71413126D01*
X157120317Y-71441114D01*
X157148750Y-71473938D01*
X157320626Y-71616632D01*
X157394455Y-71659774D01*
X157443179Y-71711412D01*
X157456250Y-71781195D01*
X157429519Y-71846967D01*
X157389062Y-71880327D01*
X157380960Y-71884544D01*
X157372234Y-71890039D01*
X157352177Y-71905099D01*
X157343723Y-71916427D01*
X157350468Y-71928758D01*
X158089688Y-72667978D01*
X158103632Y-72675592D01*
X158105465Y-72675461D01*
X158112080Y-72671210D01*
X158855889Y-71927401D01*
X158862910Y-71914544D01*
X158856111Y-71905213D01*
X158852059Y-71902521D01*
X158815102Y-71882120D01*
X158765131Y-71831687D01*
X158750359Y-71762245D01*
X158775475Y-71695839D01*
X158802827Y-71669232D01*
X158826297Y-71652491D01*
X158982360Y-71541173D01*
X159140596Y-71383489D01*
X159270953Y-71202077D01*
X159326228Y-71090237D01*
X159367636Y-71006453D01*
X159367637Y-71006451D01*
X159369930Y-71001811D01*
X159434870Y-70788069D01*
X159464029Y-70566590D01*
X159464979Y-70527697D01*
X159465574Y-70503365D01*
X159465574Y-70503361D01*
X159465656Y-70500000D01*
X159447352Y-70277361D01*
X159392931Y-70060702D01*
X159303854Y-69855840D01*
X159261186Y-69789885D01*
X159185322Y-69672617D01*
X159185320Y-69672614D01*
X159182514Y-69668277D01*
X159032170Y-69503051D01*
X159028119Y-69499852D01*
X159028115Y-69499848D01*
X158860914Y-69367800D01*
X158860910Y-69367798D01*
X158856859Y-69364598D01*
X158661289Y-69256638D01*
X158656420Y-69254914D01*
X158656416Y-69254912D01*
X158455587Y-69183795D01*
X158455583Y-69183794D01*
X158450712Y-69182069D01*
X158445619Y-69181162D01*
X158445616Y-69181161D01*
X158235873Y-69143800D01*
X158235867Y-69143799D01*
X158230784Y-69142894D01*
X158156952Y-69141992D01*
X158012581Y-69140228D01*
X158012579Y-69140228D01*
X158007411Y-69140165D01*
X157786591Y-69173955D01*
X157574256Y-69243357D01*
X157376107Y-69346507D01*
X157371974Y-69349610D01*
X157371971Y-69349612D01*
X157201600Y-69477530D01*
X157197465Y-69480635D01*
X157141037Y-69539684D01*
X157116783Y-69565064D01*
X157055259Y-69600494D01*
X156984346Y-69597037D01*
X156926560Y-69555791D01*
X156907707Y-69522243D01*
X156866267Y-69411703D01*
X156863115Y-69403295D01*
X156775761Y-69286739D01*
X156659205Y-69199385D01*
X156522816Y-69148255D01*
X156460634Y-69141500D01*
X154664366Y-69141500D01*
X154602184Y-69148255D01*
X154465795Y-69199385D01*
X154349239Y-69286739D01*
X154261885Y-69403295D01*
X154210755Y-69539684D01*
X154204000Y-69601866D01*
X154204000Y-71398134D01*
X141216794Y-71398134D01*
X141192332Y-71345072D01*
X141101334Y-71206277D01*
X141051590Y-71130404D01*
X141051586Y-71130399D01*
X141049024Y-71126491D01*
X140874982Y-70931494D01*
X140674030Y-70764363D01*
X140626844Y-70735730D01*
X140454578Y-70631196D01*
X140454574Y-70631194D01*
X140450581Y-70628771D01*
X140209545Y-70527697D01*
X139956217Y-70463359D01*
X139951566Y-70462891D01*
X139951562Y-70462890D01*
X139742271Y-70441816D01*
X139739133Y-70441500D01*
X137483646Y-70441500D01*
X137481321Y-70441673D01*
X137481315Y-70441673D01*
X137294000Y-70455593D01*
X137293996Y-70455594D01*
X137289348Y-70455939D01*
X137284800Y-70456968D01*
X137284794Y-70456969D01*
X137109450Y-70496646D01*
X137034423Y-70513623D01*
X137030071Y-70515315D01*
X137030069Y-70515316D01*
X136795176Y-70606660D01*
X136795173Y-70606661D01*
X136790823Y-70608353D01*
X136563902Y-70738049D01*
X136358643Y-70899862D01*
X136179557Y-71090237D01*
X136030576Y-71304991D01*
X136028510Y-71309181D01*
X136028508Y-71309184D01*
X135947261Y-71473938D01*
X135914975Y-71539407D01*
X135913553Y-71543850D01*
X135913552Y-71543852D01*
X135859916Y-71711412D01*
X135835293Y-71788335D01*
X135793279Y-72046307D01*
X135789858Y-72307655D01*
X126108500Y-72307655D01*
X126108500Y-69776509D01*
X126128502Y-69708388D01*
X126182158Y-69661895D01*
X126252432Y-69651791D01*
X126286951Y-69661945D01*
X126456647Y-69739638D01*
X126467193Y-69743372D01*
X126669734Y-69795376D01*
X126680290Y-69797147D01*
X126811171Y-69807793D01*
X126816277Y-69808000D01*
X127327885Y-69808000D01*
X127343124Y-69803525D01*
X127344329Y-69802135D01*
X127346000Y-69794452D01*
X127346000Y-69789885D01*
X127854000Y-69789885D01*
X127858475Y-69805124D01*
X127859865Y-69806329D01*
X127867548Y-69808000D01*
X128383723Y-69808000D01*
X128388829Y-69807793D01*
X128519710Y-69797147D01*
X128530266Y-69795376D01*
X128732807Y-69743372D01*
X128743353Y-69739638D01*
X128933269Y-69652687D01*
X128942976Y-69647151D01*
X129114496Y-69527941D01*
X129123075Y-69520767D01*
X129270767Y-69373075D01*
X129277941Y-69364496D01*
X129397151Y-69192976D01*
X129402687Y-69183269D01*
X129489638Y-68993353D01*
X129493372Y-68982807D01*
X129545376Y-68780266D01*
X129547147Y-68769710D01*
X129557793Y-68638829D01*
X129558000Y-68633723D01*
X129558000Y-67272115D01*
X129553525Y-67256876D01*
X129552135Y-67255671D01*
X129544452Y-67254000D01*
X127872115Y-67254000D01*
X127856876Y-67258475D01*
X127855671Y-67259865D01*
X127854000Y-67267548D01*
X127854000Y-69789885D01*
X127346000Y-69789885D01*
X127346000Y-66727885D01*
X127854000Y-66727885D01*
X127858475Y-66743124D01*
X127859865Y-66744329D01*
X127867548Y-66746000D01*
X129539885Y-66746000D01*
X129555124Y-66741525D01*
X129556329Y-66740135D01*
X129558000Y-66732452D01*
X129558000Y-65366277D01*
X129557895Y-65363699D01*
X138841500Y-65363699D01*
X138841501Y-68636300D01*
X138852793Y-68775144D01*
X138907552Y-68988415D01*
X138999212Y-69188619D01*
X139002412Y-69193223D01*
X139002413Y-69193225D01*
X139121451Y-69364496D01*
X139124877Y-69369426D01*
X139280574Y-69525123D01*
X139285180Y-69528324D01*
X139285182Y-69528326D01*
X139390992Y-69601866D01*
X139461381Y-69650788D01*
X139586373Y-69708014D01*
X139656480Y-69740111D01*
X139656482Y-69740112D01*
X139661585Y-69742448D01*
X139667026Y-69743845D01*
X139869652Y-69795871D01*
X139869654Y-69795871D01*
X139874856Y-69797207D01*
X139950679Y-69803374D01*
X140011149Y-69808293D01*
X140011159Y-69808293D01*
X140013699Y-69808500D01*
X140800000Y-69808500D01*
X141586300Y-69808499D01*
X141588839Y-69808292D01*
X141588851Y-69808292D01*
X141664550Y-69802135D01*
X141725144Y-69797207D01*
X141938415Y-69742448D01*
X141943518Y-69740112D01*
X141943520Y-69740111D01*
X142013627Y-69708014D01*
X142138619Y-69650788D01*
X142209008Y-69601866D01*
X142314818Y-69528326D01*
X142314820Y-69528324D01*
X142319426Y-69525123D01*
X142475123Y-69369426D01*
X142478550Y-69364496D01*
X142597587Y-69193225D01*
X142597588Y-69193223D01*
X142600788Y-69188619D01*
X142692448Y-68988415D01*
X142747207Y-68775144D01*
X142758500Y-68636301D01*
X142758499Y-65363700D01*
X142747207Y-65224856D01*
X142692448Y-65011585D01*
X142600788Y-64811381D01*
X142597587Y-64806775D01*
X142478326Y-64635182D01*
X142478324Y-64635180D01*
X142475123Y-64630574D01*
X142319426Y-64474877D01*
X142138619Y-64349212D01*
X141944553Y-64260362D01*
X141943520Y-64259889D01*
X141943518Y-64259888D01*
X141938415Y-64257552D01*
X141805757Y-64223491D01*
X141730348Y-64204129D01*
X141730346Y-64204129D01*
X141725144Y-64202793D01*
X141647467Y-64196475D01*
X141588851Y-64191707D01*
X141588841Y-64191707D01*
X141586301Y-64191500D01*
X141583746Y-64191500D01*
X140800001Y-64191501D01*
X140013700Y-64191501D01*
X140011161Y-64191708D01*
X140011149Y-64191708D01*
X139936358Y-64197791D01*
X139874856Y-64202793D01*
X139661585Y-64257552D01*
X139656482Y-64259888D01*
X139656480Y-64259889D01*
X139655447Y-64260362D01*
X139461381Y-64349212D01*
X139280574Y-64474877D01*
X139124877Y-64630574D01*
X139121676Y-64635180D01*
X139121674Y-64635182D01*
X139002413Y-64806775D01*
X138999212Y-64811381D01*
X138907552Y-65011585D01*
X138852793Y-65224856D01*
X138841500Y-65363699D01*
X129557895Y-65363699D01*
X129557793Y-65361171D01*
X129547147Y-65230290D01*
X129545376Y-65219734D01*
X129493372Y-65017193D01*
X129489638Y-65006647D01*
X129402687Y-64816731D01*
X129397151Y-64807024D01*
X129277941Y-64635504D01*
X129270767Y-64626925D01*
X129123075Y-64479233D01*
X129114496Y-64472059D01*
X128942976Y-64352849D01*
X128933269Y-64347313D01*
X128743353Y-64260362D01*
X128732807Y-64256628D01*
X128530266Y-64204624D01*
X128519710Y-64202853D01*
X128388829Y-64192207D01*
X128383723Y-64192000D01*
X127872115Y-64192000D01*
X127856876Y-64196475D01*
X127855671Y-64197865D01*
X127854000Y-64205548D01*
X127854000Y-66727885D01*
X127346000Y-66727885D01*
X127346000Y-64210115D01*
X127341525Y-64194876D01*
X127340135Y-64193671D01*
X127332452Y-64192000D01*
X126816277Y-64192000D01*
X126811171Y-64192207D01*
X126680290Y-64202853D01*
X126669734Y-64204624D01*
X126467193Y-64256628D01*
X126456647Y-64260362D01*
X126286951Y-64338055D01*
X126216687Y-64348226D01*
X126152078Y-64318794D01*
X126113638Y-64259104D01*
X126108500Y-64223491D01*
X126108500Y-56634500D01*
X126128502Y-56566379D01*
X126182158Y-56519886D01*
X126234500Y-56508500D01*
X128193752Y-56508500D01*
X128261873Y-56528502D01*
G37*
%TD.AperFunction*%
%TD*%
M02*
