%TF.GenerationSoftware,KiCad,Pcbnew,(6.0.4)*%
%TF.CreationDate,2022-03-21T16:46:14+00:00*%
%TF.ProjectId,Ball_Base_Components,42616c6c-5f42-4617-9365-5f436f6d706f,rev?*%
%TF.SameCoordinates,Original*%
%TF.FileFunction,Soldermask,Bot*%
%TF.FilePolarity,Negative*%
%FSLAX46Y46*%
G04 Gerber Fmt 4.6, Leading zero omitted, Abs format (unit mm)*
G04 Created by KiCad (PCBNEW (6.0.4)) date 2022-03-21 16:46:14*
%MOMM*%
%LPD*%
G01*
G04 APERTURE LIST*
G04 Aperture macros list*
%AMRoundRect*
0 Rectangle with rounded corners*
0 $1 Rounding radius*
0 $2 $3 $4 $5 $6 $7 $8 $9 X,Y pos of 4 corners*
0 Add a 4 corners polygon primitive as box body*
4,1,4,$2,$3,$4,$5,$6,$7,$8,$9,$2,$3,0*
0 Add four circle primitives for the rounded corners*
1,1,$1+$1,$2,$3*
1,1,$1+$1,$4,$5*
1,1,$1+$1,$6,$7*
1,1,$1+$1,$8,$9*
0 Add four rect primitives between the rounded corners*
20,1,$1+$1,$2,$3,$4,$5,0*
20,1,$1+$1,$4,$5,$6,$7,0*
20,1,$1+$1,$6,$7,$8,$9,0*
20,1,$1+$1,$8,$9,$2,$3,0*%
G04 Aperture macros list end*
%ADD10C,0.150000*%
%ADD11C,0.100000*%
%ADD12R,1.800000X1.800000*%
%ADD13C,1.800000*%
%ADD14C,2.000000*%
%ADD15R,1.700000X1.700000*%
%ADD16C,1.700000*%
%ADD17O,0.950000X1.250000*%
%ADD18O,1.550000X1.000000*%
%ADD19RoundRect,0.725000X-0.725000X1.575000X-0.725000X-1.575000X0.725000X-1.575000X0.725000X1.575000X0*%
%ADD20O,4.600000X2.500000*%
%ADD21C,2.100000*%
%ADD22C,1.750000*%
G04 APERTURE END LIST*
D10*
X152700000Y-101450000D02*
X162100000Y-101450000D01*
X162100000Y-101450000D02*
X162100000Y-109100000D01*
X162100000Y-109100000D02*
X152700000Y-109100000D01*
X152700000Y-109100000D02*
X152700000Y-101450000D01*
G36*
X152700000Y-101450000D02*
G01*
X162100000Y-101450000D01*
X162100000Y-109100000D01*
X152700000Y-109100000D01*
X152700000Y-101450000D01*
G37*
%TO.C,FID1*%
G36*
X148400000Y-59300000D02*
G01*
X140400000Y-59300000D01*
X140400000Y-57300000D01*
X148400000Y-57300000D01*
X148400000Y-59300000D01*
G37*
D11*
X148400000Y-59300000D02*
X140400000Y-59300000D01*
X140400000Y-57300000D01*
X148400000Y-57300000D01*
X148400000Y-59300000D01*
%TD*%
D12*
%TO.C,D5*%
X129700000Y-75800000D03*
D13*
X129700000Y-78340000D03*
%TD*%
D12*
%TO.C,D3*%
X132960000Y-140000000D03*
D13*
X135500000Y-140000000D03*
%TD*%
D14*
%TO.C,TP3*%
X149300000Y-94000000D03*
%TD*%
D12*
%TO.C,D4*%
X129700000Y-57725000D03*
D13*
X129700000Y-60265000D03*
%TD*%
D12*
%TO.C,D6*%
X129700000Y-93800000D03*
D13*
X129700000Y-96340000D03*
%TD*%
D14*
%TO.C,TP2*%
X160500000Y-117500000D03*
%TD*%
D15*
%TO.C,J2*%
X160500000Y-142380000D03*
D16*
X160500000Y-139840000D03*
X160500000Y-137300000D03*
X160500000Y-134760000D03*
%TD*%
D17*
%TO.C,J3*%
X157215000Y-152700000D03*
X157215000Y-147700000D03*
D18*
X159915000Y-146700000D03*
X159915000Y-153700000D03*
%TD*%
D19*
%TO.C,J5*%
X127600000Y-85000000D03*
D20*
X138600000Y-90200000D03*
D19*
X140800000Y-85000000D03*
%TD*%
D14*
%TO.C,TP1*%
X160500000Y-124600000D03*
%TD*%
D19*
%TO.C,J6*%
X127600000Y-103000000D03*
D20*
X138600000Y-108200000D03*
D19*
X140800000Y-103000000D03*
%TD*%
D21*
%TO.C,CONNECT1*%
X130890000Y-125340000D03*
X130890000Y-132350000D03*
D22*
X128400000Y-131100000D03*
X128400000Y-126600000D03*
%TD*%
D15*
%TO.C,J1*%
X155562500Y-70500000D03*
D16*
X158102500Y-70500000D03*
X155562500Y-73040000D03*
X158102500Y-73040000D03*
X155562500Y-75580000D03*
X158102500Y-75580000D03*
X155562500Y-78120000D03*
X158102500Y-78120000D03*
X155562500Y-80660000D03*
X158102500Y-80660000D03*
%TD*%
D21*
%TO.C,RESET1*%
X130890000Y-118350000D03*
X130890000Y-111340000D03*
D22*
X128400000Y-117100000D03*
X128400000Y-112600000D03*
%TD*%
D14*
%TO.C,TP4*%
X144000000Y-94000000D03*
%TD*%
D19*
%TO.C,J4*%
X127600000Y-67000000D03*
D20*
X138600000Y-72200000D03*
D19*
X140800000Y-67000000D03*
%TD*%
M02*
