%TF.GenerationSoftware,KiCad,Pcbnew,(6.0.4)*%
%TF.CreationDate,2022-03-21T17:18:23+00:00*%
%TF.ProjectId,Ball_Solder_Stencil,42616c6c-5f53-46f6-9c64-65725f537465,rev?*%
%TF.SameCoordinates,Original*%
%TF.FileFunction,Soldermask,Top*%
%TF.FilePolarity,Negative*%
%FSLAX46Y46*%
G04 Gerber Fmt 4.6, Leading zero omitted, Abs format (unit mm)*
G04 Created by KiCad (PCBNEW (6.0.4)) date 2022-03-21 17:18:23*
%MOMM*%
%LPD*%
G01*
G04 APERTURE LIST*
G04 Aperture macros list*
%AMRoundRect*
0 Rectangle with rounded corners*
0 $1 Rounding radius*
0 $2 $3 $4 $5 $6 $7 $8 $9 X,Y pos of 4 corners*
0 Add a 4 corners polygon primitive as box body*
4,1,4,$2,$3,$4,$5,$6,$7,$8,$9,$2,$3,0*
0 Add four circle primitives for the rounded corners*
1,1,$1+$1,$2,$3*
1,1,$1+$1,$4,$5*
1,1,$1+$1,$6,$7*
1,1,$1+$1,$8,$9*
0 Add four rect primitives between the rounded corners*
20,1,$1+$1,$2,$3,$4,$5,0*
20,1,$1+$1,$4,$5,$6,$7,0*
20,1,$1+$1,$6,$7,$8,$9,0*
20,1,$1+$1,$8,$9,$2,$3,0*%
%AMHorizOval*
0 Thick line with rounded ends*
0 $1 width*
0 $2 $3 position (X,Y) of the first rounded end (center of the circle)*
0 $4 $5 position (X,Y) of the second rounded end (center of the circle)*
0 Add line between two ends*
20,1,$1,$2,$3,$4,$5,0*
0 Add two circle primitives to create the rounded ends*
1,1,$1,$2,$3*
1,1,$1,$4,$5*%
%AMRotRect*
0 Rectangle, with rotation*
0 The origin of the aperture is its center*
0 $1 length*
0 $2 width*
0 $3 Rotation angle, in degrees counterclockwise*
0 Add horizontal line*
21,1,$1,$2,0,0,$3*%
G04 Aperture macros list end*
%ADD10C,0.010000*%
%ADD11O,0.950000X1.250000*%
%ADD12O,1.550000X1.000000*%
%ADD13R,1.350000X0.400000*%
%ADD14RoundRect,0.200000X-0.200000X-0.275000X0.200000X-0.275000X0.200000X0.275000X-0.200000X0.275000X0*%
%ADD15RoundRect,0.218750X0.381250X-0.218750X0.381250X0.218750X-0.381250X0.218750X-0.381250X-0.218750X0*%
%ADD16RoundRect,0.225000X-0.250000X0.225000X-0.250000X-0.225000X0.250000X-0.225000X0.250000X0.225000X0*%
%ADD17RoundRect,0.150000X-0.150000X0.587500X-0.150000X-0.587500X0.150000X-0.587500X0.150000X0.587500X0*%
%ADD18RoundRect,0.250000X0.550000X-1.250000X0.550000X1.250000X-0.550000X1.250000X-0.550000X-1.250000X0*%
%ADD19RoundRect,0.200000X0.200000X0.275000X-0.200000X0.275000X-0.200000X-0.275000X0.200000X-0.275000X0*%
%ADD20RoundRect,0.225000X0.225000X0.250000X-0.225000X0.250000X-0.225000X-0.250000X0.225000X-0.250000X0*%
%ADD21R,2.000000X1.500000*%
%ADD22R,2.000000X3.800000*%
%ADD23RoundRect,0.250000X-0.550000X1.050000X-0.550000X-1.050000X0.550000X-1.050000X0.550000X1.050000X0*%
%ADD24R,1.200000X0.900000*%
%ADD25RoundRect,0.225000X-0.225000X-0.250000X0.225000X-0.250000X0.225000X0.250000X-0.225000X0.250000X0*%
%ADD26R,1.000000X2.200000*%
%ADD27RoundRect,0.250000X0.475000X-0.250000X0.475000X0.250000X-0.475000X0.250000X-0.475000X-0.250000X0*%
%ADD28RoundRect,0.200000X-0.275000X0.200000X-0.275000X-0.200000X0.275000X-0.200000X0.275000X0.200000X0*%
%ADD29R,2.500000X1.900000*%
%ADD30RoundRect,0.150000X-0.825000X-0.150000X0.825000X-0.150000X0.825000X0.150000X-0.825000X0.150000X0*%
%ADD31RoundRect,0.150000X0.825000X0.150000X-0.825000X0.150000X-0.825000X-0.150000X0.825000X-0.150000X0*%
%ADD32RoundRect,0.075000X-0.700000X-0.075000X0.700000X-0.075000X0.700000X0.075000X-0.700000X0.075000X0*%
%ADD33RoundRect,0.075000X-0.075000X-0.700000X0.075000X-0.700000X0.075000X0.700000X-0.075000X0.700000X0*%
%ADD34RoundRect,0.225000X0.250000X-0.225000X0.250000X0.225000X-0.250000X0.225000X-0.250000X-0.225000X0*%
%ADD35RoundRect,0.150000X-0.587500X-0.150000X0.587500X-0.150000X0.587500X0.150000X-0.587500X0.150000X0*%
%ADD36RoundRect,0.200000X0.275000X-0.200000X0.275000X0.200000X-0.275000X0.200000X-0.275000X-0.200000X0*%
%ADD37R,0.900000X0.800000*%
%ADD38RoundRect,0.218750X-0.218750X-0.256250X0.218750X-0.256250X0.218750X0.256250X-0.218750X0.256250X0*%
%ADD39R,0.600000X1.100000*%
%ADD40R,2.600000X1.500000*%
%ADD41RoundRect,0.140000X0.140000X0.170000X-0.140000X0.170000X-0.140000X-0.170000X0.140000X-0.170000X0*%
%ADD42RoundRect,0.140000X0.170000X-0.140000X0.170000X0.140000X-0.170000X0.140000X-0.170000X-0.140000X0*%
%ADD43RoundRect,0.100000X-0.175000X-0.100000X0.175000X-0.100000X0.175000X0.100000X-0.175000X0.100000X0*%
%ADD44RoundRect,0.100000X-0.100000X-0.175000X0.100000X-0.175000X0.100000X0.175000X-0.100000X0.175000X0*%
%ADD45RoundRect,0.147500X0.147500X0.172500X-0.147500X0.172500X-0.147500X-0.172500X0.147500X-0.172500X0*%
%ADD46R,3.200000X1.000000*%
%ADD47RoundRect,0.150000X-0.150000X0.512500X-0.150000X-0.512500X0.150000X-0.512500X0.150000X0.512500X0*%
%ADD48R,2.500000X1.800000*%
%ADD49RoundRect,0.062500X-0.062500X0.375000X-0.062500X-0.375000X0.062500X-0.375000X0.062500X0.375000X0*%
%ADD50RoundRect,0.062500X-0.375000X0.062500X-0.375000X-0.062500X0.375000X-0.062500X0.375000X0.062500X0*%
%ADD51R,5.150000X5.150000*%
%ADD52HorizOval,0.950000X0.106066X0.106066X-0.106066X-0.106066X0*%
%ADD53HorizOval,1.000000X-0.194454X0.194454X0.194454X-0.194454X0*%
%ADD54RotRect,1.350000X0.400000X135.000000*%
%ADD55RoundRect,0.250000X0.550000X-1.050000X0.550000X1.050000X-0.550000X1.050000X-0.550000X-1.050000X0*%
%ADD56R,1.500000X2.000000*%
%ADD57R,3.800000X2.000000*%
%ADD58RoundRect,0.250000X-0.550000X1.250000X-0.550000X-1.250000X0.550000X-1.250000X0.550000X1.250000X0*%
%ADD59RoundRect,0.218750X-0.218750X-0.381250X0.218750X-0.381250X0.218750X0.381250X-0.218750X0.381250X0*%
G04 APERTURE END LIST*
D10*
%TO.C,AE1*%
X208175000Y-93600000D02*
X210775000Y-93600000D01*
X210775000Y-93600000D02*
X210775000Y-92100000D01*
X210775000Y-92100000D02*
X208175000Y-92100000D01*
X208175000Y-92100000D02*
X208175000Y-93600000D01*
G36*
X208175000Y-93600000D02*
G01*
X210775000Y-93600000D01*
X210775000Y-92100000D01*
X208175000Y-92100000D01*
X208175000Y-93600000D01*
G37*
X120011250Y-131650000D02*
X122611250Y-131650000D01*
X122611250Y-131650000D02*
X122611250Y-130150000D01*
X122611250Y-130150000D02*
X120011250Y-130150000D01*
X120011250Y-130150000D02*
X120011250Y-131650000D01*
G36*
X120011250Y-131650000D02*
G01*
X122611250Y-131650000D01*
X122611250Y-130150000D01*
X120011250Y-130150000D01*
X120011250Y-131650000D01*
G37*
%TD*%
D11*
%TO.C,J3*%
X150915000Y-137850000D03*
X150915000Y-132850000D03*
D12*
X153615000Y-131850000D03*
D13*
X150915000Y-136650000D03*
X150915000Y-136000000D03*
X150915000Y-135350000D03*
X150915000Y-134700000D03*
X150915000Y-134050000D03*
D12*
X153615000Y-138850000D03*
%TD*%
D14*
%TO.C,R7*%
X67575000Y-120100000D03*
X69225000Y-120100000D03*
%TD*%
%TO.C,R15*%
X67575000Y-78300000D03*
X69225000Y-78300000D03*
%TD*%
D15*
%TO.C,L1*%
X54700000Y-53462500D03*
X54700000Y-51337500D03*
%TD*%
D14*
%TO.C,R9*%
X67575000Y-122100000D03*
X69225000Y-122100000D03*
%TD*%
D16*
%TO.C,C2*%
X62600000Y-111125000D03*
X62600000Y-112675000D03*
%TD*%
D17*
%TO.C,Q1*%
X65350000Y-132762500D03*
X63450000Y-132762500D03*
X64400000Y-134637500D03*
%TD*%
D18*
%TO.C,C22*%
X59900000Y-54600000D03*
X59900000Y-50200000D03*
%TD*%
D14*
%TO.C,R24*%
X67575000Y-87800000D03*
X69225000Y-87800000D03*
%TD*%
D19*
%TO.C,R26*%
X56425000Y-132100000D03*
X54775000Y-132100000D03*
%TD*%
D20*
%TO.C,C7*%
X57175000Y-106600000D03*
X55625000Y-106600000D03*
%TD*%
D14*
%TO.C,R2*%
X66075000Y-59000000D03*
X67725000Y-59000000D03*
%TD*%
D21*
%TO.C,U4*%
X65550000Y-49900000D03*
X65550000Y-52200000D03*
D22*
X71850000Y-52200000D03*
D21*
X65550000Y-54500000D03*
%TD*%
D23*
%TO.C,C21*%
X80800000Y-71000000D03*
X80800000Y-74600000D03*
%TD*%
D19*
%TO.C,R17*%
X56425000Y-82100000D03*
X54775000Y-82100000D03*
%TD*%
D23*
%TO.C,C24*%
X42925000Y-71000000D03*
X42925000Y-74600000D03*
%TD*%
D24*
%TO.C,D2*%
X76200000Y-74450000D03*
X76200000Y-71150000D03*
%TD*%
D25*
%TO.C,C15*%
X54825000Y-128100000D03*
X56375000Y-128100000D03*
%TD*%
D26*
%TO.C,RESET1*%
X46900000Y-98700000D03*
X46900000Y-91900000D03*
X42900000Y-98700000D03*
X42900000Y-91900000D03*
%TD*%
D16*
%TO.C,C3*%
X69300000Y-111125000D03*
X69300000Y-112675000D03*
%TD*%
D27*
%TO.C,C20*%
X51700000Y-53350000D03*
X51700000Y-51450000D03*
%TD*%
D17*
%TO.C,Q2*%
X60550000Y-132762500D03*
X58650000Y-132762500D03*
X59600000Y-134637500D03*
%TD*%
D14*
%TO.C,R25*%
X67575000Y-134200000D03*
X69225000Y-134200000D03*
%TD*%
D19*
%TO.C,R28*%
X38425000Y-75975000D03*
X36775000Y-75975000D03*
%TD*%
%TO.C,R27*%
X69225000Y-132100000D03*
X67575000Y-132100000D03*
%TD*%
D28*
%TO.C,R1*%
X63700000Y-93475000D03*
X63700000Y-95125000D03*
%TD*%
D19*
%TO.C,R10*%
X56425000Y-120100000D03*
X54775000Y-120100000D03*
%TD*%
D24*
%TO.C,D3*%
X47400000Y-71150000D03*
X47400000Y-74450000D03*
%TD*%
D29*
%TO.C,Y1*%
X55600000Y-103800000D03*
X55600000Y-99400000D03*
%TD*%
D30*
%TO.C,U2*%
X59525000Y-83095000D03*
X59525000Y-84365000D03*
X59525000Y-85635000D03*
X59525000Y-86905000D03*
X64475000Y-86905000D03*
X64475000Y-85635000D03*
X64475000Y-84365000D03*
X64475000Y-83095000D03*
%TD*%
D19*
%TO.C,R14*%
X56425000Y-126100000D03*
X54775000Y-126100000D03*
%TD*%
%TO.C,R11*%
X56425000Y-118100000D03*
X54775000Y-118100000D03*
%TD*%
%TO.C,R13*%
X56425000Y-124100000D03*
X54775000Y-124100000D03*
%TD*%
D31*
%TO.C,U3*%
X64475000Y-126910000D03*
X64475000Y-125640000D03*
X64475000Y-124370000D03*
X64475000Y-123100000D03*
X64475000Y-121830000D03*
X64475000Y-120560000D03*
X64475000Y-119290000D03*
X59525000Y-119290000D03*
X59525000Y-120560000D03*
X59525000Y-121830000D03*
X59525000Y-123100000D03*
X59525000Y-124370000D03*
X59525000Y-125640000D03*
X59525000Y-126910000D03*
%TD*%
D32*
%TO.C,U1*%
X59725000Y-99350000D03*
X59725000Y-99850000D03*
X59725000Y-100350000D03*
X59725000Y-100850000D03*
X59725000Y-101350000D03*
X59725000Y-101850000D03*
X59725000Y-102350000D03*
X59725000Y-102850000D03*
X59725000Y-103350000D03*
X59725000Y-103850000D03*
X59725000Y-104350000D03*
X59725000Y-104850000D03*
X59725000Y-105350000D03*
X59725000Y-105850000D03*
X59725000Y-106350000D03*
X59725000Y-106850000D03*
D33*
X61650000Y-108775000D03*
X62150000Y-108775000D03*
X62650000Y-108775000D03*
X63150000Y-108775000D03*
X63650000Y-108775000D03*
X64150000Y-108775000D03*
X64650000Y-108775000D03*
X65150000Y-108775000D03*
X65650000Y-108775000D03*
X66150000Y-108775000D03*
X66650000Y-108775000D03*
X67150000Y-108775000D03*
X67650000Y-108775000D03*
X68150000Y-108775000D03*
X68650000Y-108775000D03*
X69150000Y-108775000D03*
D32*
X71075000Y-106850000D03*
X71075000Y-106350000D03*
X71075000Y-105850000D03*
X71075000Y-105350000D03*
X71075000Y-104850000D03*
X71075000Y-104350000D03*
X71075000Y-103850000D03*
X71075000Y-103350000D03*
X71075000Y-102850000D03*
X71075000Y-102350000D03*
X71075000Y-101850000D03*
X71075000Y-101350000D03*
X71075000Y-100850000D03*
X71075000Y-100350000D03*
X71075000Y-99850000D03*
X71075000Y-99350000D03*
D33*
X69150000Y-97425000D03*
X68650000Y-97425000D03*
X68150000Y-97425000D03*
X67650000Y-97425000D03*
X67150000Y-97425000D03*
X66650000Y-97425000D03*
X66150000Y-97425000D03*
X65650000Y-97425000D03*
X65150000Y-97425000D03*
X64650000Y-97425000D03*
X64150000Y-97425000D03*
X63650000Y-97425000D03*
X63150000Y-97425000D03*
X62650000Y-97425000D03*
X62150000Y-97425000D03*
X61650000Y-97425000D03*
%TD*%
D19*
%TO.C,R12*%
X56425000Y-122100000D03*
X54775000Y-122100000D03*
%TD*%
%TO.C,R19*%
X56425000Y-80200000D03*
X54775000Y-80200000D03*
%TD*%
%TO.C,R20*%
X56425000Y-87800000D03*
X54775000Y-87800000D03*
%TD*%
D14*
%TO.C,R22*%
X67575000Y-85900000D03*
X69225000Y-85900000D03*
%TD*%
%TO.C,R5*%
X67575000Y-126100000D03*
X69225000Y-126100000D03*
%TD*%
%TO.C,R8*%
X67575000Y-118100000D03*
X69225000Y-118100000D03*
%TD*%
%TO.C,R4*%
X67575000Y-124100000D03*
X69225000Y-124100000D03*
%TD*%
%TO.C,R21*%
X67575000Y-82100000D03*
X69225000Y-82100000D03*
%TD*%
D19*
%TO.C,R18*%
X56425000Y-85900000D03*
X54775000Y-85900000D03*
%TD*%
%TO.C,R23*%
X69225000Y-80200000D03*
X67575000Y-80200000D03*
%TD*%
D14*
%TO.C,R6*%
X67575000Y-130100000D03*
X69225000Y-130100000D03*
%TD*%
D19*
%TO.C,R16*%
X56425000Y-130100000D03*
X54775000Y-130100000D03*
%TD*%
D25*
%TO.C,C23*%
X36825000Y-73975000D03*
X38375000Y-73975000D03*
%TD*%
D20*
%TO.C,C18*%
X69175000Y-84000000D03*
X67625000Y-84000000D03*
%TD*%
D25*
%TO.C,C16*%
X54825000Y-84000000D03*
X56375000Y-84000000D03*
%TD*%
D20*
%TO.C,C19*%
X69175000Y-89700000D03*
X67625000Y-89700000D03*
%TD*%
D25*
%TO.C,C17*%
X54825000Y-89700000D03*
X56375000Y-89700000D03*
%TD*%
%TO.C,C9*%
X73625000Y-100500000D03*
X75175000Y-100500000D03*
%TD*%
D34*
%TO.C,C8*%
X67600000Y-112675000D03*
X67600000Y-111125000D03*
%TD*%
%TO.C,C11*%
X52500000Y-104250000D03*
X52500000Y-102700000D03*
%TD*%
D16*
%TO.C,C10*%
X52500000Y-98900000D03*
X52500000Y-100450000D03*
%TD*%
D25*
%TO.C,C14*%
X54825000Y-116100000D03*
X56375000Y-116100000D03*
%TD*%
D20*
%TO.C,C12*%
X69175000Y-128100000D03*
X67625000Y-128100000D03*
%TD*%
%TO.C,C13*%
X69175000Y-116100000D03*
X67625000Y-116100000D03*
%TD*%
D34*
%TO.C,C5*%
X61600000Y-95075000D03*
X61600000Y-93525000D03*
%TD*%
D25*
%TO.C,C4*%
X73625000Y-98800000D03*
X75175000Y-98800000D03*
%TD*%
D35*
%TO.C,U7*%
X36662500Y-69850000D03*
X36662500Y-71750000D03*
X38537500Y-70800000D03*
%TD*%
D14*
%TO.C,R3*%
X54775000Y-78300000D03*
X56425000Y-78300000D03*
%TD*%
D20*
%TO.C,C6*%
X57175000Y-108300000D03*
X55625000Y-108300000D03*
%TD*%
D34*
%TO.C,C1*%
X58400000Y-97575000D03*
X58400000Y-96025000D03*
%TD*%
D36*
%TO.C,R2*%
X236000000Y-112325000D03*
X236000000Y-110675000D03*
%TD*%
D16*
%TO.C,C8*%
X224400000Y-98825000D03*
X224400000Y-100375000D03*
%TD*%
%TO.C,C1*%
X221200000Y-86925000D03*
X221200000Y-88475000D03*
%TD*%
D28*
%TO.C,R6*%
X227700000Y-107175000D03*
X227700000Y-108825000D03*
%TD*%
D34*
%TO.C,C6*%
X225300000Y-88475000D03*
X225300000Y-86925000D03*
%TD*%
D37*
%TO.C,Y1*%
X218975000Y-100325000D03*
X220625000Y-100325000D03*
X220625000Y-99075000D03*
X218975000Y-99075000D03*
%TD*%
D38*
%TO.C,D3*%
X264612500Y-69100000D03*
X266187500Y-69100000D03*
%TD*%
D34*
%TO.C,C13*%
X243800000Y-88475000D03*
X243800000Y-86925000D03*
%TD*%
%TO.C,C19*%
X219500000Y-110475000D03*
X219500000Y-108925000D03*
%TD*%
D39*
%TO.C,Y2*%
X224900000Y-84300000D03*
X223500000Y-84300000D03*
%TD*%
D40*
%TO.C,AE1*%
X209475000Y-87750000D03*
%TD*%
D41*
%TO.C,C7*%
X217380000Y-92700000D03*
X216420000Y-92700000D03*
%TD*%
D42*
%TO.C,C22*%
X214400000Y-94920000D03*
X214400000Y-93960000D03*
%TD*%
D43*
%TO.C,U2*%
X240300000Y-91025000D03*
X240300000Y-91675000D03*
X240300000Y-92325000D03*
X240300000Y-92975000D03*
D44*
X241025000Y-93700000D03*
X241675000Y-93700000D03*
X242325000Y-93700000D03*
X242975000Y-93700000D03*
D43*
X243700000Y-92975000D03*
X243700000Y-92325000D03*
X243700000Y-91675000D03*
X243700000Y-91025000D03*
D44*
X242975000Y-90300000D03*
X242325000Y-90300000D03*
X241675000Y-90300000D03*
X241025000Y-90300000D03*
%TD*%
D34*
%TO.C,C3*%
X240200000Y-88475000D03*
X240200000Y-86925000D03*
%TD*%
D28*
%TO.C,R3*%
X244400000Y-108875000D03*
X244400000Y-110525000D03*
%TD*%
D25*
%TO.C,C9*%
X227743750Y-90900000D03*
X229293750Y-90900000D03*
%TD*%
D41*
%TO.C,C15*%
X217380000Y-96300000D03*
X216420000Y-96300000D03*
%TD*%
D45*
%TO.C,L1*%
X216385000Y-94950000D03*
X215415000Y-94950000D03*
%TD*%
D16*
%TO.C,C11*%
X236000000Y-107225000D03*
X236000000Y-108775000D03*
%TD*%
D46*
%TO.C,CONNECT1*%
X268800000Y-75100000D03*
X262000000Y-75100000D03*
X268800000Y-79100000D03*
X262000000Y-79100000D03*
%TD*%
D17*
%TO.C,Q1*%
X233750000Y-108762500D03*
X231850000Y-108762500D03*
X232800000Y-110637500D03*
%TD*%
D47*
%TO.C,U4*%
X223650000Y-108562500D03*
X222700000Y-108562500D03*
X221750000Y-108562500D03*
X221750000Y-110837500D03*
X223650000Y-110837500D03*
%TD*%
D36*
%TO.C,R4*%
X228918750Y-88506250D03*
X228918750Y-86856250D03*
%TD*%
D48*
%TO.C,D1*%
X230800000Y-117787500D03*
X234800000Y-117787500D03*
%TD*%
D36*
%TO.C,R7*%
X225800000Y-108825000D03*
X225800000Y-107175000D03*
%TD*%
D16*
%TO.C,C17*%
X221700000Y-82725000D03*
X221700000Y-84275000D03*
%TD*%
%TO.C,C18*%
X227700000Y-110725000D03*
X227700000Y-112275000D03*
%TD*%
D34*
%TO.C,C2*%
X242000000Y-88475000D03*
X242000000Y-86925000D03*
%TD*%
D49*
%TO.C,U3*%
X224950000Y-90262500D03*
X224450000Y-90262500D03*
X223950000Y-90262500D03*
X223450000Y-90262500D03*
X222950000Y-90262500D03*
X222450000Y-90262500D03*
X221950000Y-90262500D03*
X221450000Y-90262500D03*
X220950000Y-90262500D03*
X220450000Y-90262500D03*
X219950000Y-90262500D03*
X219450000Y-90262500D03*
D50*
X218762500Y-90950000D03*
X218762500Y-91450000D03*
X218762500Y-91950000D03*
X218762500Y-92450000D03*
X218762500Y-92950000D03*
X218762500Y-93450000D03*
X218762500Y-93950000D03*
X218762500Y-94450000D03*
X218762500Y-94950000D03*
X218762500Y-95450000D03*
X218762500Y-95950000D03*
X218762500Y-96450000D03*
D49*
X219450000Y-97137500D03*
X219950000Y-97137500D03*
X220450000Y-97137500D03*
X220950000Y-97137500D03*
X221450000Y-97137500D03*
X221950000Y-97137500D03*
X222450000Y-97137500D03*
X222950000Y-97137500D03*
X223450000Y-97137500D03*
X223950000Y-97137500D03*
X224450000Y-97137500D03*
X224950000Y-97137500D03*
D50*
X225637500Y-96450000D03*
X225637500Y-95950000D03*
X225637500Y-95450000D03*
X225637500Y-94950000D03*
X225637500Y-94450000D03*
X225637500Y-93950000D03*
X225637500Y-93450000D03*
X225637500Y-92950000D03*
X225637500Y-92450000D03*
X225637500Y-91950000D03*
X225637500Y-91450000D03*
X225637500Y-90950000D03*
D51*
X222200000Y-93700000D03*
%TD*%
D34*
%TO.C,C20*%
X225800000Y-112275000D03*
X225800000Y-110725000D03*
%TD*%
D16*
%TO.C,C12*%
X229500000Y-110725000D03*
X229500000Y-112275000D03*
%TD*%
%TO.C,C16*%
X226700000Y-82725000D03*
X226700000Y-84275000D03*
%TD*%
D19*
%TO.C,R8*%
X266225000Y-71000000D03*
X264575000Y-71000000D03*
%TD*%
D36*
%TO.C,R5*%
X229500000Y-108825000D03*
X229500000Y-107175000D03*
%TD*%
D52*
%TO.C,J2*%
X262662205Y-115110239D03*
X266197739Y-111574705D03*
D53*
X268814034Y-112776786D03*
D54*
X263510733Y-114261711D03*
X263970352Y-113802091D03*
X264429972Y-113342472D03*
X264889591Y-112882852D03*
X265349211Y-112423233D03*
D53*
X263864286Y-117726534D03*
%TD*%
D36*
%TO.C,R1*%
X237900000Y-112325000D03*
X237900000Y-110675000D03*
%TD*%
D47*
%TO.C,U1*%
X242150000Y-108562500D03*
X241200000Y-108562500D03*
X240250000Y-108562500D03*
X240250000Y-110837500D03*
X242150000Y-110837500D03*
%TD*%
D20*
%TO.C,C14*%
X217075000Y-97600000D03*
X215525000Y-97600000D03*
%TD*%
D25*
%TO.C,C10*%
X228243750Y-95581250D03*
X229793750Y-95581250D03*
%TD*%
D34*
%TO.C,C4*%
X237900000Y-108775000D03*
X237900000Y-107225000D03*
%TD*%
D42*
%TO.C,C21*%
X217400000Y-94950000D03*
X217400000Y-93990000D03*
%TD*%
D34*
%TO.C,C5*%
X227100000Y-88475000D03*
X227100000Y-86925000D03*
%TD*%
D38*
%TO.C,D2*%
X249412500Y-113300000D03*
X250987500Y-113300000D03*
%TD*%
D25*
%TO.C,C19*%
X145525000Y-102950000D03*
X147075000Y-102950000D03*
%TD*%
D20*
%TO.C,C17*%
X134875000Y-114850000D03*
X133325000Y-114850000D03*
%TD*%
D14*
%TO.C,R10*%
X133250000Y-106350000D03*
X134900000Y-106350000D03*
%TD*%
D25*
%TO.C,C22*%
X133325000Y-109750000D03*
X134875000Y-109750000D03*
%TD*%
D20*
%TO.C,C20*%
X147075000Y-109750000D03*
X145525000Y-109750000D03*
%TD*%
D19*
%TO.C,R14*%
X147125000Y-101250000D03*
X145475000Y-101250000D03*
%TD*%
D28*
%TO.C,R1*%
X135136250Y-124925000D03*
X135136250Y-126575000D03*
%TD*%
D41*
%TO.C,C9*%
X129216250Y-134350000D03*
X128256250Y-134350000D03*
%TD*%
D55*
%TO.C,C10*%
X148900000Y-77637500D03*
X148900000Y-74037500D03*
%TD*%
D14*
%TO.C,R11*%
X133275000Y-108050000D03*
X134925000Y-108050000D03*
%TD*%
D24*
%TO.C,D2*%
X153400000Y-47300000D03*
X153400000Y-44000000D03*
%TD*%
D30*
%TO.C,U4*%
X137725000Y-100245000D03*
X137725000Y-101515000D03*
X137725000Y-102785000D03*
X137725000Y-104055000D03*
X142675000Y-104055000D03*
X142675000Y-102785000D03*
X142675000Y-101515000D03*
X142675000Y-100245000D03*
%TD*%
D45*
%TO.C,L1*%
X128221250Y-133000000D03*
X127251250Y-133000000D03*
%TD*%
D19*
%TO.C,R9*%
X147125000Y-106350000D03*
X145475000Y-106350000D03*
%TD*%
D56*
%TO.C,U2*%
X153300000Y-82250000D03*
D57*
X151000000Y-88550000D03*
D56*
X151000000Y-82250000D03*
X148700000Y-82250000D03*
%TD*%
D14*
%TO.C,R12*%
X133275000Y-101250000D03*
X134925000Y-101250000D03*
%TD*%
D19*
%TO.C,R4*%
X147125000Y-118250000D03*
X145475000Y-118250000D03*
%TD*%
D16*
%TO.C,C4*%
X136236250Y-136875000D03*
X136236250Y-138425000D03*
%TD*%
D14*
%TO.C,R2*%
X133275000Y-116550000D03*
X134925000Y-116550000D03*
%TD*%
D16*
%TO.C,C7*%
X133336250Y-124975000D03*
X133336250Y-126525000D03*
%TD*%
D34*
%TO.C,C2*%
X136936250Y-126525000D03*
X136936250Y-124975000D03*
%TD*%
D37*
%TO.C,Y1*%
X130811250Y-138375000D03*
X132461250Y-138375000D03*
X132461250Y-137125000D03*
X130811250Y-137125000D03*
%TD*%
D19*
%TO.C,R5*%
X147125000Y-116550000D03*
X145475000Y-116550000D03*
%TD*%
D24*
%TO.C,D1*%
X153400000Y-77487500D03*
X153400000Y-74187500D03*
%TD*%
D20*
%TO.C,C8*%
X128911250Y-135650000D03*
X127361250Y-135650000D03*
%TD*%
D31*
%TO.C,U3*%
X142675000Y-117460000D03*
X142675000Y-116190000D03*
X142675000Y-114920000D03*
X142675000Y-113650000D03*
X142675000Y-112380000D03*
X142675000Y-111110000D03*
X142675000Y-109840000D03*
X137725000Y-109840000D03*
X137725000Y-111110000D03*
X137725000Y-112380000D03*
X137725000Y-113650000D03*
X137725000Y-114920000D03*
X137725000Y-116190000D03*
X137725000Y-117460000D03*
%TD*%
D20*
%TO.C,C18*%
X147075000Y-111450000D03*
X145525000Y-111450000D03*
%TD*%
D40*
%TO.C,AE1*%
X121311250Y-125800000D03*
%TD*%
D19*
%TO.C,R7*%
X147125000Y-108050000D03*
X145475000Y-108050000D03*
%TD*%
D58*
%TO.C,C14*%
X151000000Y-92800000D03*
X151000000Y-97200000D03*
%TD*%
D55*
%TO.C,C11*%
X148900000Y-47450000D03*
X148900000Y-43850000D03*
%TD*%
D14*
%TO.C,R16*%
X133275000Y-99550000D03*
X134925000Y-99550000D03*
%TD*%
D19*
%TO.C,R3*%
X147125000Y-114850000D03*
X145475000Y-114850000D03*
%TD*%
D14*
%TO.C,R17*%
X127450000Y-128360000D03*
X129100000Y-128360000D03*
%TD*%
D19*
%TO.C,R15*%
X134925000Y-111450000D03*
X133275000Y-111450000D03*
%TD*%
D49*
%TO.C,U1*%
X136786250Y-128312500D03*
X136286250Y-128312500D03*
X135786250Y-128312500D03*
X135286250Y-128312500D03*
X134786250Y-128312500D03*
X134286250Y-128312500D03*
X133786250Y-128312500D03*
X133286250Y-128312500D03*
X132786250Y-128312500D03*
X132286250Y-128312500D03*
X131786250Y-128312500D03*
X131286250Y-128312500D03*
D50*
X130598750Y-129000000D03*
X130598750Y-129500000D03*
X130598750Y-130000000D03*
X130598750Y-130500000D03*
X130598750Y-131000000D03*
X130598750Y-131500000D03*
X130598750Y-132000000D03*
X130598750Y-132500000D03*
X130598750Y-133000000D03*
X130598750Y-133500000D03*
X130598750Y-134000000D03*
X130598750Y-134500000D03*
D49*
X131286250Y-135187500D03*
X131786250Y-135187500D03*
X132286250Y-135187500D03*
X132786250Y-135187500D03*
X133286250Y-135187500D03*
X133786250Y-135187500D03*
X134286250Y-135187500D03*
X134786250Y-135187500D03*
X135286250Y-135187500D03*
X135786250Y-135187500D03*
X136286250Y-135187500D03*
X136786250Y-135187500D03*
D50*
X137473750Y-134500000D03*
X137473750Y-134000000D03*
X137473750Y-133500000D03*
X137473750Y-133000000D03*
X137473750Y-132500000D03*
X137473750Y-132000000D03*
X137473750Y-131500000D03*
X137473750Y-131000000D03*
X137473750Y-130500000D03*
X137473750Y-130000000D03*
X137473750Y-129500000D03*
X137473750Y-129000000D03*
D51*
X134036250Y-131750000D03*
%TD*%
D14*
%TO.C,R6*%
X133275000Y-118250000D03*
X134925000Y-118250000D03*
%TD*%
D34*
%TO.C,C1*%
X138736250Y-126525000D03*
X138736250Y-124975000D03*
%TD*%
D25*
%TO.C,C6*%
X139561250Y-132950000D03*
X141111250Y-132950000D03*
%TD*%
%TO.C,C5*%
X139580000Y-128950000D03*
X141130000Y-128950000D03*
%TD*%
%TO.C,C21*%
X133300000Y-104650000D03*
X134850000Y-104650000D03*
%TD*%
D42*
%TO.C,C12*%
X129236250Y-133000000D03*
X129236250Y-132040000D03*
%TD*%
D20*
%TO.C,C16*%
X147075000Y-113150000D03*
X145525000Y-113150000D03*
%TD*%
D42*
%TO.C,C13*%
X126236250Y-132970000D03*
X126236250Y-132010000D03*
%TD*%
D25*
%TO.C,C15*%
X133325000Y-113150000D03*
X134875000Y-113150000D03*
%TD*%
D41*
%TO.C,C3*%
X129216250Y-130750000D03*
X128256250Y-130750000D03*
%TD*%
D59*
%TO.C,L2*%
X133092500Y-122750000D03*
X135217500Y-122750000D03*
%TD*%
D19*
%TO.C,R8*%
X147125000Y-104650000D03*
X145475000Y-104650000D03*
%TD*%
D14*
%TO.C,R13*%
X133275000Y-102950000D03*
X134925000Y-102950000D03*
%TD*%
M02*
