%TF.GenerationSoftware,KiCad,Pcbnew,(6.0.1)*%
%TF.CreationDate,2022-03-12T16:33:18+00:00*%
%TF.ProjectId,Ball_Remote_Components,42616c6c-5f52-4656-9d6f-74655f436f6d,rev?*%
%TF.SameCoordinates,Original*%
%TF.FileFunction,Copper,L2,Inr*%
%TF.FilePolarity,Positive*%
%FSLAX46Y46*%
G04 Gerber Fmt 4.6, Leading zero omitted, Abs format (unit mm)*
G04 Created by KiCad (PCBNEW (6.0.1)) date 2022-03-12 16:33:18*
%MOMM*%
%LPD*%
G01*
G04 APERTURE LIST*
G04 Aperture macros list*
%AMHorizOval*
0 Thick line with rounded ends*
0 $1 width*
0 $2 $3 position (X,Y) of the first rounded end (center of the circle)*
0 $4 $5 position (X,Y) of the second rounded end (center of the circle)*
0 Add line between two ends*
20,1,$1,$2,$3,$4,$5,0*
0 Add two circle primitives to create the rounded ends*
1,1,$1,$2,$3*
1,1,$1,$4,$5*%
G04 Aperture macros list end*
%TA.AperFunction,ComponentPad*%
%ADD10R,1.700000X1.700000*%
%TD*%
%TA.AperFunction,ComponentPad*%
%ADD11O,1.700000X1.700000*%
%TD*%
%TA.AperFunction,ComponentPad*%
%ADD12R,2.500000X2.000000*%
%TD*%
%TA.AperFunction,ComponentPad*%
%ADD13O,2.500000X2.000000*%
%TD*%
%TA.AperFunction,ComponentPad*%
%ADD14C,2.000000*%
%TD*%
%TA.AperFunction,ComponentPad*%
%ADD15C,1.700000*%
%TD*%
%TA.AperFunction,ComponentPad*%
%ADD16HorizOval,0.950000X0.106066X0.106066X-0.106066X-0.106066X0*%
%TD*%
%TA.AperFunction,ComponentPad*%
%ADD17HorizOval,1.000000X-0.194454X0.194454X0.194454X-0.194454X0*%
%TD*%
%TA.AperFunction,ComponentPad*%
%ADD18C,0.500000*%
%TD*%
%TA.AperFunction,ComponentPad*%
%ADD19C,2.100000*%
%TD*%
%TA.AperFunction,ComponentPad*%
%ADD20C,1.750000*%
%TD*%
%TA.AperFunction,ViaPad*%
%ADD21C,1.000000*%
%TD*%
%TA.AperFunction,ViaPad*%
%ADD22C,0.400000*%
%TD*%
%TA.AperFunction,ViaPad*%
%ADD23C,0.800000*%
%TD*%
G04 APERTURE END LIST*
D10*
%TO.N,+2V8*%
%TO.C,J2*%
X156100000Y-86687500D03*
D11*
%TO.N,GND*%
X153560000Y-86687500D03*
%TO.N,/I2C_CLK*%
X151020000Y-86687500D03*
%TO.N,/12C_SDA*%
X148480000Y-86687500D03*
%TO.N,/G_INT*%
X145940000Y-86687500D03*
%TO.N,/G_RDY*%
X143400000Y-86687500D03*
%TO.N,unconnected-(J2-Pad7)*%
X140860000Y-86687500D03*
%TO.N,unconnected-(J2-Pad8)*%
X138320000Y-86687500D03*
%TO.N,unconnected-(J2-Pad9)*%
X135780000Y-86687500D03*
%TO.N,unconnected-(J2-Pad10)*%
X133240000Y-86687500D03*
%TD*%
D12*
%TO.N,/BATT_ON_OFF*%
%TO.C,SW1*%
X169475000Y-109887500D03*
D13*
%TO.N,/BATT+*%
X169475000Y-105187500D03*
%TO.N,unconnected-(SW1-Pad3)*%
X169475000Y-100487500D03*
%TD*%
D10*
%TO.N,/BATT+*%
%TO.C,BT1*%
X168200000Y-115187500D03*
D11*
%TO.N,GND*%
X170740000Y-115187500D03*
%TD*%
D14*
%TO.N,+2V8*%
%TO.C,TP2*%
X160175000Y-135087500D03*
%TD*%
D10*
%TO.N,+2V8*%
%TO.C,J3*%
X176575000Y-109097500D03*
D15*
%TO.N,GND*%
X176575000Y-106557500D03*
%TO.N,/SWIO*%
X176575000Y-104017500D03*
%TO.N,/SWCLK*%
X176575000Y-101477500D03*
%TD*%
D16*
%TO.N,*%
%TO.C,J1*%
X166762205Y-129910239D03*
X170297739Y-126374705D03*
D17*
X172914034Y-127576786D03*
%TO.N,unconnected-(J1-Pad6)*%
X167964286Y-132526534D03*
%TD*%
D14*
%TO.N,GND*%
%TO.C,TP1*%
X130875000Y-135087500D03*
%TD*%
D18*
%TO.N,GND*%
%TO.C,U1*%
X123975000Y-106175000D03*
X128625000Y-110825000D03*
X127462500Y-106175000D03*
X127462500Y-107337500D03*
X125137500Y-110825000D03*
X126300000Y-106175000D03*
X128625000Y-109662500D03*
X126300000Y-108500000D03*
X123975000Y-108500000D03*
X127462500Y-110825000D03*
X123975000Y-110825000D03*
X126300000Y-110825000D03*
X125137500Y-106175000D03*
X126300000Y-107337500D03*
X127462500Y-109662500D03*
X128625000Y-108500000D03*
X127462500Y-108500000D03*
X125137500Y-108500000D03*
X126300000Y-109662500D03*
X125137500Y-109662500D03*
X128625000Y-106175000D03*
X125137500Y-107337500D03*
X123975000Y-109662500D03*
X123975000Y-107337500D03*
X128625000Y-107337500D03*
%TD*%
D19*
%TO.N,*%
%TO.C,RESET1*%
X120789959Y-85269884D03*
X125746778Y-80313066D03*
D20*
%TO.N,/RESET*%
X119913147Y-82625305D03*
%TO.N,GND*%
X123095128Y-79443324D03*
%TD*%
D14*
%TO.N,VCC*%
%TO.C,TP3*%
X152775000Y-135087500D03*
%TD*%
D21*
%TO.N,/BATT_ON_OFF*%
X143800000Y-120412500D03*
%TO.N,GND*%
X134918750Y-110381250D03*
D22*
X122019174Y-110310500D03*
X118500000Y-107000000D03*
D23*
X129600000Y-115100000D03*
D22*
X118500000Y-107800000D03*
X118500000Y-100200000D03*
D21*
X142875000Y-121887500D03*
X133075000Y-128187500D03*
D23*
X125800000Y-115100000D03*
D22*
X120000000Y-109080000D03*
X118500000Y-105400000D03*
X119980000Y-110380000D03*
D21*
X129475000Y-121187500D03*
X139175000Y-124287500D03*
D22*
X120940000Y-109100000D03*
D23*
X127400000Y-115100000D03*
D22*
X118500000Y-104600000D03*
D21*
X127275000Y-122087500D03*
D22*
X120970000Y-110360000D03*
D21*
X169328544Y-125375024D03*
D22*
X117900000Y-111000000D03*
D21*
X127170517Y-113005441D03*
D22*
X118930000Y-110430000D03*
D23*
X122775000Y-123787500D03*
D21*
X124218750Y-100581250D03*
D23*
X119600000Y-113600000D03*
D21*
X144975000Y-121587500D03*
D22*
X118950000Y-109060000D03*
D21*
X142600000Y-127800000D03*
D22*
X118500000Y-103800000D03*
D23*
X118300000Y-112300000D03*
D22*
X118500000Y-106200000D03*
D21*
%TO.N,+2V8*%
X124218750Y-103081250D03*
X129718750Y-113600000D03*
X131818750Y-104500000D03*
X132918750Y-111281250D03*
X145200000Y-103800000D03*
X121460000Y-106740000D03*
X130275000Y-128087500D03*
X121170000Y-113360000D03*
X128875000Y-128087500D03*
%TO.N,/Battery_Level*%
X132175000Y-120187500D03*
X121818750Y-101581250D03*
D23*
%TO.N,/SPI_MISO*%
X142275000Y-106987500D03*
X142275000Y-105387500D03*
%TO.N,/SPI_MOSI*%
X141075000Y-103787500D03*
X141075000Y-107787500D03*
%TO.N,/BOOT0*%
X134218750Y-101681250D03*
X127218750Y-100681250D03*
%TD*%
%TA.AperFunction,Conductor*%
%TO.N,GND*%
G36*
X146183020Y-68300339D02*
G01*
X147034958Y-68313722D01*
X147038914Y-68313846D01*
X148195751Y-68368401D01*
X148199702Y-68368649D01*
X149354296Y-68459518D01*
X149358236Y-68459891D01*
X149847736Y-68513932D01*
X150509381Y-68586978D01*
X150513251Y-68587467D01*
X151179752Y-68682324D01*
X151659861Y-68750654D01*
X151663770Y-68751273D01*
X152199940Y-68844849D01*
X152804695Y-68950396D01*
X152808533Y-68951128D01*
X153352152Y-69063706D01*
X153942602Y-69185983D01*
X153946465Y-69186846D01*
X154764666Y-69383279D01*
X155072639Y-69457217D01*
X155076453Y-69458196D01*
X156193538Y-69763796D01*
X156197305Y-69764890D01*
X157304266Y-70105435D01*
X157308010Y-70106651D01*
X157462263Y-70159464D01*
X158403728Y-70481801D01*
X158407452Y-70483142D01*
X159490811Y-70892508D01*
X159494481Y-70893961D01*
X159697350Y-70977992D01*
X160564462Y-71337162D01*
X160568095Y-71338734D01*
X161067654Y-71564293D01*
X161623663Y-71815341D01*
X161627213Y-71817013D01*
X162191319Y-72093365D01*
X162667237Y-72326515D01*
X162670715Y-72328286D01*
X163694338Y-72870266D01*
X163697693Y-72872110D01*
X164220473Y-73170299D01*
X164703743Y-73445952D01*
X164707150Y-73447967D01*
X165011121Y-73634240D01*
X165694640Y-74053101D01*
X165697942Y-74055196D01*
X166427383Y-74534350D01*
X166665933Y-74691048D01*
X166669207Y-74693273D01*
X167616745Y-75359214D01*
X167619947Y-75361541D01*
X168546068Y-76056893D01*
X168549196Y-76059319D01*
X169453056Y-76783447D01*
X169456105Y-76785970D01*
X170336736Y-77538099D01*
X170339706Y-77540717D01*
X171162921Y-78289785D01*
X171196300Y-78320158D01*
X171199180Y-78322863D01*
X172030904Y-79128859D01*
X172033641Y-79131596D01*
X172715080Y-79834786D01*
X172839633Y-79963315D01*
X172842338Y-79966195D01*
X173073633Y-80220385D01*
X173621783Y-80822794D01*
X173624401Y-80825764D01*
X174376530Y-81706395D01*
X174379053Y-81709444D01*
X175103181Y-82613304D01*
X175105607Y-82616432D01*
X175800959Y-83542553D01*
X175803286Y-83545755D01*
X176469227Y-84493293D01*
X176471452Y-84496567D01*
X177095836Y-85447099D01*
X177107291Y-85464538D01*
X177109399Y-85467860D01*
X177426308Y-85985009D01*
X177714533Y-86455350D01*
X177716548Y-86458757D01*
X177847021Y-86687500D01*
X178290390Y-87464807D01*
X178292234Y-87468162D01*
X178834214Y-88491785D01*
X178835985Y-88495263D01*
X179077130Y-88987500D01*
X179345480Y-89535271D01*
X179347166Y-89538852D01*
X179823766Y-90594405D01*
X179825338Y-90598038D01*
X180268535Y-91668009D01*
X180269992Y-91671689D01*
X180679358Y-92755048D01*
X180680699Y-92758772D01*
X181055845Y-93854479D01*
X181057065Y-93858234D01*
X181397065Y-94963422D01*
X181397605Y-94965178D01*
X181398704Y-94968962D01*
X181704301Y-96086037D01*
X181705286Y-96089871D01*
X181975654Y-97216035D01*
X181976517Y-97219898D01*
X182211367Y-98353942D01*
X182212109Y-98357830D01*
X182411227Y-99498730D01*
X182411846Y-99502639D01*
X182455940Y-99812456D01*
X182575033Y-100649249D01*
X182575522Y-100653119D01*
X182647376Y-101303971D01*
X182702609Y-101804264D01*
X182702982Y-101808204D01*
X182793851Y-102962798D01*
X182794099Y-102966749D01*
X182848654Y-104123586D01*
X182848778Y-104127542D01*
X182858431Y-104742017D01*
X182865269Y-105177274D01*
X182866969Y-105285521D01*
X182866969Y-105289473D01*
X182863637Y-105501600D01*
X182848778Y-106447458D01*
X182848654Y-106451414D01*
X182794099Y-107608251D01*
X182793851Y-107612202D01*
X182702982Y-108766796D01*
X182702609Y-108770736D01*
X182668453Y-109080118D01*
X182601374Y-109687721D01*
X182575525Y-109921856D01*
X182575033Y-109925751D01*
X182501685Y-110441120D01*
X182411846Y-111072361D01*
X182411227Y-111076270D01*
X182334892Y-111513652D01*
X182225638Y-112139654D01*
X182212109Y-112217170D01*
X182211372Y-112221033D01*
X182131376Y-112607318D01*
X181976517Y-113355102D01*
X181975654Y-113358965D01*
X181807561Y-114059123D01*
X181713281Y-114451829D01*
X181705286Y-114485129D01*
X181704304Y-114488953D01*
X181400215Y-115600517D01*
X181398709Y-115606021D01*
X181397610Y-115609805D01*
X181112531Y-116536471D01*
X181057068Y-116716756D01*
X181055845Y-116720521D01*
X180680699Y-117816228D01*
X180679358Y-117819952D01*
X180269992Y-118903311D01*
X180268539Y-118906981D01*
X180157609Y-119174789D01*
X179825338Y-119976962D01*
X179823766Y-119980595D01*
X179628754Y-120412500D01*
X179353265Y-121022641D01*
X179347166Y-121036148D01*
X179345487Y-121039713D01*
X179167530Y-121402969D01*
X178835985Y-122079737D01*
X178834214Y-122083215D01*
X178292234Y-123106838D01*
X178290390Y-123110193D01*
X178010783Y-123600395D01*
X177716548Y-124116243D01*
X177714533Y-124119650D01*
X177109412Y-125107120D01*
X177107304Y-125110442D01*
X176827567Y-125536300D01*
X176471452Y-126078433D01*
X176469227Y-126081707D01*
X175803286Y-127029245D01*
X175800959Y-127032447D01*
X175105607Y-127958568D01*
X175103181Y-127961696D01*
X174379053Y-128865556D01*
X174376530Y-128868605D01*
X173624401Y-129749236D01*
X173621783Y-129752206D01*
X172842342Y-130608800D01*
X172839637Y-130611680D01*
X172033641Y-131443404D01*
X172030904Y-131446141D01*
X171279267Y-132174528D01*
X171199185Y-132252133D01*
X171196300Y-132254842D01*
X170339706Y-133034283D01*
X170336736Y-133036901D01*
X169456105Y-133789030D01*
X169453056Y-133791553D01*
X168549196Y-134515681D01*
X168546068Y-134518107D01*
X167619947Y-135213459D01*
X167616745Y-135215786D01*
X166669207Y-135881727D01*
X166665933Y-135883952D01*
X166565974Y-135949613D01*
X165697942Y-136519804D01*
X165694640Y-136521899D01*
X165307601Y-136759077D01*
X164707150Y-137127033D01*
X164703743Y-137129048D01*
X164352268Y-137329526D01*
X163697693Y-137702890D01*
X163694338Y-137704734D01*
X162670715Y-138246714D01*
X162667236Y-138248485D01*
X161627213Y-138757987D01*
X161623663Y-138759659D01*
X161465585Y-138831034D01*
X160568095Y-139236266D01*
X160564462Y-139237838D01*
X159942288Y-139495551D01*
X159670538Y-139608114D01*
X159494491Y-139681035D01*
X159490811Y-139682492D01*
X158407452Y-140091858D01*
X158403728Y-140093199D01*
X157746522Y-140318212D01*
X157308010Y-140468349D01*
X157304266Y-140469565D01*
X156197305Y-140810110D01*
X156193538Y-140811204D01*
X155076453Y-141116804D01*
X155072639Y-141117783D01*
X154764666Y-141191721D01*
X153946465Y-141388154D01*
X153942602Y-141389017D01*
X153352152Y-141511294D01*
X152808533Y-141623872D01*
X152804695Y-141624604D01*
X152199940Y-141730151D01*
X151663770Y-141823727D01*
X151659861Y-141824346D01*
X151179752Y-141892676D01*
X150513251Y-141987533D01*
X150509381Y-141988022D01*
X149847736Y-142061068D01*
X149358236Y-142115109D01*
X149354296Y-142115482D01*
X148199702Y-142206351D01*
X148195751Y-142206599D01*
X147038914Y-142261154D01*
X147034958Y-142261278D01*
X146183020Y-142274661D01*
X145876973Y-142279469D01*
X145873027Y-142279469D01*
X145566980Y-142274661D01*
X144715042Y-142261278D01*
X144711086Y-142261154D01*
X143554249Y-142206599D01*
X143550298Y-142206351D01*
X142395704Y-142115482D01*
X142391764Y-142115109D01*
X141902264Y-142061068D01*
X141240619Y-141988022D01*
X141236749Y-141987533D01*
X140570248Y-141892676D01*
X140090139Y-141824346D01*
X140086230Y-141823727D01*
X139550060Y-141730151D01*
X138945305Y-141624604D01*
X138941467Y-141623872D01*
X138397848Y-141511294D01*
X137807398Y-141389017D01*
X137803535Y-141388154D01*
X136985334Y-141191721D01*
X136677361Y-141117783D01*
X136673547Y-141116804D01*
X135556462Y-140811204D01*
X135552695Y-140810110D01*
X134445734Y-140469565D01*
X134441990Y-140468349D01*
X134003478Y-140318212D01*
X133346272Y-140093199D01*
X133342548Y-140091858D01*
X132259189Y-139682492D01*
X132255509Y-139681035D01*
X132079463Y-139608114D01*
X131807712Y-139495551D01*
X131185538Y-139237838D01*
X131181905Y-139236266D01*
X130284415Y-138831034D01*
X130126337Y-138759659D01*
X130122787Y-138757987D01*
X129637409Y-138520203D01*
X143765743Y-138520203D01*
X143803268Y-138805234D01*
X143879129Y-139082536D01*
X143880813Y-139086484D01*
X143945048Y-139237079D01*
X143991923Y-139346976D01*
X144139561Y-139593661D01*
X144319313Y-139818028D01*
X144527851Y-140015923D01*
X144634504Y-140092561D01*
X144747966Y-140174092D01*
X144761317Y-140183686D01*
X144765112Y-140185695D01*
X144765113Y-140185696D01*
X144786869Y-140197215D01*
X145015392Y-140318212D01*
X145285373Y-140417011D01*
X145566264Y-140478255D01*
X145594841Y-140480504D01*
X145789282Y-140495807D01*
X145789291Y-140495807D01*
X145791739Y-140496000D01*
X145947271Y-140496000D01*
X145949407Y-140495854D01*
X145949418Y-140495854D01*
X146157548Y-140481665D01*
X146157554Y-140481664D01*
X146161825Y-140481373D01*
X146166020Y-140480504D01*
X146166022Y-140480504D01*
X146302583Y-140452224D01*
X146443342Y-140423074D01*
X146714343Y-140327107D01*
X146969812Y-140195250D01*
X146973313Y-140192789D01*
X146973317Y-140192787D01*
X147116924Y-140091858D01*
X147205023Y-140029941D01*
X147415622Y-139834240D01*
X147597713Y-139611768D01*
X147747927Y-139366642D01*
X147863483Y-139103398D01*
X147942244Y-138826906D01*
X147982751Y-138542284D01*
X147982845Y-138524451D01*
X147984235Y-138259083D01*
X147984235Y-138259076D01*
X147984257Y-138254797D01*
X147946732Y-137969766D01*
X147870871Y-137692464D01*
X147758077Y-137428024D01*
X147610439Y-137181339D01*
X147430687Y-136956972D01*
X147222149Y-136759077D01*
X146988683Y-136591314D01*
X146966843Y-136579750D01*
X146943654Y-136567472D01*
X146734608Y-136456788D01*
X146464627Y-136357989D01*
X146183736Y-136296745D01*
X146152685Y-136294301D01*
X145960718Y-136279193D01*
X145960709Y-136279193D01*
X145958261Y-136279000D01*
X145802729Y-136279000D01*
X145800593Y-136279146D01*
X145800582Y-136279146D01*
X145592452Y-136293335D01*
X145592446Y-136293336D01*
X145588175Y-136293627D01*
X145583980Y-136294496D01*
X145583978Y-136294496D01*
X145505085Y-136310834D01*
X145306658Y-136351926D01*
X145035657Y-136447893D01*
X144780188Y-136579750D01*
X144776687Y-136582211D01*
X144776683Y-136582213D01*
X144766594Y-136589304D01*
X144544977Y-136745059D01*
X144334378Y-136940760D01*
X144152287Y-137163232D01*
X144002073Y-137408358D01*
X143886517Y-137671602D01*
X143807756Y-137948094D01*
X143767249Y-138232716D01*
X143767227Y-138237005D01*
X143767226Y-138237012D01*
X143765765Y-138515917D01*
X143765743Y-138520203D01*
X129637409Y-138520203D01*
X129082764Y-138248485D01*
X129079285Y-138246714D01*
X128055662Y-137704734D01*
X128052307Y-137702890D01*
X127397732Y-137329527D01*
X127046257Y-137129048D01*
X127042850Y-137127033D01*
X126442399Y-136759077D01*
X126055360Y-136521899D01*
X126052058Y-136519804D01*
X125748145Y-136320170D01*
X130007160Y-136320170D01*
X130012887Y-136327820D01*
X130184042Y-136432705D01*
X130192837Y-136437187D01*
X130402988Y-136524234D01*
X130412373Y-136527283D01*
X130633554Y-136580385D01*
X130643301Y-136581928D01*
X130870070Y-136599775D01*
X130879930Y-136599775D01*
X131106699Y-136581928D01*
X131116446Y-136580385D01*
X131337627Y-136527283D01*
X131347012Y-136524234D01*
X131557163Y-136437187D01*
X131565958Y-136432705D01*
X131733445Y-136330068D01*
X131742907Y-136319610D01*
X131739124Y-136310834D01*
X130887812Y-135459522D01*
X130873868Y-135451908D01*
X130872035Y-135452039D01*
X130865420Y-135456290D01*
X130013920Y-136307790D01*
X130007160Y-136320170D01*
X125748145Y-136320170D01*
X125184026Y-135949613D01*
X125084067Y-135883952D01*
X125080793Y-135881727D01*
X124133255Y-135215786D01*
X124130053Y-135213459D01*
X123968858Y-135092430D01*
X129362725Y-135092430D01*
X129380572Y-135319199D01*
X129382115Y-135328946D01*
X129435217Y-135550127D01*
X129438266Y-135559512D01*
X129525313Y-135769663D01*
X129529795Y-135778458D01*
X129632432Y-135945945D01*
X129642890Y-135955407D01*
X129651666Y-135951624D01*
X130502978Y-135100312D01*
X130509356Y-135088632D01*
X131239408Y-135088632D01*
X131239539Y-135090465D01*
X131243790Y-135097080D01*
X132095290Y-135948580D01*
X132107670Y-135955340D01*
X132115320Y-135949613D01*
X132220205Y-135778458D01*
X132224687Y-135769663D01*
X132311734Y-135559512D01*
X132314783Y-135550127D01*
X132367885Y-135328946D01*
X132369428Y-135319199D01*
X132387275Y-135092430D01*
X132387275Y-135087500D01*
X151261835Y-135087500D01*
X151280465Y-135324211D01*
X151335895Y-135555094D01*
X151337788Y-135559665D01*
X151337789Y-135559667D01*
X151424772Y-135769663D01*
X151426760Y-135774463D01*
X151429346Y-135778683D01*
X151548241Y-135972702D01*
X151548245Y-135972708D01*
X151550824Y-135976916D01*
X151705031Y-136157469D01*
X151885584Y-136311676D01*
X151889792Y-136314255D01*
X151889798Y-136314259D01*
X152083084Y-136432705D01*
X152088037Y-136435740D01*
X152092607Y-136437633D01*
X152092611Y-136437635D01*
X152302833Y-136524711D01*
X152307406Y-136526605D01*
X152387609Y-136545860D01*
X152533476Y-136580880D01*
X152533482Y-136580881D01*
X152538289Y-136582035D01*
X152775000Y-136600665D01*
X153011711Y-136582035D01*
X153016518Y-136580881D01*
X153016524Y-136580880D01*
X153162391Y-136545860D01*
X153242594Y-136526605D01*
X153247167Y-136524711D01*
X153457389Y-136437635D01*
X153457393Y-136437633D01*
X153461963Y-136435740D01*
X153466916Y-136432705D01*
X153660202Y-136314259D01*
X153660208Y-136314255D01*
X153664416Y-136311676D01*
X153844969Y-136157469D01*
X153999176Y-135976916D01*
X154001755Y-135972708D01*
X154001759Y-135972702D01*
X154120654Y-135778683D01*
X154123240Y-135774463D01*
X154125229Y-135769663D01*
X154212211Y-135559667D01*
X154212212Y-135559665D01*
X154214105Y-135555094D01*
X154269535Y-135324211D01*
X154288165Y-135087500D01*
X158661835Y-135087500D01*
X158680465Y-135324211D01*
X158735895Y-135555094D01*
X158737788Y-135559665D01*
X158737789Y-135559667D01*
X158824772Y-135769663D01*
X158826760Y-135774463D01*
X158829346Y-135778683D01*
X158948241Y-135972702D01*
X158948245Y-135972708D01*
X158950824Y-135976916D01*
X159105031Y-136157469D01*
X159285584Y-136311676D01*
X159289792Y-136314255D01*
X159289798Y-136314259D01*
X159483084Y-136432705D01*
X159488037Y-136435740D01*
X159492607Y-136437633D01*
X159492611Y-136437635D01*
X159702833Y-136524711D01*
X159707406Y-136526605D01*
X159787609Y-136545860D01*
X159933476Y-136580880D01*
X159933482Y-136580881D01*
X159938289Y-136582035D01*
X160175000Y-136600665D01*
X160411711Y-136582035D01*
X160416518Y-136580881D01*
X160416524Y-136580880D01*
X160562391Y-136545860D01*
X160642594Y-136526605D01*
X160647167Y-136524711D01*
X160857389Y-136437635D01*
X160857393Y-136437633D01*
X160861963Y-136435740D01*
X160866916Y-136432705D01*
X161060202Y-136314259D01*
X161060208Y-136314255D01*
X161064416Y-136311676D01*
X161244969Y-136157469D01*
X161399176Y-135976916D01*
X161401755Y-135972708D01*
X161401759Y-135972702D01*
X161520654Y-135778683D01*
X161523240Y-135774463D01*
X161525229Y-135769663D01*
X161612211Y-135559667D01*
X161612212Y-135559665D01*
X161614105Y-135555094D01*
X161669535Y-135324211D01*
X161688165Y-135087500D01*
X161669535Y-134850789D01*
X161614105Y-134619906D01*
X161570934Y-134515681D01*
X161525135Y-134405111D01*
X161525133Y-134405107D01*
X161523240Y-134400537D01*
X161520654Y-134396317D01*
X161401759Y-134202298D01*
X161401755Y-134202292D01*
X161399176Y-134198084D01*
X161244969Y-134017531D01*
X161064416Y-133863324D01*
X161060208Y-133860745D01*
X161060202Y-133860741D01*
X160866183Y-133741846D01*
X160861963Y-133739260D01*
X160857393Y-133737367D01*
X160857389Y-133737365D01*
X160647167Y-133650289D01*
X160647165Y-133650288D01*
X160642594Y-133648395D01*
X160562391Y-133629140D01*
X160416524Y-133594120D01*
X160416518Y-133594119D01*
X160411711Y-133592965D01*
X160175000Y-133574335D01*
X159938289Y-133592965D01*
X159933482Y-133594119D01*
X159933476Y-133594120D01*
X159787609Y-133629140D01*
X159707406Y-133648395D01*
X159702835Y-133650288D01*
X159702833Y-133650289D01*
X159492611Y-133737365D01*
X159492607Y-133737367D01*
X159488037Y-133739260D01*
X159483817Y-133741846D01*
X159289798Y-133860741D01*
X159289792Y-133860745D01*
X159285584Y-133863324D01*
X159105031Y-134017531D01*
X158950824Y-134198084D01*
X158948245Y-134202292D01*
X158948241Y-134202298D01*
X158829346Y-134396317D01*
X158826760Y-134400537D01*
X158824867Y-134405107D01*
X158824865Y-134405111D01*
X158779066Y-134515681D01*
X158735895Y-134619906D01*
X158680465Y-134850789D01*
X158661835Y-135087500D01*
X154288165Y-135087500D01*
X154269535Y-134850789D01*
X154214105Y-134619906D01*
X154170934Y-134515681D01*
X154125135Y-134405111D01*
X154125133Y-134405107D01*
X154123240Y-134400537D01*
X154120654Y-134396317D01*
X154001759Y-134202298D01*
X154001755Y-134202292D01*
X153999176Y-134198084D01*
X153844969Y-134017531D01*
X153664416Y-133863324D01*
X153660208Y-133860745D01*
X153660202Y-133860741D01*
X153466183Y-133741846D01*
X153461963Y-133739260D01*
X153457393Y-133737367D01*
X153457389Y-133737365D01*
X153247167Y-133650289D01*
X153247165Y-133650288D01*
X153242594Y-133648395D01*
X153162391Y-133629140D01*
X153016524Y-133594120D01*
X153016518Y-133594119D01*
X153011711Y-133592965D01*
X152775000Y-133574335D01*
X152538289Y-133592965D01*
X152533482Y-133594119D01*
X152533476Y-133594120D01*
X152387609Y-133629140D01*
X152307406Y-133648395D01*
X152302835Y-133650288D01*
X152302833Y-133650289D01*
X152092611Y-133737365D01*
X152092607Y-133737367D01*
X152088037Y-133739260D01*
X152083817Y-133741846D01*
X151889798Y-133860741D01*
X151889792Y-133860745D01*
X151885584Y-133863324D01*
X151705031Y-134017531D01*
X151550824Y-134198084D01*
X151548245Y-134202292D01*
X151548241Y-134202298D01*
X151429346Y-134396317D01*
X151426760Y-134400537D01*
X151424867Y-134405107D01*
X151424865Y-134405111D01*
X151379066Y-134515681D01*
X151335895Y-134619906D01*
X151280465Y-134850789D01*
X151261835Y-135087500D01*
X132387275Y-135087500D01*
X132387275Y-135082570D01*
X132369428Y-134855801D01*
X132367885Y-134846054D01*
X132314783Y-134624873D01*
X132311734Y-134615488D01*
X132224687Y-134405337D01*
X132220205Y-134396542D01*
X132117568Y-134229055D01*
X132107110Y-134219593D01*
X132098334Y-134223376D01*
X131247022Y-135074688D01*
X131239408Y-135088632D01*
X130509356Y-135088632D01*
X130510592Y-135086368D01*
X130510461Y-135084535D01*
X130506210Y-135077920D01*
X129654710Y-134226420D01*
X129642330Y-134219660D01*
X129634680Y-134225387D01*
X129529795Y-134396542D01*
X129525313Y-134405337D01*
X129438266Y-134615488D01*
X129435217Y-134624873D01*
X129382115Y-134846054D01*
X129380572Y-134855801D01*
X129362725Y-135082570D01*
X129362725Y-135092430D01*
X123968858Y-135092430D01*
X123203932Y-134518107D01*
X123200804Y-134515681D01*
X122376626Y-133855390D01*
X130007093Y-133855390D01*
X130010876Y-133864166D01*
X130862188Y-134715478D01*
X130876132Y-134723092D01*
X130877965Y-134722961D01*
X130884580Y-134718710D01*
X131736080Y-133867210D01*
X131742840Y-133854830D01*
X131737113Y-133847180D01*
X131565958Y-133742295D01*
X131557163Y-133737813D01*
X131347012Y-133650766D01*
X131337627Y-133647717D01*
X131116446Y-133594615D01*
X131106699Y-133593072D01*
X130879930Y-133575225D01*
X130870070Y-133575225D01*
X130643301Y-133593072D01*
X130633554Y-133594615D01*
X130412373Y-133647717D01*
X130402988Y-133650766D01*
X130192837Y-133737813D01*
X130184042Y-133742295D01*
X130016555Y-133844932D01*
X130007093Y-133855390D01*
X122376626Y-133855390D01*
X122296944Y-133791553D01*
X122293895Y-133789030D01*
X121413264Y-133036901D01*
X121410294Y-133034283D01*
X120626921Y-132321468D01*
X166756508Y-132321468D01*
X166773745Y-132518493D01*
X166775464Y-132524410D01*
X166775465Y-132524415D01*
X166813446Y-132655144D01*
X166828923Y-132708416D01*
X166919940Y-132884006D01*
X167016570Y-133005053D01*
X167480815Y-133469297D01*
X167595001Y-133563091D01*
X167769303Y-133656550D01*
X167877959Y-133689770D01*
X167952540Y-133712572D01*
X167952542Y-133712572D01*
X167958438Y-133714375D01*
X168016291Y-133720252D01*
X168149074Y-133733740D01*
X168149079Y-133733740D01*
X168155202Y-133734362D01*
X168279265Y-133722634D01*
X168345969Y-133716329D01*
X168345971Y-133716329D01*
X168352102Y-133715749D01*
X168446869Y-133687498D01*
X168535733Y-133661007D01*
X168535735Y-133661006D01*
X168541636Y-133659247D01*
X168716586Y-133567006D01*
X168870287Y-133442541D01*
X168996886Y-133290592D01*
X169091562Y-133116947D01*
X169150705Y-132928220D01*
X169154986Y-132888816D01*
X169171399Y-132737725D01*
X169171399Y-132737721D01*
X169172064Y-132731600D01*
X169154827Y-132534575D01*
X169153108Y-132528658D01*
X169153107Y-132528653D01*
X169101367Y-132350566D01*
X169099649Y-132344652D01*
X169008632Y-132169062D01*
X168912002Y-132048015D01*
X168447757Y-131583771D01*
X168333571Y-131489977D01*
X168159269Y-131396518D01*
X168050613Y-131363298D01*
X167976032Y-131340496D01*
X167976030Y-131340496D01*
X167970134Y-131338693D01*
X167912281Y-131332816D01*
X167779498Y-131319328D01*
X167779493Y-131319328D01*
X167773370Y-131318706D01*
X167649307Y-131330434D01*
X167582603Y-131336739D01*
X167582601Y-131336739D01*
X167576470Y-131337319D01*
X167481703Y-131365570D01*
X167392839Y-131392061D01*
X167392837Y-131392062D01*
X167386936Y-131393821D01*
X167211986Y-131486062D01*
X167058285Y-131610527D01*
X166931686Y-131762476D01*
X166837010Y-131936121D01*
X166777867Y-132124848D01*
X166777202Y-132130971D01*
X166777201Y-132130975D01*
X166757173Y-132315343D01*
X166756508Y-132321468D01*
X120626921Y-132321468D01*
X120553700Y-132254842D01*
X120550815Y-132252133D01*
X120470733Y-132174528D01*
X119719096Y-131446141D01*
X119716359Y-131443404D01*
X118910363Y-130611680D01*
X118907658Y-130608800D01*
X118390506Y-130040458D01*
X165667862Y-130040458D01*
X165692904Y-130238686D01*
X165757293Y-130427828D01*
X165858400Y-130600161D01*
X165992095Y-130748644D01*
X166152915Y-130867210D01*
X166334291Y-130951018D01*
X166528815Y-130996643D01*
X166641196Y-130999782D01*
X166722158Y-131002044D01*
X166722161Y-131002044D01*
X166728540Y-131002222D01*
X166925308Y-130967526D01*
X167111080Y-130893974D01*
X167116427Y-130890475D01*
X167274215Y-130787221D01*
X167274219Y-130787218D01*
X167278267Y-130784569D01*
X167283151Y-130780172D01*
X167599019Y-130464304D01*
X167693578Y-130348363D01*
X167786146Y-130171296D01*
X167841219Y-129979234D01*
X167856548Y-129780020D01*
X167831506Y-129581792D01*
X167767117Y-129392650D01*
X167666010Y-129220317D01*
X167532315Y-129071834D01*
X167371495Y-128953268D01*
X167190119Y-128869460D01*
X166995595Y-128823835D01*
X166883214Y-128820696D01*
X166802252Y-128818434D01*
X166802249Y-128818434D01*
X166795870Y-128818256D01*
X166599102Y-128852952D01*
X166413330Y-128926504D01*
X166407983Y-128930003D01*
X166250195Y-129033257D01*
X166250191Y-129033260D01*
X166246143Y-129035909D01*
X166241259Y-129040306D01*
X165925391Y-129356174D01*
X165830832Y-129472115D01*
X165738264Y-129649182D01*
X165683191Y-129841244D01*
X165667862Y-130040458D01*
X118390506Y-130040458D01*
X118128217Y-129752206D01*
X118125619Y-129749260D01*
X118105188Y-129725338D01*
X118076158Y-129660550D01*
X118075000Y-129643509D01*
X118075000Y-128073351D01*
X127861719Y-128073351D01*
X127878268Y-128270434D01*
X127932783Y-128460550D01*
X127935602Y-128466035D01*
X128013321Y-128617258D01*
X128023187Y-128636456D01*
X128146035Y-128791453D01*
X128150728Y-128795447D01*
X128150729Y-128795448D01*
X128255926Y-128884977D01*
X128296650Y-128919636D01*
X128469294Y-129016124D01*
X128657392Y-129077240D01*
X128853777Y-129100658D01*
X128859912Y-129100186D01*
X128859914Y-129100186D01*
X129044830Y-129085957D01*
X129044834Y-129085956D01*
X129050972Y-129085484D01*
X129241463Y-129032298D01*
X129246967Y-129029518D01*
X129246969Y-129029517D01*
X129412495Y-128945904D01*
X129412497Y-128945903D01*
X129417996Y-128943125D01*
X129496692Y-128881641D01*
X129562685Y-128855465D01*
X129632355Y-128869123D01*
X129655925Y-128884977D01*
X129696650Y-128919636D01*
X129869294Y-129016124D01*
X130057392Y-129077240D01*
X130253777Y-129100658D01*
X130259912Y-129100186D01*
X130259914Y-129100186D01*
X130444830Y-129085957D01*
X130444834Y-129085956D01*
X130450972Y-129085484D01*
X130641463Y-129032298D01*
X130646967Y-129029518D01*
X130646969Y-129029517D01*
X130812495Y-128945904D01*
X130812497Y-128945903D01*
X130817996Y-128943125D01*
X130973847Y-128821361D01*
X131103078Y-128671645D01*
X131200769Y-128499679D01*
X131263197Y-128312013D01*
X131287985Y-128115795D01*
X131288380Y-128087500D01*
X131269080Y-127890667D01*
X131211916Y-127701331D01*
X131119066Y-127526704D01*
X131048709Y-127440438D01*
X130997960Y-127378213D01*
X130997957Y-127378210D01*
X130994065Y-127373438D01*
X130987724Y-127368192D01*
X130846425Y-127251299D01*
X130846421Y-127251297D01*
X130841675Y-127247370D01*
X130667701Y-127153302D01*
X130478768Y-127094818D01*
X130472643Y-127094174D01*
X130472642Y-127094174D01*
X130288204Y-127074789D01*
X130288202Y-127074789D01*
X130282075Y-127074145D01*
X130199576Y-127081653D01*
X130091251Y-127091511D01*
X130091248Y-127091512D01*
X130085112Y-127092070D01*
X130079206Y-127093808D01*
X130079202Y-127093809D01*
X129974076Y-127124749D01*
X129895381Y-127147910D01*
X129889923Y-127150763D01*
X129889919Y-127150765D01*
X129799147Y-127198220D01*
X129720110Y-127239540D01*
X129654193Y-127292538D01*
X129588575Y-127319634D01*
X129518720Y-127306951D01*
X129494928Y-127291425D01*
X129446424Y-127251299D01*
X129441675Y-127247370D01*
X129267701Y-127153302D01*
X129078768Y-127094818D01*
X129072643Y-127094174D01*
X129072642Y-127094174D01*
X128888204Y-127074789D01*
X128888202Y-127074789D01*
X128882075Y-127074145D01*
X128799576Y-127081653D01*
X128691251Y-127091511D01*
X128691248Y-127091512D01*
X128685112Y-127092070D01*
X128679206Y-127093808D01*
X128679202Y-127093809D01*
X128574076Y-127124749D01*
X128495381Y-127147910D01*
X128489923Y-127150763D01*
X128489919Y-127150765D01*
X128399147Y-127198220D01*
X128320110Y-127239540D01*
X128165975Y-127363468D01*
X128038846Y-127514974D01*
X128035879Y-127520372D01*
X128035875Y-127520377D01*
X127957095Y-127663680D01*
X127943567Y-127688287D01*
X127941706Y-127694154D01*
X127941705Y-127694156D01*
X127923117Y-127752754D01*
X127883765Y-127876806D01*
X127861719Y-128073351D01*
X118075000Y-128073351D01*
X118075000Y-126504924D01*
X169203396Y-126504924D01*
X169228438Y-126703152D01*
X169292827Y-126892294D01*
X169296057Y-126897799D01*
X169373176Y-127029245D01*
X169393934Y-127064627D01*
X169527629Y-127213110D01*
X169574098Y-127247370D01*
X169672116Y-127319634D01*
X169688449Y-127331676D01*
X169869825Y-127415484D01*
X170064349Y-127461109D01*
X170176730Y-127464248D01*
X170257692Y-127466510D01*
X170257695Y-127466510D01*
X170264074Y-127466688D01*
X170460842Y-127431992D01*
X170613072Y-127371720D01*
X171706256Y-127371720D01*
X171723493Y-127568745D01*
X171725212Y-127574662D01*
X171725213Y-127574667D01*
X171741571Y-127630971D01*
X171778671Y-127758668D01*
X171869688Y-127934258D01*
X171966318Y-128055305D01*
X172430563Y-128519549D01*
X172544749Y-128613343D01*
X172550182Y-128616256D01*
X172643485Y-128666284D01*
X172719051Y-128706802D01*
X172827707Y-128740022D01*
X172902288Y-128762824D01*
X172902290Y-128762824D01*
X172908186Y-128764627D01*
X172966039Y-128770504D01*
X173098822Y-128783992D01*
X173098827Y-128783992D01*
X173104950Y-128784614D01*
X173229013Y-128772886D01*
X173295717Y-128766581D01*
X173295719Y-128766581D01*
X173301850Y-128766001D01*
X173396617Y-128737750D01*
X173485481Y-128711259D01*
X173485483Y-128711258D01*
X173491384Y-128709499D01*
X173666334Y-128617258D01*
X173820035Y-128492793D01*
X173946634Y-128340844D01*
X174041310Y-128167199D01*
X174100453Y-127978472D01*
X174102276Y-127961696D01*
X174121147Y-127787977D01*
X174121147Y-127787973D01*
X174121812Y-127781852D01*
X174104575Y-127584827D01*
X174102856Y-127578910D01*
X174102855Y-127578905D01*
X174051115Y-127400818D01*
X174049397Y-127394904D01*
X173958380Y-127219314D01*
X173861750Y-127098267D01*
X173397505Y-126634023D01*
X173283319Y-126540229D01*
X173109017Y-126446770D01*
X173000361Y-126413550D01*
X172925780Y-126390748D01*
X172925778Y-126390748D01*
X172919882Y-126388945D01*
X172862029Y-126383068D01*
X172729246Y-126369580D01*
X172729241Y-126369580D01*
X172723118Y-126368958D01*
X172599055Y-126380686D01*
X172532351Y-126386991D01*
X172532349Y-126386991D01*
X172526218Y-126387571D01*
X172431451Y-126415822D01*
X172342587Y-126442313D01*
X172342585Y-126442314D01*
X172336684Y-126444073D01*
X172161734Y-126536314D01*
X172156948Y-126540190D01*
X172156946Y-126540191D01*
X172016446Y-126653966D01*
X172008033Y-126660779D01*
X172004088Y-126665514D01*
X171886061Y-126807175D01*
X171881434Y-126812728D01*
X171786758Y-126986373D01*
X171727615Y-127175100D01*
X171726950Y-127181223D01*
X171726949Y-127181227D01*
X171707572Y-127359604D01*
X171706256Y-127371720D01*
X170613072Y-127371720D01*
X170646614Y-127358440D01*
X170651961Y-127354941D01*
X170809749Y-127251687D01*
X170809753Y-127251684D01*
X170813801Y-127249035D01*
X170818685Y-127244638D01*
X171134553Y-126928770D01*
X171229112Y-126812829D01*
X171321680Y-126635762D01*
X171376753Y-126443700D01*
X171392082Y-126244486D01*
X171367040Y-126046258D01*
X171302651Y-125857116D01*
X171201544Y-125684783D01*
X171067849Y-125536300D01*
X170907029Y-125417734D01*
X170725653Y-125333926D01*
X170531129Y-125288301D01*
X170418748Y-125285162D01*
X170337786Y-125282900D01*
X170337783Y-125282900D01*
X170331404Y-125282722D01*
X170134636Y-125317418D01*
X169948864Y-125390970D01*
X169943517Y-125394469D01*
X169785729Y-125497723D01*
X169785725Y-125497726D01*
X169781677Y-125500375D01*
X169776793Y-125504772D01*
X169460925Y-125820640D01*
X169366366Y-125936581D01*
X169273798Y-126113648D01*
X169218725Y-126305710D01*
X169218236Y-126312069D01*
X169207647Y-126449683D01*
X169203396Y-126504924D01*
X118075000Y-126504924D01*
X118075000Y-120173351D01*
X131161719Y-120173351D01*
X131178268Y-120370434D01*
X131232783Y-120560550D01*
X131323187Y-120736456D01*
X131446035Y-120891453D01*
X131450728Y-120895447D01*
X131450729Y-120895448D01*
X131569636Y-120996645D01*
X131596650Y-121019636D01*
X131769294Y-121116124D01*
X131957392Y-121177240D01*
X132153777Y-121200658D01*
X132159912Y-121200186D01*
X132159914Y-121200186D01*
X132344830Y-121185957D01*
X132344834Y-121185956D01*
X132350972Y-121185484D01*
X132541463Y-121132298D01*
X132546967Y-121129518D01*
X132546969Y-121129517D01*
X132712495Y-121045904D01*
X132712497Y-121045903D01*
X132717996Y-121043125D01*
X132873847Y-120921361D01*
X133003078Y-120771645D01*
X133100769Y-120599679D01*
X133163197Y-120412013D01*
X133164923Y-120398351D01*
X142786719Y-120398351D01*
X142803268Y-120595434D01*
X142804967Y-120601358D01*
X142853796Y-120771645D01*
X142857783Y-120785550D01*
X142948187Y-120961456D01*
X143071035Y-121116453D01*
X143075728Y-121120447D01*
X143075729Y-121120448D01*
X143140223Y-121175336D01*
X143221650Y-121244636D01*
X143394294Y-121341124D01*
X143582392Y-121402240D01*
X143778777Y-121425658D01*
X143784912Y-121425186D01*
X143784914Y-121425186D01*
X143969830Y-121410957D01*
X143969834Y-121410956D01*
X143975972Y-121410484D01*
X144166463Y-121357298D01*
X144171967Y-121354518D01*
X144171969Y-121354517D01*
X144337495Y-121270904D01*
X144337497Y-121270903D01*
X144342996Y-121268125D01*
X144498847Y-121146361D01*
X144608233Y-121019636D01*
X144624049Y-121001313D01*
X144624050Y-121001311D01*
X144628078Y-120996645D01*
X144725769Y-120824679D01*
X144788197Y-120637013D01*
X144812985Y-120440795D01*
X144813380Y-120412500D01*
X144794080Y-120215667D01*
X144736916Y-120026331D01*
X144644066Y-119851704D01*
X144573709Y-119765438D01*
X144522960Y-119703213D01*
X144522957Y-119703210D01*
X144519065Y-119698438D01*
X144512724Y-119693192D01*
X144371425Y-119576299D01*
X144371421Y-119576297D01*
X144366675Y-119572370D01*
X144192701Y-119478302D01*
X144003768Y-119419818D01*
X143997643Y-119419174D01*
X143997642Y-119419174D01*
X143813204Y-119399789D01*
X143813202Y-119399789D01*
X143807075Y-119399145D01*
X143724576Y-119406653D01*
X143616251Y-119416511D01*
X143616248Y-119416512D01*
X143610112Y-119417070D01*
X143604206Y-119418808D01*
X143604202Y-119418809D01*
X143499076Y-119449749D01*
X143420381Y-119472910D01*
X143414923Y-119475763D01*
X143414919Y-119475765D01*
X143324147Y-119523220D01*
X143245110Y-119564540D01*
X143090975Y-119688468D01*
X142963846Y-119839974D01*
X142960879Y-119845372D01*
X142960875Y-119845377D01*
X142888622Y-119976806D01*
X142868567Y-120013287D01*
X142866706Y-120019154D01*
X142866705Y-120019156D01*
X142810627Y-120195936D01*
X142808765Y-120201806D01*
X142786719Y-120398351D01*
X133164923Y-120398351D01*
X133187985Y-120215795D01*
X133188380Y-120187500D01*
X133169080Y-119990667D01*
X133111916Y-119801331D01*
X133019066Y-119626704D01*
X132900422Y-119481232D01*
X132897960Y-119478213D01*
X132897957Y-119478210D01*
X132894065Y-119473438D01*
X132887724Y-119468192D01*
X132746425Y-119351299D01*
X132746421Y-119351297D01*
X132741675Y-119347370D01*
X132567701Y-119253302D01*
X132378768Y-119194818D01*
X132372643Y-119194174D01*
X132372642Y-119194174D01*
X132188204Y-119174789D01*
X132188202Y-119174789D01*
X132182075Y-119174145D01*
X132099576Y-119181653D01*
X131991251Y-119191511D01*
X131991248Y-119191512D01*
X131985112Y-119192070D01*
X131979206Y-119193808D01*
X131979202Y-119193809D01*
X131874076Y-119224749D01*
X131795381Y-119247910D01*
X131789923Y-119250763D01*
X131789919Y-119250765D01*
X131732061Y-119281013D01*
X131620110Y-119339540D01*
X131465975Y-119463468D01*
X131338846Y-119614974D01*
X131335879Y-119620372D01*
X131335875Y-119620377D01*
X131257095Y-119763680D01*
X131243567Y-119788287D01*
X131241706Y-119794154D01*
X131241705Y-119794156D01*
X131228670Y-119835247D01*
X131183765Y-119976806D01*
X131161719Y-120173351D01*
X118075000Y-120173351D01*
X118075000Y-117357152D01*
X135366524Y-117357152D01*
X135368990Y-117365781D01*
X135368991Y-117365786D01*
X135374639Y-117385548D01*
X135378217Y-117402309D01*
X135381130Y-117422652D01*
X135381133Y-117422662D01*
X135382405Y-117431545D01*
X135393021Y-117454895D01*
X135399464Y-117472407D01*
X135406512Y-117497065D01*
X135422274Y-117522048D01*
X135430404Y-117537114D01*
X135442633Y-117564010D01*
X135459374Y-117583439D01*
X135470479Y-117598447D01*
X135484160Y-117620131D01*
X135490888Y-117626073D01*
X135506296Y-117639681D01*
X135518340Y-117651873D01*
X135537619Y-117674247D01*
X135545147Y-117679126D01*
X135545150Y-117679129D01*
X135559139Y-117688196D01*
X135574013Y-117699486D01*
X135593228Y-117716456D01*
X135601354Y-117720271D01*
X135601355Y-117720272D01*
X135607021Y-117722932D01*
X135619966Y-117729010D01*
X135634935Y-117737324D01*
X135659727Y-117753393D01*
X135676650Y-117758454D01*
X135684290Y-117760739D01*
X135701736Y-117767401D01*
X135724948Y-117778299D01*
X135754130Y-117782843D01*
X135770849Y-117786626D01*
X135790536Y-117792514D01*
X135790539Y-117792515D01*
X135799141Y-117795087D01*
X135808116Y-117795142D01*
X135808117Y-117795142D01*
X135814810Y-117795183D01*
X135833556Y-117795297D01*
X135834328Y-117795330D01*
X135835423Y-117795500D01*
X135866298Y-117795500D01*
X135867068Y-117795502D01*
X135940716Y-117795952D01*
X135940717Y-117795952D01*
X135944652Y-117795976D01*
X135945996Y-117795592D01*
X135947341Y-117795500D01*
X138966298Y-117795500D01*
X138967069Y-117795502D01*
X139044652Y-117795976D01*
X139053281Y-117793510D01*
X139053286Y-117793509D01*
X139073048Y-117787861D01*
X139089809Y-117784283D01*
X139110152Y-117781370D01*
X139110162Y-117781367D01*
X139119045Y-117780095D01*
X139142395Y-117769479D01*
X139159907Y-117763036D01*
X139175937Y-117758454D01*
X139184565Y-117755988D01*
X139209548Y-117740226D01*
X139224614Y-117732096D01*
X139251510Y-117719867D01*
X139270939Y-117703126D01*
X139285947Y-117692021D01*
X139300039Y-117683130D01*
X139307631Y-117678340D01*
X139327182Y-117656203D01*
X139339374Y-117644159D01*
X139354949Y-117630739D01*
X139354950Y-117630737D01*
X139361747Y-117624881D01*
X139366626Y-117617353D01*
X139366629Y-117617350D01*
X139375696Y-117603361D01*
X139386986Y-117588487D01*
X139398012Y-117576002D01*
X139403956Y-117569272D01*
X139416510Y-117542534D01*
X139424824Y-117527565D01*
X139440893Y-117502773D01*
X139448239Y-117478209D01*
X139454901Y-117460764D01*
X139461983Y-117445679D01*
X139465799Y-117437552D01*
X139470343Y-117408370D01*
X139474126Y-117391651D01*
X139480014Y-117371964D01*
X139480015Y-117371961D01*
X139482587Y-117363359D01*
X139482625Y-117357152D01*
X152466524Y-117357152D01*
X152468990Y-117365781D01*
X152468991Y-117365786D01*
X152474639Y-117385548D01*
X152478217Y-117402309D01*
X152481130Y-117422652D01*
X152481133Y-117422662D01*
X152482405Y-117431545D01*
X152493021Y-117454895D01*
X152499464Y-117472407D01*
X152506512Y-117497065D01*
X152522274Y-117522048D01*
X152530404Y-117537114D01*
X152542633Y-117564010D01*
X152559374Y-117583439D01*
X152570479Y-117598447D01*
X152584160Y-117620131D01*
X152590888Y-117626073D01*
X152606296Y-117639681D01*
X152618340Y-117651873D01*
X152637619Y-117674247D01*
X152645147Y-117679126D01*
X152645150Y-117679129D01*
X152659139Y-117688196D01*
X152674013Y-117699486D01*
X152693228Y-117716456D01*
X152701354Y-117720271D01*
X152701355Y-117720272D01*
X152707021Y-117722932D01*
X152719966Y-117729010D01*
X152734935Y-117737324D01*
X152759727Y-117753393D01*
X152776650Y-117758454D01*
X152784290Y-117760739D01*
X152801736Y-117767401D01*
X152824948Y-117778299D01*
X152854130Y-117782843D01*
X152870849Y-117786626D01*
X152890536Y-117792514D01*
X152890539Y-117792515D01*
X152899141Y-117795087D01*
X152908116Y-117795142D01*
X152908117Y-117795142D01*
X152914810Y-117795183D01*
X152933556Y-117795297D01*
X152934328Y-117795330D01*
X152935423Y-117795500D01*
X152966298Y-117795500D01*
X152967068Y-117795502D01*
X153040716Y-117795952D01*
X153040717Y-117795952D01*
X153044652Y-117795976D01*
X153045996Y-117795592D01*
X153047341Y-117795500D01*
X156066298Y-117795500D01*
X156067069Y-117795502D01*
X156144652Y-117795976D01*
X156153281Y-117793510D01*
X156153286Y-117793509D01*
X156173048Y-117787861D01*
X156189809Y-117784283D01*
X156210152Y-117781370D01*
X156210162Y-117781367D01*
X156219045Y-117780095D01*
X156242395Y-117769479D01*
X156259907Y-117763036D01*
X156275937Y-117758454D01*
X156284565Y-117755988D01*
X156309548Y-117740226D01*
X156324614Y-117732096D01*
X156351510Y-117719867D01*
X156370939Y-117703126D01*
X156385947Y-117692021D01*
X156400039Y-117683130D01*
X156407631Y-117678340D01*
X156427182Y-117656203D01*
X156439374Y-117644159D01*
X156454949Y-117630739D01*
X156454950Y-117630737D01*
X156461747Y-117624881D01*
X156466626Y-117617353D01*
X156466629Y-117617350D01*
X156475696Y-117603361D01*
X156486986Y-117588487D01*
X156498012Y-117576002D01*
X156503956Y-117569272D01*
X156516510Y-117542534D01*
X156524824Y-117527565D01*
X156540893Y-117502773D01*
X156548239Y-117478209D01*
X156554901Y-117460764D01*
X156561983Y-117445679D01*
X156565799Y-117437552D01*
X156570343Y-117408370D01*
X156574126Y-117391651D01*
X156580014Y-117371964D01*
X156580015Y-117371961D01*
X156582587Y-117363359D01*
X156582797Y-117328944D01*
X156582830Y-117328172D01*
X156583000Y-117327077D01*
X156583000Y-117296202D01*
X156583002Y-117295432D01*
X156583452Y-117221784D01*
X156583452Y-117221783D01*
X156583476Y-117217848D01*
X156583092Y-117216504D01*
X156583000Y-117215159D01*
X156583000Y-116096202D01*
X156583002Y-116095432D01*
X156583062Y-116085634D01*
X166841500Y-116085634D01*
X166848255Y-116147816D01*
X166899385Y-116284205D01*
X166986739Y-116400761D01*
X167103295Y-116488115D01*
X167239684Y-116539245D01*
X167301866Y-116546000D01*
X169098134Y-116546000D01*
X169160316Y-116539245D01*
X169296705Y-116488115D01*
X169413261Y-116400761D01*
X169500615Y-116284205D01*
X169544798Y-116166348D01*
X169587440Y-116109584D01*
X169654001Y-116084884D01*
X169723350Y-116100092D01*
X169758017Y-116128080D01*
X169783218Y-116157173D01*
X169790580Y-116164383D01*
X169954434Y-116300416D01*
X169962881Y-116306331D01*
X170146756Y-116413779D01*
X170156042Y-116418229D01*
X170355001Y-116494203D01*
X170364899Y-116497079D01*
X170468250Y-116518106D01*
X170482299Y-116516910D01*
X170486000Y-116506565D01*
X170486000Y-116506017D01*
X170994000Y-116506017D01*
X170998064Y-116519859D01*
X171011478Y-116521893D01*
X171018184Y-116521034D01*
X171028262Y-116518892D01*
X171232255Y-116457691D01*
X171241842Y-116453933D01*
X171433095Y-116360239D01*
X171441945Y-116354964D01*
X171615328Y-116231292D01*
X171623200Y-116224639D01*
X171774052Y-116074312D01*
X171780730Y-116066465D01*
X171905003Y-115893520D01*
X171910313Y-115884683D01*
X172004670Y-115693767D01*
X172008469Y-115684172D01*
X172070377Y-115480410D01*
X172072555Y-115470337D01*
X172073986Y-115459462D01*
X172071775Y-115445278D01*
X172058617Y-115441500D01*
X171012115Y-115441500D01*
X170996876Y-115445975D01*
X170995671Y-115447365D01*
X170994000Y-115455048D01*
X170994000Y-116506017D01*
X170486000Y-116506017D01*
X170486000Y-114915385D01*
X170994000Y-114915385D01*
X170998475Y-114930624D01*
X170999865Y-114931829D01*
X171007548Y-114933500D01*
X172058344Y-114933500D01*
X172071875Y-114929527D01*
X172073180Y-114920447D01*
X172031214Y-114753375D01*
X172027894Y-114743624D01*
X171942972Y-114548314D01*
X171938105Y-114539239D01*
X171822426Y-114360426D01*
X171816136Y-114352257D01*
X171672806Y-114194740D01*
X171665273Y-114187715D01*
X171498139Y-114055722D01*
X171489552Y-114050017D01*
X171303117Y-113947099D01*
X171293705Y-113942869D01*
X171092959Y-113871780D01*
X171082988Y-113869146D01*
X171011837Y-113856472D01*
X170998540Y-113857932D01*
X170994000Y-113872489D01*
X170994000Y-114915385D01*
X170486000Y-114915385D01*
X170486000Y-113870602D01*
X170482082Y-113857258D01*
X170467806Y-113855271D01*
X170429324Y-113861160D01*
X170419288Y-113863551D01*
X170216868Y-113929712D01*
X170207359Y-113933709D01*
X170018463Y-114032042D01*
X170009738Y-114037536D01*
X169839433Y-114165405D01*
X169831726Y-114172248D01*
X169754478Y-114253084D01*
X169692954Y-114288514D01*
X169622042Y-114285057D01*
X169564255Y-114243811D01*
X169545402Y-114210263D01*
X169503767Y-114099203D01*
X169500615Y-114090795D01*
X169413261Y-113974239D01*
X169296705Y-113886885D01*
X169160316Y-113835755D01*
X169098134Y-113829000D01*
X167301866Y-113829000D01*
X167239684Y-113835755D01*
X167103295Y-113886885D01*
X166986739Y-113974239D01*
X166899385Y-114090795D01*
X166848255Y-114227184D01*
X166841500Y-114289366D01*
X166841500Y-116085634D01*
X156583062Y-116085634D01*
X156583421Y-116026822D01*
X156583476Y-116017848D01*
X156581010Y-116009219D01*
X156581009Y-116009214D01*
X156575361Y-115989452D01*
X156571783Y-115972691D01*
X156568870Y-115952348D01*
X156568867Y-115952338D01*
X156567595Y-115943455D01*
X156556979Y-115920105D01*
X156550536Y-115902593D01*
X156545954Y-115886563D01*
X156543488Y-115877935D01*
X156527726Y-115852952D01*
X156519596Y-115837886D01*
X156507367Y-115810990D01*
X156490626Y-115791561D01*
X156479521Y-115776553D01*
X156470630Y-115762461D01*
X156465840Y-115754869D01*
X156443703Y-115735318D01*
X156431659Y-115723126D01*
X156418239Y-115707551D01*
X156418237Y-115707550D01*
X156412381Y-115700753D01*
X156404853Y-115695874D01*
X156404850Y-115695871D01*
X156390861Y-115686804D01*
X156375987Y-115675514D01*
X156363502Y-115664488D01*
X156356772Y-115658544D01*
X156348646Y-115654729D01*
X156348645Y-115654728D01*
X156342979Y-115652068D01*
X156330034Y-115645990D01*
X156315065Y-115637676D01*
X156290273Y-115621607D01*
X156265709Y-115614261D01*
X156248264Y-115607599D01*
X156243827Y-115605516D01*
X156225052Y-115596701D01*
X156195870Y-115592157D01*
X156179151Y-115588374D01*
X156159464Y-115582486D01*
X156159461Y-115582485D01*
X156150859Y-115579913D01*
X156141884Y-115579858D01*
X156141883Y-115579858D01*
X156135190Y-115579817D01*
X156116444Y-115579703D01*
X156115672Y-115579670D01*
X156114577Y-115579500D01*
X156083702Y-115579500D01*
X156082932Y-115579498D01*
X156009284Y-115579048D01*
X156009283Y-115579048D01*
X156005348Y-115579024D01*
X156004004Y-115579408D01*
X156002659Y-115579500D01*
X152983702Y-115579500D01*
X152982932Y-115579498D01*
X152982078Y-115579493D01*
X152905348Y-115579024D01*
X152896719Y-115581490D01*
X152896714Y-115581491D01*
X152876952Y-115587139D01*
X152860191Y-115590717D01*
X152839848Y-115593630D01*
X152839838Y-115593633D01*
X152830955Y-115594905D01*
X152807605Y-115605521D01*
X152790093Y-115611964D01*
X152782057Y-115614261D01*
X152765435Y-115619012D01*
X152740452Y-115634774D01*
X152725386Y-115642904D01*
X152698490Y-115655133D01*
X152679061Y-115671874D01*
X152664053Y-115682979D01*
X152642369Y-115696660D01*
X152636427Y-115703388D01*
X152622819Y-115718796D01*
X152610627Y-115730840D01*
X152588253Y-115750119D01*
X152583374Y-115757647D01*
X152583371Y-115757650D01*
X152574304Y-115771639D01*
X152563014Y-115786513D01*
X152546044Y-115805728D01*
X152533490Y-115832466D01*
X152525176Y-115847435D01*
X152509107Y-115872227D01*
X152506535Y-115880827D01*
X152501761Y-115896790D01*
X152495099Y-115914236D01*
X152484201Y-115937448D01*
X152479658Y-115966628D01*
X152475874Y-115983349D01*
X152469986Y-116003036D01*
X152469985Y-116003039D01*
X152467413Y-116011641D01*
X152467358Y-116020616D01*
X152467358Y-116020617D01*
X152467203Y-116046046D01*
X152467170Y-116046828D01*
X152467000Y-116047923D01*
X152467000Y-116078798D01*
X152466998Y-116079568D01*
X152466524Y-116157152D01*
X152466908Y-116158496D01*
X152467000Y-116159841D01*
X152467000Y-117278798D01*
X152466998Y-117279568D01*
X152466524Y-117357152D01*
X139482625Y-117357152D01*
X139482797Y-117328944D01*
X139482830Y-117328172D01*
X139483000Y-117327077D01*
X139483000Y-117296202D01*
X139483002Y-117295432D01*
X139483452Y-117221784D01*
X139483452Y-117221783D01*
X139483476Y-117217848D01*
X139483092Y-117216504D01*
X139483000Y-117215159D01*
X139483000Y-116096202D01*
X139483002Y-116095432D01*
X139483421Y-116026822D01*
X139483476Y-116017848D01*
X139481010Y-116009219D01*
X139481009Y-116009214D01*
X139475361Y-115989452D01*
X139471783Y-115972691D01*
X139468870Y-115952348D01*
X139468867Y-115952338D01*
X139467595Y-115943455D01*
X139456979Y-115920105D01*
X139450536Y-115902593D01*
X139445954Y-115886563D01*
X139443488Y-115877935D01*
X139427726Y-115852952D01*
X139419596Y-115837886D01*
X139407367Y-115810990D01*
X139390626Y-115791561D01*
X139379521Y-115776553D01*
X139370630Y-115762461D01*
X139365840Y-115754869D01*
X139343703Y-115735318D01*
X139331659Y-115723126D01*
X139318239Y-115707551D01*
X139318237Y-115707550D01*
X139312381Y-115700753D01*
X139304853Y-115695874D01*
X139304850Y-115695871D01*
X139290861Y-115686804D01*
X139275987Y-115675514D01*
X139263502Y-115664488D01*
X139256772Y-115658544D01*
X139248646Y-115654729D01*
X139248645Y-115654728D01*
X139242979Y-115652068D01*
X139230034Y-115645990D01*
X139215065Y-115637676D01*
X139190273Y-115621607D01*
X139165709Y-115614261D01*
X139148264Y-115607599D01*
X139143827Y-115605516D01*
X139125052Y-115596701D01*
X139095870Y-115592157D01*
X139079151Y-115588374D01*
X139059464Y-115582486D01*
X139059461Y-115582485D01*
X139050859Y-115579913D01*
X139041884Y-115579858D01*
X139041883Y-115579858D01*
X139035190Y-115579817D01*
X139016444Y-115579703D01*
X139015672Y-115579670D01*
X139014577Y-115579500D01*
X138983702Y-115579500D01*
X138982932Y-115579498D01*
X138909284Y-115579048D01*
X138909283Y-115579048D01*
X138905348Y-115579024D01*
X138904004Y-115579408D01*
X138902659Y-115579500D01*
X135883702Y-115579500D01*
X135882932Y-115579498D01*
X135882078Y-115579493D01*
X135805348Y-115579024D01*
X135796719Y-115581490D01*
X135796714Y-115581491D01*
X135776952Y-115587139D01*
X135760191Y-115590717D01*
X135739848Y-115593630D01*
X135739838Y-115593633D01*
X135730955Y-115594905D01*
X135707605Y-115605521D01*
X135690093Y-115611964D01*
X135682057Y-115614261D01*
X135665435Y-115619012D01*
X135640452Y-115634774D01*
X135625386Y-115642904D01*
X135598490Y-115655133D01*
X135579061Y-115671874D01*
X135564053Y-115682979D01*
X135542369Y-115696660D01*
X135536427Y-115703388D01*
X135522819Y-115718796D01*
X135510627Y-115730840D01*
X135488253Y-115750119D01*
X135483374Y-115757647D01*
X135483371Y-115757650D01*
X135474304Y-115771639D01*
X135463014Y-115786513D01*
X135446044Y-115805728D01*
X135433490Y-115832466D01*
X135425176Y-115847435D01*
X135409107Y-115872227D01*
X135406535Y-115880827D01*
X135401761Y-115896790D01*
X135395099Y-115914236D01*
X135384201Y-115937448D01*
X135379658Y-115966628D01*
X135375874Y-115983349D01*
X135369986Y-116003036D01*
X135369985Y-116003039D01*
X135367413Y-116011641D01*
X135367358Y-116020616D01*
X135367358Y-116020617D01*
X135367203Y-116046046D01*
X135367170Y-116046828D01*
X135367000Y-116047923D01*
X135367000Y-116078798D01*
X135366998Y-116079568D01*
X135366524Y-116157152D01*
X135366908Y-116158496D01*
X135367000Y-116159841D01*
X135367000Y-117278798D01*
X135366998Y-117279568D01*
X135366524Y-117357152D01*
X118075000Y-117357152D01*
X118075000Y-113345851D01*
X120156719Y-113345851D01*
X120173268Y-113542934D01*
X120227783Y-113733050D01*
X120230602Y-113738535D01*
X120298476Y-113870602D01*
X120318187Y-113908956D01*
X120441035Y-114063953D01*
X120445728Y-114067947D01*
X120445729Y-114067948D01*
X120582261Y-114184145D01*
X120591650Y-114192136D01*
X120764294Y-114288624D01*
X120952392Y-114349740D01*
X121148777Y-114373158D01*
X121154912Y-114372686D01*
X121154914Y-114372686D01*
X121339830Y-114358457D01*
X121339834Y-114358456D01*
X121345972Y-114357984D01*
X121536463Y-114304798D01*
X121541967Y-114302018D01*
X121541969Y-114302017D01*
X121707495Y-114218404D01*
X121707497Y-114218403D01*
X121712996Y-114215625D01*
X121868847Y-114093861D01*
X121973128Y-113973050D01*
X121994049Y-113948813D01*
X121994050Y-113948811D01*
X121998078Y-113944145D01*
X122095769Y-113772179D01*
X122157752Y-113585851D01*
X128705469Y-113585851D01*
X128705985Y-113591995D01*
X128717332Y-113727123D01*
X128722018Y-113782934D01*
X128723717Y-113788858D01*
X128769092Y-113947099D01*
X128776533Y-113973050D01*
X128866937Y-114148956D01*
X128989785Y-114303953D01*
X128994478Y-114307947D01*
X128994479Y-114307948D01*
X129041348Y-114347836D01*
X129140400Y-114432136D01*
X129313044Y-114528624D01*
X129501142Y-114589740D01*
X129697527Y-114613158D01*
X129703662Y-114612686D01*
X129703664Y-114612686D01*
X129888580Y-114598457D01*
X129888584Y-114598456D01*
X129894722Y-114597984D01*
X130085213Y-114544798D01*
X130090717Y-114542018D01*
X130090719Y-114542017D01*
X130256245Y-114458404D01*
X130256247Y-114458403D01*
X130261746Y-114455625D01*
X130417597Y-114333861D01*
X130511239Y-114225376D01*
X130542799Y-114188813D01*
X130542800Y-114188811D01*
X130546828Y-114184145D01*
X130644519Y-114012179D01*
X130706947Y-113824513D01*
X130731735Y-113628295D01*
X130732130Y-113600000D01*
X130712830Y-113403167D01*
X130655666Y-113213831D01*
X130562816Y-113039204D01*
X130492459Y-112952938D01*
X130441710Y-112890713D01*
X130441707Y-112890710D01*
X130437815Y-112885938D01*
X130431474Y-112880692D01*
X130290175Y-112763799D01*
X130290171Y-112763797D01*
X130285425Y-112759870D01*
X130111451Y-112665802D01*
X129922518Y-112607318D01*
X129916393Y-112606674D01*
X129916392Y-112606674D01*
X129731954Y-112587289D01*
X129731952Y-112587289D01*
X129725825Y-112586645D01*
X129643326Y-112594153D01*
X129535001Y-112604011D01*
X129534998Y-112604012D01*
X129528862Y-112604570D01*
X129522956Y-112606308D01*
X129522952Y-112606309D01*
X129435308Y-112632104D01*
X129339131Y-112660410D01*
X129333673Y-112663263D01*
X129333669Y-112663265D01*
X129242897Y-112710720D01*
X129163860Y-112752040D01*
X129009725Y-112875968D01*
X128882596Y-113027474D01*
X128879629Y-113032872D01*
X128879625Y-113032877D01*
X128876147Y-113039204D01*
X128787317Y-113200787D01*
X128785456Y-113206654D01*
X128785455Y-113206656D01*
X128743243Y-113339726D01*
X128727515Y-113389306D01*
X128705469Y-113585851D01*
X122157752Y-113585851D01*
X122158197Y-113584513D01*
X122182985Y-113388295D01*
X122183380Y-113360000D01*
X122164080Y-113163167D01*
X122106916Y-112973831D01*
X122014066Y-112799204D01*
X121943709Y-112712938D01*
X121892960Y-112650713D01*
X121892957Y-112650710D01*
X121889065Y-112645938D01*
X121882724Y-112640692D01*
X121741425Y-112523799D01*
X121741421Y-112523797D01*
X121736675Y-112519870D01*
X121562701Y-112425802D01*
X121373768Y-112367318D01*
X121367643Y-112366674D01*
X121367642Y-112366674D01*
X121183204Y-112347289D01*
X121183202Y-112347289D01*
X121177075Y-112346645D01*
X121094576Y-112354153D01*
X120986251Y-112364011D01*
X120986248Y-112364012D01*
X120980112Y-112364570D01*
X120974206Y-112366308D01*
X120974202Y-112366309D01*
X120869076Y-112397249D01*
X120790381Y-112420410D01*
X120784923Y-112423263D01*
X120784919Y-112423265D01*
X120694147Y-112470720D01*
X120615110Y-112512040D01*
X120460975Y-112635968D01*
X120333846Y-112787474D01*
X120330879Y-112792872D01*
X120330875Y-112792877D01*
X120285196Y-112875968D01*
X120238567Y-112960787D01*
X120236706Y-112966654D01*
X120236705Y-112966656D01*
X120180627Y-113143436D01*
X120178765Y-113149306D01*
X120156719Y-113345851D01*
X118075000Y-113345851D01*
X118075000Y-111509934D01*
X123649239Y-111509934D01*
X123652022Y-111513652D01*
X123783857Y-111562681D01*
X123797448Y-111566070D01*
X123952044Y-111586697D01*
X123966040Y-111586991D01*
X124121360Y-111572855D01*
X124135085Y-111570038D01*
X124283415Y-111521843D01*
X124292055Y-111517924D01*
X124299463Y-111509934D01*
X124811739Y-111509934D01*
X124814522Y-111513652D01*
X124946357Y-111562681D01*
X124959948Y-111566070D01*
X125114544Y-111586697D01*
X125128540Y-111586991D01*
X125283860Y-111572855D01*
X125297585Y-111570038D01*
X125445915Y-111521843D01*
X125454555Y-111517924D01*
X125461963Y-111509934D01*
X125974239Y-111509934D01*
X125977022Y-111513652D01*
X126108857Y-111562681D01*
X126122448Y-111566070D01*
X126277044Y-111586697D01*
X126291040Y-111586991D01*
X126446360Y-111572855D01*
X126460085Y-111570038D01*
X126608415Y-111521843D01*
X126617055Y-111517924D01*
X126624463Y-111509934D01*
X127136739Y-111509934D01*
X127139522Y-111513652D01*
X127271357Y-111562681D01*
X127284948Y-111566070D01*
X127439544Y-111586697D01*
X127453540Y-111586991D01*
X127608860Y-111572855D01*
X127622585Y-111570038D01*
X127770915Y-111521843D01*
X127779555Y-111517924D01*
X127786963Y-111509934D01*
X128299239Y-111509934D01*
X128302022Y-111513652D01*
X128433857Y-111562681D01*
X128447448Y-111566070D01*
X128602044Y-111586697D01*
X128616040Y-111586991D01*
X128771360Y-111572855D01*
X128785085Y-111570038D01*
X128933415Y-111521843D01*
X128942055Y-111517924D01*
X128950430Y-111508891D01*
X128946925Y-111500478D01*
X128713548Y-111267101D01*
X131905469Y-111267101D01*
X131905985Y-111273245D01*
X131916293Y-111396000D01*
X131922018Y-111464184D01*
X131976533Y-111654300D01*
X132066937Y-111830206D01*
X132189785Y-111985203D01*
X132340400Y-112113386D01*
X132513044Y-112209874D01*
X132701142Y-112270990D01*
X132897527Y-112294408D01*
X132903662Y-112293936D01*
X132903664Y-112293936D01*
X133088580Y-112279707D01*
X133088584Y-112279706D01*
X133094722Y-112279234D01*
X133285213Y-112226048D01*
X133290717Y-112223268D01*
X133290719Y-112223267D01*
X133456245Y-112139654D01*
X133456247Y-112139653D01*
X133461746Y-112136875D01*
X133617597Y-112015111D01*
X133746828Y-111865395D01*
X133844519Y-111693429D01*
X133906947Y-111505763D01*
X133931735Y-111309545D01*
X133932130Y-111281250D01*
X133912830Y-111084417D01*
X133867910Y-110935634D01*
X167716500Y-110935634D01*
X167723255Y-110997816D01*
X167774385Y-111134205D01*
X167861739Y-111250761D01*
X167978295Y-111338115D01*
X168114684Y-111389245D01*
X168176866Y-111396000D01*
X170773134Y-111396000D01*
X170835316Y-111389245D01*
X170971705Y-111338115D01*
X171088261Y-111250761D01*
X171175615Y-111134205D01*
X171226745Y-110997816D01*
X171233500Y-110935634D01*
X171233500Y-109995634D01*
X175216500Y-109995634D01*
X175223255Y-110057816D01*
X175274385Y-110194205D01*
X175361739Y-110310761D01*
X175478295Y-110398115D01*
X175614684Y-110449245D01*
X175676866Y-110456000D01*
X177473134Y-110456000D01*
X177535316Y-110449245D01*
X177671705Y-110398115D01*
X177788261Y-110310761D01*
X177875615Y-110194205D01*
X177926745Y-110057816D01*
X177933500Y-109995634D01*
X177933500Y-108199366D01*
X177926745Y-108137184D01*
X177875615Y-108000795D01*
X177788261Y-107884239D01*
X177671705Y-107796885D01*
X177535316Y-107745755D01*
X177473134Y-107739000D01*
X177439452Y-107739000D01*
X177371331Y-107718998D01*
X177328177Y-107672110D01*
X177325658Y-107667368D01*
X176587812Y-106929522D01*
X176573868Y-106921908D01*
X176572035Y-106922039D01*
X176565420Y-106926290D01*
X175821737Y-107669973D01*
X175819874Y-107673385D01*
X175769672Y-107723587D01*
X175709286Y-107739000D01*
X175676866Y-107739000D01*
X175614684Y-107745755D01*
X175478295Y-107796885D01*
X175361739Y-107884239D01*
X175274385Y-108000795D01*
X175223255Y-108137184D01*
X175216500Y-108199366D01*
X175216500Y-109995634D01*
X171233500Y-109995634D01*
X171233500Y-108839366D01*
X171226745Y-108777184D01*
X171175615Y-108640795D01*
X171088261Y-108524239D01*
X170971705Y-108436885D01*
X170835316Y-108385755D01*
X170773134Y-108379000D01*
X168176866Y-108379000D01*
X168114684Y-108385755D01*
X167978295Y-108436885D01*
X167861739Y-108524239D01*
X167774385Y-108640795D01*
X167723255Y-108777184D01*
X167716500Y-108839366D01*
X167716500Y-110935634D01*
X133867910Y-110935634D01*
X133855666Y-110895081D01*
X133762816Y-110720454D01*
X133692459Y-110634188D01*
X133641710Y-110571963D01*
X133641707Y-110571960D01*
X133637815Y-110567188D01*
X133631474Y-110561942D01*
X133490175Y-110445049D01*
X133490171Y-110445047D01*
X133485425Y-110441120D01*
X133311451Y-110347052D01*
X133122518Y-110288568D01*
X133116393Y-110287924D01*
X133116392Y-110287924D01*
X132931954Y-110268539D01*
X132931952Y-110268539D01*
X132925825Y-110267895D01*
X132843326Y-110275403D01*
X132735001Y-110285261D01*
X132734998Y-110285262D01*
X132728862Y-110285820D01*
X132722956Y-110287558D01*
X132722952Y-110287559D01*
X132668514Y-110303581D01*
X132539131Y-110341660D01*
X132533673Y-110344513D01*
X132533669Y-110344515D01*
X132442897Y-110391970D01*
X132363860Y-110433290D01*
X132209725Y-110557218D01*
X132082596Y-110708724D01*
X132079629Y-110714122D01*
X132079625Y-110714127D01*
X132004808Y-110850221D01*
X131987317Y-110882037D01*
X131985456Y-110887904D01*
X131985455Y-110887906D01*
X131943145Y-111021283D01*
X131927515Y-111070556D01*
X131905469Y-111267101D01*
X128713548Y-111267101D01*
X128637812Y-111191365D01*
X128623868Y-111183751D01*
X128622035Y-111183882D01*
X128615420Y-111188133D01*
X128305999Y-111497554D01*
X128299239Y-111509934D01*
X127786963Y-111509934D01*
X127787930Y-111508891D01*
X127784425Y-111500478D01*
X127475312Y-111191365D01*
X127461368Y-111183751D01*
X127459535Y-111183882D01*
X127452920Y-111188133D01*
X127143499Y-111497554D01*
X127136739Y-111509934D01*
X126624463Y-111509934D01*
X126625430Y-111508891D01*
X126621925Y-111500478D01*
X126312812Y-111191365D01*
X126298868Y-111183751D01*
X126297035Y-111183882D01*
X126290420Y-111188133D01*
X125980999Y-111497554D01*
X125974239Y-111509934D01*
X125461963Y-111509934D01*
X125462930Y-111508891D01*
X125459425Y-111500478D01*
X125150312Y-111191365D01*
X125136368Y-111183751D01*
X125134535Y-111183882D01*
X125127920Y-111188133D01*
X124818499Y-111497554D01*
X124811739Y-111509934D01*
X124299463Y-111509934D01*
X124300430Y-111508891D01*
X124296925Y-111500478D01*
X123987812Y-111191365D01*
X123973868Y-111183751D01*
X123972035Y-111183882D01*
X123965420Y-111188133D01*
X123655999Y-111497554D01*
X123649239Y-111509934D01*
X118075000Y-111509934D01*
X118075000Y-110821362D01*
X123212966Y-110821362D01*
X123228186Y-110976585D01*
X123231097Y-110990280D01*
X123280327Y-111138270D01*
X123282729Y-111143468D01*
X123290717Y-111150772D01*
X123299338Y-111147109D01*
X123608635Y-110837812D01*
X123616249Y-110823868D01*
X123616118Y-110822035D01*
X123611867Y-110815420D01*
X123302039Y-110505592D01*
X123289659Y-110498832D01*
X123286037Y-110501543D01*
X123236001Y-110639016D01*
X123232709Y-110652625D01*
X123213162Y-110807356D01*
X123212966Y-110821362D01*
X118075000Y-110821362D01*
X118075000Y-110244882D01*
X123752501Y-110244882D01*
X123752632Y-110246715D01*
X123756883Y-110253330D01*
X124543438Y-111039885D01*
X124557382Y-111047499D01*
X124559215Y-111047368D01*
X124565830Y-111043117D01*
X125048405Y-110560542D01*
X125110717Y-110526516D01*
X125181532Y-110531581D01*
X125226595Y-110560542D01*
X125705938Y-111039885D01*
X125719882Y-111047499D01*
X125721715Y-111047368D01*
X125728330Y-111043117D01*
X126210905Y-110560542D01*
X126273217Y-110526516D01*
X126344032Y-110531581D01*
X126389095Y-110560542D01*
X126868438Y-111039885D01*
X126882382Y-111047499D01*
X126884215Y-111047368D01*
X126890830Y-111043117D01*
X127373405Y-110560542D01*
X127435717Y-110526516D01*
X127506532Y-110531581D01*
X127551595Y-110560542D01*
X128030938Y-111039885D01*
X128044882Y-111047499D01*
X128046715Y-111047368D01*
X128053330Y-111043117D01*
X128270315Y-110826132D01*
X128983751Y-110826132D01*
X128983882Y-110827965D01*
X128988133Y-110834580D01*
X129297178Y-111143625D01*
X129309558Y-111150385D01*
X129313374Y-111147528D01*
X129361331Y-111021283D01*
X129364811Y-111007727D01*
X129386948Y-110850221D01*
X129387554Y-110842338D01*
X129387741Y-110828962D01*
X129387354Y-110821062D01*
X129369625Y-110663003D01*
X129366523Y-110649350D01*
X129315700Y-110503407D01*
X129310141Y-110498467D01*
X129301088Y-110502465D01*
X128991365Y-110812188D01*
X128983751Y-110826132D01*
X128270315Y-110826132D01*
X128839885Y-110256562D01*
X128847499Y-110242618D01*
X128847368Y-110240785D01*
X128843117Y-110234170D01*
X128360542Y-109751595D01*
X128326516Y-109689283D01*
X128328351Y-109663632D01*
X128983751Y-109663632D01*
X128983882Y-109665465D01*
X128988133Y-109672080D01*
X129297178Y-109981125D01*
X129309558Y-109987885D01*
X129313374Y-109985028D01*
X129361331Y-109858783D01*
X129364811Y-109845227D01*
X129386948Y-109687721D01*
X129387554Y-109679838D01*
X129387741Y-109666462D01*
X129387354Y-109658562D01*
X129369625Y-109500503D01*
X129366523Y-109486850D01*
X129315700Y-109340907D01*
X129310141Y-109335967D01*
X129301088Y-109339965D01*
X128991365Y-109649688D01*
X128983751Y-109663632D01*
X128328351Y-109663632D01*
X128331581Y-109618468D01*
X128360542Y-109573405D01*
X128839885Y-109094062D01*
X128847499Y-109080118D01*
X128847368Y-109078285D01*
X128843117Y-109071670D01*
X128360542Y-108589095D01*
X128326516Y-108526783D01*
X128328351Y-108501132D01*
X128983751Y-108501132D01*
X128983882Y-108502965D01*
X128988133Y-108509580D01*
X129297178Y-108818625D01*
X129309558Y-108825385D01*
X129313374Y-108822528D01*
X129361331Y-108696283D01*
X129364811Y-108682727D01*
X129386948Y-108525221D01*
X129387554Y-108517338D01*
X129387741Y-108503962D01*
X129387354Y-108496062D01*
X129369625Y-108338003D01*
X129366523Y-108324350D01*
X129315700Y-108178407D01*
X129310141Y-108173467D01*
X129301088Y-108177465D01*
X128991365Y-108487188D01*
X128983751Y-108501132D01*
X128328351Y-108501132D01*
X128331581Y-108455968D01*
X128360542Y-108410905D01*
X128839885Y-107931562D01*
X128847499Y-107917618D01*
X128847368Y-107915785D01*
X128843117Y-107909170D01*
X128721447Y-107787500D01*
X140161496Y-107787500D01*
X140162186Y-107794065D01*
X140176298Y-107928330D01*
X140181458Y-107977428D01*
X140240473Y-108159056D01*
X140335960Y-108324444D01*
X140340378Y-108329351D01*
X140340379Y-108329352D01*
X140459325Y-108461455D01*
X140463747Y-108466366D01*
X140618248Y-108578618D01*
X140624276Y-108581302D01*
X140624278Y-108581303D01*
X140776785Y-108649203D01*
X140792712Y-108656294D01*
X140886113Y-108676147D01*
X140973056Y-108694628D01*
X140973061Y-108694628D01*
X140979513Y-108696000D01*
X141170487Y-108696000D01*
X141176939Y-108694628D01*
X141176944Y-108694628D01*
X141263887Y-108676147D01*
X141357288Y-108656294D01*
X141373215Y-108649203D01*
X141525722Y-108581303D01*
X141525724Y-108581302D01*
X141531752Y-108578618D01*
X141686253Y-108466366D01*
X141690675Y-108461455D01*
X141809621Y-108329352D01*
X141809622Y-108329351D01*
X141814040Y-108324444D01*
X141909527Y-108159056D01*
X141960950Y-108000795D01*
X141966500Y-107983713D01*
X141966500Y-107983712D01*
X141968475Y-107977633D01*
X141968477Y-107977630D01*
X141968542Y-107977428D01*
X141968579Y-107977440D01*
X142001077Y-107917245D01*
X142063227Y-107882923D01*
X142116794Y-107882669D01*
X142173049Y-107894627D01*
X142173058Y-107894628D01*
X142179513Y-107896000D01*
X142370487Y-107896000D01*
X142376939Y-107894628D01*
X142376944Y-107894628D01*
X142463888Y-107876147D01*
X142557288Y-107856294D01*
X142568215Y-107851429D01*
X142725722Y-107781303D01*
X142725724Y-107781302D01*
X142731752Y-107778618D01*
X142886253Y-107666366D01*
X142895474Y-107656125D01*
X143009621Y-107529352D01*
X143009622Y-107529351D01*
X143014040Y-107524444D01*
X143079987Y-107410221D01*
X143106223Y-107364779D01*
X143106224Y-107364778D01*
X143109527Y-107359056D01*
X143168542Y-107177428D01*
X143171266Y-107151516D01*
X143187814Y-106994065D01*
X143188504Y-106987500D01*
X143181129Y-106917334D01*
X143169232Y-106804135D01*
X143169232Y-106804133D01*
X143168542Y-106797572D01*
X143159279Y-106769062D01*
X143111569Y-106622229D01*
X143109527Y-106615944D01*
X143077727Y-106560864D01*
X143031915Y-106481517D01*
X143014040Y-106450556D01*
X143004048Y-106439458D01*
X142890675Y-106313545D01*
X142890674Y-106313544D01*
X142886253Y-106308634D01*
X142859829Y-106289435D01*
X142816475Y-106233214D01*
X142810399Y-106162478D01*
X142843531Y-106099686D01*
X142859829Y-106085564D01*
X142880909Y-106070249D01*
X142880911Y-106070247D01*
X142886253Y-106066366D01*
X142918355Y-106030713D01*
X143009621Y-105929352D01*
X143009622Y-105929351D01*
X143014040Y-105924444D01*
X143076582Y-105816118D01*
X143106223Y-105764779D01*
X143106224Y-105764778D01*
X143109527Y-105759056D01*
X143168542Y-105577428D01*
X143178118Y-105486323D01*
X143187814Y-105394065D01*
X143188504Y-105387500D01*
X143173035Y-105240317D01*
X167712514Y-105240317D01*
X167713095Y-105245337D01*
X167713095Y-105245341D01*
X167735852Y-105442017D01*
X167740415Y-105481456D01*
X167741791Y-105486320D01*
X167741792Y-105486323D01*
X167787476Y-105647766D01*
X167806510Y-105715032D01*
X167808644Y-105719608D01*
X167808646Y-105719614D01*
X167906962Y-105930454D01*
X167909099Y-105935036D01*
X168045544Y-106135807D01*
X168212332Y-106312181D01*
X168216358Y-106315259D01*
X168216359Y-106315260D01*
X168401154Y-106456547D01*
X168401158Y-106456550D01*
X168405174Y-106459620D01*
X168619109Y-106574331D01*
X168848631Y-106653362D01*
X168947978Y-106670522D01*
X169083926Y-106694004D01*
X169083932Y-106694005D01*
X169087836Y-106694679D01*
X169091797Y-106694859D01*
X169091798Y-106694859D01*
X169115506Y-106695936D01*
X169115525Y-106695936D01*
X169116925Y-106696000D01*
X169786001Y-106696000D01*
X169788509Y-106695798D01*
X169788514Y-106695798D01*
X169961924Y-106681846D01*
X169961929Y-106681845D01*
X169966965Y-106681440D01*
X169971873Y-106680234D01*
X169971876Y-106680234D01*
X170197792Y-106624744D01*
X170202706Y-106623537D01*
X170207358Y-106621562D01*
X170207362Y-106621561D01*
X170388462Y-106544688D01*
X170424566Y-106529363D01*
X175213050Y-106529363D01*
X175225309Y-106741977D01*
X175226745Y-106752197D01*
X175273565Y-106959946D01*
X175276645Y-106969775D01*
X175356770Y-107167103D01*
X175361413Y-107176294D01*
X175441460Y-107306920D01*
X175451916Y-107316380D01*
X175460694Y-107312596D01*
X176202978Y-106570312D01*
X176209356Y-106558632D01*
X176939408Y-106558632D01*
X176939539Y-106560465D01*
X176943790Y-106567080D01*
X177685474Y-107308764D01*
X177697484Y-107315323D01*
X177709223Y-107306355D01*
X177740004Y-107263519D01*
X177745315Y-107254680D01*
X177839670Y-107063767D01*
X177843469Y-107054172D01*
X177905376Y-106850415D01*
X177907555Y-106840334D01*
X177935590Y-106627387D01*
X177936109Y-106620712D01*
X177937572Y-106560864D01*
X177937378Y-106554146D01*
X177919781Y-106340104D01*
X177918096Y-106329924D01*
X177866214Y-106123375D01*
X177862894Y-106113624D01*
X177777972Y-105918314D01*
X177773105Y-105909239D01*
X177708063Y-105808697D01*
X177697377Y-105799495D01*
X177687812Y-105803898D01*
X176947022Y-106544688D01*
X176939408Y-106558632D01*
X176209356Y-106558632D01*
X176210592Y-106556368D01*
X176210461Y-106554535D01*
X176206210Y-106547920D01*
X175464849Y-105806559D01*
X175453313Y-105800259D01*
X175441031Y-105809882D01*
X175393089Y-105880162D01*
X175388004Y-105889113D01*
X175298338Y-106082283D01*
X175294775Y-106091970D01*
X175237864Y-106297181D01*
X175235933Y-106307300D01*
X175213302Y-106519074D01*
X175213050Y-106529363D01*
X170424566Y-106529363D01*
X170426156Y-106528688D01*
X170532037Y-106462011D01*
X170627288Y-106402028D01*
X170627291Y-106402026D01*
X170631567Y-106399333D01*
X170734446Y-106308634D01*
X170809858Y-106242150D01*
X170809861Y-106242147D01*
X170813655Y-106238802D01*
X170848499Y-106196382D01*
X170964526Y-106055128D01*
X170964528Y-106055125D01*
X170967734Y-106051222D01*
X171083414Y-105852465D01*
X171087299Y-105845790D01*
X171087300Y-105845788D01*
X171089841Y-105841422D01*
X171123871Y-105752771D01*
X171175020Y-105619522D01*
X171175021Y-105619518D01*
X171176833Y-105614798D01*
X171177868Y-105609845D01*
X171225440Y-105382131D01*
X171225440Y-105382127D01*
X171226474Y-105377180D01*
X171237486Y-105134683D01*
X171232179Y-105088813D01*
X171210167Y-104898571D01*
X171210166Y-104898567D01*
X171209585Y-104893544D01*
X171170517Y-104755478D01*
X171144866Y-104664831D01*
X171143490Y-104659968D01*
X171141356Y-104655392D01*
X171141354Y-104655386D01*
X171043038Y-104444546D01*
X171043036Y-104444542D01*
X171040901Y-104439964D01*
X171034079Y-104429925D01*
X170973609Y-104340948D01*
X170904456Y-104239193D01*
X170737668Y-104062819D01*
X170695220Y-104030365D01*
X170634832Y-103984195D01*
X175212251Y-103984195D01*
X175212548Y-103989348D01*
X175212548Y-103989351D01*
X175220066Y-104119731D01*
X175225110Y-104207215D01*
X175226247Y-104212261D01*
X175226248Y-104212267D01*
X175233260Y-104243381D01*
X175274222Y-104425139D01*
X175358266Y-104632116D01*
X175396573Y-104694628D01*
X175468762Y-104812429D01*
X175474987Y-104822588D01*
X175621250Y-104991438D01*
X175793126Y-105134132D01*
X175802718Y-105139737D01*
X175866955Y-105177274D01*
X175915679Y-105228912D01*
X175928750Y-105298695D01*
X175902019Y-105364467D01*
X175861562Y-105397827D01*
X175853460Y-105402044D01*
X175844734Y-105407539D01*
X175824677Y-105422599D01*
X175816223Y-105433927D01*
X175822968Y-105446258D01*
X176562188Y-106185478D01*
X176576132Y-106193092D01*
X176577965Y-106192961D01*
X176584580Y-106188710D01*
X177328389Y-105444901D01*
X177335410Y-105432044D01*
X177328611Y-105422713D01*
X177324559Y-105420021D01*
X177287602Y-105399620D01*
X177237631Y-105349187D01*
X177222859Y-105279745D01*
X177247975Y-105213339D01*
X177275327Y-105186732D01*
X177341212Y-105139737D01*
X177454860Y-105058673D01*
X177613096Y-104900989D01*
X177672594Y-104818189D01*
X177740435Y-104723777D01*
X177743453Y-104719577D01*
X177748862Y-104708634D01*
X177840136Y-104523953D01*
X177840137Y-104523951D01*
X177842430Y-104519311D01*
X177885126Y-104378784D01*
X177905865Y-104310523D01*
X177905865Y-104310521D01*
X177907370Y-104305569D01*
X177936529Y-104084090D01*
X177938156Y-104017500D01*
X177919852Y-103794861D01*
X177865431Y-103578202D01*
X177776354Y-103373340D01*
X177700621Y-103256274D01*
X177657822Y-103190117D01*
X177657820Y-103190114D01*
X177655014Y-103185777D01*
X177504670Y-103020551D01*
X177500619Y-103017352D01*
X177500615Y-103017348D01*
X177333414Y-102885300D01*
X177333410Y-102885298D01*
X177329359Y-102882098D01*
X177288053Y-102859296D01*
X177238084Y-102808864D01*
X177223312Y-102739421D01*
X177248428Y-102673016D01*
X177275780Y-102646409D01*
X177319603Y-102615150D01*
X177454860Y-102518673D01*
X177466707Y-102506868D01*
X177557500Y-102416391D01*
X177613096Y-102360989D01*
X177646063Y-102315111D01*
X177740435Y-102183777D01*
X177743453Y-102179577D01*
X177760429Y-102145230D01*
X177840136Y-101983953D01*
X177840137Y-101983951D01*
X177842430Y-101979311D01*
X177893380Y-101811615D01*
X177905865Y-101770523D01*
X177905865Y-101770521D01*
X177907370Y-101765569D01*
X177936529Y-101544090D01*
X177938156Y-101477500D01*
X177919852Y-101254861D01*
X177865431Y-101038202D01*
X177776354Y-100833340D01*
X177682210Y-100687815D01*
X177657822Y-100650117D01*
X177657820Y-100650114D01*
X177655014Y-100645777D01*
X177504670Y-100480551D01*
X177500619Y-100477352D01*
X177500615Y-100477348D01*
X177333414Y-100345300D01*
X177333410Y-100345298D01*
X177329359Y-100342098D01*
X177133789Y-100234138D01*
X177128920Y-100232414D01*
X177128916Y-100232412D01*
X176928087Y-100161295D01*
X176928083Y-100161294D01*
X176923212Y-100159569D01*
X176918119Y-100158662D01*
X176918116Y-100158661D01*
X176708373Y-100121300D01*
X176708367Y-100121299D01*
X176703284Y-100120394D01*
X176629452Y-100119492D01*
X176485081Y-100117728D01*
X176485079Y-100117728D01*
X176479911Y-100117665D01*
X176259091Y-100151455D01*
X176046756Y-100220857D01*
X176016443Y-100236637D01*
X175864029Y-100315979D01*
X175848607Y-100324007D01*
X175844474Y-100327110D01*
X175844471Y-100327112D01*
X175674100Y-100455030D01*
X175669965Y-100458135D01*
X175515629Y-100619638D01*
X175512715Y-100623910D01*
X175512714Y-100623911D01*
X175473600Y-100681250D01*
X175389743Y-100804180D01*
X175374003Y-100838090D01*
X175299543Y-100998501D01*
X175295688Y-101006805D01*
X175235989Y-101222070D01*
X175212251Y-101444195D01*
X175212548Y-101449348D01*
X175212548Y-101449351D01*
X175220564Y-101588378D01*
X175225110Y-101667215D01*
X175226247Y-101672261D01*
X175226248Y-101672267D01*
X175246963Y-101764184D01*
X175274222Y-101885139D01*
X175358266Y-102092116D01*
X175474987Y-102282588D01*
X175621250Y-102451438D01*
X175793126Y-102594132D01*
X175863595Y-102635311D01*
X175866445Y-102636976D01*
X175915169Y-102688614D01*
X175928240Y-102758397D01*
X175901509Y-102824169D01*
X175861055Y-102857527D01*
X175848607Y-102864007D01*
X175844474Y-102867110D01*
X175844471Y-102867112D01*
X175674100Y-102995030D01*
X175669965Y-102998135D01*
X175666393Y-103001873D01*
X175559677Y-103113545D01*
X175515629Y-103159638D01*
X175389743Y-103344180D01*
X175354674Y-103419731D01*
X175314486Y-103506309D01*
X175295688Y-103546805D01*
X175235989Y-103762070D01*
X175212251Y-103984195D01*
X170634832Y-103984195D01*
X170548846Y-103918453D01*
X170548842Y-103918450D01*
X170544826Y-103915380D01*
X170330891Y-103800669D01*
X170101369Y-103721638D01*
X170002022Y-103704478D01*
X169866074Y-103680996D01*
X169866068Y-103680995D01*
X169862164Y-103680321D01*
X169858203Y-103680141D01*
X169858202Y-103680141D01*
X169834494Y-103679064D01*
X169834475Y-103679064D01*
X169833075Y-103679000D01*
X169163999Y-103679000D01*
X169161491Y-103679202D01*
X169161486Y-103679202D01*
X168988076Y-103693154D01*
X168988071Y-103693155D01*
X168983035Y-103693560D01*
X168978127Y-103694766D01*
X168978124Y-103694766D01*
X168862007Y-103723287D01*
X168747294Y-103751463D01*
X168742642Y-103753438D01*
X168742638Y-103753439D01*
X168646930Y-103794065D01*
X168523844Y-103846312D01*
X168519560Y-103849010D01*
X168322712Y-103972972D01*
X168322709Y-103972974D01*
X168318433Y-103975667D01*
X168277473Y-104011778D01*
X168140142Y-104132850D01*
X168140139Y-104132853D01*
X168136345Y-104136198D01*
X168133135Y-104140106D01*
X168133134Y-104140107D01*
X167986416Y-104318726D01*
X167982266Y-104323778D01*
X167944533Y-104388610D01*
X167868463Y-104519311D01*
X167860159Y-104533578D01*
X167858346Y-104538301D01*
X167780148Y-104742017D01*
X167773167Y-104760202D01*
X167772133Y-104765152D01*
X167772132Y-104765155D01*
X167753097Y-104856274D01*
X167723526Y-104997820D01*
X167712514Y-105240317D01*
X143173035Y-105240317D01*
X143172755Y-105237655D01*
X143169232Y-105204135D01*
X143169232Y-105204133D01*
X143168542Y-105197572D01*
X143109527Y-105015944D01*
X143101981Y-105002873D01*
X143045264Y-104904637D01*
X143014040Y-104850556D01*
X142959938Y-104790469D01*
X142890675Y-104713545D01*
X142890674Y-104713544D01*
X142886253Y-104708634D01*
X142731752Y-104596382D01*
X142725724Y-104593698D01*
X142725722Y-104593697D01*
X142563319Y-104521391D01*
X142563318Y-104521391D01*
X142557288Y-104518706D01*
X142452794Y-104496495D01*
X142376944Y-104480372D01*
X142376939Y-104480372D01*
X142370487Y-104479000D01*
X142179513Y-104479000D01*
X142173061Y-104480372D01*
X142173056Y-104480372D01*
X142097206Y-104496495D01*
X141992712Y-104518706D01*
X141986682Y-104521391D01*
X141986681Y-104521391D01*
X141944065Y-104540365D01*
X141873698Y-104549799D01*
X141809401Y-104519693D01*
X141771587Y-104459604D01*
X141772263Y-104388610D01*
X141799178Y-104340950D01*
X141814040Y-104324444D01*
X141909527Y-104159056D01*
X141968542Y-103977428D01*
X141972560Y-103939204D01*
X141987814Y-103794065D01*
X141988504Y-103787500D01*
X141988331Y-103785851D01*
X144186719Y-103785851D01*
X144187235Y-103791995D01*
X144202658Y-103975667D01*
X144203268Y-103982934D01*
X144216869Y-104030365D01*
X144248337Y-104140107D01*
X144257783Y-104173050D01*
X144348187Y-104348956D01*
X144471035Y-104503953D01*
X144621650Y-104632136D01*
X144794294Y-104728624D01*
X144982392Y-104789740D01*
X145178777Y-104813158D01*
X145184912Y-104812686D01*
X145184914Y-104812686D01*
X145369830Y-104798457D01*
X145369834Y-104798456D01*
X145375972Y-104797984D01*
X145566463Y-104744798D01*
X145571967Y-104742018D01*
X145571969Y-104742017D01*
X145737495Y-104658404D01*
X145737497Y-104658403D01*
X145742996Y-104655625D01*
X145898847Y-104533861D01*
X146028078Y-104384145D01*
X146125769Y-104212179D01*
X146188197Y-104024513D01*
X146212985Y-103828295D01*
X146213380Y-103800000D01*
X146194080Y-103603167D01*
X146190496Y-103591294D01*
X146170162Y-103523947D01*
X146136916Y-103413831D01*
X146044066Y-103239204D01*
X145941581Y-103113545D01*
X145922960Y-103090713D01*
X145922957Y-103090710D01*
X145919065Y-103085938D01*
X145914316Y-103082009D01*
X145771425Y-102963799D01*
X145771421Y-102963797D01*
X145766675Y-102959870D01*
X145592701Y-102865802D01*
X145403768Y-102807318D01*
X145397643Y-102806674D01*
X145397642Y-102806674D01*
X145213204Y-102787289D01*
X145213202Y-102787289D01*
X145207075Y-102786645D01*
X145124576Y-102794153D01*
X145016251Y-102804011D01*
X145016248Y-102804012D01*
X145010112Y-102804570D01*
X145004206Y-102806308D01*
X145004202Y-102806309D01*
X144943519Y-102824169D01*
X144820381Y-102860410D01*
X144814923Y-102863263D01*
X144814919Y-102863265D01*
X144774460Y-102884417D01*
X144645110Y-102952040D01*
X144490975Y-103075968D01*
X144363846Y-103227474D01*
X144360879Y-103232872D01*
X144360875Y-103232877D01*
X144317589Y-103311615D01*
X144268567Y-103400787D01*
X144266706Y-103406654D01*
X144266705Y-103406656D01*
X144212287Y-103578202D01*
X144208765Y-103589306D01*
X144186719Y-103785851D01*
X141988331Y-103785851D01*
X141976161Y-103670063D01*
X141969232Y-103604135D01*
X141969232Y-103604133D01*
X141968542Y-103597572D01*
X141909527Y-103415944D01*
X141814040Y-103250556D01*
X141686253Y-103108634D01*
X141531752Y-102996382D01*
X141525724Y-102993698D01*
X141525722Y-102993697D01*
X141363319Y-102921391D01*
X141363318Y-102921391D01*
X141357288Y-102918706D01*
X141263887Y-102898853D01*
X141176944Y-102880372D01*
X141176939Y-102880372D01*
X141170487Y-102879000D01*
X140979513Y-102879000D01*
X140973061Y-102880372D01*
X140973056Y-102880372D01*
X140886113Y-102898853D01*
X140792712Y-102918706D01*
X140786682Y-102921391D01*
X140786681Y-102921391D01*
X140624278Y-102993697D01*
X140624276Y-102993698D01*
X140618248Y-102996382D01*
X140463747Y-103108634D01*
X140335960Y-103250556D01*
X140240473Y-103415944D01*
X140181458Y-103597572D01*
X140180768Y-103604133D01*
X140180768Y-103604135D01*
X140173839Y-103670063D01*
X140161496Y-103787500D01*
X140162186Y-103794065D01*
X140177441Y-103939204D01*
X140181458Y-103977428D01*
X140240473Y-104159056D01*
X140335960Y-104324444D01*
X140340375Y-104329347D01*
X140340379Y-104329352D01*
X140444100Y-104444546D01*
X140463747Y-104466366D01*
X140618248Y-104578618D01*
X140624276Y-104581302D01*
X140624278Y-104581303D01*
X140782683Y-104651829D01*
X140792712Y-104656294D01*
X140886113Y-104676147D01*
X140973056Y-104694628D01*
X140973061Y-104694628D01*
X140979513Y-104696000D01*
X141170487Y-104696000D01*
X141176939Y-104694628D01*
X141176944Y-104694628D01*
X141263887Y-104676147D01*
X141357288Y-104656294D01*
X141405935Y-104634635D01*
X141476302Y-104625201D01*
X141540599Y-104655307D01*
X141578413Y-104715396D01*
X141577737Y-104786390D01*
X141550822Y-104834050D01*
X141535960Y-104850556D01*
X141504736Y-104904637D01*
X141448020Y-105002873D01*
X141440473Y-105015944D01*
X141381458Y-105197572D01*
X141380768Y-105204133D01*
X141380768Y-105204135D01*
X141377245Y-105237655D01*
X141361496Y-105387500D01*
X141362186Y-105394065D01*
X141371883Y-105486323D01*
X141381458Y-105577428D01*
X141440473Y-105759056D01*
X141443776Y-105764778D01*
X141443777Y-105764779D01*
X141473418Y-105816118D01*
X141535960Y-105924444D01*
X141540378Y-105929351D01*
X141540379Y-105929352D01*
X141631645Y-106030713D01*
X141663747Y-106066366D01*
X141669089Y-106070247D01*
X141669091Y-106070249D01*
X141690171Y-106085564D01*
X141733525Y-106141786D01*
X141739601Y-106212522D01*
X141706469Y-106275314D01*
X141690173Y-106289435D01*
X141663747Y-106308634D01*
X141659326Y-106313544D01*
X141659325Y-106313545D01*
X141545953Y-106439458D01*
X141535960Y-106450556D01*
X141518085Y-106481517D01*
X141472274Y-106560864D01*
X141440473Y-106615944D01*
X141438431Y-106622229D01*
X141390722Y-106769062D01*
X141381525Y-106797367D01*
X141381523Y-106797370D01*
X141381458Y-106797572D01*
X141381421Y-106797560D01*
X141348923Y-106857755D01*
X141286773Y-106892077D01*
X141233206Y-106892331D01*
X141176951Y-106880373D01*
X141176942Y-106880372D01*
X141170487Y-106879000D01*
X140979513Y-106879000D01*
X140973061Y-106880372D01*
X140973056Y-106880372D01*
X140886113Y-106898853D01*
X140792712Y-106918706D01*
X140786682Y-106921391D01*
X140786681Y-106921391D01*
X140624278Y-106993697D01*
X140624276Y-106993698D01*
X140618248Y-106996382D01*
X140612907Y-107000262D01*
X140612906Y-107000263D01*
X140597671Y-107011332D01*
X140463747Y-107108634D01*
X140335960Y-107250556D01*
X140240473Y-107415944D01*
X140181458Y-107597572D01*
X140180768Y-107604133D01*
X140180768Y-107604135D01*
X140165592Y-107748529D01*
X140161496Y-107787500D01*
X128721447Y-107787500D01*
X128360542Y-107426595D01*
X128326516Y-107364283D01*
X128328351Y-107338632D01*
X128983751Y-107338632D01*
X128983882Y-107340465D01*
X128988133Y-107347080D01*
X129297178Y-107656125D01*
X129309558Y-107662885D01*
X129313374Y-107660028D01*
X129361331Y-107533783D01*
X129364811Y-107520227D01*
X129386948Y-107362721D01*
X129387554Y-107354838D01*
X129387741Y-107341462D01*
X129387354Y-107333562D01*
X129369625Y-107175503D01*
X129366523Y-107161850D01*
X129315700Y-107015907D01*
X129310141Y-107010967D01*
X129301088Y-107014965D01*
X128991365Y-107324688D01*
X128983751Y-107338632D01*
X128328351Y-107338632D01*
X128331581Y-107293468D01*
X128360542Y-107248405D01*
X128839885Y-106769062D01*
X128847499Y-106755118D01*
X128847368Y-106753285D01*
X128843117Y-106746670D01*
X128272579Y-106176132D01*
X128983751Y-106176132D01*
X128983882Y-106177965D01*
X128988133Y-106184580D01*
X129297178Y-106493625D01*
X129309558Y-106500385D01*
X129313374Y-106497528D01*
X129361331Y-106371283D01*
X129364811Y-106357727D01*
X129386948Y-106200221D01*
X129387554Y-106192338D01*
X129387741Y-106178962D01*
X129387354Y-106171062D01*
X129369625Y-106013003D01*
X129366523Y-105999350D01*
X129315700Y-105853407D01*
X129310141Y-105848467D01*
X129301088Y-105852465D01*
X128991365Y-106162188D01*
X128983751Y-106176132D01*
X128272579Y-106176132D01*
X128056562Y-105960115D01*
X128042618Y-105952501D01*
X128040785Y-105952632D01*
X128034170Y-105956883D01*
X127551595Y-106439458D01*
X127489283Y-106473484D01*
X127418468Y-106468419D01*
X127373405Y-106439458D01*
X126894062Y-105960115D01*
X126880118Y-105952501D01*
X126878285Y-105952632D01*
X126871670Y-105956883D01*
X126389095Y-106439458D01*
X126326783Y-106473484D01*
X126255968Y-106468419D01*
X126210905Y-106439458D01*
X125731562Y-105960115D01*
X125717618Y-105952501D01*
X125715785Y-105952632D01*
X125709170Y-105956883D01*
X125226595Y-106439458D01*
X125164283Y-106473484D01*
X125093468Y-106468419D01*
X125048405Y-106439458D01*
X124569062Y-105960115D01*
X124555118Y-105952501D01*
X124553285Y-105952632D01*
X124546670Y-105956883D01*
X123760115Y-106743438D01*
X123752501Y-106757382D01*
X123752632Y-106759215D01*
X123756883Y-106765830D01*
X124239458Y-107248405D01*
X124273484Y-107310717D01*
X124268419Y-107381532D01*
X124239458Y-107426595D01*
X123760115Y-107905938D01*
X123752501Y-107919882D01*
X123752632Y-107921715D01*
X123756883Y-107928330D01*
X124239458Y-108410905D01*
X124273484Y-108473217D01*
X124268419Y-108544032D01*
X124239458Y-108589095D01*
X123760115Y-109068438D01*
X123752501Y-109082382D01*
X123752632Y-109084215D01*
X123756883Y-109090830D01*
X124239458Y-109573405D01*
X124273484Y-109635717D01*
X124268419Y-109706532D01*
X124239458Y-109751595D01*
X123760115Y-110230938D01*
X123752501Y-110244882D01*
X118075000Y-110244882D01*
X118075000Y-109658862D01*
X123212966Y-109658862D01*
X123228186Y-109814085D01*
X123231097Y-109827780D01*
X123280327Y-109975770D01*
X123282729Y-109980968D01*
X123290717Y-109988272D01*
X123299338Y-109984609D01*
X123608635Y-109675312D01*
X123616249Y-109661368D01*
X123616118Y-109659535D01*
X123611867Y-109652920D01*
X123302039Y-109343092D01*
X123289659Y-109336332D01*
X123286037Y-109339043D01*
X123236001Y-109476516D01*
X123232709Y-109490125D01*
X123213162Y-109644856D01*
X123212966Y-109658862D01*
X118075000Y-109658862D01*
X118075000Y-108496362D01*
X123212966Y-108496362D01*
X123228186Y-108651585D01*
X123231097Y-108665280D01*
X123280327Y-108813270D01*
X123282729Y-108818468D01*
X123290717Y-108825772D01*
X123299338Y-108822109D01*
X123608635Y-108512812D01*
X123616249Y-108498868D01*
X123616118Y-108497035D01*
X123611867Y-108490420D01*
X123302039Y-108180592D01*
X123289659Y-108173832D01*
X123286037Y-108176543D01*
X123236001Y-108314016D01*
X123232709Y-108327625D01*
X123213162Y-108482356D01*
X123212966Y-108496362D01*
X118075000Y-108496362D01*
X118075000Y-106725851D01*
X120446719Y-106725851D01*
X120447235Y-106731995D01*
X120457179Y-106850415D01*
X120463268Y-106922934D01*
X120476869Y-106970365D01*
X120489658Y-107014965D01*
X120517783Y-107113050D01*
X120520602Y-107118535D01*
X120585930Y-107245648D01*
X120608187Y-107288956D01*
X120731035Y-107443953D01*
X120881650Y-107572136D01*
X121054294Y-107668624D01*
X121242392Y-107729740D01*
X121438777Y-107753158D01*
X121444912Y-107752686D01*
X121444914Y-107752686D01*
X121629830Y-107738457D01*
X121629834Y-107738456D01*
X121635972Y-107737984D01*
X121826463Y-107684798D01*
X121831967Y-107682018D01*
X121831969Y-107682017D01*
X121997495Y-107598404D01*
X121997497Y-107598403D01*
X122002996Y-107595625D01*
X122158847Y-107473861D01*
X122268281Y-107347080D01*
X122279691Y-107333862D01*
X123212966Y-107333862D01*
X123228186Y-107489085D01*
X123231097Y-107502780D01*
X123280327Y-107650770D01*
X123282729Y-107655968D01*
X123290717Y-107663272D01*
X123299338Y-107659609D01*
X123608635Y-107350312D01*
X123616249Y-107336368D01*
X123616118Y-107334535D01*
X123611867Y-107327920D01*
X123302039Y-107018092D01*
X123289659Y-107011332D01*
X123286037Y-107014043D01*
X123236001Y-107151516D01*
X123232709Y-107165125D01*
X123213162Y-107319856D01*
X123212966Y-107333862D01*
X122279691Y-107333862D01*
X122284049Y-107328813D01*
X122284050Y-107328811D01*
X122288078Y-107324145D01*
X122385769Y-107152179D01*
X122448197Y-106964513D01*
X122472985Y-106768295D01*
X122473380Y-106740000D01*
X122454080Y-106543167D01*
X122450306Y-106530665D01*
X122422768Y-106439458D01*
X122396916Y-106353831D01*
X122304066Y-106179204D01*
X122297670Y-106171362D01*
X123212966Y-106171362D01*
X123228186Y-106326585D01*
X123231097Y-106340280D01*
X123280327Y-106488270D01*
X123282729Y-106493468D01*
X123290717Y-106500772D01*
X123299338Y-106497109D01*
X123608635Y-106187812D01*
X123616249Y-106173868D01*
X123616118Y-106172035D01*
X123611867Y-106165420D01*
X123302039Y-105855592D01*
X123289659Y-105848832D01*
X123286037Y-105851543D01*
X123236001Y-105989016D01*
X123232709Y-106002625D01*
X123213162Y-106157356D01*
X123212966Y-106171362D01*
X122297670Y-106171362D01*
X122215204Y-106070249D01*
X122182960Y-106030713D01*
X122182957Y-106030710D01*
X122179065Y-106025938D01*
X122172724Y-106020692D01*
X122031425Y-105903799D01*
X122031421Y-105903797D01*
X122026675Y-105899870D01*
X121852701Y-105805802D01*
X121663768Y-105747318D01*
X121657643Y-105746674D01*
X121657642Y-105746674D01*
X121473204Y-105727289D01*
X121473202Y-105727289D01*
X121467075Y-105726645D01*
X121384576Y-105734153D01*
X121276251Y-105744011D01*
X121276248Y-105744012D01*
X121270112Y-105744570D01*
X121264206Y-105746308D01*
X121264202Y-105746309D01*
X121159076Y-105777249D01*
X121080381Y-105800410D01*
X121074923Y-105803263D01*
X121074919Y-105803265D01*
X120988457Y-105848467D01*
X120905110Y-105892040D01*
X120750975Y-106015968D01*
X120623846Y-106167474D01*
X120620879Y-106172872D01*
X120620875Y-106172877D01*
X120546316Y-106308501D01*
X120528567Y-106340787D01*
X120526706Y-106346654D01*
X120526705Y-106346656D01*
X120472011Y-106519074D01*
X120468765Y-106529306D01*
X120446719Y-106725851D01*
X118075000Y-106725851D01*
X118075000Y-105490302D01*
X123648860Y-105490302D01*
X123652684Y-105499131D01*
X123962188Y-105808635D01*
X123976132Y-105816249D01*
X123977965Y-105816118D01*
X123984580Y-105811867D01*
X124294847Y-105501600D01*
X124301016Y-105490302D01*
X124811360Y-105490302D01*
X124815184Y-105499131D01*
X125124688Y-105808635D01*
X125138632Y-105816249D01*
X125140465Y-105816118D01*
X125147080Y-105811867D01*
X125457347Y-105501600D01*
X125463516Y-105490302D01*
X125973860Y-105490302D01*
X125977684Y-105499131D01*
X126287188Y-105808635D01*
X126301132Y-105816249D01*
X126302965Y-105816118D01*
X126309580Y-105811867D01*
X126619847Y-105501600D01*
X126626016Y-105490302D01*
X127136360Y-105490302D01*
X127140184Y-105499131D01*
X127449688Y-105808635D01*
X127463632Y-105816249D01*
X127465465Y-105816118D01*
X127472080Y-105811867D01*
X127782347Y-105501600D01*
X127788516Y-105490302D01*
X128298860Y-105490302D01*
X128302684Y-105499131D01*
X128612188Y-105808635D01*
X128626132Y-105816249D01*
X128627965Y-105816118D01*
X128634580Y-105811867D01*
X128944847Y-105501600D01*
X128951607Y-105489220D01*
X128949022Y-105485766D01*
X128948722Y-105485606D01*
X128805820Y-105434720D01*
X128792195Y-105431524D01*
X128637318Y-105413057D01*
X128623321Y-105412959D01*
X128468207Y-105429262D01*
X128454533Y-105432268D01*
X128306884Y-105482532D01*
X128305113Y-105483366D01*
X128298860Y-105490302D01*
X127788516Y-105490302D01*
X127789107Y-105489220D01*
X127786522Y-105485766D01*
X127786222Y-105485606D01*
X127643320Y-105434720D01*
X127629695Y-105431524D01*
X127474818Y-105413057D01*
X127460821Y-105412959D01*
X127305707Y-105429262D01*
X127292033Y-105432268D01*
X127144384Y-105482532D01*
X127142613Y-105483366D01*
X127136360Y-105490302D01*
X126626016Y-105490302D01*
X126626607Y-105489220D01*
X126624022Y-105485766D01*
X126623722Y-105485606D01*
X126480820Y-105434720D01*
X126467195Y-105431524D01*
X126312318Y-105413057D01*
X126298321Y-105412959D01*
X126143207Y-105429262D01*
X126129533Y-105432268D01*
X125981884Y-105482532D01*
X125980113Y-105483366D01*
X125973860Y-105490302D01*
X125463516Y-105490302D01*
X125464107Y-105489220D01*
X125461522Y-105485766D01*
X125461222Y-105485606D01*
X125318320Y-105434720D01*
X125304695Y-105431524D01*
X125149818Y-105413057D01*
X125135821Y-105412959D01*
X124980707Y-105429262D01*
X124967033Y-105432268D01*
X124819384Y-105482532D01*
X124817613Y-105483366D01*
X124811360Y-105490302D01*
X124301016Y-105490302D01*
X124301607Y-105489220D01*
X124299022Y-105485766D01*
X124298722Y-105485606D01*
X124155820Y-105434720D01*
X124142195Y-105431524D01*
X123987318Y-105413057D01*
X123973321Y-105412959D01*
X123818207Y-105429262D01*
X123804533Y-105432268D01*
X123656884Y-105482532D01*
X123655113Y-105483366D01*
X123648860Y-105490302D01*
X118075000Y-105490302D01*
X118075000Y-104485851D01*
X130805469Y-104485851D01*
X130807863Y-104514357D01*
X130820090Y-104659968D01*
X130822018Y-104682934D01*
X130838960Y-104742017D01*
X130871723Y-104856274D01*
X130876533Y-104873050D01*
X130879352Y-104878535D01*
X130939074Y-104994740D01*
X130966937Y-105048956D01*
X131089785Y-105203953D01*
X131094478Y-105207947D01*
X131094479Y-105207948D01*
X131178841Y-105279745D01*
X131240400Y-105332136D01*
X131413044Y-105428624D01*
X131601142Y-105489740D01*
X131797527Y-105513158D01*
X131803662Y-105512686D01*
X131803664Y-105512686D01*
X131988580Y-105498457D01*
X131988584Y-105498456D01*
X131994722Y-105497984D01*
X132185213Y-105444798D01*
X132190717Y-105442018D01*
X132190719Y-105442017D01*
X132356245Y-105358404D01*
X132356247Y-105358403D01*
X132361746Y-105355625D01*
X132517597Y-105233861D01*
X132646828Y-105084145D01*
X132744519Y-104912179D01*
X132806947Y-104724513D01*
X132831735Y-104528295D01*
X132832130Y-104500000D01*
X132812830Y-104303167D01*
X132755666Y-104113831D01*
X132662816Y-103939204D01*
X132585443Y-103844335D01*
X132541710Y-103790713D01*
X132541707Y-103790710D01*
X132537815Y-103785938D01*
X132533066Y-103782009D01*
X132390175Y-103663799D01*
X132390171Y-103663797D01*
X132385425Y-103659870D01*
X132211451Y-103565802D01*
X132022518Y-103507318D01*
X132016393Y-103506674D01*
X132016392Y-103506674D01*
X131831954Y-103487289D01*
X131831952Y-103487289D01*
X131825825Y-103486645D01*
X131751281Y-103493429D01*
X131635001Y-103504011D01*
X131634998Y-103504012D01*
X131628862Y-103504570D01*
X131622956Y-103506308D01*
X131622952Y-103506309D01*
X131517826Y-103537249D01*
X131439131Y-103560410D01*
X131433673Y-103563263D01*
X131433669Y-103563265D01*
X131372154Y-103595425D01*
X131263860Y-103652040D01*
X131109725Y-103775968D01*
X130982596Y-103927474D01*
X130979629Y-103932872D01*
X130979625Y-103932877D01*
X130909883Y-104059740D01*
X130887317Y-104100787D01*
X130885456Y-104106654D01*
X130885455Y-104106656D01*
X130868833Y-104159056D01*
X130827515Y-104289306D01*
X130805469Y-104485851D01*
X118075000Y-104485851D01*
X118075000Y-103067101D01*
X123205469Y-103067101D01*
X123205985Y-103073245D01*
X123221354Y-103256274D01*
X123222018Y-103264184D01*
X123223717Y-103270108D01*
X123267337Y-103422229D01*
X123276533Y-103454300D01*
X123293487Y-103487289D01*
X123321662Y-103542110D01*
X123366937Y-103630206D01*
X123489785Y-103785203D01*
X123494478Y-103789197D01*
X123494479Y-103789198D01*
X123507958Y-103800669D01*
X123640400Y-103913386D01*
X123813044Y-104009874D01*
X124001142Y-104070990D01*
X124197527Y-104094408D01*
X124203662Y-104093936D01*
X124203664Y-104093936D01*
X124388580Y-104079707D01*
X124388584Y-104079706D01*
X124394722Y-104079234D01*
X124585213Y-104026048D01*
X124590717Y-104023268D01*
X124590719Y-104023267D01*
X124756245Y-103939654D01*
X124756247Y-103939653D01*
X124761746Y-103936875D01*
X124917597Y-103815111D01*
X125046828Y-103665395D01*
X125144519Y-103493429D01*
X125206947Y-103305763D01*
X125231735Y-103109545D01*
X125232130Y-103081250D01*
X125212830Y-102884417D01*
X125208095Y-102868732D01*
X125169053Y-102739421D01*
X125155666Y-102695081D01*
X125062816Y-102520454D01*
X124972237Y-102409393D01*
X124941710Y-102371963D01*
X124941707Y-102371960D01*
X124937815Y-102367188D01*
X124930322Y-102360989D01*
X124790175Y-102245049D01*
X124790171Y-102245047D01*
X124785425Y-102241120D01*
X124611451Y-102147052D01*
X124422518Y-102088568D01*
X124416393Y-102087924D01*
X124416392Y-102087924D01*
X124231954Y-102068539D01*
X124231952Y-102068539D01*
X124225825Y-102067895D01*
X124143326Y-102075403D01*
X124035001Y-102085261D01*
X124034998Y-102085262D01*
X124028862Y-102085820D01*
X124022956Y-102087558D01*
X124022952Y-102087559D01*
X123917826Y-102118499D01*
X123839131Y-102141660D01*
X123833673Y-102144513D01*
X123833669Y-102144515D01*
X123793730Y-102165395D01*
X123663860Y-102233290D01*
X123509725Y-102357218D01*
X123382596Y-102508724D01*
X123379629Y-102514122D01*
X123379625Y-102514127D01*
X123305811Y-102648396D01*
X123287317Y-102682037D01*
X123285456Y-102687904D01*
X123285455Y-102687906D01*
X123230350Y-102861618D01*
X123227515Y-102870556D01*
X123205469Y-103067101D01*
X118075000Y-103067101D01*
X118075000Y-101567101D01*
X120805469Y-101567101D01*
X120805985Y-101573245D01*
X120821377Y-101756547D01*
X120822018Y-101764184D01*
X120823717Y-101770108D01*
X120867712Y-101923537D01*
X120876533Y-101954300D01*
X120879352Y-101959785D01*
X120944126Y-102085820D01*
X120966937Y-102130206D01*
X121089785Y-102285203D01*
X121094478Y-102289197D01*
X121094479Y-102289198D01*
X121178834Y-102360989D01*
X121240400Y-102413386D01*
X121413044Y-102509874D01*
X121601142Y-102570990D01*
X121797527Y-102594408D01*
X121803662Y-102593936D01*
X121803664Y-102593936D01*
X121988580Y-102579707D01*
X121988584Y-102579706D01*
X121994722Y-102579234D01*
X122185213Y-102526048D01*
X122190717Y-102523268D01*
X122190719Y-102523267D01*
X122356245Y-102439654D01*
X122356247Y-102439653D01*
X122361746Y-102436875D01*
X122517597Y-102315111D01*
X122630961Y-102183777D01*
X122642799Y-102170063D01*
X122642800Y-102170061D01*
X122646828Y-102165395D01*
X122744519Y-101993429D01*
X122806947Y-101805763D01*
X122822677Y-101681250D01*
X133305246Y-101681250D01*
X133305936Y-101687815D01*
X133320459Y-101825990D01*
X133325208Y-101871178D01*
X133384223Y-102052806D01*
X133479710Y-102218194D01*
X133484128Y-102223101D01*
X133484129Y-102223102D01*
X133540045Y-102285203D01*
X133607497Y-102360116D01*
X133761998Y-102472368D01*
X133768026Y-102475052D01*
X133768028Y-102475053D01*
X133886292Y-102527707D01*
X133936462Y-102550044D01*
X134026047Y-102569086D01*
X134116806Y-102588378D01*
X134116811Y-102588378D01*
X134123263Y-102589750D01*
X134314237Y-102589750D01*
X134320689Y-102588378D01*
X134320694Y-102588378D01*
X134411453Y-102569086D01*
X134501038Y-102550044D01*
X134551208Y-102527707D01*
X134669472Y-102475053D01*
X134669474Y-102475052D01*
X134675502Y-102472368D01*
X134830003Y-102360116D01*
X134897455Y-102285203D01*
X134953371Y-102223102D01*
X134953372Y-102223101D01*
X134957790Y-102218194D01*
X135053277Y-102052806D01*
X135112292Y-101871178D01*
X135117042Y-101825990D01*
X135131564Y-101687815D01*
X135132254Y-101681250D01*
X135117282Y-101538802D01*
X135112982Y-101497885D01*
X135112982Y-101497883D01*
X135112292Y-101491322D01*
X135053277Y-101309694D01*
X134957790Y-101144306D01*
X134851173Y-101025895D01*
X134834425Y-101007295D01*
X134834424Y-101007294D01*
X134830003Y-101002384D01*
X134675502Y-100890132D01*
X134669474Y-100887448D01*
X134669472Y-100887447D01*
X134507069Y-100815141D01*
X134507068Y-100815141D01*
X134501038Y-100812456D01*
X134378093Y-100786323D01*
X134320694Y-100774122D01*
X134320689Y-100774122D01*
X134314237Y-100772750D01*
X134123263Y-100772750D01*
X134116811Y-100774122D01*
X134116806Y-100774122D01*
X134059407Y-100786323D01*
X133936462Y-100812456D01*
X133930432Y-100815141D01*
X133930431Y-100815141D01*
X133768028Y-100887447D01*
X133768026Y-100887448D01*
X133761998Y-100890132D01*
X133607497Y-101002384D01*
X133603076Y-101007294D01*
X133603075Y-101007295D01*
X133586328Y-101025895D01*
X133479710Y-101144306D01*
X133384223Y-101309694D01*
X133325208Y-101491322D01*
X133324518Y-101497883D01*
X133324518Y-101497885D01*
X133320218Y-101538802D01*
X133305246Y-101681250D01*
X122822677Y-101681250D01*
X122831735Y-101609545D01*
X122832011Y-101589750D01*
X122832081Y-101584773D01*
X122832081Y-101584770D01*
X122832130Y-101581250D01*
X122812830Y-101384417D01*
X122806666Y-101363999D01*
X122757447Y-101200981D01*
X122755666Y-101195081D01*
X122662816Y-101020454D01*
X122576645Y-100914798D01*
X122541710Y-100871963D01*
X122541707Y-100871960D01*
X122537815Y-100867188D01*
X122531474Y-100861942D01*
X122390175Y-100745049D01*
X122390171Y-100745047D01*
X122385425Y-100741120D01*
X122274698Y-100681250D01*
X126305246Y-100681250D01*
X126305936Y-100687815D01*
X126324376Y-100863259D01*
X126325208Y-100871178D01*
X126384223Y-101052806D01*
X126479710Y-101218194D01*
X126484128Y-101223101D01*
X126484129Y-101223102D01*
X126498640Y-101239218D01*
X126607497Y-101360116D01*
X126761998Y-101472368D01*
X126768026Y-101475052D01*
X126768028Y-101475053D01*
X126923089Y-101544090D01*
X126936462Y-101550044D01*
X127029863Y-101569897D01*
X127116806Y-101588378D01*
X127116811Y-101588378D01*
X127123263Y-101589750D01*
X127314237Y-101589750D01*
X127320689Y-101588378D01*
X127320694Y-101588378D01*
X127407637Y-101569897D01*
X127501038Y-101550044D01*
X127514411Y-101544090D01*
X127669472Y-101475053D01*
X127669474Y-101475052D01*
X127675502Y-101472368D01*
X127830003Y-101360116D01*
X127938860Y-101239218D01*
X127953371Y-101223102D01*
X127953372Y-101223101D01*
X127957790Y-101218194D01*
X128053277Y-101052806D01*
X128112292Y-100871178D01*
X128113125Y-100863259D01*
X128131564Y-100687815D01*
X128132254Y-100681250D01*
X128127910Y-100639920D01*
X128117442Y-100540317D01*
X167712514Y-100540317D01*
X167713095Y-100545337D01*
X167713095Y-100545341D01*
X167739408Y-100772750D01*
X167740415Y-100781456D01*
X167741791Y-100786320D01*
X167741792Y-100786323D01*
X167787476Y-100947766D01*
X167806510Y-101015032D01*
X167808644Y-101019608D01*
X167808646Y-101019614D01*
X167903534Y-101223102D01*
X167909099Y-101235036D01*
X168045544Y-101435807D01*
X168212332Y-101612181D01*
X168216358Y-101615259D01*
X168216359Y-101615260D01*
X168401154Y-101756547D01*
X168401158Y-101756550D01*
X168405174Y-101759620D01*
X168409632Y-101762010D01*
X168409633Y-101762011D01*
X168488435Y-101804264D01*
X168619109Y-101874331D01*
X168848631Y-101953362D01*
X168947978Y-101970522D01*
X169083926Y-101994004D01*
X169083932Y-101994005D01*
X169087836Y-101994679D01*
X169091797Y-101994859D01*
X169091798Y-101994859D01*
X169115506Y-101995936D01*
X169115525Y-101995936D01*
X169116925Y-101996000D01*
X169786001Y-101996000D01*
X169788509Y-101995798D01*
X169788514Y-101995798D01*
X169961924Y-101981846D01*
X169961929Y-101981845D01*
X169966965Y-101981440D01*
X169971873Y-101980234D01*
X169971876Y-101980234D01*
X170197792Y-101924744D01*
X170202706Y-101923537D01*
X170207358Y-101921562D01*
X170207362Y-101921561D01*
X170421498Y-101830665D01*
X170426156Y-101828688D01*
X170534533Y-101760439D01*
X170627288Y-101702028D01*
X170627291Y-101702026D01*
X170631567Y-101699333D01*
X170733412Y-101609545D01*
X170809858Y-101542150D01*
X170809861Y-101542147D01*
X170813655Y-101538802D01*
X170816866Y-101534893D01*
X170964526Y-101355128D01*
X170964528Y-101355125D01*
X170967734Y-101351222D01*
X171042903Y-101222070D01*
X171087299Y-101145790D01*
X171087300Y-101145788D01*
X171089841Y-101141422D01*
X171143212Y-101002384D01*
X171175020Y-100919522D01*
X171175021Y-100919518D01*
X171176833Y-100914798D01*
X171185946Y-100871178D01*
X171225440Y-100682131D01*
X171225440Y-100682127D01*
X171226474Y-100677180D01*
X171237486Y-100434683D01*
X171227144Y-100345300D01*
X171210167Y-100198571D01*
X171210166Y-100198567D01*
X171209585Y-100193544D01*
X171170517Y-100055478D01*
X171144866Y-99964831D01*
X171143490Y-99959968D01*
X171141356Y-99955392D01*
X171141354Y-99955386D01*
X171043038Y-99744546D01*
X171043036Y-99744542D01*
X171040901Y-99739964D01*
X170904456Y-99539193D01*
X170737668Y-99362819D01*
X170733641Y-99359740D01*
X170548846Y-99218453D01*
X170548842Y-99218450D01*
X170544826Y-99215380D01*
X170330891Y-99100669D01*
X170101369Y-99021638D01*
X170002022Y-99004478D01*
X169866074Y-98980996D01*
X169866068Y-98980995D01*
X169862164Y-98980321D01*
X169858203Y-98980141D01*
X169858202Y-98980141D01*
X169834494Y-98979064D01*
X169834475Y-98979064D01*
X169833075Y-98979000D01*
X169163999Y-98979000D01*
X169161491Y-98979202D01*
X169161486Y-98979202D01*
X168988076Y-98993154D01*
X168988071Y-98993155D01*
X168983035Y-98993560D01*
X168978127Y-98994766D01*
X168978124Y-98994766D01*
X168862007Y-99023287D01*
X168747294Y-99051463D01*
X168742642Y-99053438D01*
X168742638Y-99053439D01*
X168635252Y-99099022D01*
X168523844Y-99146312D01*
X168519560Y-99149010D01*
X168322712Y-99272972D01*
X168322709Y-99272974D01*
X168318433Y-99275667D01*
X168314639Y-99279012D01*
X168140142Y-99432850D01*
X168140139Y-99432853D01*
X168136345Y-99436198D01*
X167982266Y-99623778D01*
X167979724Y-99628146D01*
X167870890Y-99815141D01*
X167860159Y-99833578D01*
X167858346Y-99838301D01*
X167796852Y-99998501D01*
X167773167Y-100060202D01*
X167772133Y-100065152D01*
X167772132Y-100065155D01*
X167736308Y-100236637D01*
X167723526Y-100297820D01*
X167712514Y-100540317D01*
X128117442Y-100540317D01*
X128112982Y-100497885D01*
X128112982Y-100497883D01*
X128112292Y-100491322D01*
X128053277Y-100309694D01*
X127957790Y-100144306D01*
X127934508Y-100118448D01*
X127834425Y-100007295D01*
X127834424Y-100007294D01*
X127830003Y-100002384D01*
X127675502Y-99890132D01*
X127669474Y-99887448D01*
X127669472Y-99887447D01*
X127507069Y-99815141D01*
X127507068Y-99815141D01*
X127501038Y-99812456D01*
X127407638Y-99792603D01*
X127320694Y-99774122D01*
X127320689Y-99774122D01*
X127314237Y-99772750D01*
X127123263Y-99772750D01*
X127116811Y-99774122D01*
X127116806Y-99774122D01*
X127029862Y-99792603D01*
X126936462Y-99812456D01*
X126930432Y-99815141D01*
X126930431Y-99815141D01*
X126768028Y-99887447D01*
X126768026Y-99887448D01*
X126761998Y-99890132D01*
X126607497Y-100002384D01*
X126603076Y-100007294D01*
X126603075Y-100007295D01*
X126502993Y-100118448D01*
X126479710Y-100144306D01*
X126384223Y-100309694D01*
X126325208Y-100491322D01*
X126324518Y-100497883D01*
X126324518Y-100497885D01*
X126309590Y-100639920D01*
X126305246Y-100681250D01*
X122274698Y-100681250D01*
X122211451Y-100647052D01*
X122022518Y-100588568D01*
X122016393Y-100587924D01*
X122016392Y-100587924D01*
X121831954Y-100568539D01*
X121831952Y-100568539D01*
X121825825Y-100567895D01*
X121743326Y-100575403D01*
X121635001Y-100585261D01*
X121634998Y-100585262D01*
X121628862Y-100585820D01*
X121622956Y-100587558D01*
X121622952Y-100587559D01*
X121526654Y-100615901D01*
X121439131Y-100641660D01*
X121433673Y-100644513D01*
X121433669Y-100644515D01*
X121350845Y-100687815D01*
X121263860Y-100733290D01*
X121109725Y-100857218D01*
X120982596Y-101008724D01*
X120979629Y-101014122D01*
X120979625Y-101014127D01*
X120912242Y-101136699D01*
X120887317Y-101182037D01*
X120885456Y-101187904D01*
X120885455Y-101187906D01*
X120848637Y-101303971D01*
X120827515Y-101370556D01*
X120805469Y-101567101D01*
X118075000Y-101567101D01*
X118075000Y-94557152D01*
X135366524Y-94557152D01*
X135368990Y-94565781D01*
X135368991Y-94565786D01*
X135374639Y-94585548D01*
X135378217Y-94602309D01*
X135381130Y-94622652D01*
X135381133Y-94622662D01*
X135382405Y-94631545D01*
X135393021Y-94654895D01*
X135399464Y-94672407D01*
X135406512Y-94697065D01*
X135422274Y-94722048D01*
X135430404Y-94737114D01*
X135442633Y-94764010D01*
X135459374Y-94783439D01*
X135470479Y-94798447D01*
X135484160Y-94820131D01*
X135490888Y-94826073D01*
X135506296Y-94839681D01*
X135518340Y-94851873D01*
X135537619Y-94874247D01*
X135545147Y-94879126D01*
X135545150Y-94879129D01*
X135559139Y-94888196D01*
X135574013Y-94899486D01*
X135593228Y-94916456D01*
X135601354Y-94920271D01*
X135601355Y-94920272D01*
X135607021Y-94922932D01*
X135619966Y-94929010D01*
X135634935Y-94937324D01*
X135659727Y-94953393D01*
X135676650Y-94958454D01*
X135684290Y-94960739D01*
X135701736Y-94967401D01*
X135724948Y-94978299D01*
X135754130Y-94982843D01*
X135770849Y-94986626D01*
X135790536Y-94992514D01*
X135790539Y-94992515D01*
X135799141Y-94995087D01*
X135808116Y-94995142D01*
X135808117Y-94995142D01*
X135814810Y-94995183D01*
X135833556Y-94995297D01*
X135834328Y-94995330D01*
X135835423Y-94995500D01*
X135866298Y-94995500D01*
X135867068Y-94995502D01*
X135940716Y-94995952D01*
X135940717Y-94995952D01*
X135944652Y-94995976D01*
X135945996Y-94995592D01*
X135947341Y-94995500D01*
X138966298Y-94995500D01*
X138967069Y-94995502D01*
X139044652Y-94995976D01*
X139053281Y-94993510D01*
X139053286Y-94993509D01*
X139073048Y-94987861D01*
X139089809Y-94984283D01*
X139110152Y-94981370D01*
X139110162Y-94981367D01*
X139119045Y-94980095D01*
X139142395Y-94969479D01*
X139159907Y-94963036D01*
X139175937Y-94958454D01*
X139184565Y-94955988D01*
X139209548Y-94940226D01*
X139224614Y-94932096D01*
X139251510Y-94919867D01*
X139270939Y-94903126D01*
X139285947Y-94892021D01*
X139300039Y-94883130D01*
X139307631Y-94878340D01*
X139327182Y-94856203D01*
X139339374Y-94844159D01*
X139354949Y-94830739D01*
X139354950Y-94830737D01*
X139361747Y-94824881D01*
X139366626Y-94817353D01*
X139366629Y-94817350D01*
X139375696Y-94803361D01*
X139386986Y-94788487D01*
X139398012Y-94776002D01*
X139403956Y-94769272D01*
X139416510Y-94742534D01*
X139424824Y-94727565D01*
X139440893Y-94702773D01*
X139448239Y-94678209D01*
X139454901Y-94660764D01*
X139461983Y-94645679D01*
X139465799Y-94637552D01*
X139470343Y-94608370D01*
X139474126Y-94591651D01*
X139480014Y-94571964D01*
X139480015Y-94571961D01*
X139482587Y-94563359D01*
X139482625Y-94557152D01*
X152466524Y-94557152D01*
X152468990Y-94565781D01*
X152468991Y-94565786D01*
X152474639Y-94585548D01*
X152478217Y-94602309D01*
X152481130Y-94622652D01*
X152481133Y-94622662D01*
X152482405Y-94631545D01*
X152493021Y-94654895D01*
X152499464Y-94672407D01*
X152506512Y-94697065D01*
X152522274Y-94722048D01*
X152530404Y-94737114D01*
X152542633Y-94764010D01*
X152559374Y-94783439D01*
X152570479Y-94798447D01*
X152584160Y-94820131D01*
X152590888Y-94826073D01*
X152606296Y-94839681D01*
X152618340Y-94851873D01*
X152637619Y-94874247D01*
X152645147Y-94879126D01*
X152645150Y-94879129D01*
X152659139Y-94888196D01*
X152674013Y-94899486D01*
X152693228Y-94916456D01*
X152701354Y-94920271D01*
X152701355Y-94920272D01*
X152707021Y-94922932D01*
X152719966Y-94929010D01*
X152734935Y-94937324D01*
X152759727Y-94953393D01*
X152776650Y-94958454D01*
X152784290Y-94960739D01*
X152801736Y-94967401D01*
X152824948Y-94978299D01*
X152854130Y-94982843D01*
X152870849Y-94986626D01*
X152890536Y-94992514D01*
X152890539Y-94992515D01*
X152899141Y-94995087D01*
X152908116Y-94995142D01*
X152908117Y-94995142D01*
X152914810Y-94995183D01*
X152933556Y-94995297D01*
X152934328Y-94995330D01*
X152935423Y-94995500D01*
X152966298Y-94995500D01*
X152967068Y-94995502D01*
X153040716Y-94995952D01*
X153040717Y-94995952D01*
X153044652Y-94995976D01*
X153045996Y-94995592D01*
X153047341Y-94995500D01*
X156066298Y-94995500D01*
X156067069Y-94995502D01*
X156144652Y-94995976D01*
X156153281Y-94993510D01*
X156153286Y-94993509D01*
X156173048Y-94987861D01*
X156189809Y-94984283D01*
X156210152Y-94981370D01*
X156210162Y-94981367D01*
X156219045Y-94980095D01*
X156242395Y-94969479D01*
X156259907Y-94963036D01*
X156275937Y-94958454D01*
X156284565Y-94955988D01*
X156309548Y-94940226D01*
X156324614Y-94932096D01*
X156351510Y-94919867D01*
X156370939Y-94903126D01*
X156385947Y-94892021D01*
X156400039Y-94883130D01*
X156407631Y-94878340D01*
X156427182Y-94856203D01*
X156439374Y-94844159D01*
X156454949Y-94830739D01*
X156454950Y-94830737D01*
X156461747Y-94824881D01*
X156466626Y-94817353D01*
X156466629Y-94817350D01*
X156475696Y-94803361D01*
X156486986Y-94788487D01*
X156498012Y-94776002D01*
X156503956Y-94769272D01*
X156516510Y-94742534D01*
X156524824Y-94727565D01*
X156540893Y-94702773D01*
X156548239Y-94678209D01*
X156554901Y-94660764D01*
X156561983Y-94645679D01*
X156565799Y-94637552D01*
X156570343Y-94608370D01*
X156574126Y-94591651D01*
X156580014Y-94571964D01*
X156580015Y-94571961D01*
X156582587Y-94563359D01*
X156582797Y-94528944D01*
X156582830Y-94528172D01*
X156583000Y-94527077D01*
X156583000Y-94496202D01*
X156583002Y-94495432D01*
X156583452Y-94421784D01*
X156583452Y-94421783D01*
X156583476Y-94417848D01*
X156583092Y-94416504D01*
X156583000Y-94415159D01*
X156583000Y-93296202D01*
X156583002Y-93295432D01*
X156583421Y-93226822D01*
X156583476Y-93217848D01*
X156581010Y-93209219D01*
X156581009Y-93209214D01*
X156575361Y-93189452D01*
X156571783Y-93172691D01*
X156568870Y-93152348D01*
X156568867Y-93152338D01*
X156567595Y-93143455D01*
X156556979Y-93120105D01*
X156550536Y-93102593D01*
X156545954Y-93086563D01*
X156543488Y-93077935D01*
X156527726Y-93052952D01*
X156519596Y-93037886D01*
X156507367Y-93010990D01*
X156490626Y-92991561D01*
X156479521Y-92976553D01*
X156470630Y-92962461D01*
X156465840Y-92954869D01*
X156443703Y-92935318D01*
X156431659Y-92923126D01*
X156418239Y-92907551D01*
X156418237Y-92907550D01*
X156412381Y-92900753D01*
X156404853Y-92895874D01*
X156404850Y-92895871D01*
X156390861Y-92886804D01*
X156375987Y-92875514D01*
X156363502Y-92864488D01*
X156356772Y-92858544D01*
X156348646Y-92854729D01*
X156348645Y-92854728D01*
X156342979Y-92852068D01*
X156330034Y-92845990D01*
X156315065Y-92837676D01*
X156290273Y-92821607D01*
X156265709Y-92814261D01*
X156248264Y-92807599D01*
X156243827Y-92805516D01*
X156225052Y-92796701D01*
X156195870Y-92792157D01*
X156179151Y-92788374D01*
X156159464Y-92782486D01*
X156159461Y-92782485D01*
X156150859Y-92779913D01*
X156141884Y-92779858D01*
X156141883Y-92779858D01*
X156135190Y-92779817D01*
X156116444Y-92779703D01*
X156115672Y-92779670D01*
X156114577Y-92779500D01*
X156083702Y-92779500D01*
X156082932Y-92779498D01*
X156009284Y-92779048D01*
X156009283Y-92779048D01*
X156005348Y-92779024D01*
X156004004Y-92779408D01*
X156002659Y-92779500D01*
X152983702Y-92779500D01*
X152982932Y-92779498D01*
X152982078Y-92779493D01*
X152905348Y-92779024D01*
X152896719Y-92781490D01*
X152896714Y-92781491D01*
X152876952Y-92787139D01*
X152860191Y-92790717D01*
X152839848Y-92793630D01*
X152839838Y-92793633D01*
X152830955Y-92794905D01*
X152807605Y-92805521D01*
X152790093Y-92811964D01*
X152782057Y-92814261D01*
X152765435Y-92819012D01*
X152740452Y-92834774D01*
X152725386Y-92842904D01*
X152698490Y-92855133D01*
X152679061Y-92871874D01*
X152664053Y-92882979D01*
X152642369Y-92896660D01*
X152636427Y-92903388D01*
X152622819Y-92918796D01*
X152610627Y-92930840D01*
X152588253Y-92950119D01*
X152583374Y-92957647D01*
X152583371Y-92957650D01*
X152574304Y-92971639D01*
X152563014Y-92986513D01*
X152546044Y-93005728D01*
X152533490Y-93032466D01*
X152525176Y-93047435D01*
X152509107Y-93072227D01*
X152506535Y-93080827D01*
X152501761Y-93096790D01*
X152495099Y-93114236D01*
X152484201Y-93137448D01*
X152479658Y-93166628D01*
X152475874Y-93183349D01*
X152469986Y-93203036D01*
X152469985Y-93203039D01*
X152467413Y-93211641D01*
X152467358Y-93220616D01*
X152467358Y-93220617D01*
X152467203Y-93246046D01*
X152467170Y-93246828D01*
X152467000Y-93247923D01*
X152467000Y-93278798D01*
X152466998Y-93279568D01*
X152466524Y-93357152D01*
X152466908Y-93358496D01*
X152467000Y-93359841D01*
X152467000Y-94478798D01*
X152466998Y-94479568D01*
X152466524Y-94557152D01*
X139482625Y-94557152D01*
X139482797Y-94528944D01*
X139482830Y-94528172D01*
X139483000Y-94527077D01*
X139483000Y-94496202D01*
X139483002Y-94495432D01*
X139483452Y-94421784D01*
X139483452Y-94421783D01*
X139483476Y-94417848D01*
X139483092Y-94416504D01*
X139483000Y-94415159D01*
X139483000Y-93296202D01*
X139483002Y-93295432D01*
X139483421Y-93226822D01*
X139483476Y-93217848D01*
X139481010Y-93209219D01*
X139481009Y-93209214D01*
X139475361Y-93189452D01*
X139471783Y-93172691D01*
X139468870Y-93152348D01*
X139468867Y-93152338D01*
X139467595Y-93143455D01*
X139456979Y-93120105D01*
X139450536Y-93102593D01*
X139445954Y-93086563D01*
X139443488Y-93077935D01*
X139427726Y-93052952D01*
X139419596Y-93037886D01*
X139407367Y-93010990D01*
X139390626Y-92991561D01*
X139379521Y-92976553D01*
X139370630Y-92962461D01*
X139365840Y-92954869D01*
X139343703Y-92935318D01*
X139331659Y-92923126D01*
X139318239Y-92907551D01*
X139318237Y-92907550D01*
X139312381Y-92900753D01*
X139304853Y-92895874D01*
X139304850Y-92895871D01*
X139290861Y-92886804D01*
X139275987Y-92875514D01*
X139263502Y-92864488D01*
X139256772Y-92858544D01*
X139248646Y-92854729D01*
X139248645Y-92854728D01*
X139242979Y-92852068D01*
X139230034Y-92845990D01*
X139215065Y-92837676D01*
X139190273Y-92821607D01*
X139165709Y-92814261D01*
X139148264Y-92807599D01*
X139143827Y-92805516D01*
X139125052Y-92796701D01*
X139095870Y-92792157D01*
X139079151Y-92788374D01*
X139059464Y-92782486D01*
X139059461Y-92782485D01*
X139050859Y-92779913D01*
X139041884Y-92779858D01*
X139041883Y-92779858D01*
X139035190Y-92779817D01*
X139016444Y-92779703D01*
X139015672Y-92779670D01*
X139014577Y-92779500D01*
X138983702Y-92779500D01*
X138982932Y-92779498D01*
X138909284Y-92779048D01*
X138909283Y-92779048D01*
X138905348Y-92779024D01*
X138904004Y-92779408D01*
X138902659Y-92779500D01*
X135883702Y-92779500D01*
X135882932Y-92779498D01*
X135882078Y-92779493D01*
X135805348Y-92779024D01*
X135796719Y-92781490D01*
X135796714Y-92781491D01*
X135776952Y-92787139D01*
X135760191Y-92790717D01*
X135739848Y-92793630D01*
X135739838Y-92793633D01*
X135730955Y-92794905D01*
X135707605Y-92805521D01*
X135690093Y-92811964D01*
X135682057Y-92814261D01*
X135665435Y-92819012D01*
X135640452Y-92834774D01*
X135625386Y-92842904D01*
X135598490Y-92855133D01*
X135579061Y-92871874D01*
X135564053Y-92882979D01*
X135542369Y-92896660D01*
X135536427Y-92903388D01*
X135522819Y-92918796D01*
X135510627Y-92930840D01*
X135488253Y-92950119D01*
X135483374Y-92957647D01*
X135483371Y-92957650D01*
X135474304Y-92971639D01*
X135463014Y-92986513D01*
X135446044Y-93005728D01*
X135433490Y-93032466D01*
X135425176Y-93047435D01*
X135409107Y-93072227D01*
X135406535Y-93080827D01*
X135401761Y-93096790D01*
X135395099Y-93114236D01*
X135384201Y-93137448D01*
X135379658Y-93166628D01*
X135375874Y-93183349D01*
X135369986Y-93203036D01*
X135369985Y-93203039D01*
X135367413Y-93211641D01*
X135367358Y-93220616D01*
X135367358Y-93220617D01*
X135367203Y-93246046D01*
X135367170Y-93246828D01*
X135367000Y-93247923D01*
X135367000Y-93278798D01*
X135366998Y-93279568D01*
X135366524Y-93357152D01*
X135366908Y-93358496D01*
X135367000Y-93359841D01*
X135367000Y-94478798D01*
X135366998Y-94479568D01*
X135366524Y-94557152D01*
X118075000Y-94557152D01*
X118075000Y-88987500D01*
X115642687Y-86654195D01*
X114626977Y-85679829D01*
X114591665Y-85618237D01*
X114595258Y-85547331D01*
X114606770Y-85523068D01*
X114640588Y-85467881D01*
X114642709Y-85464538D01*
X114654165Y-85447099D01*
X115278548Y-84496567D01*
X115280773Y-84493293D01*
X115946714Y-83545755D01*
X115949041Y-83542553D01*
X116644393Y-82616432D01*
X116646819Y-82613304D01*
X116664378Y-82591387D01*
X118525319Y-82591387D01*
X118525616Y-82596539D01*
X118525616Y-82596543D01*
X118530992Y-82689768D01*
X118538415Y-82818511D01*
X118539552Y-82823557D01*
X118539553Y-82823563D01*
X118559833Y-82913549D01*
X118588430Y-83040446D01*
X118674022Y-83251232D01*
X118792891Y-83445209D01*
X118941845Y-83617166D01*
X119116884Y-83762486D01*
X119121336Y-83765088D01*
X119121341Y-83765091D01*
X119308849Y-83874662D01*
X119313307Y-83877267D01*
X119525840Y-83958425D01*
X119601335Y-83973784D01*
X119664100Y-84006965D01*
X119698963Y-84068813D01*
X119694854Y-84139690D01*
X119672026Y-84179086D01*
X119525207Y-84350988D01*
X119397032Y-84560152D01*
X119303154Y-84786792D01*
X119245887Y-85025327D01*
X119226640Y-85269884D01*
X119245887Y-85514441D01*
X119247041Y-85519248D01*
X119247042Y-85519254D01*
X119264218Y-85590795D01*
X119303154Y-85752976D01*
X119397032Y-85979616D01*
X119525207Y-86188780D01*
X119528422Y-86192544D01*
X119528424Y-86192547D01*
X119681318Y-86371561D01*
X119684526Y-86375317D01*
X119688282Y-86378525D01*
X119789368Y-86464861D01*
X119871063Y-86534636D01*
X119875286Y-86537224D01*
X119875289Y-86537226D01*
X119944474Y-86579622D01*
X120080227Y-86662811D01*
X120224926Y-86722748D01*
X120302294Y-86754795D01*
X120302296Y-86754796D01*
X120306867Y-86756689D01*
X120389522Y-86776533D01*
X120540589Y-86812801D01*
X120540595Y-86812802D01*
X120545402Y-86813956D01*
X120789959Y-86833203D01*
X121034516Y-86813956D01*
X121039323Y-86812802D01*
X121039329Y-86812801D01*
X121190396Y-86776533D01*
X121273051Y-86756689D01*
X121277622Y-86754796D01*
X121277624Y-86754795D01*
X121354992Y-86722748D01*
X121499691Y-86662811D01*
X121513751Y-86654195D01*
X131877251Y-86654195D01*
X131877548Y-86659348D01*
X131877548Y-86659351D01*
X131886485Y-86814344D01*
X131890110Y-86877215D01*
X131891247Y-86882261D01*
X131891248Y-86882267D01*
X131912058Y-86974605D01*
X131939222Y-87095139D01*
X132023266Y-87302116D01*
X132074942Y-87386444D01*
X132137291Y-87488188D01*
X132139987Y-87492588D01*
X132286250Y-87661438D01*
X132458126Y-87804132D01*
X132651000Y-87916838D01*
X132859692Y-87996530D01*
X132864760Y-87997561D01*
X132864763Y-87997562D01*
X132959862Y-88016910D01*
X133078597Y-88041067D01*
X133083772Y-88041257D01*
X133083774Y-88041257D01*
X133296673Y-88049064D01*
X133296677Y-88049064D01*
X133301837Y-88049253D01*
X133306957Y-88048597D01*
X133306959Y-88048597D01*
X133518288Y-88021525D01*
X133518289Y-88021525D01*
X133523416Y-88020868D01*
X133528366Y-88019383D01*
X133732429Y-87958161D01*
X133732434Y-87958159D01*
X133737384Y-87956674D01*
X133937994Y-87858396D01*
X134119860Y-87728673D01*
X134278096Y-87570989D01*
X134337594Y-87488189D01*
X134408453Y-87389577D01*
X134409776Y-87390528D01*
X134456645Y-87347357D01*
X134526580Y-87335125D01*
X134592026Y-87362644D01*
X134619875Y-87394494D01*
X134679987Y-87492588D01*
X134826250Y-87661438D01*
X134998126Y-87804132D01*
X135191000Y-87916838D01*
X135399692Y-87996530D01*
X135404760Y-87997561D01*
X135404763Y-87997562D01*
X135499862Y-88016910D01*
X135618597Y-88041067D01*
X135623772Y-88041257D01*
X135623774Y-88041257D01*
X135836673Y-88049064D01*
X135836677Y-88049064D01*
X135841837Y-88049253D01*
X135846957Y-88048597D01*
X135846959Y-88048597D01*
X136058288Y-88021525D01*
X136058289Y-88021525D01*
X136063416Y-88020868D01*
X136068366Y-88019383D01*
X136272429Y-87958161D01*
X136272434Y-87958159D01*
X136277384Y-87956674D01*
X136477994Y-87858396D01*
X136659860Y-87728673D01*
X136818096Y-87570989D01*
X136877594Y-87488189D01*
X136948453Y-87389577D01*
X136949776Y-87390528D01*
X136996645Y-87347357D01*
X137066580Y-87335125D01*
X137132026Y-87362644D01*
X137159875Y-87394494D01*
X137219987Y-87492588D01*
X137366250Y-87661438D01*
X137538126Y-87804132D01*
X137731000Y-87916838D01*
X137939692Y-87996530D01*
X137944760Y-87997561D01*
X137944763Y-87997562D01*
X138039862Y-88016910D01*
X138158597Y-88041067D01*
X138163772Y-88041257D01*
X138163774Y-88041257D01*
X138376673Y-88049064D01*
X138376677Y-88049064D01*
X138381837Y-88049253D01*
X138386957Y-88048597D01*
X138386959Y-88048597D01*
X138598288Y-88021525D01*
X138598289Y-88021525D01*
X138603416Y-88020868D01*
X138608366Y-88019383D01*
X138812429Y-87958161D01*
X138812434Y-87958159D01*
X138817384Y-87956674D01*
X139017994Y-87858396D01*
X139199860Y-87728673D01*
X139358096Y-87570989D01*
X139417594Y-87488189D01*
X139488453Y-87389577D01*
X139489776Y-87390528D01*
X139536645Y-87347357D01*
X139606580Y-87335125D01*
X139672026Y-87362644D01*
X139699875Y-87394494D01*
X139759987Y-87492588D01*
X139906250Y-87661438D01*
X140078126Y-87804132D01*
X140271000Y-87916838D01*
X140479692Y-87996530D01*
X140484760Y-87997561D01*
X140484763Y-87997562D01*
X140579862Y-88016910D01*
X140698597Y-88041067D01*
X140703772Y-88041257D01*
X140703774Y-88041257D01*
X140916673Y-88049064D01*
X140916677Y-88049064D01*
X140921837Y-88049253D01*
X140926957Y-88048597D01*
X140926959Y-88048597D01*
X141138288Y-88021525D01*
X141138289Y-88021525D01*
X141143416Y-88020868D01*
X141148366Y-88019383D01*
X141352429Y-87958161D01*
X141352434Y-87958159D01*
X141357384Y-87956674D01*
X141557994Y-87858396D01*
X141739860Y-87728673D01*
X141898096Y-87570989D01*
X141957594Y-87488189D01*
X142028453Y-87389577D01*
X142029776Y-87390528D01*
X142076645Y-87347357D01*
X142146580Y-87335125D01*
X142212026Y-87362644D01*
X142239875Y-87394494D01*
X142299987Y-87492588D01*
X142446250Y-87661438D01*
X142618126Y-87804132D01*
X142811000Y-87916838D01*
X143019692Y-87996530D01*
X143024760Y-87997561D01*
X143024763Y-87997562D01*
X143119862Y-88016910D01*
X143238597Y-88041067D01*
X143243772Y-88041257D01*
X143243774Y-88041257D01*
X143456673Y-88049064D01*
X143456677Y-88049064D01*
X143461837Y-88049253D01*
X143466957Y-88048597D01*
X143466959Y-88048597D01*
X143678288Y-88021525D01*
X143678289Y-88021525D01*
X143683416Y-88020868D01*
X143688366Y-88019383D01*
X143892429Y-87958161D01*
X143892434Y-87958159D01*
X143897384Y-87956674D01*
X144097994Y-87858396D01*
X144279860Y-87728673D01*
X144438096Y-87570989D01*
X144497594Y-87488189D01*
X144568453Y-87389577D01*
X144569776Y-87390528D01*
X144616645Y-87347357D01*
X144686580Y-87335125D01*
X144752026Y-87362644D01*
X144779875Y-87394494D01*
X144839987Y-87492588D01*
X144986250Y-87661438D01*
X145158126Y-87804132D01*
X145351000Y-87916838D01*
X145559692Y-87996530D01*
X145564760Y-87997561D01*
X145564763Y-87997562D01*
X145659862Y-88016910D01*
X145778597Y-88041067D01*
X145783772Y-88041257D01*
X145783774Y-88041257D01*
X145996673Y-88049064D01*
X145996677Y-88049064D01*
X146001837Y-88049253D01*
X146006957Y-88048597D01*
X146006959Y-88048597D01*
X146218288Y-88021525D01*
X146218289Y-88021525D01*
X146223416Y-88020868D01*
X146228366Y-88019383D01*
X146432429Y-87958161D01*
X146432434Y-87958159D01*
X146437384Y-87956674D01*
X146637994Y-87858396D01*
X146819860Y-87728673D01*
X146978096Y-87570989D01*
X147037594Y-87488189D01*
X147108453Y-87389577D01*
X147109776Y-87390528D01*
X147156645Y-87347357D01*
X147226580Y-87335125D01*
X147292026Y-87362644D01*
X147319875Y-87394494D01*
X147379987Y-87492588D01*
X147526250Y-87661438D01*
X147698126Y-87804132D01*
X147891000Y-87916838D01*
X148099692Y-87996530D01*
X148104760Y-87997561D01*
X148104763Y-87997562D01*
X148199862Y-88016910D01*
X148318597Y-88041067D01*
X148323772Y-88041257D01*
X148323774Y-88041257D01*
X148536673Y-88049064D01*
X148536677Y-88049064D01*
X148541837Y-88049253D01*
X148546957Y-88048597D01*
X148546959Y-88048597D01*
X148758288Y-88021525D01*
X148758289Y-88021525D01*
X148763416Y-88020868D01*
X148768366Y-88019383D01*
X148972429Y-87958161D01*
X148972434Y-87958159D01*
X148977384Y-87956674D01*
X149177994Y-87858396D01*
X149359860Y-87728673D01*
X149518096Y-87570989D01*
X149577594Y-87488189D01*
X149648453Y-87389577D01*
X149649776Y-87390528D01*
X149696645Y-87347357D01*
X149766580Y-87335125D01*
X149832026Y-87362644D01*
X149859875Y-87394494D01*
X149919987Y-87492588D01*
X150066250Y-87661438D01*
X150238126Y-87804132D01*
X150431000Y-87916838D01*
X150639692Y-87996530D01*
X150644760Y-87997561D01*
X150644763Y-87997562D01*
X150739862Y-88016910D01*
X150858597Y-88041067D01*
X150863772Y-88041257D01*
X150863774Y-88041257D01*
X151076673Y-88049064D01*
X151076677Y-88049064D01*
X151081837Y-88049253D01*
X151086957Y-88048597D01*
X151086959Y-88048597D01*
X151298288Y-88021525D01*
X151298289Y-88021525D01*
X151303416Y-88020868D01*
X151308366Y-88019383D01*
X151512429Y-87958161D01*
X151512434Y-87958159D01*
X151517384Y-87956674D01*
X151717994Y-87858396D01*
X151899860Y-87728673D01*
X152058096Y-87570989D01*
X152117594Y-87488189D01*
X152188453Y-87389577D01*
X152189640Y-87390430D01*
X152236960Y-87346862D01*
X152306897Y-87334645D01*
X152372338Y-87362178D01*
X152400166Y-87394011D01*
X152457694Y-87487888D01*
X152463777Y-87496199D01*
X152603213Y-87657167D01*
X152610580Y-87664383D01*
X152774434Y-87800416D01*
X152782881Y-87806331D01*
X152966756Y-87913779D01*
X152976042Y-87918229D01*
X153175001Y-87994203D01*
X153184899Y-87997079D01*
X153288250Y-88018106D01*
X153302299Y-88016910D01*
X153306000Y-88006565D01*
X153306000Y-88006017D01*
X153814000Y-88006017D01*
X153818064Y-88019859D01*
X153831478Y-88021893D01*
X153838184Y-88021034D01*
X153848262Y-88018892D01*
X154052255Y-87957691D01*
X154061842Y-87953933D01*
X154253095Y-87860239D01*
X154261945Y-87854964D01*
X154435328Y-87731292D01*
X154443193Y-87724645D01*
X154547897Y-87620305D01*
X154610268Y-87586389D01*
X154681075Y-87591577D01*
X154737837Y-87634223D01*
X154754819Y-87665326D01*
X154799385Y-87784205D01*
X154886739Y-87900761D01*
X155003295Y-87988115D01*
X155139684Y-88039245D01*
X155201866Y-88046000D01*
X156998134Y-88046000D01*
X157060316Y-88039245D01*
X157196705Y-87988115D01*
X157313261Y-87900761D01*
X157400615Y-87784205D01*
X157451745Y-87647816D01*
X157458500Y-87585634D01*
X157458500Y-85789366D01*
X157451745Y-85727184D01*
X157400615Y-85590795D01*
X157313261Y-85474239D01*
X157196705Y-85386885D01*
X157060316Y-85335755D01*
X156998134Y-85329000D01*
X155201866Y-85329000D01*
X155139684Y-85335755D01*
X155003295Y-85386885D01*
X154886739Y-85474239D01*
X154799385Y-85590795D01*
X154796233Y-85599203D01*
X154796232Y-85599205D01*
X154754722Y-85709933D01*
X154712081Y-85766698D01*
X154645519Y-85791398D01*
X154576170Y-85776191D01*
X154543546Y-85750504D01*
X154492799Y-85694734D01*
X154485273Y-85687715D01*
X154318139Y-85555722D01*
X154309552Y-85550017D01*
X154123117Y-85447099D01*
X154113705Y-85442869D01*
X153912959Y-85371780D01*
X153902988Y-85369146D01*
X153831837Y-85356472D01*
X153818540Y-85357932D01*
X153814000Y-85372489D01*
X153814000Y-88006017D01*
X153306000Y-88006017D01*
X153306000Y-85370602D01*
X153302082Y-85357258D01*
X153287806Y-85355271D01*
X153249324Y-85361160D01*
X153239288Y-85363551D01*
X153036868Y-85429712D01*
X153027359Y-85433709D01*
X152838463Y-85532042D01*
X152829738Y-85537536D01*
X152659433Y-85665405D01*
X152651726Y-85672248D01*
X152504590Y-85826217D01*
X152498109Y-85834222D01*
X152393498Y-85987574D01*
X152338587Y-86032576D01*
X152268062Y-86040747D01*
X152204315Y-86009493D01*
X152183618Y-85985009D01*
X152102822Y-85860117D01*
X152102820Y-85860114D01*
X152100014Y-85855777D01*
X151949670Y-85690551D01*
X151945619Y-85687352D01*
X151945615Y-85687348D01*
X151778414Y-85555300D01*
X151778410Y-85555298D01*
X151774359Y-85552098D01*
X151738028Y-85532042D01*
X151697205Y-85509507D01*
X151578789Y-85444138D01*
X151573920Y-85442414D01*
X151573916Y-85442412D01*
X151373087Y-85371295D01*
X151373083Y-85371294D01*
X151368212Y-85369569D01*
X151363119Y-85368662D01*
X151363116Y-85368661D01*
X151153373Y-85331300D01*
X151153367Y-85331299D01*
X151148284Y-85330394D01*
X151074452Y-85329492D01*
X150930081Y-85327728D01*
X150930079Y-85327728D01*
X150924911Y-85327665D01*
X150704091Y-85361455D01*
X150491756Y-85430857D01*
X150427056Y-85464538D01*
X150314621Y-85523068D01*
X150293607Y-85534007D01*
X150289474Y-85537110D01*
X150289471Y-85537112D01*
X150206771Y-85599205D01*
X150114965Y-85668135D01*
X149960629Y-85829638D01*
X149853201Y-85987121D01*
X149798293Y-86032121D01*
X149727768Y-86040292D01*
X149664021Y-86009038D01*
X149643324Y-85984554D01*
X149562822Y-85860117D01*
X149562820Y-85860114D01*
X149560014Y-85855777D01*
X149409670Y-85690551D01*
X149405619Y-85687352D01*
X149405615Y-85687348D01*
X149238414Y-85555300D01*
X149238410Y-85555298D01*
X149234359Y-85552098D01*
X149198028Y-85532042D01*
X149157205Y-85509507D01*
X149038789Y-85444138D01*
X149033920Y-85442414D01*
X149033916Y-85442412D01*
X148833087Y-85371295D01*
X148833083Y-85371294D01*
X148828212Y-85369569D01*
X148823119Y-85368662D01*
X148823116Y-85368661D01*
X148613373Y-85331300D01*
X148613367Y-85331299D01*
X148608284Y-85330394D01*
X148534452Y-85329492D01*
X148390081Y-85327728D01*
X148390079Y-85327728D01*
X148384911Y-85327665D01*
X148164091Y-85361455D01*
X147951756Y-85430857D01*
X147887056Y-85464538D01*
X147774621Y-85523068D01*
X147753607Y-85534007D01*
X147749474Y-85537110D01*
X147749471Y-85537112D01*
X147666771Y-85599205D01*
X147574965Y-85668135D01*
X147420629Y-85829638D01*
X147313201Y-85987121D01*
X147258293Y-86032121D01*
X147187768Y-86040292D01*
X147124021Y-86009038D01*
X147103324Y-85984554D01*
X147022822Y-85860117D01*
X147022820Y-85860114D01*
X147020014Y-85855777D01*
X146869670Y-85690551D01*
X146865619Y-85687352D01*
X146865615Y-85687348D01*
X146698414Y-85555300D01*
X146698410Y-85555298D01*
X146694359Y-85552098D01*
X146658028Y-85532042D01*
X146617205Y-85509507D01*
X146498789Y-85444138D01*
X146493920Y-85442414D01*
X146493916Y-85442412D01*
X146293087Y-85371295D01*
X146293083Y-85371294D01*
X146288212Y-85369569D01*
X146283119Y-85368662D01*
X146283116Y-85368661D01*
X146073373Y-85331300D01*
X146073367Y-85331299D01*
X146068284Y-85330394D01*
X145994452Y-85329492D01*
X145850081Y-85327728D01*
X145850079Y-85327728D01*
X145844911Y-85327665D01*
X145624091Y-85361455D01*
X145411756Y-85430857D01*
X145347056Y-85464538D01*
X145234621Y-85523068D01*
X145213607Y-85534007D01*
X145209474Y-85537110D01*
X145209471Y-85537112D01*
X145126771Y-85599205D01*
X145034965Y-85668135D01*
X144880629Y-85829638D01*
X144773201Y-85987121D01*
X144718293Y-86032121D01*
X144647768Y-86040292D01*
X144584021Y-86009038D01*
X144563324Y-85984554D01*
X144482822Y-85860117D01*
X144482820Y-85860114D01*
X144480014Y-85855777D01*
X144329670Y-85690551D01*
X144325619Y-85687352D01*
X144325615Y-85687348D01*
X144158414Y-85555300D01*
X144158410Y-85555298D01*
X144154359Y-85552098D01*
X144118028Y-85532042D01*
X144077205Y-85509507D01*
X143958789Y-85444138D01*
X143953920Y-85442414D01*
X143953916Y-85442412D01*
X143753087Y-85371295D01*
X143753083Y-85371294D01*
X143748212Y-85369569D01*
X143743119Y-85368662D01*
X143743116Y-85368661D01*
X143533373Y-85331300D01*
X143533367Y-85331299D01*
X143528284Y-85330394D01*
X143454452Y-85329492D01*
X143310081Y-85327728D01*
X143310079Y-85327728D01*
X143304911Y-85327665D01*
X143084091Y-85361455D01*
X142871756Y-85430857D01*
X142807056Y-85464538D01*
X142694621Y-85523068D01*
X142673607Y-85534007D01*
X142669474Y-85537110D01*
X142669471Y-85537112D01*
X142586771Y-85599205D01*
X142494965Y-85668135D01*
X142340629Y-85829638D01*
X142233201Y-85987121D01*
X142178293Y-86032121D01*
X142107768Y-86040292D01*
X142044021Y-86009038D01*
X142023324Y-85984554D01*
X141942822Y-85860117D01*
X141942820Y-85860114D01*
X141940014Y-85855777D01*
X141789670Y-85690551D01*
X141785619Y-85687352D01*
X141785615Y-85687348D01*
X141618414Y-85555300D01*
X141618410Y-85555298D01*
X141614359Y-85552098D01*
X141578028Y-85532042D01*
X141537205Y-85509507D01*
X141418789Y-85444138D01*
X141413920Y-85442414D01*
X141413916Y-85442412D01*
X141213087Y-85371295D01*
X141213083Y-85371294D01*
X141208212Y-85369569D01*
X141203119Y-85368662D01*
X141203116Y-85368661D01*
X140993373Y-85331300D01*
X140993367Y-85331299D01*
X140988284Y-85330394D01*
X140914452Y-85329492D01*
X140770081Y-85327728D01*
X140770079Y-85327728D01*
X140764911Y-85327665D01*
X140544091Y-85361455D01*
X140331756Y-85430857D01*
X140267056Y-85464538D01*
X140154621Y-85523068D01*
X140133607Y-85534007D01*
X140129474Y-85537110D01*
X140129471Y-85537112D01*
X140046771Y-85599205D01*
X139954965Y-85668135D01*
X139800629Y-85829638D01*
X139693201Y-85987121D01*
X139638293Y-86032121D01*
X139567768Y-86040292D01*
X139504021Y-86009038D01*
X139483324Y-85984554D01*
X139402822Y-85860117D01*
X139402820Y-85860114D01*
X139400014Y-85855777D01*
X139249670Y-85690551D01*
X139245619Y-85687352D01*
X139245615Y-85687348D01*
X139078414Y-85555300D01*
X139078410Y-85555298D01*
X139074359Y-85552098D01*
X139038028Y-85532042D01*
X138997205Y-85509507D01*
X138878789Y-85444138D01*
X138873920Y-85442414D01*
X138873916Y-85442412D01*
X138673087Y-85371295D01*
X138673083Y-85371294D01*
X138668212Y-85369569D01*
X138663119Y-85368662D01*
X138663116Y-85368661D01*
X138453373Y-85331300D01*
X138453367Y-85331299D01*
X138448284Y-85330394D01*
X138374452Y-85329492D01*
X138230081Y-85327728D01*
X138230079Y-85327728D01*
X138224911Y-85327665D01*
X138004091Y-85361455D01*
X137791756Y-85430857D01*
X137727056Y-85464538D01*
X137614621Y-85523068D01*
X137593607Y-85534007D01*
X137589474Y-85537110D01*
X137589471Y-85537112D01*
X137506771Y-85599205D01*
X137414965Y-85668135D01*
X137260629Y-85829638D01*
X137153201Y-85987121D01*
X137098293Y-86032121D01*
X137027768Y-86040292D01*
X136964021Y-86009038D01*
X136943324Y-85984554D01*
X136862822Y-85860117D01*
X136862820Y-85860114D01*
X136860014Y-85855777D01*
X136709670Y-85690551D01*
X136705619Y-85687352D01*
X136705615Y-85687348D01*
X136538414Y-85555300D01*
X136538410Y-85555298D01*
X136534359Y-85552098D01*
X136498028Y-85532042D01*
X136457205Y-85509507D01*
X136338789Y-85444138D01*
X136333920Y-85442414D01*
X136333916Y-85442412D01*
X136133087Y-85371295D01*
X136133083Y-85371294D01*
X136128212Y-85369569D01*
X136123119Y-85368662D01*
X136123116Y-85368661D01*
X135913373Y-85331300D01*
X135913367Y-85331299D01*
X135908284Y-85330394D01*
X135834452Y-85329492D01*
X135690081Y-85327728D01*
X135690079Y-85327728D01*
X135684911Y-85327665D01*
X135464091Y-85361455D01*
X135251756Y-85430857D01*
X135187056Y-85464538D01*
X135074621Y-85523068D01*
X135053607Y-85534007D01*
X135049474Y-85537110D01*
X135049471Y-85537112D01*
X134966771Y-85599205D01*
X134874965Y-85668135D01*
X134720629Y-85829638D01*
X134613201Y-85987121D01*
X134558293Y-86032121D01*
X134487768Y-86040292D01*
X134424021Y-86009038D01*
X134403324Y-85984554D01*
X134322822Y-85860117D01*
X134322820Y-85860114D01*
X134320014Y-85855777D01*
X134169670Y-85690551D01*
X134165619Y-85687352D01*
X134165615Y-85687348D01*
X133998414Y-85555300D01*
X133998410Y-85555298D01*
X133994359Y-85552098D01*
X133958028Y-85532042D01*
X133917205Y-85509507D01*
X133798789Y-85444138D01*
X133793920Y-85442414D01*
X133793916Y-85442412D01*
X133593087Y-85371295D01*
X133593083Y-85371294D01*
X133588212Y-85369569D01*
X133583119Y-85368662D01*
X133583116Y-85368661D01*
X133373373Y-85331300D01*
X133373367Y-85331299D01*
X133368284Y-85330394D01*
X133294452Y-85329492D01*
X133150081Y-85327728D01*
X133150079Y-85327728D01*
X133144911Y-85327665D01*
X132924091Y-85361455D01*
X132711756Y-85430857D01*
X132647056Y-85464538D01*
X132534621Y-85523068D01*
X132513607Y-85534007D01*
X132509474Y-85537110D01*
X132509471Y-85537112D01*
X132426771Y-85599205D01*
X132334965Y-85668135D01*
X132180629Y-85829638D01*
X132054743Y-86014180D01*
X132007716Y-86115492D01*
X131973697Y-86188780D01*
X131960688Y-86216805D01*
X131900989Y-86432070D01*
X131877251Y-86654195D01*
X121513751Y-86654195D01*
X121635444Y-86579622D01*
X121704629Y-86537226D01*
X121704632Y-86537224D01*
X121708855Y-86534636D01*
X121790551Y-86464861D01*
X121891636Y-86378525D01*
X121895392Y-86375317D01*
X121898600Y-86371561D01*
X122051494Y-86192547D01*
X122051496Y-86192544D01*
X122054711Y-86188780D01*
X122182886Y-85979616D01*
X122276764Y-85752976D01*
X122315700Y-85590795D01*
X122332876Y-85519254D01*
X122332877Y-85519248D01*
X122334031Y-85514441D01*
X122353278Y-85269884D01*
X122334031Y-85025327D01*
X122276764Y-84786792D01*
X122182886Y-84560152D01*
X122054711Y-84350988D01*
X121895392Y-84164451D01*
X121866401Y-84139690D01*
X121712622Y-84008349D01*
X121712619Y-84008347D01*
X121708855Y-84005132D01*
X121704632Y-84002544D01*
X121704629Y-84002542D01*
X121629625Y-83956580D01*
X121499691Y-83876957D01*
X121354992Y-83817020D01*
X121277624Y-83784973D01*
X121277622Y-83784972D01*
X121273051Y-83783079D01*
X121038440Y-83726754D01*
X120976871Y-83691402D01*
X120944188Y-83628375D01*
X120950768Y-83557684D01*
X120970388Y-83525082D01*
X120970346Y-83525052D01*
X120970718Y-83524534D01*
X121036724Y-83432677D01*
X121100085Y-83344503D01*
X121100089Y-83344497D01*
X121103103Y-83340302D01*
X121203902Y-83136351D01*
X121270037Y-82918675D01*
X121283224Y-82818511D01*
X121299295Y-82696441D01*
X121299295Y-82696437D01*
X121299732Y-82693120D01*
X121301389Y-82625305D01*
X121282748Y-82398569D01*
X121227325Y-82177922D01*
X121173991Y-82055262D01*
X121138669Y-81974027D01*
X121138667Y-81974024D01*
X121136609Y-81969290D01*
X121027755Y-81801026D01*
X121015845Y-81782616D01*
X121015843Y-81782613D01*
X121013037Y-81778276D01*
X120859926Y-81610009D01*
X120681388Y-81469009D01*
X120643684Y-81448195D01*
X120583085Y-81414743D01*
X120482219Y-81359062D01*
X120477350Y-81357338D01*
X120477346Y-81357336D01*
X120272643Y-81284846D01*
X120272639Y-81284845D01*
X120267768Y-81283120D01*
X120262675Y-81282213D01*
X120262672Y-81282212D01*
X120048881Y-81244130D01*
X120048875Y-81244129D01*
X120043792Y-81243224D01*
X119970343Y-81242327D01*
X119821478Y-81240508D01*
X119821476Y-81240508D01*
X119816308Y-81240445D01*
X119591425Y-81274857D01*
X119375182Y-81345536D01*
X119370594Y-81347924D01*
X119370590Y-81347926D01*
X119228858Y-81421707D01*
X119173386Y-81450584D01*
X119169253Y-81453687D01*
X119169250Y-81453689D01*
X119003926Y-81577818D01*
X118991457Y-81587180D01*
X118834280Y-81751656D01*
X118706078Y-81939594D01*
X118703905Y-81944276D01*
X118703903Y-81944279D01*
X118690095Y-81974027D01*
X118610292Y-82145948D01*
X118549495Y-82365174D01*
X118525319Y-82591387D01*
X116664378Y-82591387D01*
X117370947Y-81709444D01*
X117373470Y-81706395D01*
X118125599Y-80825764D01*
X118128217Y-80822794D01*
X118343270Y-80586454D01*
X122316828Y-80586454D01*
X122322109Y-80593508D01*
X122491047Y-80692228D01*
X122500330Y-80696675D01*
X122703130Y-80774117D01*
X122713028Y-80776993D01*
X122925753Y-80820272D01*
X122935981Y-80821491D01*
X123152916Y-80829446D01*
X123163202Y-80828979D01*
X123378528Y-80801396D01*
X123388605Y-80799254D01*
X123596529Y-80736873D01*
X123606127Y-80733112D01*
X123801072Y-80637609D01*
X123809917Y-80632336D01*
X123986643Y-80506279D01*
X123998469Y-80496285D01*
X123999756Y-80497807D01*
X124054615Y-80467981D01*
X124125422Y-80473174D01*
X124182180Y-80515824D01*
X124203693Y-80561734D01*
X124259973Y-80796158D01*
X124261866Y-80800729D01*
X124261867Y-80800731D01*
X124272236Y-80825764D01*
X124353851Y-81022798D01*
X124482026Y-81231962D01*
X124485241Y-81235726D01*
X124485243Y-81235729D01*
X124592715Y-81361561D01*
X124641345Y-81418499D01*
X124645101Y-81421707D01*
X124697561Y-81466512D01*
X124827882Y-81577818D01*
X124832105Y-81580406D01*
X124832108Y-81580408D01*
X124843159Y-81587180D01*
X125037046Y-81705993D01*
X125157592Y-81755925D01*
X125259113Y-81797977D01*
X125259115Y-81797978D01*
X125263686Y-81799871D01*
X125346341Y-81819715D01*
X125497408Y-81855983D01*
X125497414Y-81855984D01*
X125502221Y-81857138D01*
X125746778Y-81876385D01*
X125991335Y-81857138D01*
X125996142Y-81855984D01*
X125996148Y-81855983D01*
X126147215Y-81819715D01*
X126229870Y-81799871D01*
X126234441Y-81797978D01*
X126234443Y-81797977D01*
X126335964Y-81755925D01*
X126456510Y-81705993D01*
X126650397Y-81587180D01*
X126661448Y-81580408D01*
X126661451Y-81580406D01*
X126665674Y-81577818D01*
X126795996Y-81466512D01*
X126848455Y-81421707D01*
X126852211Y-81418499D01*
X126900841Y-81361561D01*
X127008313Y-81235729D01*
X127008315Y-81235726D01*
X127011530Y-81231962D01*
X127139705Y-81022798D01*
X127221320Y-80825764D01*
X127231689Y-80800731D01*
X127231690Y-80800729D01*
X127233583Y-80796158D01*
X127282235Y-80593508D01*
X127289695Y-80562436D01*
X127289696Y-80562430D01*
X127290850Y-80557623D01*
X127310097Y-80313066D01*
X127290850Y-80068509D01*
X127233583Y-79829974D01*
X127139705Y-79603334D01*
X127040958Y-79442192D01*
X127014120Y-79398396D01*
X127014118Y-79398393D01*
X127011530Y-79394170D01*
X126872023Y-79230829D01*
X126855419Y-79211389D01*
X126852211Y-79207633D01*
X126763220Y-79131627D01*
X126669441Y-79051531D01*
X126669438Y-79051529D01*
X126665674Y-79048314D01*
X126661451Y-79045726D01*
X126661448Y-79045724D01*
X126572739Y-78991364D01*
X126456510Y-78920139D01*
X126311811Y-78860202D01*
X126234443Y-78828155D01*
X126234441Y-78828154D01*
X126229870Y-78826261D01*
X126147215Y-78806417D01*
X125996148Y-78770149D01*
X125996142Y-78770148D01*
X125991335Y-78768994D01*
X125746778Y-78749747D01*
X125502221Y-78768994D01*
X125497414Y-78770148D01*
X125497408Y-78770149D01*
X125346341Y-78806417D01*
X125263686Y-78826261D01*
X125259115Y-78828154D01*
X125259113Y-78828155D01*
X125181745Y-78860202D01*
X125037046Y-78920139D01*
X124920817Y-78991364D01*
X124832108Y-79045724D01*
X124832105Y-79045726D01*
X124827882Y-79048314D01*
X124824118Y-79051529D01*
X124824115Y-79051531D01*
X124648177Y-79201798D01*
X124583387Y-79230829D01*
X124513187Y-79220224D01*
X124459865Y-79173350D01*
X124444142Y-79136682D01*
X124410091Y-79001118D01*
X124406770Y-78991364D01*
X124320208Y-78792283D01*
X124315341Y-78783208D01*
X124246272Y-78676442D01*
X124235586Y-78667239D01*
X124226019Y-78671643D01*
X122323588Y-80574074D01*
X122316828Y-80586454D01*
X118343270Y-80586454D01*
X118676367Y-80220385D01*
X118907662Y-79966195D01*
X118910367Y-79963315D01*
X119034920Y-79834786D01*
X119442134Y-79414574D01*
X121708099Y-79414574D01*
X121720595Y-79631291D01*
X121722031Y-79641512D01*
X121769755Y-79853272D01*
X121772834Y-79863101D01*
X121854507Y-80064238D01*
X121859150Y-80073429D01*
X121943407Y-80210925D01*
X121953863Y-80220385D01*
X121962641Y-80216601D01*
X122723106Y-79456136D01*
X122730720Y-79442192D01*
X122730589Y-79440359D01*
X122726338Y-79433744D01*
X121966986Y-78674392D01*
X121955450Y-78668092D01*
X121943167Y-78677715D01*
X121891407Y-78753592D01*
X121886319Y-78762548D01*
X121794923Y-78959445D01*
X121791360Y-78969132D01*
X121733351Y-79178303D01*
X121731420Y-79188424D01*
X121708350Y-79404286D01*
X121708099Y-79414574D01*
X119442134Y-79414574D01*
X119716359Y-79131596D01*
X119719096Y-79128859D01*
X120550820Y-78322863D01*
X120553700Y-78320158D01*
X120573773Y-78301893D01*
X122318493Y-78301893D01*
X122325239Y-78314225D01*
X123082316Y-79071302D01*
X123096260Y-79078916D01*
X123098093Y-79078785D01*
X123104708Y-79074534D01*
X123866318Y-78312924D01*
X123873339Y-78300068D01*
X123865846Y-78289785D01*
X123858563Y-78284946D01*
X123668526Y-78180039D01*
X123659117Y-78175811D01*
X123454492Y-78103350D01*
X123444529Y-78100718D01*
X123230815Y-78062650D01*
X123220562Y-78061680D01*
X123003494Y-78059027D01*
X122993210Y-78059747D01*
X122778635Y-78092582D01*
X122768607Y-78094971D01*
X122562275Y-78162411D01*
X122552765Y-78166408D01*
X122360223Y-78266639D01*
X122351498Y-78272133D01*
X122326947Y-78290567D01*
X122318493Y-78301893D01*
X120573773Y-78301893D01*
X120587080Y-78289785D01*
X121410294Y-77540717D01*
X121413264Y-77538099D01*
X122293895Y-76785970D01*
X122296944Y-76783447D01*
X123200804Y-76059319D01*
X123203932Y-76056893D01*
X124130053Y-75361541D01*
X124133255Y-75359214D01*
X125080793Y-74693273D01*
X125084067Y-74691048D01*
X125322617Y-74534350D01*
X125698410Y-74287500D01*
X131375000Y-74287500D01*
X139575000Y-74287500D01*
X139575000Y-72320203D01*
X143765743Y-72320203D01*
X143803268Y-72605234D01*
X143879129Y-72882536D01*
X143991923Y-73146976D01*
X144139561Y-73393661D01*
X144319313Y-73618028D01*
X144527851Y-73815923D01*
X144761317Y-73983686D01*
X144765112Y-73985695D01*
X144765113Y-73985696D01*
X144786869Y-73997215D01*
X145015392Y-74118212D01*
X145285373Y-74217011D01*
X145566264Y-74278255D01*
X145594841Y-74280504D01*
X145789282Y-74295807D01*
X145789291Y-74295807D01*
X145791739Y-74296000D01*
X145947271Y-74296000D01*
X145949407Y-74295854D01*
X145949418Y-74295854D01*
X146157548Y-74281665D01*
X146157554Y-74281664D01*
X146161825Y-74281373D01*
X146166020Y-74280504D01*
X146166022Y-74280504D01*
X146302583Y-74252224D01*
X146443342Y-74223074D01*
X146714343Y-74127107D01*
X146969812Y-73995250D01*
X146973313Y-73992789D01*
X146973317Y-73992787D01*
X147179756Y-73847699D01*
X147205023Y-73829941D01*
X147415622Y-73634240D01*
X147597713Y-73411768D01*
X147747927Y-73166642D01*
X147863483Y-72903398D01*
X147942244Y-72626906D01*
X147982751Y-72342284D01*
X147982825Y-72328311D01*
X147984235Y-72059083D01*
X147984235Y-72059076D01*
X147984257Y-72054797D01*
X147946732Y-71769766D01*
X147870871Y-71492464D01*
X147805299Y-71338734D01*
X147759763Y-71231976D01*
X147759761Y-71231972D01*
X147758077Y-71228024D01*
X147610439Y-70981339D01*
X147430687Y-70756972D01*
X147222149Y-70559077D01*
X147032064Y-70422487D01*
X146992172Y-70393821D01*
X146992171Y-70393820D01*
X146988683Y-70391314D01*
X146966843Y-70379750D01*
X146943654Y-70367472D01*
X146734608Y-70256788D01*
X146464627Y-70157989D01*
X146183736Y-70096745D01*
X146152685Y-70094301D01*
X145960718Y-70079193D01*
X145960709Y-70079193D01*
X145958261Y-70079000D01*
X145802729Y-70079000D01*
X145800593Y-70079146D01*
X145800582Y-70079146D01*
X145592452Y-70093335D01*
X145592446Y-70093336D01*
X145588175Y-70093627D01*
X145583980Y-70094496D01*
X145583978Y-70094496D01*
X145447417Y-70122776D01*
X145306658Y-70151926D01*
X145035657Y-70247893D01*
X144780188Y-70379750D01*
X144776687Y-70382211D01*
X144776683Y-70382213D01*
X144766594Y-70389304D01*
X144544977Y-70545059D01*
X144334378Y-70740760D01*
X144152287Y-70963232D01*
X144002073Y-71208358D01*
X143886517Y-71471602D01*
X143807756Y-71748094D01*
X143767249Y-72032716D01*
X143767227Y-72037005D01*
X143767226Y-72037012D01*
X143766931Y-72093365D01*
X143765743Y-72320203D01*
X139575000Y-72320203D01*
X139575000Y-72087500D01*
X131375000Y-72087500D01*
X131375000Y-74287500D01*
X125698410Y-74287500D01*
X126052058Y-74055196D01*
X126055360Y-74053101D01*
X126738879Y-73634240D01*
X127042850Y-73447967D01*
X127046257Y-73445952D01*
X127529527Y-73170299D01*
X128052307Y-72872110D01*
X128055662Y-72870266D01*
X129079285Y-72328286D01*
X129082763Y-72326515D01*
X129558681Y-72093365D01*
X130122787Y-71817013D01*
X130126337Y-71815341D01*
X130682346Y-71564293D01*
X131181905Y-71338734D01*
X131185538Y-71337162D01*
X132052650Y-70977992D01*
X132255519Y-70893961D01*
X132259189Y-70892508D01*
X133342548Y-70483142D01*
X133346272Y-70481801D01*
X134287737Y-70159464D01*
X134441990Y-70106651D01*
X134445734Y-70105435D01*
X135552695Y-69764890D01*
X135556462Y-69763796D01*
X136673547Y-69458196D01*
X136677361Y-69457217D01*
X136985334Y-69383279D01*
X137803535Y-69186846D01*
X137807398Y-69185983D01*
X138397848Y-69063706D01*
X138941467Y-68951128D01*
X138945305Y-68950396D01*
X139550060Y-68844849D01*
X140086230Y-68751273D01*
X140090139Y-68750654D01*
X140570248Y-68682324D01*
X141236749Y-68587467D01*
X141240619Y-68586978D01*
X141902264Y-68513932D01*
X142391764Y-68459891D01*
X142395704Y-68459518D01*
X143550298Y-68368649D01*
X143554249Y-68368401D01*
X144711086Y-68313846D01*
X144715042Y-68313722D01*
X145566980Y-68300339D01*
X145873027Y-68295531D01*
X145876973Y-68295531D01*
X146183020Y-68300339D01*
G37*
%TD.AperFunction*%
%TD*%
M02*
