%TF.GenerationSoftware,KiCad,Pcbnew,(6.0.1)*%
%TF.CreationDate,2022-03-12T16:33:18+00:00*%
%TF.ProjectId,Ball_Remote_Components,42616c6c-5f52-4656-9d6f-74655f436f6d,rev?*%
%TF.SameCoordinates,Original*%
%TF.FileFunction,Legend,Bot*%
%TF.FilePolarity,Positive*%
%FSLAX46Y46*%
G04 Gerber Fmt 4.6, Leading zero omitted, Abs format (unit mm)*
G04 Created by KiCad (PCBNEW (6.0.1)) date 2022-03-12 16:33:18*
%MOMM*%
%LPD*%
G01*
G04 APERTURE LIST*
%ADD10C,0.150000*%
%ADD11C,0.120000*%
G04 APERTURE END LIST*
D10*
X167675595Y-118366071D02*
X168437500Y-118366071D01*
X168056547Y-117985119D02*
X168056547Y-118747023D01*
X170437500Y-118366071D02*
X171199404Y-118366071D01*
%TO.C,BT1*%
X165798571Y-114401785D02*
X165846190Y-114544642D01*
X165893809Y-114592261D01*
X165989047Y-114639880D01*
X166131904Y-114639880D01*
X166227142Y-114592261D01*
X166274761Y-114544642D01*
X166322380Y-114449404D01*
X166322380Y-114068452D01*
X165322380Y-114068452D01*
X165322380Y-114401785D01*
X165370000Y-114497023D01*
X165417619Y-114544642D01*
X165512857Y-114592261D01*
X165608095Y-114592261D01*
X165703333Y-114544642D01*
X165750952Y-114497023D01*
X165798571Y-114401785D01*
X165798571Y-114068452D01*
X165322380Y-114925595D02*
X165322380Y-115497023D01*
X166322380Y-115211309D02*
X165322380Y-115211309D01*
X166322380Y-116354166D02*
X166322380Y-115782738D01*
X166322380Y-116068452D02*
X165322380Y-116068452D01*
X165465238Y-115973214D01*
X165560476Y-115877976D01*
X165608095Y-115782738D01*
D11*
X168200000Y-113857500D02*
X166870000Y-113857500D01*
X172070000Y-113857500D02*
X172070000Y-116517500D01*
X169470000Y-113857500D02*
X172070000Y-113857500D01*
X169470000Y-113857500D02*
X169470000Y-116517500D01*
X166870000Y-113857500D02*
X166870000Y-115187500D01*
X169470000Y-116517500D02*
X172070000Y-116517500D01*
%TD*%
M02*
