%TF.GenerationSoftware,KiCad,Pcbnew,(6.0.1)*%
%TF.CreationDate,2022-03-12T16:33:18+00:00*%
%TF.ProjectId,Ball_Remote_Components,42616c6c-5f52-4656-9d6f-74655f436f6d,rev?*%
%TF.SameCoordinates,Original*%
%TF.FileFunction,Legend,Top*%
%TF.FilePolarity,Positive*%
%FSLAX46Y46*%
G04 Gerber Fmt 4.6, Leading zero omitted, Abs format (unit mm)*
G04 Created by KiCad (PCBNEW (6.0.1)) date 2022-03-12 16:33:18*
%MOMM*%
%LPD*%
G01*
G04 APERTURE LIST*
%ADD10C,0.150000*%
%ADD11C,0.357843*%
%ADD12C,0.120000*%
%ADD13C,0.342843*%
G04 APERTURE END LIST*
D10*
X151775000Y-75111071D02*
X151917857Y-75158690D01*
X151965476Y-75206309D01*
X152013095Y-75301547D01*
X152013095Y-75444404D01*
X151965476Y-75539642D01*
X151917857Y-75587261D01*
X151822619Y-75634880D01*
X151441666Y-75634880D01*
X151441666Y-74634880D01*
X151775000Y-74634880D01*
X151870238Y-74682500D01*
X151917857Y-74730119D01*
X151965476Y-74825357D01*
X151965476Y-74920595D01*
X151917857Y-75015833D01*
X151870238Y-75063452D01*
X151775000Y-75111071D01*
X151441666Y-75111071D01*
X152870238Y-75634880D02*
X152870238Y-75111071D01*
X152822619Y-75015833D01*
X152727380Y-74968214D01*
X152536904Y-74968214D01*
X152441666Y-75015833D01*
X152870238Y-75587261D02*
X152775000Y-75634880D01*
X152536904Y-75634880D01*
X152441666Y-75587261D01*
X152394047Y-75492023D01*
X152394047Y-75396785D01*
X152441666Y-75301547D01*
X152536904Y-75253928D01*
X152775000Y-75253928D01*
X152870238Y-75206309D01*
X153489285Y-75634880D02*
X153394047Y-75587261D01*
X153346428Y-75492023D01*
X153346428Y-74634880D01*
X154013095Y-75634880D02*
X153917857Y-75587261D01*
X153870238Y-75492023D01*
X153870238Y-74634880D01*
X155727380Y-75634880D02*
X155394047Y-75158690D01*
X155155952Y-75634880D02*
X155155952Y-74634880D01*
X155536904Y-74634880D01*
X155632142Y-74682500D01*
X155679761Y-74730119D01*
X155727380Y-74825357D01*
X155727380Y-74968214D01*
X155679761Y-75063452D01*
X155632142Y-75111071D01*
X155536904Y-75158690D01*
X155155952Y-75158690D01*
X156536904Y-75587261D02*
X156441666Y-75634880D01*
X156251190Y-75634880D01*
X156155952Y-75587261D01*
X156108333Y-75492023D01*
X156108333Y-75111071D01*
X156155952Y-75015833D01*
X156251190Y-74968214D01*
X156441666Y-74968214D01*
X156536904Y-75015833D01*
X156584523Y-75111071D01*
X156584523Y-75206309D01*
X156108333Y-75301547D01*
X157013095Y-75634880D02*
X157013095Y-74968214D01*
X157013095Y-75063452D02*
X157060714Y-75015833D01*
X157155952Y-74968214D01*
X157298809Y-74968214D01*
X157394047Y-75015833D01*
X157441666Y-75111071D01*
X157441666Y-75634880D01*
X157441666Y-75111071D02*
X157489285Y-75015833D01*
X157584523Y-74968214D01*
X157727380Y-74968214D01*
X157822619Y-75015833D01*
X157870238Y-75111071D01*
X157870238Y-75634880D01*
X158489285Y-75634880D02*
X158394047Y-75587261D01*
X158346428Y-75539642D01*
X158298809Y-75444404D01*
X158298809Y-75158690D01*
X158346428Y-75063452D01*
X158394047Y-75015833D01*
X158489285Y-74968214D01*
X158632142Y-74968214D01*
X158727380Y-75015833D01*
X158775000Y-75063452D01*
X158822619Y-75158690D01*
X158822619Y-75444404D01*
X158775000Y-75539642D01*
X158727380Y-75587261D01*
X158632142Y-75634880D01*
X158489285Y-75634880D01*
X159108333Y-74968214D02*
X159489285Y-74968214D01*
X159251190Y-74634880D02*
X159251190Y-75492023D01*
X159298809Y-75587261D01*
X159394047Y-75634880D01*
X159489285Y-75634880D01*
X160203571Y-75587261D02*
X160108333Y-75634880D01*
X159917857Y-75634880D01*
X159822619Y-75587261D01*
X159775000Y-75492023D01*
X159775000Y-75111071D01*
X159822619Y-75015833D01*
X159917857Y-74968214D01*
X160108333Y-74968214D01*
X160203571Y-75015833D01*
X160251190Y-75111071D01*
X160251190Y-75206309D01*
X159775000Y-75301547D01*
X161346428Y-74968214D02*
X161584523Y-75634880D01*
X161822619Y-74968214D01*
X162727380Y-75634880D02*
X162155952Y-75634880D01*
X162441666Y-75634880D02*
X162441666Y-74634880D01*
X162346428Y-74777738D01*
X162251190Y-74872976D01*
X162155952Y-74920595D01*
X163155952Y-75539642D02*
X163203571Y-75587261D01*
X163155952Y-75634880D01*
X163108333Y-75587261D01*
X163155952Y-75539642D01*
X163155952Y-75634880D01*
X163822619Y-74634880D02*
X163917857Y-74634880D01*
X164013095Y-74682500D01*
X164060714Y-74730119D01*
X164108333Y-74825357D01*
X164155952Y-75015833D01*
X164155952Y-75253928D01*
X164108333Y-75444404D01*
X164060714Y-75539642D01*
X164013095Y-75587261D01*
X163917857Y-75634880D01*
X163822619Y-75634880D01*
X163727380Y-75587261D01*
X163679761Y-75539642D01*
X163632142Y-75444404D01*
X163584523Y-75253928D01*
X163584523Y-75015833D01*
X163632142Y-74825357D01*
X163679761Y-74730119D01*
X163727380Y-74682500D01*
X163822619Y-74634880D01*
X149108333Y-77244880D02*
X149108333Y-76244880D01*
X149441666Y-76959166D01*
X149775000Y-76244880D01*
X149775000Y-77244880D01*
X150394047Y-77244880D02*
X150298809Y-77197261D01*
X150251190Y-77149642D01*
X150203571Y-77054404D01*
X150203571Y-76768690D01*
X150251190Y-76673452D01*
X150298809Y-76625833D01*
X150394047Y-76578214D01*
X150536904Y-76578214D01*
X150632142Y-76625833D01*
X150679761Y-76673452D01*
X150727380Y-76768690D01*
X150727380Y-77054404D01*
X150679761Y-77149642D01*
X150632142Y-77197261D01*
X150536904Y-77244880D01*
X150394047Y-77244880D01*
X151584523Y-76578214D02*
X151584523Y-77244880D01*
X151155952Y-76578214D02*
X151155952Y-77102023D01*
X151203571Y-77197261D01*
X151298809Y-77244880D01*
X151441666Y-77244880D01*
X151536904Y-77197261D01*
X151584523Y-77149642D01*
X152060714Y-76578214D02*
X152060714Y-77244880D01*
X152060714Y-76673452D02*
X152108333Y-76625833D01*
X152203571Y-76578214D01*
X152346428Y-76578214D01*
X152441666Y-76625833D01*
X152489285Y-76721071D01*
X152489285Y-77244880D01*
X152822619Y-76578214D02*
X153203571Y-76578214D01*
X152965476Y-76244880D02*
X152965476Y-77102023D01*
X153013095Y-77197261D01*
X153108333Y-77244880D01*
X153203571Y-77244880D01*
X153536904Y-76578214D02*
X153536904Y-77435357D01*
X153489285Y-77530595D01*
X153394047Y-77578214D01*
X153346428Y-77578214D01*
X153536904Y-76244880D02*
X153489285Y-76292500D01*
X153536904Y-76340119D01*
X153584523Y-76292500D01*
X153536904Y-76244880D01*
X153536904Y-76340119D01*
X154155952Y-77244880D02*
X154060714Y-77197261D01*
X154013095Y-77149642D01*
X153965476Y-77054404D01*
X153965476Y-76768690D01*
X154013095Y-76673452D01*
X154060714Y-76625833D01*
X154155952Y-76578214D01*
X154298809Y-76578214D01*
X154394047Y-76625833D01*
X154441666Y-76673452D01*
X154489285Y-76768690D01*
X154489285Y-77054404D01*
X154441666Y-77149642D01*
X154394047Y-77197261D01*
X154298809Y-77244880D01*
X154155952Y-77244880D01*
X154822619Y-76578214D02*
X155060714Y-77244880D01*
X155298809Y-76578214D02*
X155060714Y-77244880D01*
X154965476Y-77482976D01*
X154917857Y-77530595D01*
X154822619Y-77578214D01*
X156441666Y-77244880D02*
X156441666Y-76244880D01*
X156775000Y-76959166D01*
X157108333Y-76244880D01*
X157108333Y-77244880D01*
X157727380Y-77244880D02*
X157632142Y-77197261D01*
X157584523Y-77149642D01*
X157536904Y-77054404D01*
X157536904Y-76768690D01*
X157584523Y-76673452D01*
X157632142Y-76625833D01*
X157727380Y-76578214D01*
X157870238Y-76578214D01*
X157965476Y-76625833D01*
X158013095Y-76673452D01*
X158060714Y-76768690D01*
X158060714Y-77054404D01*
X158013095Y-77149642D01*
X157965476Y-77197261D01*
X157870238Y-77244880D01*
X157727380Y-77244880D01*
X158917857Y-77244880D02*
X158917857Y-76244880D01*
X158917857Y-77197261D02*
X158822619Y-77244880D01*
X158632142Y-77244880D01*
X158536904Y-77197261D01*
X158489285Y-77149642D01*
X158441666Y-77054404D01*
X158441666Y-76768690D01*
X158489285Y-76673452D01*
X158536904Y-76625833D01*
X158632142Y-76578214D01*
X158822619Y-76578214D01*
X158917857Y-76625833D01*
X159822619Y-76578214D02*
X159822619Y-77244880D01*
X159394047Y-76578214D02*
X159394047Y-77102023D01*
X159441666Y-77197261D01*
X159536904Y-77244880D01*
X159679761Y-77244880D01*
X159775000Y-77197261D01*
X159822619Y-77149642D01*
X160441666Y-77244880D02*
X160346428Y-77197261D01*
X160298809Y-77102023D01*
X160298809Y-76244880D01*
X161251190Y-77244880D02*
X161251190Y-76721071D01*
X161203571Y-76625833D01*
X161108333Y-76578214D01*
X160917857Y-76578214D01*
X160822619Y-76625833D01*
X161251190Y-77197261D02*
X161155952Y-77244880D01*
X160917857Y-77244880D01*
X160822619Y-77197261D01*
X160775000Y-77102023D01*
X160775000Y-77006785D01*
X160822619Y-76911547D01*
X160917857Y-76863928D01*
X161155952Y-76863928D01*
X161251190Y-76816309D01*
X161727380Y-77244880D02*
X161727380Y-76578214D01*
X161727380Y-76768690D02*
X161775000Y-76673452D01*
X161822619Y-76625833D01*
X161917857Y-76578214D01*
X162013095Y-76578214D01*
X163060714Y-76340119D02*
X163108333Y-76292500D01*
X163203571Y-76244880D01*
X163441666Y-76244880D01*
X163536904Y-76292500D01*
X163584523Y-76340119D01*
X163632142Y-76435357D01*
X163632142Y-76530595D01*
X163584523Y-76673452D01*
X163013095Y-77244880D01*
X163632142Y-77244880D01*
X164251190Y-76244880D02*
X164346428Y-76244880D01*
X164441666Y-76292500D01*
X164489285Y-76340119D01*
X164536904Y-76435357D01*
X164584523Y-76625833D01*
X164584523Y-76863928D01*
X164536904Y-77054404D01*
X164489285Y-77149642D01*
X164441666Y-77197261D01*
X164346428Y-77244880D01*
X164251190Y-77244880D01*
X164155952Y-77197261D01*
X164108333Y-77149642D01*
X164060714Y-77054404D01*
X164013095Y-76863928D01*
X164013095Y-76625833D01*
X164060714Y-76435357D01*
X164108333Y-76340119D01*
X164155952Y-76292500D01*
X164251190Y-76244880D01*
X164965476Y-76340119D02*
X165013095Y-76292500D01*
X165108333Y-76244880D01*
X165346428Y-76244880D01*
X165441666Y-76292500D01*
X165489285Y-76340119D01*
X165536904Y-76435357D01*
X165536904Y-76530595D01*
X165489285Y-76673452D01*
X164917857Y-77244880D01*
X165536904Y-77244880D01*
X165917857Y-76340119D02*
X165965476Y-76292500D01*
X166060714Y-76244880D01*
X166298809Y-76244880D01*
X166394047Y-76292500D01*
X166441666Y-76340119D01*
X166489285Y-76435357D01*
X166489285Y-76530595D01*
X166441666Y-76673452D01*
X165870238Y-77244880D01*
X166489285Y-77244880D01*
X143927380Y-83006547D02*
X143451190Y-83339880D01*
X143927380Y-83577976D02*
X142927380Y-83577976D01*
X142927380Y-83197023D01*
X142975000Y-83101785D01*
X143022619Y-83054166D01*
X143117857Y-83006547D01*
X143260714Y-83006547D01*
X143355952Y-83054166D01*
X143403571Y-83101785D01*
X143451190Y-83197023D01*
X143451190Y-83577976D01*
X143927380Y-82577976D02*
X142927380Y-82577976D01*
X142927380Y-82339880D01*
X142975000Y-82197023D01*
X143070238Y-82101785D01*
X143165476Y-82054166D01*
X143355952Y-82006547D01*
X143498809Y-82006547D01*
X143689285Y-82054166D01*
X143784523Y-82101785D01*
X143879761Y-82197023D01*
X143927380Y-82339880D01*
X143927380Y-82577976D01*
X143451190Y-81387500D02*
X143927380Y-81387500D01*
X142927380Y-81720833D02*
X143451190Y-81387500D01*
X142927380Y-81054166D01*
X146427380Y-83392261D02*
X145427380Y-83392261D01*
X146427380Y-82916071D02*
X145427380Y-82916071D01*
X146427380Y-82344642D01*
X145427380Y-82344642D01*
X145427380Y-82011309D02*
X145427380Y-81439880D01*
X146427380Y-81725595D02*
X145427380Y-81725595D01*
X148979761Y-83701785D02*
X149027380Y-83558928D01*
X149027380Y-83320833D01*
X148979761Y-83225595D01*
X148932142Y-83177976D01*
X148836904Y-83130357D01*
X148741666Y-83130357D01*
X148646428Y-83177976D01*
X148598809Y-83225595D01*
X148551190Y-83320833D01*
X148503571Y-83511309D01*
X148455952Y-83606547D01*
X148408333Y-83654166D01*
X148313095Y-83701785D01*
X148217857Y-83701785D01*
X148122619Y-83654166D01*
X148075000Y-83606547D01*
X148027380Y-83511309D01*
X148027380Y-83273214D01*
X148075000Y-83130357D01*
X149027380Y-82701785D02*
X148027380Y-82701785D01*
X148027380Y-82463690D01*
X148075000Y-82320833D01*
X148170238Y-82225595D01*
X148265476Y-82177976D01*
X148455952Y-82130357D01*
X148598809Y-82130357D01*
X148789285Y-82177976D01*
X148884523Y-82225595D01*
X148979761Y-82320833D01*
X149027380Y-82463690D01*
X149027380Y-82701785D01*
X148741666Y-81749404D02*
X148741666Y-81273214D01*
X149027380Y-81844642D02*
X148027380Y-81511309D01*
X149027380Y-81177976D01*
X151432142Y-83082738D02*
X151479761Y-83130357D01*
X151527380Y-83273214D01*
X151527380Y-83368452D01*
X151479761Y-83511309D01*
X151384523Y-83606547D01*
X151289285Y-83654166D01*
X151098809Y-83701785D01*
X150955952Y-83701785D01*
X150765476Y-83654166D01*
X150670238Y-83606547D01*
X150575000Y-83511309D01*
X150527380Y-83368452D01*
X150527380Y-83273214D01*
X150575000Y-83130357D01*
X150622619Y-83082738D01*
X151527380Y-82177976D02*
X151527380Y-82654166D01*
X150527380Y-82654166D01*
X151527380Y-81844642D02*
X150527380Y-81844642D01*
X151527380Y-81273214D02*
X150955952Y-81701785D01*
X150527380Y-81273214D02*
X151098809Y-81844642D01*
X153175000Y-83249404D02*
X153127380Y-83344642D01*
X153127380Y-83487500D01*
X153175000Y-83630357D01*
X153270238Y-83725595D01*
X153365476Y-83773214D01*
X153555952Y-83820833D01*
X153698809Y-83820833D01*
X153889285Y-83773214D01*
X153984523Y-83725595D01*
X154079761Y-83630357D01*
X154127380Y-83487500D01*
X154127380Y-83392261D01*
X154079761Y-83249404D01*
X154032142Y-83201785D01*
X153698809Y-83201785D01*
X153698809Y-83392261D01*
X154127380Y-82773214D02*
X153127380Y-82773214D01*
X154127380Y-82201785D01*
X153127380Y-82201785D01*
X154127380Y-81725595D02*
X153127380Y-81725595D01*
X153127380Y-81487500D01*
X153175000Y-81344642D01*
X153270238Y-81249404D01*
X153365476Y-81201785D01*
X153555952Y-81154166D01*
X153698809Y-81154166D01*
X153889285Y-81201785D01*
X153984523Y-81249404D01*
X154079761Y-81344642D01*
X154127380Y-81487500D01*
X154127380Y-81725595D01*
X155627380Y-83482738D02*
X156627380Y-83149404D01*
X155627380Y-82816071D01*
X156627380Y-82482738D02*
X155627380Y-82482738D01*
X156627380Y-82006547D02*
X155627380Y-82006547D01*
X156627380Y-81435119D01*
X155627380Y-81435119D01*
X167675595Y-118308928D02*
X168437500Y-118308928D01*
X168056547Y-118689880D02*
X168056547Y-117927976D01*
X170437500Y-118308928D02*
X171199404Y-118308928D01*
D11*
X129778921Y-104400000D02*
G75*
G03*
X129778921Y-104400000I-178921J0D01*
G01*
D10*
X158746428Y-136935119D02*
X158794047Y-136887500D01*
X158889285Y-136839880D01*
X159127380Y-136839880D01*
X159222619Y-136887500D01*
X159270238Y-136935119D01*
X159317857Y-137030357D01*
X159317857Y-137125595D01*
X159270238Y-137268452D01*
X158698809Y-137839880D01*
X159317857Y-137839880D01*
X159746428Y-137744642D02*
X159794047Y-137792261D01*
X159746428Y-137839880D01*
X159698809Y-137792261D01*
X159746428Y-137744642D01*
X159746428Y-137839880D01*
X160365476Y-137268452D02*
X160270238Y-137220833D01*
X160222619Y-137173214D01*
X160175000Y-137077976D01*
X160175000Y-137030357D01*
X160222619Y-136935119D01*
X160270238Y-136887500D01*
X160365476Y-136839880D01*
X160555952Y-136839880D01*
X160651190Y-136887500D01*
X160698809Y-136935119D01*
X160746428Y-137030357D01*
X160746428Y-137077976D01*
X160698809Y-137173214D01*
X160651190Y-137220833D01*
X160555952Y-137268452D01*
X160365476Y-137268452D01*
X160270238Y-137316071D01*
X160222619Y-137363690D01*
X160175000Y-137458928D01*
X160175000Y-137649404D01*
X160222619Y-137744642D01*
X160270238Y-137792261D01*
X160365476Y-137839880D01*
X160555952Y-137839880D01*
X160651190Y-137792261D01*
X160698809Y-137744642D01*
X160746428Y-137649404D01*
X160746428Y-137458928D01*
X160698809Y-137363690D01*
X160651190Y-137316071D01*
X160555952Y-137268452D01*
X161032142Y-136839880D02*
X161365476Y-137839880D01*
X161698809Y-136839880D01*
X130113095Y-136887500D02*
X130017857Y-136839880D01*
X129875000Y-136839880D01*
X129732142Y-136887500D01*
X129636904Y-136982738D01*
X129589285Y-137077976D01*
X129541666Y-137268452D01*
X129541666Y-137411309D01*
X129589285Y-137601785D01*
X129636904Y-137697023D01*
X129732142Y-137792261D01*
X129875000Y-137839880D01*
X129970238Y-137839880D01*
X130113095Y-137792261D01*
X130160714Y-137744642D01*
X130160714Y-137411309D01*
X129970238Y-137411309D01*
X130589285Y-137839880D02*
X130589285Y-136839880D01*
X131160714Y-137839880D01*
X131160714Y-136839880D01*
X131636904Y-137839880D02*
X131636904Y-136839880D01*
X131875000Y-136839880D01*
X132017857Y-136887500D01*
X132113095Y-136982738D01*
X132160714Y-137077976D01*
X132208333Y-137268452D01*
X132208333Y-137411309D01*
X132160714Y-137601785D01*
X132113095Y-137697023D01*
X132017857Y-137792261D01*
X131875000Y-137839880D01*
X131636904Y-137839880D01*
X124819416Y-86182847D02*
X124246996Y-86081831D01*
X124415355Y-86586908D02*
X123708248Y-85879801D01*
X123977622Y-85610427D01*
X124078637Y-85576755D01*
X124145981Y-85576755D01*
X124246996Y-85610427D01*
X124348011Y-85711442D01*
X124381683Y-85812457D01*
X124381683Y-85879801D01*
X124348011Y-85980816D01*
X124078637Y-86250190D01*
X125358164Y-85576755D02*
X125324492Y-85677770D01*
X125189805Y-85812457D01*
X125088790Y-85846129D01*
X124987774Y-85812457D01*
X124718400Y-85543083D01*
X124684729Y-85442068D01*
X124718400Y-85341053D01*
X124853087Y-85206366D01*
X124954103Y-85172694D01*
X125055118Y-85206366D01*
X125122461Y-85273709D01*
X124853087Y-85677770D01*
X125661209Y-85273709D02*
X125762225Y-85240038D01*
X125896912Y-85105351D01*
X125930583Y-85004335D01*
X125896912Y-84903320D01*
X125863240Y-84869648D01*
X125762225Y-84835977D01*
X125661209Y-84869648D01*
X125560194Y-84970664D01*
X125459179Y-85004335D01*
X125358164Y-84970664D01*
X125324492Y-84936992D01*
X125290820Y-84835977D01*
X125324492Y-84734961D01*
X125425507Y-84633946D01*
X125526522Y-84600274D01*
X126536675Y-84398244D02*
X126503003Y-84499259D01*
X126368316Y-84633946D01*
X126267301Y-84667618D01*
X126166286Y-84633946D01*
X125896912Y-84364572D01*
X125863240Y-84263557D01*
X125896912Y-84162542D01*
X126031599Y-84027855D01*
X126132614Y-83994183D01*
X126233629Y-84027855D01*
X126300973Y-84095198D01*
X126031599Y-84499259D01*
X126334644Y-83724809D02*
X126604018Y-83455435D01*
X126199957Y-83388091D02*
X126806049Y-83994183D01*
X126907064Y-84027855D01*
X127008079Y-83994183D01*
X127075423Y-83926839D01*
X152489285Y-130144642D02*
X152441666Y-130192261D01*
X152298809Y-130239880D01*
X152203571Y-130239880D01*
X152060714Y-130192261D01*
X151965476Y-130097023D01*
X151917857Y-130001785D01*
X151870238Y-129811309D01*
X151870238Y-129668452D01*
X151917857Y-129477976D01*
X151965476Y-129382738D01*
X152060714Y-129287500D01*
X152203571Y-129239880D01*
X152298809Y-129239880D01*
X152441666Y-129287500D01*
X152489285Y-129335119D01*
X152917857Y-130239880D02*
X152917857Y-129239880D01*
X153346428Y-130239880D02*
X153346428Y-129716071D01*
X153298809Y-129620833D01*
X153203571Y-129573214D01*
X153060714Y-129573214D01*
X152965476Y-129620833D01*
X152917857Y-129668452D01*
X154251190Y-130239880D02*
X154251190Y-129716071D01*
X154203571Y-129620833D01*
X154108333Y-129573214D01*
X153917857Y-129573214D01*
X153822619Y-129620833D01*
X154251190Y-130192261D02*
X154155952Y-130239880D01*
X153917857Y-130239880D01*
X153822619Y-130192261D01*
X153775000Y-130097023D01*
X153775000Y-130001785D01*
X153822619Y-129906547D01*
X153917857Y-129858928D01*
X154155952Y-129858928D01*
X154251190Y-129811309D01*
X154727380Y-130239880D02*
X154727380Y-129573214D01*
X154727380Y-129763690D02*
X154775000Y-129668452D01*
X154822619Y-129620833D01*
X154917857Y-129573214D01*
X155013095Y-129573214D01*
X155775000Y-129573214D02*
X155775000Y-130382738D01*
X155727380Y-130477976D01*
X155679761Y-130525595D01*
X155584523Y-130573214D01*
X155441666Y-130573214D01*
X155346428Y-130525595D01*
X155775000Y-130192261D02*
X155679761Y-130239880D01*
X155489285Y-130239880D01*
X155394047Y-130192261D01*
X155346428Y-130144642D01*
X155298809Y-130049404D01*
X155298809Y-129763690D01*
X155346428Y-129668452D01*
X155394047Y-129620833D01*
X155489285Y-129573214D01*
X155679761Y-129573214D01*
X155775000Y-129620833D01*
X156632142Y-130192261D02*
X156536904Y-130239880D01*
X156346428Y-130239880D01*
X156251190Y-130192261D01*
X156203571Y-130097023D01*
X156203571Y-129716071D01*
X156251190Y-129620833D01*
X156346428Y-129573214D01*
X156536904Y-129573214D01*
X156632142Y-129620833D01*
X156679761Y-129716071D01*
X156679761Y-129811309D01*
X156203571Y-129906547D01*
X149832142Y-137316071D02*
X149975000Y-137363690D01*
X150022619Y-137411309D01*
X150070238Y-137506547D01*
X150070238Y-137649404D01*
X150022619Y-137744642D01*
X149975000Y-137792261D01*
X149879761Y-137839880D01*
X149498809Y-137839880D01*
X149498809Y-136839880D01*
X149832142Y-136839880D01*
X149927380Y-136887500D01*
X149975000Y-136935119D01*
X150022619Y-137030357D01*
X150022619Y-137125595D01*
X149975000Y-137220833D01*
X149927380Y-137268452D01*
X149832142Y-137316071D01*
X149498809Y-137316071D01*
X150451190Y-137554166D02*
X150927380Y-137554166D01*
X150355952Y-137839880D02*
X150689285Y-136839880D01*
X151022619Y-137839880D01*
X151213095Y-136839880D02*
X151784523Y-136839880D01*
X151498809Y-137839880D02*
X151498809Y-136839880D01*
X151975000Y-136839880D02*
X152546428Y-136839880D01*
X152260714Y-137839880D02*
X152260714Y-136839880D01*
X153594047Y-136792261D02*
X152736904Y-138077976D01*
X153927380Y-136839880D02*
X153927380Y-137649404D01*
X153975000Y-137744642D01*
X154022619Y-137792261D01*
X154117857Y-137839880D01*
X154308333Y-137839880D01*
X154403571Y-137792261D01*
X154451190Y-137744642D01*
X154498809Y-137649404D01*
X154498809Y-136839880D01*
X154927380Y-137792261D02*
X155070238Y-137839880D01*
X155308333Y-137839880D01*
X155403571Y-137792261D01*
X155451190Y-137744642D01*
X155498809Y-137649404D01*
X155498809Y-137554166D01*
X155451190Y-137458928D01*
X155403571Y-137411309D01*
X155308333Y-137363690D01*
X155117857Y-137316071D01*
X155022619Y-137268452D01*
X154975000Y-137220833D01*
X154927380Y-137125595D01*
X154927380Y-137030357D01*
X154975000Y-136935119D01*
X155022619Y-136887500D01*
X155117857Y-136839880D01*
X155355952Y-136839880D01*
X155498809Y-136887500D01*
X156260714Y-137316071D02*
X156403571Y-137363690D01*
X156451190Y-137411309D01*
X156498809Y-137506547D01*
X156498809Y-137649404D01*
X156451190Y-137744642D01*
X156403571Y-137792261D01*
X156308333Y-137839880D01*
X155927380Y-137839880D01*
X155927380Y-136839880D01*
X156260714Y-136839880D01*
X156355952Y-136887500D01*
X156403571Y-136935119D01*
X156451190Y-137030357D01*
X156451190Y-137125595D01*
X156403571Y-137220833D01*
X156355952Y-137268452D01*
X156260714Y-137316071D01*
X155927380Y-137316071D01*
X167047023Y-87894642D02*
X166999404Y-87942261D01*
X166856547Y-87989880D01*
X166761309Y-87989880D01*
X166618452Y-87942261D01*
X166523214Y-87847023D01*
X166475595Y-87751785D01*
X166427976Y-87561309D01*
X166427976Y-87418452D01*
X166475595Y-87227976D01*
X166523214Y-87132738D01*
X166618452Y-87037500D01*
X166761309Y-86989880D01*
X166856547Y-86989880D01*
X166999404Y-87037500D01*
X167047023Y-87085119D01*
X167618452Y-87989880D02*
X167523214Y-87942261D01*
X167475595Y-87894642D01*
X167427976Y-87799404D01*
X167427976Y-87513690D01*
X167475595Y-87418452D01*
X167523214Y-87370833D01*
X167618452Y-87323214D01*
X167761309Y-87323214D01*
X167856547Y-87370833D01*
X167904166Y-87418452D01*
X167951785Y-87513690D01*
X167951785Y-87799404D01*
X167904166Y-87894642D01*
X167856547Y-87942261D01*
X167761309Y-87989880D01*
X167618452Y-87989880D01*
X168380357Y-87323214D02*
X168380357Y-87989880D01*
X168380357Y-87418452D02*
X168427976Y-87370833D01*
X168523214Y-87323214D01*
X168666071Y-87323214D01*
X168761309Y-87370833D01*
X168808928Y-87466071D01*
X168808928Y-87989880D01*
X169285119Y-87323214D02*
X169285119Y-87989880D01*
X169285119Y-87418452D02*
X169332738Y-87370833D01*
X169427976Y-87323214D01*
X169570833Y-87323214D01*
X169666071Y-87370833D01*
X169713690Y-87466071D01*
X169713690Y-87989880D01*
X170570833Y-87942261D02*
X170475595Y-87989880D01*
X170285119Y-87989880D01*
X170189880Y-87942261D01*
X170142261Y-87847023D01*
X170142261Y-87466071D01*
X170189880Y-87370833D01*
X170285119Y-87323214D01*
X170475595Y-87323214D01*
X170570833Y-87370833D01*
X170618452Y-87466071D01*
X170618452Y-87561309D01*
X170142261Y-87656547D01*
X171475595Y-87942261D02*
X171380357Y-87989880D01*
X171189880Y-87989880D01*
X171094642Y-87942261D01*
X171047023Y-87894642D01*
X170999404Y-87799404D01*
X170999404Y-87513690D01*
X171047023Y-87418452D01*
X171094642Y-87370833D01*
X171189880Y-87323214D01*
X171380357Y-87323214D01*
X171475595Y-87370833D01*
X171761309Y-87323214D02*
X172142261Y-87323214D01*
X171904166Y-86989880D02*
X171904166Y-87847023D01*
X171951785Y-87942261D01*
X172047023Y-87989880D01*
X172142261Y-87989880D01*
%TO.C,R5*%
X132752380Y-120366666D02*
X132276190Y-120700000D01*
X132752380Y-120938095D02*
X131752380Y-120938095D01*
X131752380Y-120557142D01*
X131800000Y-120461904D01*
X131847619Y-120414285D01*
X131942857Y-120366666D01*
X132085714Y-120366666D01*
X132180952Y-120414285D01*
X132228571Y-120461904D01*
X132276190Y-120557142D01*
X132276190Y-120938095D01*
X131752380Y-119461904D02*
X131752380Y-119938095D01*
X132228571Y-119985714D01*
X132180952Y-119938095D01*
X132133333Y-119842857D01*
X132133333Y-119604761D01*
X132180952Y-119509523D01*
X132228571Y-119461904D01*
X132323809Y-119414285D01*
X132561904Y-119414285D01*
X132657142Y-119461904D01*
X132704761Y-119509523D01*
X132752380Y-119604761D01*
X132752380Y-119842857D01*
X132704761Y-119938095D01*
X132657142Y-119985714D01*
%TO.C,C8*%
X117733333Y-112757142D02*
X117685714Y-112804761D01*
X117542857Y-112852380D01*
X117447619Y-112852380D01*
X117304761Y-112804761D01*
X117209523Y-112709523D01*
X117161904Y-112614285D01*
X117114285Y-112423809D01*
X117114285Y-112280952D01*
X117161904Y-112090476D01*
X117209523Y-111995238D01*
X117304761Y-111900000D01*
X117447619Y-111852380D01*
X117542857Y-111852380D01*
X117685714Y-111900000D01*
X117733333Y-111947619D01*
X118304761Y-112280952D02*
X118209523Y-112233333D01*
X118161904Y-112185714D01*
X118114285Y-112090476D01*
X118114285Y-112042857D01*
X118161904Y-111947619D01*
X118209523Y-111900000D01*
X118304761Y-111852380D01*
X118495238Y-111852380D01*
X118590476Y-111900000D01*
X118638095Y-111947619D01*
X118685714Y-112042857D01*
X118685714Y-112090476D01*
X118638095Y-112185714D01*
X118590476Y-112233333D01*
X118495238Y-112280952D01*
X118304761Y-112280952D01*
X118209523Y-112328571D01*
X118161904Y-112376190D01*
X118114285Y-112471428D01*
X118114285Y-112661904D01*
X118161904Y-112757142D01*
X118209523Y-112804761D01*
X118304761Y-112852380D01*
X118495238Y-112852380D01*
X118590476Y-112804761D01*
X118638095Y-112757142D01*
X118685714Y-112661904D01*
X118685714Y-112471428D01*
X118638095Y-112376190D01*
X118590476Y-112328571D01*
X118495238Y-112280952D01*
%TO.C,Y1*%
X123423809Y-116576190D02*
X123423809Y-117052380D01*
X123090476Y-116052380D02*
X123423809Y-116576190D01*
X123757142Y-116052380D01*
X124614285Y-117052380D02*
X124042857Y-117052380D01*
X124328571Y-117052380D02*
X124328571Y-116052380D01*
X124233333Y-116195238D01*
X124138095Y-116290476D01*
X124042857Y-116338095D01*
%TO.C,C5*%
X128333333Y-117057142D02*
X128285714Y-117104761D01*
X128142857Y-117152380D01*
X128047619Y-117152380D01*
X127904761Y-117104761D01*
X127809523Y-117009523D01*
X127761904Y-116914285D01*
X127714285Y-116723809D01*
X127714285Y-116580952D01*
X127761904Y-116390476D01*
X127809523Y-116295238D01*
X127904761Y-116200000D01*
X128047619Y-116152380D01*
X128142857Y-116152380D01*
X128285714Y-116200000D01*
X128333333Y-116247619D01*
X129238095Y-116152380D02*
X128761904Y-116152380D01*
X128714285Y-116628571D01*
X128761904Y-116580952D01*
X128857142Y-116533333D01*
X129095238Y-116533333D01*
X129190476Y-116580952D01*
X129238095Y-116628571D01*
X129285714Y-116723809D01*
X129285714Y-116961904D01*
X129238095Y-117057142D01*
X129190476Y-117104761D01*
X129095238Y-117152380D01*
X128857142Y-117152380D01*
X128761904Y-117104761D01*
X128714285Y-117057142D01*
%TO.C,U3*%
X144302380Y-121561904D02*
X145111904Y-121561904D01*
X145207142Y-121514285D01*
X145254761Y-121466666D01*
X145302380Y-121371428D01*
X145302380Y-121180952D01*
X145254761Y-121085714D01*
X145207142Y-121038095D01*
X145111904Y-120990476D01*
X144302380Y-120990476D01*
X144302380Y-120609523D02*
X144302380Y-119990476D01*
X144683333Y-120323809D01*
X144683333Y-120180952D01*
X144730952Y-120085714D01*
X144778571Y-120038095D01*
X144873809Y-119990476D01*
X145111904Y-119990476D01*
X145207142Y-120038095D01*
X145254761Y-120085714D01*
X145302380Y-120180952D01*
X145302380Y-120466666D01*
X145254761Y-120561904D01*
X145207142Y-120609523D01*
%TO.C,J3*%
X178551190Y-104439880D02*
X178551190Y-103439880D01*
X179217857Y-103439880D02*
X179408333Y-103439880D01*
X179503571Y-103487500D01*
X179598809Y-103582738D01*
X179646428Y-103773214D01*
X179646428Y-104106547D01*
X179598809Y-104297023D01*
X179503571Y-104392261D01*
X179408333Y-104439880D01*
X179217857Y-104439880D01*
X179122619Y-104392261D01*
X179027380Y-104297023D01*
X178979761Y-104106547D01*
X178979761Y-103773214D01*
X179027380Y-103582738D01*
X179122619Y-103487500D01*
X179217857Y-103439880D01*
X179079761Y-101844642D02*
X179032142Y-101892261D01*
X178889285Y-101939880D01*
X178794047Y-101939880D01*
X178651190Y-101892261D01*
X178555952Y-101797023D01*
X178508333Y-101701785D01*
X178460714Y-101511309D01*
X178460714Y-101368452D01*
X178508333Y-101177976D01*
X178555952Y-101082738D01*
X178651190Y-100987500D01*
X178794047Y-100939880D01*
X178889285Y-100939880D01*
X179032142Y-100987500D01*
X179079761Y-101035119D01*
X179984523Y-101939880D02*
X179508333Y-101939880D01*
X179508333Y-100939880D01*
X180317857Y-101939880D02*
X180317857Y-100939880D01*
X180889285Y-101939880D02*
X180460714Y-101368452D01*
X180889285Y-100939880D02*
X180317857Y-101511309D01*
X178698809Y-108539880D02*
X179317857Y-108539880D01*
X178984523Y-108920833D01*
X179127380Y-108920833D01*
X179222619Y-108968452D01*
X179270238Y-109016071D01*
X179317857Y-109111309D01*
X179317857Y-109349404D01*
X179270238Y-109444642D01*
X179222619Y-109492261D01*
X179127380Y-109539880D01*
X178841666Y-109539880D01*
X178746428Y-109492261D01*
X178698809Y-109444642D01*
X179746428Y-109444642D02*
X179794047Y-109492261D01*
X179746428Y-109539880D01*
X179698809Y-109492261D01*
X179746428Y-109444642D01*
X179746428Y-109539880D01*
X180127380Y-108539880D02*
X180746428Y-108539880D01*
X180413095Y-108920833D01*
X180555952Y-108920833D01*
X180651190Y-108968452D01*
X180698809Y-109016071D01*
X180746428Y-109111309D01*
X180746428Y-109349404D01*
X180698809Y-109444642D01*
X180651190Y-109492261D01*
X180555952Y-109539880D01*
X180270238Y-109539880D01*
X180175000Y-109492261D01*
X180127380Y-109444642D01*
X181032142Y-108539880D02*
X181365476Y-109539880D01*
X181698809Y-108539880D01*
X179113095Y-106087500D02*
X179017857Y-106039880D01*
X178875000Y-106039880D01*
X178732142Y-106087500D01*
X178636904Y-106182738D01*
X178589285Y-106277976D01*
X178541666Y-106468452D01*
X178541666Y-106611309D01*
X178589285Y-106801785D01*
X178636904Y-106897023D01*
X178732142Y-106992261D01*
X178875000Y-107039880D01*
X178970238Y-107039880D01*
X179113095Y-106992261D01*
X179160714Y-106944642D01*
X179160714Y-106611309D01*
X178970238Y-106611309D01*
X179589285Y-107039880D02*
X179589285Y-106039880D01*
X180160714Y-107039880D01*
X180160714Y-106039880D01*
X180636904Y-107039880D02*
X180636904Y-106039880D01*
X180875000Y-106039880D01*
X181017857Y-106087500D01*
X181113095Y-106182738D01*
X181160714Y-106277976D01*
X181208333Y-106468452D01*
X181208333Y-106611309D01*
X181160714Y-106801785D01*
X181113095Y-106897023D01*
X181017857Y-106992261D01*
X180875000Y-107039880D01*
X180636904Y-107039880D01*
%TO.C,R3*%
X140402380Y-129116666D02*
X139926190Y-129450000D01*
X140402380Y-129688095D02*
X139402380Y-129688095D01*
X139402380Y-129307142D01*
X139450000Y-129211904D01*
X139497619Y-129164285D01*
X139592857Y-129116666D01*
X139735714Y-129116666D01*
X139830952Y-129164285D01*
X139878571Y-129211904D01*
X139926190Y-129307142D01*
X139926190Y-129688095D01*
X139402380Y-128783333D02*
X139402380Y-128164285D01*
X139783333Y-128497619D01*
X139783333Y-128354761D01*
X139830952Y-128259523D01*
X139878571Y-128211904D01*
X139973809Y-128164285D01*
X140211904Y-128164285D01*
X140307142Y-128211904D01*
X140354761Y-128259523D01*
X140402380Y-128354761D01*
X140402380Y-128640476D01*
X140354761Y-128735714D01*
X140307142Y-128783333D01*
%TO.C,C7*%
X135452083Y-110738392D02*
X135404464Y-110786011D01*
X135261607Y-110833630D01*
X135166369Y-110833630D01*
X135023511Y-110786011D01*
X134928273Y-110690773D01*
X134880654Y-110595535D01*
X134833035Y-110405059D01*
X134833035Y-110262202D01*
X134880654Y-110071726D01*
X134928273Y-109976488D01*
X135023511Y-109881250D01*
X135166369Y-109833630D01*
X135261607Y-109833630D01*
X135404464Y-109881250D01*
X135452083Y-109928869D01*
X135785416Y-109833630D02*
X136452083Y-109833630D01*
X136023511Y-110833630D01*
%TO.C,C17*%
X142182142Y-120342857D02*
X142229761Y-120390476D01*
X142277380Y-120533333D01*
X142277380Y-120628571D01*
X142229761Y-120771428D01*
X142134523Y-120866666D01*
X142039285Y-120914285D01*
X141848809Y-120961904D01*
X141705952Y-120961904D01*
X141515476Y-120914285D01*
X141420238Y-120866666D01*
X141325000Y-120771428D01*
X141277380Y-120628571D01*
X141277380Y-120533333D01*
X141325000Y-120390476D01*
X141372619Y-120342857D01*
X142277380Y-119390476D02*
X142277380Y-119961904D01*
X142277380Y-119676190D02*
X141277380Y-119676190D01*
X141420238Y-119771428D01*
X141515476Y-119866666D01*
X141563095Y-119961904D01*
X141277380Y-119057142D02*
X141277380Y-118390476D01*
X142277380Y-118819047D01*
%TO.C,R4*%
X134512380Y-120366666D02*
X134036190Y-120700000D01*
X134512380Y-120938095D02*
X133512380Y-120938095D01*
X133512380Y-120557142D01*
X133560000Y-120461904D01*
X133607619Y-120414285D01*
X133702857Y-120366666D01*
X133845714Y-120366666D01*
X133940952Y-120414285D01*
X133988571Y-120461904D01*
X134036190Y-120557142D01*
X134036190Y-120938095D01*
X133845714Y-119509523D02*
X134512380Y-119509523D01*
X133464761Y-119747619D02*
X134179047Y-119985714D01*
X134179047Y-119366666D01*
%TO.C,C13*%
X126157142Y-95742857D02*
X126204761Y-95790476D01*
X126252380Y-95933333D01*
X126252380Y-96028571D01*
X126204761Y-96171428D01*
X126109523Y-96266666D01*
X126014285Y-96314285D01*
X125823809Y-96361904D01*
X125680952Y-96361904D01*
X125490476Y-96314285D01*
X125395238Y-96266666D01*
X125300000Y-96171428D01*
X125252380Y-96028571D01*
X125252380Y-95933333D01*
X125300000Y-95790476D01*
X125347619Y-95742857D01*
X126252380Y-94790476D02*
X126252380Y-95361904D01*
X126252380Y-95076190D02*
X125252380Y-95076190D01*
X125395238Y-95171428D01*
X125490476Y-95266666D01*
X125538095Y-95361904D01*
X125252380Y-94457142D02*
X125252380Y-93838095D01*
X125633333Y-94171428D01*
X125633333Y-94028571D01*
X125680952Y-93933333D01*
X125728571Y-93885714D01*
X125823809Y-93838095D01*
X126061904Y-93838095D01*
X126157142Y-93885714D01*
X126204761Y-93933333D01*
X126252380Y-94028571D01*
X126252380Y-94314285D01*
X126204761Y-94409523D01*
X126157142Y-94457142D01*
%TO.C,C6*%
X134933333Y-106057142D02*
X134885714Y-106104761D01*
X134742857Y-106152380D01*
X134647619Y-106152380D01*
X134504761Y-106104761D01*
X134409523Y-106009523D01*
X134361904Y-105914285D01*
X134314285Y-105723809D01*
X134314285Y-105580952D01*
X134361904Y-105390476D01*
X134409523Y-105295238D01*
X134504761Y-105200000D01*
X134647619Y-105152380D01*
X134742857Y-105152380D01*
X134885714Y-105200000D01*
X134933333Y-105247619D01*
X135790476Y-105152380D02*
X135600000Y-105152380D01*
X135504761Y-105200000D01*
X135457142Y-105247619D01*
X135361904Y-105390476D01*
X135314285Y-105580952D01*
X135314285Y-105961904D01*
X135361904Y-106057142D01*
X135409523Y-106104761D01*
X135504761Y-106152380D01*
X135695238Y-106152380D01*
X135790476Y-106104761D01*
X135838095Y-106057142D01*
X135885714Y-105961904D01*
X135885714Y-105723809D01*
X135838095Y-105628571D01*
X135790476Y-105580952D01*
X135695238Y-105533333D01*
X135504761Y-105533333D01*
X135409523Y-105580952D01*
X135361904Y-105628571D01*
X135314285Y-105723809D01*
%TO.C,R6*%
X142252380Y-129154166D02*
X141776190Y-129487500D01*
X142252380Y-129725595D02*
X141252380Y-129725595D01*
X141252380Y-129344642D01*
X141300000Y-129249404D01*
X141347619Y-129201785D01*
X141442857Y-129154166D01*
X141585714Y-129154166D01*
X141680952Y-129201785D01*
X141728571Y-129249404D01*
X141776190Y-129344642D01*
X141776190Y-129725595D01*
X141252380Y-128297023D02*
X141252380Y-128487500D01*
X141300000Y-128582738D01*
X141347619Y-128630357D01*
X141490476Y-128725595D01*
X141680952Y-128773214D01*
X142061904Y-128773214D01*
X142157142Y-128725595D01*
X142204761Y-128677976D01*
X142252380Y-128582738D01*
X142252380Y-128392261D01*
X142204761Y-128297023D01*
X142157142Y-128249404D01*
X142061904Y-128201785D01*
X141823809Y-128201785D01*
X141728571Y-128249404D01*
X141680952Y-128297023D01*
X141633333Y-128392261D01*
X141633333Y-128582738D01*
X141680952Y-128677976D01*
X141728571Y-128725595D01*
X141823809Y-128773214D01*
%TO.C,C12*%
X131157142Y-95842857D02*
X131204761Y-95890476D01*
X131252380Y-96033333D01*
X131252380Y-96128571D01*
X131204761Y-96271428D01*
X131109523Y-96366666D01*
X131014285Y-96414285D01*
X130823809Y-96461904D01*
X130680952Y-96461904D01*
X130490476Y-96414285D01*
X130395238Y-96366666D01*
X130300000Y-96271428D01*
X130252380Y-96128571D01*
X130252380Y-96033333D01*
X130300000Y-95890476D01*
X130347619Y-95842857D01*
X131252380Y-94890476D02*
X131252380Y-95461904D01*
X131252380Y-95176190D02*
X130252380Y-95176190D01*
X130395238Y-95271428D01*
X130490476Y-95366666D01*
X130538095Y-95461904D01*
X130347619Y-94509523D02*
X130300000Y-94461904D01*
X130252380Y-94366666D01*
X130252380Y-94128571D01*
X130300000Y-94033333D01*
X130347619Y-93985714D01*
X130442857Y-93938095D01*
X130538095Y-93938095D01*
X130680952Y-93985714D01*
X131252380Y-94557142D01*
X131252380Y-93938095D01*
%TO.C,C10*%
X146457142Y-100042857D02*
X146504761Y-100090476D01*
X146552380Y-100233333D01*
X146552380Y-100328571D01*
X146504761Y-100471428D01*
X146409523Y-100566666D01*
X146314285Y-100614285D01*
X146123809Y-100661904D01*
X145980952Y-100661904D01*
X145790476Y-100614285D01*
X145695238Y-100566666D01*
X145600000Y-100471428D01*
X145552380Y-100328571D01*
X145552380Y-100233333D01*
X145600000Y-100090476D01*
X145647619Y-100042857D01*
X146552380Y-99090476D02*
X146552380Y-99661904D01*
X146552380Y-99376190D02*
X145552380Y-99376190D01*
X145695238Y-99471428D01*
X145790476Y-99566666D01*
X145838095Y-99661904D01*
X145552380Y-98471428D02*
X145552380Y-98376190D01*
X145600000Y-98280952D01*
X145647619Y-98233333D01*
X145742857Y-98185714D01*
X145933333Y-98138095D01*
X146171428Y-98138095D01*
X146361904Y-98185714D01*
X146457142Y-98233333D01*
X146504761Y-98280952D01*
X146552380Y-98376190D01*
X146552380Y-98471428D01*
X146504761Y-98566666D01*
X146457142Y-98614285D01*
X146361904Y-98661904D01*
X146171428Y-98709523D01*
X145933333Y-98709523D01*
X145742857Y-98661904D01*
X145647619Y-98614285D01*
X145600000Y-98566666D01*
X145552380Y-98471428D01*
%TO.C,U1*%
X130572380Y-109261904D02*
X131381904Y-109261904D01*
X131477142Y-109214285D01*
X131524761Y-109166666D01*
X131572380Y-109071428D01*
X131572380Y-108880952D01*
X131524761Y-108785714D01*
X131477142Y-108738095D01*
X131381904Y-108690476D01*
X130572380Y-108690476D01*
X131572380Y-107690476D02*
X131572380Y-108261904D01*
X131572380Y-107976190D02*
X130572380Y-107976190D01*
X130715238Y-108071428D01*
X130810476Y-108166666D01*
X130858095Y-108261904D01*
%TO.C,C19*%
X134357142Y-130042857D02*
X134404761Y-130090476D01*
X134452380Y-130233333D01*
X134452380Y-130328571D01*
X134404761Y-130471428D01*
X134309523Y-130566666D01*
X134214285Y-130614285D01*
X134023809Y-130661904D01*
X133880952Y-130661904D01*
X133690476Y-130614285D01*
X133595238Y-130566666D01*
X133500000Y-130471428D01*
X133452380Y-130328571D01*
X133452380Y-130233333D01*
X133500000Y-130090476D01*
X133547619Y-130042857D01*
X134452380Y-129090476D02*
X134452380Y-129661904D01*
X134452380Y-129376190D02*
X133452380Y-129376190D01*
X133595238Y-129471428D01*
X133690476Y-129566666D01*
X133738095Y-129661904D01*
X134452380Y-128614285D02*
X134452380Y-128423809D01*
X134404761Y-128328571D01*
X134357142Y-128280952D01*
X134214285Y-128185714D01*
X134023809Y-128138095D01*
X133642857Y-128138095D01*
X133547619Y-128185714D01*
X133500000Y-128233333D01*
X133452380Y-128328571D01*
X133452380Y-128519047D01*
X133500000Y-128614285D01*
X133547619Y-128661904D01*
X133642857Y-128709523D01*
X133880952Y-128709523D01*
X133976190Y-128661904D01*
X134023809Y-128614285D01*
X134071428Y-128519047D01*
X134071428Y-128328571D01*
X134023809Y-128233333D01*
X133976190Y-128185714D01*
X133880952Y-128138095D01*
%TO.C,C20*%
X132457142Y-130042857D02*
X132504761Y-130090476D01*
X132552380Y-130233333D01*
X132552380Y-130328571D01*
X132504761Y-130471428D01*
X132409523Y-130566666D01*
X132314285Y-130614285D01*
X132123809Y-130661904D01*
X131980952Y-130661904D01*
X131790476Y-130614285D01*
X131695238Y-130566666D01*
X131600000Y-130471428D01*
X131552380Y-130328571D01*
X131552380Y-130233333D01*
X131600000Y-130090476D01*
X131647619Y-130042857D01*
X131647619Y-129661904D02*
X131600000Y-129614285D01*
X131552380Y-129519047D01*
X131552380Y-129280952D01*
X131600000Y-129185714D01*
X131647619Y-129138095D01*
X131742857Y-129090476D01*
X131838095Y-129090476D01*
X131980952Y-129138095D01*
X132552380Y-129709523D01*
X132552380Y-129090476D01*
X131552380Y-128471428D02*
X131552380Y-128376190D01*
X131600000Y-128280952D01*
X131647619Y-128233333D01*
X131742857Y-128185714D01*
X131933333Y-128138095D01*
X132171428Y-128138095D01*
X132361904Y-128185714D01*
X132457142Y-128233333D01*
X132504761Y-128280952D01*
X132552380Y-128376190D01*
X132552380Y-128471428D01*
X132504761Y-128566666D01*
X132457142Y-128614285D01*
X132361904Y-128661904D01*
X132171428Y-128709523D01*
X131933333Y-128709523D01*
X131742857Y-128661904D01*
X131647619Y-128614285D01*
X131600000Y-128566666D01*
X131552380Y-128471428D01*
%TO.C,D2*%
X136136904Y-130539880D02*
X136136904Y-129539880D01*
X136375000Y-129539880D01*
X136517857Y-129587500D01*
X136613095Y-129682738D01*
X136660714Y-129777976D01*
X136708333Y-129968452D01*
X136708333Y-130111309D01*
X136660714Y-130301785D01*
X136613095Y-130397023D01*
X136517857Y-130492261D01*
X136375000Y-130539880D01*
X136136904Y-130539880D01*
X137089285Y-129635119D02*
X137136904Y-129587500D01*
X137232142Y-129539880D01*
X137470238Y-129539880D01*
X137565476Y-129587500D01*
X137613095Y-129635119D01*
X137660714Y-129730357D01*
X137660714Y-129825595D01*
X137613095Y-129968452D01*
X137041666Y-130539880D01*
X137660714Y-130539880D01*
%TO.C,R7*%
X130852380Y-120366666D02*
X130376190Y-120700000D01*
X130852380Y-120938095D02*
X129852380Y-120938095D01*
X129852380Y-120557142D01*
X129900000Y-120461904D01*
X129947619Y-120414285D01*
X130042857Y-120366666D01*
X130185714Y-120366666D01*
X130280952Y-120414285D01*
X130328571Y-120461904D01*
X130376190Y-120557142D01*
X130376190Y-120938095D01*
X129852380Y-120033333D02*
X129852380Y-119366666D01*
X130852380Y-119795238D01*
%TO.C,R2*%
X133471130Y-99947916D02*
X132994940Y-100281250D01*
X133471130Y-100519345D02*
X132471130Y-100519345D01*
X132471130Y-100138392D01*
X132518750Y-100043154D01*
X132566369Y-99995535D01*
X132661607Y-99947916D01*
X132804464Y-99947916D01*
X132899702Y-99995535D01*
X132947321Y-100043154D01*
X132994940Y-100138392D01*
X132994940Y-100519345D01*
X132566369Y-99566964D02*
X132518750Y-99519345D01*
X132471130Y-99424107D01*
X132471130Y-99186011D01*
X132518750Y-99090773D01*
X132566369Y-99043154D01*
X132661607Y-98995535D01*
X132756845Y-98995535D01*
X132899702Y-99043154D01*
X133471130Y-99614583D01*
X133471130Y-98995535D01*
%TO.C,C22*%
X130732142Y-130030357D02*
X130779761Y-130077976D01*
X130827380Y-130220833D01*
X130827380Y-130316071D01*
X130779761Y-130458928D01*
X130684523Y-130554166D01*
X130589285Y-130601785D01*
X130398809Y-130649404D01*
X130255952Y-130649404D01*
X130065476Y-130601785D01*
X129970238Y-130554166D01*
X129875000Y-130458928D01*
X129827380Y-130316071D01*
X129827380Y-130220833D01*
X129875000Y-130077976D01*
X129922619Y-130030357D01*
X129922619Y-129649404D02*
X129875000Y-129601785D01*
X129827380Y-129506547D01*
X129827380Y-129268452D01*
X129875000Y-129173214D01*
X129922619Y-129125595D01*
X130017857Y-129077976D01*
X130113095Y-129077976D01*
X130255952Y-129125595D01*
X130827380Y-129697023D01*
X130827380Y-129077976D01*
X129922619Y-128697023D02*
X129875000Y-128649404D01*
X129827380Y-128554166D01*
X129827380Y-128316071D01*
X129875000Y-128220833D01*
X129922619Y-128173214D01*
X130017857Y-128125595D01*
X130113095Y-128125595D01*
X130255952Y-128173214D01*
X130827380Y-128744642D01*
X130827380Y-128125595D01*
%TO.C,U4*%
X126602380Y-121411904D02*
X127411904Y-121411904D01*
X127507142Y-121364285D01*
X127554761Y-121316666D01*
X127602380Y-121221428D01*
X127602380Y-121030952D01*
X127554761Y-120935714D01*
X127507142Y-120888095D01*
X127411904Y-120840476D01*
X126602380Y-120840476D01*
X126935714Y-119935714D02*
X127602380Y-119935714D01*
X126554761Y-120173809D02*
X127269047Y-120411904D01*
X127269047Y-119792857D01*
%TO.C,Q1*%
X137547619Y-120845238D02*
X137500000Y-120940476D01*
X137404761Y-121035714D01*
X137261904Y-121178571D01*
X137214285Y-121273809D01*
X137214285Y-121369047D01*
X137452380Y-121321428D02*
X137404761Y-121416666D01*
X137309523Y-121511904D01*
X137119047Y-121559523D01*
X136785714Y-121559523D01*
X136595238Y-121511904D01*
X136500000Y-121416666D01*
X136452380Y-121321428D01*
X136452380Y-121130952D01*
X136500000Y-121035714D01*
X136595238Y-120940476D01*
X136785714Y-120892857D01*
X137119047Y-120892857D01*
X137309523Y-120940476D01*
X137404761Y-121035714D01*
X137452380Y-121130952D01*
X137452380Y-121321428D01*
X137452380Y-119940476D02*
X137452380Y-120511904D01*
X137452380Y-120226190D02*
X136452380Y-120226190D01*
X136595238Y-120321428D01*
X136690476Y-120416666D01*
X136738095Y-120511904D01*
%TO.C,C18*%
X140157142Y-120342857D02*
X140204761Y-120390476D01*
X140252380Y-120533333D01*
X140252380Y-120628571D01*
X140204761Y-120771428D01*
X140109523Y-120866666D01*
X140014285Y-120914285D01*
X139823809Y-120961904D01*
X139680952Y-120961904D01*
X139490476Y-120914285D01*
X139395238Y-120866666D01*
X139300000Y-120771428D01*
X139252380Y-120628571D01*
X139252380Y-120533333D01*
X139300000Y-120390476D01*
X139347619Y-120342857D01*
X140252380Y-119390476D02*
X140252380Y-119961904D01*
X140252380Y-119676190D02*
X139252380Y-119676190D01*
X139395238Y-119771428D01*
X139490476Y-119866666D01*
X139538095Y-119961904D01*
X139680952Y-118819047D02*
X139633333Y-118914285D01*
X139585714Y-118961904D01*
X139490476Y-119009523D01*
X139442857Y-119009523D01*
X139347619Y-118961904D01*
X139300000Y-118914285D01*
X139252380Y-118819047D01*
X139252380Y-118628571D01*
X139300000Y-118533333D01*
X139347619Y-118485714D01*
X139442857Y-118438095D01*
X139490476Y-118438095D01*
X139585714Y-118485714D01*
X139633333Y-118533333D01*
X139680952Y-118628571D01*
X139680952Y-118819047D01*
X139728571Y-118914285D01*
X139776190Y-118961904D01*
X139871428Y-119009523D01*
X140061904Y-119009523D01*
X140157142Y-118961904D01*
X140204761Y-118914285D01*
X140252380Y-118819047D01*
X140252380Y-118628571D01*
X140204761Y-118533333D01*
X140157142Y-118485714D01*
X140061904Y-118438095D01*
X139871428Y-118438095D01*
X139776190Y-118485714D01*
X139728571Y-118533333D01*
X139680952Y-118628571D01*
%TO.C,C11*%
X144657142Y-100042857D02*
X144704761Y-100090476D01*
X144752380Y-100233333D01*
X144752380Y-100328571D01*
X144704761Y-100471428D01*
X144609523Y-100566666D01*
X144514285Y-100614285D01*
X144323809Y-100661904D01*
X144180952Y-100661904D01*
X143990476Y-100614285D01*
X143895238Y-100566666D01*
X143800000Y-100471428D01*
X143752380Y-100328571D01*
X143752380Y-100233333D01*
X143800000Y-100090476D01*
X143847619Y-100042857D01*
X144752380Y-99090476D02*
X144752380Y-99661904D01*
X144752380Y-99376190D02*
X143752380Y-99376190D01*
X143895238Y-99471428D01*
X143990476Y-99566666D01*
X144038095Y-99661904D01*
X144752380Y-98138095D02*
X144752380Y-98709523D01*
X144752380Y-98423809D02*
X143752380Y-98423809D01*
X143895238Y-98519047D01*
X143990476Y-98614285D01*
X144038095Y-98709523D01*
%TO.C,C21*%
X124157142Y-122142857D02*
X124204761Y-122190476D01*
X124252380Y-122333333D01*
X124252380Y-122428571D01*
X124204761Y-122571428D01*
X124109523Y-122666666D01*
X124014285Y-122714285D01*
X123823809Y-122761904D01*
X123680952Y-122761904D01*
X123490476Y-122714285D01*
X123395238Y-122666666D01*
X123300000Y-122571428D01*
X123252380Y-122428571D01*
X123252380Y-122333333D01*
X123300000Y-122190476D01*
X123347619Y-122142857D01*
X123347619Y-121761904D02*
X123300000Y-121714285D01*
X123252380Y-121619047D01*
X123252380Y-121380952D01*
X123300000Y-121285714D01*
X123347619Y-121238095D01*
X123442857Y-121190476D01*
X123538095Y-121190476D01*
X123680952Y-121238095D01*
X124252380Y-121809523D01*
X124252380Y-121190476D01*
X124252380Y-120238095D02*
X124252380Y-120809523D01*
X124252380Y-120523809D02*
X123252380Y-120523809D01*
X123395238Y-120619047D01*
X123490476Y-120714285D01*
X123538095Y-120809523D01*
%TO.C,U2*%
X148552380Y-107861904D02*
X149361904Y-107861904D01*
X149457142Y-107814285D01*
X149504761Y-107766666D01*
X149552380Y-107671428D01*
X149552380Y-107480952D01*
X149504761Y-107385714D01*
X149457142Y-107338095D01*
X149361904Y-107290476D01*
X148552380Y-107290476D01*
X148647619Y-106861904D02*
X148600000Y-106814285D01*
X148552380Y-106719047D01*
X148552380Y-106480952D01*
X148600000Y-106385714D01*
X148647619Y-106338095D01*
X148742857Y-106290476D01*
X148838095Y-106290476D01*
X148980952Y-106338095D01*
X149552380Y-106909523D01*
X149552380Y-106290476D01*
%TO.C,C4*%
X118833333Y-107857142D02*
X118785714Y-107904761D01*
X118642857Y-107952380D01*
X118547619Y-107952380D01*
X118404761Y-107904761D01*
X118309523Y-107809523D01*
X118261904Y-107714285D01*
X118214285Y-107523809D01*
X118214285Y-107380952D01*
X118261904Y-107190476D01*
X118309523Y-107095238D01*
X118404761Y-107000000D01*
X118547619Y-106952380D01*
X118642857Y-106952380D01*
X118785714Y-107000000D01*
X118833333Y-107047619D01*
X119690476Y-107285714D02*
X119690476Y-107952380D01*
X119452380Y-106904761D02*
X119214285Y-107619047D01*
X119833333Y-107619047D01*
%TO.C,C14*%
X148257142Y-100042857D02*
X148304761Y-100090476D01*
X148352380Y-100233333D01*
X148352380Y-100328571D01*
X148304761Y-100471428D01*
X148209523Y-100566666D01*
X148114285Y-100614285D01*
X147923809Y-100661904D01*
X147780952Y-100661904D01*
X147590476Y-100614285D01*
X147495238Y-100566666D01*
X147400000Y-100471428D01*
X147352380Y-100328571D01*
X147352380Y-100233333D01*
X147400000Y-100090476D01*
X147447619Y-100042857D01*
X148352380Y-99090476D02*
X148352380Y-99661904D01*
X148352380Y-99376190D02*
X147352380Y-99376190D01*
X147495238Y-99471428D01*
X147590476Y-99566666D01*
X147638095Y-99661904D01*
X147685714Y-98233333D02*
X148352380Y-98233333D01*
X147304761Y-98471428D02*
X148019047Y-98709523D01*
X148019047Y-98090476D01*
D12*
%TO.C,J2*%
X157430000Y-88017500D02*
X156100000Y-88017500D01*
X154830000Y-85357500D02*
X154830000Y-88017500D01*
X154830000Y-88017500D02*
X131910000Y-88017500D01*
X157430000Y-86687500D02*
X157430000Y-88017500D01*
X131910000Y-85357500D02*
X131910000Y-88017500D01*
X154830000Y-85357500D02*
X131910000Y-85357500D01*
D10*
%TO.C,SW1*%
X172975000Y-111587500D02*
X172975000Y-98787500D01*
X165975000Y-111587500D02*
X172975000Y-111587500D01*
X165975000Y-98787500D02*
X172975000Y-98787500D01*
X165975000Y-111587500D02*
X165975000Y-98787500D01*
D12*
%TO.C,R5*%
X131677500Y-122562742D02*
X131677500Y-123037258D01*
X132722500Y-122562742D02*
X132722500Y-123037258D01*
%TO.C,C8*%
X120540580Y-111890000D02*
X120259420Y-111890000D01*
X120540580Y-112910000D02*
X120259420Y-112910000D01*
%TO.C,D1*%
X168015000Y-83165000D02*
X168015000Y-84635000D01*
X168015000Y-84635000D02*
X170300000Y-84635000D01*
X170300000Y-83165000D02*
X168015000Y-83165000D01*
%TO.C,Y1*%
X123150000Y-115790000D02*
X122360000Y-115790000D01*
X123790000Y-113390000D02*
X124010000Y-113390000D01*
X122360000Y-115000000D02*
X122360000Y-115790000D01*
X123790000Y-115610000D02*
X124010000Y-115610000D01*
%TO.C,C3*%
X129910000Y-102640580D02*
X129910000Y-102359420D01*
X128890000Y-102640580D02*
X128890000Y-102359420D01*
%TO.C,C1*%
X124790000Y-102359420D02*
X124790000Y-102640580D01*
X125810000Y-102359420D02*
X125810000Y-102640580D01*
%TO.C,C5*%
X127990000Y-114259420D02*
X127990000Y-114540580D01*
X129010000Y-114259420D02*
X129010000Y-114540580D01*
%TO.C,U3*%
X146360000Y-124400000D02*
X146360000Y-122600000D01*
X143240000Y-124400000D02*
X143240000Y-125200000D01*
X146360000Y-124400000D02*
X146360000Y-125200000D01*
X143240000Y-124400000D02*
X143240000Y-123600000D01*
D10*
%TO.C,J3*%
X177845000Y-110367500D02*
X177845000Y-100207500D01*
X175305000Y-100207500D02*
X175305000Y-110367500D01*
X177845000Y-100207500D02*
X175305000Y-100207500D01*
X175305000Y-110367500D02*
X177845000Y-110367500D01*
D12*
%TO.C,R3*%
X139377500Y-126537258D02*
X139377500Y-126062742D01*
X140422500Y-126537258D02*
X140422500Y-126062742D01*
%TO.C,J1*%
X174540379Y-128001050D02*
X168388550Y-134152879D01*
X164725737Y-130490066D02*
X170877566Y-124338237D01*
X170877566Y-124338237D02*
X175410121Y-128870792D01*
X169258292Y-135022621D02*
X175410121Y-128870792D01*
X169258292Y-135022621D02*
X164725737Y-130490066D01*
%TO.C,D3*%
X152815000Y-128835000D02*
X155100000Y-128835000D01*
X155100000Y-127365000D02*
X152815000Y-127365000D01*
X152815000Y-127365000D02*
X152815000Y-128835000D01*
%TO.C,C7*%
X132978170Y-110891250D02*
X133259330Y-110891250D01*
X132978170Y-109871250D02*
X133259330Y-109871250D01*
%TO.C,C2*%
X131710000Y-102640580D02*
X131710000Y-102359420D01*
X130690000Y-102640580D02*
X130690000Y-102359420D01*
%TO.C,C15*%
X121140000Y-109377836D02*
X121140000Y-109162164D01*
X121860000Y-109377836D02*
X121860000Y-109162164D01*
%TO.C,C17*%
X142310000Y-122940580D02*
X142310000Y-122659420D01*
X141290000Y-122940580D02*
X141290000Y-122659420D01*
%TO.C,R4*%
X134522500Y-123037258D02*
X134522500Y-122562742D01*
X133477500Y-123037258D02*
X133477500Y-122562742D01*
%TO.C,C13*%
X125290000Y-98159420D02*
X125290000Y-98440580D01*
X126310000Y-98159420D02*
X126310000Y-98440580D01*
%TO.C,C6*%
X132478170Y-106210000D02*
X132759330Y-106210000D01*
X132478170Y-105190000D02*
X132759330Y-105190000D01*
%TO.C,R6*%
X141277500Y-126537258D02*
X141277500Y-126062742D01*
X142322500Y-126537258D02*
X142322500Y-126062742D01*
%TO.C,R1*%
X169737258Y-85277500D02*
X169262742Y-85277500D01*
X169737258Y-86322500D02*
X169262742Y-86322500D01*
%TO.C,C12*%
X130290000Y-98159420D02*
X130290000Y-98440580D01*
X131310000Y-98159420D02*
X131310000Y-98440580D01*
%TO.C,C10*%
X146610000Y-102640580D02*
X146610000Y-102359420D01*
X145590000Y-102640580D02*
X145590000Y-102359420D01*
%TO.C,U1*%
X122690000Y-111635000D02*
X122690000Y-112110000D01*
X129910000Y-105365000D02*
X129910000Y-104890000D01*
X129910000Y-112110000D02*
X129435000Y-112110000D01*
X122690000Y-112110000D02*
X123165000Y-112110000D01*
X122690000Y-105365000D02*
X122690000Y-104890000D01*
X129910000Y-111635000D02*
X129910000Y-112110000D01*
X122690000Y-104890000D02*
X123165000Y-104890000D01*
%TO.C,CONNECT1*%
X166150000Y-95000000D02*
X172850000Y-95000000D01*
X166150000Y-88800000D02*
X166150000Y-89000000D01*
X166150000Y-95000000D02*
X166150000Y-94800000D01*
X172850000Y-88800000D02*
X172850000Y-89000000D01*
X172850000Y-95000000D02*
X172850000Y-94800000D01*
X172850000Y-90700000D02*
X172850000Y-93100000D01*
X166150000Y-90700000D02*
X166150000Y-93100000D01*
X172850000Y-88800000D02*
X166150000Y-88800000D01*
%TO.C,C19*%
X133490000Y-126159420D02*
X133490000Y-126440580D01*
X134510000Y-126159420D02*
X134510000Y-126440580D01*
%TO.C,C20*%
X132710000Y-126159420D02*
X132710000Y-126440580D01*
X131690000Y-126159420D02*
X131690000Y-126440580D01*
%TO.C,D2*%
X133475000Y-130937500D02*
X133475000Y-134237500D01*
X133475000Y-134237500D02*
X138875000Y-134237500D01*
X133475000Y-130937500D02*
X138875000Y-130937500D01*
%TO.C,R7*%
X129777500Y-123037258D02*
X129777500Y-122562742D01*
X130822500Y-123037258D02*
X130822500Y-122562742D01*
%TO.C,R2*%
X132496250Y-102718508D02*
X132496250Y-102243992D01*
X133541250Y-102718508D02*
X133541250Y-102243992D01*
%TO.C,C22*%
X130810000Y-126440580D02*
X130810000Y-126159420D01*
X129790000Y-126440580D02*
X129790000Y-126159420D01*
%TO.C,U4*%
X128660000Y-124500000D02*
X128660000Y-125300000D01*
X128660000Y-124500000D02*
X128660000Y-122700000D01*
X125540000Y-124500000D02*
X125540000Y-125300000D01*
X125540000Y-124500000D02*
X125540000Y-123700000D01*
%TO.C,Q1*%
X135440000Y-124400000D02*
X135440000Y-123750000D01*
X138560000Y-124400000D02*
X138560000Y-125050000D01*
X135440000Y-124400000D02*
X135440000Y-125050000D01*
X138560000Y-124400000D02*
X138560000Y-122725000D01*
%TO.C,C18*%
X139390000Y-122659420D02*
X139390000Y-122940580D01*
X140410000Y-122659420D02*
X140410000Y-122940580D01*
%TO.C,C9*%
X121107836Y-111460000D02*
X120892164Y-111460000D01*
X121107836Y-110740000D02*
X120892164Y-110740000D01*
%TO.C,C11*%
X144810000Y-102640580D02*
X144810000Y-102359420D01*
X143790000Y-102640580D02*
X143790000Y-102359420D01*
%TO.C,RESET1*%
X121822335Y-86811377D02*
X122190031Y-86443682D01*
X124169930Y-79740309D02*
X124551767Y-79358472D01*
X116865517Y-81854559D02*
X119623233Y-84612275D01*
X119828294Y-84081945D02*
X120210132Y-83700107D01*
X126920575Y-80991888D02*
X127281200Y-81352513D01*
X121461711Y-86450753D02*
X121822335Y-86811377D01*
X119828294Y-84081945D02*
X119990929Y-84244580D01*
X116865517Y-81854559D02*
X122324381Y-76395694D01*
X120987949Y-82922290D02*
X123392112Y-80518127D01*
X126913504Y-81720208D02*
X127281200Y-81352513D01*
X126552880Y-81359584D02*
X126913504Y-81720208D01*
X122324381Y-76395694D02*
X125082098Y-79153411D01*
X121829406Y-86083057D02*
X122190031Y-86443682D01*
X124551767Y-79358472D02*
X124714402Y-79521106D01*
%TO.C,C21*%
X123390000Y-124740580D02*
X123390000Y-124459420D01*
X124410000Y-124740580D02*
X124410000Y-124459420D01*
%TO.C,U2*%
X143990000Y-108910000D02*
X143990000Y-108235000D01*
X147535000Y-104690000D02*
X148210000Y-104690000D01*
X148210000Y-108910000D02*
X148210000Y-108235000D01*
X148210000Y-104690000D02*
X148210000Y-105365000D01*
X144665000Y-104690000D02*
X143990000Y-104690000D01*
X147535000Y-108910000D02*
X148210000Y-108910000D01*
X144665000Y-108910000D02*
X143990000Y-108910000D01*
%TO.C,C4*%
X121107836Y-107140000D02*
X120892164Y-107140000D01*
X121107836Y-107860000D02*
X120892164Y-107860000D01*
%TO.C,C16*%
X118140000Y-109347836D02*
X118140000Y-109132164D01*
X118860000Y-109347836D02*
X118860000Y-109132164D01*
%TO.C,C14*%
X148410000Y-102640580D02*
X148410000Y-102359420D01*
X147390000Y-102640580D02*
X147390000Y-102359420D01*
%TO.C,AE1*%
D13*
X113796421Y-106350000D02*
G75*
G03*
X113796421Y-106350000I-171421J0D01*
G01*
D12*
X115225000Y-101500000D02*
X115225000Y-108700000D01*
X112025000Y-108700000D02*
X112025000Y-101500000D01*
X113225000Y-108700000D02*
X112025000Y-108700000D01*
X115225000Y-108700000D02*
X113925000Y-108700000D01*
X112025000Y-101500000D02*
X115225000Y-101500000D01*
%TO.C,Y2*%
X129500000Y-99900000D02*
X129500000Y-98300000D01*
X127100000Y-99900000D02*
X129500000Y-99900000D01*
X129500000Y-98300000D02*
X127100000Y-98300000D01*
%TD*%
M02*
