%TF.GenerationSoftware,KiCad,Pcbnew,(6.0.1)*%
%TF.CreationDate,2022-03-12T16:33:18+00:00*%
%TF.ProjectId,Ball_Remote_Components,42616c6c-5f52-4656-9d6f-74655f436f6d,rev?*%
%TF.SameCoordinates,Original*%
%TF.FileFunction,Copper,L3,Inr*%
%TF.FilePolarity,Positive*%
%FSLAX46Y46*%
G04 Gerber Fmt 4.6, Leading zero omitted, Abs format (unit mm)*
G04 Created by KiCad (PCBNEW (6.0.1)) date 2022-03-12 16:33:18*
%MOMM*%
%LPD*%
G01*
G04 APERTURE LIST*
G04 Aperture macros list*
%AMHorizOval*
0 Thick line with rounded ends*
0 $1 width*
0 $2 $3 position (X,Y) of the first rounded end (center of the circle)*
0 $4 $5 position (X,Y) of the second rounded end (center of the circle)*
0 Add line between two ends*
20,1,$1,$2,$3,$4,$5,0*
0 Add two circle primitives to create the rounded ends*
1,1,$1,$2,$3*
1,1,$1,$4,$5*%
G04 Aperture macros list end*
%TA.AperFunction,ComponentPad*%
%ADD10R,1.700000X1.700000*%
%TD*%
%TA.AperFunction,ComponentPad*%
%ADD11O,1.700000X1.700000*%
%TD*%
%TA.AperFunction,ComponentPad*%
%ADD12R,2.500000X2.000000*%
%TD*%
%TA.AperFunction,ComponentPad*%
%ADD13O,2.500000X2.000000*%
%TD*%
%TA.AperFunction,ComponentPad*%
%ADD14C,2.000000*%
%TD*%
%TA.AperFunction,ComponentPad*%
%ADD15C,1.700000*%
%TD*%
%TA.AperFunction,ComponentPad*%
%ADD16HorizOval,0.950000X0.106066X0.106066X-0.106066X-0.106066X0*%
%TD*%
%TA.AperFunction,ComponentPad*%
%ADD17HorizOval,1.000000X-0.194454X0.194454X0.194454X-0.194454X0*%
%TD*%
%TA.AperFunction,ComponentPad*%
%ADD18C,0.500000*%
%TD*%
%TA.AperFunction,ComponentPad*%
%ADD19C,2.100000*%
%TD*%
%TA.AperFunction,ComponentPad*%
%ADD20C,1.750000*%
%TD*%
%TA.AperFunction,ViaPad*%
%ADD21C,1.000000*%
%TD*%
%TA.AperFunction,ViaPad*%
%ADD22C,0.400000*%
%TD*%
%TA.AperFunction,ViaPad*%
%ADD23C,0.800000*%
%TD*%
G04 APERTURE END LIST*
D10*
%TO.N,+2V8*%
%TO.C,J2*%
X156100000Y-86687500D03*
D11*
%TO.N,GND*%
X153560000Y-86687500D03*
%TO.N,/I2C_CLK*%
X151020000Y-86687500D03*
%TO.N,/12C_SDA*%
X148480000Y-86687500D03*
%TO.N,/G_INT*%
X145940000Y-86687500D03*
%TO.N,/G_RDY*%
X143400000Y-86687500D03*
%TO.N,unconnected-(J2-Pad7)*%
X140860000Y-86687500D03*
%TO.N,unconnected-(J2-Pad8)*%
X138320000Y-86687500D03*
%TO.N,unconnected-(J2-Pad9)*%
X135780000Y-86687500D03*
%TO.N,unconnected-(J2-Pad10)*%
X133240000Y-86687500D03*
%TD*%
D12*
%TO.N,/BATT_ON_OFF*%
%TO.C,SW1*%
X169475000Y-109887500D03*
D13*
%TO.N,/BATT+*%
X169475000Y-105187500D03*
%TO.N,unconnected-(SW1-Pad3)*%
X169475000Y-100487500D03*
%TD*%
D10*
%TO.N,/BATT+*%
%TO.C,BT1*%
X168200000Y-115187500D03*
D11*
%TO.N,GND*%
X170740000Y-115187500D03*
%TD*%
D14*
%TO.N,+2V8*%
%TO.C,TP2*%
X160175000Y-135087500D03*
%TD*%
D10*
%TO.N,+2V8*%
%TO.C,J3*%
X176575000Y-109097500D03*
D15*
%TO.N,GND*%
X176575000Y-106557500D03*
%TO.N,/SWIO*%
X176575000Y-104017500D03*
%TO.N,/SWCLK*%
X176575000Y-101477500D03*
%TD*%
D16*
%TO.N,*%
%TO.C,J1*%
X166762205Y-129910239D03*
X170297739Y-126374705D03*
D17*
X172914034Y-127576786D03*
%TO.N,unconnected-(J1-Pad6)*%
X167964286Y-132526534D03*
%TD*%
D14*
%TO.N,GND*%
%TO.C,TP1*%
X130875000Y-135087500D03*
%TD*%
D18*
%TO.N,GND*%
%TO.C,U1*%
X123975000Y-106175000D03*
X128625000Y-110825000D03*
X127462500Y-106175000D03*
X127462500Y-107337500D03*
X125137500Y-110825000D03*
X126300000Y-106175000D03*
X128625000Y-109662500D03*
X126300000Y-108500000D03*
X123975000Y-108500000D03*
X127462500Y-110825000D03*
X123975000Y-110825000D03*
X126300000Y-110825000D03*
X125137500Y-106175000D03*
X126300000Y-107337500D03*
X127462500Y-109662500D03*
X128625000Y-108500000D03*
X127462500Y-108500000D03*
X125137500Y-108500000D03*
X126300000Y-109662500D03*
X125137500Y-109662500D03*
X128625000Y-106175000D03*
X125137500Y-107337500D03*
X123975000Y-109662500D03*
X123975000Y-107337500D03*
X128625000Y-107337500D03*
%TD*%
D19*
%TO.N,*%
%TO.C,RESET1*%
X120789959Y-85269884D03*
X125746778Y-80313066D03*
D20*
%TO.N,/RESET*%
X119913147Y-82625305D03*
%TO.N,GND*%
X123095128Y-79443324D03*
%TD*%
D14*
%TO.N,VCC*%
%TO.C,TP3*%
X152775000Y-135087500D03*
%TD*%
D21*
%TO.N,/BATT_ON_OFF*%
X143800000Y-120412500D03*
%TO.N,GND*%
X134918750Y-110381250D03*
D22*
X122019174Y-110310500D03*
X118500000Y-107000000D03*
D23*
X129600000Y-115100000D03*
D22*
X118500000Y-107800000D03*
X118500000Y-100200000D03*
D21*
X142875000Y-121887500D03*
X133075000Y-128187500D03*
D23*
X125800000Y-115100000D03*
D22*
X120000000Y-109080000D03*
X118500000Y-105400000D03*
X119980000Y-110380000D03*
D21*
X129475000Y-121187500D03*
X139175000Y-124287500D03*
D22*
X120940000Y-109100000D03*
D23*
X127400000Y-115100000D03*
D22*
X118500000Y-104600000D03*
D21*
X127275000Y-122087500D03*
D22*
X120970000Y-110360000D03*
D21*
X169328544Y-125375024D03*
D22*
X117900000Y-111000000D03*
D21*
X127170517Y-113005441D03*
D22*
X118930000Y-110430000D03*
D23*
X122775000Y-123787500D03*
D21*
X124218750Y-100581250D03*
D23*
X119600000Y-113600000D03*
D21*
X144975000Y-121587500D03*
D22*
X118950000Y-109060000D03*
D21*
X142600000Y-127800000D03*
D22*
X118500000Y-103800000D03*
D23*
X118300000Y-112300000D03*
D22*
X118500000Y-106200000D03*
D21*
%TO.N,+2V8*%
X124218750Y-103081250D03*
X129718750Y-113600000D03*
X131818750Y-104500000D03*
X132918750Y-111281250D03*
X145200000Y-103800000D03*
X121460000Y-106740000D03*
X130275000Y-128087500D03*
X121170000Y-113360000D03*
X128875000Y-128087500D03*
%TO.N,/Battery_Level*%
X132175000Y-120187500D03*
X121818750Y-101581250D03*
D23*
%TO.N,/SPI_MISO*%
X142275000Y-106987500D03*
X142275000Y-105387500D03*
%TO.N,/SPI_MOSI*%
X141075000Y-103787500D03*
X141075000Y-107787500D03*
%TO.N,/BOOT0*%
X134218750Y-101681250D03*
X127218750Y-100681250D03*
%TD*%
%TA.AperFunction,Conductor*%
%TO.N,+2V8*%
G36*
X146183020Y-68300339D02*
G01*
X147034958Y-68313722D01*
X147038914Y-68313846D01*
X148195751Y-68368401D01*
X148199702Y-68368649D01*
X149354296Y-68459518D01*
X149358236Y-68459891D01*
X149847736Y-68513932D01*
X150509381Y-68586978D01*
X150513251Y-68587467D01*
X151179752Y-68682324D01*
X151659861Y-68750654D01*
X151663770Y-68751273D01*
X152199940Y-68844849D01*
X152804695Y-68950396D01*
X152808533Y-68951128D01*
X153352152Y-69063706D01*
X153942602Y-69185983D01*
X153946465Y-69186846D01*
X154764666Y-69383279D01*
X155072639Y-69457217D01*
X155076453Y-69458196D01*
X156193538Y-69763796D01*
X156197305Y-69764890D01*
X157304266Y-70105435D01*
X157308010Y-70106651D01*
X157462263Y-70159464D01*
X158403728Y-70481801D01*
X158407452Y-70483142D01*
X159490811Y-70892508D01*
X159494481Y-70893961D01*
X159697350Y-70977992D01*
X160564462Y-71337162D01*
X160568095Y-71338734D01*
X161067654Y-71564293D01*
X161623663Y-71815341D01*
X161627213Y-71817013D01*
X162191319Y-72093365D01*
X162667237Y-72326515D01*
X162670715Y-72328286D01*
X163694338Y-72870266D01*
X163697693Y-72872110D01*
X164220473Y-73170299D01*
X164703743Y-73445952D01*
X164707150Y-73447967D01*
X165011121Y-73634240D01*
X165694640Y-74053101D01*
X165697942Y-74055196D01*
X166427383Y-74534350D01*
X166665933Y-74691048D01*
X166669207Y-74693273D01*
X167616745Y-75359214D01*
X167619947Y-75361541D01*
X168546068Y-76056893D01*
X168549196Y-76059319D01*
X169453056Y-76783447D01*
X169456105Y-76785970D01*
X170336736Y-77538099D01*
X170339706Y-77540717D01*
X171159891Y-78287028D01*
X171196300Y-78320158D01*
X171199180Y-78322863D01*
X172030904Y-79128859D01*
X172033641Y-79131596D01*
X172715080Y-79834786D01*
X172839633Y-79963315D01*
X172842338Y-79966195D01*
X172931756Y-80064465D01*
X173621783Y-80822794D01*
X173624401Y-80825764D01*
X174376530Y-81706395D01*
X174379053Y-81709444D01*
X175103181Y-82613304D01*
X175105607Y-82616432D01*
X175800959Y-83542553D01*
X175803286Y-83545755D01*
X176469227Y-84493293D01*
X176471452Y-84496567D01*
X177093891Y-85444138D01*
X177107291Y-85464538D01*
X177109399Y-85467860D01*
X177427601Y-85987118D01*
X177714533Y-86455350D01*
X177716548Y-86458757D01*
X177847021Y-86687500D01*
X178290390Y-87464807D01*
X178292234Y-87468162D01*
X178834214Y-88491785D01*
X178835985Y-88495263D01*
X179077130Y-88987500D01*
X179345480Y-89535271D01*
X179347166Y-89538852D01*
X179823766Y-90594405D01*
X179825338Y-90598038D01*
X180268535Y-91668009D01*
X180269992Y-91671689D01*
X180679358Y-92755048D01*
X180680699Y-92758772D01*
X181055845Y-93854479D01*
X181057065Y-93858234D01*
X181397065Y-94963422D01*
X181397605Y-94965178D01*
X181398704Y-94968962D01*
X181704301Y-96086037D01*
X181705286Y-96089871D01*
X181975654Y-97216035D01*
X181976517Y-97219898D01*
X182211367Y-98353942D01*
X182212109Y-98357830D01*
X182411227Y-99498730D01*
X182411846Y-99502639D01*
X182463170Y-99863259D01*
X182575033Y-100649249D01*
X182575522Y-100653119D01*
X182645746Y-101289198D01*
X182702609Y-101804264D01*
X182702982Y-101808204D01*
X182793851Y-102962798D01*
X182794099Y-102966749D01*
X182848654Y-104123586D01*
X182848778Y-104127542D01*
X182858144Y-104723777D01*
X182864521Y-105129659D01*
X182866969Y-105285521D01*
X182866969Y-105289473D01*
X182865429Y-105387500D01*
X182848778Y-106447458D01*
X182848654Y-106451414D01*
X182794099Y-107608251D01*
X182793851Y-107612202D01*
X182702982Y-108766796D01*
X182702609Y-108770736D01*
X182666258Y-109100000D01*
X182577669Y-109902439D01*
X182575525Y-109921856D01*
X182575033Y-109925751D01*
X182495056Y-110487702D01*
X182411846Y-111072361D01*
X182411227Y-111076270D01*
X182326250Y-111563169D01*
X182221160Y-112165311D01*
X182212109Y-112217170D01*
X182211372Y-112221033D01*
X182127679Y-112625172D01*
X181976517Y-113355102D01*
X181975654Y-113358965D01*
X181782367Y-114164065D01*
X181752285Y-114289366D01*
X181705286Y-114485129D01*
X181704304Y-114488953D01*
X181400215Y-115600517D01*
X181398709Y-115606021D01*
X181397610Y-115609805D01*
X181094371Y-116595500D01*
X181057068Y-116716756D01*
X181055845Y-116720521D01*
X180680699Y-117816228D01*
X180679358Y-117819952D01*
X180269992Y-118903311D01*
X180268539Y-118906981D01*
X180157609Y-119174789D01*
X179825338Y-119976962D01*
X179823766Y-119980595D01*
X179628754Y-120412500D01*
X179353265Y-121022641D01*
X179347166Y-121036148D01*
X179345487Y-121039713D01*
X178913573Y-121921361D01*
X178835985Y-122079737D01*
X178834214Y-122083215D01*
X178292234Y-123106838D01*
X178290390Y-123110193D01*
X178015974Y-123591294D01*
X177716548Y-124116243D01*
X177714533Y-124119650D01*
X177554174Y-124381333D01*
X177177845Y-124995448D01*
X177109412Y-125107120D01*
X177107304Y-125110442D01*
X176809449Y-125563882D01*
X176471452Y-126078433D01*
X176469227Y-126081707D01*
X175803286Y-127029245D01*
X175800959Y-127032447D01*
X175105607Y-127958568D01*
X175103181Y-127961696D01*
X174379053Y-128865556D01*
X174376530Y-128868605D01*
X173624401Y-129749236D01*
X173621783Y-129752206D01*
X172842342Y-130608800D01*
X172839637Y-130611680D01*
X172033641Y-131443404D01*
X172030904Y-131446141D01*
X171279267Y-132174528D01*
X171199185Y-132252133D01*
X171196300Y-132254842D01*
X170339706Y-133034283D01*
X170336736Y-133036901D01*
X169456105Y-133789030D01*
X169453056Y-133791553D01*
X168549196Y-134515681D01*
X168546068Y-134518107D01*
X167619947Y-135213459D01*
X167616745Y-135215786D01*
X166669207Y-135881727D01*
X166665933Y-135883952D01*
X166565974Y-135949613D01*
X165697942Y-136519804D01*
X165694640Y-136521899D01*
X165307601Y-136759077D01*
X164707150Y-137127033D01*
X164703743Y-137129048D01*
X164352268Y-137329526D01*
X163697693Y-137702890D01*
X163694338Y-137704734D01*
X162670715Y-138246714D01*
X162667236Y-138248485D01*
X161627213Y-138757987D01*
X161623663Y-138759659D01*
X161465585Y-138831034D01*
X160568095Y-139236266D01*
X160564462Y-139237838D01*
X159942288Y-139495551D01*
X159670538Y-139608114D01*
X159494491Y-139681035D01*
X159490811Y-139682492D01*
X158407452Y-140091858D01*
X158403728Y-140093199D01*
X157746522Y-140318212D01*
X157308010Y-140468349D01*
X157304266Y-140469565D01*
X156197305Y-140810110D01*
X156193538Y-140811204D01*
X155076453Y-141116804D01*
X155072639Y-141117783D01*
X154764666Y-141191721D01*
X153946465Y-141388154D01*
X153942602Y-141389017D01*
X153352152Y-141511294D01*
X152808533Y-141623872D01*
X152804695Y-141624604D01*
X152199940Y-141730151D01*
X151663770Y-141823727D01*
X151659861Y-141824346D01*
X151179752Y-141892676D01*
X150513251Y-141987533D01*
X150509381Y-141988022D01*
X149847736Y-142061068D01*
X149358236Y-142115109D01*
X149354296Y-142115482D01*
X148199702Y-142206351D01*
X148195751Y-142206599D01*
X147038914Y-142261154D01*
X147034958Y-142261278D01*
X146183020Y-142274661D01*
X145876973Y-142279469D01*
X145873027Y-142279469D01*
X145566980Y-142274661D01*
X144715042Y-142261278D01*
X144711086Y-142261154D01*
X143554249Y-142206599D01*
X143550298Y-142206351D01*
X142395704Y-142115482D01*
X142391764Y-142115109D01*
X141902264Y-142061068D01*
X141240619Y-141988022D01*
X141236749Y-141987533D01*
X140570248Y-141892676D01*
X140090139Y-141824346D01*
X140086230Y-141823727D01*
X139550060Y-141730151D01*
X138945305Y-141624604D01*
X138941467Y-141623872D01*
X138397848Y-141511294D01*
X137807398Y-141389017D01*
X137803535Y-141388154D01*
X136985334Y-141191721D01*
X136677361Y-141117783D01*
X136673547Y-141116804D01*
X135556462Y-140811204D01*
X135552695Y-140810110D01*
X134445734Y-140469565D01*
X134441990Y-140468349D01*
X134003478Y-140318212D01*
X133346272Y-140093199D01*
X133342548Y-140091858D01*
X132259189Y-139682492D01*
X132255509Y-139681035D01*
X132079463Y-139608114D01*
X131807712Y-139495551D01*
X131185538Y-139237838D01*
X131181905Y-139236266D01*
X130284415Y-138831034D01*
X130126337Y-138759659D01*
X130122787Y-138757987D01*
X129637409Y-138520203D01*
X143765743Y-138520203D01*
X143803268Y-138805234D01*
X143879129Y-139082536D01*
X143880813Y-139086484D01*
X143945048Y-139237079D01*
X143991923Y-139346976D01*
X144139561Y-139593661D01*
X144319313Y-139818028D01*
X144527851Y-140015923D01*
X144634504Y-140092561D01*
X144747966Y-140174092D01*
X144761317Y-140183686D01*
X144765112Y-140185695D01*
X144765113Y-140185696D01*
X144786869Y-140197215D01*
X145015392Y-140318212D01*
X145285373Y-140417011D01*
X145566264Y-140478255D01*
X145594841Y-140480504D01*
X145789282Y-140495807D01*
X145789291Y-140495807D01*
X145791739Y-140496000D01*
X145947271Y-140496000D01*
X145949407Y-140495854D01*
X145949418Y-140495854D01*
X146157548Y-140481665D01*
X146157554Y-140481664D01*
X146161825Y-140481373D01*
X146166020Y-140480504D01*
X146166022Y-140480504D01*
X146302583Y-140452224D01*
X146443342Y-140423074D01*
X146714343Y-140327107D01*
X146969812Y-140195250D01*
X146973313Y-140192789D01*
X146973317Y-140192787D01*
X147116924Y-140091858D01*
X147205023Y-140029941D01*
X147415622Y-139834240D01*
X147597713Y-139611768D01*
X147747927Y-139366642D01*
X147863483Y-139103398D01*
X147942244Y-138826906D01*
X147982751Y-138542284D01*
X147982845Y-138524451D01*
X147984235Y-138259083D01*
X147984235Y-138259076D01*
X147984257Y-138254797D01*
X147946732Y-137969766D01*
X147870871Y-137692464D01*
X147758077Y-137428024D01*
X147610439Y-137181339D01*
X147430687Y-136956972D01*
X147222149Y-136759077D01*
X146988683Y-136591314D01*
X146966843Y-136579750D01*
X146943654Y-136567472D01*
X146734608Y-136456788D01*
X146464627Y-136357989D01*
X146183736Y-136296745D01*
X146152685Y-136294301D01*
X145960718Y-136279193D01*
X145960709Y-136279193D01*
X145958261Y-136279000D01*
X145802729Y-136279000D01*
X145800593Y-136279146D01*
X145800582Y-136279146D01*
X145592452Y-136293335D01*
X145592446Y-136293336D01*
X145588175Y-136293627D01*
X145583980Y-136294496D01*
X145583978Y-136294496D01*
X145505085Y-136310834D01*
X145306658Y-136351926D01*
X145035657Y-136447893D01*
X144780188Y-136579750D01*
X144776687Y-136582211D01*
X144776683Y-136582213D01*
X144766594Y-136589304D01*
X144544977Y-136745059D01*
X144334378Y-136940760D01*
X144152287Y-137163232D01*
X144002073Y-137408358D01*
X143886517Y-137671602D01*
X143807756Y-137948094D01*
X143767249Y-138232716D01*
X143767227Y-138237005D01*
X143767226Y-138237012D01*
X143765765Y-138515917D01*
X143765743Y-138520203D01*
X129637409Y-138520203D01*
X129082764Y-138248485D01*
X129079285Y-138246714D01*
X128055662Y-137704734D01*
X128052307Y-137702890D01*
X127397732Y-137329527D01*
X127046257Y-137129048D01*
X127042850Y-137127033D01*
X126442399Y-136759077D01*
X126055360Y-136521899D01*
X126052058Y-136519804D01*
X125184026Y-135949613D01*
X125084067Y-135883952D01*
X125080793Y-135881727D01*
X124133255Y-135215786D01*
X124130053Y-135213459D01*
X123962292Y-135087500D01*
X129361835Y-135087500D01*
X129380465Y-135324211D01*
X129435895Y-135555094D01*
X129437788Y-135559665D01*
X129437789Y-135559667D01*
X129524772Y-135769663D01*
X129526760Y-135774463D01*
X129529346Y-135778683D01*
X129648241Y-135972702D01*
X129648245Y-135972708D01*
X129650824Y-135976916D01*
X129805031Y-136157469D01*
X129985584Y-136311676D01*
X129989792Y-136314255D01*
X129989798Y-136314259D01*
X130183084Y-136432705D01*
X130188037Y-136435740D01*
X130192607Y-136437633D01*
X130192611Y-136437635D01*
X130402833Y-136524711D01*
X130407406Y-136526605D01*
X130487609Y-136545860D01*
X130633476Y-136580880D01*
X130633482Y-136580881D01*
X130638289Y-136582035D01*
X130875000Y-136600665D01*
X131111711Y-136582035D01*
X131116518Y-136580881D01*
X131116524Y-136580880D01*
X131262391Y-136545860D01*
X131342594Y-136526605D01*
X131347167Y-136524711D01*
X131557389Y-136437635D01*
X131557393Y-136437633D01*
X131561963Y-136435740D01*
X131566916Y-136432705D01*
X131760202Y-136314259D01*
X131760208Y-136314255D01*
X131764416Y-136311676D01*
X131944969Y-136157469D01*
X132099176Y-135976916D01*
X132101755Y-135972708D01*
X132101759Y-135972702D01*
X132220654Y-135778683D01*
X132223240Y-135774463D01*
X132225229Y-135769663D01*
X132312211Y-135559667D01*
X132312212Y-135559665D01*
X132314105Y-135555094D01*
X132369535Y-135324211D01*
X132388165Y-135087500D01*
X151261835Y-135087500D01*
X151280465Y-135324211D01*
X151335895Y-135555094D01*
X151337788Y-135559665D01*
X151337789Y-135559667D01*
X151424772Y-135769663D01*
X151426760Y-135774463D01*
X151429346Y-135778683D01*
X151548241Y-135972702D01*
X151548245Y-135972708D01*
X151550824Y-135976916D01*
X151705031Y-136157469D01*
X151885584Y-136311676D01*
X151889792Y-136314255D01*
X151889798Y-136314259D01*
X152083084Y-136432705D01*
X152088037Y-136435740D01*
X152092607Y-136437633D01*
X152092611Y-136437635D01*
X152302833Y-136524711D01*
X152307406Y-136526605D01*
X152387609Y-136545860D01*
X152533476Y-136580880D01*
X152533482Y-136580881D01*
X152538289Y-136582035D01*
X152775000Y-136600665D01*
X153011711Y-136582035D01*
X153016518Y-136580881D01*
X153016524Y-136580880D01*
X153162391Y-136545860D01*
X153242594Y-136526605D01*
X153247167Y-136524711D01*
X153457389Y-136437635D01*
X153457393Y-136437633D01*
X153461963Y-136435740D01*
X153466916Y-136432705D01*
X153650556Y-136320170D01*
X159307160Y-136320170D01*
X159312887Y-136327820D01*
X159484042Y-136432705D01*
X159492837Y-136437187D01*
X159702988Y-136524234D01*
X159712373Y-136527283D01*
X159933554Y-136580385D01*
X159943301Y-136581928D01*
X160170070Y-136599775D01*
X160179930Y-136599775D01*
X160406699Y-136581928D01*
X160416446Y-136580385D01*
X160637627Y-136527283D01*
X160647012Y-136524234D01*
X160857163Y-136437187D01*
X160865958Y-136432705D01*
X161033445Y-136330068D01*
X161042907Y-136319610D01*
X161039124Y-136310834D01*
X160187812Y-135459522D01*
X160173868Y-135451908D01*
X160172035Y-135452039D01*
X160165420Y-135456290D01*
X159313920Y-136307790D01*
X159307160Y-136320170D01*
X153650556Y-136320170D01*
X153660202Y-136314259D01*
X153660208Y-136314255D01*
X153664416Y-136311676D01*
X153844969Y-136157469D01*
X153999176Y-135976916D01*
X154001755Y-135972708D01*
X154001759Y-135972702D01*
X154120654Y-135778683D01*
X154123240Y-135774463D01*
X154125229Y-135769663D01*
X154212211Y-135559667D01*
X154212212Y-135559665D01*
X154214105Y-135555094D01*
X154269535Y-135324211D01*
X154287777Y-135092430D01*
X158662725Y-135092430D01*
X158680572Y-135319199D01*
X158682115Y-135328946D01*
X158735217Y-135550127D01*
X158738266Y-135559512D01*
X158825313Y-135769663D01*
X158829795Y-135778458D01*
X158932432Y-135945945D01*
X158942890Y-135955407D01*
X158951666Y-135951624D01*
X159802978Y-135100312D01*
X159809356Y-135088632D01*
X160539408Y-135088632D01*
X160539539Y-135090465D01*
X160543790Y-135097080D01*
X161395290Y-135948580D01*
X161407670Y-135955340D01*
X161415320Y-135949613D01*
X161520205Y-135778458D01*
X161524687Y-135769663D01*
X161611734Y-135559512D01*
X161614783Y-135550127D01*
X161667885Y-135328946D01*
X161669428Y-135319199D01*
X161687275Y-135092430D01*
X161687275Y-135082570D01*
X161669428Y-134855801D01*
X161667885Y-134846054D01*
X161614783Y-134624873D01*
X161611734Y-134615488D01*
X161524687Y-134405337D01*
X161520205Y-134396542D01*
X161417568Y-134229055D01*
X161407110Y-134219593D01*
X161398334Y-134223376D01*
X160547022Y-135074688D01*
X160539408Y-135088632D01*
X159809356Y-135088632D01*
X159810592Y-135086368D01*
X159810461Y-135084535D01*
X159806210Y-135077920D01*
X158954710Y-134226420D01*
X158942330Y-134219660D01*
X158934680Y-134225387D01*
X158829795Y-134396542D01*
X158825313Y-134405337D01*
X158738266Y-134615488D01*
X158735217Y-134624873D01*
X158682115Y-134846054D01*
X158680572Y-134855801D01*
X158662725Y-135082570D01*
X158662725Y-135092430D01*
X154287777Y-135092430D01*
X154288165Y-135087500D01*
X154269535Y-134850789D01*
X154214105Y-134619906D01*
X154170934Y-134515681D01*
X154125135Y-134405111D01*
X154125133Y-134405107D01*
X154123240Y-134400537D01*
X154120654Y-134396317D01*
X154001759Y-134202298D01*
X154001755Y-134202292D01*
X153999176Y-134198084D01*
X153844969Y-134017531D01*
X153664416Y-133863324D01*
X153660208Y-133860745D01*
X153660202Y-133860741D01*
X153651470Y-133855390D01*
X159307093Y-133855390D01*
X159310876Y-133864166D01*
X160162188Y-134715478D01*
X160176132Y-134723092D01*
X160177965Y-134722961D01*
X160184580Y-134718710D01*
X161036080Y-133867210D01*
X161042840Y-133854830D01*
X161037113Y-133847180D01*
X160865958Y-133742295D01*
X160857163Y-133737813D01*
X160647012Y-133650766D01*
X160637627Y-133647717D01*
X160416446Y-133594615D01*
X160406699Y-133593072D01*
X160179930Y-133575225D01*
X160170070Y-133575225D01*
X159943301Y-133593072D01*
X159933554Y-133594615D01*
X159712373Y-133647717D01*
X159702988Y-133650766D01*
X159492837Y-133737813D01*
X159484042Y-133742295D01*
X159316555Y-133844932D01*
X159307093Y-133855390D01*
X153651470Y-133855390D01*
X153466183Y-133741846D01*
X153461963Y-133739260D01*
X153457393Y-133737367D01*
X153457389Y-133737365D01*
X153247167Y-133650289D01*
X153247165Y-133650288D01*
X153242594Y-133648395D01*
X153162391Y-133629140D01*
X153016524Y-133594120D01*
X153016518Y-133594119D01*
X153011711Y-133592965D01*
X152775000Y-133574335D01*
X152538289Y-133592965D01*
X152533482Y-133594119D01*
X152533476Y-133594120D01*
X152387609Y-133629140D01*
X152307406Y-133648395D01*
X152302835Y-133650288D01*
X152302833Y-133650289D01*
X152092611Y-133737365D01*
X152092607Y-133737367D01*
X152088037Y-133739260D01*
X152083817Y-133741846D01*
X151889798Y-133860741D01*
X151889792Y-133860745D01*
X151885584Y-133863324D01*
X151705031Y-134017531D01*
X151550824Y-134198084D01*
X151548245Y-134202292D01*
X151548241Y-134202298D01*
X151429346Y-134396317D01*
X151426760Y-134400537D01*
X151424867Y-134405107D01*
X151424865Y-134405111D01*
X151379066Y-134515681D01*
X151335895Y-134619906D01*
X151280465Y-134850789D01*
X151261835Y-135087500D01*
X132388165Y-135087500D01*
X132369535Y-134850789D01*
X132314105Y-134619906D01*
X132270934Y-134515681D01*
X132225135Y-134405111D01*
X132225133Y-134405107D01*
X132223240Y-134400537D01*
X132220654Y-134396317D01*
X132101759Y-134202298D01*
X132101755Y-134202292D01*
X132099176Y-134198084D01*
X131944969Y-134017531D01*
X131764416Y-133863324D01*
X131760208Y-133860745D01*
X131760202Y-133860741D01*
X131566183Y-133741846D01*
X131561963Y-133739260D01*
X131557393Y-133737367D01*
X131557389Y-133737365D01*
X131347167Y-133650289D01*
X131347165Y-133650288D01*
X131342594Y-133648395D01*
X131262391Y-133629140D01*
X131116524Y-133594120D01*
X131116518Y-133594119D01*
X131111711Y-133592965D01*
X130875000Y-133574335D01*
X130638289Y-133592965D01*
X130633482Y-133594119D01*
X130633476Y-133594120D01*
X130487609Y-133629140D01*
X130407406Y-133648395D01*
X130402835Y-133650288D01*
X130402833Y-133650289D01*
X130192611Y-133737365D01*
X130192607Y-133737367D01*
X130188037Y-133739260D01*
X130183817Y-133741846D01*
X129989798Y-133860741D01*
X129989792Y-133860745D01*
X129985584Y-133863324D01*
X129805031Y-134017531D01*
X129650824Y-134198084D01*
X129648245Y-134202292D01*
X129648241Y-134202298D01*
X129529346Y-134396317D01*
X129526760Y-134400537D01*
X129524867Y-134405107D01*
X129524865Y-134405111D01*
X129479066Y-134515681D01*
X129435895Y-134619906D01*
X129380465Y-134850789D01*
X129361835Y-135087500D01*
X123962292Y-135087500D01*
X123203932Y-134518107D01*
X123200804Y-134515681D01*
X122296944Y-133791553D01*
X122293895Y-133789030D01*
X121413264Y-133036901D01*
X121410294Y-133034283D01*
X120626921Y-132321468D01*
X166756508Y-132321468D01*
X166773745Y-132518493D01*
X166775464Y-132524410D01*
X166775465Y-132524415D01*
X166813446Y-132655144D01*
X166828923Y-132708416D01*
X166919940Y-132884006D01*
X167016570Y-133005053D01*
X167480815Y-133469297D01*
X167595001Y-133563091D01*
X167769303Y-133656550D01*
X167877959Y-133689770D01*
X167952540Y-133712572D01*
X167952542Y-133712572D01*
X167958438Y-133714375D01*
X168016291Y-133720252D01*
X168149074Y-133733740D01*
X168149079Y-133733740D01*
X168155202Y-133734362D01*
X168279265Y-133722634D01*
X168345969Y-133716329D01*
X168345971Y-133716329D01*
X168352102Y-133715749D01*
X168446869Y-133687498D01*
X168535733Y-133661007D01*
X168535735Y-133661006D01*
X168541636Y-133659247D01*
X168716586Y-133567006D01*
X168870287Y-133442541D01*
X168996886Y-133290592D01*
X169091562Y-133116947D01*
X169150705Y-132928220D01*
X169154986Y-132888816D01*
X169171399Y-132737725D01*
X169171399Y-132737721D01*
X169172064Y-132731600D01*
X169154827Y-132534575D01*
X169153108Y-132528658D01*
X169153107Y-132528653D01*
X169101367Y-132350566D01*
X169099649Y-132344652D01*
X169008632Y-132169062D01*
X168912002Y-132048015D01*
X168447757Y-131583771D01*
X168333571Y-131489977D01*
X168159269Y-131396518D01*
X168050613Y-131363298D01*
X167976032Y-131340496D01*
X167976030Y-131340496D01*
X167970134Y-131338693D01*
X167912281Y-131332816D01*
X167779498Y-131319328D01*
X167779493Y-131319328D01*
X167773370Y-131318706D01*
X167649307Y-131330434D01*
X167582603Y-131336739D01*
X167582601Y-131336739D01*
X167576470Y-131337319D01*
X167481703Y-131365570D01*
X167392839Y-131392061D01*
X167392837Y-131392062D01*
X167386936Y-131393821D01*
X167211986Y-131486062D01*
X167058285Y-131610527D01*
X166931686Y-131762476D01*
X166837010Y-131936121D01*
X166777867Y-132124848D01*
X166777202Y-132130971D01*
X166777201Y-132130975D01*
X166757173Y-132315343D01*
X166756508Y-132321468D01*
X120626921Y-132321468D01*
X120553700Y-132254842D01*
X120550815Y-132252133D01*
X120470733Y-132174528D01*
X119719096Y-131446141D01*
X119716359Y-131443404D01*
X118910363Y-130611680D01*
X118907658Y-130608800D01*
X118390506Y-130040458D01*
X165667862Y-130040458D01*
X165692904Y-130238686D01*
X165757293Y-130427828D01*
X165858400Y-130600161D01*
X165992095Y-130748644D01*
X166152915Y-130867210D01*
X166334291Y-130951018D01*
X166528815Y-130996643D01*
X166641196Y-130999782D01*
X166722158Y-131002044D01*
X166722161Y-131002044D01*
X166728540Y-131002222D01*
X166925308Y-130967526D01*
X167111080Y-130893974D01*
X167116427Y-130890475D01*
X167274215Y-130787221D01*
X167274219Y-130787218D01*
X167278267Y-130784569D01*
X167283151Y-130780172D01*
X167599019Y-130464304D01*
X167693578Y-130348363D01*
X167786146Y-130171296D01*
X167841219Y-129979234D01*
X167856548Y-129780020D01*
X167831506Y-129581792D01*
X167767117Y-129392650D01*
X167666010Y-129220317D01*
X167532315Y-129071834D01*
X167371495Y-128953268D01*
X167190119Y-128869460D01*
X166995595Y-128823835D01*
X166883214Y-128820696D01*
X166802252Y-128818434D01*
X166802249Y-128818434D01*
X166795870Y-128818256D01*
X166599102Y-128852952D01*
X166413330Y-128926504D01*
X166407983Y-128930003D01*
X166250195Y-129033257D01*
X166250191Y-129033260D01*
X166246143Y-129035909D01*
X166241259Y-129040306D01*
X165925391Y-129356174D01*
X165830832Y-129472115D01*
X165738264Y-129649182D01*
X165683191Y-129841244D01*
X165667862Y-130040458D01*
X118390506Y-130040458D01*
X118128217Y-129752206D01*
X118125619Y-129749260D01*
X118105188Y-129725338D01*
X118076158Y-129660550D01*
X118075000Y-129643509D01*
X118075000Y-128173351D01*
X132061719Y-128173351D01*
X132078268Y-128370434D01*
X132082200Y-128384145D01*
X132123793Y-128529197D01*
X132132783Y-128560550D01*
X132223187Y-128736456D01*
X132346035Y-128891453D01*
X132350728Y-128895447D01*
X132350729Y-128895448D01*
X132423119Y-128957056D01*
X132496650Y-129019636D01*
X132669294Y-129116124D01*
X132857392Y-129177240D01*
X133053777Y-129200658D01*
X133059912Y-129200186D01*
X133059914Y-129200186D01*
X133244830Y-129185957D01*
X133244834Y-129185956D01*
X133250972Y-129185484D01*
X133441463Y-129132298D01*
X133446967Y-129129518D01*
X133446969Y-129129517D01*
X133612495Y-129045904D01*
X133612497Y-129045903D01*
X133617996Y-129043125D01*
X133773847Y-128921361D01*
X133887459Y-128789740D01*
X133899049Y-128776313D01*
X133899050Y-128776311D01*
X133903078Y-128771645D01*
X134000769Y-128599679D01*
X134063197Y-128412013D01*
X134087985Y-128215795D01*
X134088380Y-128187500D01*
X134069080Y-127990667D01*
X134011916Y-127801331D01*
X134003685Y-127785851D01*
X141586719Y-127785851D01*
X141587235Y-127791995D01*
X141602261Y-127970936D01*
X141603268Y-127982934D01*
X141613436Y-128018393D01*
X141654419Y-128161317D01*
X141657783Y-128173050D01*
X141748187Y-128348956D01*
X141871035Y-128503953D01*
X141875728Y-128507947D01*
X141875729Y-128507948D01*
X141989815Y-128605042D01*
X142021650Y-128632136D01*
X142194294Y-128728624D01*
X142382392Y-128789740D01*
X142578777Y-128813158D01*
X142584912Y-128812686D01*
X142584914Y-128812686D01*
X142769830Y-128798457D01*
X142769834Y-128798456D01*
X142775972Y-128797984D01*
X142966463Y-128744798D01*
X142971967Y-128742018D01*
X142971969Y-128742017D01*
X143137495Y-128658404D01*
X143137497Y-128658403D01*
X143142996Y-128655625D01*
X143298847Y-128533861D01*
X143428078Y-128384145D01*
X143525769Y-128212179D01*
X143588197Y-128024513D01*
X143612985Y-127828295D01*
X143613380Y-127800000D01*
X143594080Y-127603167D01*
X143583688Y-127568745D01*
X143553726Y-127469509D01*
X143536916Y-127413831D01*
X143444066Y-127239204D01*
X143331365Y-127101019D01*
X143322960Y-127090713D01*
X143322957Y-127090710D01*
X143319065Y-127085938D01*
X143312724Y-127080692D01*
X143171425Y-126963799D01*
X143171421Y-126963797D01*
X143166675Y-126959870D01*
X142992701Y-126865802D01*
X142803768Y-126807318D01*
X142797643Y-126806674D01*
X142797642Y-126806674D01*
X142613204Y-126787289D01*
X142613202Y-126787289D01*
X142607075Y-126786645D01*
X142524576Y-126794153D01*
X142416251Y-126804011D01*
X142416248Y-126804012D01*
X142410112Y-126804570D01*
X142404206Y-126806308D01*
X142404202Y-126806309D01*
X142299076Y-126837249D01*
X142220381Y-126860410D01*
X142214923Y-126863263D01*
X142214919Y-126863265D01*
X142170952Y-126886251D01*
X142045110Y-126952040D01*
X141890975Y-127075968D01*
X141763846Y-127227474D01*
X141760879Y-127232872D01*
X141760875Y-127232877D01*
X141700114Y-127343403D01*
X141668567Y-127400787D01*
X141666706Y-127406654D01*
X141666705Y-127406656D01*
X141644006Y-127478213D01*
X141608765Y-127589306D01*
X141586719Y-127785851D01*
X134003685Y-127785851D01*
X133919066Y-127626704D01*
X133848709Y-127540438D01*
X133797960Y-127478213D01*
X133797957Y-127478210D01*
X133794065Y-127473438D01*
X133785906Y-127466688D01*
X133646425Y-127351299D01*
X133646421Y-127351297D01*
X133641675Y-127347370D01*
X133467701Y-127253302D01*
X133278768Y-127194818D01*
X133272643Y-127194174D01*
X133272642Y-127194174D01*
X133088204Y-127174789D01*
X133088202Y-127174789D01*
X133082075Y-127174145D01*
X133004257Y-127181227D01*
X132891251Y-127191511D01*
X132891248Y-127191512D01*
X132885112Y-127192070D01*
X132879206Y-127193808D01*
X132879202Y-127193809D01*
X132800752Y-127216898D01*
X132695381Y-127247910D01*
X132689923Y-127250763D01*
X132689919Y-127250765D01*
X132599147Y-127298220D01*
X132520110Y-127339540D01*
X132365975Y-127463468D01*
X132238846Y-127614974D01*
X132235879Y-127620372D01*
X132235875Y-127620377D01*
X132229406Y-127632145D01*
X132143567Y-127788287D01*
X132141706Y-127794154D01*
X132141705Y-127794156D01*
X132129764Y-127831799D01*
X132083765Y-127976806D01*
X132061719Y-128173351D01*
X118075000Y-128173351D01*
X118075000Y-125360875D01*
X168315263Y-125360875D01*
X168315779Y-125367019D01*
X168330392Y-125541043D01*
X168331812Y-125557958D01*
X168333511Y-125563882D01*
X168369757Y-125690286D01*
X168386327Y-125748074D01*
X168476731Y-125923980D01*
X168599579Y-126078977D01*
X168750194Y-126207160D01*
X168922838Y-126303648D01*
X168928698Y-126305552D01*
X169105068Y-126362858D01*
X169105074Y-126362859D01*
X169105747Y-126363078D01*
X169110936Y-126364764D01*
X169110616Y-126365750D01*
X169167767Y-126397120D01*
X169201657Y-126459506D01*
X169204106Y-126495692D01*
X169203885Y-126498560D01*
X169203885Y-126498567D01*
X169203396Y-126504924D01*
X169228438Y-126703152D01*
X169292827Y-126892294D01*
X169296057Y-126897799D01*
X169373176Y-127029245D01*
X169393934Y-127064627D01*
X169527629Y-127213110D01*
X169688449Y-127331676D01*
X169869825Y-127415484D01*
X170064349Y-127461109D01*
X170176730Y-127464248D01*
X170257692Y-127466510D01*
X170257695Y-127466510D01*
X170264074Y-127466688D01*
X170460842Y-127431992D01*
X170613072Y-127371720D01*
X171706256Y-127371720D01*
X171723493Y-127568745D01*
X171725212Y-127574662D01*
X171725213Y-127574667D01*
X171741571Y-127630971D01*
X171778671Y-127758668D01*
X171869688Y-127934258D01*
X171966318Y-128055305D01*
X172430563Y-128519549D01*
X172544749Y-128613343D01*
X172719051Y-128706802D01*
X172798123Y-128730977D01*
X172902288Y-128762824D01*
X172902290Y-128762824D01*
X172908186Y-128764627D01*
X172966039Y-128770504D01*
X173098822Y-128783992D01*
X173098827Y-128783992D01*
X173104950Y-128784614D01*
X173229013Y-128772886D01*
X173295717Y-128766581D01*
X173295719Y-128766581D01*
X173301850Y-128766001D01*
X173427230Y-128728624D01*
X173485481Y-128711259D01*
X173485483Y-128711258D01*
X173491384Y-128709499D01*
X173666334Y-128617258D01*
X173681420Y-128605042D01*
X173815245Y-128496672D01*
X173815246Y-128496671D01*
X173820035Y-128492793D01*
X173935854Y-128353783D01*
X173942690Y-128345578D01*
X173942691Y-128345577D01*
X173946634Y-128340844D01*
X174041310Y-128167199D01*
X174094709Y-127996801D01*
X174098610Y-127984354D01*
X174098611Y-127984351D01*
X174100453Y-127978472D01*
X174102276Y-127961696D01*
X174121147Y-127787977D01*
X174121147Y-127787973D01*
X174121812Y-127781852D01*
X174104575Y-127584827D01*
X174102856Y-127578910D01*
X174102855Y-127578905D01*
X174054599Y-127412809D01*
X174049397Y-127394904D01*
X173958380Y-127219314D01*
X173861750Y-127098267D01*
X173397505Y-126634023D01*
X173283319Y-126540229D01*
X173109017Y-126446770D01*
X172946621Y-126397120D01*
X172925780Y-126390748D01*
X172925778Y-126390748D01*
X172919882Y-126388945D01*
X172862029Y-126383068D01*
X172729246Y-126369580D01*
X172729241Y-126369580D01*
X172723118Y-126368958D01*
X172599055Y-126380686D01*
X172532351Y-126386991D01*
X172532349Y-126386991D01*
X172526218Y-126387571D01*
X172431451Y-126415822D01*
X172342587Y-126442313D01*
X172342585Y-126442314D01*
X172336684Y-126444073D01*
X172161734Y-126536314D01*
X172156948Y-126540190D01*
X172156946Y-126540191D01*
X172016446Y-126653966D01*
X172008033Y-126660779D01*
X172004088Y-126665514D01*
X171886061Y-126807175D01*
X171881434Y-126812728D01*
X171786758Y-126986373D01*
X171727615Y-127175100D01*
X171726950Y-127181223D01*
X171726949Y-127181227D01*
X171707443Y-127360791D01*
X171706256Y-127371720D01*
X170613072Y-127371720D01*
X170646614Y-127358440D01*
X170679856Y-127336687D01*
X170809749Y-127251687D01*
X170809753Y-127251684D01*
X170813801Y-127249035D01*
X170818685Y-127244638D01*
X171134553Y-126928770D01*
X171183519Y-126868732D01*
X171225080Y-126817773D01*
X171225081Y-126817772D01*
X171229112Y-126812829D01*
X171321680Y-126635762D01*
X171376753Y-126443700D01*
X171392082Y-126244486D01*
X171367040Y-126046258D01*
X171302651Y-125857116D01*
X171201544Y-125684783D01*
X171067849Y-125536300D01*
X170907029Y-125417734D01*
X170725653Y-125333926D01*
X170531129Y-125288301D01*
X170447218Y-125285957D01*
X170443317Y-125285848D01*
X170375781Y-125263951D01*
X170330804Y-125209018D01*
X170323235Y-125184373D01*
X170323225Y-125184325D01*
X170322624Y-125178191D01*
X170265460Y-124988855D01*
X170172610Y-124814228D01*
X170079186Y-124699679D01*
X170051504Y-124665737D01*
X170051501Y-124665734D01*
X170047609Y-124660962D01*
X170042860Y-124657033D01*
X169899969Y-124538823D01*
X169899965Y-124538821D01*
X169895219Y-124534894D01*
X169721245Y-124440826D01*
X169532312Y-124382342D01*
X169526187Y-124381698D01*
X169526186Y-124381698D01*
X169341748Y-124362313D01*
X169341746Y-124362313D01*
X169335619Y-124361669D01*
X169253120Y-124369177D01*
X169144795Y-124379035D01*
X169144792Y-124379036D01*
X169138656Y-124379594D01*
X169132750Y-124381332D01*
X169132746Y-124381333D01*
X169027620Y-124412273D01*
X168948925Y-124435434D01*
X168943467Y-124438287D01*
X168943463Y-124438289D01*
X168870645Y-124476358D01*
X168773654Y-124527064D01*
X168619519Y-124650992D01*
X168492390Y-124802498D01*
X168489423Y-124807896D01*
X168489419Y-124807901D01*
X168454376Y-124871645D01*
X168397111Y-124975811D01*
X168395250Y-124981678D01*
X168395249Y-124981680D01*
X168345240Y-125139329D01*
X168337309Y-125164330D01*
X168315263Y-125360875D01*
X118075000Y-125360875D01*
X118075000Y-123787500D01*
X121861496Y-123787500D01*
X121881458Y-123977428D01*
X121940473Y-124159056D01*
X122035960Y-124324444D01*
X122040378Y-124329351D01*
X122040379Y-124329352D01*
X122089732Y-124384164D01*
X122163747Y-124466366D01*
X122318248Y-124578618D01*
X122324276Y-124581302D01*
X122324278Y-124581303D01*
X122480803Y-124650992D01*
X122492712Y-124656294D01*
X122586113Y-124676147D01*
X122673056Y-124694628D01*
X122673061Y-124694628D01*
X122679513Y-124696000D01*
X122870487Y-124696000D01*
X122876939Y-124694628D01*
X122876944Y-124694628D01*
X122963887Y-124676147D01*
X123057288Y-124656294D01*
X123069197Y-124650992D01*
X123225722Y-124581303D01*
X123225724Y-124581302D01*
X123231752Y-124578618D01*
X123386253Y-124466366D01*
X123460268Y-124384164D01*
X123509621Y-124329352D01*
X123509622Y-124329351D01*
X123514040Y-124324444D01*
X123543539Y-124273351D01*
X138161719Y-124273351D01*
X138178268Y-124470434D01*
X138195614Y-124530927D01*
X138230793Y-124653609D01*
X138232783Y-124660550D01*
X138235602Y-124666035D01*
X138314560Y-124819669D01*
X138323187Y-124836456D01*
X138446035Y-124991453D01*
X138450728Y-124995447D01*
X138450729Y-124995448D01*
X138585871Y-125110462D01*
X138596650Y-125119636D01*
X138769294Y-125216124D01*
X138957392Y-125277240D01*
X139153777Y-125300658D01*
X139159912Y-125300186D01*
X139159914Y-125300186D01*
X139344830Y-125285957D01*
X139344834Y-125285956D01*
X139350972Y-125285484D01*
X139541463Y-125232298D01*
X139546967Y-125229518D01*
X139546969Y-125229517D01*
X139712495Y-125145904D01*
X139712497Y-125145903D01*
X139717996Y-125143125D01*
X139873847Y-125021361D01*
X140003078Y-124871645D01*
X140100769Y-124699679D01*
X140163197Y-124512013D01*
X140187985Y-124315795D01*
X140188380Y-124287500D01*
X140169080Y-124090667D01*
X140111916Y-123901331D01*
X140019066Y-123726704D01*
X139916051Y-123600395D01*
X139897960Y-123578213D01*
X139897957Y-123578210D01*
X139894065Y-123573438D01*
X139887724Y-123568192D01*
X139746425Y-123451299D01*
X139746421Y-123451297D01*
X139741675Y-123447370D01*
X139567701Y-123353302D01*
X139378768Y-123294818D01*
X139372643Y-123294174D01*
X139372642Y-123294174D01*
X139188204Y-123274789D01*
X139188202Y-123274789D01*
X139182075Y-123274145D01*
X139099576Y-123281653D01*
X138991251Y-123291511D01*
X138991248Y-123291512D01*
X138985112Y-123292070D01*
X138979206Y-123293808D01*
X138979202Y-123293809D01*
X138874076Y-123324749D01*
X138795381Y-123347910D01*
X138789923Y-123350763D01*
X138789919Y-123350765D01*
X138699147Y-123398220D01*
X138620110Y-123439540D01*
X138465975Y-123563468D01*
X138338846Y-123714974D01*
X138335879Y-123720372D01*
X138335875Y-123720377D01*
X138257095Y-123863680D01*
X138243567Y-123888287D01*
X138241706Y-123894154D01*
X138241705Y-123894156D01*
X138215290Y-123977428D01*
X138183765Y-124076806D01*
X138161719Y-124273351D01*
X123543539Y-124273351D01*
X123609527Y-124159056D01*
X123668542Y-123977428D01*
X123688504Y-123787500D01*
X123680881Y-123714974D01*
X123669232Y-123604135D01*
X123669232Y-123604133D01*
X123668542Y-123597572D01*
X123609527Y-123415944D01*
X123514040Y-123250556D01*
X123386253Y-123108634D01*
X123261545Y-123018028D01*
X123237094Y-123000263D01*
X123237093Y-123000262D01*
X123231752Y-122996382D01*
X123225724Y-122993698D01*
X123225722Y-122993697D01*
X123063319Y-122921391D01*
X123063318Y-122921391D01*
X123057288Y-122918706D01*
X122963887Y-122898853D01*
X122876944Y-122880372D01*
X122876939Y-122880372D01*
X122870487Y-122879000D01*
X122679513Y-122879000D01*
X122673061Y-122880372D01*
X122673056Y-122880372D01*
X122586113Y-122898853D01*
X122492712Y-122918706D01*
X122486682Y-122921391D01*
X122486681Y-122921391D01*
X122324278Y-122993697D01*
X122324276Y-122993698D01*
X122318248Y-122996382D01*
X122312907Y-123000262D01*
X122312906Y-123000263D01*
X122288455Y-123018028D01*
X122163747Y-123108634D01*
X122035960Y-123250556D01*
X121940473Y-123415944D01*
X121881458Y-123597572D01*
X121880768Y-123604133D01*
X121880768Y-123604135D01*
X121869119Y-123714974D01*
X121861496Y-123787500D01*
X118075000Y-123787500D01*
X118075000Y-122073351D01*
X126261719Y-122073351D01*
X126262235Y-122079495D01*
X126270996Y-122183826D01*
X126278268Y-122270434D01*
X126279967Y-122276358D01*
X126321913Y-122422641D01*
X126332783Y-122460550D01*
X126335602Y-122466035D01*
X126404415Y-122599929D01*
X126423187Y-122636456D01*
X126546035Y-122791453D01*
X126550728Y-122795447D01*
X126550729Y-122795448D01*
X126644598Y-122875336D01*
X126696650Y-122919636D01*
X126869294Y-123016124D01*
X127057392Y-123077240D01*
X127253777Y-123100658D01*
X127259912Y-123100186D01*
X127259914Y-123100186D01*
X127444830Y-123085957D01*
X127444834Y-123085956D01*
X127450972Y-123085484D01*
X127641463Y-123032298D01*
X127646967Y-123029518D01*
X127646969Y-123029517D01*
X127812495Y-122945904D01*
X127812497Y-122945903D01*
X127817996Y-122943125D01*
X127973847Y-122821361D01*
X128103078Y-122671645D01*
X128200769Y-122499679D01*
X128263197Y-122312013D01*
X128287985Y-122115795D01*
X128288380Y-122087500D01*
X128269080Y-121890667D01*
X128211916Y-121701331D01*
X128119066Y-121526704D01*
X128036655Y-121425658D01*
X127997960Y-121378213D01*
X127997957Y-121378210D01*
X127994065Y-121373438D01*
X127983011Y-121364293D01*
X127846425Y-121251299D01*
X127846421Y-121251297D01*
X127841675Y-121247370D01*
X127704781Y-121173351D01*
X128461719Y-121173351D01*
X128464564Y-121207231D01*
X128477359Y-121359604D01*
X128478268Y-121370434D01*
X128489752Y-121410484D01*
X128523078Y-121526704D01*
X128532783Y-121560550D01*
X128623187Y-121736456D01*
X128746035Y-121891453D01*
X128750728Y-121895447D01*
X128750729Y-121895448D01*
X128873201Y-121999679D01*
X128896650Y-122019636D01*
X129069294Y-122116124D01*
X129257392Y-122177240D01*
X129453777Y-122200658D01*
X129459912Y-122200186D01*
X129459914Y-122200186D01*
X129644830Y-122185957D01*
X129644834Y-122185956D01*
X129650972Y-122185484D01*
X129841463Y-122132298D01*
X129846967Y-122129518D01*
X129846969Y-122129517D01*
X130012495Y-122045904D01*
X130012497Y-122045903D01*
X130017996Y-122043125D01*
X130173847Y-121921361D01*
X130215288Y-121873351D01*
X141861719Y-121873351D01*
X141863688Y-121896801D01*
X141874468Y-122025176D01*
X141878268Y-122070434D01*
X141932783Y-122260550D01*
X141935602Y-122266035D01*
X142014543Y-122419636D01*
X142023187Y-122436456D01*
X142146035Y-122591453D01*
X142150728Y-122595447D01*
X142150729Y-122595448D01*
X142240261Y-122671645D01*
X142296650Y-122719636D01*
X142469294Y-122816124D01*
X142657392Y-122877240D01*
X142853777Y-122900658D01*
X142859912Y-122900186D01*
X142859914Y-122900186D01*
X143044830Y-122885957D01*
X143044834Y-122885956D01*
X143050972Y-122885484D01*
X143241463Y-122832298D01*
X143246967Y-122829518D01*
X143246969Y-122829517D01*
X143412495Y-122745904D01*
X143412497Y-122745903D01*
X143417996Y-122743125D01*
X143573847Y-122621361D01*
X143703078Y-122471645D01*
X143800769Y-122299679D01*
X143808527Y-122276358D01*
X143861252Y-122117861D01*
X143861253Y-122117858D01*
X143863197Y-122112013D01*
X143863483Y-122112108D01*
X143896522Y-122052907D01*
X143959146Y-122019458D01*
X144029912Y-122025176D01*
X144086352Y-122068245D01*
X144096854Y-122085218D01*
X144123187Y-122136456D01*
X144246035Y-122291453D01*
X144250728Y-122295447D01*
X144250729Y-122295448D01*
X144255701Y-122299679D01*
X144396650Y-122419636D01*
X144569294Y-122516124D01*
X144757392Y-122577240D01*
X144953777Y-122600658D01*
X144959912Y-122600186D01*
X144959914Y-122600186D01*
X145144830Y-122585957D01*
X145144834Y-122585956D01*
X145150972Y-122585484D01*
X145341463Y-122532298D01*
X145346967Y-122529518D01*
X145346969Y-122529517D01*
X145512495Y-122445904D01*
X145512497Y-122445903D01*
X145517996Y-122443125D01*
X145673847Y-122321361D01*
X145792564Y-122183826D01*
X145799049Y-122176313D01*
X145799050Y-122176311D01*
X145803078Y-122171645D01*
X145900769Y-121999679D01*
X145963197Y-121812013D01*
X145987985Y-121615795D01*
X145988380Y-121587500D01*
X145969080Y-121390667D01*
X145962295Y-121368192D01*
X145923452Y-121239540D01*
X145911916Y-121201331D01*
X145819066Y-121026704D01*
X145748709Y-120940438D01*
X145697960Y-120878213D01*
X145697957Y-120878210D01*
X145694065Y-120873438D01*
X145603643Y-120798634D01*
X145546425Y-120751299D01*
X145546421Y-120751297D01*
X145541675Y-120747370D01*
X145367701Y-120653302D01*
X145178768Y-120594818D01*
X145172643Y-120594174D01*
X145172642Y-120594174D01*
X144988204Y-120574789D01*
X144988202Y-120574789D01*
X144982075Y-120574145D01*
X144949759Y-120577086D01*
X144880107Y-120563341D01*
X144828942Y-120514120D01*
X144812700Y-120443048D01*
X144812985Y-120440795D01*
X144813380Y-120412500D01*
X144794080Y-120215667D01*
X144788336Y-120196640D01*
X144738697Y-120032231D01*
X144736916Y-120026331D01*
X144644066Y-119851704D01*
X144573709Y-119765438D01*
X144522960Y-119703213D01*
X144522957Y-119703210D01*
X144519065Y-119698438D01*
X144512724Y-119693192D01*
X144371425Y-119576299D01*
X144371421Y-119576297D01*
X144366675Y-119572370D01*
X144192701Y-119478302D01*
X144003768Y-119419818D01*
X143997643Y-119419174D01*
X143997642Y-119419174D01*
X143813204Y-119399789D01*
X143813202Y-119399789D01*
X143807075Y-119399145D01*
X143724576Y-119406653D01*
X143616251Y-119416511D01*
X143616248Y-119416512D01*
X143610112Y-119417070D01*
X143604206Y-119418808D01*
X143604202Y-119418809D01*
X143499076Y-119449749D01*
X143420381Y-119472910D01*
X143414923Y-119475763D01*
X143414919Y-119475765D01*
X143324147Y-119523220D01*
X143245110Y-119564540D01*
X143090975Y-119688468D01*
X142963846Y-119839974D01*
X142960879Y-119845372D01*
X142960875Y-119845377D01*
X142888622Y-119976806D01*
X142868567Y-120013287D01*
X142866706Y-120019154D01*
X142866705Y-120019156D01*
X142812031Y-120191511D01*
X142808765Y-120201806D01*
X142786719Y-120398351D01*
X142787235Y-120404495D01*
X142792584Y-120468192D01*
X142803268Y-120595434D01*
X142810865Y-120621928D01*
X142841177Y-120727639D01*
X142840726Y-120798634D01*
X142801964Y-120858115D01*
X142731479Y-120887850D01*
X142691251Y-120891511D01*
X142691248Y-120891512D01*
X142685112Y-120892070D01*
X142679206Y-120893808D01*
X142679202Y-120893809D01*
X142601435Y-120916697D01*
X142495381Y-120947910D01*
X142489923Y-120950763D01*
X142489919Y-120950765D01*
X142440108Y-120976806D01*
X142320110Y-121039540D01*
X142165975Y-121163468D01*
X142162011Y-121168192D01*
X142154419Y-121177240D01*
X142038846Y-121314974D01*
X142035879Y-121320372D01*
X142035875Y-121320377D01*
X141978494Y-121424754D01*
X141943567Y-121488287D01*
X141941706Y-121494154D01*
X141941705Y-121494156D01*
X141910977Y-121591023D01*
X141883765Y-121676806D01*
X141861719Y-121873351D01*
X130215288Y-121873351D01*
X130303078Y-121771645D01*
X130400769Y-121599679D01*
X130463197Y-121412013D01*
X130487985Y-121215795D01*
X130488203Y-121200186D01*
X130488331Y-121191023D01*
X130488331Y-121191020D01*
X130488380Y-121187500D01*
X130469080Y-120990667D01*
X130411916Y-120801331D01*
X130319066Y-120626704D01*
X130227245Y-120514120D01*
X130197960Y-120478213D01*
X130197957Y-120478210D01*
X130194065Y-120473438D01*
X130187724Y-120468192D01*
X130046425Y-120351299D01*
X130046421Y-120351297D01*
X130041675Y-120347370D01*
X129867701Y-120253302D01*
X129678768Y-120194818D01*
X129672643Y-120194174D01*
X129672642Y-120194174D01*
X129488204Y-120174789D01*
X129488202Y-120174789D01*
X129482075Y-120174145D01*
X129399576Y-120181653D01*
X129291251Y-120191511D01*
X129291248Y-120191512D01*
X129285112Y-120192070D01*
X129279206Y-120193808D01*
X129279202Y-120193809D01*
X129204935Y-120215667D01*
X129095381Y-120247910D01*
X129089923Y-120250763D01*
X129089919Y-120250765D01*
X128999147Y-120298220D01*
X128920110Y-120339540D01*
X128765975Y-120463468D01*
X128638846Y-120614974D01*
X128635879Y-120620372D01*
X128635875Y-120620377D01*
X128617775Y-120653302D01*
X128543567Y-120788287D01*
X128541706Y-120794154D01*
X128541705Y-120794156D01*
X128510841Y-120891453D01*
X128483765Y-120976806D01*
X128461719Y-121173351D01*
X127704781Y-121173351D01*
X127667701Y-121153302D01*
X127478768Y-121094818D01*
X127472643Y-121094174D01*
X127472642Y-121094174D01*
X127288204Y-121074789D01*
X127288202Y-121074789D01*
X127282075Y-121074145D01*
X127199576Y-121081653D01*
X127091251Y-121091511D01*
X127091248Y-121091512D01*
X127085112Y-121092070D01*
X127079206Y-121093808D01*
X127079202Y-121093809D01*
X127003382Y-121116124D01*
X126895381Y-121147910D01*
X126889923Y-121150763D01*
X126889919Y-121150765D01*
X126826680Y-121183826D01*
X126720110Y-121239540D01*
X126565975Y-121363468D01*
X126438846Y-121514974D01*
X126435879Y-121520372D01*
X126435875Y-121520377D01*
X126381493Y-121619299D01*
X126343567Y-121688287D01*
X126341706Y-121694154D01*
X126341705Y-121694156D01*
X126318825Y-121766284D01*
X126283765Y-121876806D01*
X126261719Y-122073351D01*
X118075000Y-122073351D01*
X118075000Y-120173351D01*
X131161719Y-120173351D01*
X131178268Y-120370434D01*
X131232783Y-120560550D01*
X131250711Y-120595434D01*
X131318656Y-120727639D01*
X131323187Y-120736456D01*
X131446035Y-120891453D01*
X131450728Y-120895447D01*
X131450729Y-120895448D01*
X131553515Y-120982925D01*
X131596650Y-121019636D01*
X131769294Y-121116124D01*
X131957392Y-121177240D01*
X132153777Y-121200658D01*
X132159912Y-121200186D01*
X132159914Y-121200186D01*
X132344830Y-121185957D01*
X132344834Y-121185956D01*
X132350972Y-121185484D01*
X132541463Y-121132298D01*
X132546967Y-121129518D01*
X132546969Y-121129517D01*
X132712495Y-121045904D01*
X132712497Y-121045903D01*
X132717996Y-121043125D01*
X132873847Y-120921361D01*
X133003078Y-120771645D01*
X133100769Y-120599679D01*
X133163197Y-120412013D01*
X133187985Y-120215795D01*
X133188380Y-120187500D01*
X133169080Y-119990667D01*
X133111916Y-119801331D01*
X133019066Y-119626704D01*
X132900422Y-119481232D01*
X132897960Y-119478213D01*
X132897957Y-119478210D01*
X132894065Y-119473438D01*
X132887724Y-119468192D01*
X132746425Y-119351299D01*
X132746421Y-119351297D01*
X132741675Y-119347370D01*
X132567701Y-119253302D01*
X132378768Y-119194818D01*
X132372643Y-119194174D01*
X132372642Y-119194174D01*
X132188204Y-119174789D01*
X132188202Y-119174789D01*
X132182075Y-119174145D01*
X132099576Y-119181653D01*
X131991251Y-119191511D01*
X131991248Y-119191512D01*
X131985112Y-119192070D01*
X131979206Y-119193808D01*
X131979202Y-119193809D01*
X131874076Y-119224749D01*
X131795381Y-119247910D01*
X131789923Y-119250763D01*
X131789919Y-119250765D01*
X131732061Y-119281013D01*
X131620110Y-119339540D01*
X131465975Y-119463468D01*
X131338846Y-119614974D01*
X131335879Y-119620372D01*
X131335875Y-119620377D01*
X131257095Y-119763680D01*
X131243567Y-119788287D01*
X131241706Y-119794154D01*
X131241705Y-119794156D01*
X131228670Y-119835247D01*
X131183765Y-119976806D01*
X131161719Y-120173351D01*
X118075000Y-120173351D01*
X118075000Y-117357152D01*
X135366524Y-117357152D01*
X135368990Y-117365781D01*
X135368991Y-117365786D01*
X135374639Y-117385548D01*
X135378217Y-117402309D01*
X135381130Y-117422652D01*
X135381133Y-117422662D01*
X135382405Y-117431545D01*
X135393021Y-117454895D01*
X135399464Y-117472407D01*
X135406512Y-117497065D01*
X135422274Y-117522048D01*
X135430404Y-117537114D01*
X135442633Y-117564010D01*
X135459374Y-117583439D01*
X135470479Y-117598447D01*
X135484160Y-117620131D01*
X135490888Y-117626073D01*
X135506296Y-117639681D01*
X135518340Y-117651873D01*
X135537619Y-117674247D01*
X135545147Y-117679126D01*
X135545150Y-117679129D01*
X135559139Y-117688196D01*
X135574013Y-117699486D01*
X135593228Y-117716456D01*
X135601354Y-117720271D01*
X135601355Y-117720272D01*
X135607021Y-117722932D01*
X135619966Y-117729010D01*
X135634935Y-117737324D01*
X135659727Y-117753393D01*
X135676650Y-117758454D01*
X135684290Y-117760739D01*
X135701736Y-117767401D01*
X135724948Y-117778299D01*
X135754130Y-117782843D01*
X135770849Y-117786626D01*
X135790536Y-117792514D01*
X135790539Y-117792515D01*
X135799141Y-117795087D01*
X135808116Y-117795142D01*
X135808117Y-117795142D01*
X135814810Y-117795183D01*
X135833556Y-117795297D01*
X135834328Y-117795330D01*
X135835423Y-117795500D01*
X135866298Y-117795500D01*
X135867068Y-117795502D01*
X135940716Y-117795952D01*
X135940717Y-117795952D01*
X135944652Y-117795976D01*
X135945996Y-117795592D01*
X135947341Y-117795500D01*
X138966298Y-117795500D01*
X138967069Y-117795502D01*
X139044652Y-117795976D01*
X139053281Y-117793510D01*
X139053286Y-117793509D01*
X139073048Y-117787861D01*
X139089809Y-117784283D01*
X139110152Y-117781370D01*
X139110162Y-117781367D01*
X139119045Y-117780095D01*
X139142395Y-117769479D01*
X139159907Y-117763036D01*
X139175937Y-117758454D01*
X139184565Y-117755988D01*
X139209548Y-117740226D01*
X139224614Y-117732096D01*
X139251510Y-117719867D01*
X139270939Y-117703126D01*
X139285947Y-117692021D01*
X139300039Y-117683130D01*
X139307631Y-117678340D01*
X139327182Y-117656203D01*
X139339374Y-117644159D01*
X139354949Y-117630739D01*
X139354950Y-117630737D01*
X139361747Y-117624881D01*
X139366626Y-117617353D01*
X139366629Y-117617350D01*
X139375696Y-117603361D01*
X139386986Y-117588487D01*
X139398012Y-117576002D01*
X139403956Y-117569272D01*
X139416510Y-117542534D01*
X139424824Y-117527565D01*
X139440893Y-117502773D01*
X139448239Y-117478209D01*
X139454901Y-117460764D01*
X139461983Y-117445679D01*
X139465799Y-117437552D01*
X139470343Y-117408370D01*
X139474126Y-117391651D01*
X139480014Y-117371964D01*
X139480015Y-117371961D01*
X139482587Y-117363359D01*
X139482625Y-117357152D01*
X152466524Y-117357152D01*
X152468990Y-117365781D01*
X152468991Y-117365786D01*
X152474639Y-117385548D01*
X152478217Y-117402309D01*
X152481130Y-117422652D01*
X152481133Y-117422662D01*
X152482405Y-117431545D01*
X152493021Y-117454895D01*
X152499464Y-117472407D01*
X152506512Y-117497065D01*
X152522274Y-117522048D01*
X152530404Y-117537114D01*
X152542633Y-117564010D01*
X152559374Y-117583439D01*
X152570479Y-117598447D01*
X152584160Y-117620131D01*
X152590888Y-117626073D01*
X152606296Y-117639681D01*
X152618340Y-117651873D01*
X152637619Y-117674247D01*
X152645147Y-117679126D01*
X152645150Y-117679129D01*
X152659139Y-117688196D01*
X152674013Y-117699486D01*
X152693228Y-117716456D01*
X152701354Y-117720271D01*
X152701355Y-117720272D01*
X152707021Y-117722932D01*
X152719966Y-117729010D01*
X152734935Y-117737324D01*
X152759727Y-117753393D01*
X152776650Y-117758454D01*
X152784290Y-117760739D01*
X152801736Y-117767401D01*
X152824948Y-117778299D01*
X152854130Y-117782843D01*
X152870849Y-117786626D01*
X152890536Y-117792514D01*
X152890539Y-117792515D01*
X152899141Y-117795087D01*
X152908116Y-117795142D01*
X152908117Y-117795142D01*
X152914810Y-117795183D01*
X152933556Y-117795297D01*
X152934328Y-117795330D01*
X152935423Y-117795500D01*
X152966298Y-117795500D01*
X152967068Y-117795502D01*
X153040716Y-117795952D01*
X153040717Y-117795952D01*
X153044652Y-117795976D01*
X153045996Y-117795592D01*
X153047341Y-117795500D01*
X156066298Y-117795500D01*
X156067069Y-117795502D01*
X156144652Y-117795976D01*
X156153281Y-117793510D01*
X156153286Y-117793509D01*
X156173048Y-117787861D01*
X156189809Y-117784283D01*
X156210152Y-117781370D01*
X156210162Y-117781367D01*
X156219045Y-117780095D01*
X156242395Y-117769479D01*
X156259907Y-117763036D01*
X156275937Y-117758454D01*
X156284565Y-117755988D01*
X156309548Y-117740226D01*
X156324614Y-117732096D01*
X156351510Y-117719867D01*
X156370939Y-117703126D01*
X156385947Y-117692021D01*
X156400039Y-117683130D01*
X156407631Y-117678340D01*
X156427182Y-117656203D01*
X156439374Y-117644159D01*
X156454949Y-117630739D01*
X156454950Y-117630737D01*
X156461747Y-117624881D01*
X156466626Y-117617353D01*
X156466629Y-117617350D01*
X156475696Y-117603361D01*
X156486986Y-117588487D01*
X156498012Y-117576002D01*
X156503956Y-117569272D01*
X156516510Y-117542534D01*
X156524824Y-117527565D01*
X156540893Y-117502773D01*
X156548239Y-117478209D01*
X156554901Y-117460764D01*
X156561983Y-117445679D01*
X156565799Y-117437552D01*
X156570343Y-117408370D01*
X156574126Y-117391651D01*
X156580014Y-117371964D01*
X156580015Y-117371961D01*
X156582587Y-117363359D01*
X156582797Y-117328944D01*
X156582830Y-117328172D01*
X156583000Y-117327077D01*
X156583000Y-117296202D01*
X156583002Y-117295432D01*
X156583452Y-117221784D01*
X156583452Y-117221783D01*
X156583476Y-117217848D01*
X156583092Y-117216504D01*
X156583000Y-117215159D01*
X156583000Y-116096202D01*
X156583002Y-116095432D01*
X156583062Y-116085634D01*
X166841500Y-116085634D01*
X166848255Y-116147816D01*
X166899385Y-116284205D01*
X166986739Y-116400761D01*
X167103295Y-116488115D01*
X167239684Y-116539245D01*
X167301866Y-116546000D01*
X169098134Y-116546000D01*
X169160316Y-116539245D01*
X169296705Y-116488115D01*
X169413261Y-116400761D01*
X169500615Y-116284205D01*
X169522799Y-116225029D01*
X169544598Y-116166882D01*
X169587240Y-116110118D01*
X169653802Y-116085418D01*
X169723150Y-116100626D01*
X169757817Y-116128614D01*
X169786250Y-116161438D01*
X169958126Y-116304132D01*
X170151000Y-116416838D01*
X170359692Y-116496530D01*
X170364760Y-116497561D01*
X170364763Y-116497562D01*
X170472017Y-116519383D01*
X170578597Y-116541067D01*
X170583772Y-116541257D01*
X170583774Y-116541257D01*
X170796673Y-116549064D01*
X170796677Y-116549064D01*
X170801837Y-116549253D01*
X170806957Y-116548597D01*
X170806959Y-116548597D01*
X171018288Y-116521525D01*
X171018289Y-116521525D01*
X171023416Y-116520868D01*
X171028366Y-116519383D01*
X171232429Y-116458161D01*
X171232434Y-116458159D01*
X171237384Y-116456674D01*
X171437994Y-116358396D01*
X171619860Y-116228673D01*
X171778096Y-116070989D01*
X171792524Y-116050911D01*
X171905435Y-115893777D01*
X171908453Y-115889577D01*
X171912778Y-115880827D01*
X172005136Y-115693953D01*
X172005137Y-115693951D01*
X172007430Y-115689311D01*
X172072370Y-115475569D01*
X172101529Y-115254090D01*
X172103156Y-115187500D01*
X172084852Y-114964861D01*
X172030431Y-114748202D01*
X171941354Y-114543340D01*
X171891391Y-114466109D01*
X171822822Y-114360117D01*
X171822820Y-114360114D01*
X171820014Y-114355777D01*
X171669670Y-114190551D01*
X171665619Y-114187352D01*
X171665615Y-114187348D01*
X171498414Y-114055300D01*
X171498410Y-114055298D01*
X171494359Y-114052098D01*
X171458249Y-114032164D01*
X171411537Y-114006378D01*
X171298789Y-113944138D01*
X171293920Y-113942414D01*
X171293916Y-113942412D01*
X171093087Y-113871295D01*
X171093083Y-113871294D01*
X171088212Y-113869569D01*
X171083119Y-113868662D01*
X171083116Y-113868661D01*
X170873373Y-113831300D01*
X170873367Y-113831299D01*
X170868284Y-113830394D01*
X170794452Y-113829492D01*
X170650081Y-113827728D01*
X170650079Y-113827728D01*
X170644911Y-113827665D01*
X170424091Y-113861455D01*
X170211756Y-113930857D01*
X170181443Y-113946637D01*
X170086791Y-113995910D01*
X170013607Y-114034007D01*
X170009474Y-114037110D01*
X170009471Y-114037112D01*
X169839100Y-114165030D01*
X169834965Y-114168135D01*
X169778537Y-114227184D01*
X169754283Y-114252564D01*
X169692759Y-114287994D01*
X169621846Y-114284537D01*
X169564060Y-114243291D01*
X169545207Y-114209743D01*
X169503767Y-114099203D01*
X169500615Y-114090795D01*
X169413261Y-113974239D01*
X169296705Y-113886885D01*
X169160316Y-113835755D01*
X169098134Y-113829000D01*
X167301866Y-113829000D01*
X167239684Y-113835755D01*
X167103295Y-113886885D01*
X166986739Y-113974239D01*
X166899385Y-114090795D01*
X166848255Y-114227184D01*
X166841500Y-114289366D01*
X166841500Y-116085634D01*
X156583062Y-116085634D01*
X156583421Y-116026822D01*
X156583476Y-116017848D01*
X156581010Y-116009219D01*
X156581009Y-116009214D01*
X156575361Y-115989452D01*
X156571783Y-115972691D01*
X156568870Y-115952348D01*
X156568867Y-115952338D01*
X156567595Y-115943455D01*
X156556979Y-115920105D01*
X156550536Y-115902593D01*
X156545954Y-115886563D01*
X156543488Y-115877935D01*
X156527726Y-115852952D01*
X156519596Y-115837886D01*
X156507367Y-115810990D01*
X156490626Y-115791561D01*
X156479521Y-115776553D01*
X156470630Y-115762461D01*
X156465840Y-115754869D01*
X156443703Y-115735318D01*
X156431659Y-115723126D01*
X156418239Y-115707551D01*
X156418237Y-115707550D01*
X156412381Y-115700753D01*
X156404853Y-115695874D01*
X156404850Y-115695871D01*
X156390861Y-115686804D01*
X156375987Y-115675514D01*
X156363502Y-115664488D01*
X156356772Y-115658544D01*
X156348646Y-115654729D01*
X156348645Y-115654728D01*
X156342979Y-115652068D01*
X156330034Y-115645990D01*
X156315065Y-115637676D01*
X156290273Y-115621607D01*
X156265709Y-115614261D01*
X156248264Y-115607599D01*
X156243827Y-115605516D01*
X156225052Y-115596701D01*
X156195870Y-115592157D01*
X156179151Y-115588374D01*
X156159464Y-115582486D01*
X156159461Y-115582485D01*
X156150859Y-115579913D01*
X156141884Y-115579858D01*
X156141883Y-115579858D01*
X156135190Y-115579817D01*
X156116444Y-115579703D01*
X156115672Y-115579670D01*
X156114577Y-115579500D01*
X156083702Y-115579500D01*
X156082932Y-115579498D01*
X156009284Y-115579048D01*
X156009283Y-115579048D01*
X156005348Y-115579024D01*
X156004004Y-115579408D01*
X156002659Y-115579500D01*
X152983702Y-115579500D01*
X152982932Y-115579498D01*
X152982078Y-115579493D01*
X152905348Y-115579024D01*
X152896719Y-115581490D01*
X152896714Y-115581491D01*
X152876952Y-115587139D01*
X152860191Y-115590717D01*
X152839848Y-115593630D01*
X152839838Y-115593633D01*
X152830955Y-115594905D01*
X152807605Y-115605521D01*
X152790093Y-115611964D01*
X152782057Y-115614261D01*
X152765435Y-115619012D01*
X152740452Y-115634774D01*
X152725386Y-115642904D01*
X152698490Y-115655133D01*
X152679061Y-115671874D01*
X152664053Y-115682979D01*
X152642369Y-115696660D01*
X152636427Y-115703388D01*
X152622819Y-115718796D01*
X152610627Y-115730840D01*
X152588253Y-115750119D01*
X152583374Y-115757647D01*
X152583371Y-115757650D01*
X152574304Y-115771639D01*
X152563014Y-115786513D01*
X152546044Y-115805728D01*
X152533490Y-115832466D01*
X152525176Y-115847435D01*
X152509107Y-115872227D01*
X152506535Y-115880827D01*
X152501761Y-115896790D01*
X152495099Y-115914236D01*
X152484201Y-115937448D01*
X152479739Y-115966109D01*
X152479658Y-115966628D01*
X152475874Y-115983349D01*
X152469986Y-116003036D01*
X152469985Y-116003039D01*
X152467413Y-116011641D01*
X152467358Y-116020616D01*
X152467358Y-116020617D01*
X152467203Y-116046046D01*
X152467170Y-116046828D01*
X152467000Y-116047923D01*
X152467000Y-116078798D01*
X152466998Y-116079568D01*
X152466524Y-116157152D01*
X152466908Y-116158496D01*
X152467000Y-116159841D01*
X152467000Y-117278798D01*
X152466998Y-117279568D01*
X152466524Y-117357152D01*
X139482625Y-117357152D01*
X139482797Y-117328944D01*
X139482830Y-117328172D01*
X139483000Y-117327077D01*
X139483000Y-117296202D01*
X139483002Y-117295432D01*
X139483452Y-117221784D01*
X139483452Y-117221783D01*
X139483476Y-117217848D01*
X139483092Y-117216504D01*
X139483000Y-117215159D01*
X139483000Y-116096202D01*
X139483002Y-116095432D01*
X139483421Y-116026822D01*
X139483476Y-116017848D01*
X139481010Y-116009219D01*
X139481009Y-116009214D01*
X139475361Y-115989452D01*
X139471783Y-115972691D01*
X139468870Y-115952348D01*
X139468867Y-115952338D01*
X139467595Y-115943455D01*
X139456979Y-115920105D01*
X139450536Y-115902593D01*
X139445954Y-115886563D01*
X139443488Y-115877935D01*
X139427726Y-115852952D01*
X139419596Y-115837886D01*
X139407367Y-115810990D01*
X139390626Y-115791561D01*
X139379521Y-115776553D01*
X139370630Y-115762461D01*
X139365840Y-115754869D01*
X139343703Y-115735318D01*
X139331659Y-115723126D01*
X139318239Y-115707551D01*
X139318237Y-115707550D01*
X139312381Y-115700753D01*
X139304853Y-115695874D01*
X139304850Y-115695871D01*
X139290861Y-115686804D01*
X139275987Y-115675514D01*
X139263502Y-115664488D01*
X139256772Y-115658544D01*
X139248646Y-115654729D01*
X139248645Y-115654728D01*
X139242979Y-115652068D01*
X139230034Y-115645990D01*
X139215065Y-115637676D01*
X139190273Y-115621607D01*
X139165709Y-115614261D01*
X139148264Y-115607599D01*
X139143827Y-115605516D01*
X139125052Y-115596701D01*
X139095870Y-115592157D01*
X139079151Y-115588374D01*
X139059464Y-115582486D01*
X139059461Y-115582485D01*
X139050859Y-115579913D01*
X139041884Y-115579858D01*
X139041883Y-115579858D01*
X139035190Y-115579817D01*
X139016444Y-115579703D01*
X139015672Y-115579670D01*
X139014577Y-115579500D01*
X138983702Y-115579500D01*
X138982932Y-115579498D01*
X138909284Y-115579048D01*
X138909283Y-115579048D01*
X138905348Y-115579024D01*
X138904004Y-115579408D01*
X138902659Y-115579500D01*
X135883702Y-115579500D01*
X135882932Y-115579498D01*
X135882078Y-115579493D01*
X135805348Y-115579024D01*
X135796719Y-115581490D01*
X135796714Y-115581491D01*
X135776952Y-115587139D01*
X135760191Y-115590717D01*
X135739848Y-115593630D01*
X135739838Y-115593633D01*
X135730955Y-115594905D01*
X135707605Y-115605521D01*
X135690093Y-115611964D01*
X135682057Y-115614261D01*
X135665435Y-115619012D01*
X135640452Y-115634774D01*
X135625386Y-115642904D01*
X135598490Y-115655133D01*
X135579061Y-115671874D01*
X135564053Y-115682979D01*
X135542369Y-115696660D01*
X135536427Y-115703388D01*
X135522819Y-115718796D01*
X135510627Y-115730840D01*
X135488253Y-115750119D01*
X135483374Y-115757647D01*
X135483371Y-115757650D01*
X135474304Y-115771639D01*
X135463014Y-115786513D01*
X135446044Y-115805728D01*
X135433490Y-115832466D01*
X135425176Y-115847435D01*
X135409107Y-115872227D01*
X135406535Y-115880827D01*
X135401761Y-115896790D01*
X135395099Y-115914236D01*
X135384201Y-115937448D01*
X135379739Y-115966109D01*
X135379658Y-115966628D01*
X135375874Y-115983349D01*
X135369986Y-116003036D01*
X135369985Y-116003039D01*
X135367413Y-116011641D01*
X135367358Y-116020616D01*
X135367358Y-116020617D01*
X135367203Y-116046046D01*
X135367170Y-116046828D01*
X135367000Y-116047923D01*
X135367000Y-116078798D01*
X135366998Y-116079568D01*
X135366524Y-116157152D01*
X135366908Y-116158496D01*
X135367000Y-116159841D01*
X135367000Y-117278798D01*
X135366998Y-117279568D01*
X135366524Y-117357152D01*
X118075000Y-117357152D01*
X118075000Y-115100000D01*
X124886496Y-115100000D01*
X124887186Y-115106565D01*
X124895693Y-115187500D01*
X124906458Y-115289928D01*
X124965473Y-115471556D01*
X125060960Y-115636944D01*
X125065378Y-115641851D01*
X125065379Y-115641852D01*
X125161790Y-115748927D01*
X125188747Y-115778866D01*
X125232962Y-115810990D01*
X125336979Y-115886563D01*
X125343248Y-115891118D01*
X125349276Y-115893802D01*
X125349278Y-115893803D01*
X125480773Y-115952348D01*
X125517712Y-115968794D01*
X125586188Y-115983349D01*
X125698056Y-116007128D01*
X125698061Y-116007128D01*
X125704513Y-116008500D01*
X125895487Y-116008500D01*
X125901939Y-116007128D01*
X125901944Y-116007128D01*
X126013812Y-115983349D01*
X126082288Y-115968794D01*
X126119227Y-115952348D01*
X126250722Y-115893803D01*
X126250724Y-115893802D01*
X126256752Y-115891118D01*
X126263022Y-115886563D01*
X126367038Y-115810990D01*
X126411253Y-115778866D01*
X126506365Y-115673233D01*
X126566810Y-115635994D01*
X126637793Y-115637346D01*
X126693635Y-115673233D01*
X126788747Y-115778866D01*
X126832962Y-115810990D01*
X126936979Y-115886563D01*
X126943248Y-115891118D01*
X126949276Y-115893802D01*
X126949278Y-115893803D01*
X127080773Y-115952348D01*
X127117712Y-115968794D01*
X127186188Y-115983349D01*
X127298056Y-116007128D01*
X127298061Y-116007128D01*
X127304513Y-116008500D01*
X127495487Y-116008500D01*
X127501939Y-116007128D01*
X127501944Y-116007128D01*
X127613812Y-115983349D01*
X127682288Y-115968794D01*
X127719227Y-115952348D01*
X127850722Y-115893803D01*
X127850724Y-115893802D01*
X127856752Y-115891118D01*
X127863022Y-115886563D01*
X127967038Y-115810990D01*
X128011253Y-115778866D01*
X128038210Y-115748927D01*
X128134621Y-115641852D01*
X128134622Y-115641851D01*
X128139040Y-115636944D01*
X128234527Y-115471556D01*
X128293542Y-115289928D01*
X128304308Y-115187500D01*
X128312814Y-115106565D01*
X128313504Y-115100000D01*
X128686496Y-115100000D01*
X128687186Y-115106565D01*
X128695693Y-115187500D01*
X128706458Y-115289928D01*
X128765473Y-115471556D01*
X128860960Y-115636944D01*
X128865378Y-115641851D01*
X128865379Y-115641852D01*
X128961790Y-115748927D01*
X128988747Y-115778866D01*
X129032962Y-115810990D01*
X129136979Y-115886563D01*
X129143248Y-115891118D01*
X129149276Y-115893802D01*
X129149278Y-115893803D01*
X129280773Y-115952348D01*
X129317712Y-115968794D01*
X129386188Y-115983349D01*
X129498056Y-116007128D01*
X129498061Y-116007128D01*
X129504513Y-116008500D01*
X129695487Y-116008500D01*
X129701939Y-116007128D01*
X129701944Y-116007128D01*
X129813812Y-115983349D01*
X129882288Y-115968794D01*
X129919227Y-115952348D01*
X130050722Y-115893803D01*
X130050724Y-115893802D01*
X130056752Y-115891118D01*
X130063022Y-115886563D01*
X130167038Y-115810990D01*
X130211253Y-115778866D01*
X130238210Y-115748927D01*
X130334621Y-115641852D01*
X130334622Y-115641851D01*
X130339040Y-115636944D01*
X130434527Y-115471556D01*
X130493542Y-115289928D01*
X130504308Y-115187500D01*
X130512814Y-115106565D01*
X130513504Y-115100000D01*
X130499843Y-114970022D01*
X130494232Y-114916635D01*
X130494232Y-114916633D01*
X130493542Y-114910072D01*
X130434527Y-114728444D01*
X130339040Y-114563056D01*
X130306365Y-114526766D01*
X130215675Y-114426045D01*
X130215674Y-114426044D01*
X130211253Y-114421134D01*
X130056752Y-114308882D01*
X130050724Y-114306198D01*
X130050722Y-114306197D01*
X129888319Y-114233891D01*
X129888318Y-114233891D01*
X129882288Y-114231206D01*
X129781313Y-114209743D01*
X129701944Y-114192872D01*
X129701939Y-114192872D01*
X129695487Y-114191500D01*
X129504513Y-114191500D01*
X129498061Y-114192872D01*
X129498056Y-114192872D01*
X129418687Y-114209743D01*
X129317712Y-114231206D01*
X129311682Y-114233891D01*
X129311681Y-114233891D01*
X129149278Y-114306197D01*
X129149276Y-114306198D01*
X129143248Y-114308882D01*
X128988747Y-114421134D01*
X128984326Y-114426044D01*
X128984325Y-114426045D01*
X128893636Y-114526766D01*
X128860960Y-114563056D01*
X128765473Y-114728444D01*
X128706458Y-114910072D01*
X128705768Y-114916633D01*
X128705768Y-114916635D01*
X128700157Y-114970022D01*
X128686496Y-115100000D01*
X128313504Y-115100000D01*
X128299843Y-114970022D01*
X128294232Y-114916635D01*
X128294232Y-114916633D01*
X128293542Y-114910072D01*
X128234527Y-114728444D01*
X128139040Y-114563056D01*
X128106365Y-114526766D01*
X128015675Y-114426045D01*
X128015674Y-114426044D01*
X128011253Y-114421134D01*
X127856752Y-114308882D01*
X127850724Y-114306198D01*
X127850722Y-114306197D01*
X127688319Y-114233891D01*
X127688318Y-114233891D01*
X127682288Y-114231206D01*
X127530209Y-114198880D01*
X127467737Y-114165153D01*
X127433415Y-114103003D01*
X127438143Y-114032164D01*
X127480419Y-113975126D01*
X127522519Y-113954277D01*
X127531035Y-113951899D01*
X127531036Y-113951899D01*
X127536980Y-113950239D01*
X127542484Y-113947459D01*
X127542486Y-113947458D01*
X127708012Y-113863845D01*
X127708014Y-113863844D01*
X127713513Y-113861066D01*
X127869364Y-113739302D01*
X127998595Y-113589586D01*
X128096286Y-113417620D01*
X128158714Y-113229954D01*
X128183502Y-113033736D01*
X128183897Y-113005441D01*
X128164597Y-112808608D01*
X128107433Y-112619272D01*
X128014583Y-112444645D01*
X127944226Y-112358379D01*
X127893477Y-112296154D01*
X127893474Y-112296151D01*
X127889582Y-112291379D01*
X127883241Y-112286133D01*
X127741942Y-112169240D01*
X127741938Y-112169238D01*
X127737192Y-112165311D01*
X127563218Y-112071243D01*
X127374285Y-112012759D01*
X127368160Y-112012115D01*
X127368159Y-112012115D01*
X127183721Y-111992730D01*
X127183719Y-111992730D01*
X127177592Y-111992086D01*
X127095093Y-111999594D01*
X126986768Y-112009452D01*
X126986765Y-112009453D01*
X126980629Y-112010011D01*
X126974723Y-112011749D01*
X126974719Y-112011750D01*
X126869593Y-112042690D01*
X126790898Y-112065851D01*
X126785440Y-112068704D01*
X126785436Y-112068706D01*
X126694664Y-112116161D01*
X126615627Y-112157481D01*
X126461492Y-112281409D01*
X126334363Y-112432915D01*
X126331396Y-112438313D01*
X126331392Y-112438318D01*
X126258771Y-112570418D01*
X126239084Y-112606228D01*
X126237223Y-112612095D01*
X126237222Y-112612097D01*
X126198587Y-112733891D01*
X126179282Y-112794747D01*
X126157236Y-112991292D01*
X126157752Y-112997436D01*
X126172141Y-113168794D01*
X126173785Y-113188375D01*
X126182715Y-113219517D01*
X126214276Y-113329582D01*
X126228300Y-113378491D01*
X126318704Y-113554397D01*
X126441552Y-113709394D01*
X126446245Y-113713388D01*
X126446246Y-113713389D01*
X126584792Y-113831300D01*
X126592167Y-113837577D01*
X126764811Y-113934065D01*
X126952909Y-113995181D01*
X127022044Y-114003425D01*
X127046808Y-114006378D01*
X127112081Y-114034306D01*
X127151894Y-114093089D01*
X127153606Y-114164065D01*
X127116674Y-114224699D01*
X127083138Y-114246599D01*
X126949278Y-114306197D01*
X126949276Y-114306198D01*
X126943248Y-114308882D01*
X126788747Y-114421134D01*
X126710083Y-114508500D01*
X126693636Y-114526766D01*
X126633190Y-114564006D01*
X126562207Y-114562654D01*
X126506364Y-114526766D01*
X126489918Y-114508500D01*
X126411253Y-114421134D01*
X126256752Y-114308882D01*
X126250724Y-114306198D01*
X126250722Y-114306197D01*
X126088319Y-114233891D01*
X126088318Y-114233891D01*
X126082288Y-114231206D01*
X125981313Y-114209743D01*
X125901944Y-114192872D01*
X125901939Y-114192872D01*
X125895487Y-114191500D01*
X125704513Y-114191500D01*
X125698061Y-114192872D01*
X125698056Y-114192872D01*
X125618687Y-114209743D01*
X125517712Y-114231206D01*
X125511682Y-114233891D01*
X125511681Y-114233891D01*
X125349278Y-114306197D01*
X125349276Y-114306198D01*
X125343248Y-114308882D01*
X125188747Y-114421134D01*
X125184326Y-114426044D01*
X125184325Y-114426045D01*
X125093636Y-114526766D01*
X125060960Y-114563056D01*
X124965473Y-114728444D01*
X124906458Y-114910072D01*
X124905768Y-114916633D01*
X124905768Y-114916635D01*
X124900157Y-114970022D01*
X124886496Y-115100000D01*
X118075000Y-115100000D01*
X118075000Y-113334131D01*
X118095002Y-113266010D01*
X118148658Y-113219517D01*
X118204513Y-113210396D01*
X118204513Y-113208500D01*
X118395487Y-113208500D01*
X118401939Y-113207128D01*
X118401944Y-113207128D01*
X118582288Y-113168794D01*
X118582664Y-113170562D01*
X118644806Y-113168785D01*
X118705605Y-113205446D01*
X118736932Y-113269157D01*
X118732611Y-113329582D01*
X118706458Y-113410072D01*
X118705768Y-113416633D01*
X118705768Y-113416635D01*
X118705101Y-113422983D01*
X118686496Y-113600000D01*
X118687186Y-113606565D01*
X118698414Y-113713389D01*
X118706458Y-113789928D01*
X118765473Y-113971556D01*
X118768776Y-113977278D01*
X118768777Y-113977279D01*
X118792633Y-114018599D01*
X118860960Y-114136944D01*
X118865378Y-114141851D01*
X118865379Y-114141852D01*
X118984325Y-114273955D01*
X118988747Y-114278866D01*
X119143248Y-114391118D01*
X119149276Y-114393802D01*
X119149278Y-114393803D01*
X119311681Y-114466109D01*
X119317712Y-114468794D01*
X119411113Y-114488647D01*
X119498056Y-114507128D01*
X119498061Y-114507128D01*
X119504513Y-114508500D01*
X119695487Y-114508500D01*
X119701939Y-114507128D01*
X119701944Y-114507128D01*
X119788887Y-114488647D01*
X119882288Y-114468794D01*
X119888319Y-114466109D01*
X120050722Y-114393803D01*
X120050724Y-114393802D01*
X120056752Y-114391118D01*
X120211253Y-114278866D01*
X120215675Y-114273955D01*
X120334621Y-114141852D01*
X120334622Y-114141851D01*
X120339040Y-114136944D01*
X120407367Y-114018599D01*
X120431223Y-113977279D01*
X120431224Y-113977278D01*
X120434527Y-113971556D01*
X120493542Y-113789928D01*
X120501587Y-113713389D01*
X120512814Y-113606565D01*
X120513504Y-113600000D01*
X120494899Y-113422983D01*
X120494232Y-113416635D01*
X120494232Y-113416633D01*
X120493542Y-113410072D01*
X120434527Y-113228444D01*
X120339040Y-113063056D01*
X120290336Y-113008964D01*
X120215675Y-112926045D01*
X120215674Y-112926044D01*
X120211253Y-112921134D01*
X120056752Y-112808882D01*
X120050724Y-112806198D01*
X120050722Y-112806197D01*
X119888319Y-112733891D01*
X119888318Y-112733891D01*
X119882288Y-112731206D01*
X119788888Y-112711353D01*
X119701944Y-112692872D01*
X119701939Y-112692872D01*
X119695487Y-112691500D01*
X119504513Y-112691500D01*
X119498061Y-112692872D01*
X119498056Y-112692872D01*
X119317712Y-112731206D01*
X119317336Y-112729438D01*
X119255194Y-112731215D01*
X119194395Y-112694554D01*
X119163068Y-112630843D01*
X119167389Y-112570418D01*
X119191502Y-112496206D01*
X119193542Y-112489928D01*
X119198302Y-112444645D01*
X119212814Y-112306565D01*
X119213504Y-112300000D01*
X119193542Y-112110072D01*
X119134527Y-111928444D01*
X119039040Y-111763056D01*
X118911253Y-111621134D01*
X118756752Y-111508882D01*
X118750724Y-111506198D01*
X118750722Y-111506197D01*
X118615227Y-111445871D01*
X118561131Y-111399891D01*
X118540482Y-111331963D01*
X118549569Y-111283767D01*
X118588524Y-111186864D01*
X118632491Y-111131120D01*
X118699616Y-111107995D01*
X118737403Y-111111985D01*
X118833139Y-111137101D01*
X118920586Y-111138474D01*
X118997003Y-111139675D01*
X118997006Y-111139675D01*
X119004602Y-111139794D01*
X119012006Y-111138098D01*
X119012008Y-111138098D01*
X119095808Y-111118905D01*
X119171759Y-111101510D01*
X119324958Y-111024459D01*
X119330731Y-111019528D01*
X119330736Y-111019525D01*
X119400754Y-110959724D01*
X119465543Y-110930693D01*
X119535743Y-110941298D01*
X119555574Y-110952829D01*
X119560944Y-110956645D01*
X119566565Y-110961760D01*
X119717268Y-111043585D01*
X119883139Y-111087101D01*
X119970586Y-111088474D01*
X120047003Y-111089675D01*
X120047006Y-111089675D01*
X120054602Y-111089794D01*
X120062006Y-111088098D01*
X120062008Y-111088098D01*
X120130719Y-111072361D01*
X120221759Y-111051510D01*
X120374958Y-110974459D01*
X120380731Y-110969528D01*
X120380736Y-110969525D01*
X120404331Y-110949373D01*
X120469120Y-110920342D01*
X120539320Y-110930947D01*
X120554174Y-110939585D01*
X120556565Y-110941760D01*
X120707268Y-111023585D01*
X120873139Y-111067101D01*
X120960586Y-111068474D01*
X121037003Y-111069675D01*
X121037006Y-111069675D01*
X121044602Y-111069794D01*
X121052006Y-111068098D01*
X121052008Y-111068098D01*
X121150627Y-111045511D01*
X121211759Y-111031510D01*
X121364958Y-110954459D01*
X121440059Y-110890317D01*
X121504848Y-110861286D01*
X121575048Y-110871891D01*
X121594880Y-110883423D01*
X121600120Y-110887147D01*
X121605739Y-110892260D01*
X121612414Y-110895884D01*
X121612415Y-110895885D01*
X121635412Y-110908371D01*
X121756442Y-110974085D01*
X121922313Y-111017601D01*
X122009760Y-111018974D01*
X122086177Y-111020175D01*
X122086180Y-111020175D01*
X122093776Y-111020294D01*
X122101180Y-111018598D01*
X122101182Y-111018598D01*
X122191920Y-110997816D01*
X122260933Y-110982010D01*
X122414132Y-110904959D01*
X122419903Y-110900030D01*
X122419906Y-110900028D01*
X122520229Y-110814343D01*
X123211775Y-110814343D01*
X123228381Y-110983699D01*
X123230605Y-110990384D01*
X123230605Y-110990385D01*
X123244849Y-111033205D01*
X123282094Y-111145167D01*
X123285741Y-111151189D01*
X123285742Y-111151191D01*
X123341696Y-111243581D01*
X123370246Y-111290723D01*
X123488455Y-111413132D01*
X123630846Y-111506310D01*
X123637450Y-111508766D01*
X123637452Y-111508767D01*
X123673844Y-111522301D01*
X123790341Y-111565626D01*
X123959015Y-111588132D01*
X123966026Y-111587494D01*
X123966030Y-111587494D01*
X124121462Y-111573348D01*
X124128483Y-111572709D01*
X124135185Y-111570531D01*
X124135187Y-111570531D01*
X124283623Y-111522301D01*
X124283626Y-111522300D01*
X124290322Y-111520124D01*
X124436490Y-111432990D01*
X124441584Y-111428139D01*
X124441588Y-111428136D01*
X124467592Y-111403372D01*
X124530717Y-111370880D01*
X124601388Y-111377673D01*
X124640367Y-111403893D01*
X124640632Y-111403573D01*
X124643852Y-111406237D01*
X124645119Y-111407089D01*
X124650955Y-111413132D01*
X124793346Y-111506310D01*
X124799950Y-111508766D01*
X124799952Y-111508767D01*
X124836344Y-111522301D01*
X124952841Y-111565626D01*
X125121515Y-111588132D01*
X125128526Y-111587494D01*
X125128530Y-111587494D01*
X125283962Y-111573348D01*
X125290983Y-111572709D01*
X125297685Y-111570531D01*
X125297687Y-111570531D01*
X125446123Y-111522301D01*
X125446126Y-111522300D01*
X125452822Y-111520124D01*
X125598990Y-111432990D01*
X125604084Y-111428139D01*
X125604088Y-111428136D01*
X125630092Y-111403372D01*
X125693217Y-111370880D01*
X125763888Y-111377673D01*
X125802867Y-111403893D01*
X125803132Y-111403573D01*
X125806352Y-111406237D01*
X125807619Y-111407089D01*
X125813455Y-111413132D01*
X125955846Y-111506310D01*
X125962450Y-111508766D01*
X125962452Y-111508767D01*
X125998844Y-111522301D01*
X126115341Y-111565626D01*
X126284015Y-111588132D01*
X126291026Y-111587494D01*
X126291030Y-111587494D01*
X126446462Y-111573348D01*
X126453483Y-111572709D01*
X126460185Y-111570531D01*
X126460187Y-111570531D01*
X126608623Y-111522301D01*
X126608626Y-111522300D01*
X126615322Y-111520124D01*
X126761490Y-111432990D01*
X126766584Y-111428139D01*
X126766588Y-111428136D01*
X126792592Y-111403372D01*
X126855717Y-111370880D01*
X126926388Y-111377673D01*
X126965367Y-111403893D01*
X126965632Y-111403573D01*
X126968852Y-111406237D01*
X126970119Y-111407089D01*
X126975955Y-111413132D01*
X127118346Y-111506310D01*
X127124950Y-111508766D01*
X127124952Y-111508767D01*
X127161344Y-111522301D01*
X127277841Y-111565626D01*
X127446515Y-111588132D01*
X127453526Y-111587494D01*
X127453530Y-111587494D01*
X127608962Y-111573348D01*
X127615983Y-111572709D01*
X127622685Y-111570531D01*
X127622687Y-111570531D01*
X127771123Y-111522301D01*
X127771126Y-111522300D01*
X127777822Y-111520124D01*
X127923990Y-111432990D01*
X127929084Y-111428139D01*
X127929088Y-111428136D01*
X127955092Y-111403372D01*
X128018217Y-111370880D01*
X128088888Y-111377673D01*
X128127867Y-111403893D01*
X128128132Y-111403573D01*
X128131352Y-111406237D01*
X128132619Y-111407089D01*
X128138455Y-111413132D01*
X128280846Y-111506310D01*
X128287450Y-111508766D01*
X128287452Y-111508767D01*
X128323844Y-111522301D01*
X128440341Y-111565626D01*
X128609015Y-111588132D01*
X128616026Y-111587494D01*
X128616030Y-111587494D01*
X128771462Y-111573348D01*
X128778483Y-111572709D01*
X128785185Y-111570531D01*
X128785187Y-111570531D01*
X128933623Y-111522301D01*
X128933626Y-111522300D01*
X128940322Y-111520124D01*
X129086490Y-111432990D01*
X129091584Y-111428139D01*
X129091588Y-111428136D01*
X129182809Y-111341267D01*
X129209721Y-111315639D01*
X129215549Y-111306868D01*
X129295279Y-111186864D01*
X129303891Y-111173902D01*
X129364319Y-111014825D01*
X129388001Y-110846313D01*
X129388299Y-110825000D01*
X129369331Y-110655892D01*
X129313368Y-110495189D01*
X129308690Y-110487702D01*
X129233329Y-110367101D01*
X133905469Y-110367101D01*
X133905985Y-110373245D01*
X133916819Y-110502264D01*
X133922018Y-110564184D01*
X133976533Y-110754300D01*
X133979352Y-110759785D01*
X134061868Y-110920342D01*
X134066937Y-110930206D01*
X134189785Y-111085203D01*
X134194478Y-111089197D01*
X134194479Y-111089198D01*
X134309237Y-111186864D01*
X134340400Y-111213386D01*
X134513044Y-111309874D01*
X134701142Y-111370990D01*
X134897527Y-111394408D01*
X134903662Y-111393936D01*
X134903664Y-111393936D01*
X135088580Y-111379707D01*
X135088584Y-111379706D01*
X135094722Y-111379234D01*
X135285213Y-111326048D01*
X135290717Y-111323268D01*
X135290719Y-111323267D01*
X135456245Y-111239654D01*
X135456247Y-111239653D01*
X135461746Y-111236875D01*
X135617597Y-111115111D01*
X135731023Y-110983705D01*
X135742799Y-110970063D01*
X135742800Y-110970061D01*
X135746828Y-110965395D01*
X135763735Y-110935634D01*
X167716500Y-110935634D01*
X167723255Y-110997816D01*
X167774385Y-111134205D01*
X167861739Y-111250761D01*
X167978295Y-111338115D01*
X168114684Y-111389245D01*
X168176866Y-111396000D01*
X170773134Y-111396000D01*
X170835316Y-111389245D01*
X170971705Y-111338115D01*
X171088261Y-111250761D01*
X171175615Y-111134205D01*
X171226745Y-110997816D01*
X171233500Y-110935634D01*
X171233500Y-109992169D01*
X175217001Y-109992169D01*
X175217371Y-109998990D01*
X175222895Y-110049852D01*
X175226521Y-110065104D01*
X175271676Y-110185554D01*
X175280214Y-110201149D01*
X175356715Y-110303224D01*
X175369276Y-110315785D01*
X175471351Y-110392286D01*
X175486946Y-110400824D01*
X175607394Y-110445978D01*
X175622649Y-110449605D01*
X175673514Y-110455131D01*
X175680328Y-110455500D01*
X176302885Y-110455500D01*
X176318124Y-110451025D01*
X176319329Y-110449635D01*
X176321000Y-110441952D01*
X176321000Y-110437384D01*
X176829000Y-110437384D01*
X176833475Y-110452623D01*
X176834865Y-110453828D01*
X176842548Y-110455499D01*
X177469669Y-110455499D01*
X177476490Y-110455129D01*
X177527352Y-110449605D01*
X177542604Y-110445979D01*
X177663054Y-110400824D01*
X177678649Y-110392286D01*
X177780724Y-110315785D01*
X177793285Y-110303224D01*
X177869786Y-110201149D01*
X177878324Y-110185554D01*
X177923478Y-110065106D01*
X177927105Y-110049851D01*
X177932631Y-109998986D01*
X177933000Y-109992172D01*
X177933000Y-109369615D01*
X177928525Y-109354376D01*
X177927135Y-109353171D01*
X177919452Y-109351500D01*
X176847115Y-109351500D01*
X176831876Y-109355975D01*
X176830671Y-109357365D01*
X176829000Y-109365048D01*
X176829000Y-110437384D01*
X176321000Y-110437384D01*
X176321000Y-109369615D01*
X176316525Y-109354376D01*
X176315135Y-109353171D01*
X176307452Y-109351500D01*
X175235116Y-109351500D01*
X175219877Y-109355975D01*
X175218672Y-109357365D01*
X175217001Y-109365048D01*
X175217001Y-109992169D01*
X171233500Y-109992169D01*
X171233500Y-108839366D01*
X171226745Y-108777184D01*
X171175615Y-108640795D01*
X171088261Y-108524239D01*
X170971705Y-108436885D01*
X170835316Y-108385755D01*
X170773134Y-108379000D01*
X168176866Y-108379000D01*
X168114684Y-108385755D01*
X167978295Y-108436885D01*
X167861739Y-108524239D01*
X167774385Y-108640795D01*
X167723255Y-108777184D01*
X167716500Y-108839366D01*
X167716500Y-110935634D01*
X135763735Y-110935634D01*
X135844519Y-110793429D01*
X135906947Y-110605763D01*
X135931735Y-110409545D01*
X135932130Y-110381250D01*
X135912830Y-110184417D01*
X135855666Y-109995081D01*
X135762816Y-109820454D01*
X135657254Y-109691022D01*
X135641710Y-109671963D01*
X135641707Y-109671960D01*
X135637815Y-109667188D01*
X135633066Y-109663259D01*
X135490175Y-109545049D01*
X135490171Y-109545047D01*
X135485425Y-109541120D01*
X135311451Y-109447052D01*
X135122518Y-109388568D01*
X135116393Y-109387924D01*
X135116392Y-109387924D01*
X134931954Y-109368539D01*
X134931952Y-109368539D01*
X134925825Y-109367895D01*
X134843326Y-109375403D01*
X134735001Y-109385261D01*
X134734998Y-109385262D01*
X134728862Y-109385820D01*
X134722956Y-109387558D01*
X134722952Y-109387559D01*
X134617826Y-109418499D01*
X134539131Y-109441660D01*
X134533673Y-109444513D01*
X134533669Y-109444515D01*
X134460025Y-109483016D01*
X134363860Y-109533290D01*
X134209725Y-109657218D01*
X134082596Y-109808724D01*
X134079629Y-109814122D01*
X134079625Y-109814127D01*
X134019318Y-109923827D01*
X133987317Y-109982037D01*
X133985456Y-109987904D01*
X133985455Y-109987906D01*
X133978002Y-110011402D01*
X133927515Y-110170556D01*
X133905469Y-110367101D01*
X129233329Y-110367101D01*
X129226928Y-110356857D01*
X129226926Y-110356854D01*
X129223192Y-110350879D01*
X129206381Y-110333950D01*
X129172576Y-110271521D01*
X129177888Y-110200724D01*
X129201724Y-110164766D01*
X129200090Y-110163395D01*
X129204619Y-110157998D01*
X129209721Y-110153139D01*
X129223373Y-110132592D01*
X129278345Y-110049852D01*
X129303891Y-110011402D01*
X129364319Y-109852325D01*
X129388001Y-109683813D01*
X129388167Y-109671963D01*
X129388244Y-109666461D01*
X129388244Y-109666455D01*
X129388299Y-109662500D01*
X129369331Y-109493392D01*
X129313368Y-109332689D01*
X129309634Y-109326713D01*
X129226928Y-109194357D01*
X129226926Y-109194354D01*
X129223192Y-109188379D01*
X129206381Y-109171450D01*
X129172576Y-109109021D01*
X129177888Y-109038224D01*
X129201724Y-109002266D01*
X129200090Y-109000895D01*
X129204619Y-108995498D01*
X129209721Y-108990639D01*
X129303891Y-108848902D01*
X129364319Y-108689825D01*
X129388001Y-108521313D01*
X129388178Y-108508688D01*
X129388244Y-108503961D01*
X129388244Y-108503955D01*
X129388299Y-108500000D01*
X129369331Y-108330892D01*
X129313368Y-108170189D01*
X129309634Y-108164213D01*
X129226928Y-108031857D01*
X129226926Y-108031854D01*
X129223192Y-108025879D01*
X129206381Y-108008950D01*
X129172576Y-107946521D01*
X129177888Y-107875724D01*
X129201724Y-107839766D01*
X129200090Y-107838395D01*
X129204619Y-107832998D01*
X129209721Y-107828139D01*
X129215773Y-107819031D01*
X129236722Y-107787500D01*
X140161496Y-107787500D01*
X140162186Y-107794065D01*
X140178210Y-107946521D01*
X140181458Y-107977428D01*
X140240473Y-108159056D01*
X140243776Y-108164778D01*
X140243777Y-108164779D01*
X140271957Y-108213588D01*
X140335960Y-108324444D01*
X140340378Y-108329351D01*
X140340379Y-108329352D01*
X140432669Y-108431850D01*
X140463747Y-108466366D01*
X140618248Y-108578618D01*
X140624276Y-108581302D01*
X140624278Y-108581303D01*
X140772612Y-108647345D01*
X140792712Y-108656294D01*
X140886113Y-108676147D01*
X140973056Y-108694628D01*
X140973061Y-108694628D01*
X140979513Y-108696000D01*
X141170487Y-108696000D01*
X141176939Y-108694628D01*
X141176944Y-108694628D01*
X141263887Y-108676147D01*
X141357288Y-108656294D01*
X141377388Y-108647345D01*
X141525722Y-108581303D01*
X141525724Y-108581302D01*
X141531752Y-108578618D01*
X141686253Y-108466366D01*
X141717331Y-108431850D01*
X141809621Y-108329352D01*
X141809622Y-108329351D01*
X141814040Y-108324444D01*
X141878043Y-108213588D01*
X141906223Y-108164779D01*
X141906224Y-108164778D01*
X141909527Y-108159056D01*
X141953576Y-108023489D01*
X141966500Y-107983713D01*
X141966500Y-107983712D01*
X141968475Y-107977633D01*
X141968477Y-107977630D01*
X141968542Y-107977428D01*
X141968579Y-107977440D01*
X142001077Y-107917245D01*
X142063227Y-107882923D01*
X142116794Y-107882669D01*
X142173049Y-107894627D01*
X142173058Y-107894628D01*
X142179513Y-107896000D01*
X142370487Y-107896000D01*
X142376939Y-107894628D01*
X142376944Y-107894628D01*
X142463888Y-107876147D01*
X142557288Y-107856294D01*
X142617278Y-107829585D01*
X142725722Y-107781303D01*
X142725724Y-107781302D01*
X142731752Y-107778618D01*
X142886253Y-107666366D01*
X142919215Y-107629758D01*
X143009621Y-107529352D01*
X143009622Y-107529351D01*
X143014040Y-107524444D01*
X143109527Y-107359056D01*
X143168542Y-107177428D01*
X143169604Y-107167329D01*
X143187814Y-106994065D01*
X143188504Y-106987500D01*
X143181129Y-106917334D01*
X143169232Y-106804135D01*
X143169232Y-106804133D01*
X143168542Y-106797572D01*
X143109527Y-106615944D01*
X143014040Y-106450556D01*
X142886253Y-106308634D01*
X142877219Y-106302070D01*
X142859829Y-106289436D01*
X142816475Y-106233214D01*
X142810399Y-106162478D01*
X142843531Y-106099686D01*
X142859829Y-106085564D01*
X142880909Y-106070249D01*
X142880911Y-106070247D01*
X142886253Y-106066366D01*
X142919215Y-106029758D01*
X143009621Y-105929352D01*
X143009622Y-105929351D01*
X143014040Y-105924444D01*
X143109527Y-105759056D01*
X143168542Y-105577428D01*
X143169915Y-105564370D01*
X143187814Y-105394065D01*
X143188504Y-105387500D01*
X143184443Y-105348864D01*
X143173035Y-105240317D01*
X167712514Y-105240317D01*
X167713095Y-105245337D01*
X167713095Y-105245341D01*
X167732720Y-105414947D01*
X167740415Y-105481456D01*
X167741791Y-105486320D01*
X167741792Y-105486323D01*
X167780519Y-105623182D01*
X167806510Y-105715032D01*
X167808644Y-105719608D01*
X167808646Y-105719614D01*
X167906962Y-105930454D01*
X167909099Y-105935036D01*
X167911940Y-105939217D01*
X167911941Y-105939218D01*
X167952731Y-105999238D01*
X168045544Y-106135807D01*
X168212332Y-106312181D01*
X168216358Y-106315259D01*
X168216359Y-106315260D01*
X168401154Y-106456547D01*
X168401158Y-106456550D01*
X168405174Y-106459620D01*
X168409632Y-106462010D01*
X168409633Y-106462011D01*
X168553607Y-106539209D01*
X168619109Y-106574331D01*
X168848631Y-106653362D01*
X168930755Y-106667547D01*
X169083926Y-106694004D01*
X169083932Y-106694005D01*
X169087836Y-106694679D01*
X169091797Y-106694859D01*
X169091798Y-106694859D01*
X169115506Y-106695936D01*
X169115525Y-106695936D01*
X169116925Y-106696000D01*
X169786001Y-106696000D01*
X169788509Y-106695798D01*
X169788514Y-106695798D01*
X169961924Y-106681846D01*
X169961929Y-106681845D01*
X169966965Y-106681440D01*
X169971873Y-106680234D01*
X169971876Y-106680234D01*
X170197792Y-106624744D01*
X170202706Y-106623537D01*
X170207358Y-106621562D01*
X170207362Y-106621561D01*
X170390408Y-106543862D01*
X170426156Y-106528688D01*
X170433291Y-106524195D01*
X175212251Y-106524195D01*
X175212548Y-106529348D01*
X175212548Y-106529351D01*
X175221341Y-106681846D01*
X175225110Y-106747215D01*
X175226247Y-106752261D01*
X175226248Y-106752267D01*
X175246119Y-106840439D01*
X175274222Y-106965139D01*
X175312461Y-107059311D01*
X175352541Y-107158016D01*
X175358266Y-107172116D01*
X175365990Y-107184720D01*
X175463512Y-107343862D01*
X175474987Y-107362588D01*
X175621250Y-107531438D01*
X175625225Y-107534738D01*
X175625231Y-107534744D01*
X175630425Y-107539056D01*
X175670059Y-107597960D01*
X175671555Y-107668941D01*
X175634439Y-107729462D01*
X175594168Y-107753980D01*
X175486946Y-107794176D01*
X175471351Y-107802714D01*
X175369276Y-107879215D01*
X175356715Y-107891776D01*
X175280214Y-107993851D01*
X175271676Y-108009446D01*
X175226522Y-108129894D01*
X175222895Y-108145149D01*
X175217369Y-108196014D01*
X175217000Y-108202828D01*
X175217000Y-108825385D01*
X175221475Y-108840624D01*
X175222865Y-108841829D01*
X175230548Y-108843500D01*
X177914884Y-108843500D01*
X177930123Y-108839025D01*
X177931328Y-108837635D01*
X177932999Y-108829952D01*
X177932999Y-108202831D01*
X177932629Y-108196010D01*
X177927105Y-108145148D01*
X177923479Y-108129896D01*
X177878324Y-108009446D01*
X177869786Y-107993851D01*
X177793285Y-107891776D01*
X177780724Y-107879215D01*
X177678649Y-107802714D01*
X177663054Y-107794176D01*
X177552813Y-107752848D01*
X177496049Y-107710206D01*
X177471349Y-107643645D01*
X177486557Y-107574296D01*
X177508104Y-107545615D01*
X177609430Y-107444644D01*
X177609440Y-107444632D01*
X177613096Y-107440989D01*
X177626577Y-107422229D01*
X177740435Y-107263777D01*
X177743453Y-107259577D01*
X177747912Y-107250556D01*
X177840136Y-107063953D01*
X177840137Y-107063951D01*
X177842430Y-107059311D01*
X177903668Y-106857755D01*
X177905865Y-106850523D01*
X177905865Y-106850521D01*
X177907370Y-106845569D01*
X177936529Y-106624090D01*
X177938156Y-106557500D01*
X177919852Y-106334861D01*
X177865431Y-106118202D01*
X177776354Y-105913340D01*
X177722236Y-105829687D01*
X177657822Y-105730117D01*
X177657820Y-105730114D01*
X177655014Y-105725777D01*
X177504670Y-105560551D01*
X177500619Y-105557352D01*
X177500615Y-105557348D01*
X177333414Y-105425300D01*
X177333410Y-105425298D01*
X177329359Y-105422098D01*
X177288053Y-105399296D01*
X177238084Y-105348864D01*
X177223312Y-105279421D01*
X177248428Y-105213016D01*
X177275780Y-105186409D01*
X177341212Y-105139737D01*
X177454860Y-105058673D01*
X177613096Y-104900989D01*
X177672594Y-104818189D01*
X177740435Y-104723777D01*
X177743453Y-104719577D01*
X177748862Y-104708634D01*
X177840136Y-104523953D01*
X177840137Y-104523951D01*
X177842430Y-104519311D01*
X177901838Y-104323778D01*
X177905865Y-104310523D01*
X177905865Y-104310521D01*
X177907370Y-104305569D01*
X177936529Y-104084090D01*
X177938156Y-104017500D01*
X177919852Y-103794861D01*
X177865431Y-103578202D01*
X177776354Y-103373340D01*
X177700621Y-103256274D01*
X177657822Y-103190117D01*
X177657820Y-103190114D01*
X177655014Y-103185777D01*
X177504670Y-103020551D01*
X177500619Y-103017352D01*
X177500615Y-103017348D01*
X177333414Y-102885300D01*
X177333410Y-102885298D01*
X177329359Y-102882098D01*
X177288053Y-102859296D01*
X177238084Y-102808864D01*
X177223312Y-102739421D01*
X177248428Y-102673016D01*
X177275780Y-102646409D01*
X177319603Y-102615150D01*
X177454860Y-102518673D01*
X177466707Y-102506868D01*
X177557500Y-102416391D01*
X177613096Y-102360989D01*
X177646063Y-102315111D01*
X177740435Y-102183777D01*
X177743453Y-102179577D01*
X177770562Y-102124727D01*
X177840136Y-101983953D01*
X177840137Y-101983951D01*
X177842430Y-101979311D01*
X177893380Y-101811615D01*
X177905865Y-101770523D01*
X177905865Y-101770521D01*
X177907370Y-101765569D01*
X177936529Y-101544090D01*
X177937038Y-101523267D01*
X177938074Y-101480865D01*
X177938074Y-101480861D01*
X177938156Y-101477500D01*
X177919852Y-101254861D01*
X177865431Y-101038202D01*
X177776354Y-100833340D01*
X177679152Y-100683089D01*
X177657822Y-100650117D01*
X177657820Y-100650114D01*
X177655014Y-100645777D01*
X177504670Y-100480551D01*
X177500619Y-100477352D01*
X177500615Y-100477348D01*
X177333414Y-100345300D01*
X177333410Y-100345298D01*
X177329359Y-100342098D01*
X177133789Y-100234138D01*
X177128920Y-100232414D01*
X177128916Y-100232412D01*
X176928087Y-100161295D01*
X176928083Y-100161294D01*
X176923212Y-100159569D01*
X176918119Y-100158662D01*
X176918116Y-100158661D01*
X176708373Y-100121300D01*
X176708367Y-100121299D01*
X176703284Y-100120394D01*
X176629452Y-100119492D01*
X176485081Y-100117728D01*
X176485079Y-100117728D01*
X176479911Y-100117665D01*
X176259091Y-100151455D01*
X176046756Y-100220857D01*
X176016443Y-100236637D01*
X175864029Y-100315979D01*
X175848607Y-100324007D01*
X175844474Y-100327110D01*
X175844471Y-100327112D01*
X175674100Y-100455030D01*
X175669965Y-100458135D01*
X175666393Y-100461873D01*
X175521926Y-100613049D01*
X175515629Y-100619638D01*
X175512715Y-100623910D01*
X175512714Y-100623911D01*
X175473600Y-100681250D01*
X175389743Y-100804180D01*
X175358644Y-100871178D01*
X175299543Y-100998501D01*
X175295688Y-101006805D01*
X175235989Y-101222070D01*
X175212251Y-101444195D01*
X175212548Y-101449348D01*
X175212548Y-101449351D01*
X175220564Y-101588378D01*
X175225110Y-101667215D01*
X175226247Y-101672261D01*
X175226248Y-101672267D01*
X175246963Y-101764184D01*
X175274222Y-101885139D01*
X175358266Y-102092116D01*
X175474987Y-102282588D01*
X175621250Y-102451438D01*
X175793126Y-102594132D01*
X175863595Y-102635311D01*
X175866445Y-102636976D01*
X175915169Y-102688614D01*
X175928240Y-102758397D01*
X175901509Y-102824169D01*
X175861055Y-102857527D01*
X175848607Y-102864007D01*
X175844474Y-102867110D01*
X175844471Y-102867112D01*
X175674100Y-102995030D01*
X175669965Y-102998135D01*
X175666393Y-103001873D01*
X175559677Y-103113545D01*
X175515629Y-103159638D01*
X175389743Y-103344180D01*
X175295688Y-103546805D01*
X175235989Y-103762070D01*
X175212251Y-103984195D01*
X175212548Y-103989348D01*
X175212548Y-103989351D01*
X175221455Y-104143830D01*
X175225110Y-104207215D01*
X175226247Y-104212261D01*
X175226248Y-104212267D01*
X175240712Y-104276446D01*
X175274222Y-104425139D01*
X175358266Y-104632116D01*
X175372526Y-104655386D01*
X175451782Y-104784720D01*
X175474987Y-104822588D01*
X175621250Y-104991438D01*
X175793126Y-105134132D01*
X175802718Y-105139737D01*
X175866445Y-105176976D01*
X175915169Y-105228614D01*
X175928240Y-105298397D01*
X175901509Y-105364169D01*
X175861055Y-105397527D01*
X175848607Y-105404007D01*
X175844474Y-105407110D01*
X175844471Y-105407112D01*
X175674100Y-105535030D01*
X175669965Y-105538135D01*
X175515629Y-105699638D01*
X175512715Y-105703910D01*
X175512714Y-105703911D01*
X175447053Y-105800166D01*
X175389743Y-105884180D01*
X175366137Y-105935036D01*
X175314233Y-106046854D01*
X175295688Y-106086805D01*
X175235989Y-106302070D01*
X175212251Y-106524195D01*
X170433291Y-106524195D01*
X170532037Y-106462011D01*
X170627288Y-106402028D01*
X170627291Y-106402026D01*
X170631567Y-106399333D01*
X170734446Y-106308634D01*
X170809858Y-106242150D01*
X170809861Y-106242147D01*
X170813655Y-106238802D01*
X170862809Y-106178961D01*
X170964526Y-106055128D01*
X170964528Y-106055125D01*
X170967734Y-106051222D01*
X171067446Y-105879901D01*
X171087299Y-105845790D01*
X171087300Y-105845788D01*
X171089841Y-105841422D01*
X171123871Y-105752771D01*
X171175020Y-105619522D01*
X171175021Y-105619518D01*
X171176833Y-105614798D01*
X171183117Y-105584720D01*
X171225440Y-105382131D01*
X171225440Y-105382127D01*
X171226474Y-105377180D01*
X171237486Y-105134683D01*
X171229038Y-105061671D01*
X171210167Y-104898571D01*
X171210166Y-104898567D01*
X171209585Y-104893544D01*
X171170517Y-104755478D01*
X171144866Y-104664831D01*
X171143490Y-104659968D01*
X171141356Y-104655392D01*
X171141354Y-104655386D01*
X171043038Y-104444546D01*
X171043036Y-104444542D01*
X171040901Y-104439964D01*
X171034079Y-104429925D01*
X170973609Y-104340948D01*
X170904456Y-104239193D01*
X170737668Y-104062819D01*
X170682795Y-104020865D01*
X170548846Y-103918453D01*
X170548842Y-103918450D01*
X170544826Y-103915380D01*
X170330891Y-103800669D01*
X170101369Y-103721638D01*
X170002022Y-103704478D01*
X169866074Y-103680996D01*
X169866068Y-103680995D01*
X169862164Y-103680321D01*
X169858203Y-103680141D01*
X169858202Y-103680141D01*
X169834494Y-103679064D01*
X169834475Y-103679064D01*
X169833075Y-103679000D01*
X169163999Y-103679000D01*
X169161491Y-103679202D01*
X169161486Y-103679202D01*
X168988076Y-103693154D01*
X168988071Y-103693155D01*
X168983035Y-103693560D01*
X168978127Y-103694766D01*
X168978124Y-103694766D01*
X168862007Y-103723287D01*
X168747294Y-103751463D01*
X168742642Y-103753438D01*
X168742638Y-103753439D01*
X168677862Y-103780935D01*
X168523844Y-103846312D01*
X168519560Y-103849010D01*
X168322712Y-103972972D01*
X168322709Y-103972974D01*
X168318433Y-103975667D01*
X168274787Y-104014146D01*
X168140142Y-104132850D01*
X168140139Y-104132853D01*
X168136345Y-104136198D01*
X168133135Y-104140106D01*
X168133134Y-104140107D01*
X167986416Y-104318726D01*
X167982266Y-104323778D01*
X167979724Y-104328146D01*
X167868463Y-104519311D01*
X167860159Y-104533578D01*
X167858346Y-104538301D01*
X167791077Y-104713545D01*
X167773167Y-104760202D01*
X167772133Y-104765152D01*
X167772132Y-104765155D01*
X167753097Y-104856274D01*
X167723526Y-104997820D01*
X167712514Y-105240317D01*
X143173035Y-105240317D01*
X143169232Y-105204135D01*
X143169232Y-105204133D01*
X143168542Y-105197572D01*
X143109527Y-105015944D01*
X143101981Y-105002873D01*
X143045264Y-104904637D01*
X143014040Y-104850556D01*
X142928432Y-104755478D01*
X142890675Y-104713545D01*
X142890674Y-104713544D01*
X142886253Y-104708634D01*
X142762926Y-104619031D01*
X142737094Y-104600263D01*
X142737093Y-104600262D01*
X142731752Y-104596382D01*
X142725724Y-104593698D01*
X142725722Y-104593697D01*
X142563319Y-104521391D01*
X142563318Y-104521391D01*
X142557288Y-104518706D01*
X142463888Y-104498853D01*
X142376944Y-104480372D01*
X142376939Y-104480372D01*
X142370487Y-104479000D01*
X142179513Y-104479000D01*
X142173061Y-104480372D01*
X142173056Y-104480372D01*
X142086112Y-104498853D01*
X141992712Y-104518706D01*
X141986682Y-104521391D01*
X141986681Y-104521391D01*
X141944065Y-104540365D01*
X141873698Y-104549799D01*
X141809401Y-104519693D01*
X141771587Y-104459604D01*
X141772263Y-104388610D01*
X141799178Y-104340950D01*
X141814040Y-104324444D01*
X141909527Y-104159056D01*
X141968542Y-103977428D01*
X141974741Y-103918453D01*
X141987814Y-103794065D01*
X141988504Y-103787500D01*
X141977100Y-103679000D01*
X141969232Y-103604135D01*
X141969232Y-103604133D01*
X141968542Y-103597572D01*
X141909527Y-103415944D01*
X141814040Y-103250556D01*
X141713931Y-103139373D01*
X141690675Y-103113545D01*
X141690674Y-103113544D01*
X141686253Y-103108634D01*
X141560609Y-103017348D01*
X141537094Y-103000263D01*
X141537093Y-103000262D01*
X141531752Y-102996382D01*
X141525724Y-102993698D01*
X141525722Y-102993697D01*
X141363319Y-102921391D01*
X141363318Y-102921391D01*
X141357288Y-102918706D01*
X141263887Y-102898853D01*
X141176944Y-102880372D01*
X141176939Y-102880372D01*
X141170487Y-102879000D01*
X140979513Y-102879000D01*
X140973061Y-102880372D01*
X140973056Y-102880372D01*
X140886113Y-102898853D01*
X140792712Y-102918706D01*
X140786682Y-102921391D01*
X140786681Y-102921391D01*
X140624278Y-102993697D01*
X140624276Y-102993698D01*
X140618248Y-102996382D01*
X140612907Y-103000262D01*
X140612906Y-103000263D01*
X140589391Y-103017348D01*
X140463747Y-103108634D01*
X140459326Y-103113544D01*
X140459325Y-103113545D01*
X140436070Y-103139373D01*
X140335960Y-103250556D01*
X140240473Y-103415944D01*
X140181458Y-103597572D01*
X140180768Y-103604133D01*
X140180768Y-103604135D01*
X140172900Y-103679000D01*
X140161496Y-103787500D01*
X140162186Y-103794065D01*
X140175260Y-103918453D01*
X140181458Y-103977428D01*
X140240473Y-104159056D01*
X140335960Y-104324444D01*
X140340375Y-104329347D01*
X140340379Y-104329352D01*
X140444100Y-104444546D01*
X140463747Y-104466366D01*
X140618248Y-104578618D01*
X140624276Y-104581302D01*
X140624278Y-104581303D01*
X140786681Y-104653609D01*
X140792712Y-104656294D01*
X140886113Y-104676147D01*
X140973056Y-104694628D01*
X140973061Y-104694628D01*
X140979513Y-104696000D01*
X141170487Y-104696000D01*
X141176939Y-104694628D01*
X141176944Y-104694628D01*
X141263887Y-104676147D01*
X141357288Y-104656294D01*
X141405935Y-104634635D01*
X141476302Y-104625201D01*
X141540599Y-104655307D01*
X141578413Y-104715396D01*
X141577737Y-104786390D01*
X141550822Y-104834050D01*
X141535960Y-104850556D01*
X141504736Y-104904637D01*
X141448020Y-105002873D01*
X141440473Y-105015944D01*
X141381458Y-105197572D01*
X141380768Y-105204133D01*
X141380768Y-105204135D01*
X141365557Y-105348864D01*
X141361496Y-105387500D01*
X141362186Y-105394065D01*
X141380086Y-105564370D01*
X141381458Y-105577428D01*
X141440473Y-105759056D01*
X141535960Y-105924444D01*
X141540378Y-105929351D01*
X141540379Y-105929352D01*
X141630785Y-106029758D01*
X141663747Y-106066366D01*
X141669089Y-106070247D01*
X141669091Y-106070249D01*
X141690171Y-106085564D01*
X141733525Y-106141786D01*
X141739601Y-106212522D01*
X141706469Y-106275314D01*
X141690171Y-106289436D01*
X141672782Y-106302070D01*
X141663747Y-106308634D01*
X141535960Y-106450556D01*
X141440473Y-106615944D01*
X141438431Y-106622229D01*
X141395241Y-106755154D01*
X141381525Y-106797367D01*
X141381523Y-106797370D01*
X141381458Y-106797572D01*
X141381421Y-106797560D01*
X141348923Y-106857755D01*
X141286773Y-106892077D01*
X141233206Y-106892331D01*
X141176951Y-106880373D01*
X141176942Y-106880372D01*
X141170487Y-106879000D01*
X140979513Y-106879000D01*
X140973061Y-106880372D01*
X140973056Y-106880372D01*
X140886113Y-106898853D01*
X140792712Y-106918706D01*
X140786682Y-106921391D01*
X140786681Y-106921391D01*
X140624278Y-106993697D01*
X140624276Y-106993698D01*
X140618248Y-106996382D01*
X140612907Y-107000262D01*
X140612906Y-107000263D01*
X140587074Y-107019031D01*
X140463747Y-107108634D01*
X140459326Y-107113544D01*
X140459325Y-107113545D01*
X140406588Y-107172116D01*
X140335960Y-107250556D01*
X140240473Y-107415944D01*
X140181458Y-107597572D01*
X140180768Y-107604133D01*
X140180768Y-107604135D01*
X140173957Y-107668941D01*
X140161496Y-107787500D01*
X129236722Y-107787500D01*
X129275990Y-107728396D01*
X129303891Y-107686402D01*
X129364319Y-107527325D01*
X129365528Y-107518726D01*
X129374022Y-107458284D01*
X129388001Y-107358813D01*
X129388210Y-107343862D01*
X129388244Y-107341461D01*
X129388244Y-107341455D01*
X129388299Y-107337500D01*
X129369331Y-107168392D01*
X129313368Y-107007689D01*
X129308728Y-107000263D01*
X129226928Y-106869357D01*
X129226926Y-106869354D01*
X129223192Y-106863379D01*
X129206381Y-106846450D01*
X129172576Y-106784021D01*
X129177888Y-106713224D01*
X129201724Y-106677266D01*
X129200090Y-106675895D01*
X129204619Y-106670498D01*
X129209721Y-106665639D01*
X129218974Y-106651713D01*
X129279333Y-106560865D01*
X129303891Y-106523902D01*
X129364319Y-106364825D01*
X129388001Y-106196313D01*
X129388299Y-106175000D01*
X129369331Y-106005892D01*
X129313368Y-105845189D01*
X129307383Y-105835610D01*
X129278037Y-105788648D01*
X129223192Y-105700879D01*
X129205598Y-105683161D01*
X129142402Y-105619522D01*
X129103286Y-105580132D01*
X129097335Y-105576355D01*
X129032217Y-105535030D01*
X128959608Y-105488951D01*
X128799300Y-105431868D01*
X128630329Y-105411720D01*
X128623326Y-105412456D01*
X128623325Y-105412456D01*
X128468101Y-105428770D01*
X128468097Y-105428771D01*
X128461093Y-105429507D01*
X128454422Y-105431778D01*
X128306673Y-105482075D01*
X128306670Y-105482076D01*
X128300003Y-105484346D01*
X128294005Y-105488036D01*
X128294003Y-105488037D01*
X128161065Y-105569821D01*
X128161063Y-105569823D01*
X128155066Y-105573512D01*
X128150037Y-105578437D01*
X128150033Y-105578440D01*
X128144656Y-105583706D01*
X128132495Y-105595616D01*
X128069832Y-105628987D01*
X127999073Y-105623182D01*
X127954933Y-105594378D01*
X127940786Y-105580132D01*
X127797108Y-105488951D01*
X127636800Y-105431868D01*
X127467829Y-105411720D01*
X127460826Y-105412456D01*
X127460825Y-105412456D01*
X127305601Y-105428770D01*
X127305597Y-105428771D01*
X127298593Y-105429507D01*
X127291922Y-105431778D01*
X127144173Y-105482075D01*
X127144170Y-105482076D01*
X127137503Y-105484346D01*
X127131505Y-105488036D01*
X127131503Y-105488037D01*
X126998565Y-105569821D01*
X126998563Y-105569823D01*
X126992566Y-105573512D01*
X126987537Y-105578437D01*
X126987533Y-105578440D01*
X126982156Y-105583706D01*
X126969995Y-105595616D01*
X126907332Y-105628987D01*
X126836573Y-105623182D01*
X126792433Y-105594378D01*
X126778286Y-105580132D01*
X126634608Y-105488951D01*
X126474300Y-105431868D01*
X126305329Y-105411720D01*
X126298326Y-105412456D01*
X126298325Y-105412456D01*
X126143101Y-105428770D01*
X126143097Y-105428771D01*
X126136093Y-105429507D01*
X126129422Y-105431778D01*
X125981673Y-105482075D01*
X125981670Y-105482076D01*
X125975003Y-105484346D01*
X125969005Y-105488036D01*
X125969003Y-105488037D01*
X125836065Y-105569821D01*
X125836063Y-105569823D01*
X125830066Y-105573512D01*
X125825037Y-105578437D01*
X125825033Y-105578440D01*
X125819656Y-105583706D01*
X125807495Y-105595616D01*
X125744832Y-105628987D01*
X125674073Y-105623182D01*
X125629933Y-105594378D01*
X125615786Y-105580132D01*
X125472108Y-105488951D01*
X125311800Y-105431868D01*
X125142829Y-105411720D01*
X125135826Y-105412456D01*
X125135825Y-105412456D01*
X124980601Y-105428770D01*
X124980597Y-105428771D01*
X124973593Y-105429507D01*
X124966922Y-105431778D01*
X124819173Y-105482075D01*
X124819170Y-105482076D01*
X124812503Y-105484346D01*
X124806505Y-105488036D01*
X124806503Y-105488037D01*
X124673565Y-105569821D01*
X124673563Y-105569823D01*
X124667566Y-105573512D01*
X124662537Y-105578437D01*
X124662533Y-105578440D01*
X124657156Y-105583706D01*
X124644995Y-105595616D01*
X124582332Y-105628987D01*
X124511573Y-105623182D01*
X124467433Y-105594378D01*
X124453286Y-105580132D01*
X124309608Y-105488951D01*
X124149300Y-105431868D01*
X123980329Y-105411720D01*
X123973326Y-105412456D01*
X123973325Y-105412456D01*
X123818101Y-105428770D01*
X123818097Y-105428771D01*
X123811093Y-105429507D01*
X123804422Y-105431778D01*
X123656673Y-105482075D01*
X123656670Y-105482076D01*
X123650003Y-105484346D01*
X123644005Y-105488036D01*
X123644003Y-105488037D01*
X123511065Y-105569821D01*
X123511063Y-105569823D01*
X123505066Y-105573512D01*
X123383486Y-105692573D01*
X123379675Y-105698487D01*
X123379673Y-105698489D01*
X123340640Y-105759056D01*
X123291304Y-105835610D01*
X123233103Y-105995516D01*
X123211775Y-106164343D01*
X123228381Y-106333699D01*
X123282094Y-106495167D01*
X123285741Y-106501189D01*
X123285742Y-106501191D01*
X123360569Y-106624744D01*
X123370246Y-106640723D01*
X123395704Y-106667085D01*
X123396150Y-106667547D01*
X123429083Y-106730444D01*
X123422784Y-106801160D01*
X123393672Y-106845098D01*
X123383486Y-106855073D01*
X123379675Y-106860987D01*
X123379673Y-106860989D01*
X123298142Y-106987500D01*
X123291304Y-106998110D01*
X123233103Y-107158016D01*
X123211775Y-107326843D01*
X123228381Y-107496199D01*
X123230605Y-107502884D01*
X123230605Y-107502885D01*
X123244819Y-107545615D01*
X123282094Y-107657667D01*
X123285741Y-107663689D01*
X123285742Y-107663691D01*
X123364700Y-107794065D01*
X123370246Y-107803223D01*
X123395704Y-107829585D01*
X123396150Y-107830047D01*
X123429083Y-107892944D01*
X123422784Y-107963660D01*
X123393672Y-108007598D01*
X123383486Y-108017573D01*
X123291304Y-108160610D01*
X123233103Y-108320516D01*
X123211775Y-108489343D01*
X123228381Y-108658699D01*
X123282094Y-108820167D01*
X123285741Y-108826189D01*
X123285742Y-108826191D01*
X123353032Y-108937299D01*
X123370246Y-108965723D01*
X123395704Y-108992085D01*
X123396150Y-108992547D01*
X123429083Y-109055444D01*
X123422784Y-109126160D01*
X123393672Y-109170098D01*
X123383486Y-109180073D01*
X123291304Y-109323110D01*
X123267714Y-109387924D01*
X123247366Y-109443830D01*
X123233103Y-109483016D01*
X123211775Y-109651843D01*
X123228381Y-109821199D01*
X123230605Y-109827884D01*
X123230605Y-109827885D01*
X123234538Y-109839709D01*
X123282094Y-109982667D01*
X123285741Y-109988689D01*
X123285742Y-109988691D01*
X123357779Y-110107637D01*
X123370246Y-110128223D01*
X123395704Y-110154585D01*
X123396150Y-110155047D01*
X123429083Y-110217944D01*
X123422784Y-110288660D01*
X123393672Y-110332598D01*
X123383486Y-110342573D01*
X123379675Y-110348487D01*
X123379673Y-110348489D01*
X123310709Y-110455499D01*
X123291304Y-110485610D01*
X123233103Y-110645516D01*
X123211775Y-110814343D01*
X122520229Y-110814343D01*
X122538752Y-110798523D01*
X122544529Y-110793589D01*
X122644598Y-110654330D01*
X122708559Y-110495220D01*
X122714212Y-110455499D01*
X122732140Y-110329531D01*
X122732140Y-110329527D01*
X122732721Y-110325447D01*
X122732795Y-110318357D01*
X122732835Y-110314633D01*
X122732835Y-110314627D01*
X122732878Y-110310500D01*
X122719645Y-110201149D01*
X122713189Y-110147799D01*
X122713188Y-110147796D01*
X122712276Y-110140258D01*
X122709380Y-110132592D01*
X122654345Y-109986947D01*
X122651661Y-109979844D01*
X122576037Y-109869810D01*
X122558833Y-109844778D01*
X122558832Y-109844776D01*
X122554531Y-109838519D01*
X122548860Y-109833466D01*
X122432167Y-109729496D01*
X122432164Y-109729494D01*
X122426495Y-109724443D01*
X122418499Y-109720209D01*
X122327378Y-109671963D01*
X122274943Y-109644200D01*
X122257370Y-109639786D01*
X122115996Y-109604275D01*
X122115992Y-109604275D01*
X122108625Y-109602424D01*
X122101026Y-109602384D01*
X122101024Y-109602384D01*
X122029568Y-109602010D01*
X121937143Y-109601526D01*
X121929763Y-109603298D01*
X121929761Y-109603298D01*
X121777776Y-109639786D01*
X121777772Y-109639787D01*
X121770397Y-109641558D01*
X121685113Y-109685576D01*
X121615407Y-109699045D01*
X121549483Y-109672690D01*
X121508274Y-109614877D01*
X121504862Y-109543963D01*
X121525002Y-109500084D01*
X121560990Y-109450002D01*
X121560994Y-109449996D01*
X121565424Y-109443830D01*
X121629385Y-109284720D01*
X121638173Y-109222975D01*
X121652966Y-109119031D01*
X121652966Y-109119027D01*
X121653547Y-109114947D01*
X121653704Y-109100000D01*
X121641711Y-109000895D01*
X121634015Y-108937299D01*
X121634014Y-108937296D01*
X121633102Y-108929758D01*
X121572487Y-108769344D01*
X121568186Y-108763086D01*
X121479659Y-108634278D01*
X121479658Y-108634276D01*
X121475357Y-108628019D01*
X121425683Y-108583761D01*
X121352993Y-108518996D01*
X121352990Y-108518994D01*
X121347321Y-108513943D01*
X121339325Y-108509709D01*
X121252801Y-108463897D01*
X121195769Y-108433700D01*
X121178196Y-108429286D01*
X121036822Y-108393775D01*
X121036818Y-108393775D01*
X121029451Y-108391924D01*
X121021852Y-108391884D01*
X121021850Y-108391884D01*
X120950394Y-108391510D01*
X120857969Y-108391026D01*
X120850589Y-108392798D01*
X120850587Y-108392798D01*
X120698602Y-108429286D01*
X120698598Y-108429287D01*
X120691223Y-108431058D01*
X120684481Y-108434538D01*
X120684475Y-108434540D01*
X120542875Y-108507625D01*
X120473168Y-108521094D01*
X120413178Y-108499125D01*
X120412992Y-108498996D01*
X120407321Y-108493943D01*
X120255769Y-108413700D01*
X120238196Y-108409286D01*
X120096822Y-108373775D01*
X120096818Y-108373775D01*
X120089451Y-108371924D01*
X120081852Y-108371884D01*
X120081850Y-108371884D01*
X120010394Y-108371510D01*
X119917969Y-108371026D01*
X119910589Y-108372798D01*
X119910587Y-108372798D01*
X119758602Y-108409286D01*
X119758598Y-108409287D01*
X119751223Y-108411058D01*
X119598839Y-108489709D01*
X119593122Y-108494696D01*
X119593115Y-108494701D01*
X119569454Y-108515342D01*
X119504971Y-108545050D01*
X119434664Y-108535180D01*
X119402806Y-108514469D01*
X119362993Y-108478996D01*
X119362990Y-108478994D01*
X119357321Y-108473943D01*
X119338348Y-108463897D01*
X119281378Y-108433733D01*
X119205769Y-108393700D01*
X119165428Y-108383567D01*
X119104232Y-108347572D01*
X119072212Y-108284206D01*
X119079533Y-108213588D01*
X119093802Y-108187836D01*
X119120992Y-108149998D01*
X119120993Y-108149997D01*
X119125424Y-108143830D01*
X119189385Y-107984720D01*
X119192382Y-107963660D01*
X119212966Y-107819031D01*
X119212966Y-107819027D01*
X119213547Y-107814947D01*
X119213704Y-107800000D01*
X119205039Y-107728396D01*
X119194015Y-107637299D01*
X119194014Y-107637296D01*
X119193102Y-107629758D01*
X119190418Y-107622654D01*
X119135171Y-107476446D01*
X119135170Y-107476443D01*
X119132487Y-107469344D01*
X119128188Y-107463089D01*
X119125676Y-107458284D01*
X119111842Y-107388648D01*
X119125504Y-107343862D01*
X119125424Y-107343830D01*
X119125799Y-107342898D01*
X119125800Y-107342894D01*
X119189385Y-107184720D01*
X119192656Y-107161738D01*
X119212966Y-107019031D01*
X119212966Y-107019027D01*
X119213547Y-107014947D01*
X119213623Y-107007689D01*
X119213661Y-107004133D01*
X119213661Y-107004127D01*
X119213704Y-107000000D01*
X119203700Y-106917334D01*
X119194015Y-106837299D01*
X119194014Y-106837296D01*
X119193102Y-106829758D01*
X119180940Y-106797572D01*
X119135171Y-106676446D01*
X119135170Y-106676443D01*
X119132487Y-106669344D01*
X119128188Y-106663089D01*
X119125676Y-106658284D01*
X119111842Y-106588648D01*
X119125504Y-106543862D01*
X119125424Y-106543830D01*
X119125799Y-106542898D01*
X119125800Y-106542894D01*
X119189385Y-106384720D01*
X119191279Y-106371414D01*
X119212966Y-106219031D01*
X119212966Y-106219027D01*
X119213547Y-106214947D01*
X119213704Y-106200000D01*
X119205429Y-106131619D01*
X119194015Y-106037299D01*
X119194014Y-106037296D01*
X119193102Y-106029758D01*
X119184084Y-106005892D01*
X119135171Y-105876446D01*
X119135170Y-105876443D01*
X119132487Y-105869344D01*
X119128188Y-105863089D01*
X119125676Y-105858284D01*
X119111842Y-105788648D01*
X119125504Y-105743862D01*
X119125424Y-105743830D01*
X119125799Y-105742898D01*
X119125800Y-105742894D01*
X119189385Y-105584720D01*
X119203145Y-105488037D01*
X119212966Y-105419031D01*
X119212966Y-105419027D01*
X119213547Y-105414947D01*
X119213704Y-105400000D01*
X119201706Y-105300857D01*
X119194015Y-105237299D01*
X119194014Y-105237296D01*
X119193102Y-105229758D01*
X119176722Y-105186409D01*
X119135171Y-105076446D01*
X119135170Y-105076443D01*
X119132487Y-105069344D01*
X119128188Y-105063089D01*
X119125676Y-105058284D01*
X119111842Y-104988648D01*
X119125504Y-104943862D01*
X119125424Y-104943830D01*
X119125799Y-104942898D01*
X119125800Y-104942894D01*
X119189385Y-104784720D01*
X119190455Y-104777202D01*
X119212966Y-104619031D01*
X119212966Y-104619027D01*
X119213547Y-104614947D01*
X119213704Y-104600000D01*
X119206487Y-104540365D01*
X119194015Y-104437299D01*
X119194014Y-104437296D01*
X119193102Y-104429758D01*
X119155160Y-104329347D01*
X119135171Y-104276446D01*
X119135170Y-104276443D01*
X119132487Y-104269344D01*
X119128188Y-104263089D01*
X119125676Y-104258284D01*
X119111842Y-104188648D01*
X119125504Y-104143862D01*
X119125424Y-104143830D01*
X119125799Y-104142898D01*
X119125800Y-104142894D01*
X119189385Y-103984720D01*
X119198816Y-103918453D01*
X119212966Y-103819031D01*
X119212966Y-103819027D01*
X119213547Y-103814947D01*
X119213704Y-103800000D01*
X119193102Y-103629758D01*
X119132487Y-103469344D01*
X119046464Y-103344180D01*
X119039659Y-103334278D01*
X119039658Y-103334276D01*
X119035357Y-103328019D01*
X119029686Y-103322966D01*
X118912993Y-103218996D01*
X118912990Y-103218994D01*
X118907321Y-103213943D01*
X118899325Y-103209709D01*
X118762481Y-103137254D01*
X118762482Y-103137254D01*
X118755769Y-103133700D01*
X118738196Y-103129286D01*
X118596822Y-103093775D01*
X118596818Y-103093775D01*
X118589451Y-103091924D01*
X118581852Y-103091884D01*
X118581850Y-103091884D01*
X118510394Y-103091510D01*
X118417969Y-103091026D01*
X118410589Y-103092798D01*
X118410587Y-103092798D01*
X118360800Y-103104751D01*
X118251223Y-103131058D01*
X118244777Y-103134385D01*
X118174101Y-103139373D01*
X118111821Y-103105289D01*
X118077854Y-103042945D01*
X118075000Y-103016278D01*
X118075000Y-101567101D01*
X120805469Y-101567101D01*
X120805985Y-101573245D01*
X120821377Y-101756547D01*
X120822018Y-101764184D01*
X120823717Y-101770108D01*
X120867712Y-101923537D01*
X120876533Y-101954300D01*
X120879352Y-101959785D01*
X120927159Y-102052806D01*
X120966937Y-102130206D01*
X121089785Y-102285203D01*
X121094478Y-102289197D01*
X121094479Y-102289198D01*
X121178834Y-102360989D01*
X121240400Y-102413386D01*
X121413044Y-102509874D01*
X121601142Y-102570990D01*
X121797527Y-102594408D01*
X121803662Y-102593936D01*
X121803664Y-102593936D01*
X121988580Y-102579707D01*
X121988584Y-102579706D01*
X121994722Y-102579234D01*
X122185213Y-102526048D01*
X122190717Y-102523268D01*
X122190719Y-102523267D01*
X122356245Y-102439654D01*
X122356247Y-102439653D01*
X122361746Y-102436875D01*
X122517597Y-102315111D01*
X122630961Y-102183777D01*
X122642799Y-102170063D01*
X122642800Y-102170061D01*
X122646828Y-102165395D01*
X122744519Y-101993429D01*
X122806947Y-101805763D01*
X122822677Y-101681250D01*
X133305246Y-101681250D01*
X133305936Y-101687815D01*
X133320459Y-101825990D01*
X133325208Y-101871178D01*
X133384223Y-102052806D01*
X133479710Y-102218194D01*
X133484128Y-102223101D01*
X133484129Y-102223102D01*
X133540045Y-102285203D01*
X133607497Y-102360116D01*
X133761998Y-102472368D01*
X133768026Y-102475052D01*
X133768028Y-102475053D01*
X133886292Y-102527707D01*
X133936462Y-102550044D01*
X134026047Y-102569086D01*
X134116806Y-102588378D01*
X134116811Y-102588378D01*
X134123263Y-102589750D01*
X134314237Y-102589750D01*
X134320689Y-102588378D01*
X134320694Y-102588378D01*
X134411453Y-102569086D01*
X134501038Y-102550044D01*
X134551208Y-102527707D01*
X134669472Y-102475053D01*
X134669474Y-102475052D01*
X134675502Y-102472368D01*
X134830003Y-102360116D01*
X134897455Y-102285203D01*
X134953371Y-102223102D01*
X134953372Y-102223101D01*
X134957790Y-102218194D01*
X135053277Y-102052806D01*
X135112292Y-101871178D01*
X135117042Y-101825990D01*
X135131564Y-101687815D01*
X135132254Y-101681250D01*
X135117282Y-101538802D01*
X135112982Y-101497885D01*
X135112982Y-101497883D01*
X135112292Y-101491322D01*
X135053277Y-101309694D01*
X135036349Y-101280373D01*
X134983965Y-101189642D01*
X134957790Y-101144306D01*
X134851173Y-101025895D01*
X134834425Y-101007295D01*
X134834424Y-101007294D01*
X134830003Y-101002384D01*
X134675502Y-100890132D01*
X134669474Y-100887448D01*
X134669472Y-100887447D01*
X134507069Y-100815141D01*
X134507068Y-100815141D01*
X134501038Y-100812456D01*
X134378093Y-100786323D01*
X134320694Y-100774122D01*
X134320689Y-100774122D01*
X134314237Y-100772750D01*
X134123263Y-100772750D01*
X134116811Y-100774122D01*
X134116806Y-100774122D01*
X134059407Y-100786323D01*
X133936462Y-100812456D01*
X133930432Y-100815141D01*
X133930431Y-100815141D01*
X133768028Y-100887447D01*
X133768026Y-100887448D01*
X133761998Y-100890132D01*
X133607497Y-101002384D01*
X133603076Y-101007294D01*
X133603075Y-101007295D01*
X133586328Y-101025895D01*
X133479710Y-101144306D01*
X133453535Y-101189642D01*
X133401152Y-101280373D01*
X133384223Y-101309694D01*
X133325208Y-101491322D01*
X133324518Y-101497883D01*
X133324518Y-101497885D01*
X133320218Y-101538802D01*
X133305246Y-101681250D01*
X122822677Y-101681250D01*
X122831735Y-101609545D01*
X122831953Y-101593936D01*
X122832081Y-101584773D01*
X122832081Y-101584770D01*
X122832130Y-101581250D01*
X122812830Y-101384417D01*
X122806666Y-101363999D01*
X122757447Y-101200981D01*
X122755666Y-101195081D01*
X122662816Y-101020454D01*
X122576645Y-100914798D01*
X122541710Y-100871963D01*
X122541707Y-100871960D01*
X122537815Y-100867188D01*
X122531474Y-100861942D01*
X122390175Y-100745049D01*
X122390171Y-100745047D01*
X122385425Y-100741120D01*
X122211451Y-100647052D01*
X122022518Y-100588568D01*
X122016393Y-100587924D01*
X122016392Y-100587924D01*
X121831954Y-100568539D01*
X121831952Y-100568539D01*
X121825825Y-100567895D01*
X121743326Y-100575403D01*
X121635001Y-100585261D01*
X121634998Y-100585262D01*
X121628862Y-100585820D01*
X121622956Y-100587558D01*
X121622952Y-100587559D01*
X121548250Y-100609545D01*
X121439131Y-100641660D01*
X121433673Y-100644513D01*
X121433669Y-100644515D01*
X121359885Y-100683089D01*
X121263860Y-100733290D01*
X121109725Y-100857218D01*
X120982596Y-101008724D01*
X120979629Y-101014122D01*
X120979625Y-101014127D01*
X120918823Y-101124727D01*
X120887317Y-101182037D01*
X120885456Y-101187904D01*
X120885455Y-101187906D01*
X120856123Y-101280373D01*
X120827515Y-101370556D01*
X120805469Y-101567101D01*
X118075000Y-101567101D01*
X118075000Y-100983761D01*
X118095002Y-100915640D01*
X118148658Y-100869147D01*
X118218932Y-100859043D01*
X118237186Y-100863897D01*
X118237268Y-100863585D01*
X118403139Y-100907101D01*
X118490586Y-100908474D01*
X118567003Y-100909675D01*
X118567006Y-100909675D01*
X118574602Y-100909794D01*
X118582006Y-100908098D01*
X118582008Y-100908098D01*
X118672174Y-100887447D01*
X118741759Y-100871510D01*
X118894958Y-100794459D01*
X118900729Y-100789530D01*
X118900732Y-100789528D01*
X119019578Y-100688023D01*
X119025355Y-100683089D01*
X119108702Y-100567101D01*
X123205469Y-100567101D01*
X123205985Y-100573245D01*
X123212529Y-100651173D01*
X123222018Y-100764184D01*
X123235619Y-100811615D01*
X123266561Y-100919522D01*
X123276533Y-100954300D01*
X123279352Y-100959785D01*
X123327159Y-101052806D01*
X123366937Y-101130206D01*
X123489785Y-101285203D01*
X123494478Y-101289197D01*
X123494479Y-101289198D01*
X123597265Y-101376675D01*
X123640400Y-101413386D01*
X123813044Y-101509874D01*
X124001142Y-101570990D01*
X124197527Y-101594408D01*
X124203662Y-101593936D01*
X124203664Y-101593936D01*
X124388580Y-101579707D01*
X124388584Y-101579706D01*
X124394722Y-101579234D01*
X124585213Y-101526048D01*
X124590717Y-101523268D01*
X124590719Y-101523267D01*
X124756245Y-101439654D01*
X124756247Y-101439653D01*
X124761746Y-101436875D01*
X124917597Y-101315111D01*
X125046828Y-101165395D01*
X125144519Y-100993429D01*
X125206947Y-100805763D01*
X125222677Y-100681250D01*
X126305246Y-100681250D01*
X126305936Y-100687815D01*
X126324376Y-100863259D01*
X126325208Y-100871178D01*
X126384223Y-101052806D01*
X126479710Y-101218194D01*
X126484128Y-101223101D01*
X126484129Y-101223102D01*
X126498640Y-101239218D01*
X126607497Y-101360116D01*
X126761998Y-101472368D01*
X126768026Y-101475052D01*
X126768028Y-101475053D01*
X126923089Y-101544090D01*
X126936462Y-101550044D01*
X127026047Y-101569086D01*
X127116806Y-101588378D01*
X127116811Y-101588378D01*
X127123263Y-101589750D01*
X127314237Y-101589750D01*
X127320689Y-101588378D01*
X127320694Y-101588378D01*
X127411453Y-101569086D01*
X127501038Y-101550044D01*
X127514411Y-101544090D01*
X127669472Y-101475053D01*
X127669474Y-101475052D01*
X127675502Y-101472368D01*
X127830003Y-101360116D01*
X127938860Y-101239218D01*
X127953371Y-101223102D01*
X127953372Y-101223101D01*
X127957790Y-101218194D01*
X128053277Y-101052806D01*
X128112292Y-100871178D01*
X128113125Y-100863259D01*
X128131564Y-100687815D01*
X128132254Y-100681250D01*
X128127910Y-100639920D01*
X128117442Y-100540317D01*
X167712514Y-100540317D01*
X167713095Y-100545337D01*
X167713095Y-100545341D01*
X167739408Y-100772750D01*
X167740415Y-100781456D01*
X167741791Y-100786320D01*
X167741792Y-100786323D01*
X167787476Y-100947766D01*
X167806510Y-101015032D01*
X167808644Y-101019608D01*
X167808646Y-101019614D01*
X167903534Y-101223102D01*
X167909099Y-101235036D01*
X168045544Y-101435807D01*
X168212332Y-101612181D01*
X168216358Y-101615259D01*
X168216359Y-101615260D01*
X168401154Y-101756547D01*
X168401158Y-101756550D01*
X168405174Y-101759620D01*
X168409632Y-101762010D01*
X168409633Y-101762011D01*
X168488435Y-101804264D01*
X168619109Y-101874331D01*
X168848631Y-101953362D01*
X168947978Y-101970522D01*
X169083926Y-101994004D01*
X169083932Y-101994005D01*
X169087836Y-101994679D01*
X169091797Y-101994859D01*
X169091798Y-101994859D01*
X169115506Y-101995936D01*
X169115525Y-101995936D01*
X169116925Y-101996000D01*
X169786001Y-101996000D01*
X169788509Y-101995798D01*
X169788514Y-101995798D01*
X169961924Y-101981846D01*
X169961929Y-101981845D01*
X169966965Y-101981440D01*
X169971873Y-101980234D01*
X169971876Y-101980234D01*
X170197792Y-101924744D01*
X170202706Y-101923537D01*
X170207358Y-101921562D01*
X170207362Y-101921561D01*
X170421498Y-101830665D01*
X170426156Y-101828688D01*
X170534533Y-101760439D01*
X170627288Y-101702028D01*
X170627291Y-101702026D01*
X170631567Y-101699333D01*
X170733412Y-101609545D01*
X170809858Y-101542150D01*
X170809861Y-101542147D01*
X170813655Y-101538802D01*
X170816866Y-101534893D01*
X170964526Y-101355128D01*
X170964528Y-101355125D01*
X170967734Y-101351222D01*
X171042903Y-101222070D01*
X171087299Y-101145790D01*
X171087300Y-101145788D01*
X171089841Y-101141422D01*
X171091654Y-101136699D01*
X171175020Y-100919522D01*
X171175021Y-100919518D01*
X171176833Y-100914798D01*
X171177868Y-100909845D01*
X171225440Y-100682131D01*
X171225440Y-100682127D01*
X171226474Y-100677180D01*
X171237486Y-100434683D01*
X171227144Y-100345300D01*
X171210167Y-100198571D01*
X171210166Y-100198567D01*
X171209585Y-100193544D01*
X171170517Y-100055478D01*
X171144866Y-99964831D01*
X171143490Y-99959968D01*
X171141356Y-99955392D01*
X171141354Y-99955386D01*
X171043038Y-99744546D01*
X171043036Y-99744542D01*
X171040901Y-99739964D01*
X171034427Y-99730437D01*
X170959286Y-99619872D01*
X170904456Y-99539193D01*
X170737668Y-99362819D01*
X170733641Y-99359740D01*
X170548846Y-99218453D01*
X170548842Y-99218450D01*
X170544826Y-99215380D01*
X170330891Y-99100669D01*
X170101369Y-99021638D01*
X170002022Y-99004478D01*
X169866074Y-98980996D01*
X169866068Y-98980995D01*
X169862164Y-98980321D01*
X169858203Y-98980141D01*
X169858202Y-98980141D01*
X169834494Y-98979064D01*
X169834475Y-98979064D01*
X169833075Y-98979000D01*
X169163999Y-98979000D01*
X169161491Y-98979202D01*
X169161486Y-98979202D01*
X168988076Y-98993154D01*
X168988071Y-98993155D01*
X168983035Y-98993560D01*
X168978127Y-98994766D01*
X168978124Y-98994766D01*
X168862007Y-99023287D01*
X168747294Y-99051463D01*
X168742642Y-99053438D01*
X168742638Y-99053439D01*
X168635252Y-99099022D01*
X168523844Y-99146312D01*
X168519560Y-99149010D01*
X168322712Y-99272972D01*
X168322709Y-99272974D01*
X168318433Y-99275667D01*
X168314639Y-99279012D01*
X168140142Y-99432850D01*
X168140139Y-99432853D01*
X168136345Y-99436198D01*
X168133135Y-99440106D01*
X168133134Y-99440107D01*
X167990345Y-99613943D01*
X167982266Y-99623778D01*
X167970197Y-99644515D01*
X167870890Y-99815141D01*
X167860159Y-99833578D01*
X167858346Y-99838301D01*
X167781959Y-100037299D01*
X167773167Y-100060202D01*
X167772133Y-100065152D01*
X167772132Y-100065155D01*
X167736308Y-100236637D01*
X167723526Y-100297820D01*
X167712514Y-100540317D01*
X128117442Y-100540317D01*
X128112982Y-100497885D01*
X128112982Y-100497883D01*
X128112292Y-100491322D01*
X128053277Y-100309694D01*
X127957790Y-100144306D01*
X127934508Y-100118448D01*
X127834425Y-100007295D01*
X127834424Y-100007294D01*
X127830003Y-100002384D01*
X127675502Y-99890132D01*
X127669474Y-99887448D01*
X127669472Y-99887447D01*
X127507069Y-99815141D01*
X127507068Y-99815141D01*
X127501038Y-99812456D01*
X127407638Y-99792603D01*
X127320694Y-99774122D01*
X127320689Y-99774122D01*
X127314237Y-99772750D01*
X127123263Y-99772750D01*
X127116811Y-99774122D01*
X127116806Y-99774122D01*
X127029862Y-99792603D01*
X126936462Y-99812456D01*
X126930432Y-99815141D01*
X126930431Y-99815141D01*
X126768028Y-99887447D01*
X126768026Y-99887448D01*
X126761998Y-99890132D01*
X126607497Y-100002384D01*
X126603076Y-100007294D01*
X126603075Y-100007295D01*
X126502993Y-100118448D01*
X126479710Y-100144306D01*
X126384223Y-100309694D01*
X126325208Y-100491322D01*
X126324518Y-100497883D01*
X126324518Y-100497885D01*
X126309590Y-100639920D01*
X126305246Y-100681250D01*
X125222677Y-100681250D01*
X125231735Y-100609545D01*
X125232130Y-100581250D01*
X125212830Y-100384417D01*
X125155666Y-100195081D01*
X125062816Y-100020454D01*
X124954338Y-99887447D01*
X124941710Y-99871963D01*
X124941707Y-99871960D01*
X124937815Y-99867188D01*
X124931474Y-99861942D01*
X124790175Y-99745049D01*
X124790171Y-99745047D01*
X124785425Y-99741120D01*
X124611451Y-99647052D01*
X124422518Y-99588568D01*
X124416393Y-99587924D01*
X124416392Y-99587924D01*
X124231954Y-99568539D01*
X124231952Y-99568539D01*
X124225825Y-99567895D01*
X124143326Y-99575403D01*
X124035001Y-99585261D01*
X124034998Y-99585262D01*
X124028862Y-99585820D01*
X124022956Y-99587558D01*
X124022952Y-99587559D01*
X123933307Y-99613943D01*
X123839131Y-99641660D01*
X123833673Y-99644513D01*
X123833669Y-99644515D01*
X123742897Y-99691970D01*
X123663860Y-99733290D01*
X123509725Y-99857218D01*
X123382596Y-100008724D01*
X123379629Y-100014122D01*
X123379625Y-100014127D01*
X123322671Y-100117728D01*
X123287317Y-100182037D01*
X123285456Y-100187904D01*
X123285455Y-100187906D01*
X123236542Y-100342098D01*
X123227515Y-100370556D01*
X123205469Y-100567101D01*
X119108702Y-100567101D01*
X119125424Y-100543830D01*
X119189385Y-100384720D01*
X119200877Y-100303971D01*
X119212966Y-100219031D01*
X119212966Y-100219027D01*
X119213547Y-100214947D01*
X119213704Y-100200000D01*
X119204180Y-100121300D01*
X119194015Y-100037299D01*
X119194014Y-100037296D01*
X119193102Y-100029758D01*
X119189587Y-100020454D01*
X119135171Y-99876447D01*
X119132487Y-99869344D01*
X119066100Y-99772750D01*
X119039659Y-99734278D01*
X119039658Y-99734276D01*
X119035357Y-99728019D01*
X119029686Y-99722966D01*
X118912993Y-99618996D01*
X118912990Y-99618994D01*
X118907321Y-99613943D01*
X118899325Y-99609709D01*
X118762481Y-99537254D01*
X118762482Y-99537254D01*
X118755769Y-99533700D01*
X118738196Y-99529286D01*
X118596822Y-99493775D01*
X118596818Y-99493775D01*
X118589451Y-99491924D01*
X118581852Y-99491884D01*
X118581850Y-99491884D01*
X118510394Y-99491510D01*
X118417969Y-99491026D01*
X118410589Y-99492798D01*
X118410587Y-99492798D01*
X118369597Y-99502639D01*
X118251223Y-99531058D01*
X118244777Y-99534385D01*
X118174101Y-99539373D01*
X118111821Y-99505289D01*
X118077854Y-99442945D01*
X118075000Y-99416278D01*
X118075000Y-94557152D01*
X135366524Y-94557152D01*
X135368990Y-94565781D01*
X135368991Y-94565786D01*
X135374639Y-94585548D01*
X135378217Y-94602309D01*
X135381130Y-94622652D01*
X135381133Y-94622662D01*
X135382405Y-94631545D01*
X135393021Y-94654895D01*
X135399464Y-94672407D01*
X135406512Y-94697065D01*
X135422274Y-94722048D01*
X135430404Y-94737114D01*
X135442633Y-94764010D01*
X135459374Y-94783439D01*
X135470479Y-94798447D01*
X135484160Y-94820131D01*
X135490888Y-94826073D01*
X135506296Y-94839681D01*
X135518340Y-94851873D01*
X135537619Y-94874247D01*
X135545147Y-94879126D01*
X135545150Y-94879129D01*
X135559139Y-94888196D01*
X135574013Y-94899486D01*
X135593228Y-94916456D01*
X135601354Y-94920271D01*
X135601355Y-94920272D01*
X135607021Y-94922932D01*
X135619966Y-94929010D01*
X135634935Y-94937324D01*
X135659727Y-94953393D01*
X135676650Y-94958454D01*
X135684290Y-94960739D01*
X135701736Y-94967401D01*
X135724948Y-94978299D01*
X135754130Y-94982843D01*
X135770849Y-94986626D01*
X135790536Y-94992514D01*
X135790539Y-94992515D01*
X135799141Y-94995087D01*
X135808116Y-94995142D01*
X135808117Y-94995142D01*
X135814810Y-94995183D01*
X135833556Y-94995297D01*
X135834328Y-94995330D01*
X135835423Y-94995500D01*
X135866298Y-94995500D01*
X135867068Y-94995502D01*
X135940716Y-94995952D01*
X135940717Y-94995952D01*
X135944652Y-94995976D01*
X135945996Y-94995592D01*
X135947341Y-94995500D01*
X138966298Y-94995500D01*
X138967069Y-94995502D01*
X139044652Y-94995976D01*
X139053281Y-94993510D01*
X139053286Y-94993509D01*
X139073048Y-94987861D01*
X139089809Y-94984283D01*
X139110152Y-94981370D01*
X139110162Y-94981367D01*
X139119045Y-94980095D01*
X139142395Y-94969479D01*
X139159907Y-94963036D01*
X139175937Y-94958454D01*
X139184565Y-94955988D01*
X139209548Y-94940226D01*
X139224614Y-94932096D01*
X139251510Y-94919867D01*
X139270939Y-94903126D01*
X139285947Y-94892021D01*
X139300039Y-94883130D01*
X139307631Y-94878340D01*
X139327182Y-94856203D01*
X139339374Y-94844159D01*
X139354949Y-94830739D01*
X139354950Y-94830737D01*
X139361747Y-94824881D01*
X139366626Y-94817353D01*
X139366629Y-94817350D01*
X139375696Y-94803361D01*
X139386986Y-94788487D01*
X139398012Y-94776002D01*
X139403956Y-94769272D01*
X139416510Y-94742534D01*
X139424824Y-94727565D01*
X139440893Y-94702773D01*
X139448239Y-94678209D01*
X139454901Y-94660764D01*
X139461983Y-94645679D01*
X139465799Y-94637552D01*
X139470343Y-94608370D01*
X139474126Y-94591651D01*
X139480014Y-94571964D01*
X139480015Y-94571961D01*
X139482587Y-94563359D01*
X139482625Y-94557152D01*
X152466524Y-94557152D01*
X152468990Y-94565781D01*
X152468991Y-94565786D01*
X152474639Y-94585548D01*
X152478217Y-94602309D01*
X152481130Y-94622652D01*
X152481133Y-94622662D01*
X152482405Y-94631545D01*
X152493021Y-94654895D01*
X152499464Y-94672407D01*
X152506512Y-94697065D01*
X152522274Y-94722048D01*
X152530404Y-94737114D01*
X152542633Y-94764010D01*
X152559374Y-94783439D01*
X152570479Y-94798447D01*
X152584160Y-94820131D01*
X152590888Y-94826073D01*
X152606296Y-94839681D01*
X152618340Y-94851873D01*
X152637619Y-94874247D01*
X152645147Y-94879126D01*
X152645150Y-94879129D01*
X152659139Y-94888196D01*
X152674013Y-94899486D01*
X152693228Y-94916456D01*
X152701354Y-94920271D01*
X152701355Y-94920272D01*
X152707021Y-94922932D01*
X152719966Y-94929010D01*
X152734935Y-94937324D01*
X152759727Y-94953393D01*
X152776650Y-94958454D01*
X152784290Y-94960739D01*
X152801736Y-94967401D01*
X152824948Y-94978299D01*
X152854130Y-94982843D01*
X152870849Y-94986626D01*
X152890536Y-94992514D01*
X152890539Y-94992515D01*
X152899141Y-94995087D01*
X152908116Y-94995142D01*
X152908117Y-94995142D01*
X152914810Y-94995183D01*
X152933556Y-94995297D01*
X152934328Y-94995330D01*
X152935423Y-94995500D01*
X152966298Y-94995500D01*
X152967068Y-94995502D01*
X153040716Y-94995952D01*
X153040717Y-94995952D01*
X153044652Y-94995976D01*
X153045996Y-94995592D01*
X153047341Y-94995500D01*
X156066298Y-94995500D01*
X156067069Y-94995502D01*
X156144652Y-94995976D01*
X156153281Y-94993510D01*
X156153286Y-94993509D01*
X156173048Y-94987861D01*
X156189809Y-94984283D01*
X156210152Y-94981370D01*
X156210162Y-94981367D01*
X156219045Y-94980095D01*
X156242395Y-94969479D01*
X156259907Y-94963036D01*
X156275937Y-94958454D01*
X156284565Y-94955988D01*
X156309548Y-94940226D01*
X156324614Y-94932096D01*
X156351510Y-94919867D01*
X156370939Y-94903126D01*
X156385947Y-94892021D01*
X156400039Y-94883130D01*
X156407631Y-94878340D01*
X156427182Y-94856203D01*
X156439374Y-94844159D01*
X156454949Y-94830739D01*
X156454950Y-94830737D01*
X156461747Y-94824881D01*
X156466626Y-94817353D01*
X156466629Y-94817350D01*
X156475696Y-94803361D01*
X156486986Y-94788487D01*
X156498012Y-94776002D01*
X156503956Y-94769272D01*
X156516510Y-94742534D01*
X156524824Y-94727565D01*
X156540893Y-94702773D01*
X156548239Y-94678209D01*
X156554901Y-94660764D01*
X156561983Y-94645679D01*
X156565799Y-94637552D01*
X156570343Y-94608370D01*
X156574126Y-94591651D01*
X156580014Y-94571964D01*
X156580015Y-94571961D01*
X156582587Y-94563359D01*
X156582797Y-94528944D01*
X156582830Y-94528172D01*
X156583000Y-94527077D01*
X156583000Y-94496202D01*
X156583002Y-94495432D01*
X156583452Y-94421784D01*
X156583452Y-94421783D01*
X156583476Y-94417848D01*
X156583092Y-94416504D01*
X156583000Y-94415159D01*
X156583000Y-93296202D01*
X156583002Y-93295432D01*
X156583421Y-93226822D01*
X156583476Y-93217848D01*
X156581010Y-93209219D01*
X156581009Y-93209214D01*
X156575361Y-93189452D01*
X156571783Y-93172691D01*
X156568870Y-93152348D01*
X156568867Y-93152338D01*
X156567595Y-93143455D01*
X156556979Y-93120105D01*
X156550536Y-93102593D01*
X156545954Y-93086563D01*
X156543488Y-93077935D01*
X156527726Y-93052952D01*
X156519596Y-93037886D01*
X156507367Y-93010990D01*
X156490626Y-92991561D01*
X156479521Y-92976553D01*
X156470630Y-92962461D01*
X156465840Y-92954869D01*
X156443703Y-92935318D01*
X156431659Y-92923126D01*
X156418239Y-92907551D01*
X156418237Y-92907550D01*
X156412381Y-92900753D01*
X156404853Y-92895874D01*
X156404850Y-92895871D01*
X156390861Y-92886804D01*
X156375987Y-92875514D01*
X156363502Y-92864488D01*
X156356772Y-92858544D01*
X156348646Y-92854729D01*
X156348645Y-92854728D01*
X156342979Y-92852068D01*
X156330034Y-92845990D01*
X156315065Y-92837676D01*
X156290273Y-92821607D01*
X156265709Y-92814261D01*
X156248264Y-92807599D01*
X156243827Y-92805516D01*
X156225052Y-92796701D01*
X156195870Y-92792157D01*
X156179151Y-92788374D01*
X156159464Y-92782486D01*
X156159461Y-92782485D01*
X156150859Y-92779913D01*
X156141884Y-92779858D01*
X156141883Y-92779858D01*
X156135190Y-92779817D01*
X156116444Y-92779703D01*
X156115672Y-92779670D01*
X156114577Y-92779500D01*
X156083702Y-92779500D01*
X156082932Y-92779498D01*
X156009284Y-92779048D01*
X156009283Y-92779048D01*
X156005348Y-92779024D01*
X156004004Y-92779408D01*
X156002659Y-92779500D01*
X152983702Y-92779500D01*
X152982932Y-92779498D01*
X152982078Y-92779493D01*
X152905348Y-92779024D01*
X152896719Y-92781490D01*
X152896714Y-92781491D01*
X152876952Y-92787139D01*
X152860191Y-92790717D01*
X152839848Y-92793630D01*
X152839838Y-92793633D01*
X152830955Y-92794905D01*
X152807605Y-92805521D01*
X152790093Y-92811964D01*
X152782057Y-92814261D01*
X152765435Y-92819012D01*
X152740452Y-92834774D01*
X152725386Y-92842904D01*
X152698490Y-92855133D01*
X152679061Y-92871874D01*
X152664053Y-92882979D01*
X152642369Y-92896660D01*
X152636427Y-92903388D01*
X152622819Y-92918796D01*
X152610627Y-92930840D01*
X152588253Y-92950119D01*
X152583374Y-92957647D01*
X152583371Y-92957650D01*
X152574304Y-92971639D01*
X152563014Y-92986513D01*
X152546044Y-93005728D01*
X152533490Y-93032466D01*
X152525176Y-93047435D01*
X152509107Y-93072227D01*
X152506535Y-93080827D01*
X152501761Y-93096790D01*
X152495099Y-93114236D01*
X152484201Y-93137448D01*
X152479658Y-93166628D01*
X152475874Y-93183349D01*
X152469986Y-93203036D01*
X152469985Y-93203039D01*
X152467413Y-93211641D01*
X152467358Y-93220616D01*
X152467358Y-93220617D01*
X152467203Y-93246046D01*
X152467170Y-93246828D01*
X152467000Y-93247923D01*
X152467000Y-93278798D01*
X152466998Y-93279568D01*
X152466524Y-93357152D01*
X152466908Y-93358496D01*
X152467000Y-93359841D01*
X152467000Y-94478798D01*
X152466998Y-94479568D01*
X152466524Y-94557152D01*
X139482625Y-94557152D01*
X139482797Y-94528944D01*
X139482830Y-94528172D01*
X139483000Y-94527077D01*
X139483000Y-94496202D01*
X139483002Y-94495432D01*
X139483452Y-94421784D01*
X139483452Y-94421783D01*
X139483476Y-94417848D01*
X139483092Y-94416504D01*
X139483000Y-94415159D01*
X139483000Y-93296202D01*
X139483002Y-93295432D01*
X139483421Y-93226822D01*
X139483476Y-93217848D01*
X139481010Y-93209219D01*
X139481009Y-93209214D01*
X139475361Y-93189452D01*
X139471783Y-93172691D01*
X139468870Y-93152348D01*
X139468867Y-93152338D01*
X139467595Y-93143455D01*
X139456979Y-93120105D01*
X139450536Y-93102593D01*
X139445954Y-93086563D01*
X139443488Y-93077935D01*
X139427726Y-93052952D01*
X139419596Y-93037886D01*
X139407367Y-93010990D01*
X139390626Y-92991561D01*
X139379521Y-92976553D01*
X139370630Y-92962461D01*
X139365840Y-92954869D01*
X139343703Y-92935318D01*
X139331659Y-92923126D01*
X139318239Y-92907551D01*
X139318237Y-92907550D01*
X139312381Y-92900753D01*
X139304853Y-92895874D01*
X139304850Y-92895871D01*
X139290861Y-92886804D01*
X139275987Y-92875514D01*
X139263502Y-92864488D01*
X139256772Y-92858544D01*
X139248646Y-92854729D01*
X139248645Y-92854728D01*
X139242979Y-92852068D01*
X139230034Y-92845990D01*
X139215065Y-92837676D01*
X139190273Y-92821607D01*
X139165709Y-92814261D01*
X139148264Y-92807599D01*
X139143827Y-92805516D01*
X139125052Y-92796701D01*
X139095870Y-92792157D01*
X139079151Y-92788374D01*
X139059464Y-92782486D01*
X139059461Y-92782485D01*
X139050859Y-92779913D01*
X139041884Y-92779858D01*
X139041883Y-92779858D01*
X139035190Y-92779817D01*
X139016444Y-92779703D01*
X139015672Y-92779670D01*
X139014577Y-92779500D01*
X138983702Y-92779500D01*
X138982932Y-92779498D01*
X138909284Y-92779048D01*
X138909283Y-92779048D01*
X138905348Y-92779024D01*
X138904004Y-92779408D01*
X138902659Y-92779500D01*
X135883702Y-92779500D01*
X135882932Y-92779498D01*
X135882078Y-92779493D01*
X135805348Y-92779024D01*
X135796719Y-92781490D01*
X135796714Y-92781491D01*
X135776952Y-92787139D01*
X135760191Y-92790717D01*
X135739848Y-92793630D01*
X135739838Y-92793633D01*
X135730955Y-92794905D01*
X135707605Y-92805521D01*
X135690093Y-92811964D01*
X135682057Y-92814261D01*
X135665435Y-92819012D01*
X135640452Y-92834774D01*
X135625386Y-92842904D01*
X135598490Y-92855133D01*
X135579061Y-92871874D01*
X135564053Y-92882979D01*
X135542369Y-92896660D01*
X135536427Y-92903388D01*
X135522819Y-92918796D01*
X135510627Y-92930840D01*
X135488253Y-92950119D01*
X135483374Y-92957647D01*
X135483371Y-92957650D01*
X135474304Y-92971639D01*
X135463014Y-92986513D01*
X135446044Y-93005728D01*
X135433490Y-93032466D01*
X135425176Y-93047435D01*
X135409107Y-93072227D01*
X135406535Y-93080827D01*
X135401761Y-93096790D01*
X135395099Y-93114236D01*
X135384201Y-93137448D01*
X135379658Y-93166628D01*
X135375874Y-93183349D01*
X135369986Y-93203036D01*
X135369985Y-93203039D01*
X135367413Y-93211641D01*
X135367358Y-93220616D01*
X135367358Y-93220617D01*
X135367203Y-93246046D01*
X135367170Y-93246828D01*
X135367000Y-93247923D01*
X135367000Y-93278798D01*
X135366998Y-93279568D01*
X135366524Y-93357152D01*
X135366908Y-93358496D01*
X135367000Y-93359841D01*
X135367000Y-94478798D01*
X135366998Y-94479568D01*
X135366524Y-94557152D01*
X118075000Y-94557152D01*
X118075000Y-88987500D01*
X115642687Y-86654195D01*
X114626977Y-85679829D01*
X114591665Y-85618237D01*
X114595258Y-85547331D01*
X114606770Y-85523068D01*
X114640588Y-85467881D01*
X114642709Y-85464538D01*
X114656110Y-85444138D01*
X115278548Y-84496567D01*
X115280773Y-84493293D01*
X115946714Y-83545755D01*
X115949041Y-83542553D01*
X116644393Y-82616432D01*
X116646819Y-82613304D01*
X116664378Y-82591387D01*
X118525319Y-82591387D01*
X118525616Y-82596539D01*
X118525616Y-82596543D01*
X118530992Y-82689768D01*
X118538415Y-82818511D01*
X118539552Y-82823557D01*
X118539553Y-82823563D01*
X118559833Y-82913549D01*
X118588430Y-83040446D01*
X118674022Y-83251232D01*
X118792891Y-83445209D01*
X118941845Y-83617166D01*
X119116884Y-83762486D01*
X119121336Y-83765088D01*
X119121341Y-83765091D01*
X119308849Y-83874662D01*
X119313307Y-83877267D01*
X119525840Y-83958425D01*
X119601335Y-83973784D01*
X119664100Y-84006965D01*
X119698963Y-84068813D01*
X119694854Y-84139690D01*
X119672026Y-84179086D01*
X119525207Y-84350988D01*
X119397032Y-84560152D01*
X119303154Y-84786792D01*
X119245887Y-85025327D01*
X119226640Y-85269884D01*
X119245887Y-85514441D01*
X119247041Y-85519248D01*
X119247042Y-85519254D01*
X119255696Y-85555300D01*
X119303154Y-85752976D01*
X119305047Y-85757547D01*
X119305048Y-85757549D01*
X119333361Y-85825901D01*
X119397032Y-85979616D01*
X119525207Y-86188780D01*
X119528422Y-86192544D01*
X119528424Y-86192547D01*
X119681318Y-86371561D01*
X119684526Y-86375317D01*
X119688282Y-86378525D01*
X119789368Y-86464861D01*
X119871063Y-86534636D01*
X119875286Y-86537224D01*
X119875289Y-86537226D01*
X119944474Y-86579622D01*
X120080227Y-86662811D01*
X120224926Y-86722748D01*
X120302294Y-86754795D01*
X120302296Y-86754796D01*
X120306867Y-86756689D01*
X120389522Y-86776533D01*
X120540589Y-86812801D01*
X120540595Y-86812802D01*
X120545402Y-86813956D01*
X120789959Y-86833203D01*
X121034516Y-86813956D01*
X121039323Y-86812802D01*
X121039329Y-86812801D01*
X121190396Y-86776533D01*
X121273051Y-86756689D01*
X121277622Y-86754796D01*
X121277624Y-86754795D01*
X121354992Y-86722748D01*
X121499691Y-86662811D01*
X121513751Y-86654195D01*
X131877251Y-86654195D01*
X131877548Y-86659348D01*
X131877548Y-86659351D01*
X131886485Y-86814344D01*
X131890110Y-86877215D01*
X131891247Y-86882261D01*
X131891248Y-86882267D01*
X131905606Y-86945975D01*
X131939222Y-87095139D01*
X132023266Y-87302116D01*
X132074942Y-87386444D01*
X132137291Y-87488188D01*
X132139987Y-87492588D01*
X132286250Y-87661438D01*
X132458126Y-87804132D01*
X132651000Y-87916838D01*
X132859692Y-87996530D01*
X132864760Y-87997561D01*
X132864763Y-87997562D01*
X132972017Y-88019383D01*
X133078597Y-88041067D01*
X133083772Y-88041257D01*
X133083774Y-88041257D01*
X133296673Y-88049064D01*
X133296677Y-88049064D01*
X133301837Y-88049253D01*
X133306957Y-88048597D01*
X133306959Y-88048597D01*
X133518288Y-88021525D01*
X133518289Y-88021525D01*
X133523416Y-88020868D01*
X133528366Y-88019383D01*
X133732429Y-87958161D01*
X133732434Y-87958159D01*
X133737384Y-87956674D01*
X133937994Y-87858396D01*
X134119860Y-87728673D01*
X134278096Y-87570989D01*
X134337594Y-87488189D01*
X134408453Y-87389577D01*
X134409776Y-87390528D01*
X134456645Y-87347357D01*
X134526580Y-87335125D01*
X134592026Y-87362644D01*
X134619875Y-87394494D01*
X134679987Y-87492588D01*
X134826250Y-87661438D01*
X134998126Y-87804132D01*
X135191000Y-87916838D01*
X135399692Y-87996530D01*
X135404760Y-87997561D01*
X135404763Y-87997562D01*
X135512017Y-88019383D01*
X135618597Y-88041067D01*
X135623772Y-88041257D01*
X135623774Y-88041257D01*
X135836673Y-88049064D01*
X135836677Y-88049064D01*
X135841837Y-88049253D01*
X135846957Y-88048597D01*
X135846959Y-88048597D01*
X136058288Y-88021525D01*
X136058289Y-88021525D01*
X136063416Y-88020868D01*
X136068366Y-88019383D01*
X136272429Y-87958161D01*
X136272434Y-87958159D01*
X136277384Y-87956674D01*
X136477994Y-87858396D01*
X136659860Y-87728673D01*
X136818096Y-87570989D01*
X136877594Y-87488189D01*
X136948453Y-87389577D01*
X136949776Y-87390528D01*
X136996645Y-87347357D01*
X137066580Y-87335125D01*
X137132026Y-87362644D01*
X137159875Y-87394494D01*
X137219987Y-87492588D01*
X137366250Y-87661438D01*
X137538126Y-87804132D01*
X137731000Y-87916838D01*
X137939692Y-87996530D01*
X137944760Y-87997561D01*
X137944763Y-87997562D01*
X138052017Y-88019383D01*
X138158597Y-88041067D01*
X138163772Y-88041257D01*
X138163774Y-88041257D01*
X138376673Y-88049064D01*
X138376677Y-88049064D01*
X138381837Y-88049253D01*
X138386957Y-88048597D01*
X138386959Y-88048597D01*
X138598288Y-88021525D01*
X138598289Y-88021525D01*
X138603416Y-88020868D01*
X138608366Y-88019383D01*
X138812429Y-87958161D01*
X138812434Y-87958159D01*
X138817384Y-87956674D01*
X139017994Y-87858396D01*
X139199860Y-87728673D01*
X139358096Y-87570989D01*
X139417594Y-87488189D01*
X139488453Y-87389577D01*
X139489776Y-87390528D01*
X139536645Y-87347357D01*
X139606580Y-87335125D01*
X139672026Y-87362644D01*
X139699875Y-87394494D01*
X139759987Y-87492588D01*
X139906250Y-87661438D01*
X140078126Y-87804132D01*
X140271000Y-87916838D01*
X140479692Y-87996530D01*
X140484760Y-87997561D01*
X140484763Y-87997562D01*
X140592017Y-88019383D01*
X140698597Y-88041067D01*
X140703772Y-88041257D01*
X140703774Y-88041257D01*
X140916673Y-88049064D01*
X140916677Y-88049064D01*
X140921837Y-88049253D01*
X140926957Y-88048597D01*
X140926959Y-88048597D01*
X141138288Y-88021525D01*
X141138289Y-88021525D01*
X141143416Y-88020868D01*
X141148366Y-88019383D01*
X141352429Y-87958161D01*
X141352434Y-87958159D01*
X141357384Y-87956674D01*
X141557994Y-87858396D01*
X141739860Y-87728673D01*
X141898096Y-87570989D01*
X141957594Y-87488189D01*
X142028453Y-87389577D01*
X142029776Y-87390528D01*
X142076645Y-87347357D01*
X142146580Y-87335125D01*
X142212026Y-87362644D01*
X142239875Y-87394494D01*
X142299987Y-87492588D01*
X142446250Y-87661438D01*
X142618126Y-87804132D01*
X142811000Y-87916838D01*
X143019692Y-87996530D01*
X143024760Y-87997561D01*
X143024763Y-87997562D01*
X143132017Y-88019383D01*
X143238597Y-88041067D01*
X143243772Y-88041257D01*
X143243774Y-88041257D01*
X143456673Y-88049064D01*
X143456677Y-88049064D01*
X143461837Y-88049253D01*
X143466957Y-88048597D01*
X143466959Y-88048597D01*
X143678288Y-88021525D01*
X143678289Y-88021525D01*
X143683416Y-88020868D01*
X143688366Y-88019383D01*
X143892429Y-87958161D01*
X143892434Y-87958159D01*
X143897384Y-87956674D01*
X144097994Y-87858396D01*
X144279860Y-87728673D01*
X144438096Y-87570989D01*
X144497594Y-87488189D01*
X144568453Y-87389577D01*
X144569776Y-87390528D01*
X144616645Y-87347357D01*
X144686580Y-87335125D01*
X144752026Y-87362644D01*
X144779875Y-87394494D01*
X144839987Y-87492588D01*
X144986250Y-87661438D01*
X145158126Y-87804132D01*
X145351000Y-87916838D01*
X145559692Y-87996530D01*
X145564760Y-87997561D01*
X145564763Y-87997562D01*
X145672017Y-88019383D01*
X145778597Y-88041067D01*
X145783772Y-88041257D01*
X145783774Y-88041257D01*
X145996673Y-88049064D01*
X145996677Y-88049064D01*
X146001837Y-88049253D01*
X146006957Y-88048597D01*
X146006959Y-88048597D01*
X146218288Y-88021525D01*
X146218289Y-88021525D01*
X146223416Y-88020868D01*
X146228366Y-88019383D01*
X146432429Y-87958161D01*
X146432434Y-87958159D01*
X146437384Y-87956674D01*
X146637994Y-87858396D01*
X146819860Y-87728673D01*
X146978096Y-87570989D01*
X147037594Y-87488189D01*
X147108453Y-87389577D01*
X147109776Y-87390528D01*
X147156645Y-87347357D01*
X147226580Y-87335125D01*
X147292026Y-87362644D01*
X147319875Y-87394494D01*
X147379987Y-87492588D01*
X147526250Y-87661438D01*
X147698126Y-87804132D01*
X147891000Y-87916838D01*
X148099692Y-87996530D01*
X148104760Y-87997561D01*
X148104763Y-87997562D01*
X148212017Y-88019383D01*
X148318597Y-88041067D01*
X148323772Y-88041257D01*
X148323774Y-88041257D01*
X148536673Y-88049064D01*
X148536677Y-88049064D01*
X148541837Y-88049253D01*
X148546957Y-88048597D01*
X148546959Y-88048597D01*
X148758288Y-88021525D01*
X148758289Y-88021525D01*
X148763416Y-88020868D01*
X148768366Y-88019383D01*
X148972429Y-87958161D01*
X148972434Y-87958159D01*
X148977384Y-87956674D01*
X149177994Y-87858396D01*
X149359860Y-87728673D01*
X149518096Y-87570989D01*
X149577594Y-87488189D01*
X149648453Y-87389577D01*
X149649776Y-87390528D01*
X149696645Y-87347357D01*
X149766580Y-87335125D01*
X149832026Y-87362644D01*
X149859875Y-87394494D01*
X149919987Y-87492588D01*
X150066250Y-87661438D01*
X150238126Y-87804132D01*
X150431000Y-87916838D01*
X150639692Y-87996530D01*
X150644760Y-87997561D01*
X150644763Y-87997562D01*
X150752017Y-88019383D01*
X150858597Y-88041067D01*
X150863772Y-88041257D01*
X150863774Y-88041257D01*
X151076673Y-88049064D01*
X151076677Y-88049064D01*
X151081837Y-88049253D01*
X151086957Y-88048597D01*
X151086959Y-88048597D01*
X151298288Y-88021525D01*
X151298289Y-88021525D01*
X151303416Y-88020868D01*
X151308366Y-88019383D01*
X151512429Y-87958161D01*
X151512434Y-87958159D01*
X151517384Y-87956674D01*
X151717994Y-87858396D01*
X151899860Y-87728673D01*
X152058096Y-87570989D01*
X152117594Y-87488189D01*
X152188453Y-87389577D01*
X152189776Y-87390528D01*
X152236645Y-87347357D01*
X152306580Y-87335125D01*
X152372026Y-87362644D01*
X152399875Y-87394494D01*
X152459987Y-87492588D01*
X152606250Y-87661438D01*
X152778126Y-87804132D01*
X152971000Y-87916838D01*
X153179692Y-87996530D01*
X153184760Y-87997561D01*
X153184763Y-87997562D01*
X153292017Y-88019383D01*
X153398597Y-88041067D01*
X153403772Y-88041257D01*
X153403774Y-88041257D01*
X153616673Y-88049064D01*
X153616677Y-88049064D01*
X153621837Y-88049253D01*
X153626957Y-88048597D01*
X153626959Y-88048597D01*
X153838288Y-88021525D01*
X153838289Y-88021525D01*
X153843416Y-88020868D01*
X153848366Y-88019383D01*
X154052429Y-87958161D01*
X154052434Y-87958159D01*
X154057384Y-87956674D01*
X154257994Y-87858396D01*
X154439860Y-87728673D01*
X154507331Y-87661438D01*
X154548479Y-87620433D01*
X154610851Y-87586517D01*
X154681658Y-87591705D01*
X154738419Y-87634351D01*
X154755401Y-87665454D01*
X154796676Y-87775554D01*
X154805214Y-87791149D01*
X154881715Y-87893224D01*
X154894276Y-87905785D01*
X154996351Y-87982286D01*
X155011946Y-87990824D01*
X155132394Y-88035978D01*
X155147649Y-88039605D01*
X155198514Y-88045131D01*
X155205328Y-88045500D01*
X155827885Y-88045500D01*
X155843124Y-88041025D01*
X155844329Y-88039635D01*
X155846000Y-88031952D01*
X155846000Y-88027384D01*
X156354000Y-88027384D01*
X156358475Y-88042623D01*
X156359865Y-88043828D01*
X156367548Y-88045499D01*
X156994669Y-88045499D01*
X157001490Y-88045129D01*
X157052352Y-88039605D01*
X157067604Y-88035979D01*
X157188054Y-87990824D01*
X157203649Y-87982286D01*
X157305724Y-87905785D01*
X157318285Y-87893224D01*
X157394786Y-87791149D01*
X157403324Y-87775554D01*
X157448478Y-87655106D01*
X157452105Y-87639851D01*
X157457631Y-87588986D01*
X157458000Y-87582172D01*
X157458000Y-86959615D01*
X157453525Y-86944376D01*
X157452135Y-86943171D01*
X157444452Y-86941500D01*
X156372115Y-86941500D01*
X156356876Y-86945975D01*
X156355671Y-86947365D01*
X156354000Y-86955048D01*
X156354000Y-88027384D01*
X155846000Y-88027384D01*
X155846000Y-86415385D01*
X156354000Y-86415385D01*
X156358475Y-86430624D01*
X156359865Y-86431829D01*
X156367548Y-86433500D01*
X157439884Y-86433500D01*
X157455123Y-86429025D01*
X157456328Y-86427635D01*
X157457999Y-86419952D01*
X157457999Y-85792831D01*
X157457629Y-85786010D01*
X157452105Y-85735148D01*
X157448479Y-85719896D01*
X157403324Y-85599446D01*
X157394786Y-85583851D01*
X157318285Y-85481776D01*
X157305724Y-85469215D01*
X157203649Y-85392714D01*
X157188054Y-85384176D01*
X157067606Y-85339022D01*
X157052351Y-85335395D01*
X157001486Y-85329869D01*
X156994672Y-85329500D01*
X156372115Y-85329500D01*
X156356876Y-85333975D01*
X156355671Y-85335365D01*
X156354000Y-85343048D01*
X156354000Y-86415385D01*
X155846000Y-86415385D01*
X155846000Y-85347616D01*
X155841525Y-85332377D01*
X155840135Y-85331172D01*
X155832452Y-85329501D01*
X155205331Y-85329501D01*
X155198510Y-85329871D01*
X155147648Y-85335395D01*
X155132396Y-85339021D01*
X155011946Y-85384176D01*
X154996351Y-85392714D01*
X154894276Y-85469215D01*
X154881715Y-85481776D01*
X154805214Y-85583851D01*
X154796676Y-85599446D01*
X154755297Y-85709822D01*
X154712655Y-85766587D01*
X154646093Y-85791286D01*
X154576744Y-85776078D01*
X154544121Y-85750391D01*
X154493151Y-85694376D01*
X154493145Y-85694370D01*
X154489670Y-85690551D01*
X154485619Y-85687352D01*
X154485615Y-85687348D01*
X154318414Y-85555300D01*
X154318410Y-85555298D01*
X154314359Y-85552098D01*
X154118789Y-85444138D01*
X154113920Y-85442414D01*
X154113916Y-85442412D01*
X153913087Y-85371295D01*
X153913083Y-85371294D01*
X153908212Y-85369569D01*
X153903119Y-85368662D01*
X153903116Y-85368661D01*
X153693373Y-85331300D01*
X153693367Y-85331299D01*
X153688284Y-85330394D01*
X153614452Y-85329492D01*
X153470081Y-85327728D01*
X153470079Y-85327728D01*
X153464911Y-85327665D01*
X153244091Y-85361455D01*
X153031756Y-85430857D01*
X153001443Y-85446637D01*
X152854621Y-85523068D01*
X152833607Y-85534007D01*
X152829474Y-85537110D01*
X152829471Y-85537112D01*
X152746450Y-85599446D01*
X152654965Y-85668135D01*
X152500629Y-85829638D01*
X152393201Y-85987121D01*
X152338293Y-86032121D01*
X152267768Y-86040292D01*
X152204021Y-86009038D01*
X152183324Y-85984554D01*
X152102822Y-85860117D01*
X152102820Y-85860114D01*
X152100014Y-85855777D01*
X151949670Y-85690551D01*
X151945619Y-85687352D01*
X151945615Y-85687348D01*
X151778414Y-85555300D01*
X151778410Y-85555298D01*
X151774359Y-85552098D01*
X151578789Y-85444138D01*
X151573920Y-85442414D01*
X151573916Y-85442412D01*
X151373087Y-85371295D01*
X151373083Y-85371294D01*
X151368212Y-85369569D01*
X151363119Y-85368662D01*
X151363116Y-85368661D01*
X151153373Y-85331300D01*
X151153367Y-85331299D01*
X151148284Y-85330394D01*
X151074452Y-85329492D01*
X150930081Y-85327728D01*
X150930079Y-85327728D01*
X150924911Y-85327665D01*
X150704091Y-85361455D01*
X150491756Y-85430857D01*
X150461443Y-85446637D01*
X150314621Y-85523068D01*
X150293607Y-85534007D01*
X150289474Y-85537110D01*
X150289471Y-85537112D01*
X150206450Y-85599446D01*
X150114965Y-85668135D01*
X149960629Y-85829638D01*
X149853201Y-85987121D01*
X149798293Y-86032121D01*
X149727768Y-86040292D01*
X149664021Y-86009038D01*
X149643324Y-85984554D01*
X149562822Y-85860117D01*
X149562820Y-85860114D01*
X149560014Y-85855777D01*
X149409670Y-85690551D01*
X149405619Y-85687352D01*
X149405615Y-85687348D01*
X149238414Y-85555300D01*
X149238410Y-85555298D01*
X149234359Y-85552098D01*
X149038789Y-85444138D01*
X149033920Y-85442414D01*
X149033916Y-85442412D01*
X148833087Y-85371295D01*
X148833083Y-85371294D01*
X148828212Y-85369569D01*
X148823119Y-85368662D01*
X148823116Y-85368661D01*
X148613373Y-85331300D01*
X148613367Y-85331299D01*
X148608284Y-85330394D01*
X148534452Y-85329492D01*
X148390081Y-85327728D01*
X148390079Y-85327728D01*
X148384911Y-85327665D01*
X148164091Y-85361455D01*
X147951756Y-85430857D01*
X147921443Y-85446637D01*
X147774621Y-85523068D01*
X147753607Y-85534007D01*
X147749474Y-85537110D01*
X147749471Y-85537112D01*
X147666450Y-85599446D01*
X147574965Y-85668135D01*
X147420629Y-85829638D01*
X147313201Y-85987121D01*
X147258293Y-86032121D01*
X147187768Y-86040292D01*
X147124021Y-86009038D01*
X147103324Y-85984554D01*
X147022822Y-85860117D01*
X147022820Y-85860114D01*
X147020014Y-85855777D01*
X146869670Y-85690551D01*
X146865619Y-85687352D01*
X146865615Y-85687348D01*
X146698414Y-85555300D01*
X146698410Y-85555298D01*
X146694359Y-85552098D01*
X146498789Y-85444138D01*
X146493920Y-85442414D01*
X146493916Y-85442412D01*
X146293087Y-85371295D01*
X146293083Y-85371294D01*
X146288212Y-85369569D01*
X146283119Y-85368662D01*
X146283116Y-85368661D01*
X146073373Y-85331300D01*
X146073367Y-85331299D01*
X146068284Y-85330394D01*
X145994452Y-85329492D01*
X145850081Y-85327728D01*
X145850079Y-85327728D01*
X145844911Y-85327665D01*
X145624091Y-85361455D01*
X145411756Y-85430857D01*
X145381443Y-85446637D01*
X145234621Y-85523068D01*
X145213607Y-85534007D01*
X145209474Y-85537110D01*
X145209471Y-85537112D01*
X145126450Y-85599446D01*
X145034965Y-85668135D01*
X144880629Y-85829638D01*
X144773201Y-85987121D01*
X144718293Y-86032121D01*
X144647768Y-86040292D01*
X144584021Y-86009038D01*
X144563324Y-85984554D01*
X144482822Y-85860117D01*
X144482820Y-85860114D01*
X144480014Y-85855777D01*
X144329670Y-85690551D01*
X144325619Y-85687352D01*
X144325615Y-85687348D01*
X144158414Y-85555300D01*
X144158410Y-85555298D01*
X144154359Y-85552098D01*
X143958789Y-85444138D01*
X143953920Y-85442414D01*
X143953916Y-85442412D01*
X143753087Y-85371295D01*
X143753083Y-85371294D01*
X143748212Y-85369569D01*
X143743119Y-85368662D01*
X143743116Y-85368661D01*
X143533373Y-85331300D01*
X143533367Y-85331299D01*
X143528284Y-85330394D01*
X143454452Y-85329492D01*
X143310081Y-85327728D01*
X143310079Y-85327728D01*
X143304911Y-85327665D01*
X143084091Y-85361455D01*
X142871756Y-85430857D01*
X142841443Y-85446637D01*
X142694621Y-85523068D01*
X142673607Y-85534007D01*
X142669474Y-85537110D01*
X142669471Y-85537112D01*
X142586450Y-85599446D01*
X142494965Y-85668135D01*
X142340629Y-85829638D01*
X142233201Y-85987121D01*
X142178293Y-86032121D01*
X142107768Y-86040292D01*
X142044021Y-86009038D01*
X142023324Y-85984554D01*
X141942822Y-85860117D01*
X141942820Y-85860114D01*
X141940014Y-85855777D01*
X141789670Y-85690551D01*
X141785619Y-85687352D01*
X141785615Y-85687348D01*
X141618414Y-85555300D01*
X141618410Y-85555298D01*
X141614359Y-85552098D01*
X141418789Y-85444138D01*
X141413920Y-85442414D01*
X141413916Y-85442412D01*
X141213087Y-85371295D01*
X141213083Y-85371294D01*
X141208212Y-85369569D01*
X141203119Y-85368662D01*
X141203116Y-85368661D01*
X140993373Y-85331300D01*
X140993367Y-85331299D01*
X140988284Y-85330394D01*
X140914452Y-85329492D01*
X140770081Y-85327728D01*
X140770079Y-85327728D01*
X140764911Y-85327665D01*
X140544091Y-85361455D01*
X140331756Y-85430857D01*
X140301443Y-85446637D01*
X140154621Y-85523068D01*
X140133607Y-85534007D01*
X140129474Y-85537110D01*
X140129471Y-85537112D01*
X140046450Y-85599446D01*
X139954965Y-85668135D01*
X139800629Y-85829638D01*
X139693201Y-85987121D01*
X139638293Y-86032121D01*
X139567768Y-86040292D01*
X139504021Y-86009038D01*
X139483324Y-85984554D01*
X139402822Y-85860117D01*
X139402820Y-85860114D01*
X139400014Y-85855777D01*
X139249670Y-85690551D01*
X139245619Y-85687352D01*
X139245615Y-85687348D01*
X139078414Y-85555300D01*
X139078410Y-85555298D01*
X139074359Y-85552098D01*
X138878789Y-85444138D01*
X138873920Y-85442414D01*
X138873916Y-85442412D01*
X138673087Y-85371295D01*
X138673083Y-85371294D01*
X138668212Y-85369569D01*
X138663119Y-85368662D01*
X138663116Y-85368661D01*
X138453373Y-85331300D01*
X138453367Y-85331299D01*
X138448284Y-85330394D01*
X138374452Y-85329492D01*
X138230081Y-85327728D01*
X138230079Y-85327728D01*
X138224911Y-85327665D01*
X138004091Y-85361455D01*
X137791756Y-85430857D01*
X137761443Y-85446637D01*
X137614621Y-85523068D01*
X137593607Y-85534007D01*
X137589474Y-85537110D01*
X137589471Y-85537112D01*
X137506450Y-85599446D01*
X137414965Y-85668135D01*
X137260629Y-85829638D01*
X137153201Y-85987121D01*
X137098293Y-86032121D01*
X137027768Y-86040292D01*
X136964021Y-86009038D01*
X136943324Y-85984554D01*
X136862822Y-85860117D01*
X136862820Y-85860114D01*
X136860014Y-85855777D01*
X136709670Y-85690551D01*
X136705619Y-85687352D01*
X136705615Y-85687348D01*
X136538414Y-85555300D01*
X136538410Y-85555298D01*
X136534359Y-85552098D01*
X136338789Y-85444138D01*
X136333920Y-85442414D01*
X136333916Y-85442412D01*
X136133087Y-85371295D01*
X136133083Y-85371294D01*
X136128212Y-85369569D01*
X136123119Y-85368662D01*
X136123116Y-85368661D01*
X135913373Y-85331300D01*
X135913367Y-85331299D01*
X135908284Y-85330394D01*
X135834452Y-85329492D01*
X135690081Y-85327728D01*
X135690079Y-85327728D01*
X135684911Y-85327665D01*
X135464091Y-85361455D01*
X135251756Y-85430857D01*
X135221443Y-85446637D01*
X135074621Y-85523068D01*
X135053607Y-85534007D01*
X135049474Y-85537110D01*
X135049471Y-85537112D01*
X134966450Y-85599446D01*
X134874965Y-85668135D01*
X134720629Y-85829638D01*
X134613201Y-85987121D01*
X134558293Y-86032121D01*
X134487768Y-86040292D01*
X134424021Y-86009038D01*
X134403324Y-85984554D01*
X134322822Y-85860117D01*
X134322820Y-85860114D01*
X134320014Y-85855777D01*
X134169670Y-85690551D01*
X134165619Y-85687352D01*
X134165615Y-85687348D01*
X133998414Y-85555300D01*
X133998410Y-85555298D01*
X133994359Y-85552098D01*
X133798789Y-85444138D01*
X133793920Y-85442414D01*
X133793916Y-85442412D01*
X133593087Y-85371295D01*
X133593083Y-85371294D01*
X133588212Y-85369569D01*
X133583119Y-85368662D01*
X133583116Y-85368661D01*
X133373373Y-85331300D01*
X133373367Y-85331299D01*
X133368284Y-85330394D01*
X133294452Y-85329492D01*
X133150081Y-85327728D01*
X133150079Y-85327728D01*
X133144911Y-85327665D01*
X132924091Y-85361455D01*
X132711756Y-85430857D01*
X132681443Y-85446637D01*
X132534621Y-85523068D01*
X132513607Y-85534007D01*
X132509474Y-85537110D01*
X132509471Y-85537112D01*
X132426450Y-85599446D01*
X132334965Y-85668135D01*
X132180629Y-85829638D01*
X132054743Y-86014180D01*
X132007716Y-86115492D01*
X131973697Y-86188780D01*
X131960688Y-86216805D01*
X131900989Y-86432070D01*
X131877251Y-86654195D01*
X121513751Y-86654195D01*
X121635444Y-86579622D01*
X121704629Y-86537226D01*
X121704632Y-86537224D01*
X121708855Y-86534636D01*
X121790551Y-86464861D01*
X121891636Y-86378525D01*
X121895392Y-86375317D01*
X121898600Y-86371561D01*
X122051494Y-86192547D01*
X122051496Y-86192544D01*
X122054711Y-86188780D01*
X122182886Y-85979616D01*
X122246557Y-85825901D01*
X122274870Y-85757549D01*
X122274871Y-85757547D01*
X122276764Y-85752976D01*
X122324222Y-85555300D01*
X122332876Y-85519254D01*
X122332877Y-85519248D01*
X122334031Y-85514441D01*
X122353278Y-85269884D01*
X122334031Y-85025327D01*
X122276764Y-84786792D01*
X122182886Y-84560152D01*
X122054711Y-84350988D01*
X121895392Y-84164451D01*
X121866401Y-84139690D01*
X121712622Y-84008349D01*
X121712619Y-84008347D01*
X121708855Y-84005132D01*
X121704632Y-84002544D01*
X121704629Y-84002542D01*
X121629625Y-83956580D01*
X121499691Y-83876957D01*
X121354992Y-83817020D01*
X121277624Y-83784973D01*
X121277622Y-83784972D01*
X121273051Y-83783079D01*
X121038440Y-83726754D01*
X120976871Y-83691402D01*
X120944188Y-83628375D01*
X120950768Y-83557684D01*
X120970388Y-83525082D01*
X120970346Y-83525052D01*
X120970718Y-83524534D01*
X121036724Y-83432677D01*
X121100085Y-83344503D01*
X121100089Y-83344497D01*
X121103103Y-83340302D01*
X121203902Y-83136351D01*
X121270037Y-82918675D01*
X121283224Y-82818511D01*
X121299295Y-82696441D01*
X121299295Y-82696437D01*
X121299732Y-82693120D01*
X121301389Y-82625305D01*
X121282748Y-82398569D01*
X121227325Y-82177922D01*
X121173991Y-82055262D01*
X121138669Y-81974027D01*
X121138667Y-81974024D01*
X121136609Y-81969290D01*
X121027755Y-81801026D01*
X121015845Y-81782616D01*
X121015843Y-81782613D01*
X121013037Y-81778276D01*
X120859926Y-81610009D01*
X120681388Y-81469009D01*
X120643684Y-81448195D01*
X120583085Y-81414743D01*
X120482219Y-81359062D01*
X120477350Y-81357338D01*
X120477346Y-81357336D01*
X120272643Y-81284846D01*
X120272639Y-81284845D01*
X120267768Y-81283120D01*
X120262675Y-81282213D01*
X120262672Y-81282212D01*
X120048881Y-81244130D01*
X120048875Y-81244129D01*
X120043792Y-81243224D01*
X119970343Y-81242327D01*
X119821478Y-81240508D01*
X119821476Y-81240508D01*
X119816308Y-81240445D01*
X119591425Y-81274857D01*
X119375182Y-81345536D01*
X119370594Y-81347924D01*
X119370590Y-81347926D01*
X119228858Y-81421707D01*
X119173386Y-81450584D01*
X119169253Y-81453687D01*
X119169250Y-81453689D01*
X119003926Y-81577818D01*
X118991457Y-81587180D01*
X118834280Y-81751656D01*
X118706078Y-81939594D01*
X118703905Y-81944276D01*
X118703903Y-81944279D01*
X118690095Y-81974027D01*
X118610292Y-82145948D01*
X118549495Y-82365174D01*
X118525319Y-82591387D01*
X116664378Y-82591387D01*
X117370947Y-81709444D01*
X117373470Y-81706395D01*
X118125599Y-80825764D01*
X118128217Y-80822794D01*
X118818244Y-80064465D01*
X118907662Y-79966195D01*
X118910367Y-79963315D01*
X119034920Y-79834786D01*
X119447142Y-79409406D01*
X121707300Y-79409406D01*
X121720396Y-79636530D01*
X121721533Y-79641576D01*
X121721534Y-79641582D01*
X121748773Y-79762451D01*
X121770411Y-79858465D01*
X121856003Y-80069251D01*
X121974872Y-80263228D01*
X122123826Y-80435185D01*
X122298865Y-80580505D01*
X122303317Y-80583107D01*
X122303322Y-80583110D01*
X122397327Y-80638042D01*
X122495288Y-80695286D01*
X122707821Y-80776444D01*
X122712887Y-80777475D01*
X122712888Y-80777475D01*
X122781067Y-80791346D01*
X122930755Y-80821800D01*
X123058565Y-80826487D01*
X123152939Y-80829948D01*
X123152943Y-80829948D01*
X123158103Y-80830137D01*
X123163223Y-80829481D01*
X123163225Y-80829481D01*
X123378632Y-80801887D01*
X123378633Y-80801887D01*
X123383760Y-80801230D01*
X123466376Y-80776444D01*
X123596719Y-80737339D01*
X123596720Y-80737338D01*
X123601665Y-80735855D01*
X123805967Y-80635768D01*
X123810171Y-80632770D01*
X123810175Y-80632767D01*
X123986975Y-80506657D01*
X123986977Y-80506655D01*
X123991179Y-80503658D01*
X123994835Y-80500015D01*
X123998793Y-80496670D01*
X124000130Y-80498253D01*
X124054735Y-80468556D01*
X124125542Y-80473740D01*
X124182306Y-80516382D01*
X124203830Y-80562307D01*
X124220746Y-80632767D01*
X124259973Y-80796158D01*
X124261866Y-80800729D01*
X124261867Y-80800731D01*
X124272236Y-80825764D01*
X124353851Y-81022798D01*
X124482026Y-81231962D01*
X124485241Y-81235726D01*
X124485243Y-81235729D01*
X124592715Y-81361561D01*
X124641345Y-81418499D01*
X124645101Y-81421707D01*
X124697561Y-81466512D01*
X124827882Y-81577818D01*
X124832105Y-81580406D01*
X124832108Y-81580408D01*
X124843159Y-81587180D01*
X125037046Y-81705993D01*
X125157592Y-81755925D01*
X125259113Y-81797977D01*
X125259115Y-81797978D01*
X125263686Y-81799871D01*
X125346341Y-81819715D01*
X125497408Y-81855983D01*
X125497414Y-81855984D01*
X125502221Y-81857138D01*
X125746778Y-81876385D01*
X125991335Y-81857138D01*
X125996142Y-81855984D01*
X125996148Y-81855983D01*
X126147215Y-81819715D01*
X126229870Y-81799871D01*
X126234441Y-81797978D01*
X126234443Y-81797977D01*
X126335964Y-81755925D01*
X126456510Y-81705993D01*
X126650397Y-81587180D01*
X126661448Y-81580408D01*
X126661451Y-81580406D01*
X126665674Y-81577818D01*
X126795996Y-81466512D01*
X126848455Y-81421707D01*
X126852211Y-81418499D01*
X126900841Y-81361561D01*
X127008313Y-81235729D01*
X127008315Y-81235726D01*
X127011530Y-81231962D01*
X127139705Y-81022798D01*
X127221320Y-80825764D01*
X127231689Y-80800731D01*
X127231690Y-80800729D01*
X127233583Y-80796158D01*
X127272810Y-80632767D01*
X127289695Y-80562436D01*
X127289696Y-80562430D01*
X127290850Y-80557623D01*
X127310097Y-80313066D01*
X127290850Y-80068509D01*
X127233583Y-79829974D01*
X127139705Y-79603334D01*
X127011530Y-79394170D01*
X126852211Y-79207633D01*
X126763220Y-79131627D01*
X126669441Y-79051531D01*
X126669438Y-79051529D01*
X126665674Y-79048314D01*
X126661451Y-79045726D01*
X126661448Y-79045724D01*
X126572475Y-78991202D01*
X126456510Y-78920139D01*
X126311811Y-78860202D01*
X126234443Y-78828155D01*
X126234441Y-78828154D01*
X126229870Y-78826261D01*
X126147215Y-78806417D01*
X125996148Y-78770149D01*
X125996142Y-78770148D01*
X125991335Y-78768994D01*
X125746778Y-78749747D01*
X125502221Y-78768994D01*
X125497414Y-78770148D01*
X125497408Y-78770149D01*
X125346341Y-78806417D01*
X125263686Y-78826261D01*
X125259115Y-78828154D01*
X125259113Y-78828155D01*
X125181745Y-78860202D01*
X125037046Y-78920139D01*
X124921081Y-78991202D01*
X124832108Y-79045724D01*
X124832105Y-79045726D01*
X124827882Y-79048314D01*
X124824118Y-79051529D01*
X124824115Y-79051531D01*
X124648602Y-79201435D01*
X124583812Y-79230466D01*
X124513612Y-79219861D01*
X124460290Y-79172987D01*
X124444567Y-79136320D01*
X124410565Y-79000953D01*
X124410565Y-79000952D01*
X124409306Y-78995941D01*
X124355972Y-78873281D01*
X124320650Y-78792046D01*
X124320648Y-78792043D01*
X124318590Y-78787309D01*
X124195018Y-78596295D01*
X124041907Y-78428028D01*
X123863369Y-78287028D01*
X123825665Y-78266214D01*
X123810997Y-78258117D01*
X123664200Y-78177081D01*
X123659331Y-78175357D01*
X123659327Y-78175355D01*
X123454624Y-78102865D01*
X123454620Y-78102864D01*
X123449749Y-78101139D01*
X123444656Y-78100232D01*
X123444653Y-78100231D01*
X123230862Y-78062149D01*
X123230856Y-78062148D01*
X123225773Y-78061243D01*
X123152324Y-78060346D01*
X123003459Y-78058527D01*
X123003457Y-78058527D01*
X122998289Y-78058464D01*
X122773406Y-78092876D01*
X122557163Y-78163555D01*
X122552575Y-78165943D01*
X122552571Y-78165945D01*
X122359956Y-78266214D01*
X122355367Y-78268603D01*
X122351234Y-78271706D01*
X122351231Y-78271708D01*
X122330827Y-78287028D01*
X122173438Y-78405199D01*
X122016261Y-78569675D01*
X121888059Y-78757613D01*
X121885886Y-78762295D01*
X121885884Y-78762298D01*
X121811417Y-78922725D01*
X121792273Y-78963967D01*
X121731476Y-79183193D01*
X121730927Y-79188330D01*
X121708477Y-79398396D01*
X121707300Y-79409406D01*
X119447142Y-79409406D01*
X119716359Y-79131596D01*
X119719096Y-79128859D01*
X120550820Y-78322863D01*
X120553700Y-78320158D01*
X120590110Y-78287028D01*
X121410294Y-77540717D01*
X121413264Y-77538099D01*
X122293895Y-76785970D01*
X122296944Y-76783447D01*
X123200804Y-76059319D01*
X123203932Y-76056893D01*
X124130053Y-75361541D01*
X124133255Y-75359214D01*
X125080793Y-74693273D01*
X125084067Y-74691048D01*
X125322617Y-74534350D01*
X125698410Y-74287500D01*
X131375000Y-74287500D01*
X139575000Y-74287500D01*
X139575000Y-72320203D01*
X143765743Y-72320203D01*
X143803268Y-72605234D01*
X143879129Y-72882536D01*
X143991923Y-73146976D01*
X144139561Y-73393661D01*
X144319313Y-73618028D01*
X144527851Y-73815923D01*
X144761317Y-73983686D01*
X144765112Y-73985695D01*
X144765113Y-73985696D01*
X144786869Y-73997215D01*
X145015392Y-74118212D01*
X145285373Y-74217011D01*
X145566264Y-74278255D01*
X145594841Y-74280504D01*
X145789282Y-74295807D01*
X145789291Y-74295807D01*
X145791739Y-74296000D01*
X145947271Y-74296000D01*
X145949407Y-74295854D01*
X145949418Y-74295854D01*
X146157548Y-74281665D01*
X146157554Y-74281664D01*
X146161825Y-74281373D01*
X146166020Y-74280504D01*
X146166022Y-74280504D01*
X146302583Y-74252224D01*
X146443342Y-74223074D01*
X146714343Y-74127107D01*
X146969812Y-73995250D01*
X146973313Y-73992789D01*
X146973317Y-73992787D01*
X147179756Y-73847699D01*
X147205023Y-73829941D01*
X147415622Y-73634240D01*
X147597713Y-73411768D01*
X147747927Y-73166642D01*
X147863483Y-72903398D01*
X147942244Y-72626906D01*
X147982751Y-72342284D01*
X147982825Y-72328311D01*
X147984235Y-72059083D01*
X147984235Y-72059076D01*
X147984257Y-72054797D01*
X147946732Y-71769766D01*
X147870871Y-71492464D01*
X147805299Y-71338734D01*
X147759763Y-71231976D01*
X147759761Y-71231972D01*
X147758077Y-71228024D01*
X147610439Y-70981339D01*
X147430687Y-70756972D01*
X147222149Y-70559077D01*
X147032064Y-70422487D01*
X146992172Y-70393821D01*
X146992171Y-70393820D01*
X146988683Y-70391314D01*
X146966843Y-70379750D01*
X146943654Y-70367472D01*
X146734608Y-70256788D01*
X146464627Y-70157989D01*
X146183736Y-70096745D01*
X146152685Y-70094301D01*
X145960718Y-70079193D01*
X145960709Y-70079193D01*
X145958261Y-70079000D01*
X145802729Y-70079000D01*
X145800593Y-70079146D01*
X145800582Y-70079146D01*
X145592452Y-70093335D01*
X145592446Y-70093336D01*
X145588175Y-70093627D01*
X145583980Y-70094496D01*
X145583978Y-70094496D01*
X145447417Y-70122776D01*
X145306658Y-70151926D01*
X145035657Y-70247893D01*
X144780188Y-70379750D01*
X144776687Y-70382211D01*
X144776683Y-70382213D01*
X144766594Y-70389304D01*
X144544977Y-70545059D01*
X144334378Y-70740760D01*
X144152287Y-70963232D01*
X144002073Y-71208358D01*
X143886517Y-71471602D01*
X143807756Y-71748094D01*
X143767249Y-72032716D01*
X143767227Y-72037005D01*
X143767226Y-72037012D01*
X143766931Y-72093365D01*
X143765743Y-72320203D01*
X139575000Y-72320203D01*
X139575000Y-72087500D01*
X131375000Y-72087500D01*
X131375000Y-74287500D01*
X125698410Y-74287500D01*
X126052058Y-74055196D01*
X126055360Y-74053101D01*
X126738879Y-73634240D01*
X127042850Y-73447967D01*
X127046257Y-73445952D01*
X127529527Y-73170299D01*
X128052307Y-72872110D01*
X128055662Y-72870266D01*
X129079285Y-72328286D01*
X129082763Y-72326515D01*
X129558681Y-72093365D01*
X130122787Y-71817013D01*
X130126337Y-71815341D01*
X130682346Y-71564293D01*
X131181905Y-71338734D01*
X131185538Y-71337162D01*
X132052650Y-70977992D01*
X132255519Y-70893961D01*
X132259189Y-70892508D01*
X133342548Y-70483142D01*
X133346272Y-70481801D01*
X134287737Y-70159464D01*
X134441990Y-70106651D01*
X134445734Y-70105435D01*
X135552695Y-69764890D01*
X135556462Y-69763796D01*
X136673547Y-69458196D01*
X136677361Y-69457217D01*
X136985334Y-69383279D01*
X137803535Y-69186846D01*
X137807398Y-69185983D01*
X138397848Y-69063706D01*
X138941467Y-68951128D01*
X138945305Y-68950396D01*
X139550060Y-68844849D01*
X140086230Y-68751273D01*
X140090139Y-68750654D01*
X140570248Y-68682324D01*
X141236749Y-68587467D01*
X141240619Y-68586978D01*
X141902264Y-68513932D01*
X142391764Y-68459891D01*
X142395704Y-68459518D01*
X143550298Y-68368649D01*
X143554249Y-68368401D01*
X144711086Y-68313846D01*
X144715042Y-68313722D01*
X145566980Y-68300339D01*
X145873027Y-68295531D01*
X145876973Y-68295531D01*
X146183020Y-68300339D01*
G37*
%TD.AperFunction*%
%TD*%
M02*
